<?xml version="1.0" standalone="no"?>
<!DOCTYPE svg PUBLIC "-//W3C//DTD SVG 1.1//EN" "http://www.w3.org/Graphics/SVG/1.1/DTD/svg11.dtd" >
<svg xmlns="http://www.w3.org/2000/svg" xmlns:xlink="http://www.w3.org/1999/xlink" version="1.1">
<metadata>
Created by FontForge 20170731 at Fri Sep 18 15:16:09 2020
 By Aleksey,,,
Copyright (c) 2017 by Typesketchbook. All rights reserved.
</metadata>
<defs>
<font id="Calps-Black" horiz-adv-x="872" >
  <font-face 
    font-family="Calps Black"
    font-weight="900"
    font-stretch="normal"
    units-per-em="2048"
    panose-1="2 0 0 0 0 0 0 0 0 0"
    ascent="1638"
    descent="-410"
    x-height="942"
    cap-height="1266"
    bbox="-88 -414 1653 1878"
    underline-thickness="71"
    underline-position="-294"
    unicode-range="U+0020-FB02"
  />
<missing-glyph horiz-adv-x="1161" 
d="M1094 0h-1047v1282h1047v-1282zM139 88h39v43h-39l-4 -41q4 0 4 -2zM999 1192v-4h5q0 4 -5 4zM999 1188h-36v-37h36v37zM1004 92l-5 39h-36v-39h41zM141 1192v-41h37v41l-39 2q0 -2 2 -2zM178 1151v-1020h785v1020h-785z" />
    <glyph glyph-name=".notdef" horiz-adv-x="1161" 
d="M1094 0h-1047v1282h1047v-1282zM139 88h39v43h-39l-4 -41q4 0 4 -2zM999 1192v-4h5q0 4 -5 4zM999 1188h-36v-37h36v37zM1004 92l-5 39h-36v-39h41zM141 1192v-41h37v41l-39 2q0 -2 2 -2zM178 1151v-1020h785v1020h-785z" />
    <glyph glyph-name=".null" horiz-adv-x="0" 
 />
    <glyph glyph-name="nonmarkingreturn" horiz-adv-x="378" 
 />
    <glyph glyph-name="space" unicode=" " horiz-adv-x="378" 
 />
    <glyph glyph-name="exclam" unicode="!" horiz-adv-x="446" 
d="M82 424v799q0 17 12.5 29t28.5 14h196q17 -2 29 -14t12 -29v-799q0 -18 -11.5 -29.5t-29.5 -13.5h-196q-16 2 -28.5 13.5t-12.5 29.5zM86 43v176q0 17 11.5 28t29.5 13h199q16 -2 27.5 -13t11.5 -28v-176q0 -17 -11.5 -29t-27.5 -14h-199q-17 2 -29 14t-12 29z" />
    <glyph glyph-name="quotedbl" unicode="&#x22;" horiz-adv-x="710" 
d="M106 883l-24 346q0 15 11 25t26 12h174q14 -2 24.5 -12t10.5 -25l-29 -346q0 -15 -10.5 -26t-24.5 -13h-121q-15 2 -26 13t-11 26zM408 883l-25 346q0 15 11 25t26 12h174q14 -2 24.5 -12t10.5 -25l-29 -346q0 -15 -10.5 -26t-24.5 -13h-121q-15 2 -25.5 13t-10.5 26z
" />
    <glyph glyph-name="numbersign" unicode="#" horiz-adv-x="1366" 
d="M1247 956q13 0 24 -10t13 -24v-170q-2 -12 -13 -22.5t-24 -10.5h-200l-41 -180h157q13 0 24 -10.5t13 -24.5v-170q-2 -12 -13 -22.5t-24 -10.5h-211l-59 -262q-3 -15 -14.5 -26.5t-26.5 -12.5h-195q-15 1 -26.5 12.5t-14.5 26.5l60 262h-135l-58 -262q-3 -15 -14.5 -26.5
t-26.5 -12.5h-194q-15 1 -26.5 12.5t-14.5 26.5l57 262h-145q-13 0 -24 10.5t-13 22.5v170q2 14 13 24.5t24 10.5h198l41 180h-155q-13 0 -24 10.5t-13 22.5v170q2 14 13 24t24 10h207l61 271q3 15 14.5 26.5t26.5 12.5h197q17 -2 29 -13t12 -26l-62 -271h133l60 271
q3 15 14.5 26.5t26.5 12.5h196q17 -2 29 -13t12 -26l-59 -271h147zM727 539l41 180h-133l-41 -180h133z" />
    <glyph glyph-name="dollar" unicode="$" horiz-adv-x="940" 
d="M332 1268l47 256q7 38 41 41h190q16 -2 27.5 -13t11.5 -28l-82 -258q62 -15 109 -49t73 -72.5t43 -86.5t22.5 -83t6.5 -70q0 -17 -11.5 -29t-27.5 -14h-198q-17 2 -29 14t-12 29q-3 26 -7 44.5t-13 42t-27.5 36t-44.5 12.5q-89 0 -89 -106q0 -47 27.5 -84t71 -62.5
t96.5 -50.5t106 -56.5t96.5 -72t71 -105.5t27.5 -149q0 -155 -76 -243t-200 -113l-37 -203q-7 -38 -41 -41h-191q-16 2 -27.5 13t-11.5 28l66 207q-114 32 -186 123.5t-72 245.5q0 17 11.5 29t27.5 14h198q17 -2 29 -14t12 -29q0 -23 1 -37.5t7.5 -37.5t18 -36.5t35.5 -24
t57 -10.5q35 0 60.5 11.5t37.5 26t18.5 34.5t7.5 29t1 18q0 39 -28.5 71.5t-74.5 57.5t-101.5 51t-111 60.5t-101.5 77.5t-74.5 109t-28.5 149q0 292 248 348z" />
    <glyph glyph-name="percent" unicode="%" horiz-adv-x="1175" 
d="M930 1225l-426 -1182q-14 -40 -47 -43h-176q-12 2 -21.5 13t-9.5 24q0 4 424 1188q13 38 45 41h176q14 -2 25.5 -10.5t11.5 -20.5q0 -6 -2 -10zM281 819q-93 0 -146 56.5t-53 166.5t53 167t146 57q94 0 147 -57t53 -167t-53 -166.5t-147 -56.5zM281 965q19 0 32 20t13 57
q0 39 -13 57.5t-32 18.5t-32 -18.5t-13 -57.5q0 -37 13 -57t32 -20zM895 0q-95 0 -148 56.5t-53 166.5t53 166.5t148 56.5q93 0 146 -56.5t53 -166.5t-53 -166.5t-146 -56.5zM895 145q19 0 32 20t13 58q0 39 -13 57.5t-32 18.5t-32 -18.5t-13 -57.5q0 -38 13 -58t32 -20z
" />
    <glyph glyph-name="ampersand" unicode="&#x26;" horiz-adv-x="1161" 
d="M733 465l86 156q10 20 35 24h172q17 -2 29 -14t12 -29l-176 -332l188 -227q0 -17 -12.5 -29t-28.5 -14h-207q-20 3 -30 16l-62 76q-48 -48 -127.5 -86.5t-162.5 -38.5q-30 0 -58 2.5t-66.5 10.5t-70.5 21.5t-65 38.5t-55.5 58t-37 82.5t-14.5 110.5q0 70 22 132t53 101
t62.5 68t53.5 41l22 12q-137 126 -137 301q0 76 22 136t56 96t79.5 60t89 33t87.5 9q145 0 243.5 -78t98.5 -231q0 -60 -23 -119.5t-55.5 -101.5t-65 -76t-55.5 -51l-23 -17zM467 205q35 0 76.5 26.5t46.5 42.5l-160 193q-10 -8 -25.5 -21.5t-41 -55.5t-25.5 -83
q0 -47 31.5 -74.5t97.5 -27.5zM492 799q10 9 24 25t38 56.5t24 71.5q0 50 -26.5 77.5t-64.5 27.5q-3 0 -7.5 -0.5t-17 -6.5t-22 -16t-17 -32t-7.5 -52q0 -41 19 -78.5t38 -55.5z" />
    <glyph glyph-name="quotesingle" unicode="'" horiz-adv-x="409" 
d="M106 883l-24 346q0 15 11 25t26 12h174q14 -2 24.5 -12t10.5 -25l-29 -346q0 -15 -10.5 -26t-24.5 -13h-121q-15 2 -26 13t-11 26z" />
    <glyph glyph-name="parenleft" unicode="(" horiz-adv-x="507" 
d="M426 -199q0 -17 -11.5 -29t-27.5 -14h-199q-34 3 -41 43q-65 415 -65 858q0 438 65 811q0 17 11.5 28t29.5 13h199q16 -2 27.5 -13t11.5 -28q-66 -379 -66 -811q0 -417 66 -858z" />
    <glyph glyph-name="parenright" unicode=")" horiz-adv-x="507" 
d="M82 -199q65 434 65 858q0 438 -65 811q0 17 11.5 28t27.5 13h198q18 -2 29.5 -13t11.5 -28q66 -379 66 -811q0 -437 -66 -858q-7 -40 -41 -43h-198q-16 2 -27.5 14t-11.5 29z" />
    <glyph glyph-name="asterisk" unicode="*" horiz-adv-x="948" 
d="M573 532l-100 197l-96 -197q-3 -7 -12 -12.5t-17 -5.5q-6 0 -18 6l-148 78q-13 8 -18 31q0 4 4 16l123 178l-195 105q-14 10 -14 26q0 5 8 21l90 139q10 16 29 16q9 0 18 -6l144 -112l-17 219q0 13 11 23t26 12h166q15 -2 25 -12t10 -23l-14 -219l143 112q9 6 18 6
q19 0 29 -16l90 -139q8 -16 8 -21q0 -16 -16 -26l-195 -105l127 -178q4 -12 4 -16q-5 -23 -18 -31l-147 -78q-12 -6 -21 -6q-20 0 -27 18z" />
    <glyph glyph-name="plus" unicode="+" horiz-adv-x="776" 
d="M268 625v186q0 13 10.5 24t22.5 13h170q14 -2 24.5 -13t10.5 -24v-186h151q13 0 24 -10.5t13 -24.5v-170q-2 -12 -13 -22.5t-24 -10.5h-151v-190q0 -13 -10.5 -24t-24.5 -13h-170q-12 2 -22.5 13t-10.5 24v190h-149q-13 0 -24 10.5t-13 22.5v170q2 14 13 24.5t24 10.5
h149z" />
    <glyph glyph-name="comma" unicode="," horiz-adv-x="495" 
d="M82 -154l61 338q7 38 41 41h191q16 -2 27.5 -13t11.5 -28l-107 -338q-14 -41 -39 -43h-145q-17 2 -29 14t-12 29z" />
    <glyph glyph-name="hyphen" unicode="-" horiz-adv-x="770" 
d="M651 389h-532q-13 0 -24 10.5t-13 22.5v170q2 14 13 24.5t24 10.5h532q13 0 24 -10.5t13 -24.5v-170q-2 -12 -13 -22.5t-24 -10.5z" />
    <glyph glyph-name="period" unicode="." horiz-adv-x="450" 
d="M82 131q0 60 41.5 100.5t101.5 40.5t102 -40.5t42 -100.5t-42 -102.5t-102 -42.5t-101.5 42.5t-41.5 102.5z" />
    <glyph glyph-name="slash" unicode="/" horiz-adv-x="749" 
d="M668 1470l-330 -1669q-7 -40 -41 -43h-176q-16 2 -27.5 14t-11.5 29l330 1669q7 38 39 41h176q18 -2 29.5 -13t11.5 -28z" />
    <glyph glyph-name="zero" unicode="0" horiz-adv-x="911" 
d="M457 225q43 0 74.5 27.5t31.5 85.5v590q0 58 -31.5 85t-74.5 27q-44 0 -75.5 -27t-31.5 -85v-590q0 -58 31.5 -85.5t75.5 -27.5zM457 -14q-167 0 -276 103.5t-109 260.5v565q0 157 109 261t276 104q165 0 274 -104t109 -261v-565q0 -157 -108.5 -260.5t-274.5 -103.5z
" />
    <glyph glyph-name="one" unicode="1" horiz-adv-x="622" 
d="M262 1004l-196 -107q-8 -4 -21 -4q-31 0 -35 27v174q2 14 13.5 31.5t23.5 23.5l186 102q40 15 54 15h215q16 -2 27.5 -13t11.5 -28v-1182q0 -17 -11.5 -29t-27.5 -14h-199q-17 2 -29 14t-12 29v961z" />
    <glyph glyph-name="two" unicode="2" horiz-adv-x="794" 
d="M356 240h314q14 0 24.5 -10.5t12.5 -24.5v-170q-2 -13 -12.5 -24t-24.5 -11h-582q-17 2 -29 14t-12 29v166q0 77 23.5 146.5t61.5 122t83.5 101t91 91t83.5 82.5t61.5 84.5t23.5 89.5v35q-2 35 -23 58t-55 23q-38 0 -58 -25t-20 -87q0 -17 -12.5 -30t-27.5 -15h-197
q-17 2 -29 13t-12 26q0 181 99 268.5t257 87.5q149 0 253 -92t104 -234v-69q0 -60 -22 -116.5t-57 -101.5t-77.5 -88t-85 -83.5t-77.5 -79.5t-57 -84.5t-22 -91.5z" />
    <glyph glyph-name="three" unicode="3" horiz-adv-x="825" 
d="M754 412v-101q0 -142 -104 -233.5t-253 -91.5q-158 0 -257 87.5t-99 268.5q0 15 12 26t29 13h197q15 -2 27.5 -15t12.5 -30q0 -62 20 -87.5t58 -25.5q35 0 56.5 23.5t21.5 58.5v127q0 35 -21.5 58.5t-56.5 23.5h-61q-13 0 -24 10.5t-13 22.5v170q2 14 13 24.5t24 10.5h61
q35 0 56.5 23.5t21.5 58.5v127q0 34 -21.5 57.5t-56.5 23.5q-38 0 -58 -25t-20 -87q0 -17 -12.5 -30t-27.5 -15h-197q-17 2 -29 13t-12 26q0 181 99 268.5t257 87.5q149 0 253 -92t104 -234v-114q0 -126 -92 -209q92 -79 92 -219z" />
    <glyph glyph-name="four" unicode="4" horiz-adv-x="849" 
d="M436 279h-379q-13 0 -24 10t-13 22v193q0 25 9 43l336 694q15 25 57 25h254q16 -2 27.5 -13t11.5 -28v-709h88q13 0 24 -10.5t13 -24.5v-170q-2 -12 -13 -22t-24 -10h-88v-236q0 -17 -11.5 -29t-27.5 -14h-199q-17 2 -29 14t-12 29v236zM436 516v281l-125 -281h125z" />
    <glyph glyph-name="five" unicode="5" horiz-adv-x="845" 
d="M360 549q-14 -28 -36 -31h-211q-17 2 -29 14t-12 29v662q0 17 12 29t29 14h546q14 0 24.5 -11t12.5 -24v-170q-2 -14 -12 -24.5t-25 -10.5h-309v-242q24 22 51.5 32.5t83.5 10.5q149 0 224 -93t75 -247v-174q0 -142 -103.5 -233.5t-252.5 -91.5t-252.5 91.5t-103.5 233.5
q0 15 12 26t29 13h196q16 -2 28.5 -15t12.5 -30q0 -35 21.5 -58.5t56.5 -23.5t56.5 23.5t21.5 58.5v199q0 35 -21.5 58.5t-56.5 23.5q-48 0 -68 -39z" />
    <glyph glyph-name="six" unicode="6" horiz-adv-x="845" 
d="M428 1040q-78 0 -78 -118v-138q24 22 51.5 32.5t83.5 10.5q149 0 224 -93t75 -247v-174q0 -142 -103.5 -233.5t-252.5 -91.5t-252.5 91.5t-103.5 233.5v627q0 147 100.5 243.5t255.5 96.5q159 0 257.5 -86t98.5 -248q0 -15 -12 -26t-29 -13h-196q-41 4 -41 33
q0 56 -20 78t-58 22zM428 588q-35 0 -56.5 -23.5t-21.5 -58.5v-199q0 -35 21.5 -58.5t56.5 -23.5t56.5 23.5t21.5 58.5v199q0 35 -21.5 58.5t-56.5 23.5z" />
    <glyph glyph-name="seven" unicode="7" horiz-adv-x="690" 
d="M365 1026h-308q-15 0 -25 10.5t-12 24.5v170q2 13 12.5 24t24.5 11h572q17 -2 29 -14t12 -29v-195l-295 -987q-16 -39 -41 -41h-225q-16 2 -27.5 13t-11.5 28z" />
    <glyph glyph-name="eight" unicode="8" horiz-adv-x="835" 
d="M418 1280q155 0 255.5 -96.5t100.5 -243.5v-84q0 -63 -29.5 -129t-74.5 -96q47 -29 75.5 -98.5t28.5 -137.5v-84q0 -142 -103.5 -233.5t-252.5 -91.5t-253 91.5t-104 233.5v84q0 67 29 137t76 99q-45 30 -75 96t-30 129v84q0 147 101 243.5t256 96.5zM418 223
q35 0 56.5 23.5t21.5 58.5v125q0 35 -21.5 58.5t-56.5 23.5t-56.5 -23.5t-21.5 -58.5v-125q0 -35 21.5 -58.5t56.5 -23.5zM418 752q35 0 56.5 23.5t21.5 58.5v124q0 35 -21.5 58.5t-56.5 23.5t-56.5 -23.5t-21.5 -58.5v-124q0 -35 21.5 -58.5t56.5 -23.5z" />
    <glyph glyph-name="nine" unicode="9" horiz-adv-x="845" 
d="M418 227q78 0 78 119v137q-24 -22 -52 -32.5t-84 -10.5q-149 0 -224 93t-75 247v174q0 142 104 234t253 92t252.5 -92t103.5 -234v-626q0 -147 -100.5 -243.5t-255.5 -96.5q-159 0 -258 86.5t-99 247.5q0 15 12 25.5t29 12.5h197q41 -4 41 -32q0 -57 20 -79t58 -22z
M418 680q35 0 56.5 23.5t21.5 58.5v199q0 34 -21.5 57.5t-56.5 23.5t-56.5 -23.5t-21.5 -57.5v-199q0 -35 21.5 -58.5t56.5 -23.5z" />
    <glyph glyph-name="colon" unicode=":" horiz-adv-x="450" 
d="M82 131q0 60 41.5 100.5t101.5 40.5t102 -40.5t42 -100.5t-42 -102.5t-102 -42.5t-101.5 42.5t-41.5 102.5zM82 635q0 60 41.5 101.5t101.5 41.5t102 -41.5t42 -101.5t-42 -101.5t-102 -41.5t-101.5 41.5t-41.5 101.5z" />
    <glyph glyph-name="semicolon" unicode=";" horiz-adv-x="450" 
d="M82 635q0 60 41.5 101.5t101.5 41.5t102 -41.5t42 -101.5t-42 -101.5t-102 -41.5t-101.5 41.5t-41.5 101.5zM369 145v-20q0 -27 -5 -63.5t-15.5 -79.5t-31.5 -74.5t-49 -36.5h-112q-19 3 -19 29l8 20q28 71 29 90q-40 15 -66 52.5t-26 82.5q0 60 41.5 101t101.5 41
t102 -41t42 -101z" />
    <glyph glyph-name="less" unicode="&#x3c;" horiz-adv-x="720" 
d="M82 252v246q3 36 45 49l473 207q15 0 26 -12t13 -29v-185q-1 -15 -12.5 -26.5t-26.5 -14.5l-281 -110l281 -109q36 -11 39 -41v-186q-2 -17 -13 -29t-26 -12l-473 203q-42 13 -45 49z" />
    <glyph glyph-name="equal" unicode="=" horiz-adv-x="770" 
d="M651 182h-532q-13 0 -24 10.5t-13 22.5v170q2 14 13 24.5t24 10.5h532q13 0 24 -10.5t13 -24.5v-170q-2 -12 -13 -22.5t-24 -10.5zM651 502h-532q-13 0 -24 10.5t-13 22.5v170q2 14 13 24t24 10h532q13 0 24 -10t13 -24v-170q-2 -12 -13 -22.5t-24 -10.5z" />
    <glyph glyph-name="greater" unicode="&#x3e;" horiz-adv-x="720" 
d="M639 498v-246q-3 -36 -45 -49l-473 -203q-15 0 -26 12t-13 29v186q3 30 39 41l280 109l-280 110q-15 3 -26.5 14.5t-12.5 26.5v185q2 17 13 29t26 12l473 -207q42 -13 45 -49z" />
    <glyph glyph-name="question" unicode="?" horiz-adv-x="876" 
d="M268 385v94q0 55 25.5 105t62 87.5t73 74.5t62 83t25.5 97v35q-2 35 -23 58t-55 23q-38 0 -58 -25t-20 -87q0 -17 -12.5 -30t-28.5 -15h-196q-17 2 -29 13t-12 26q0 181 99 268.5t257 87.5q149 0 253 -92t104 -234v-69q0 -64 -25.5 -119.5t-62 -95.5t-73 -77.5t-62 -80.5
t-25.5 -88v-39q0 -17 -11.5 -29t-27.5 -14h-199q-17 2 -29 14t-12 29zM268 43v176q0 17 11.5 28t29.5 13h199q16 -2 27.5 -13t11.5 -28v-176q0 -17 -11.5 -29t-27.5 -14h-199q-17 2 -29 14t-12 29z" />
    <glyph glyph-name="at" unicode="@" horiz-adv-x="1179" 
d="M819 434v135q0 37 -16 59.5t-49 22.5q-31 0 -48.5 -23.5t-17.5 -58.5v-135q0 -35 17.5 -58.5t48.5 -23.5q33 0 49 22.5t16 59.5zM743 -213h-243q-122 0 -220 59.5t-148 148t-50 183.5v711q0 95 50 183.5t148 148t220 59.5h180q122 0 220 -59.5t148 -148t50 -183.5v-719
q0 -17 -12.5 -29t-28.5 -14h-164q-17 2 -29 14t-12 29v23q-47 -50 -82.5 -64t-89.5 -14q-108 0 -173 75.5t-65 188.5v248q0 112 65.5 188t172.5 76q56 0 95 -15.5t77 -64.5v35q0 26 -5.5 52.5t-22 58t-41.5 55t-68.5 39.5t-98.5 16h-53q-55 0 -98 -16t-68 -39.5t-41.5 -55
t-22 -58t-5.5 -52.5v-625q0 -26 5.5 -52.5t22 -58t41.5 -55t68 -39.5t98 -16h180q13 0 22 -9t11 -22v-151q-2 -12 -11 -21.5t-22 -9.5z" />
    <glyph glyph-name="A" unicode="A" horiz-adv-x="909" 
d="M627 1223l262 -1182q0 -15 -12 -27.5t-29 -13.5h-197q-15 1 -26.5 13.5t-14.5 27.5l-26 115h-260l-25 -115q-3 -15 -14.5 -27.5t-26.5 -13.5h-197q-17 1 -29 13.5t-12 27.5l265 1182q10 40 41 43h260q31 -3 41 -43zM379 393h149l-73 367z" />
    <glyph glyph-name="B" unicode="B" horiz-adv-x="894" 
d="M702 657q51 -19 96.5 -102t45.5 -168v-14q0 -165 -114 -269t-267 -104h-338q-19 2 -31 14t-12 29v1182q0 17 12 28t31 13h311q100 0 185.5 -40.5t140.5 -123.5t55 -193v-30q0 -155 -115 -222zM360 1028v-270h76q40 0 72.5 34t32.5 95v16q0 61 -32.5 93t-72.5 32h-76z
M463 240q39 0 71.5 39.5t32.5 101.5t-32.5 99.5t-71.5 37.5h-103v-278h103z" />
    <glyph glyph-name="C" unicode="C" horiz-adv-x="860" 
d="M72 350v565q0 157 109 261t274 104q166 0 275.5 -104t109.5 -261q0 -17 -12.5 -29t-28.5 -14h-197q-17 2 -29 14t-12 29v13q0 58 -31 85t-75 27q-43 0 -74 -27t-31 -85v-590q0 -58 31 -85.5t74 -27.5t74.5 28.5t31.5 86.5v12q0 17 11.5 28t29.5 13h197q16 -2 28.5 -13.5
t12.5 -27.5q0 -157 -109.5 -260.5t-275.5 -103.5t-274.5 102.5t-108.5 259.5z" />
    <glyph glyph-name="D" unicode="D" horiz-adv-x="907" 
d="M463 1266q165 0 274 -104t109 -261v-539q0 -157 -108.5 -259.5t-274.5 -102.5h-340q-17 2 -29 14t-12 29v1182q0 17 11.5 28t29.5 13h340zM567 350v563q0 58 -31 85.5t-73 27.5h-103v-788h103q43 0 73.5 27t30.5 85z" />
    <glyph glyph-name="E" unicode="E" horiz-adv-x="768" 
d="M123 1266h547q13 0 24 -10.5t13 -24.5v-170q-2 -12 -13 -22.5t-24 -10.5h-310v-311h218q14 0 24 -11t12 -24v-170q-2 -14 -12 -24.5t-24 -10.5h-218v-237h310q13 0 24 -10.5t13 -24.5v-170q-2 -13 -13 -24t-24 -11h-547q-16 2 -28.5 14t-12.5 29v1182q0 16 12.5 27.5
t28.5 13.5z" />
    <glyph glyph-name="F" unicode="F" horiz-adv-x="696" 
d="M123 1266h547q13 0 24 -10.5t13 -24.5v-170q-2 -12 -13 -22.5t-24 -10.5h-310v-311h218q14 0 24 -11t12 -24v-170q-2 -14 -12 -24.5t-24 -10.5h-218v-434q0 -17 -12 -29t-29 -14h-196q-16 2 -28.5 14t-12.5 29v1182q0 16 12.5 27.5t28.5 13.5z" />
    <glyph glyph-name="G" unicode="G" horiz-adv-x="921" 
d="M563 510h-74q-14 0 -24 10.5t-12 24.5v143q2 13 12 24t24 11h320q11 0 20 -11t11 -22v-659q0 -11 -7.5 -20t-17.5 -11h-125q-9 2 -16.5 10.5t-7.5 20.5v35q-87 -80 -209 -80q-168 0 -276.5 103.5t-108.5 260.5v565q0 158 108.5 261.5t276.5 103.5q165 0 274 -104
t109 -261v-41q0 -17 -11.5 -27.5t-29.5 -12.5h-197q-16 2 -28.5 13t-12.5 27v56q0 57 -31 83.5t-73 26.5q-44 0 -75.5 -26.5t-31.5 -83.5v-592q0 -57 32 -85t75 -28q42 0 74 28t32 85v172z" />
    <glyph glyph-name="H" unicode="H" horiz-adv-x="917" 
d="M795 1266q18 -2 29.5 -13t11.5 -28v-1182q0 -17 -12 -29t-29 -14h-195q-19 1 -30 13.5t-11 29.5v426h-199v-426q0 -17 -12.5 -29t-30.5 -14h-194q-19 1 -30 13.5t-11 29.5v1182q0 17 11 28t30 13h194q18 -2 30.5 -13t12.5 -28v-514h199v514q0 17 11 28t30 13h195z" />
    <glyph glyph-name="I" unicode="I" horiz-adv-x="442" 
d="M82 43v1182q0 17 11.5 28t29.5 13h199q16 -2 27 -13t11 -28v-1182q0 -17 -11.5 -29t-26.5 -14h-199q-17 2 -29 14t-12 29z" />
    <glyph glyph-name="J" unicode="J" horiz-adv-x="808" 
d="M449 313v912q0 17 11 28t29 13h199q16 -2 27.5 -13t11.5 -28v-912q0 -142 -105 -233.5t-255 -91.5q-149 0 -253 91.5t-104 233.5v54q0 17 11.5 29t27.5 14h199q17 -2 29 -14t12 -29v-60q0 -35 21.5 -58.5t56.5 -23.5t58.5 25t23.5 63z" />
    <glyph glyph-name="K" unicode="K" horiz-adv-x="903" 
d="M360 772l215 457q23 37 50 37h202q15 0 27 -12t12 -27l-239 -512l256 -674q0 -34 -41 -41h-197q-15 3 -34.5 15.5t-28.5 25.5l-133 332l-89 -174v-156q0 -15 -11.5 -27.5t-26.5 -15.5h-199q-17 3 -29 15.5t-12 27.5v1184q0 15 12 27t29 12h199q15 0 26.5 -12t11.5 -27
v-455z" />
    <glyph glyph-name="L" unicode="L" horiz-adv-x="737" 
d="M360 240h310q14 0 24.5 -10.5t12.5 -24.5v-170q-2 -13 -12.5 -24t-24.5 -11h-547q-17 2 -29 14t-12 29v1182q0 17 11.5 28t29.5 13h199q16 -2 27 -13t11 -28v-985z" />
    <glyph glyph-name="M" unicode="M" horiz-adv-x="1099" 
d="M598 322h-94q-20 3 -29 22l-115 328v-629q0 -17 -11.5 -29t-26.5 -14h-199q-17 2 -29 14t-12 29v1182q0 17 11.5 28t29.5 13h217q17 -3 31 -17q10 -10 16 -22l164 -467l166 467q6 12 16 22q14 14 31 17h213q18 -2 29.5 -13t11.5 -28v-1182q0 -17 -12 -29t-29 -14h-199
q-16 2 -27.5 14t-11.5 29v629l-112 -328q-9 -19 -29 -22z" />
    <glyph glyph-name="N" unicode="N" horiz-adv-x="919" 
d="M580 43l-220 492v-492q0 -17 -12.5 -29t-28.5 -14h-196q-17 2 -29 14t-12 29v1182q0 17 11.5 28t29.5 13h174q27 -3 43 -43l221 -498v500q0 17 11.5 28t27.5 13h197q18 -2 29.5 -13t11.5 -28v-1184q0 -17 -11.5 -28t-29.5 -13h-174q-27 3 -43 43z" />
    <glyph glyph-name="O" unicode="O" horiz-adv-x="911" 
d="M457 225q43 0 74.5 27.5t31.5 85.5v590q0 58 -31.5 85t-74.5 27q-44 0 -75.5 -27t-31.5 -85v-590q0 -58 31.5 -85.5t75.5 -27.5zM457 -14q-167 0 -276 103.5t-109 260.5v565q0 157 109 261t276 104q165 0 274 -104t109 -261v-565q0 -157 -108.5 -260.5t-274.5 -103.5z
" />
    <glyph glyph-name="P" unicode="P" horiz-adv-x="886" 
d="M455 1266q99 0 185 -42.5t141 -127.5t55 -195v-237q0 -110 -55 -195t-141 -127.5t-185 -42.5h-95v-256q0 -17 -12.5 -29t-28.5 -14h-196q-17 2 -29 14t-12 29v1182q0 17 11.5 28t29.5 13h332zM559 672v223q0 61 -32.5 97t-71.5 36h-95v-489h95q39 0 71.5 36t32.5 97z" />
    <glyph glyph-name="Q" unicode="Q" horiz-adv-x="952" 
d="M920 205q12 0 21 -9.5t11 -21.5v-158q-2 -11 -11 -19.5t-21 -8.5h-463q-167 0 -276 103t-109 259v565q0 157 109 261t276 104q165 0 274 -104t109 -261v-565q0 -72 -29 -145h109zM350 340q0 -59 31.5 -86t75.5 -27q43 0 74.5 27t31.5 86v588q0 59 -31.5 85.5t-74.5 26.5
q-45 0 -76 -26.5t-31 -85.5v-588z" />
    <glyph glyph-name="R" unicode="R" horiz-adv-x="876" 
d="M836 741q0 -90 -36.5 -162.5t-99.5 -119.5l136 -416q0 -17 -12 -29t-29 -14h-197q-27 3 -39 43l-104 334h-95v-334q0 -17 -12.5 -29t-28.5 -14h-196q-17 2 -29 14t-12 29v1182q0 17 11.5 28t29.5 13h332q99 0 185 -42.5t141 -127.5t55 -195v-160zM360 1028v-412h95
q39 0 71.5 36t32.5 98v145q0 61 -32.5 97t-71.5 36h-95z" />
    <glyph glyph-name="S" unicode="S" horiz-adv-x="858" 
d="M51 371q0 17 11.5 29t27.5 14h199q17 -2 29 -14t12 -29q0 -23 1 -37.5t7.5 -37.5t18 -36.5t35.5 -24t57 -10.5q35 0 60.5 11.5t37.5 25.5t18.5 34.5t7 29t0.5 18.5q0 39 -28.5 71.5t-74.5 57.5t-101.5 51t-111 60.5t-101.5 77.5t-74.5 109t-28.5 149q0 53 8 99t32.5 96
t63.5 85t107.5 57.5t159.5 22.5q66 0 120.5 -15t91 -39t65 -58t45 -67.5t27 -72t14 -67t4.5 -56.5q0 -17 -11.5 -29t-27.5 -14h-199q-17 2 -29 14t-12 29q-3 26 -7 44.5t-13 42t-27.5 36t-44.5 12.5q-88 0 -88 -106q0 -47 27.5 -84t71 -62.5t96 -50.5t105.5 -56.5t96.5 -72
t71 -105.5t27.5 -149q0 -98 -32.5 -171.5t-89 -115t-123.5 -61.5t-144 -20q-58 0 -112 12.5t-104.5 41.5t-88 72t-60 109.5t-22.5 149.5z" />
    <glyph glyph-name="T" unicode="T" horiz-adv-x="729" 
d="M225 1028h-168q-13 0 -24 10.5t-13 22.5v170q2 14 13 24.5t24 10.5h615q13 0 24 -10.5t13 -24.5v-170q-2 -12 -13 -22.5t-24 -10.5h-168v-985q0 -17 -11.5 -29t-27.5 -14h-199q-17 2 -29 14t-12 29v985z" />
    <glyph glyph-name="U" unicode="U" horiz-adv-x="933" 
d="M467 -14q-167 0 -276 103.5t-109 260.5v875q0 17 11.5 28t29.5 13h199q16 -2 27 -13t11 -28v-887q0 -58 31.5 -85.5t75.5 -27.5t75 27.5t31 85.5v887q0 17 11.5 28t27.5 13h199q18 -2 29.5 -13t11.5 -28v-875q0 -157 -109 -260.5t-276 -103.5z" />
    <glyph glyph-name="V" unicode="V" horiz-adv-x="909" 
d="M455 397l155 830q3 15 14.5 26.5t26.5 12.5h197q17 -2 29 -13t12 -26l-262 -1182q-10 -42 -41 -45h-260q-31 3 -41 45l-265 1182q0 15 12.5 26t28.5 13h197q15 -1 26.5 -12.5t14.5 -26.5z" />
    <glyph glyph-name="W" unicode="W" horiz-adv-x="1200" 
d="M535 1266h131q15 -1 26.5 -12.5t14.5 -26.5l112 -639l92 639q0 15 12.5 26t28.5 13h197q16 -2 28.5 -13t12.5 -26l-213 -1182q-3 -19 -14.5 -31t-26.5 -14h-201q-31 3 -41 45l-94 459l-94 -459q-10 -42 -41 -45h-201q-15 2 -26.5 14t-14.5 31l-213 1182q0 15 12.5 26
t28.5 13h197q16 -2 28.5 -13t12.5 -26l92 -639l113 639q3 15 14.5 26.5t26.5 12.5z" />
    <glyph glyph-name="X" unicode="X" horiz-adv-x="890" 
d="M565 43l-121 264l-120 -264q-23 -41 -50 -43h-194q-16 2 -27.5 14t-11.5 29l256 571l-277 611q0 17 11.5 28t29.5 13h193q28 -3 49 -41l141 -305l142 305q21 38 49 41h194q18 -2 29.5 -13t11.5 -28l-276 -611l256 -571q0 -17 -11.5 -29t-27.5 -14h-197q-26 2 -49 43z" />
    <glyph glyph-name="Y" unicode="Y" horiz-adv-x="892" 
d="M446 815l158 412q12 36 41 39h197q16 -2 28.5 -13t12.5 -26l-297 -789v-395q0 -17 -11.5 -29t-27.5 -14h-199q-17 2 -29 14t-12 29v395l-297 789q0 15 12.5 26t28.5 13h197q29 -3 41 -39z" />
    <glyph glyph-name="Z" unicode="Z" horiz-adv-x="788" 
d="M72 225l362 803h-336q-13 0 -24 10.5t-13 24.5v170q2 12 13 22.5t24 10.5h592q13 0 24 -10.5t13 -22.5v-160q0 -13 -10 -33l-363 -802h336q13 0 24 -10.5t13 -24.5v-170q-2 -12 -13 -22.5t-24 -10.5h-592q-13 0 -24 10.5t-13 22.5v160q0 10 11 32z" />
    <glyph glyph-name="bracketleft" unicode="[" horiz-adv-x="604" 
d="M485 1272h-125v-1274h125q15 0 25 -10.5t12 -24.5v-170q-2 -13 -12.5 -24t-24.5 -11h-362q-17 2 -29 14t-12 29v1667q0 17 12 29t29 14h362q14 0 24.5 -10.5t12.5 -23.5v-170q-2 -14 -12 -24.5t-25 -10.5z" />
    <glyph glyph-name="backslash" unicode="\" horiz-adv-x="749" 
d="M412 -199l-330 1669q0 17 11.5 28t29.5 13h176q32 -3 39 -41l330 -1669q0 -17 -11.5 -29t-27.5 -14h-176q-34 3 -41 43z" />
    <glyph glyph-name="bracketright" unicode="]" horiz-adv-x="604" 
d="M244 1272h-125q-15 0 -25 10.5t-12 24.5v170q2 13 12.5 23.5t24.5 10.5h362q17 -2 29 -14t12 -29v-1667q0 -17 -12 -29t-29 -14h-362q-14 0 -24.5 11t-12.5 24v170q2 14 12 24.5t25 10.5h125v1274z" />
    <glyph glyph-name="asciicircum" unicode="^" horiz-adv-x="712" 
d="M236 1266h241q31 -3 41 -45l113 -359q0 -15 -12 -26t-29 -13h-152q-30 3 -41 39l-41 150l-41 -150q-11 -36 -41 -39h-151q-17 2 -29 13t-12 26l113 359q10 42 41 45z" />
    <glyph glyph-name="underscore" unicode="_" horiz-adv-x="851" 
d="M733 -252h-614q-13 0 -24 10.5t-13 22.5v170q2 14 13 24.5t24 10.5h614q13 0 24 -10.5t13 -24.5v-170q-2 -12 -13 -22.5t-24 -10.5z" />
    <glyph glyph-name="grave" unicode="`" horiz-adv-x="495" 
d="M352 1225l62 -338q0 -17 -12 -29t-29 -14h-146q-25 2 -39 43l-106 338q0 17 11.5 28t27.5 13h190q34 -3 41 -41z" />
    <glyph glyph-name="a" unicode="a" 
d="M512 307v328q0 34 -23.5 58t-58.5 24q-32 0 -56 -24t-24 -58v-328q0 -34 24 -58t56 -24q35 0 58.5 24t23.5 58zM791 899v-856q0 -17 -12.5 -29t-28.5 -14h-164q-17 2 -29 14t-12 29v23q-46 -48 -94.5 -63t-108.5 -15q-111 0 -190.5 77t-79.5 187v440q0 109 80 186.5
t190 77.5q60 0 108.5 -15.5t94.5 -63.5v22q0 18 11.5 29.5t29.5 13.5h164q16 -2 28.5 -13.5t12.5 -29.5z" />
    <glyph glyph-name="b" unicode="b" 
d="M360 633v-326q0 -34 23.5 -58t58.5 -24q32 0 56 24t24 58v326q0 35 -23.5 59.5t-56.5 24.5q-35 0 -58.5 -24.5t-23.5 -59.5zM328 66v-23q0 -17 -12 -29t-29 -14h-164q-16 2 -28.5 14t-12.5 29v1182q0 16 12.5 27.5t28.5 13.5h196q18 -2 29.5 -13t11.5 -28v-328
q79 59 170 59q110 0 190.5 -78.5t80.5 -187.5v-438q0 -110 -80 -187t-191 -77q-60 0 -108 15t-94 63z" />
    <glyph glyph-name="c" unicode="c" horiz-adv-x="839" 
d="M788 326v-13q0 -142 -103.5 -233.5t-252.5 -91.5q-150 0 -255 91.5t-105 233.5v303q0 146 102.5 243t257.5 97t255.5 -96.5t100.5 -243.5v-12q0 -17 -11.5 -29t-26.5 -14h-199q-17 2 -29 14t-12 29v31q0 35 -21.5 58.5t-56.5 23.5t-58.5 -24t-23.5 -58v-328
q0 -34 23.5 -58t58.5 -24t56.5 23.5t21.5 58.5v19q0 17 12 29t29 14h199q15 -2 26.5 -14t11.5 -29z" />
    <glyph glyph-name="d" unicode="d" 
d="M512 307v326q0 35 -23.5 59.5t-58.5 24.5q-33 0 -56.5 -24.5t-23.5 -59.5v-326q0 -34 24 -58t56 -24q35 0 58.5 24t23.5 58zM545 43v23q-46 -48 -94.5 -63t-108.5 -15q-111 0 -190.5 77t-79.5 187v438q0 109 80 187.5t190 78.5q91 0 170 -59v328q0 17 11.5 28t29.5 13
h197q16 -2 28.5 -13.5t12.5 -27.5v-1182q0 -17 -12.5 -29t-28.5 -14h-164q-17 2 -29 14t-12 29z" />
    <glyph glyph-name="e" unicode="e" horiz-adv-x="856" 
d="M350 635v-60h156v60q0 34 -22.5 58t-55.5 24q-36 0 -57 -23.5t-21 -58.5zM782 274q-13 -127 -114 -206.5t-238 -79.5q-148 0 -253 91.5t-105 233.5v303q0 147 101 243.5t257 96.5q155 0 254.5 -96.5t99.5 -243.5v-194q0 -18 -12.5 -29.5t-28.5 -13.5h-393v-72
q0 -35 22 -58.5t58 -23.5q30 0 51 15.5t21 33.5q0 12 10.5 21.5t24.5 11.5h213q13 -1 22.5 -11t9.5 -22z" />
    <glyph glyph-name="f" unicode="f" horiz-adv-x="571" 
d="M47 942h92q0 181 77 252.5t230 71.5h78q13 0 24 -11t13 -24v-139q-2 -14 -13 -24.5t-24 -10.5q-36 0 -58.5 -6t-32 -18.5t-12.5 -23.5t-3 -30v-37h106q14 0 24.5 -10.5t12.5 -24.5v-153q-2 -13 -12.5 -24t-24.5 -11h-106v-676q0 -18 -11.5 -29.5t-29.5 -13.5h-197
q-16 2 -28.5 13.5t-12.5 29.5v676h-92q-14 0 -24.5 11t-12.5 24v153q2 14 12 24.5t25 10.5z" />
    <glyph glyph-name="g" unicode="g" 
d="M512 371v264q0 34 -23.5 58t-58.5 24q-32 0 -56 -24t-24 -58v-264q0 -34 24 -58t56 -24q35 0 58.5 24t23.5 58zM160 -29h202q15 0 19 -12q6 -20 29.5 -34.5t52.5 -14.5q28 0 55 18t27 43v158q-46 -48 -94.5 -63t-108.5 -15q-111 0 -190.5 77t-79.5 187v377
q0 109 80 186.5t190 77.5q60 0 108.5 -15.5t94.5 -63.5v22q0 18 11.5 29.5t29.5 13.5h164q16 -2 28.5 -13.5t12.5 -29.5v-948q0 -106 -96 -183t-222 -77h-18q-80 0 -154 31.5t-121 88t-47 121.5v11q0 10 8.5 18t18.5 10z" />
    <glyph glyph-name="h" unicode="h" 
d="M82 43v1180q0 17 12.5 29t28.5 14h196q16 -2 28.5 -14t12.5 -29v-316q62 49 170 49q109 0 190 -78t81 -186v-649q0 -17 -12.5 -29t-28.5 -14h-197q-17 2 -29 14t-12 29v592q0 34 -24 58t-58 24t-57 -24t-23 -58v-592q0 -17 -12.5 -29t-28.5 -14h-196q-16 2 -28.5 14
t-12.5 29z" />
    <glyph glyph-name="i" unicode="i" horiz-adv-x="442" 
d="M82 43v856q0 18 12.5 29.5t28.5 13.5h196q18 -2 29.5 -13.5t11.5 -29.5v-856q0 -17 -12 -29t-29 -14h-196q-16 2 -28.5 14t-12.5 29zM82 1081v176q0 17 11.5 28t29.5 13h199q16 -2 27 -13t11 -28v-176q0 -17 -11.5 -29t-26.5 -14h-199q-17 2 -29 14t-12 29z" />
    <glyph glyph-name="j" unicode="j" horiz-adv-x="442" 
d="M82 23v876q0 18 12.5 29.5t28.5 13.5h196q18 -2 29.5 -13.5t11.5 -29.5v-872q0 -101 -20.5 -170t-62.5 -107t-95.5 -53.5t-128.5 -15.5h-78q-13 0 -23.5 10.5t-12.5 23.5v168q2 14 12.5 24.5t23.5 10.5q38 0 61 6.5t32.5 23.5t11.5 31t2 44zM82 1081v176q0 17 11.5 28
t29.5 13h199q16 -2 27 -13t11 -28v-176q0 -17 -11.5 -29t-26.5 -14h-199q-17 2 -29 14t-12 29z" />
    <glyph glyph-name="k" unicode="k" horiz-adv-x="847" 
d="M360 674l148 231q23 37 49 37h203q15 0 27 -12t12 -27l-170 -274l219 -588q0 -34 -41 -41h-166q-15 3 -34.5 15.5t-28.5 25.5l-123 301l-95 -123v-176q0 -15 -11.5 -27.5t-26.5 -15.5h-199q-17 3 -29 15.5t-12 27.5v1184q0 15 12 27t29 12h199q15 0 26.5 -12t11.5 -27
v-553z" />
    <glyph glyph-name="l" unicode="l" horiz-adv-x="442" 
d="M82 43v1182q0 17 11.5 28t29.5 13h199q16 -2 27 -13t11 -28v-1182q0 -17 -11.5 -29t-26.5 -14h-199q-17 2 -29 14t-12 29z" />
    <glyph glyph-name="m" unicode="m" horiz-adv-x="1241" 
d="M911 956q109 0 183.5 -77t74.5 -187v-649q0 -17 -12 -29t-29 -14h-196q-17 1 -28 13.5t-11 29.5v592q0 35 -19.5 58.5t-52.5 23.5q-31 0 -49 -22t-18 -56v-596q0 -17 -12 -29t-29 -14h-174q-19 2 -31 14t-12 29v592q0 35 -18 58.5t-50 23.5q-33 0 -51.5 -23.5
t-18.5 -58.5v-592q0 -17 -11.5 -29t-27.5 -14h-196q-17 2 -29 14t-12 29v858q0 17 11.5 28t29.5 13h164q15 -2 28 -13.5t13 -27.5v-24q45 49 88 64t100 15q123 0 191 -98q47 59 97 78.5t107 19.5z" />
    <glyph glyph-name="n" unicode="n" 
d="M360 635v-592q0 -17 -12.5 -29t-28.5 -14h-196q-16 2 -28.5 14t-12.5 29v858q0 16 12.5 27.5t28.5 13.5h164q16 -2 28.5 -13.5t12.5 -27.5v-24q46 49 94.5 64t107.5 15q109 0 190 -78t81 -186v-649q0 -17 -12.5 -29t-28.5 -14h-197q-17 2 -29 14t-12 29v592q0 34 -24 58
t-58 24t-57 -24t-23 -58z" />
    <glyph glyph-name="o" unicode="o" horiz-adv-x="856" 
d="M428 956q155 0 255.5 -96.5t100.5 -243.5v-303q0 -142 -103.5 -233.5t-252.5 -91.5t-252.5 91.5t-103.5 233.5v303q0 147 100.5 243.5t255.5 96.5zM428 225q35 0 56.5 23.5t21.5 58.5v328q0 35 -21.5 58.5t-56.5 23.5t-56.5 -23.5t-21.5 -58.5v-328q0 -35 21.5 -58.5
t56.5 -23.5z" />
    <glyph glyph-name="p" unicode="p" 
d="M360 635v-326q0 -35 23.5 -59.5t58.5 -24.5q33 0 56.5 24.5t23.5 59.5v326q0 34 -24 58t-56 24q-35 0 -58.5 -24t-23.5 -58zM328 899v-22q46 48 93.5 62.5t108.5 14.5q111 0 191 -77t80 -187v-438q0 -109 -80.5 -187.5t-190.5 -78.5q-91 0 -170 59v-324
q0 -17 -11.5 -27.5t-29.5 -12.5h-196q-16 2 -28.5 13t-12.5 27v1178q0 17 12.5 29t28.5 14h164q17 -2 29 -14t12 -29z" />
    <glyph glyph-name="q" unicode="q" 
d="M512 309v326q0 34 -23.5 58t-58.5 24q-32 0 -56 -24t-24 -58v-326q0 -35 23.5 -59.5t56.5 -24.5q35 0 58.5 24.5t23.5 59.5zM545 877v22q0 17 12 29t29 14h164q16 -2 28.5 -14t12.5 -29v-1178q0 -16 -12.5 -27t-28.5 -13h-197q-18 2 -29.5 12.5t-11.5 27.5v324
q-79 -59 -170 -59q-110 0 -190 78.5t-80 187.5v438q0 110 79.5 187t190.5 77q61 0 109 -14.5t94 -62.5z" />
    <glyph glyph-name="r" unicode="r" horiz-adv-x="616" 
d="M563 688h-8q-29 0 -60 -10.5t-62.5 -32.5t-52 -65t-20.5 -99v-438q0 -17 -12 -29t-29 -14h-196q-16 2 -28.5 14t-12.5 29v856q0 18 12.5 29.5t28.5 13.5h164q18 -2 29.5 -13.5t11.5 -29.5v-55q39 52 101 82t134 30q17 0 29 -12.5t14 -28.5v-188q-2 -16 -14 -27.5
t-29 -11.5z" />
    <glyph glyph-name="s" unicode="s" horiz-adv-x="739" 
d="M283 270q0 -22 21.5 -37.5t53.5 -15.5q37 0 55.5 9t18.5 34q0 18 -17 35.5t-35 27.5t-56 29q-29 13 -46.5 21t-49.5 26.5t-53 34.5t-47.5 42t-41.5 52.5t-26 62.5t-11 75q0 76 31 134.5t81.5 91t106.5 48.5t115 16q54 0 105 -16t98 -48.5t78.5 -92t37.5 -137.5
q0 -17 -10.5 -29.5t-25.5 -14.5h-168q-18 2 -29.5 13t-11.5 28q0 22 -21.5 42t-50.5 20q-2 0 -6 -0.5t-14 -3t-17.5 -7.5t-13.5 -16t-6 -26q0 -24 36 -51.5t96 -60t72 -40.5q93 -50 136 -107t43 -147q0 -33 -9.5 -68t-34 -73t-61 -67.5t-96.5 -48.5t-135 -19t-134.5 21
t-94.5 52t-60 72.5t-35 74.5t-14 66q0 17 11.5 28t29.5 13h168q15 -2 26 -14t11 -29z" />
    <glyph glyph-name="t" unicode="t" horiz-adv-x="602" 
d="M139 719h-92q-15 0 -25 10.5t-12 24.5v153q2 13 12.5 24t24.5 11h92v219q0 18 12.5 29.5t28.5 13.5h197q18 -2 29.5 -13.5t11.5 -29.5v-219h106q14 0 24.5 -11t12.5 -24v-153q-2 -14 -12.5 -24.5t-24.5 -10.5h-106v-377q0 -30 2 -44t11 -30.5t32 -23t61 -6.5
q13 0 24 -10.5t13 -24.5v-168q-2 -13 -13 -24t-24 -11h-78q-75 0 -128.5 15.5t-95.5 53.5t-62.5 107t-20.5 170v373z" />
    <glyph glyph-name="u" unicode="u" 
d="M512 307v592q0 17 12.5 29t28.5 14h197q16 -2 28.5 -14t12.5 -29v-858q0 -16 -12.5 -27.5t-28.5 -13.5h-164q-16 2 -28.5 13.5t-12.5 27.5v25q-46 -49 -95 -64.5t-108 -15.5q-109 0 -189.5 78t-80.5 186v649q0 17 12.5 29t28.5 14h196q17 -2 29 -14t12 -29v-592
q0 -34 24 -58t58 -24t57 24t23 58z" />
    <glyph glyph-name="v" unicode="v" horiz-adv-x="763" 
d="M188 45l-178 858q0 15 12 26t29 13h197q15 -1 26.5 -12.5t14.5 -26.5l92 -602l94 602q3 15 14.5 26.5t26.5 12.5h197q17 -2 29 -13t12 -26l-179 -858q-10 -42 -40 -45h-306q-31 3 -41 45z" />
    <glyph glyph-name="w" unicode="w" horiz-adv-x="1089" 
d="M485 942h119q15 0 26.5 -10.5t14.5 -28.5l88 -440l58 440q3 15 14 26.5t26 12.5h197q17 -2 29 -13t12 -26l-162 -858q-10 -42 -41 -45h-204q-31 3 -41 45l-76 258l-76 -258q-10 -42 -41 -45h-205q-31 3 -41 45l-162 858q0 15 12 26t29 13h197q15 -1 26.5 -12.5
t14.5 -26.5l57 -440l88 440q3 18 14.5 28.5t26.5 10.5z" />
    <glyph glyph-name="x" unicode="x" horiz-adv-x="774" 
d="M387 229l-104 -186q-23 -41 -50 -43h-184q-16 2 -27.5 14t-11.5 29l240 428l-240 430q0 17 11.5 28t29.5 13h182q29 -3 50 -41l104 -186l105 186q21 38 49 41h182q18 -2 29.5 -13t11.5 -28l-242 -430l242 -428q0 -17 -11.5 -29t-27.5 -14h-184q-26 2 -49 43z" />
    <glyph glyph-name="y" unicode="y" horiz-adv-x="763" 
d="M754 903l-312 -1184q-3 -15 -14.5 -26t-26.5 -12h-190q-17 2 -29 12.5t-12 25.5l82 328l-242 856q0 15 12 26t29 13h197q15 -1 26.5 -12.5t14.5 -26.5l92 -383l94 383q3 15 14.5 26.5t26.5 12.5h197q17 -2 29 -13t12 -26z" />
    <glyph glyph-name="z" unicode="z" horiz-adv-x="671" 
d="M41 225l287 480h-260q-13 0 -24 10t-13 24v170q2 12 13 22.5t24 10.5h536q13 0 24 -10.5t13 -22.5v-159q0 -13 -10 -33l-287 -479h260q13 0 24 -10.5t13 -24.5v-170q-2 -12 -13 -22.5t-24 -10.5h-536q-13 0 -24 10.5t-13 22.5v160q0 12 10 32z" />
    <glyph glyph-name="braceleft" unicode="{" horiz-adv-x="722" 
d="M119 756h18q40 0 72.5 33t32.5 94v383q0 117 69.5 189.5t180.5 72.5h110q14 0 26 -11t13 -24v-170q-2 -12 -14 -22.5t-25 -10.5q-41 0 -61.5 -11t-20.5 -46v-359q0 -72 -27.5 -137.5t-86.5 -99.5q59 -34 86.5 -100t27.5 -138v-346q0 -35 20.5 -46t61.5 -11q13 0 25 -10.5
t14 -22.5v-170q-1 -13 -13 -24t-26 -11h-110q-111 0 -180.5 72.5t-69.5 189.5v371q0 61 -32.5 93t-72.5 32h-18q-15 0 -25 10.5t-12 24.5v170q2 13 12.5 24t24.5 11z" />
    <glyph glyph-name="bar" unicode="|" horiz-adv-x="442" 
d="M82 -199v1669q0 17 11.5 28t29.5 13h199q16 -2 27 -13t11 -28v-1669q0 -17 -11.5 -29t-26.5 -14h-199q-17 2 -29 14t-12 29z" />
    <glyph glyph-name="braceright" unicode="}" horiz-adv-x="722" 
d="M586 756h18q14 0 24.5 -11t12.5 -24v-170q-2 -14 -12.5 -24.5t-24.5 -10.5h-18q-40 0 -72.5 -32t-32.5 -93v-371q0 -117 -69.5 -189.5t-180.5 -72.5h-110q-14 0 -26 11t-13 24v170q2 12 14 22.5t25 10.5q41 0 61.5 11t20.5 46v346q0 72 27.5 138t86.5 100
q-59 34 -86.5 99.5t-27.5 137.5v359q0 35 -20.5 46t-61.5 11q-13 0 -25 10.5t-14 22.5v170q1 13 13 24t26 11h110q111 0 180.5 -72.5t69.5 -189.5v-383q0 -61 32.5 -94t72.5 -33z" />
    <glyph glyph-name="asciitilde" unicode="~" horiz-adv-x="782" 
d="M504 350q-48 0 -84 15t-63 30t-52 15q-19 0 -48 -25t-46 -25q-14 0 -27 13l-96 116q-6 12 -6 23q0 15 12 27q108 108 185 108q34 0 96 -29.5t102 -29.5q19 0 48 24.5t46 24.5q15 0 27 -12l96 -117q6 -12 6 -23q0 -14 -12 -26q-109 -109 -184 -109z" />
    <glyph glyph-name="uni00A0" unicode="&#xa0;" horiz-adv-x="378" 
 />
    <glyph glyph-name="exclamdown" unicode="&#xa1;" horiz-adv-x="446" 
d="M82 43v799q0 18 12.5 29.5t28.5 13.5h196q18 -2 29.5 -13.5t11.5 -29.5v-799q0 -17 -12 -29t-29 -14h-196q-16 2 -28.5 14t-12.5 29zM86 1047v176q0 17 12 29t29 14h199q16 -2 27.5 -14t11.5 -29v-176q0 -17 -11.5 -28t-27.5 -13h-199q-18 2 -29.5 13t-11.5 28z" />
    <glyph glyph-name="cent" unicode="&#xa2;" horiz-adv-x="931" 
d="M348 1264l47 260q7 38 41 41h191q16 -2 27.5 -13t11.5 -28l-82 -260q120 -34 193 -129t73 -220q0 -17 -12.5 -29t-28.5 -14h-197q-17 2 -29 14t-12 29v13q0 58 -31 85t-75 27q-43 0 -74 -27t-31 -85v-590q0 -58 31 -85.5t74 -27.5t74.5 28.5t31.5 86.5v12q0 17 11.5 28
t29.5 13h197q16 -2 28.5 -13.5t12.5 -27.5q0 -122 -68 -214.5t-182 -129.5l-39 -213q-7 -38 -41 -41h-190q-16 2 -27.5 13t-11.5 28l63 205q-123 33 -197.5 127t-74.5 223v565q0 127 72.5 222t193.5 127z" />
    <glyph glyph-name="sterling" unicode="&#xa3;" horiz-adv-x="1015" 
d="M897 0h-778q-13 0 -24 10.5t-13 22.5v170q2 14 13 24.5t24 10.5h123v225h-123q-13 0 -24 10.5t-13 22.5v170q2 14 13 24t24 10h123v226q0 146 102.5 243t257.5 97q152 0 242 -95.5t90 -244.5v-13q0 -17 -11.5 -29t-27.5 -14h-174q-17 2 -29 14t-12 29v31q0 35 -21.5 58.5
t-56.5 23.5t-58.5 -24t-23.5 -58v-244h162q13 0 24 -10t13 -24v-170q-2 -12 -13 -22.5t-24 -10.5h-162v-223h377q15 0 25 -10.5t12 -24.5v-170q-2 -13 -12.5 -24t-24.5 -11z" />
    <glyph glyph-name="currency" unicode="&#xa4;" horiz-adv-x="946" 
d="M473 819q68 0 129 -22l88 90q11 8 25 8t22 -8l115 -117q12 -12 12 -25q0 -12 -10 -22l-92 -92q18 -49 18 -105v-137q0 -46 -16 -92l90 -90q10 -10 10 -23q0 -12 -12 -24l-115 -117q-8 -8 -22 -8t-25 8l-88 90q-70 -24 -129 -24t-129 24l-88 -90q-11 -8 -25 -8t-22 8
l-115 117q-12 12 -12 24q0 13 10 23l90 90q-16 46 -16 92v137q0 56 18 105l-92 92q-10 10 -10 22q0 13 12 25l115 117q8 8 22 8t25 -8l88 -90q61 22 129 22zM473 313q30 0 49 21t19 51v158q0 30 -19 49.5t-49 19.5t-48.5 -19.5t-18.5 -49.5v-158q0 -30 18.5 -51t48.5 -21z
" />
    <glyph glyph-name="yen" unicode="&#xa5;" horiz-adv-x="1036" 
d="M784 694q13 0 24 -10.5t13 -24.5v-170q-2 -12 -13 -22t-24 -10h-118l-9 -19v-45h127q13 0 24 -10.5t13 -24.5v-170q-2 -12 -13 -22t-24 -10h-127v-113q0 -17 -11.5 -29t-27.5 -14h-198q-17 2 -29 14t-12 29v113h-127q-13 0 -24 10t-13 22v170q2 14 13 24.5t24 10.5h127
v45l-6 19h-121q-13 0 -24 10t-13 22v170q2 14 13 24.5t24 10.5h31l-201 533q0 15 12.5 26t28.5 13h196q29 -3 41 -39l158 -412l158 412q12 36 41 39h196q16 -2 28.5 -13t12.5 -26l-198 -533h28z" />
    <glyph glyph-name="brokenbar" unicode="&#xa6;" horiz-adv-x="442" 
d="M82 874v596q0 17 11.5 28t29.5 13h199q16 -2 27 -13t11 -28v-596q0 -17 -11.5 -29t-26.5 -14h-199q-17 2 -29 14t-12 29zM82 -199v596q0 17 11.5 28t29.5 13h199q16 -2 27 -13t11 -28v-596q0 -17 -11.5 -29t-26.5 -14h-199q-17 2 -29 14t-12 29z" />
    <glyph glyph-name="section" unicode="&#xa7;" horiz-adv-x="972" 
d="M328 270q0 -22 21.5 -37.5t53.5 -15.5q37 0 55.5 9t18.5 34q0 18 -17 35.5t-35 27.5t-56 29q-29 13 -46.5 21t-49.5 26.5t-53 34.5t-47.5 42t-41.5 52.5t-26 62.5t-11 75q0 168 146 245q-11 46 -11 78q0 76 31 134.5t81.5 91.5t107 49t114.5 16q54 0 105 -16t98 -49
t79 -92.5t38 -137.5q0 -17 -11 -29t-26 -14h-168q-18 2 -29.5 13t-11.5 28q0 22 -21.5 41.5t-50.5 19.5q-2 0 -6 -0.5t-14 -3t-17.5 -7.5t-13.5 -16t-6 -26q0 -24 36 -51.5t96 -59t73 -40.5q93 -50 135.5 -107t42.5 -147q0 -64 -36 -131.5t-112 -106.5q13 -41 13 -86
q0 -33 -9.5 -68t-34 -73t-61 -67.5t-96.5 -48.5t-135 -19t-134.5 21t-94.5 52t-60 72.5t-35 74.5t-14 66q0 17 11.5 28t29.5 13h168q15 -2 26 -14t11 -29zM373 668q0 -32 72 -78.5t124 -46.5q43 0 43 41q0 31 -72 78t-124 47q-43 0 -43 -41z" />
    <glyph glyph-name="dieresis" unicode="&#xa8;" horiz-adv-x="782" 
d="M82 1124q0 60 41.5 101t101.5 41t102 -41t42 -101t-42 -102.5t-102 -42.5t-101.5 42.5t-41.5 102.5zM414 1124q0 60 41.5 101t101.5 41t101.5 -41t41.5 -101t-41.5 -102.5t-101.5 -42.5t-101.5 42.5t-41.5 102.5z" />
    <glyph glyph-name="copyright" unicode="&#xa9;" horiz-adv-x="1452" 
d="M723 1280q133 0 252.5 -51t206 -137.5t137.5 -206t51 -252.5q0 -174 -86 -322t-235 -234.5t-326 -86.5q-173 0 -321 86.5t-234 234.5t-86 322q0 177 86.5 326t234 235t320.5 86zM723 186q120 0 224.5 61.5t166.5 164.5t62 219q0 120 -62 224.5t-166.5 166t-224.5 61.5
q-116 0 -218.5 -61.5t-164 -166t-61.5 -224.5q0 -116 61.5 -219t164 -164.5t218.5 -61.5zM979 514v8q0 13 -8.5 22t-20.5 11h-143q-12 -2 -20.5 -11t-8.5 -22v-12q0 -25 -16 -42t-41 -17q-26 0 -42.5 17t-16.5 42v238q0 25 16.5 43t42.5 18q24 0 40.5 -18t16.5 -43v-23
q0 -12 8.5 -20.5t20.5 -10.5h143q12 2 20.5 10.5t8.5 20.5v10q0 106 -73 176t-185 70q-113 0 -187.5 -70t-74.5 -176v-221q0 -102 77 -170t185 -68q107 0 182.5 67.5t75.5 170.5z" />
    <glyph glyph-name="ordfeminine" unicode="&#xaa;" horiz-adv-x="688" 
d="M403 770v283q0 26 -17.5 42.5t-45.5 16.5q-24 0 -41.5 -16.5t-17.5 -42.5v-283q0 -24 17.5 -41.5t41.5 -17.5q27 0 45 17t18 42zM606 1233v-643q0 -13 -10 -23t-21 -10h-116q-12 0 -21.5 10t-9.5 23v16q-34 -37 -70.5 -48t-83.5 -11q-82 0 -137 57.5t-55 140.5v332
q0 83 55 141t137 58q97 0 154 -62v19q0 13 9 22t22 11h116q12 -2 21.5 -11t9.5 -22z" />
    <glyph glyph-name="guillemotleft" unicode="&#xab;" horiz-adv-x="1077" 
d="M82 416q0 57 27 116l118 259q8 16 22.5 27.5t31.5 12.5h215q16 -2 27.5 -13t11.5 -27l-119 -259q-27 -59 -27 -116q0 -58 27 -117l119 -258q0 -17 -11.5 -28t-27.5 -13h-215q-35 3 -54 41l-118 258q-27 59 -27 117zM543 416q0 59 26 116l119 259q18 37 53 40h215
q16 -2 27.5 -13t11.5 -27l-118 -259q-27 -59 -27 -116q0 -58 27 -117l118 -258q0 -17 -11.5 -28t-27.5 -13h-215q-34 3 -53 41l-119 258q-26 57 -26 117z" />
    <glyph glyph-name="logicalnot" unicode="&#xac;" horiz-adv-x="788" 
d="M428 299h-309q-15 0 -25 10.5t-12 24.5v170q2 13 12.5 24t24.5 11h547q17 -2 29 -14t12 -29v-359q0 -17 -11.5 -28t-29.5 -13h-199q-16 2 -27.5 13t-11.5 28v162z" />
    <glyph glyph-name="uni00AD" unicode="&#xad;" horiz-adv-x="378" 
 />
    <glyph glyph-name="registered" unicode="&#xae;" horiz-adv-x="1452" 
d="M723 1280q133 0 252.5 -51t206 -137.5t137.5 -206t51 -252.5q0 -174 -86 -322t-235 -234.5t-326 -86.5q-173 0 -321 86.5t-234 234.5t-86 322q0 177 86.5 326t234 235t320.5 86zM723 186q120 0 224.5 61.5t166.5 164.5t62 219q0 120 -62 224.5t-166.5 166t-224.5 61.5
q-116 0 -218.5 -61.5t-164 -166t-61.5 -224.5q0 -116 61.5 -219t164 -164.5t218.5 -61.5zM1040 688q0 -132 -98 -207l45 -149q0 -12 -8.5 -20.5t-20.5 -10.5h-143q-21 3 -29 31l-24 90h-68v-90q0 -12 -8.5 -20.5t-19.5 -10.5h-146q-11 2 -19.5 10.5t-8.5 20.5v622
q0 12 8.5 20.5t19.5 10.5h242q113 0 195.5 -72.5t82.5 -193.5v-31zM694 811v-215h68q30 0 54 26.5t24 71.5v21q0 44 -24 70t-54 26h-68z" />
    <glyph glyph-name="macron" unicode="&#xaf;" horiz-adv-x="770" 
d="M651 1028h-532q-13 0 -24 10.5t-13 22.5v170q2 14 13 24.5t24 10.5h532q13 0 24 -10.5t13 -24.5v-170q-2 -12 -13 -22.5t-24 -10.5z" />
    <glyph glyph-name="degree" unicode="&#xb0;" horiz-adv-x="638" 
d="M319 735q-112 0 -174.5 66.5t-62.5 197.5t63 199t174 68t174.5 -68t63.5 -199q0 -130 -63 -197t-175 -67zM319 911q22 0 37 22.5t15 63.5q0 43 -15 63.5t-37 20.5q-21 0 -35 -20.5t-14 -63.5q0 -41 14.5 -63.5t34.5 -22.5z" />
    <glyph glyph-name="plusminus" unicode="&#xb1;" horiz-adv-x="776" 
d="M268 793v186q0 13 10.5 24t22.5 13h170q14 -2 24.5 -13t10.5 -24v-186h151q13 0 24 -10.5t13 -24.5v-170q-2 -12 -13 -22.5t-24 -10.5h-151v-190q0 -13 -10.5 -24t-24.5 -13h-170q-12 2 -22.5 13t-10.5 24v190h-149q-13 0 -24 10.5t-13 22.5v170q2 14 13 24.5t24 10.5
h149zM657 0h-538q-13 0 -24 10.5t-13 22.5v170q2 14 13 24.5t24 10.5h538q13 0 24 -10.5t13 -24.5v-170q-2 -12 -13 -22.5t-24 -10.5z" />
    <glyph glyph-name="twosuperior" unicode="&#xb2;" horiz-adv-x="559" 
d="M285 717h166q9 0 14.5 -5.5t5.5 -13.5v-123q0 -7 -5.5 -12.5t-14.5 -5.5h-342q-9 2 -16 9t-7 16v92q0 58 23 107.5t55.5 83.5t64.5 64t55 63t23 67v14q-3 35 -26 35q-29 0 -29 -47q0 -9 -8 -17t-17 -8h-123q-9 0 -15.5 6.5t-6.5 14.5q0 103 56 157t143 54
q81 0 138.5 -51.5t57.5 -129.5v-38q0 -45 -20 -84.5t-48 -67.5t-56 -54.5t-48 -58.5t-20 -67z" />
    <glyph glyph-name="threesuperior" unicode="&#xb3;" horiz-adv-x="606" 
d="M524 782v-55q0 -79 -67.5 -130.5t-153.5 -51.5q-43 0 -81 11t-70 34t-51 62t-19 91q0 19 22 23h132q9 -2 16.5 -9t7.5 -16q0 -21 11.5 -34t31.5 -13t31.5 13t11.5 32v56q0 19 -11.5 32t-31.5 13h-35q-7 0 -12.5 5.5t-7.5 12.5v94q2 8 7.5 14.5t12.5 6.5h35q20 0 31.5 13
t11.5 32v47q0 19 -11.5 32t-31.5 13q-43 0 -43 -39q0 -9 -7.5 -15.5t-16.5 -8.5h-132q-22 4 -22 22q0 100 65 149.5t156 49.5q86 0 153.5 -52t67.5 -131v-63q0 -72 -51 -117q51 -45 51 -123z" />
    <glyph glyph-name="acute" unicode="&#xb4;" horiz-adv-x="663" 
d="M96 1085l297 175q12 6 27 6q18 0 31 -13l124 -143q7 -14 7 -27q0 -17 -13 -30l-325 -138q-24 -8 -33 -8q-12 0 -27 11l-94 110q-8 11 -8 27q0 19 14 30z" />
    <glyph glyph-name="mu" unicode="&#xb5;" 
d="M750 942q16 -2 28.5 -14t12.5 -29v-858q0 -16 -12.5 -27.5t-28.5 -13.5h-164q-16 2 -28.5 13.5t-12.5 27.5v25q-45 -46 -92 -62t-103 -18v-291q0 -17 -12 -29t-29 -14h-196q-16 2 -28.5 14t-12.5 29v1204q0 17 12.5 29t28.5 14h196q17 -2 29 -14t12 -29v-592
q0 -34 24 -58t58 -24t57 24t23 58v592q0 17 12.5 29t28.5 14h197z" />
    <glyph glyph-name="paragraph" unicode="&#xb6;" horiz-adv-x="1148" 
d="M383 1266h643q17 -2 29 -14t12 -29v-1182q0 -17 -11.5 -28t-29.5 -13h-199q-16 2 -27.5 13t-11.5 28v985h-129v-983q0 -17 -11.5 -29t-26.5 -14h-199q-17 2 -29 14t-12 29v459q-121 0 -210 78.5t-89 207.5v189q0 131 89.5 210t211.5 79z" />
    <glyph glyph-name="periodcentered" unicode="&#xb7;" horiz-adv-x="450" 
d="M82 444q0 60 41.5 101t101.5 41t102 -41t42 -101t-42 -102.5t-102 -42.5t-101.5 42.5t-41.5 102.5z" />
    <glyph glyph-name="cedilla" unicode="&#xb8;" horiz-adv-x="495" 
d="M414 -4l-62 -338q-7 -38 -41 -41h-190q-16 2 -27.5 13t-11.5 28l106 338q14 41 39 43h146q17 -2 29 -14t12 -29z" />
    <glyph glyph-name="onesuperior" unicode="&#xb9;" horiz-adv-x="483" 
d="M223 1090l-110 -60q-4 -2 -11 -2q-15 0 -20 14v127q5 23 20 31l105 57q22 9 31 9h141q22 -4 22 -23v-661q0 -21 -22 -25h-133q-9 2 -16 9t-7 16v508z" />
    <glyph glyph-name="ordmasculine" unicode="&#xba;" horiz-adv-x="638" 
d="M319 735q-112 0 -174.5 66.5t-62.5 197.5t63 199t174 68t174.5 -68t63.5 -199q0 -130 -63 -197t-175 -67zM319 911q22 0 37 22.5t15 63.5q0 43 -15 63.5t-37 20.5q-21 0 -35 -20.5t-14 -63.5q0 -41 14.5 -63.5t34.5 -22.5z" />
    <glyph glyph-name="guillemotright" unicode="&#xbb;" horiz-adv-x="1077" 
d="M995 416q0 -60 -26 -117l-119 -258q-19 -38 -53 -41h-215q-16 2 -27.5 13t-11.5 28l119 258q26 57 26 117q0 59 -26 116l-119 259q0 16 11.5 27t27.5 13h215q35 -3 53 -40l119 -259q26 -57 26 -116zM535 416q0 -58 -27 -117l-119 -258q-19 -38 -53 -41h-215
q-16 2 -27.5 13t-11.5 28l119 258q26 57 26 117q0 59 -26 116l-119 259q0 16 11.5 27t27.5 13h215q34 -3 53 -40l119 -259q27 -59 27 -116z" />
    <glyph glyph-name="onequarter" unicode="&#xbc;" horiz-adv-x="1333" 
d="M1032 1225l-551 -1182q-20 -41 -49 -43h-139q-16 2 -27.5 14t-11.5 29l551 1182q19 38 49 41h137q18 -2 29.5 -13t11.5 -28zM223 1090l-110 -60q-4 -2 -11 -2q-15 0 -20 14v127q5 23 20 31l105 57q22 9 31 9h141q22 -4 22 -23v-661q0 -21 -22 -25h-133q-9 2 -16 9t-7 16
v508zM1004 129h-236q-7 0 -14 6t-9 12v136q0 5 7 22l188 389q8 15 31 15h190q8 -2 14.5 -8.5t6.5 -14.5v-397h49q8 0 14 -6t6 -13v-123q0 -6 -6.5 -12t-13.5 -6h-49v-104q0 -9 -6.5 -16t-14.5 -9h-135q-22 4 -22 25v104zM1004 289v157l-78 -157h78z" />
    <glyph glyph-name="onehalf" unicode="&#xbd;" horiz-adv-x="1282" 
d="M1032 1225l-551 -1182q-20 -41 -49 -43h-139q-16 2 -27.5 14t-11.5 29l551 1182q19 38 49 41h137q18 -2 29.5 -13t11.5 -28zM223 1090l-110 -60q-4 -2 -11 -2q-15 0 -20 14v127q5 23 20 31l105 57q22 9 31 9h141q22 -4 22 -23v-661q0 -21 -22 -25h-133q-9 2 -16 9t-7 16
v508zM1008 160h166q9 0 14.5 -5.5t5.5 -13.5v-123q0 -6 -6 -12t-14 -6h-343q-22 4 -22 25v92q0 58 23 107.5t55.5 83.5t64.5 64t55 63t23 67v14q-3 35 -26 35q-29 0 -29 -47q0 -9 -8 -17t-17 -8h-123q-9 0 -15.5 6.5t-6.5 14.5q0 103 56 157t143 54q81 0 138.5 -51.5
t57.5 -129.5v-38q0 -45 -20 -84.5t-48 -67.5t-56 -54.5t-48 -58.5t-20 -67z" />
    <glyph glyph-name="threequarters" unicode="&#xbe;" horiz-adv-x="1421" 
d="M1120 1225l-551 -1182q-20 -41 -49 -43h-139q-16 2 -27.5 14t-11.5 29l551 1182q19 38 49 41h137q18 -2 29.5 -13t11.5 -28zM1092 129h-236q-7 0 -13.5 6t-8.5 12v136q0 7 6 22l188 389q8 15 31 15h190q8 -2 14.5 -8.5t6.5 -14.5v-397h49q8 0 14 -6t6 -13v-123
q0 -6 -6.5 -12t-13.5 -6h-49v-104q0 -9 -6.5 -16t-14.5 -9h-135q-22 4 -22 25v104zM1092 289v157l-78 -157h78zM524 780v-55q0 -79 -67.5 -130.5t-153.5 -51.5q-43 0 -81 11t-70 34t-51 62t-19 91q0 19 22 23h132q9 -2 16.5 -9t7.5 -16q0 -21 11.5 -34t31.5 -13t31.5 13
t11.5 32v56q0 19 -11.5 32t-31.5 13h-35q-7 0 -12.5 5.5t-7.5 12.5v94q2 8 7.5 14.5t12.5 6.5h35q20 0 31.5 13t11.5 32v47q0 19 -11.5 32t-31.5 13q-43 0 -43 -39q0 -9 -7.5 -16t-16.5 -9h-132q-22 4 -22 23q0 100 65 149.5t156 49.5q86 0 153.5 -52t67.5 -131v-63
q0 -72 -51 -117q51 -45 51 -123z" />
    <glyph glyph-name="questiondown" unicode="&#xbf;" horiz-adv-x="876" 
d="M608 885v-84q0 -55 -25.5 -105t-62 -87.5t-73 -74.5t-62 -83t-25.5 -97v-35q2 -35 23 -58t55 -23q38 0 58 25t20 87q0 17 12.5 30t28.5 15h197q17 -2 29 -13t12 -26q0 -181 -99.5 -268.5t-257.5 -87.5q-149 0 -252.5 92t-103.5 234v69q0 64 25.5 119.5t62 95.5t73 77.5
t62 80.5t25.5 88v29q0 17 11.5 29t27.5 14h198q17 -2 29 -14t12 -29zM614 1135q0 60 -41.5 102.5t-101.5 42.5t-101.5 -42.5t-41.5 -102.5t41.5 -101t101.5 -41t101.5 41t41.5 101z" />
    <glyph glyph-name="Agrave" unicode="&#xc0;" horiz-adv-x="909" 
d="M627 1223l262 -1182q0 -15 -12 -27.5t-29 -13.5h-197q-15 1 -26.5 13.5t-14.5 27.5l-26 115h-260l-25 -115q-3 -15 -14.5 -27.5t-26.5 -13.5h-197q-17 1 -29 13.5t-12 27.5l265 1182q10 40 41 43h260q31 -3 41 -43zM379 393h149l-73 367zM395 1700l297 -174
q15 -12 15 -31q0 -15 -9 -27l-94 -110q-13 -10 -26 -10q-9 0 -33 8l-326 137q-12 12 -12 31q0 14 6 26l125 144q12 12 31 12q14 0 26 -6z" />
    <glyph glyph-name="Aacute" unicode="&#xc1;" horiz-adv-x="909" 
d="M627 1223l262 -1182q0 -15 -12 -27.5t-29 -13.5h-197q-15 1 -26.5 13.5t-14.5 27.5l-26 115h-260l-25 -115q-3 -15 -14.5 -27.5t-26.5 -13.5h-197q-17 1 -29 13.5t-12 27.5l265 1182q10 40 41 43h260q31 -3 41 -43zM379 393h149l-73 367zM221 1526l297 174q12 6 27 6
q18 0 30 -12l125 -144q7 -14 7 -26q0 -18 -13 -31l-325 -137q-24 -8 -33 -8q-14 0 -27 10l-94 110q-8 11 -8 27q0 20 14 31z" />
    <glyph glyph-name="Acircumflex" unicode="&#xc2;" horiz-adv-x="909" 
d="M627 1223l262 -1182q0 -15 -12 -27.5t-29 -13.5h-197q-15 1 -26.5 13.5t-14.5 27.5l-26 115h-260l-25 -115q-3 -15 -14.5 -27.5t-26.5 -13.5h-197q-17 1 -29 13.5t-12 27.5l265 1182q10 40 41 43h260q31 -3 41 -43zM379 393h149l-73 367zM334 1755h241q27 -3 41 -45
l113 -324q0 -15 -12 -25.5t-29 -12.5h-151q-31 3 -41 38l-41 115l-41 -115q-10 -35 -41 -38h-152q-17 2 -29 12.5t-12 25.5l113 324q14 42 41 45z" />
    <glyph glyph-name="Atilde" unicode="&#xc3;" horiz-adv-x="909" 
d="M627 1223l262 -1182q0 -15 -12 -27.5t-29 -13.5h-197q-15 1 -26.5 13.5t-14.5 27.5l-26 115h-260l-25 -115q-3 -15 -14.5 -27.5t-26.5 -13.5h-197q-17 1 -29 13.5t-12 27.5l265 1182q10 40 41 43h260q31 -3 41 -43zM379 393h149l-73 367zM567 1348q-48 0 -84 15
t-62.5 29.5t-51.5 14.5q-19 0 -48.5 -24.5t-46.5 -24.5q-14 0 -26 12l-96 117q-7 14 -7 22q0 14 13 27q109 109 184 109q34 0 96.5 -30t102.5 -30q19 0 48 24.5t46 24.5q15 0 27 -12l96 -117q6 -12 6 -22q0 -15 -12 -27q-108 -108 -185 -108z" />
    <glyph glyph-name="Adieresis" unicode="&#xc4;" horiz-adv-x="909" 
d="M627 1223l262 -1182q0 -15 -12 -27.5t-29 -13.5h-197q-15 1 -26.5 13.5t-14.5 27.5l-26 115h-260l-25 -115q-3 -15 -14.5 -27.5t-26.5 -13.5h-197q-17 1 -29 13.5t-12 27.5l265 1182q10 40 41 43h260q31 -3 41 -43zM379 393h149l-73 367zM145 1493q0 60 42 100.5
t102 40.5t101.5 -40.5t41.5 -100.5t-41.5 -102.5t-101.5 -42.5t-102 42.5t-42 102.5zM477 1493q0 60 42 100.5t102 40.5t101.5 -40.5t41.5 -100.5t-41.5 -102.5t-101.5 -42.5t-102 42.5t-42 102.5z" />
    <glyph glyph-name="Aring" unicode="&#xc5;" horiz-adv-x="909" 
d="M627 1223l262 -1182q0 -15 -12 -27.5t-29 -13.5h-197q-15 1 -26.5 13.5t-14.5 27.5l-26 115h-260l-25 -115q-3 -15 -14.5 -27.5t-26.5 -13.5h-197q-17 1 -29 13.5t-12 27.5l265 1182q10 40 41 43h260q31 -3 41 -43zM379 393h149l-73 367zM455 1348q-112 0 -175 67
t-63 197q0 131 63.5 198.5t174.5 67.5t174 -67.5t63 -198.5t-62.5 -197.5t-174.5 -66.5zM455 1524q22 0 36.5 22.5t14.5 63.5q0 43 -14.5 63.5t-36.5 20.5q-21 0 -35 -20.5t-14 -63.5q0 -41 14.5 -63.5t34.5 -22.5z" />
    <glyph glyph-name="AE" unicode="&#xc6;" horiz-adv-x="1263" 
d="M1165 1028h-309v-311h217q14 0 24.5 -11t12.5 -24v-170q-2 -14 -12 -24.5t-25 -10.5h-217v-237h309q13 0 24 -10.5t13 -24.5v-170q-2 -13 -13 -24t-24 -11h-547q-16 2 -28 14t-12 29v209h-218l-71 -213q-11 -36 -41 -39h-197q-16 2 -28.5 13t-12.5 26l398 1182
q14 42 41 45h716q13 0 24 -10.5t13 -24.5v-170q-2 -12 -13 -22.5t-24 -10.5zM440 489h138v414z" />
    <glyph glyph-name="Ccedilla" unicode="&#xc7;" horiz-adv-x="860" 
d="M541 -4l-43 -236q-7 -38 -41 -41h-191q-16 2 -27.5 13t-11.5 28l80 252q-108 39 -171.5 129t-63.5 209v565q0 157 109 261t274 104q166 0 275.5 -104t109.5 -261q0 -17 -12.5 -29t-28.5 -14h-197q-17 2 -29 14t-12 29v13q0 58 -31 85t-75 27q-43 0 -74 -27t-31 -85v-590
q0 -58 31 -85.5t74 -27.5t74.5 28.5t31.5 86.5v12q0 17 11.5 28t29.5 13h197q16 -2 28.5 -13.5t12.5 -27.5q0 -134 -83 -232t-216 -124z" />
    <glyph glyph-name="Egrave" unicode="&#xc8;" horiz-adv-x="768" 
d="M123 1266h547q13 0 24 -10.5t13 -24.5v-170q-2 -12 -13 -22.5t-24 -10.5h-310v-311h218q14 0 24 -11t12 -24v-170q-2 -14 -12 -24.5t-24 -10.5h-218v-237h310q13 0 24 -10.5t13 -24.5v-170q-2 -13 -13 -24t-24 -11h-547q-16 2 -28.5 14t-12.5 29v1182q0 16 12.5 27.5
t28.5 13.5zM334 1700l297 -174q14 -11 14 -31q0 -16 -8 -27l-94 -110q-13 -10 -27 -10q-9 0 -33 8l-325 137q-13 13 -13 31q0 12 7 26l124 144q12 12 31 12q15 0 27 -6z" />
    <glyph glyph-name="Eacute" unicode="&#xc9;" horiz-adv-x="768" 
d="M123 1266h547q13 0 24 -10.5t13 -24.5v-170q-2 -12 -13 -22.5t-24 -10.5h-310v-311h218q14 0 24 -11t12 -24v-170q-2 -14 -12 -24.5t-24 -10.5h-218v-237h310q13 0 24 -10.5t13 -24.5v-170q-2 -13 -13 -24t-24 -11h-547q-16 2 -28.5 14t-12.5 29v1182q0 16 12.5 27.5
t28.5 13.5zM152 1526l297 174q12 6 26 6q19 0 31 -12l125 -144q6 -12 6 -26q0 -19 -12 -31l-326 -137q-24 -8 -33 -8q-13 0 -26 10l-95 110q-8 11 -8 27q0 19 15 31z" />
    <glyph glyph-name="Ecircumflex" unicode="&#xca;" horiz-adv-x="768" 
d="M123 1266h547q13 0 24 -10.5t13 -24.5v-170q-2 -12 -13 -22.5t-24 -10.5h-310v-311h218q14 0 24 -11t12 -24v-170q-2 -14 -12 -24.5t-24 -10.5h-218v-237h310q13 0 24 -10.5t13 -24.5v-170q-2 -13 -13 -24t-24 -11h-547q-16 2 -28.5 14t-12.5 29v1182q0 16 12.5 27.5
t28.5 13.5zM510 1755h-242q-27 -3 -41 -45l-112 -324q0 -15 12 -25.5t29 -12.5h151q31 3 41 38l41 115l41 -115q10 -35 41 -38h152q17 2 29 12.5t12 25.5l-113 324q-14 42 -41 45z" />
    <glyph glyph-name="Edieresis" unicode="&#xcb;" horiz-adv-x="768" 
d="M123 1266h547q13 0 24 -10.5t13 -24.5v-170q-2 -12 -13 -22.5t-24 -10.5h-310v-311h218q14 0 24 -11t12 -24v-170q-2 -14 -12 -24.5t-24 -10.5h-218v-237h310q13 0 24 -10.5t13 -24.5v-170q-2 -13 -13 -24t-24 -11h-547q-16 2 -28.5 14t-12.5 29v1182q0 16 12.5 27.5
t28.5 13.5zM84 1493q0 -60 41.5 -102.5t101.5 -42.5t102 42.5t42 102.5t-42 100.5t-102 40.5t-101.5 -40.5t-41.5 -100.5zM416 1493q0 -60 41.5 -102.5t101.5 -42.5t101.5 42.5t41.5 102.5t-41.5 100.5t-101.5 40.5t-101.5 -40.5t-41.5 -100.5z" />
    <glyph glyph-name="Igrave" unicode="&#xcc;" horiz-adv-x="442" 
d="M82 43v1182q0 17 11.5 28t29.5 13h199q16 -2 27 -13t11 -28v-1182q0 -17 -11.5 -29t-26.5 -14h-199q-17 2 -29 14t-12 29zM160 1700l297 -174q14 -11 14 -31q0 -16 -8 -27l-94 -110q-13 -10 -27 -10q-9 0 -33 8l-325 137q-13 13 -13 31q0 14 6 26l125 144q12 12 31 12
q15 0 27 -6z" />
    <glyph glyph-name="Iacute" unicode="&#xcd;" horiz-adv-x="442" 
d="M360 1225v-1182q0 -17 -12 -29t-29 -14h-198q-16 2 -27.5 14t-11.5 29v1182q0 17 11.5 28t27.5 13h198q18 -2 29.5 -13t11.5 -28zM-14 1526l297 174q12 6 26 6q19 0 31 -12l125 -144q6 -12 6 -26q0 -19 -12 -31l-326 -137q-24 -8 -33 -8q-13 0 -26 10l-94 110
q-9 12 -9 27q0 19 15 31z" />
    <glyph glyph-name="Icircumflex" unicode="&#xce;" horiz-adv-x="442" 
d="M360 1225v-1182q0 -17 -12 -29t-29 -14h-198q-16 2 -27.5 14t-11.5 29v1182q0 17 11.5 28t27.5 13h198q18 -2 29.5 -13t11.5 -28zM342 1755h-242q-27 -3 -41 -45l-112 -324q0 -15 12 -25.5t29 -12.5h151q31 3 41 38l41 115l41 -115q10 -35 41 -38h152q17 2 29 12.5
t12 25.5l-113 324q-14 42 -41 45z" />
    <glyph glyph-name="Idieresis" unicode="&#xcf;" horiz-adv-x="442" 
d="M360 1225v-1182q0 -17 -12 -29t-29 -14h-198q-16 2 -27.5 14t-11.5 29v1182q0 17 11.5 28t27.5 13h198q18 -2 29.5 -13t11.5 -28zM-88 1493q0 -60 41.5 -102.5t101.5 -42.5t102 42.5t42 102.5t-42 100.5t-102 40.5t-101.5 -40.5t-41.5 -100.5zM244 1493
q0 -60 41.5 -102.5t101.5 -42.5t101.5 42.5t41.5 102.5t-41.5 100.5t-101.5 40.5t-101.5 -40.5t-41.5 -100.5z" />
    <glyph glyph-name="Eth" unicode="&#xd0;" horiz-adv-x="927" 
d="M483 1266q165 0 274 -104t109 -261v-539q0 -157 -108.5 -259.5t-274.5 -102.5h-340q-17 2 -29 14t-12 29v455h-65q-13 0 -24 10t-13 22v170q2 14 13 24.5t24 10.5h65v490q0 17 11.5 28t29.5 13h340zM588 350v563q0 58 -31 85.5t-74 27.5h-102v-291h96q13 0 24 -10.5
t13 -24.5v-170q-2 -12 -13 -22t-24 -10h-96v-260h102q43 0 74 27t31 85z" />
    <glyph glyph-name="Ntilde" unicode="&#xd1;" horiz-adv-x="919" 
d="M580 43l-220 492v-492q0 -17 -12.5 -29t-28.5 -14h-196q-17 2 -29 14t-12 29v1182q0 17 11.5 28t29.5 13h174q27 -3 43 -43l221 -498v500q0 17 11.5 28t27.5 13h197q18 -2 29.5 -13t11.5 -28v-1184q0 -17 -11.5 -28t-29.5 -13h-174q-27 3 -43 43zM563 1348q77 0 185 108
q12 12 12 27q0 10 -6 22l-97 117q-12 12 -26 12q-17 0 -46 -24.5t-48 -24.5q-40 0 -102.5 30t-96.5 30q-75 0 -184 -109q-13 -13 -13 -27q0 -10 6 -22l97 -117q12 -12 26 -12q17 0 46.5 24.5t48.5 24.5q25 0 51.5 -14.5t62.5 -29.5t84 -15z" />
    <glyph glyph-name="Ograve" unicode="&#xd2;" horiz-adv-x="911" 
d="M457 225q43 0 74.5 27.5t31.5 85.5v590q0 58 -31.5 85t-74.5 27q-44 0 -75.5 -27t-31.5 -85v-590q0 -58 31.5 -85.5t75.5 -27.5zM457 -14q-167 0 -276 103.5t-109 260.5v565q0 157 109 261t276 104q165 0 274 -104t109 -261v-565q0 -157 -108.5 -260.5t-274.5 -103.5z
M397 1700l297 -174q15 -12 15 -31q0 -15 -9 -27l-94 -110q-13 -10 -26 -10q-9 0 -33 8l-326 137q-12 12 -12 31q0 14 6 26l125 144q12 12 31 12q14 0 26 -6z" />
    <glyph glyph-name="Oacute" unicode="&#xd3;" horiz-adv-x="911" 
d="M455 225q44 0 75 27.5t31 85.5v590q0 58 -31 85t-75 27q-43 0 -75 -27t-32 -85v-590q0 -58 32 -85.5t75 -27.5zM455 -14q-166 0 -274.5 103.5t-108.5 260.5v565q0 157 109 261t274 104q167 0 276 -104t109 -261v-565q0 -157 -109 -260.5t-276 -103.5zM217 1526l297 174
q12 6 27 6q18 0 30 -12l125 -144q6 -12 6 -26q0 -19 -12 -31l-325 -137q-24 -8 -33 -8q-14 0 -27 10l-94 110q-8 11 -8 27q0 20 14 31z" />
    <glyph glyph-name="Ocircumflex" unicode="&#xd4;" horiz-adv-x="911" 
d="M457 225q43 0 74.5 27.5t31.5 85.5v590q0 58 -31.5 85t-74.5 27q-44 0 -75.5 -27t-31.5 -85v-590q0 -58 31.5 -85.5t75.5 -27.5zM457 -14q-167 0 -276 103.5t-109 260.5v565q0 157 109 261t276 104q165 0 274 -104t109 -261v-565q0 -157 -108.5 -260.5t-274.5 -103.5z
M336 1755h242q26 -3 40 -45l113 -324q0 -15 -12 -25.5t-29 -12.5h-151q-31 3 -41 38l-41 115l-41 -115q-10 -35 -41 -38h-152q-17 2 -29 12.5t-12 25.5l113 324q14 42 41 45z" />
    <glyph glyph-name="Otilde" unicode="&#xd5;" horiz-adv-x="911" 
d="M457 225q43 0 74.5 27.5t31.5 85.5v590q0 58 -31.5 85t-74.5 27q-44 0 -75.5 -27t-31.5 -85v-590q0 -58 31.5 -85.5t75.5 -27.5zM457 -14q-167 0 -276 103.5t-109 260.5v565q0 157 109 261t276 104q165 0 274 -104t109 -261v-565q0 -157 -108.5 -260.5t-274.5 -103.5z
M569 1348q-48 0 -84 15t-62.5 29.5t-51.5 14.5q-19 0 -48.5 -24.5t-46.5 -24.5q-14 0 -26 12l-96 117q-7 14 -7 22q0 14 13 27q109 109 184 109q34 0 96.5 -30t102.5 -30q19 0 48 24.5t46 24.5q15 0 27 -12l96 -117q6 -12 6 -22q0 -15 -12 -27q-108 -108 -185 -108z" />
    <glyph glyph-name="Odieresis" unicode="&#xd6;" horiz-adv-x="911" 
d="M457 225q43 0 74.5 27.5t31.5 85.5v590q0 58 -31.5 85t-74.5 27q-44 0 -75.5 -27t-31.5 -85v-590q0 -58 31.5 -85.5t75.5 -27.5zM457 -14q-167 0 -276 103.5t-109 260.5v565q0 157 109 261t276 104q165 0 274 -104t109 -261v-565q0 -157 -108.5 -260.5t-274.5 -103.5z
M147 1493q0 60 42 100.5t102 40.5t101.5 -40.5t41.5 -100.5t-41.5 -102.5t-101.5 -42.5t-102 42.5t-42 102.5zM479 1493q0 60 42 100.5t102 40.5t101.5 -40.5t41.5 -100.5t-41.5 -102.5t-101.5 -42.5t-102 42.5t-42 102.5z" />
    <glyph glyph-name="multiply" unicode="&#xd7;" horiz-adv-x="761" 
d="M680 737l-164 -293l164 -292q0 -17 -11.5 -29t-27.5 -14h-184q-26 2 -49 43l-27 51l-27 -51q-23 -41 -49 -43h-184q-16 2 -27.5 14t-11.5 29l164 292l-164 293q0 17 11.5 29t27.5 14h184q26 -2 49 -43l27 -51l27 51q23 41 49 43h184q16 -2 27.5 -14t11.5 -29z" />
    <glyph glyph-name="Oslash" unicode="&#xd8;" horiz-adv-x="911" 
d="M588 1260q115 -37 183.5 -130t68.5 -215v-565q0 -118 -64 -209t-170 -131l-39 -215q-7 -38 -41 -41h-190q-16 2 -27.5 13t-11.5 28l61 201q-128 28 -207 124.5t-79 229.5v565q0 130 77 227t205 126l47 256q7 38 41 41h191q16 -2 27.5 -13t11.5 -28zM350 928v-590
q0 -58 31.5 -85.5t75.5 -27.5q43 0 74.5 27.5t31.5 85.5v590q0 58 -31.5 85t-74.5 27q-44 0 -75.5 -27t-31.5 -85z" />
    <glyph glyph-name="Ugrave" unicode="&#xd9;" horiz-adv-x="933" 
d="M467 -14q-167 0 -276 103.5t-109 260.5v875q0 17 11.5 28t29.5 13h199q16 -2 27 -13t11 -28v-887q0 -58 31.5 -85.5t75.5 -27.5t75 27.5t31 85.5v887q0 17 11.5 28t27.5 13h199q18 -2 29.5 -13t11.5 -28v-875q0 -157 -109 -260.5t-276 -103.5zM408 1700l297 -174
q14 -11 14 -31q0 -16 -8 -27l-95 -110q-13 -10 -26 -10q-9 0 -33 8l-326 137q-12 12 -12 31q0 14 6 26l125 144q12 12 31 12q15 0 27 -6z" />
    <glyph glyph-name="Uacute" unicode="&#xda;" horiz-adv-x="933" 
d="M467 -14q-167 0 -276 103.5t-109 260.5v875q0 17 11.5 28t29.5 13h199q16 -2 27 -13t11 -28v-887q0 -58 31.5 -85.5t75.5 -27.5t75 27.5t31 85.5v887q0 17 11.5 28t27.5 13h199q18 -2 29.5 -13t11.5 -28v-875q0 -157 -109 -260.5t-276 -103.5zM229 1526l297 174
q12 6 27 6q19 0 31 -12l125 -144q6 -12 6 -26q0 -18 -13 -31l-325 -137q-24 -8 -33 -8q-14 0 -27 10l-94 110q-8 11 -8 27q0 20 14 31z" />
    <glyph glyph-name="Ucircumflex" unicode="&#xdb;" horiz-adv-x="933" 
d="M467 -14q-167 0 -276 103.5t-109 260.5v875q0 17 11.5 28t29.5 13h199q16 -2 27 -13t11 -28v-887q0 -58 31.5 -85.5t75.5 -27.5t75 27.5t31 85.5v887q0 17 11.5 28t27.5 13h199q18 -2 29.5 -13t11.5 -28v-875q0 -157 -109 -260.5t-276 -103.5zM346 1755h242q27 -3 41 -45
l112 -324q0 -15 -12 -25.5t-29 -12.5h-151q-31 3 -41 38l-41 115l-41 -115q-10 -35 -41 -38h-152q-17 2 -28.5 12.5t-11.5 25.5l112 324q14 42 41 45z" />
    <glyph glyph-name="Udieresis" unicode="&#xdc;" horiz-adv-x="933" 
d="M467 -14q-167 0 -276 103.5t-109 260.5v875q0 17 11.5 28t29.5 13h199q16 -2 27 -13t11 -28v-887q0 -58 31.5 -85.5t75.5 -27.5t75 27.5t31 85.5v887q0 17 11.5 28t27.5 13h199q18 -2 29.5 -13t11.5 -28v-875q0 -157 -109 -260.5t-276 -103.5zM158 1493q0 60 41.5 100.5
t101.5 40.5t101.5 -40.5t41.5 -100.5t-41.5 -102.5t-101.5 -42.5t-101.5 42.5t-41.5 102.5zM489 1493q0 60 42 100.5t102 40.5t101.5 -40.5t41.5 -100.5t-41.5 -102.5t-101.5 -42.5t-102 42.5t-42 102.5z" />
    <glyph glyph-name="Yacute" unicode="&#xdd;" horiz-adv-x="892" 
d="M446 815l158 412q12 36 41 39h197q16 -2 28.5 -13t12.5 -26l-297 -789v-395q0 -17 -11.5 -29t-27.5 -14h-199q-17 2 -29 14t-12 29v395l-297 789q0 15 12.5 26t28.5 13h197q29 -3 41 -39zM209 1526l297 174q12 6 26 6q19 0 31 -12l125 -144q6 -12 6 -26q0 -19 -12 -31
l-326 -137q-24 -8 -32 -8q-14 0 -27 10l-94 110q-8 11 -8 27q0 20 14 31z" />
    <glyph glyph-name="Thorn" unicode="&#xde;" horiz-adv-x="886" 
d="M82 43v1143q0 17 12 29t29 14h196q16 -2 28.5 -14t12.5 -29v-111h95q74 0 142 -25t121.5 -70.5t85.5 -115.5t32 -153v-193q0 -83 -32 -153t-85.5 -115.5t-121.5 -70.5t-142 -25h-95v-111q0 -17 -12.5 -29t-28.5 -14h-196q-17 2 -29 14t-12 29zM559 526v179q0 61 -32.5 97
t-71.5 36h-95v-445h95q39 0 71.5 36t32.5 97z" />
    <glyph glyph-name="germandbls" unicode="&#xdf;" horiz-adv-x="960" 
d="M457 1266h35q100 0 185 -40.5t140 -123.5t55 -193v-30q0 -155 -114 -222q51 -19 96 -102t45 -168v-14q0 -165 -114 -269t-267 -104h-67q-14 0 -24.5 11t-12.5 24v170q2 14 12 24.5t25 10.5h67q39 0 72 39.5t33 101.5t-33 99.5t-72 37.5h-55q-14 0 -24.5 11t-12.5 24v170
q2 14 12 24.5t25 10.5h29q40 0 72 34t32 95v16q0 61 -32 93t-72 32h-35q-44 0 -75.5 -27.5t-31.5 -85.5v-874q0 -17 -11.5 -28t-27.5 -13h-198q-18 2 -29.5 13t-11.5 28v860q0 157 109 261t276 104z" />
    <glyph glyph-name="agrave" unicode="&#xe0;" 
d="M512 307v328q0 34 -23.5 58t-58.5 24q-32 0 -56 -24t-24 -58v-328q0 -34 24 -58t56 -24q35 0 58.5 24t23.5 58zM791 899v-856q0 -17 -12.5 -29t-28.5 -14h-164q-17 2 -29 14t-12 29v23q-46 -48 -94.5 -63t-108.5 -15q-111 0 -190.5 77t-79.5 187v440q0 109 80 186.5
t190 77.5q60 0 108.5 -15.5t94.5 -63.5v22q0 18 11.5 29.5t29.5 13.5h164q16 -2 28.5 -13.5t12.5 -29.5zM383 1391l297 -174q14 -11 14 -31q0 -16 -8 -27l-94 -110q-15 -11 -27 -11q-6 0 -33 9l-325 137q-12 12 -12 30q0 15 6 27l125 143q13 13 30 13q15 0 27 -6z" />
    <glyph glyph-name="aacute" unicode="&#xe1;" 
d="M512 307v328q0 34 -23.5 58t-58.5 24q-32 0 -56 -24t-24 -58v-328q0 -34 24 -58t56 -24q35 0 58.5 24t23.5 58zM791 899v-856q0 -17 -12.5 -29t-28.5 -14h-164q-17 2 -29 14t-12 29v23q-46 -48 -94.5 -63t-108.5 -15q-111 0 -190.5 77t-79.5 187v440q0 109 80 186.5
t190 77.5q60 0 108.5 -15.5t94.5 -63.5v22q0 18 11.5 29.5t29.5 13.5h164q16 -2 28.5 -13.5t12.5 -29.5zM209 1217l297 174q12 6 26 6q18 0 31 -13l125 -143q6 -12 6 -27q0 -18 -12 -30l-326 -137q-27 -9 -32 -9q-12 0 -27 11l-94 110q-8 11 -8 27q0 20 14 31z" />
    <glyph glyph-name="acircumflex" unicode="&#xe2;" 
d="M512 307v328q0 34 -23.5 58t-58.5 24q-32 0 -56 -24t-24 -58v-328q0 -34 24 -58t56 -24q35 0 58.5 24t23.5 58zM791 899v-856q0 -17 -12.5 -29t-28.5 -14h-164q-17 2 -29 14t-12 29v23q-46 -48 -94.5 -63t-108.5 -15q-111 0 -190.5 77t-79.5 187v440q0 109 80 186.5
t190 77.5q60 0 108.5 -15.5t94.5 -63.5v22q0 18 11.5 29.5t29.5 13.5h164q16 -2 28.5 -13.5t12.5 -29.5zM303 1446h242q27 -3 41 -45l112 -324q0 -15 -12 -26t-29 -13h-151q-30 3 -41 39l-41 115l-41 -115q-11 -36 -41 -39h-152q-17 1 -28.5 12.5t-11.5 26.5l112 324
q14 42 41 45z" />
    <glyph glyph-name="atilde" unicode="&#xe3;" 
d="M512 307v328q0 34 -23.5 58t-58.5 24q-32 0 -56 -24t-24 -58v-328q0 -34 24 -58t56 -24q35 0 58.5 24t23.5 58zM791 899v-856q0 -17 -12.5 -29t-28.5 -14h-164q-17 2 -29 14t-12 29v23q-46 -48 -94.5 -63t-108.5 -15q-111 0 -190.5 77t-79.5 187v440q0 109 80 186.5
t190 77.5q60 0 108.5 -15.5t94.5 -63.5v22q0 18 11.5 29.5t29.5 13.5h164q16 -2 28.5 -13.5t12.5 -29.5zM535 1038q-48 0 -84 15t-63 30t-52 15q-19 0 -48 -24.5t-46 -24.5q-15 0 -27 12l-96 117q-6 12 -6 22q0 15 12 27q108 108 184 108q34 0 96.5 -29.5t102.5 -29.5
q19 0 48 24.5t46 24.5q15 0 27 -12l96 -117q6 -12 6 -22q0 -15 -12 -27q-109 -109 -184 -109z" />
    <glyph glyph-name="adieresis" unicode="&#xe4;" 
d="M512 307v328q0 34 -23.5 58t-58.5 24q-32 0 -56 -24t-24 -58v-328q0 -34 24 -58t56 -24q35 0 58.5 24t23.5 58zM791 899v-856q0 -17 -12.5 -29t-28.5 -14h-164q-17 2 -29 14t-12 29v23q-46 -48 -94.5 -63t-108.5 -15q-111 0 -190.5 77t-79.5 187v440q0 109 80 186.5
t190 77.5q60 0 108.5 -15.5t94.5 -63.5v22q0 18 11.5 29.5t29.5 13.5h164q16 -2 28.5 -13.5t12.5 -29.5zM125 1184q0 60 41.5 100.5t101.5 40.5t102 -40.5t42 -100.5t-42 -103t-102 -43t-101.5 43t-41.5 103zM457 1184q0 60 41.5 100.5t101.5 40.5t101.5 -40.5t41.5 -100.5
t-41.5 -103t-101.5 -43t-101.5 43t-41.5 103z" />
    <glyph glyph-name="aring" unicode="&#xe5;" 
d="M512 307v328q0 34 -23.5 58t-58.5 24q-32 0 -56 -24t-24 -58v-328q0 -34 24 -58t56 -24q35 0 58.5 24t23.5 58zM791 899v-856q0 -17 -12.5 -29t-28.5 -14h-164q-17 2 -29 14t-12 29v23q-46 -48 -94.5 -63t-108.5 -15q-111 0 -190.5 77t-79.5 187v440q0 109 80 186.5
t190 77.5q60 0 108.5 -15.5t94.5 -63.5v22q0 18 11.5 29.5t29.5 13.5h164q16 -2 28.5 -13.5t12.5 -29.5zM442 1038q-111 0 -174 67t-63 198t63 198.5t174 67.5t174.5 -67.5t63.5 -198.5t-63 -198t-175 -67zM442 1214q22 0 37 22.5t15 63.5q0 43 -15 63.5t-37 20.5
q-21 0 -35 -20.5t-14 -63.5q0 -41 14.5 -63.5t34.5 -22.5z" />
    <glyph glyph-name="ae" unicode="&#xe6;" horiz-adv-x="1265" 
d="M1153 379h-393v-72q0 -35 22 -58.5t58 -23.5q29 0 50 15.5t21 33.5q0 12 10.5 21.5t24.5 11.5h213q13 -1 23 -11t10 -22q-13 -127 -114 -206.5t-238 -79.5q-145 0 -248 106q-102 -106 -281 -106q-111 0 -190.5 77t-79.5 187v76q0 109 80 186.5t190 77.5q105 0 170 -51v94
q0 34 -23.5 58t-58.5 24q-66 0 -73 -43q-3 -17 -10.5 -24t-26.5 -7h-185q-15 2 -26.5 15t-11.5 30q0 72 26.5 126t71.5 84t97 44t112 14q158 0 245 -100q72 100 222 100q155 0 254.5 -96.5t99.5 -243.5v-194q0 -18 -12.5 -29.5t-28.5 -13.5zM760 635v-60h155v60q0 34 -22 58
t-55 24q-36 0 -57 -23.5t-21 -58.5zM481 307v15q0 34 -23.5 57.5t-58.5 23.5q-33 0 -56.5 -23.5t-23.5 -57.5v-15q0 -34 24 -58t56 -24q35 0 58.5 24t23.5 58z" />
    <glyph glyph-name="ccedilla" unicode="&#xe7;" horiz-adv-x="839" 
d="M530 0l-43 -240q-7 -38 -41 -41h-190q-16 2 -27.5 13t-11.5 28l78 250q-99 35 -161 116t-62 187v303q0 146 102.5 243t257.5 97t255.5 -96.5t100.5 -243.5v-12q0 -17 -11.5 -29t-26.5 -14h-199q-17 2 -29 14t-12 29v31q0 35 -21.5 58.5t-56.5 23.5t-58.5 -24t-23.5 -58
v-328q0 -34 23.5 -58t58.5 -24t56.5 23.5t21.5 58.5v19q0 17 12 29t29 14h199q15 -2 26.5 -14t11.5 -29v-13q0 -117 -72 -200.5t-186 -112.5z" />
    <glyph glyph-name="egrave" unicode="&#xe8;" horiz-adv-x="856" 
d="M350 635v-60h156v60q0 34 -22.5 58t-55.5 24q-36 0 -57 -23.5t-21 -58.5zM782 274q-13 -127 -114 -206.5t-238 -79.5q-148 0 -253 91.5t-105 233.5v303q0 147 101 243.5t257 96.5q155 0 254.5 -96.5t99.5 -243.5v-194q0 -18 -12.5 -29.5t-28.5 -13.5h-393v-72
q0 -35 22 -58.5t58 -23.5q30 0 51 15.5t21 33.5q0 12 10.5 21.5t24.5 11.5h213q13 -1 22.5 -11t9.5 -22zM397 1391l297 -174q15 -12 15 -31q0 -15 -9 -27l-94 -110q-15 -11 -26 -11q-6 0 -33 9l-326 137q-12 12 -12 30q0 15 6 27l125 143q13 13 31 13q14 0 26 -6z" />
    <glyph glyph-name="eacute" unicode="&#xe9;" horiz-adv-x="856" 
d="M350 635v-60h156v60q0 34 -22.5 58t-55.5 24q-36 0 -57 -23.5t-21 -58.5zM782 274q-13 -127 -114 -206.5t-238 -79.5q-148 0 -253 91.5t-105 233.5v303q0 147 101 243.5t257 96.5q155 0 254.5 -96.5t99.5 -243.5v-194q0 -18 -12.5 -29.5t-28.5 -13.5h-393v-72
q0 -35 22 -58.5t58 -23.5q30 0 51 15.5t21 33.5q0 12 10.5 21.5t24.5 11.5h213q13 -1 22.5 -11t9.5 -22zM211 1217l297 174q12 6 27 6q17 0 30 -13l125 -143q6 -12 6 -27q0 -18 -12 -30l-326 -137q-27 -9 -32 -9q-12 0 -27 11l-94 110q-8 11 -8 27q0 20 14 31z" />
    <glyph glyph-name="ecircumflex" unicode="&#xea;" horiz-adv-x="856" 
d="M350 635v-60h156v60q0 34 -22.5 58t-55.5 24q-36 0 -57 -23.5t-21 -58.5zM782 274q-13 -127 -114 -206.5t-238 -79.5q-148 0 -253 91.5t-105 233.5v303q0 147 101 243.5t257 96.5q155 0 254.5 -96.5t99.5 -243.5v-194q0 -18 -12.5 -29.5t-28.5 -13.5h-393v-72
q0 -35 22 -58.5t58 -23.5q30 0 51 15.5t21 33.5q0 12 10.5 21.5t24.5 11.5h213q13 -1 22.5 -11t9.5 -22zM305 1446h242q27 -3 41 -45l112 -324q0 -15 -12 -26t-29 -13h-151q-30 3 -41 39l-41 115l-41 -115q-11 -36 -41 -39h-151q-17 2 -29 13t-12 26l112 324q14 42 41 45z
" />
    <glyph glyph-name="edieresis" unicode="&#xeb;" horiz-adv-x="856" 
d="M350 635v-60h156v60q0 34 -22.5 58t-55.5 24q-36 0 -57 -23.5t-21 -58.5zM782 274q-13 -127 -114 -206.5t-238 -79.5q-148 0 -253 91.5t-105 233.5v303q0 147 101 243.5t257 96.5q155 0 254.5 -96.5t99.5 -243.5v-194q0 -18 -12.5 -29.5t-28.5 -13.5h-393v-72
q0 -35 22 -58.5t58 -23.5q30 0 51 15.5t21 33.5q0 12 10.5 21.5t24.5 11.5h213q13 -1 22.5 -11t9.5 -22zM121 1184q0 60 41.5 100.5t101.5 40.5t102 -40.5t42 -100.5t-42 -103t-102 -43t-101.5 43t-41.5 103zM453 1184q0 60 41.5 100.5t101.5 40.5t101.5 -40.5t41.5 -100.5
t-41.5 -103t-101.5 -43t-101.5 43t-41.5 103z" />
    <glyph glyph-name="igrave" unicode="&#xec;" horiz-adv-x="442" 
d="M82 43v856q0 18 12.5 29.5t28.5 13.5h196q18 -2 29.5 -13.5t11.5 -29.5v-856q0 -17 -12 -29t-29 -14h-196q-16 2 -28.5 14t-12.5 29zM160 1391l297 -174q14 -11 14 -31q0 -16 -8 -27l-94 -110q-15 -11 -27 -11q-6 0 -33 9l-325 137q-13 13 -13 30q0 15 6 27l125 143
q13 13 31 13q15 0 27 -6z" />
    <glyph glyph-name="iacute" unicode="&#xed;" horiz-adv-x="442" 
d="M360 899v-856q0 -17 -12.5 -29t-28.5 -14h-196q-17 2 -29 14t-12 29v856q0 18 11.5 29.5t29.5 13.5h196q16 -2 28.5 -13.5t12.5 -29.5zM-14 1217l297 174q12 6 26 6q18 0 31 -13l125 -143q6 -12 6 -27q0 -18 -12 -30l-326 -137q-27 -9 -33 -9q-11 0 -26 11l-94 110
q-9 12 -9 27q0 19 15 31z" />
    <glyph glyph-name="icircumflex" unicode="&#xee;" horiz-adv-x="442" 
d="M82 43v856q0 18 12.5 29.5t28.5 13.5h196q18 -2 29.5 -13.5t11.5 -29.5v-856q0 -17 -12 -29t-29 -14h-196q-16 2 -28.5 14t-12.5 29zM342 1446h-242q-27 -3 -41 -45l-112 -324q0 -15 12 -26t29 -13h151q30 3 41 39l41 115l41 -115q11 -36 41 -39h152q17 2 29 13t12 26
l-113 324q-14 42 -41 45z" />
    <glyph glyph-name="idieresis" unicode="&#xef;" horiz-adv-x="442" 
d="M82 43v856q0 18 12.5 29.5t28.5 13.5h196q18 -2 29.5 -13.5t11.5 -29.5v-856q0 -17 -12 -29t-29 -14h-196q-16 2 -28.5 14t-12.5 29zM-88 1184q0 -60 41.5 -103t101.5 -43t102 43t42 103t-42 100.5t-102 40.5t-101.5 -40.5t-41.5 -100.5zM244 1184q0 -60 41.5 -103
t101.5 -43t101.5 43t41.5 103t-41.5 100.5t-101.5 40.5t-101.5 -40.5t-41.5 -100.5z" />
    <glyph glyph-name="eth" unicode="&#xf0;" horiz-adv-x="845" 
d="M774 973q-2 -9 -11.5 -18t-19.5 -9h-47l68 -168q10 -35 10 -104v-361q0 -142 -103.5 -233.5t-252.5 -91.5t-253 91.5t-104 233.5v174q0 154 75 247t224 93q56 0 84 -10.5t52 -32.5l-66 162h-225q-10 0 -19.5 9t-11.5 18v143q2 11 11.5 20t19.5 9h145l-33 80q0 17 11.5 28
t27.5 13h185q25 -2 41 -41l32 -80h129q10 0 19.5 -9t11.5 -20v-143zM496 307v199q0 35 -21.5 58.5t-56.5 23.5t-56.5 -23.5t-21.5 -58.5v-199q0 -35 21.5 -58.5t56.5 -23.5t56.5 23.5t21.5 58.5z" />
    <glyph glyph-name="ntilde" unicode="&#xf1;" 
d="M360 635v-592q0 -17 -12.5 -29t-28.5 -14h-196q-16 2 -28.5 14t-12.5 29v858q0 16 12.5 27.5t28.5 13.5h164q16 -2 28.5 -13.5t12.5 -27.5v-24q46 49 94.5 64t107.5 15q109 0 190 -78t81 -186v-649q0 -17 -12.5 -29t-28.5 -14h-197q-17 2 -29 14t-12 29v592q0 34 -24 58
t-58 24t-57 -24t-23 -58zM549 1038q-48 0 -84 15t-63 30t-52 15q-19 0 -48 -24.5t-46 -24.5q-15 0 -27 12l-96 117q-6 12 -6 22q0 15 12 27q108 108 185 108q34 0 96 -29.5t102 -29.5q19 0 48 24.5t46 24.5q15 0 27 -12l96 -117q6 -12 6 -22q0 -15 -12 -27
q-109 -109 -184 -109z" />
    <glyph glyph-name="ograve" unicode="&#xf2;" horiz-adv-x="856" 
d="M428 956q155 0 255.5 -96.5t100.5 -243.5v-303q0 -142 -103.5 -233.5t-252.5 -91.5t-252.5 91.5t-103.5 233.5v303q0 147 100.5 243.5t255.5 96.5zM428 225q35 0 56.5 23.5t21.5 58.5v328q0 35 -21.5 58.5t-56.5 23.5t-56.5 -23.5t-21.5 -58.5v-328q0 -35 21.5 -58.5
t56.5 -23.5zM367 1391l297 -174q14 -11 14 -31q0 -16 -8 -27l-95 -110q-15 -11 -26 -11q-6 0 -33 9l-326 137q-12 12 -12 30q0 15 6 27l125 143q13 13 31 13q15 0 27 -6z" />
    <glyph glyph-name="oacute" unicode="&#xf3;" horiz-adv-x="856" 
d="M428 956q155 0 255.5 -96.5t100.5 -243.5v-303q0 -142 -103.5 -233.5t-252.5 -91.5t-252.5 91.5t-103.5 233.5v303q0 147 100.5 243.5t255.5 96.5zM428 225q35 0 56.5 23.5t21.5 58.5v328q0 35 -21.5 58.5t-56.5 23.5t-56.5 -23.5t-21.5 -58.5v-328q0 -35 21.5 -58.5
t56.5 -23.5zM193 1217l296 174q12 6 27 6q18 0 31 -13l125 -143q6 -12 6 -27q0 -18 -12 -30l-326 -137q-27 -9 -33 -9q-11 0 -26 11l-95 110q-8 11 -8 27q0 19 15 31z" />
    <glyph glyph-name="ocircumflex" unicode="&#xf4;" horiz-adv-x="856" 
d="M428 956q155 0 255.5 -96.5t100.5 -243.5v-303q0 -142 -103.5 -233.5t-252.5 -91.5t-252.5 91.5t-103.5 233.5v303q0 147 100.5 243.5t255.5 96.5zM428 225q35 0 56.5 23.5t21.5 58.5v328q0 35 -21.5 58.5t-56.5 23.5t-56.5 -23.5t-21.5 -58.5v-328q0 -35 21.5 -58.5
t56.5 -23.5zM307 1446h242q27 -3 41 -45l112 -324q0 -15 -11.5 -26.5t-28.5 -12.5h-152q-30 3 -41 39l-41 115l-41 -115q-11 -36 -41 -39h-151q-17 2 -29 13t-12 26l112 324q14 42 41 45z" />
    <glyph glyph-name="otilde" unicode="&#xf5;" horiz-adv-x="856" 
d="M428 956q155 0 255.5 -96.5t100.5 -243.5v-303q0 -142 -103.5 -233.5t-252.5 -91.5t-252.5 91.5t-103.5 233.5v303q0 147 100.5 243.5t255.5 96.5zM428 225q35 0 56.5 23.5t21.5 58.5v328q0 35 -21.5 58.5t-56.5 23.5t-56.5 -23.5t-21.5 -58.5v-328q0 -35 21.5 -58.5
t56.5 -23.5zM541 1038q-48 0 -84 15t-63 30t-52 15q-19 0 -48 -24.5t-46 -24.5q-15 0 -27 12l-96 117q-6 12 -6 22q0 15 12 27q108 108 184 108q34 0 96.5 -29.5t102.5 -29.5q19 0 48 24.5t46 24.5q15 0 27 -12l96 -117q6 -12 6 -22q0 -15 -12 -27q-109 -109 -184 -109z" />
    <glyph glyph-name="odieresis" unicode="&#xf6;" horiz-adv-x="856" 
d="M428 956q155 0 255.5 -96.5t100.5 -243.5v-303q0 -142 -103.5 -233.5t-252.5 -91.5t-252.5 91.5t-103.5 233.5v303q0 147 100.5 243.5t255.5 96.5zM428 225q35 0 56.5 23.5t21.5 58.5v328q0 35 -21.5 58.5t-56.5 23.5t-56.5 -23.5t-21.5 -58.5v-328q0 -35 21.5 -58.5
t56.5 -23.5zM119 1184q0 60 41.5 100.5t101.5 40.5t102 -40.5t42 -100.5t-42 -103t-102 -43t-101.5 43t-41.5 103zM451 1184q0 60 41.5 100.5t101.5 40.5t101.5 -40.5t41.5 -100.5t-41.5 -103t-101.5 -43t-101.5 43t-41.5 103z" />
    <glyph glyph-name="divide" unicode="&#xf7;" horiz-adv-x="770" 
d="M119 330h532q13 0 24 10t13 22v170q-2 14 -13 24.5t-24 10.5h-532q-13 0 -24 -10.5t-13 -24.5v-170q2 -12 13 -22t24 -10zM242 145q0 60 41.5 101t101.5 41t101.5 -41t41.5 -101t-41.5 -102.5t-101.5 -42.5t-101.5 42.5t-41.5 102.5zM242 756q0 60 41.5 100.5t101.5 40.5
t101.5 -40.5t41.5 -100.5t-41.5 -103t-101.5 -43t-101.5 43t-41.5 103z" />
    <glyph glyph-name="oslash" unicode="&#xf8;" horiz-adv-x="856" 
d="M532 944q115 -31 183.5 -120t68.5 -208v-303q0 -113 -68 -196t-177 -113l-37 -209q-7 -38 -41 -41h-191q-16 2 -27.5 13t-11.5 28l68 213q-102 35 -164.5 116t-62.5 189v303q0 111 59 196t160 122l45 242q7 38 41 41h190q16 -2 27.5 -13t11.5 -28zM350 635v-328
q0 -35 21.5 -58.5t56.5 -23.5t56.5 23.5t21.5 58.5v328q0 35 -21.5 58.5t-56.5 23.5t-56.5 -23.5t-21.5 -58.5z" />
    <glyph glyph-name="ugrave" unicode="&#xf9;" 
d="M512 307v592q0 17 12.5 29t28.5 14h197q16 -2 28.5 -14t12.5 -29v-858q0 -16 -12.5 -27.5t-28.5 -13.5h-164q-16 2 -28.5 13.5t-12.5 27.5v25q-46 -49 -95 -64.5t-108 -15.5q-109 0 -189.5 78t-80.5 186v649q0 17 12.5 29t28.5 14h196q17 -2 29 -14t12 -29v-592
q0 -34 24 -58t58 -24t57 24t23 58zM389 1391l297 -174q14 -11 14 -31q0 -16 -8 -27l-94 -110q-15 -11 -27 -11q-5 0 -32 9l-326 137q-12 12 -12 30q0 15 6 27l125 143q13 13 30 13q15 0 27 -6z" />
    <glyph glyph-name="uacute" unicode="&#xfa;" 
d="M512 307v592q0 17 12.5 29t28.5 14h197q16 -2 28.5 -14t12.5 -29v-858q0 -16 -12.5 -27.5t-28.5 -13.5h-164q-16 2 -28.5 13.5t-12.5 27.5v25q-46 -49 -95 -64.5t-108 -15.5q-109 0 -189.5 78t-80.5 186v649q0 17 12.5 29t28.5 14h196q17 -2 29 -14t12 -29v-592
q0 -34 24 -58t58 -24t57 24t23 58zM215 1217l297 174q12 6 27 6q17 0 30 -13l125 -143q6 -12 6 -27q0 -18 -12 -30l-326 -137q-27 -9 -32 -9q-12 0 -27 11l-94 110q-8 11 -8 27q0 20 14 31z" />
    <glyph glyph-name="ucircumflex" unicode="&#xfb;" 
d="M512 307v592q0 17 12.5 29t28.5 14h197q16 -2 28.5 -14t12.5 -29v-858q0 -16 -12.5 -27.5t-28.5 -13.5h-164q-16 2 -28.5 13.5t-12.5 27.5v25q-46 -49 -95 -64.5t-108 -15.5q-109 0 -189.5 78t-80.5 186v649q0 17 12.5 29t28.5 14h196q17 -2 29 -14t12 -29v-592
q0 -34 24 -58t58 -24t57 24t23 58zM311 1446h242q27 -3 41 -45l113 -324q0 -15 -12 -26t-29 -13h-152q-30 3 -41 39l-41 115l-41 -115q-11 -36 -41 -39h-151q-17 2 -29 13t-12 26l112 324q14 42 41 45z" />
    <glyph glyph-name="udieresis" unicode="&#xfc;" 
d="M512 307v592q0 17 12.5 29t28.5 14h197q16 -2 28.5 -14t12.5 -29v-858q0 -16 -12.5 -27.5t-28.5 -13.5h-164q-16 2 -28.5 13.5t-12.5 27.5v25q-46 -49 -95 -64.5t-108 -15.5q-109 0 -189.5 78t-80.5 186v649q0 17 12.5 29t28.5 14h196q17 -2 29 -14t12 -29v-592
q0 -34 24 -58t58 -24t57 24t23 58zM123 1184q0 60 41.5 100.5t101.5 40.5t102 -40.5t42 -100.5t-42 -103t-102 -43t-101.5 43t-41.5 103zM455 1184q0 60 41.5 100.5t101.5 40.5t101.5 -40.5t41.5 -100.5t-41.5 -103t-101.5 -43t-101.5 43t-41.5 103z" />
    <glyph glyph-name="yacute" unicode="&#xfd;" horiz-adv-x="763" 
d="M150 1217l296 174q12 6 27 6q18 0 31 -13l125 -143q6 -12 6 -27q0 -18 -12 -30l-326 -137q-27 -9 -33 -9q-11 0 -26 11l-95 110q-8 11 -8 27q0 19 15 31zM754 903l-312 -1184q-3 -15 -14.5 -26t-26.5 -12h-190q-17 2 -29 12.5t-12 25.5l82 328l-242 856q0 15 12 26t29 13
h197q15 -1 26.5 -12.5t14.5 -26.5l92 -383l94 383q3 15 14.5 26.5t26.5 12.5h197q17 -2 29 -13t12 -26z" />
    <glyph glyph-name="thorn" unicode="&#xfe;" 
d="M360 635v-326q0 -35 23.5 -59.5t58.5 -24.5q33 0 56.5 24.5t23.5 59.5v326q0 34 -24 58t-56 24q-35 0 -58.5 -24t-23.5 -58zM328 1186v-309q46 48 93.5 62.5t108.5 14.5q111 0 191 -77t80 -187v-438q0 -109 -80.5 -187.5t-190.5 -78.5q-91 0 -170 59v-324
q0 -17 -11.5 -27.5t-29.5 -12.5h-196q-16 2 -28.5 13t-12.5 27v1465q0 17 12.5 29t28.5 14h164q17 -2 29 -14t12 -29z" />
    <glyph glyph-name="ydieresis" unicode="&#xff;" horiz-adv-x="763" 
d="M70 1184q0 60 41.5 100.5t101.5 40.5t101.5 -40.5t41.5 -100.5t-41.5 -103t-101.5 -43t-101.5 43t-41.5 103zM401 1184q0 60 42 100.5t102 40.5t101.5 -40.5t41.5 -100.5t-41.5 -103t-101.5 -43t-102 43t-42 103zM754 903l-312 -1184q-3 -15 -14.5 -26t-26.5 -12h-190
q-17 2 -29 12.5t-12 25.5l82 328l-242 856q0 15 12 26t29 13h197q15 -1 26.5 -12.5t14.5 -26.5l92 -383l94 383q3 15 14.5 26.5t26.5 12.5h197q17 -2 29 -13t12 -26z" />
    <glyph glyph-name="Amacron" unicode="&#x100;" horiz-adv-x="909" 
d="M627 1223l262 -1182q0 -15 -12 -27.5t-29 -13.5h-197q-15 1 -26.5 13.5t-14.5 27.5l-26 115h-260l-25 -115q-3 -15 -14.5 -27.5t-26.5 -13.5h-197q-17 1 -29 13.5t-12 27.5l265 1182q10 40 41 43h260q31 -3 41 -43zM379 393h149l-73 367zM688 1348h-463q-13 0 -24 10
t-13 22v170q2 14 13 24.5t24 10.5h463q13 0 24 -10.5t13 -24.5v-170q-2 -12 -13 -22t-24 -10z" />
    <glyph glyph-name="amacron" unicode="&#x101;" 
d="M512 307v328q0 34 -23.5 58t-58.5 24q-32 0 -56 -24t-24 -58v-328q0 -34 24 -58t56 -24q35 0 58.5 24t23.5 58zM791 899v-856q0 -17 -12.5 -29t-28.5 -14h-164q-17 2 -29 14t-12 29v23q-46 -48 -94.5 -63t-108.5 -15q-111 0 -190.5 77t-79.5 187v440q0 109 80 186.5
t190 77.5q60 0 108.5 -15.5t94.5 -63.5v22q0 18 11.5 29.5t29.5 13.5h164q16 -2 28.5 -13.5t12.5 -29.5zM682 1038h-463q-13 0 -24 10.5t-13 22.5v170q2 14 13 24.5t24 10.5h463q13 0 24 -10.5t13 -24.5v-170q-2 -12 -13 -22.5t-24 -10.5z" />
    <glyph glyph-name="Abreve" unicode="&#x102;" horiz-adv-x="909" 
d="M627 1223l262 -1182q0 -15 -12 -27.5t-29 -13.5h-197q-15 1 -26.5 13.5t-14.5 27.5l-26 115h-260l-25 -115q-3 -15 -14.5 -27.5t-26.5 -13.5h-197q-17 1 -29 13.5t-12 27.5l265 1182q10 40 41 43h260q31 -3 41 -43zM379 393h149l-73 367zM455 1348q-318 0 -318 288v13
q0 16 11 26.5t26 12.5h182q18 -2 28.5 -12t10.5 -27v-13q0 -51 60 -51q59 0 59 51v13q0 17 10.5 27t28.5 12h182q15 -2 26 -12.5t11 -26.5v-13q0 -288 -317 -288z" />
    <glyph glyph-name="abreve" unicode="&#x103;" 
d="M512 307v328q0 34 -23.5 58t-58.5 24q-32 0 -56 -24t-24 -58v-328q0 -34 24 -58t56 -24q35 0 58.5 24t23.5 58zM791 899v-856q0 -17 -12.5 -29t-28.5 -14h-164q-17 2 -29 14t-12 29v23q-46 -48 -94.5 -63t-108.5 -15q-111 0 -190.5 77t-79.5 187v440q0 109 80 186.5
t190 77.5q60 0 108.5 -15.5t94.5 -63.5v22q0 18 11.5 29.5t29.5 13.5h164q16 -2 28.5 -13.5t12.5 -29.5zM424 1038q-318 0 -318 289v12q0 16 11 26.5t26 12.5h183q18 -2 28.5 -12t10.5 -27v-12q0 -51 59 -51t59 51v12q0 17 10.5 27t28.5 12h183q15 -2 25.5 -12.5t10.5 -26.5
v-12q0 -289 -317 -289z" />
    <glyph glyph-name="Aogonek" unicode="&#x104;" horiz-adv-x="909" 
d="M858 -147q12 0 19.5 -8t9.5 -19v-131q-2 -10 -10 -18t-19 -9q-44 -8 -110 -8q-74 0 -127.5 22.5t-79.5 58t-37.5 70.5t-11.5 70q0 64 28 108t84 79l-20 88h-260l-25 -115q-3 -15 -14.5 -27.5t-26.5 -13.5h-197q-17 1 -29 13.5t-12 27.5l265 1182q10 40 41 43h260
q31 -3 41 -43l262 -1182q0 -15 -12 -27.5t-29 -13.5h-76q-29 -13 -44 -35t-15 -63q0 -23 17 -40.5t42 -17.5t86 9zM379 393h149l-73 367z" />
    <glyph glyph-name="aogonek" unicode="&#x105;" 
d="M512 307v328q0 34 -23.5 58t-58.5 24q-32 0 -56 -24t-24 -58v-328q0 -34 24 -58t56 -24q35 0 58.5 24t23.5 58zM426 -6q-29 -6 -84 -6q-111 0 -190.5 77t-79.5 187v440q0 109 80 186.5t190 77.5q60 0 108.5 -15.5t94.5 -63.5v22q0 18 11.5 29.5t29.5 13.5h164
q16 -2 28.5 -13.5t12.5 -29.5v-856q0 -17 -11.5 -29t-27.5 -14h-78q-28 -14 -43 -35.5t-15 -62.5q0 -23 17.5 -40.5t42.5 -17.5t86 9q12 0 19.5 -8t9.5 -19v-131q-2 -10 -10 -18t-19 -9q-44 -8 -111 -8q-74 0 -127.5 22.5t-79.5 58t-37.5 70.5t-11.5 70q0 65 31 113z" />
    <glyph glyph-name="Cacute" unicode="&#x106;" horiz-adv-x="860" 
d="M72 350v565q0 157 109 261t274 104q166 0 275.5 -104t109.5 -261q0 -17 -12.5 -29t-28.5 -14h-197q-17 2 -29 14t-12 29v13q0 58 -31 85t-75 27q-43 0 -74 -27t-31 -85v-590q0 -58 31 -85.5t74 -27.5t74.5 28.5t31.5 86.5v12q0 17 11.5 28t29.5 13h197q16 -2 28.5 -13.5
t12.5 -27.5q0 -157 -109.5 -260.5t-275.5 -103.5t-274.5 102.5t-108.5 259.5zM207 1526l297 174q12 6 26 6q19 0 31 -12l125 -144q6 -12 6 -26q0 -19 -12 -31l-326 -137q-24 -8 -32 -8q-14 0 -27 10l-94 110q-8 11 -8 27q0 20 14 31z" />
    <glyph glyph-name="cacute" unicode="&#x107;" horiz-adv-x="839" 
d="M788 326v-13q0 -142 -103.5 -233.5t-252.5 -91.5q-150 0 -255 91.5t-105 233.5v303q0 146 102.5 243t257.5 97t255.5 -96.5t100.5 -243.5v-12q0 -17 -11.5 -29t-26.5 -14h-199q-17 2 -29 14t-12 29v31q0 35 -21.5 58.5t-56.5 23.5t-58.5 -24t-23.5 -58v-328
q0 -34 23.5 -58t58.5 -24t56.5 23.5t21.5 58.5v19q0 17 12 29t29 14h199q15 -2 26.5 -14t11.5 -29zM166 1217l297 174q12 6 26 6q18 0 31 -13l125 -143q6 -12 6 -27q0 -18 -12 -30l-326 -137q-27 -9 -32 -9q-12 0 -27 11l-94 110q-8 11 -8 27q0 20 14 31z" />
    <glyph glyph-name="Ccircumflex" unicode="&#x108;" horiz-adv-x="860" 
d="M72 350v565q0 157 109 261t274 104q166 0 275.5 -104t109.5 -261q0 -17 -12.5 -29t-28.5 -14h-197q-17 2 -29 14t-12 29v13q0 58 -31 85t-75 27q-43 0 -74 -27t-31 -85v-590q0 -58 31 -85.5t74 -27.5t74.5 28.5t31.5 86.5v12q0 17 11.5 28t29.5 13h197q16 -2 28.5 -13.5
t12.5 -27.5q0 -157 -109.5 -260.5t-275.5 -103.5t-274.5 102.5t-108.5 259.5zM569 1755h-241q-27 -3 -41 -45l-113 -324q0 -15 12 -25.5t29 -12.5h152q31 3 41 38l41 115l40 -115q10 -35 41 -38h152q17 2 29 12.5t12 25.5l-113 324q-14 42 -41 45z" />
    <glyph glyph-name="ccircumflex" unicode="&#x109;" horiz-adv-x="839" 
d="M788 326v-13q0 -142 -103.5 -233.5t-252.5 -91.5q-150 0 -255 91.5t-105 233.5v303q0 146 102.5 243t257.5 97t255.5 -96.5t100.5 -243.5v-12q0 -17 -11.5 -29t-26.5 -14h-199q-17 2 -29 14t-12 29v31q0 35 -21.5 58.5t-56.5 23.5t-58.5 -24t-23.5 -58v-328
q0 -34 23.5 -58t58.5 -24t56.5 23.5t21.5 58.5v19q0 17 12 29t29 14h199q15 -2 26.5 -14t11.5 -29zM549 1446h-242q-27 -3 -41 -45l-112 -324q0 -15 12 -26t29 -13h151q30 3 41 39l41 115l41 -115q11 -36 41 -39h152q17 1 28.5 12.5t11.5 26.5l-112 324q-14 42 -41 45z" />
    <glyph glyph-name="Cdotaccent" unicode="&#x10a;" horiz-adv-x="860" 
d="M72 350v565q0 157 109 261t274 104q166 0 275.5 -104t109.5 -261q0 -17 -12.5 -29t-28.5 -14h-197q-17 2 -29 14t-12 29v13q0 58 -31 85t-75 27q-43 0 -74 -27t-31 -85v-590q0 -58 31 -85.5t74 -27.5t74.5 28.5t31.5 86.5v12q0 17 11.5 28t29.5 13h197q16 -2 28.5 -13.5
t12.5 -27.5q0 -157 -109.5 -260.5t-275.5 -103.5t-274.5 102.5t-108.5 259.5zM313 1493q0 -60 42 -102.5t102 -42.5t101.5 42.5t41.5 102.5t-41.5 100.5t-101.5 40.5t-102 -40.5t-42 -100.5z" />
    <glyph glyph-name="cdotaccent" unicode="&#x10b;" horiz-adv-x="839" 
d="M788 326v-13q0 -142 -103.5 -233.5t-252.5 -91.5q-150 0 -255 91.5t-105 233.5v303q0 146 102.5 243t257.5 97t255.5 -96.5t100.5 -243.5v-12q0 -17 -11.5 -29t-26.5 -14h-199q-17 2 -29 14t-12 29v31q0 35 -21.5 58.5t-56.5 23.5t-58.5 -24t-23.5 -58v-328
q0 -34 23.5 -58t58.5 -24t56.5 23.5t21.5 58.5v19q0 17 12 29t29 14h199q15 -2 26.5 -14t11.5 -29zM287 1184q0 -60 41.5 -103t101.5 -43t101.5 43t41.5 103t-41.5 100.5t-101.5 40.5t-101.5 -40.5t-41.5 -100.5z" />
    <glyph glyph-name="Ccaron" unicode="&#x10c;" horiz-adv-x="860" 
d="M72 350v565q0 157 109 261t274 104q166 0 275.5 -104t109.5 -261q0 -17 -12.5 -29t-28.5 -14h-197q-17 2 -29 14t-12 29v13q0 58 -31 85t-75 27q-43 0 -74 -27t-31 -85v-590q0 -58 31 -85.5t74 -27.5t74.5 28.5t31.5 86.5v12q0 17 11.5 28t29.5 13h197q16 -2 28.5 -13.5
t12.5 -27.5q0 -157 -109.5 -260.5t-275.5 -103.5t-274.5 102.5t-108.5 259.5zM319 1348h242q27 3 41 45l113 323q0 15 -12 26t-29 13h-152q-30 -3 -41 -39l-41 -114l-41 114q-11 36 -41 39h-151q-17 -2 -29 -13t-12 -26l113 -323q14 -42 40 -45z" />
    <glyph glyph-name="ccaron" unicode="&#x10d;" horiz-adv-x="839" 
d="M788 326v-13q0 -142 -103.5 -233.5t-252.5 -91.5q-150 0 -255 91.5t-105 233.5v303q0 146 102.5 243t257.5 97t255.5 -96.5t100.5 -243.5v-12q0 -17 -11.5 -29t-26.5 -14h-199q-17 2 -29 14t-12 29v31q0 35 -21.5 58.5t-56.5 23.5t-58.5 -24t-23.5 -58v-328
q0 -34 23.5 -58t58.5 -24t56.5 23.5t21.5 58.5v19q0 17 12 29t29 14h199q15 -2 26.5 -14t11.5 -29zM315 1038h242q27 3 41 45l113 324q0 15 -12 26t-29 13h-152q-30 -3 -41 -39l-41 -115l-41 115q-11 36 -41 39h-151q-17 -2 -29 -13t-12 -26l112 -324q14 -42 41 -45z" />
    <glyph glyph-name="Dcaron" unicode="&#x10e;" horiz-adv-x="907" 
d="M463 1266q165 0 274 -104t109 -261v-539q0 -157 -108.5 -259.5t-274.5 -102.5h-340q-17 2 -29 14t-12 29v1182q0 17 11.5 28t29.5 13h340zM567 350v563q0 58 -31 85.5t-73 27.5h-103v-788h103q43 0 73.5 27t30.5 85zM553 1348h-242q-27 3 -41 45l-112 323q0 15 12 26
t29 13h151q30 -3 41 -39l41 -114l41 114q11 36 41 39h152q17 -2 29 -13t12 -26l-113 -323q-14 -42 -41 -45z" />
    <glyph glyph-name="dcaron" unicode="&#x10f;" horiz-adv-x="1132" 
d="M512 307v326q0 35 -23.5 59.5t-58.5 24.5q-33 0 -56.5 -24.5t-23.5 -59.5v-326q0 -34 24 -58t56 -24q35 0 58.5 24t23.5 58zM545 43v23q-46 -48 -94.5 -63t-108.5 -15q-111 0 -190.5 77t-79.5 187v438q0 109 80 187.5t190 78.5q91 0 170 -59v328q0 17 11.5 28t29.5 13
h197q16 -2 28.5 -13.5t12.5 -27.5v-1182q0 -17 -12.5 -29t-28.5 -14h-164q-17 2 -29 14t-12 29zM913 1225l-24 -181q0 -17 12 -29t29 -14h108q25 2 39 43l56 181q0 17 -11.5 28t-27.5 13h-140q-34 -3 -41 -41z" />
    <glyph glyph-name="Dcroat" unicode="&#x110;" horiz-adv-x="927" 
d="M483 1266q165 0 274 -104t109 -261v-539q0 -157 -108.5 -259.5t-274.5 -102.5h-340q-17 2 -29 14t-12 29v455h-65q-13 0 -24 10t-13 22v170q2 14 13 24.5t24 10.5h65v490q0 17 11.5 28t29.5 13h340zM588 350v563q0 58 -31 85.5t-74 27.5h-102v-291h96q13 0 24 -10.5
t13 -24.5v-170q-2 -12 -13 -22t-24 -10h-96v-260h102q43 0 74 27t31 85z" />
    <glyph glyph-name="dcroat" unicode="&#x111;" horiz-adv-x="894" 
d="M840 1210q13 0 22.5 -9t11.5 -23v-156q-2 -12 -11.5 -21.5t-22.5 -9.5h-49v-948q0 -17 -12.5 -29t-28.5 -14h-164q-17 2 -29 14t-12 29v23q-46 -48 -94.5 -63t-108.5 -15q-111 0 -190.5 77t-79.5 187v438q0 109 80 187.5t190 78.5q91 0 170 -59v94h-55q-13 0 -23 9.5
t-12 21.5v156q2 14 12 23t23 9h55v15q0 17 11.5 28t29.5 13h197q16 -2 28.5 -13.5t12.5 -27.5v-15h49zM512 307v326q0 35 -23.5 59.5t-58.5 24.5q-33 0 -56.5 -24.5t-23.5 -59.5v-326q0 -34 24 -58t56 -24q35 0 58.5 24t23.5 58z" />
    <glyph glyph-name="Emacron" unicode="&#x112;" horiz-adv-x="768" 
d="M123 1266h547q13 0 24 -10.5t13 -24.5v-170q-2 -12 -13 -22.5t-24 -10.5h-310v-311h218q14 0 24 -11t12 -24v-170q-2 -14 -12 -24.5t-24 -10.5h-218v-237h310q13 0 24 -10.5t13 -24.5v-170q-2 -13 -13 -24t-24 -11h-547q-16 2 -28.5 14t-12.5 29v1182q0 16 12.5 27.5
t28.5 13.5zM627 1348h-463q-13 0 -24 10t-13 22v170q2 14 13 24.5t24 10.5h463q13 0 24 -10.5t13 -24.5v-170q-2 -12 -13 -22t-24 -10z" />
    <glyph glyph-name="emacron" unicode="&#x113;" horiz-adv-x="856" 
d="M350 635v-60h156v60q0 34 -22.5 58t-55.5 24q-36 0 -57 -23.5t-21 -58.5zM782 274q-13 -127 -114 -206.5t-238 -79.5q-148 0 -253 91.5t-105 233.5v303q0 147 101 243.5t257 96.5q155 0 254.5 -96.5t99.5 -243.5v-194q0 -18 -12.5 -29.5t-28.5 -13.5h-393v-72
q0 -35 22 -58.5t58 -23.5q30 0 51 15.5t21 33.5q0 12 10.5 21.5t24.5 11.5h213q13 -1 22.5 -11t9.5 -22zM655 1038h-462q-13 0 -24 10.5t-13 22.5v170q2 14 13 24.5t24 10.5h462q13 0 24 -10.5t13 -24.5v-170q-2 -12 -13 -22.5t-24 -10.5z" />
    <glyph glyph-name="Edotaccent" unicode="&#x116;" horiz-adv-x="768" 
d="M123 1266h547q13 0 24 -10.5t13 -24.5v-170q-2 -12 -13 -22.5t-24 -10.5h-310v-311h218q14 0 24 -11t12 -24v-170q-2 -14 -12 -24.5t-24 -10.5h-218v-237h310q13 0 24 -10.5t13 -24.5v-170q-2 -13 -13 -24t-24 -11h-547q-16 2 -28.5 14t-12.5 29v1182q0 16 12.5 27.5
t28.5 13.5zM252 1493q0 -60 41.5 -102.5t101.5 -42.5t102 42.5t42 102.5t-42 100.5t-102 40.5t-101.5 -40.5t-41.5 -100.5z" />
    <glyph glyph-name="edotaccent" unicode="&#x117;" horiz-adv-x="856" 
d="M350 635v-60h156v60q0 34 -22.5 58t-55.5 24q-36 0 -57 -23.5t-21 -58.5zM782 274q-13 -127 -114 -206.5t-238 -79.5q-148 0 -253 91.5t-105 233.5v303q0 147 101 243.5t257 96.5q155 0 254.5 -96.5t99.5 -243.5v-194q0 -18 -12.5 -29.5t-28.5 -13.5h-393v-72
q0 -35 22 -58.5t58 -23.5q30 0 51 15.5t21 33.5q0 12 10.5 21.5t24.5 11.5h213q13 -1 22.5 -11t9.5 -22zM289 1184q0 60 41.5 100.5t101.5 40.5t101.5 -40.5t41.5 -100.5t-41.5 -103t-101.5 -43t-101.5 43t-41.5 103z" />
    <glyph glyph-name="Eogonek" unicode="&#x118;" horiz-adv-x="768" 
d="M670 1028h-310v-311h218q14 0 24 -11t12 -24v-170q-2 -14 -12 -24.5t-24 -10.5h-218v-237h310q13 0 24 -10.5t13 -24.5v-170q-2 -13 -13 -24t-24 -11h-80q-28 -14 -43 -35.5t-15 -62.5q0 -23 17.5 -40.5t42.5 -17.5t86 9q12 0 19.5 -8t9.5 -19v-131q-2 -10 -10 -18
t-19 -9q-44 -8 -111 -8q-74 0 -127.5 22.5t-79.5 58t-37.5 70.5t-11.5 70q0 72 35 119h-223q-16 2 -28.5 14t-12.5 29v1182q0 16 12.5 27.5t28.5 13.5h547q13 0 24 -10.5t13 -24.5v-170q-2 -12 -13 -22.5t-24 -10.5z" />
    <glyph glyph-name="eogonek" unicode="&#x119;" horiz-adv-x="856" 
d="M743 379h-393v-72q0 -35 22 -58.5t58 -23.5q30 0 51 15.5t21 33.5q0 12 10.5 21.5t24.5 11.5h213q13 -1 22.5 -11t9.5 -22q-12 -137 -133 -221q-23 -20 -66 -39t-64 -42t-21 -70q0 -23 17 -40.5t42 -17.5t86 9q11 0 19 -8t10 -19v-131q-2 -10 -10 -18t-19 -9
q-44 -8 -111 -8q-74 0 -127.5 22.5t-79.5 58t-37.5 70.5t-11.5 70q0 73 41 123q-109 32 -177 114.5t-68 194.5v303q0 147 101 243.5t257 96.5q155 0 254.5 -96.5t99.5 -243.5v-194q0 -18 -12.5 -29.5t-28.5 -13.5zM350 635v-60h156v60q0 34 -22.5 58t-55.5 24
q-36 0 -57 -23.5t-21 -58.5z" />
    <glyph glyph-name="Ecaron" unicode="&#x11a;" horiz-adv-x="768" 
d="M123 1266h547q13 0 24 -10.5t13 -24.5v-170q-2 -12 -13 -22.5t-24 -10.5h-310v-311h218q14 0 24 -11t12 -24v-170q-2 -14 -12 -24.5t-24 -10.5h-218v-237h310q13 0 24 -10.5t13 -24.5v-170q-2 -13 -13 -24t-24 -11h-547q-16 2 -28.5 14t-12.5 29v1182q0 16 12.5 27.5
t28.5 13.5zM291 1348h241q27 3 41 45l113 323q0 15 -12 26t-29 13h-151q-30 -3 -41 -39l-41 -114l-41 114q-11 36 -41 39h-152q-17 -2 -29 -13t-12 -26l113 -323q14 -42 41 -45z" />
    <glyph glyph-name="ecaron" unicode="&#x11b;" horiz-adv-x="856" 
d="M350 635v-60h156v60q0 34 -22.5 58t-55.5 24q-36 0 -57 -23.5t-21 -58.5zM782 274q-13 -127 -114 -206.5t-238 -79.5q-148 0 -253 91.5t-105 233.5v303q0 147 101 243.5t257 96.5q155 0 254.5 -96.5t99.5 -243.5v-194q0 -18 -12.5 -29.5t-28.5 -13.5h-393v-72
q0 -35 22 -58.5t58 -23.5q30 0 51 15.5t21 33.5q0 12 10.5 21.5t24.5 11.5h213q13 -1 22.5 -11t9.5 -22zM557 1038h-242q-27 3 -41 45l-112 324q0 15 12 26t29 13h151q30 -3 41 -39l41 -115l41 115q11 36 41 39h152q17 -2 29 -13t12 -26l-113 -324q-14 -42 -41 -45z" />
    <glyph glyph-name="Gcircumflex" unicode="&#x11c;" horiz-adv-x="921" 
d="M563 510h-74q-14 0 -24 10.5t-12 24.5v143q2 13 12 24t24 11h320q11 0 20 -11t11 -22v-659q0 -11 -7.5 -20t-17.5 -11h-125q-9 2 -16.5 10.5t-7.5 20.5v35q-87 -80 -209 -80q-168 0 -276.5 103.5t-108.5 260.5v565q0 158 108.5 261.5t276.5 103.5q165 0 274 -104
t109 -261v-41q0 -17 -11.5 -27.5t-29.5 -12.5h-197q-16 2 -28.5 13t-12.5 27v56q0 57 -31 83.5t-73 26.5q-44 0 -75.5 -26.5t-31.5 -83.5v-592q0 -57 32 -85t75 -28q42 0 74 28t32 85v172zM338 1755h242q27 -3 41 -45l112 -324q0 -15 -12 -25.5t-29 -12.5h-151q-31 3 -41 38
l-41 115l-41 -115q-10 -35 -41 -38h-152q-17 2 -29 12.5t-12 25.5l113 324q14 42 41 45z" />
    <glyph glyph-name="gcircumflex" unicode="&#x11d;" 
d="M334 1446h241q27 -3 41 -45l113 -324q0 -15 -12 -26t-29 -13h-151q-30 3 -41 39l-41 115l-41 -115q-11 -36 -41 -39h-152q-17 2 -29 13t-12 26l113 324q14 42 41 45zM512 371v264q0 34 -23.5 58t-58.5 24q-32 0 -56 -24t-24 -58v-264q0 -34 24 -58t56 -24q35 0 58.5 24
t23.5 58zM160 -29h202q15 0 19 -12q6 -20 29.5 -34.5t52.5 -14.5q28 0 55 18t27 43v158q-46 -48 -94.5 -63t-108.5 -15q-111 0 -190.5 77t-79.5 187v377q0 109 80 186.5t190 77.5q60 0 108.5 -15.5t94.5 -63.5v22q0 18 11.5 29.5t29.5 13.5h164q16 -2 28.5 -13.5t12.5 -29.5
v-948q0 -106 -96 -183t-222 -77h-18q-80 0 -154 31.5t-121 88t-47 121.5v11q0 10 8.5 18t18.5 10z" />
    <glyph glyph-name="Gbreve" unicode="&#x11e;" horiz-adv-x="921" 
d="M563 510h-74q-14 0 -24 10.5t-12 24.5v143q2 13 12 24t24 11h320q11 0 20 -11t11 -22v-659q0 -11 -7.5 -20t-17.5 -11h-125q-9 2 -16.5 10.5t-7.5 20.5v35q-87 -80 -209 -80q-168 0 -276.5 103.5t-108.5 260.5v565q0 158 108.5 261.5t276.5 103.5q165 0 274 -104
t109 -261v-41q0 -17 -11.5 -27.5t-29.5 -12.5h-197q-16 2 -28.5 13t-12.5 27v56q0 57 -31 83.5t-73 26.5q-44 0 -75.5 -26.5t-31.5 -83.5v-592q0 -57 32 -85t75 -28q42 0 74 28t32 85v172zM455 1348q-318 0 -318 288v13q0 16 11 26.5t26 12.5h182q18 -2 28.5 -12t10.5 -27
v-13q0 -51 60 -51q59 0 59 51v13q0 17 10.5 27t28.5 12h182q15 -2 26 -12.5t11 -26.5v-13q0 -288 -317 -288z" />
    <glyph glyph-name="gbreve" unicode="&#x11f;" 
d="M451 1038q-318 0 -318 289v12q0 16 11 26.5t26 12.5h182q18 -2 28.5 -12t10.5 -27v-12q0 -51 60 -51q59 0 59 51v12q0 17 10.5 27t28.5 12h182q15 -2 26 -12.5t11 -26.5v-12q0 -289 -317 -289zM512 371v264q0 34 -23.5 58t-58.5 24q-32 0 -56 -24t-24 -58v-264
q0 -34 24 -58t56 -24q35 0 58.5 24t23.5 58zM160 -29h202q15 0 19 -12q6 -20 29.5 -34.5t52.5 -14.5q28 0 55 18t27 43v158q-46 -48 -94.5 -63t-108.5 -15q-111 0 -190.5 77t-79.5 187v377q0 109 80 186.5t190 77.5q60 0 108.5 -15.5t94.5 -63.5v22q0 18 11.5 29.5
t29.5 13.5h164q16 -2 28.5 -13.5t12.5 -29.5v-948q0 -106 -96 -183t-222 -77h-18q-80 0 -154 31.5t-121 88t-47 121.5v11q0 10 8.5 18t18.5 10z" />
    <glyph glyph-name="Gdotaccent" unicode="&#x120;" horiz-adv-x="921" 
d="M563 510h-74q-14 0 -24 10.5t-12 24.5v143q2 13 12 24t24 11h320q11 0 20 -11t11 -22v-659q0 -11 -7.5 -20t-17.5 -11h-125q-9 2 -16.5 10.5t-7.5 20.5v35q-87 -80 -209 -80q-168 0 -276.5 103.5t-108.5 260.5v565q0 158 108.5 261.5t276.5 103.5q165 0 274 -104
t109 -261v-41q0 -17 -11.5 -27.5t-29.5 -12.5h-197q-16 2 -28.5 13t-12.5 27v56q0 57 -31 83.5t-73 26.5q-44 0 -75.5 -26.5t-31.5 -83.5v-592q0 -57 32 -85t75 -28q42 0 74 28t32 85v172zM317 1493q0 60 42 100.5t102 40.5t101.5 -40.5t41.5 -100.5t-41.5 -102.5
t-101.5 -42.5t-102 42.5t-42 102.5z" />
    <glyph glyph-name="gdotaccent" unicode="&#x121;" 
d="M309 1184q0 60 42 100.5t102 40.5t101.5 -40.5t41.5 -100.5t-41.5 -103t-101.5 -43t-102 43t-42 103zM512 371v264q0 34 -23.5 58t-58.5 24q-32 0 -56 -24t-24 -58v-264q0 -34 24 -58t56 -24q35 0 58.5 24t23.5 58zM160 -29h202q15 0 19 -12q6 -20 29.5 -34.5t52.5 -14.5
q28 0 55 18t27 43v158q-46 -48 -94.5 -63t-108.5 -15q-111 0 -190.5 77t-79.5 187v377q0 109 80 186.5t190 77.5q60 0 108.5 -15.5t94.5 -63.5v22q0 18 11.5 29.5t29.5 13.5h164q16 -2 28.5 -13.5t12.5 -29.5v-948q0 -106 -96 -183t-222 -77h-18q-80 0 -154 31.5t-121 88
t-47 121.5v11q0 10 8.5 18t18.5 10z" />
    <glyph glyph-name="uni0122" unicode="&#x122;" horiz-adv-x="921" 
d="M563 510h-74q-14 0 -24 10.5t-12 24.5v143q2 13 12 24t24 11h320q11 0 20 -11t11 -22v-659q0 -11 -7.5 -20t-17.5 -11h-125q-9 2 -16.5 10.5t-7.5 20.5v35q-87 -80 -209 -80q-168 0 -276.5 103.5t-108.5 260.5v565q0 158 108.5 261.5t276.5 103.5q165 0 274 -104
t109 -261v-41q0 -17 -11.5 -27.5t-29.5 -12.5h-197q-16 2 -28.5 13t-12.5 27v56q0 57 -31 83.5t-73 26.5q-44 0 -75.5 -26.5t-31.5 -83.5v-592q0 -57 32 -85t75 -28q42 0 74 28t32 85v172zM535 -373l43 254q0 17 -12 29t-29 14h-146q-25 -2 -39 -43l-88 -254q0 -17 11.5 -28
t27.5 -13h191q34 3 41 41z" />
    <glyph glyph-name="uni0123" unicode="&#x123;" 
d="M223 1217l297 174q12 6 27 6q18 0 31 -13l124 -143q7 -14 7 -27q0 -17 -13 -30l-325 -137q-27 -9 -33 -9q-12 0 -27 11l-94 110q-8 11 -8 27q0 20 14 31zM512 371v264q0 34 -23.5 58t-58.5 24q-32 0 -56 -24t-24 -58v-264q0 -34 24 -58t56 -24q35 0 58.5 24t23.5 58z
M160 -29h202q15 0 19 -12q6 -20 29.5 -34.5t52.5 -14.5q28 0 55 18t27 43v158q-46 -48 -94.5 -63t-108.5 -15q-111 0 -190.5 77t-79.5 187v377q0 109 80 186.5t190 77.5q60 0 108.5 -15.5t94.5 -63.5v22q0 18 11.5 29.5t29.5 13.5h164q16 -2 28.5 -13.5t12.5 -29.5v-948
q0 -106 -96 -183t-222 -77h-18q-80 0 -154 31.5t-121 88t-47 121.5v11q0 10 8.5 18t18.5 10z" />
    <glyph glyph-name="Hcircumflex" unicode="&#x124;" horiz-adv-x="917" 
d="M795 1266q18 -2 29.5 -13t11.5 -28v-1182q0 -17 -12 -29t-29 -14h-195q-19 1 -30 13.5t-11 29.5v426h-199v-426q0 -17 -12.5 -29t-30.5 -14h-194q-19 1 -30 13.5t-11 29.5v1182q0 17 11 28t30 13h194q18 -2 30.5 -13t12.5 -28v-514h199v514q0 17 11 28t30 13h195z
M338 1755h242q27 -3 41 -45l112 -324q0 -15 -12 -25.5t-29 -12.5h-151q-31 3 -41 38l-41 115l-41 -115q-10 -35 -41 -38h-152q-17 2 -29 12.5t-12 25.5l113 324q14 42 41 45z" />
    <glyph glyph-name="hcircumflex" unicode="&#x125;" 
d="M82 43v1180q0 17 12.5 29t28.5 14h196q16 -2 28.5 -14t12.5 -29v-316q62 49 170 49q109 0 190 -78t81 -186v-649q0 -17 -12.5 -29t-28.5 -14h-197q-17 2 -29 14t-12 29v592q0 34 -24 58t-58 24t-57 -24t-23 -58v-592q0 -17 -12.5 -29t-28.5 -14h-196q-16 2 -28.5 14
t-12.5 29zM238 1755h241q27 -3 41 -45l113 -324q0 -15 -12 -25.5t-29 -12.5h-152q-31 3 -41 38l-41 115l-41 -115q-10 -35 -41 -38h-151q-17 2 -29 12.5t-12 25.5l113 324q14 42 41 45z" />
    <glyph glyph-name="Hbar" unicode="&#x126;" horiz-adv-x="960" 
d="M903 1090q13 0 24 -10.5t13 -24.5v-170q-2 -12 -13 -22.5t-24 -10.5h-47v-809q0 -17 -12 -29t-29 -14h-194q-19 1 -30 13.5t-11 29.5v426h-199v-426q0 -17 -12.5 -29t-30.5 -14h-195q-19 1 -30 13.5t-11 29.5v809h-45q-13 0 -24 10.5t-13 22.5v170q2 14 13 24.5t24 10.5
h45v135q0 17 11 28t30 13h195q18 -2 30.5 -13t12.5 -28v-135h199v135q0 17 11 28t30 13h194q18 -2 29.5 -13t11.5 -28v-135h47zM580 711v141h-199v-141h199z" />
    <glyph glyph-name="hbar" unicode="&#x127;" horiz-adv-x="884" 
d="M543 956q109 0 189.5 -78t80.5 -186v-649q0 -17 -12.5 -29t-28.5 -14h-197q-17 2 -28.5 14t-11.5 29v592q0 34 -24 58t-58 24t-57 -24t-23 -58v-592q0 -17 -12.5 -29t-28.5 -14h-197q-16 2 -28.5 14t-12.5 29v958h-41q-12 0 -21.5 9t-11.5 20v146q2 12 11.5 21t21.5 9h41
v17q0 17 12.5 29t28.5 14h197q16 -2 28.5 -14t12.5 -29v-17h69q12 0 21.5 -9t11.5 -21v-146q-2 -11 -11.5 -20t-21.5 -9h-69v-94q62 49 170 49z" />
    <glyph glyph-name="Itilde" unicode="&#x128;" horiz-adv-x="442" 
d="M360 1225v-1182q0 -17 -12 -29t-29 -14h-198q-16 2 -27.5 14t-11.5 29v1182q0 17 11.5 28t27.5 13h198q18 -2 29.5 -13t11.5 -28zM334 1348q76 0 184 108q12 12 12 27q0 10 -6 22l-96 117q-12 12 -27 12q-17 0 -46 -24.5t-48 -24.5q-40 0 -102 30t-96 30q-76 0 -185 -109
q-12 -12 -12 -27q0 -10 6 -22l96 -117q12 -12 27 -12q17 0 46 24.5t48 24.5q25 0 52 -14.5t63 -29.5t84 -15z" />
    <glyph glyph-name="itilde" unicode="&#x129;" horiz-adv-x="442" 
d="M82 43v856q0 18 12.5 29.5t28.5 13.5h196q18 -2 29.5 -13.5t11.5 -29.5v-856q0 -17 -12 -29t-29 -14h-196q-16 2 -28.5 14t-12.5 29zM334 1038q75 0 184 109q12 12 12 27q0 10 -6 22l-96 117q-12 12 -27 12q-17 0 -46 -24.5t-48 -24.5q-40 0 -102 29.5t-96 29.5
q-77 0 -185 -108q-12 -12 -12 -27q0 -10 6 -22l96 -117q12 -12 27 -12q17 0 46 24.5t48 24.5q25 0 52 -15t63 -30t84 -15z" />
    <glyph glyph-name="Imacron" unicode="&#x12a;" horiz-adv-x="442" 
d="M82 43v1180q0 18 12.5 29.5t28.5 13.5h196q18 -2 29.5 -13.5t11.5 -29.5v-1180q0 -17 -12 -29t-29 -14h-196q-16 2 -28.5 14t-12.5 29zM455 1348h-463q-13 0 -24 10t-13 22v170q2 14 13 24.5t24 10.5h463q13 0 24 -10.5t13 -24.5v-170q-2 -12 -13 -22t-24 -10z" />
    <glyph glyph-name="imacron" unicode="&#x12b;" horiz-adv-x="442" 
d="M82 43v856q0 18 12.5 29.5t28.5 13.5h196q18 -2 29.5 -13.5t11.5 -29.5v-856q0 -17 -12 -29t-29 -14h-196q-16 2 -28.5 14t-12.5 29zM455 1038h-463q-13 0 -24 10.5t-13 22.5v170q2 14 13 24.5t24 10.5h463q13 0 24 -10.5t13 -24.5v-170q-2 -12 -13 -22.5t-24 -10.5z" />
    <glyph glyph-name="Iogonek" unicode="&#x12e;" horiz-adv-x="442" 
d="M360 1225v-1182q0 -17 -11.5 -29t-26.5 -14h-58q-28 -14 -42.5 -35.5t-14.5 -62.5q0 -23 17 -40.5t42 -17.5t86 9q12 0 19.5 -8t9.5 -19v-131q-2 -10 -10 -18t-19 -9q-44 -8 -110 -8q-74 0 -127.5 22.5t-79.5 58t-37.5 70.5t-11.5 70q0 59 23.5 99.5t72.5 74.5v1170
q0 17 11.5 28t29.5 13h199q16 -2 27 -13t11 -28z" />
    <glyph glyph-name="iogonek" unicode="&#x12f;" horiz-adv-x="442" 
d="M82 55v844q0 18 12.5 29.5t28.5 13.5h196q18 -2 29.5 -13.5t11.5 -29.5v-856q0 -17 -11.5 -29t-26.5 -14h-58q-28 -14 -42.5 -35.5t-14.5 -62.5q0 -23 17 -40.5t42 -17.5t86 9q12 0 19.5 -8t9.5 -19v-131q-2 -10 -10 -18t-19 -9q-44 -8 -110 -8q-74 0 -127.5 22.5
t-79.5 58t-37.5 70.5t-11.5 70q0 59 23.5 99.5t72.5 74.5zM82 1081v176q0 17 11.5 28t29.5 13h199q16 -2 27 -13t11 -28v-176q0 -17 -11.5 -29t-26.5 -14h-199q-17 2 -29 14t-12 29z" />
    <glyph glyph-name="Idotaccent" unicode="&#x130;" horiz-adv-x="442" 
d="M82 43v1182q0 17 11.5 28t29.5 13h199q16 -2 27 -13t11 -28v-1182q0 -17 -11.5 -29t-26.5 -14h-199q-17 2 -29 14t-12 29zM82 1391v176q0 17 11.5 28t29.5 13h199q16 -2 27 -13t11 -28v-176q0 -17 -11.5 -29t-26.5 -14h-199q-17 2 -29 14t-12 29z" />
    <glyph glyph-name="dotlessi" unicode="&#x131;" horiz-adv-x="442" 
d="M82 43v856q0 18 12.5 29.5t28.5 13.5h196q18 -2 29.5 -13.5t11.5 -29.5v-856q0 -17 -12 -29t-29 -14h-196q-16 2 -28.5 14t-12.5 29z" />
    <glyph glyph-name="Jcircumflex" unicode="&#x134;" horiz-adv-x="808" 
d="M449 313v912q0 17 11 28t29 13h199q16 -2 27.5 -13t11.5 -28v-912q0 -142 -105 -233.5t-255 -91.5q-149 0 -253 91.5t-104 233.5v54q0 17 11.5 29t27.5 14h199q17 -2 29 -14t12 -29v-60q0 -35 21.5 -58.5t56.5 -23.5t58.5 25t23.5 63zM571 1755h-241q-27 -3 -41 -45
l-113 -324q0 -15 12 -25.5t29 -12.5h152q31 3 41 38l41 115l41 -115q11 -35 40 -38h152q17 2 29 12.5t12 25.5l-113 324q-14 42 -41 45z" />
    <glyph glyph-name="jcircumflex" unicode="&#x135;" horiz-adv-x="442" 
d="M82 23v876q0 18 12.5 29.5t28.5 13.5h196q18 -2 29.5 -13.5t11.5 -29.5v-872q0 -101 -20.5 -170t-62.5 -107t-95.5 -53.5t-128.5 -15.5h-78q-13 0 -23.5 10.5t-12.5 23.5v168q2 14 12.5 24.5t23.5 10.5q38 0 61 6.5t32.5 23.5t11.5 31t2 44zM342 1446h-242
q-27 -3 -41 -45l-112 -324q0 -15 12 -26t29 -13h151q30 3 41 39l41 115l41 -115q11 -36 41 -39h152q17 2 29 13t12 26l-113 324q-14 42 -41 45z" />
    <glyph glyph-name="uni0136" unicode="&#x136;" horiz-adv-x="903" 
d="M360 772l215 457q23 37 50 37h202q15 0 27 -12t12 -27l-239 -512l256 -674q0 -34 -41 -41h-197q-15 3 -34.5 15.5t-28.5 25.5l-133 332l-89 -174v-156q0 -15 -11.5 -27.5t-26.5 -15.5h-199q-17 3 -29 15.5t-12 27.5v1184q0 15 12 27t29 12h199q15 0 26.5 -12t11.5 -27
v-455zM532 -373l43 254q0 17 -11.5 29t-28.5 14h-146q-25 -2 -39 -43l-88 -254q0 -17 11.5 -28t27.5 -13h191q33 3 40 41z" />
    <glyph glyph-name="uni0137" unicode="&#x137;" horiz-adv-x="847" 
d="M360 674l148 231q23 37 49 37h203q15 0 27 -12t12 -27l-170 -274l219 -588q0 -34 -41 -41h-166q-15 3 -34.5 15.5t-28.5 25.5l-123 301l-95 -123v-176q0 -15 -11.5 -27.5t-26.5 -15.5h-199q-17 3 -29 15.5t-12 27.5v1184q0 15 12 27t29 12h199q15 0 26.5 -12t11.5 -27
v-553zM535 -373l43 254q0 17 -12 29t-29 14h-146q-25 -2 -39 -43l-88 -254q0 -17 11.5 -28t27.5 -13h191q34 3 41 41z" />
    <glyph glyph-name="kgreenlandic" unicode="&#x138;" horiz-adv-x="847" 
d="M360 674l148 231q23 37 49 37h203q15 0 27 -12t12 -27l-170 -274l219 -588q0 -34 -41 -41h-166q-15 3 -34.5 15.5t-28.5 25.5l-123 301l-95 -123v-176q0 -15 -11.5 -27.5t-26.5 -15.5h-199q-17 3 -29 15.5t-12 27.5v860q0 15 12 27t29 12h199q15 0 26.5 -12t11.5 -27
v-229z" />
    <glyph glyph-name="Lacute" unicode="&#x139;" horiz-adv-x="737" 
d="M360 240h310q14 0 24.5 -10.5t12.5 -24.5v-170q-2 -13 -12.5 -24t-24.5 -11h-547q-17 2 -29 14t-12 29v1182q0 17 11.5 28t29.5 13h199q16 -2 27 -13t11 -28v-985zM111 1526l297 174q12 6 26 6q19 0 31 -12l125 -144q6 -12 6 -26q0 -19 -12 -31l-326 -137q-24 -8 -33 -8
q-13 0 -26 10l-95 110q-8 11 -8 27q0 19 15 31z" />
    <glyph glyph-name="lacute" unicode="&#x13a;" horiz-adv-x="442" 
d="M360 1225v-1182q0 -17 -12 -29t-29 -14h-198q-16 2 -27.5 14t-11.5 29v1182q0 17 11.5 28t27.5 13h198q18 -2 29.5 -13t11.5 -28zM-14 1526l297 174q12 6 26 6q19 0 31 -12l125 -144q6 -12 6 -26q0 -19 -12 -31l-326 -137q-24 -8 -33 -8q-13 0 -26 10l-94 110
q-9 12 -9 27q0 19 15 31z" />
    <glyph glyph-name="uni013B" unicode="&#x13b;" horiz-adv-x="737" 
d="M360 240h310q14 0 24.5 -10.5t12.5 -24.5v-170q-2 -13 -12.5 -24t-24.5 -11h-547q-17 2 -29 14t-12 29v1182q0 17 11.5 28t29.5 13h199q16 -2 27 -13t11 -28v-985zM498 -119l-43 -254q-7 -38 -41 -41h-191q-16 2 -27.5 13t-11.5 28l88 254q14 41 39 43h146q17 -2 29 -14
t12 -29z" />
    <glyph glyph-name="uni013C" unicode="&#x13c;" horiz-adv-x="442" 
d="M82 43v1182q0 17 11.5 28t29.5 13h199q16 -2 27 -13t11 -28v-1182q0 -17 -11.5 -29t-26.5 -14h-199q-17 2 -29 14t-12 29zM326 -119l-43 -254q-7 -38 -41 -41h-191q-16 2 -27.5 13t-11.5 28l88 254q14 41 39 43h146q17 -2 29 -14t12 -29z" />
    <glyph glyph-name="Lcaron" unicode="&#x13d;" horiz-adv-x="737" 
d="M360 240h310q14 0 24.5 -10.5t12.5 -24.5v-170q-2 -13 -12.5 -24t-24.5 -11h-547q-17 2 -29 14t-12 29v1182q0 17 11.5 28t29.5 13h199q16 -2 27 -13t11 -28v-985zM459 1044l24 181q7 38 41 41h140q16 -2 27 -13t11 -28l-55 -181q-14 -41 -39 -43h-108q-17 2 -29 14
t-12 29z" />
    <glyph glyph-name="lcaron" unicode="&#x13e;" horiz-adv-x="702" 
d="M82 43v1182q0 17 11.5 28t29.5 13h199q16 -2 27 -13t11 -28v-1182q0 -17 -11.5 -29t-26.5 -14h-199q-17 2 -29 14t-12 29zM459 1044l24 181q7 38 41 41h140q16 -2 27 -13t11 -28l-55 -181q-14 -41 -39 -43h-108q-17 2 -29 14t-12 29z" />
    <glyph glyph-name="Lslash" unicode="&#x141;" horiz-adv-x="839" 
d="M184 543l-127 -23q-15 0 -25 8t-12 19v170q2 14 13 27t24 14l127 22v445q0 17 11.5 28t29.5 13h199q16 -2 27.5 -13t11.5 -28v-396l127 23q33 0 37 -29v-170q-2 -12 -13 -24t-24 -15l-127 -22v-352h309q14 0 24.5 -10.5t12.5 -24.5v-170q-2 -13 -12.5 -24t-24.5 -11h-547
q-17 2 -29 14t-12 29v500z" />
    <glyph glyph-name="lslash" unicode="&#x142;" horiz-adv-x="647" 
d="M184 780v445q0 17 11.5 28t29.5 13h199q16 -2 27.5 -13t11.5 -28v-396l127 23q33 0 37 -29v-170q-2 -12 -13 -24t-24 -15l-127 -22v-549q0 -17 -11.5 -29t-27.5 -14h-199q-17 2 -29 14t-12 29v500l-127 -23q-15 0 -25 8t-12 19v170q2 14 13 27t24 14z" />
    <glyph glyph-name="Nacute" unicode="&#x143;" horiz-adv-x="919" 
d="M580 43l-220 492v-492q0 -17 -12.5 -29t-28.5 -14h-196q-17 2 -29 14t-12 29v1182q0 17 11.5 28t29.5 13h174q27 -3 43 -43l221 -498v500q0 17 11.5 28t27.5 13h197q18 -2 29.5 -13t11.5 -28v-1184q0 -17 -11.5 -28t-29.5 -13h-174q-27 3 -43 43zM217 1526l297 174
q12 6 27 6q18 0 30 -12l125 -144q6 -12 6 -26q0 -19 -12 -31l-325 -137q-24 -8 -33 -8q-14 0 -27 10l-94 110q-8 11 -8 27q0 20 14 31z" />
    <glyph glyph-name="nacute" unicode="&#x144;" 
d="M360 635v-592q0 -17 -12.5 -29t-28.5 -14h-196q-16 2 -28.5 14t-12.5 29v858q0 16 12.5 27.5t28.5 13.5h164q16 -2 28.5 -13.5t12.5 -27.5v-24q46 49 94.5 64t107.5 15q109 0 190 -78t81 -186v-649q0 -17 -12.5 -29t-28.5 -14h-197q-17 2 -29 14t-12 29v592q0 34 -24 58
t-58 24t-57 -24t-23 -58zM223 1217l297 174q12 6 27 6q18 0 31 -13l124 -143q7 -14 7 -27q0 -17 -13 -30l-325 -137q-27 -9 -33 -9q-12 0 -27 11l-94 110q-8 11 -8 27q0 20 14 31z" />
    <glyph glyph-name="uni0145" unicode="&#x145;" horiz-adv-x="919" 
d="M580 43l-220 492v-492q0 -17 -12.5 -29t-28.5 -14h-196q-17 2 -29 14t-12 29v1182q0 17 11.5 28t29.5 13h174q27 -3 43 -43l221 -498v500q0 17 11.5 28t27.5 13h197q18 -2 29.5 -13t11.5 -28v-1184q0 -17 -11.5 -28t-29.5 -13h-174q-27 3 -43 43zM586 -119l-43 -254
q-7 -38 -41 -41h-191q-16 2 -27.5 13t-11.5 28l88 254q14 41 39 43h146q17 -2 29 -14t12 -29z" />
    <glyph glyph-name="uni0146" unicode="&#x146;" 
d="M360 635v-592q0 -17 -12.5 -29t-28.5 -14h-196q-16 2 -28.5 14t-12.5 29v858q0 16 12.5 27.5t28.5 13.5h164q16 -2 28.5 -13.5t12.5 -27.5v-24q46 49 94.5 64t107.5 15q109 0 190 -78t81 -186v-649q0 -17 -12.5 -29t-28.5 -14h-197q-17 2 -29 14t-12 29v592q0 34 -24 58
t-58 24t-57 -24t-23 -58zM508 -373l43 254q0 17 -12 29t-29 14h-145q-25 -2 -39 -43l-88 -254q0 -17 11 -28t27 -13h191q34 3 41 41z" />
    <glyph glyph-name="Ncaron" unicode="&#x147;" horiz-adv-x="919" 
d="M580 43l-220 492v-492q0 -17 -12.5 -29t-28.5 -14h-196q-17 2 -29 14t-12 29v1182q0 17 11.5 28t29.5 13h174q27 -3 43 -43l221 -498v500q0 17 11.5 28t27.5 13h197q18 -2 29.5 -13t11.5 -28v-1184q0 -17 -11.5 -28t-29.5 -13h-174q-27 3 -43 43zM332 1348h241
q27 3 41 45l113 323q0 15 -12 26t-29 13h-151q-30 -3 -41 -39l-41 -114l-41 114q-11 36 -41 39h-152q-17 -2 -29 -13t-12 -26l113 -323q14 -42 41 -45z" />
    <glyph glyph-name="ncaron" unicode="&#x148;" 
d="M360 635v-592q0 -17 -12.5 -29t-28.5 -14h-196q-16 2 -28.5 14t-12.5 29v858q0 16 12.5 27.5t28.5 13.5h164q16 -2 28.5 -13.5t12.5 -27.5v-24q46 49 94.5 64t107.5 15q109 0 190 -78t81 -186v-649q0 -17 -12.5 -29t-28.5 -14h-197q-17 2 -29 14t-12 29v592q0 34 -24 58
t-58 24t-57 -24t-23 -58zM559 1038h-242q-27 3 -41 45l-112 324q0 15 12 26t29 13h151q30 -3 41 -39l41 -115l41 115q11 36 41 39h152q17 -2 29 -13t12 -26l-113 -324q-14 -42 -41 -45z" />
    <glyph glyph-name="Eng" unicode="&#x14a;" horiz-adv-x="919" 
d="M559 88l-199 447v-492q0 -17 -12.5 -29t-28.5 -14h-196q-17 2 -29 14t-12 29v1182q0 17 11.5 28t29.5 13h174q27 -3 43 -43l221 -498v500q0 17 11.5 28t27.5 13h197q18 -2 29.5 -13t11.5 -28v-1198q0 -101 -20.5 -170t-62.5 -107t-96 -53.5t-129 -15.5h-77q-13 0 -24 11
t-13 23v168q2 14 13 24.5t24 10.5q38 0 61 6.5t32 23.5t11 31t2 44v65z" />
    <glyph glyph-name="eng" unicode="&#x14b;" 
d="M522 23v612q0 34 -24 58t-58 24t-57 -24t-23 -58v-592q0 -17 -12.5 -29t-28.5 -14h-196q-16 2 -28.5 14t-12.5 29v858q0 16 12.5 27.5t28.5 13.5h164q16 -2 28.5 -13.5t12.5 -27.5v-24q46 49 94.5 64t107.5 15q109 0 190 -78t81 -186v-665q0 -101 -20.5 -170t-62.5 -107
t-95.5 -53.5t-128.5 -15.5h-78q-13 0 -24 11t-13 23v168q2 14 13 24.5t24 10.5q38 0 61 6.5t32 23.5t11 31t2 44z" />
    <glyph glyph-name="Omacron" unicode="&#x14c;" horiz-adv-x="911" 
d="M457 225q43 0 74.5 27.5t31.5 85.5v590q0 58 -31.5 85t-74.5 27q-44 0 -75.5 -27t-31.5 -85v-590q0 -58 31.5 -85.5t75.5 -27.5zM457 -14q-167 0 -276 103.5t-109 260.5v565q0 157 109 261t276 104q165 0 274 -104t109 -261v-565q0 -157 -108.5 -260.5t-274.5 -103.5z
M688 1348h-463q-13 0 -24 10t-13 22v170q2 14 13 24.5t24 10.5h463q13 0 24 -10.5t13 -24.5v-170q-2 -12 -13 -22t-24 -10z" />
    <glyph glyph-name="omacron" unicode="&#x14d;" horiz-adv-x="856" 
d="M428 956q155 0 255.5 -96.5t100.5 -243.5v-303q0 -142 -103.5 -233.5t-252.5 -91.5t-252.5 91.5t-103.5 233.5v303q0 147 100.5 243.5t255.5 96.5zM428 225q35 0 56.5 23.5t21.5 58.5v328q0 35 -21.5 58.5t-56.5 23.5t-56.5 -23.5t-21.5 -58.5v-328q0 -35 21.5 -58.5
t56.5 -23.5zM659 1038h-462q-13 0 -24 10.5t-13 22.5v170q2 14 13 24.5t24 10.5h462q13 0 24 -10.5t13 -24.5v-170q-2 -12 -13 -22.5t-24 -10.5z" />
    <glyph glyph-name="Ohungarumlaut" unicode="&#x150;" horiz-adv-x="911" 
d="M457 225q43 0 74.5 27.5t31.5 85.5v590q0 58 -31.5 85t-74.5 27q-44 0 -75.5 -27t-31.5 -85v-590q0 -58 31.5 -85.5t75.5 -27.5zM457 -14q-167 0 -276 103.5t-109 260.5v565q0 157 109 261t276 104q165 0 274 -104t109 -261v-565q0 -157 -108.5 -260.5t-274.5 -103.5z
M184 1391l37 211q6 37 41 40h191q16 -2 27.5 -13t11.5 -27l-82 -211q-14 -41 -39 -43h-146q-17 2 -29 14t-12 29zM500 1391l37 211q6 37 41 40h190q16 -2 27.5 -13t11.5 -27l-82 -211q-14 -41 -39 -43h-145q-17 2 -29 14t-12 29z" />
    <glyph glyph-name="ohungarumlaut" unicode="&#x151;" horiz-adv-x="856" 
d="M428 956q155 0 255.5 -96.5t100.5 -243.5v-303q0 -142 -103.5 -233.5t-252.5 -91.5t-252.5 91.5t-103.5 233.5v303q0 147 100.5 243.5t255.5 96.5zM428 225q35 0 56.5 23.5t21.5 58.5v328q0 35 -21.5 58.5t-56.5 23.5t-56.5 -23.5t-21.5 -58.5v-328q0 -35 21.5 -58.5
t56.5 -23.5zM158 1081l37 211q7 38 41 41h190q16 -2 27.5 -13t11.5 -28l-82 -211q-14 -41 -39 -43h-145q-17 2 -29 14t-12 29zM473 1081l37 211q7 38 41 41h190q16 -2 27.5 -13t11.5 -28l-82 -211q-14 -41 -39 -43h-145q-17 2 -29 14t-12 29z" />
    <glyph glyph-name="OE" unicode="&#x152;" horiz-adv-x="1247" 
d="M1149 1028h-309v-311h217q14 0 24.5 -11t12.5 -24v-170q-2 -14 -12 -24.5t-25 -10.5h-217v-237h309q13 0 24 -10.5t13 -24.5v-170q-2 -13 -13 -24t-24 -11h-694q-166 0 -274.5 102.5t-108.5 259.5v539q0 157 109 261t274 104h694q13 0 24 -10.5t13 -24.5v-170
q-2 -12 -13 -22.5t-24 -10.5zM561 238v788h-106q-43 0 -74 -27.5t-31 -85.5v-563q0 -58 31 -85t74 -27h106z" />
    <glyph glyph-name="oe" unicode="&#x153;" horiz-adv-x="1290" 
d="M1217 274q-13 -127 -114 -206.5t-239 -79.5q-127 0 -219 65q-94 -65 -217 -65q-149 0 -252.5 91.5t-103.5 233.5v303q0 147 100.5 243.5t255.5 96.5q123 0 217 -65q94 65 219 65q155 0 255 -96.5t100 -243.5v-194q0 -18 -12.5 -29.5t-28.5 -13.5h-394v-72q0 -35 22 -58.5
t58 -23.5q30 0 51 15.5t21 33.5q0 12 10.5 21.5t24.5 11.5h213q14 -1 23.5 -11t9.5 -22zM428 225q35 0 56.5 23.5t21.5 58.5v328q0 35 -21.5 58.5t-56.5 23.5t-56.5 -23.5t-21.5 -58.5v-328q0 -35 21.5 -58.5t56.5 -23.5zM784 635v-60h156v60q0 34 -22.5 58t-55.5 24
q-36 0 -57 -23.5t-21 -58.5z" />
    <glyph glyph-name="Racute" unicode="&#x154;" horiz-adv-x="876" 
d="M836 741q0 -90 -36.5 -162.5t-99.5 -119.5l136 -416q0 -17 -12 -29t-29 -14h-197q-27 3 -39 43l-104 334h-95v-334q0 -17 -12.5 -29t-28.5 -14h-196q-17 2 -29 14t-12 29v1182q0 17 11.5 28t29.5 13h332q99 0 185 -42.5t141 -127.5t55 -195v-160zM360 1028v-412h95
q39 0 71.5 36t32.5 98v145q0 61 -32.5 97t-71.5 36h-95zM217 1526l297 174q12 6 27 6q18 0 30 -12l125 -144q6 -12 6 -26q0 -19 -12 -31l-325 -137q-24 -8 -33 -8q-14 0 -27 10l-94 110q-8 11 -8 27q0 20 14 31z" />
    <glyph glyph-name="racute" unicode="&#x155;" horiz-adv-x="616" 
d="M563 688h-8q-29 0 -60 -10.5t-62.5 -32.5t-52 -65t-20.5 -99v-438q0 -17 -12 -29t-29 -14h-196q-16 2 -28.5 14t-12.5 29v856q0 18 12.5 29.5t28.5 13.5h164q18 -2 29.5 -13.5t11.5 -29.5v-55q39 52 101 82t134 30q17 0 29 -12.5t14 -28.5v-188q-2 -16 -14 -27.5
t-29 -11.5zM100 1217l297 174q12 6 27 6q18 0 31 -13l125 -143q6 -12 6 -27q0 -17 -13 -30l-325 -137q-27 -9 -33 -9q-12 0 -27 11l-94 110q-8 11 -8 27q0 20 14 31z" />
    <glyph glyph-name="uni0156" unicode="&#x156;" horiz-adv-x="876" 
d="M836 741q0 -90 -36.5 -162.5t-99.5 -119.5l136 -416q0 -17 -12 -29t-29 -14h-197q-27 3 -39 43l-104 334h-95v-334q0 -17 -12.5 -29t-28.5 -14h-196q-17 2 -29 14t-12 29v1182q0 17 11.5 28t29.5 13h332q99 0 185 -42.5t141 -127.5t55 -195v-160zM360 1028v-412h95
q39 0 71.5 36t32.5 98v145q0 61 -32.5 97t-71.5 36h-95zM535 -373l43 254q0 17 -12 29t-29 14h-146q-25 -2 -39 -43l-88 -254q0 -17 11.5 -28t27.5 -13h191q34 3 41 41z" />
    <glyph glyph-name="uni0157" unicode="&#x157;" horiz-adv-x="616" 
d="M563 688h-8q-29 0 -60 -10.5t-62.5 -32.5t-52 -65t-20.5 -99v-438q0 -17 -12 -29t-29 -14h-196q-16 2 -28.5 14t-12.5 29v856q0 18 12.5 29.5t28.5 13.5h164q18 -2 29.5 -13.5t11.5 -29.5v-55q39 52 101 82t134 30q17 0 29 -12.5t14 -28.5v-188q-2 -16 -14 -27.5
t-29 -11.5zM362 -373l44 254q0 17 -12 29t-29 14h-146q-25 -2 -39 -43l-88 -254q0 -17 11.5 -28t27.5 -13h191q33 3 40 41z" />
    <glyph glyph-name="Rcaron" unicode="&#x158;" horiz-adv-x="876" 
d="M836 741q0 -90 -36.5 -162.5t-99.5 -119.5l136 -416q0 -17 -12 -29t-29 -14h-197q-16 2 -27.5 14t-11.5 29l-104 334h-95v-334q0 -17 -12.5 -29t-28.5 -14h-196q-17 2 -29 14t-12 29v1182q0 17 11.5 28t29.5 13h332q99 0 185 -42.5t141 -127.5t55 -195v-160zM360 1028
v-412h95q39 0 71.5 36t32.5 98v145q0 61 -32.5 97t-71.5 36h-95zM545 1348h-242q-27 3 -41 45l-112 323q0 15 11.5 26.5t28.5 12.5h152q30 -3 41 -39l41 -114l41 114q11 36 41 39h151q17 -2 29 -13t12 -26l-112 -323q-14 -42 -41 -45z" />
    <glyph glyph-name="rcaron" unicode="&#x159;" horiz-adv-x="616" 
d="M563 688h-8q-29 0 -60 -10.5t-62.5 -32.5t-52 -65t-20.5 -99v-438q0 -17 -12 -29t-29 -14h-196q-16 2 -28.5 14t-12.5 29v856q0 18 12.5 29.5t28.5 13.5h164q18 -2 29.5 -13.5t11.5 -29.5v-55q39 52 101 82t134 30q17 0 29 -12.5t14 -28.5v-188q-2 -16 -14 -27.5
t-29 -11.5zM453 1038h-226q-24 3 -37 41l-104 301q0 14 11 24t28 11h139q13 -1 23.5 -11t13.5 -24l39 -106l39 106q3 14 13.5 24t23.5 11h139q17 -1 28 -11t11 -24l-105 -301q-13 -38 -36 -41z" />
    <glyph glyph-name="Sacute" unicode="&#x15a;" horiz-adv-x="858" 
d="M51 371q0 17 11.5 29t27.5 14h199q17 -2 29 -14t12 -29q0 -23 1 -37.5t7.5 -37.5t18 -36.5t35.5 -24t57 -10.5q35 0 60.5 11.5t37.5 25.5t18.5 34.5t7 29t0.5 18.5q0 39 -28.5 71.5t-74.5 57.5t-101.5 51t-111 60.5t-101.5 77.5t-74.5 109t-28.5 149q0 53 8 99t32.5 96
t63.5 85t107.5 57.5t159.5 22.5q66 0 120.5 -15t91 -39t65 -58t45 -67.5t27 -72t14 -67t4.5 -56.5q0 -17 -11.5 -29t-27.5 -14h-199q-17 2 -29 14t-12 29q-3 26 -7 44.5t-13 42t-27.5 36t-44.5 12.5q-88 0 -88 -106q0 -47 27.5 -84t71 -62.5t96 -50.5t105.5 -56.5t96.5 -72
t71 -105.5t27.5 -149q0 -98 -32.5 -171.5t-89 -115t-123.5 -61.5t-144 -20q-58 0 -112 12.5t-104.5 41.5t-88 72t-60 109.5t-22.5 149.5zM201 1526l297 174q12 6 26 6q19 0 31 -12l125 -144q6 -12 6 -26q0 -19 -12 -31l-326 -137q-24 -8 -33 -8q-13 0 -26 10l-94 110
q-9 12 -9 27q0 19 15 31z" />
    <glyph glyph-name="sacute" unicode="&#x15b;" horiz-adv-x="739" 
d="M283 270q0 -22 21.5 -37.5t53.5 -15.5q37 0 55.5 9t18.5 34q0 18 -17 35.5t-35 27.5t-56 29q-29 13 -46.5 21t-49.5 26.5t-53 34.5t-47.5 42t-41.5 52.5t-26 62.5t-11 75q0 76 31 134.5t81.5 91t106.5 48.5t115 16q54 0 105 -16t98 -48.5t78.5 -92t37.5 -137.5
q0 -17 -10.5 -29.5t-25.5 -14.5h-168q-18 2 -29.5 13t-11.5 28q0 22 -21.5 42t-50.5 20q-2 0 -6 -0.5t-14 -3t-17.5 -7.5t-13.5 -16t-6 -26q0 -24 36 -51.5t96 -60t72 -40.5q93 -50 136 -107t43 -147q0 -33 -9.5 -68t-34 -73t-61 -67.5t-96.5 -48.5t-135 -19t-134.5 21
t-94.5 52t-60 72.5t-35 74.5t-14 66q0 17 11.5 28t29.5 13h168q15 -2 26 -14t11 -29zM150 1217l296 174q12 6 27 6q18 0 31 -13l125 -143q6 -12 6 -27q0 -18 -12 -30l-326 -137q-27 -9 -33 -9q-11 0 -26 11l-95 110q-8 11 -8 27q0 19 15 31z" />
    <glyph glyph-name="Scircumflex" unicode="&#x15c;" horiz-adv-x="858" 
d="M51 371q0 17 11.5 29t27.5 14h199q17 -2 29 -14t12 -29q0 -23 1 -37.5t7.5 -37.5t18 -36.5t35.5 -24t57 -10.5q35 0 60.5 11.5t37.5 25.5t18.5 34.5t7 29t0.5 18.5q0 39 -28.5 71.5t-74.5 57.5t-101.5 51t-111 60.5t-101.5 77.5t-74.5 109t-28.5 149q0 53 8 99t32.5 96
t63.5 85t107.5 57.5t159.5 22.5q66 0 120.5 -15t91 -39t65 -58t45 -67.5t27 -72t14 -67t4.5 -56.5q0 -17 -11.5 -29t-27.5 -14h-199q-17 2 -29 14t-12 29q-3 26 -7 44.5t-13 42t-27.5 36t-44.5 12.5q-88 0 -88 -106q0 -47 27.5 -84t71 -62.5t96 -50.5t105.5 -56.5t96.5 -72
t71 -105.5t27.5 -149q0 -98 -32.5 -171.5t-89 -115t-123.5 -61.5t-144 -20q-58 0 -112 12.5t-104.5 41.5t-88 72t-60 109.5t-22.5 149.5zM539 1755h-242q-27 -3 -41 -45l-113 -324q0 -15 12 -25.5t29 -12.5h152q31 3 41 38l41 115l41 -115q10 -35 41 -38h151q17 2 29 12.5
t12 25.5l-112 324q-14 42 -41 45z" />
    <glyph glyph-name="scircumflex" unicode="&#x15d;" horiz-adv-x="739" 
d="M283 270q0 -22 21.5 -37.5t53.5 -15.5q37 0 55.5 9t18.5 34q0 18 -17 35.5t-35 27.5t-56 29q-29 13 -46.5 21t-49.5 26.5t-53 34.5t-47.5 42t-41.5 52.5t-26 62.5t-11 75q0 76 31 134.5t81.5 91t106.5 48.5t115 16q54 0 105 -16t98 -48.5t78.5 -92t37.5 -137.5
q0 -17 -10.5 -29.5t-25.5 -14.5h-168q-18 2 -29.5 13t-11.5 28q0 22 -21.5 42t-50.5 20q-2 0 -6 -0.5t-14 -3t-17.5 -7.5t-13.5 -16t-6 -26q0 -24 36 -51.5t96 -60t72 -40.5q93 -50 136 -107t43 -147q0 -33 -9.5 -68t-34 -73t-61 -67.5t-96.5 -48.5t-135 -19t-134.5 21
t-94.5 52t-60 72.5t-35 74.5t-14 66q0 17 11.5 28t29.5 13h168q15 -2 26 -14t11 -29zM270 1446h242q27 -3 41 -45l113 -324q0 -15 -12 -26t-29 -13h-152q-30 3 -41 39l-41 115l-41 -115q-11 -36 -41 -39h-151q-17 2 -29 13t-12 26l112 324q14 42 41 45z" />
    <glyph glyph-name="Scedilla" unicode="&#x15e;" horiz-adv-x="858" 
d="M602 10l-45 -250q-7 -38 -41 -41h-190q-16 2 -27.5 13t-11.5 28l71 232q-63 10 -116 36t-97 70t-69 114t-25 159q0 17 11.5 29t27.5 14h199q17 -2 29 -14t12 -29q0 -23 1 -37.5t7.5 -37.5t18 -36.5t35.5 -24t57 -10.5q35 0 60.5 11.5t37.5 25.5t18.5 34.5t7 29t0.5 18.5
q0 39 -28.5 71.5t-74.5 57.5t-101.5 51t-111 60.5t-101.5 77.5t-74.5 109t-28.5 149q0 53 8 99t32.5 96t63.5 85t107.5 57.5t159.5 22.5q66 0 120.5 -15t91 -39t65 -58t45 -67.5t27 -72t14 -67t4.5 -56.5q0 -17 -11.5 -29t-27.5 -14h-199q-17 2 -29 14t-12 29q-3 26 -7 44.5
t-13 42t-27.5 36t-44.5 12.5q-88 0 -88 -106q0 -47 27.5 -84t71 -62.5t96 -50.5t105.5 -56.5t96.5 -72t71 -105.5t27.5 -149q0 -138 -61 -223t-164 -121z" />
    <glyph glyph-name="scedilla" unicode="&#x15f;" horiz-adv-x="739" 
d="M711 262q0 -34 -10.5 -70t-33.5 -74t-67 -69t-102 -47l-43 -242q-7 -38 -41 -41h-191q-16 2 -27.5 13t-11.5 28l76 242q-59 16 -103.5 49t-68 74.5t-35.5 76.5t-16 70q0 17 11.5 28t29.5 13h168q15 -2 26 -14t11 -29q0 -22 21.5 -37.5t53.5 -15.5q37 0 55.5 9t18.5 34
q0 18 -17 35.5t-35 27.5t-56 29q-29 13 -46.5 21t-49.5 26.5t-53 34.5t-47.5 42t-41.5 52.5t-26 62.5t-11 75q0 76 31 134.5t81.5 91t106.5 48.5t115 16q54 0 105 -16t98 -48.5t78.5 -92t37.5 -137.5q0 -17 -10.5 -29.5t-25.5 -14.5h-168q-18 2 -29.5 13t-11.5 28
q0 22 -21.5 42t-50.5 20q-2 0 -6 -0.5t-14 -3t-17.5 -7.5t-13.5 -16t-6 -26q0 -24 36 -51.5t96 -60t72 -40.5q93 -50 136 -107t43 -147z" />
    <glyph glyph-name="Scaron" unicode="&#x160;" horiz-adv-x="858" 
d="M51 371q0 17 11.5 29t27.5 14h199q17 -2 29 -14t12 -29q0 -23 1 -37.5t7.5 -37.5t18 -36.5t35.5 -24t57 -10.5q35 0 60.5 11.5t37.5 25.5t18.5 34.5t7 29t0.5 18.5q0 39 -28.5 71.5t-74.5 57.5t-101.5 51t-111 60.5t-101.5 77.5t-74.5 109t-28.5 149q0 53 8 99t32.5 96
t63.5 85t107.5 57.5t159.5 22.5q66 0 120.5 -15t91 -39t65 -58t45 -67.5t27 -72t14 -67t4.5 -56.5q0 -17 -11.5 -29t-27.5 -14h-199q-17 2 -29 14t-12 29q-3 26 -7 44.5t-13 42t-27.5 36t-44.5 12.5q-88 0 -88 -106q0 -47 27.5 -84t71 -62.5t96 -50.5t105.5 -56.5t96.5 -72
t71 -105.5t27.5 -149q0 -98 -32.5 -171.5t-89 -115t-123.5 -61.5t-144 -20q-58 0 -112 12.5t-104.5 41.5t-88 72t-60 109.5t-22.5 149.5zM311 1348h242q27 3 41 45l113 323q0 15 -12 26t-29 13h-152q-30 -3 -41 -39l-41 -114l-41 114q-11 36 -41 39h-151q-17 -2 -29 -13
t-12 -26l112 -323q14 -42 41 -45z" />
    <glyph glyph-name="scaron" unicode="&#x161;" horiz-adv-x="739" 
d="M283 270q0 -22 21.5 -37.5t53.5 -15.5q37 0 55.5 9t18.5 34q0 18 -17 35.5t-35 27.5t-56 29q-29 13 -46.5 21t-49.5 26.5t-53 34.5t-47.5 42t-41.5 52.5t-26 62.5t-11 75q0 76 31 134.5t81.5 91t106.5 48.5t115 16q54 0 105 -16t98 -48.5t78.5 -92t37.5 -137.5
q0 -17 -10.5 -29.5t-25.5 -14.5h-168q-18 2 -29.5 13t-11.5 28q0 22 -21.5 42t-50.5 20q-2 0 -6 -0.5t-14 -3t-17.5 -7.5t-13.5 -16t-6 -26q0 -24 36 -51.5t96 -60t72 -40.5q93 -50 136 -107t43 -147q0 -33 -9.5 -68t-34 -73t-61 -67.5t-96.5 -48.5t-135 -19t-134.5 21
t-94.5 52t-60 72.5t-35 74.5t-14 66q0 17 11.5 28t29.5 13h168q15 -2 26 -14t11 -29zM496 1038h-242q-27 3 -41 45l-113 324q0 15 12 26t29 13h152q30 -3 41 -39l41 -115l41 115q11 36 41 39h151q17 -2 29 -13t12 -26l-112 -324q-14 -42 -41 -45z" />
    <glyph glyph-name="uni0162" unicode="&#x162;" horiz-adv-x="729" 
d="M496 -147q24 0 28 -27v-131q-4 -24 -28 -27q-44 -8 -111 -8q-74 0 -127.5 22.5t-79.5 58t-37.5 70.5t-11.5 70q0 59 23.5 99.5t72.5 74.5v973h-168q-13 0 -24 10.5t-13 22.5v170q2 14 13 24.5t24 10.5h615q13 0 24 -10.5t13 -24.5v-170q-2 -12 -13 -22.5t-24 -10.5h-168
v-985q0 -17 -11.5 -29t-27.5 -14h-57q-28 -14 -43 -35.5t-15 -62.5q0 -23 17.5 -40.5t42.5 -17.5t86 9z" />
    <glyph glyph-name="uni0163" unicode="&#x163;" horiz-adv-x="602" 
d="M479 0l-43 -240q-7 -38 -41 -41h-190q-16 2 -27.5 13t-11.5 28l88 283q-115 73 -115 303v373h-92q-15 0 -25 10.5t-12 24.5v153q2 13 12.5 24t24.5 11h92v219q0 18 12.5 29.5t28.5 13.5h197q18 -2 29.5 -13.5t11.5 -29.5v-219h106q14 0 24.5 -11t12.5 -24v-153
q-2 -14 -12.5 -24.5t-24.5 -10.5h-106v-377q0 -30 2 -44t11 -30.5t32 -23t61 -6.5q13 0 24 -10.5t13 -24.5v-168q-2 -13 -13 -24t-24 -11h-45z" />
    <glyph glyph-name="Tcaron" unicode="&#x164;" horiz-adv-x="729" 
d="M225 1028h-168q-13 0 -24 10.5t-13 22.5v170q2 14 13 24.5t24 10.5h615q13 0 24 -10.5t13 -24.5v-170q-2 -12 -13 -22.5t-24 -10.5h-168v-985q0 -17 -11.5 -29t-27.5 -14h-199q-17 2 -29 14t-12 29v985zM246 1348h241q27 3 41 45l113 323q0 15 -12 26t-29 13h-151
q-30 -3 -41 -39l-41 -114l-41 114q-11 36 -41 39h-152q-17 -2 -29 -13t-12 -26l113 -323q14 -42 41 -45z" />
    <glyph glyph-name="tcaron" unicode="&#x165;" horiz-adv-x="702" 
d="M139 719h-92q-15 0 -25 10.5t-12 24.5v153q2 13 12.5 24t24.5 11h92v219q0 18 12.5 29.5t28.5 13.5h197q18 -2 29.5 -13.5t11.5 -29.5v-219h106q14 0 24.5 -11t12.5 -24v-153q-2 -14 -12.5 -24.5t-24.5 -10.5h-106v-377q0 -30 2 -44t11 -30.5t32 -23t61 -6.5
q13 0 24 -10.5t13 -24.5v-168q-2 -13 -13 -24t-24 -11h-78q-75 0 -128.5 15.5t-95.5 53.5t-62.5 107t-20.5 170v373zM485 1063l-2 100q7 38 41 41h140q16 -2 27 -13t11 -28l-28 -100q-14 -41 -39 -43h-109q-17 2 -29 14t-12 29z" />
    <glyph glyph-name="Tbar" unicode="&#x166;" horiz-adv-x="729" 
d="M225 598h-127q-13 0 -24 10.5t-13 22.5v170q2 14 13 24.5t24 10.5h127v192h-168q-13 0 -24 10.5t-13 22.5v170q2 14 13 24.5t24 10.5h615q13 0 24 -10.5t13 -24.5v-170q-2 -12 -13 -22.5t-24 -10.5h-168v-192h127q13 0 24 -10.5t13 -24.5v-170q-2 -12 -13 -22.5
t-24 -10.5h-127v-555q0 -17 -11.5 -29t-27.5 -14h-199q-17 2 -29 14t-12 29v555z" />
    <glyph glyph-name="tbar" unicode="&#x167;" horiz-adv-x="602" 
d="M418 723h106q14 0 24.5 -11t12.5 -24v-153q-2 -14 -12.5 -24.5t-24.5 -10.5h-106v-158q0 -30 2 -44t11 -30.5t32 -23t61 -6.5q13 0 24 -10.5t13 -24.5v-168q-2 -13 -13 -24t-24 -11h-78q-75 0 -128.5 15.5t-95.5 53.5t-62.5 107t-20.5 170v154h-92q-15 0 -25 10.5
t-12 24.5v153q2 13 12.5 24t24.5 11h92v92h-92q-15 0 -25 10.5t-12 24.5v154q2 13 12.5 23.5t24.5 10.5h92v123q0 18 12.5 29.5t28.5 13.5h197q18 -2 29.5 -13.5t11.5 -29.5v-123h106q14 0 24.5 -10.5t12.5 -23.5v-154q-2 -14 -12.5 -24.5t-24.5 -10.5h-106v-92z" />
    <glyph glyph-name="Utilde" unicode="&#x168;" horiz-adv-x="933" 
d="M467 -14q-167 0 -276 103.5t-109 260.5v875q0 17 11.5 28t29.5 13h199q16 -2 27 -13t11 -28v-887q0 -58 31.5 -85.5t75.5 -27.5t75 27.5t31 85.5v887q0 17 11.5 28t27.5 13h199q18 -2 29.5 -13t11.5 -28v-875q0 -157 -109 -260.5t-276 -103.5zM580 1348q-48 0 -84 15
t-63 29.5t-52 14.5q-19 0 -48 -24.5t-46 -24.5q-15 0 -27 12l-96 117q-6 12 -6 22q0 15 12 27q109 109 184 109q34 0 96.5 -30t102.5 -30q19 0 48 24.5t46 24.5q15 0 27 -12l96 -117q6 -12 6 -22q0 -15 -12 -27q-108 -108 -184 -108z" />
    <glyph glyph-name="utilde" unicode="&#x169;" 
d="M512 307v592q0 17 12.5 29t28.5 14h197q16 -2 28.5 -14t12.5 -29v-858q0 -16 -12.5 -27.5t-28.5 -13.5h-164q-16 2 -28.5 13.5t-12.5 27.5v25q-46 -49 -95 -64.5t-108 -15.5q-109 0 -189.5 78t-80.5 186v649q0 17 12.5 29t28.5 14h196q17 -2 29 -14t12 -29v-592
q0 -34 24 -58t58 -24t57 24t23 58zM535 1038q-48 0 -84 15t-63 30t-52 15q-19 0 -48 -24.5t-46 -24.5q-15 0 -27 12l-96 117q-6 12 -6 22q0 15 12 27q108 108 184 108q34 0 96.5 -29.5t102.5 -29.5q19 0 48 24.5t46 24.5q15 0 27 -12l96 -117q6 -12 6 -22q0 -15 -12 -27
q-109 -109 -184 -109z" />
    <glyph glyph-name="Umacron" unicode="&#x16a;" horiz-adv-x="933" 
d="M467 -14q-167 0 -276 103.5t-109 260.5v875q0 17 11.5 28t29.5 13h199q16 -2 27 -13t11 -28v-887q0 -58 31.5 -85.5t75.5 -27.5t75 27.5t31 85.5v887q0 17 11.5 28t27.5 13h199q18 -2 29.5 -13t11.5 -28v-875q0 -157 -109 -260.5t-276 -103.5zM700 1348h-462
q-13 0 -24 10t-13 22v170q2 14 13 24.5t24 10.5h462q13 0 24 -10.5t13 -24.5v-170q-2 -12 -13 -22t-24 -10z" />
    <glyph glyph-name="umacron" unicode="&#x16b;" 
d="M512 307v592q0 17 12.5 29t28.5 14h197q16 -2 28.5 -14t12.5 -29v-858q0 -16 -12.5 -27.5t-28.5 -13.5h-164q-16 2 -28.5 13.5t-12.5 27.5v25q-46 -49 -95 -64.5t-108 -15.5q-109 0 -189.5 78t-80.5 186v649q0 17 12.5 29t28.5 14h196q17 -2 29 -14t12 -29v-592
q0 -34 24 -58t58 -24t57 24t23 58zM664 1038h-463q-13 0 -24 10.5t-13 22.5v170q2 14 13 24.5t24 10.5h463q13 0 23.5 -10.5t12.5 -24.5v-170q-2 -12 -12.5 -22.5t-23.5 -10.5z" />
    <glyph glyph-name="Ubreve" unicode="&#x16c;" horiz-adv-x="933" 
d="M467 -14q-167 0 -276 103.5t-109 260.5v875q0 17 11.5 28t29.5 13h199q16 -2 27 -13t11 -28v-887q0 -58 31.5 -85.5t75.5 -27.5t75 27.5t31 85.5v887q0 17 11.5 28t27.5 13h199q18 -2 29.5 -13t11.5 -28v-875q0 -157 -109 -260.5t-276 -103.5zM467 1348q-317 0 -317 288
v13q0 16 10.5 26.5t25.5 12.5h183q18 -2 28.5 -12t10.5 -27v-13q0 -51 59 -51t59 51v13q0 17 10.5 27t28.5 12h183q15 -2 25.5 -12.5t10.5 -26.5v-13q0 -288 -317 -288z" />
    <glyph glyph-name="ubreve" unicode="&#x16d;" 
d="M512 307v592q0 17 12.5 29t28.5 14h197q16 -2 28.5 -14t12.5 -29v-858q0 -16 -12.5 -27.5t-28.5 -13.5h-164q-16 2 -28.5 13.5t-12.5 27.5v25q-46 -49 -95 -64.5t-108 -15.5q-109 0 -189.5 78t-80.5 186v649q0 17 12.5 29t28.5 14h196q17 -2 29 -14t12 -29v-592
q0 -34 24 -58t58 -24t57 24t23 58zM436 1038q-317 0 -317 289v12q0 16 11 26.5t26 12.5h182q18 -2 28.5 -12t10.5 -27v-12q0 -51 59 -51q60 0 60 51v12q0 17 10.5 27t28.5 12h182q15 -2 26 -12.5t11 -26.5v-12q0 -289 -318 -289z" />
    <glyph glyph-name="Uring" unicode="&#x16e;" horiz-adv-x="933" 
d="M467 -14q-167 0 -276 103.5t-109 260.5v875q0 17 11.5 28t29.5 13h199q16 -2 27 -13t11 -28v-887q0 -58 31.5 -85.5t75.5 -27.5t75 27.5t31 85.5v887q0 17 11.5 28t27.5 13h199q18 -2 29.5 -13t11.5 -28v-875q0 -157 -109 -260.5t-276 -103.5zM465 1348q-112 0 -175 67
t-63 197q0 131 63.5 198.5t174.5 67.5t174 -67.5t63 -198.5t-62.5 -197.5t-174.5 -66.5zM465 1524q22 0 36.5 22.5t14.5 63.5q0 43 -14.5 63.5t-36.5 20.5q-21 0 -35 -20.5t-14 -63.5q0 -41 14.5 -63.5t34.5 -22.5z" />
    <glyph glyph-name="uring" unicode="&#x16f;" 
d="M512 307v592q0 17 12.5 29t28.5 14h197q16 -2 28.5 -14t12.5 -29v-858q0 -16 -12.5 -27.5t-28.5 -13.5h-164q-16 2 -28.5 13.5t-12.5 27.5v25q-46 -49 -95 -64.5t-108 -15.5q-109 0 -189.5 78t-80.5 186v649q0 17 12.5 29t28.5 14h196q17 -2 29 -14t12 -29v-592
q0 -34 24 -58t58 -24t57 24t23 58zM430 1038q-111 0 -174 67t-63 198t63 198.5t174 67.5t174.5 -67.5t63.5 -198.5t-63 -198t-175 -67zM430 1214q22 0 36.5 22.5t14.5 63.5q0 43 -14.5 63.5t-36.5 20.5q-21 0 -35 -20.5t-14 -63.5q0 -41 14.5 -63.5t34.5 -22.5z" />
    <glyph glyph-name="Uhungarumlaut" unicode="&#x170;" horiz-adv-x="933" 
d="M467 -14q-167 0 -276 103.5t-109 260.5v875q0 17 11.5 28t29.5 13h199q16 -2 27 -13t11 -28v-887q0 -58 31.5 -85.5t75.5 -27.5t75 27.5t31 85.5v887q0 17 11.5 28t27.5 13h199q18 -2 29.5 -13t11.5 -28v-875q0 -157 -109 -260.5t-276 -103.5zM190 1391l37 211
q6 37 41 40h191q16 -2 27.5 -13t11.5 -27l-82 -211q-14 -41 -39 -43h-146q-17 2 -29 14t-12 29zM506 1391l37 211q6 37 41 40h190q16 -2 27.5 -13t11.5 -27l-82 -211q-14 -41 -39 -43h-145q-17 2 -29 14t-12 29z" />
    <glyph glyph-name="uhungarumlaut" unicode="&#x171;" 
d="M512 307v592q0 17 12.5 29t28.5 14h197q16 -2 28.5 -14t12.5 -29v-858q0 -16 -12.5 -27.5t-28.5 -13.5h-164q-16 2 -28.5 13.5t-12.5 27.5v25q-46 -49 -95 -64.5t-108 -15.5q-109 0 -189.5 78t-80.5 186v649q0 17 12.5 29t28.5 14h196q17 -2 29 -14t12 -29v-592
q0 -34 24 -58t58 -24t57 24t23 58zM164 1081l37 211q7 38 41 41h190q16 -2 27.5 -13t11.5 -28l-82 -211q-14 -41 -39 -43h-145q-17 2 -29 14t-12 29zM479 1081l37 211q7 38 41 41h191q16 -2 27 -13t11 -28l-81 -211q-14 -41 -39 -43h-146q-17 2 -29 14t-12 29z" />
    <glyph glyph-name="Uogonek" unicode="&#x172;" horiz-adv-x="933" 
d="M811 1266q18 -2 29.5 -13t11.5 -28v-875q0 -93 -40.5 -170t-113.5 -127q-23 -20 -66 -39t-64 -42t-21 -70q0 -23 17 -40.5t42 -17.5t86 9q12 0 19.5 -8t9.5 -19v-131q-2 -10 -10 -18t-19 -9q-44 -8 -110 -8q-74 0 -127.5 22.5t-79.5 58t-37.5 70.5t-11.5 70q0 71 34 117
q-125 31 -201.5 126.5t-76.5 225.5v875q0 17 11.5 28t29.5 13h199q16 -2 27 -13t11 -28v-887q0 -58 31.5 -85.5t75.5 -27.5t75 27.5t31 85.5v887q0 17 11.5 28t27.5 13h199z" />
    <glyph glyph-name="uogonek" unicode="&#x173;" horiz-adv-x="874" 
d="M764 -154q25 0 29 -26v-119q-2 -10 -10 -18t-19 -9q-44 -8 -111 -8q-59 0 -104.5 13t-70 31.5t-40 42.5t-20 42.5t-4.5 34.5q0 67 34 104t97 62v70q-46 -49 -95 -64.5t-108 -15.5q-109 0 -189.5 78t-80.5 186v649q0 17 12.5 29t28.5 14h196q17 -2 29 -14t12 -29v-592
q0 -34 24 -58t58 -24t57 24t23 58v592q0 17 12.5 29t28.5 14h197q16 -2 28.5 -14t12.5 -29v-899q0 -24 -33 -39q-92 -37 -116 -54.5t-24 -41.5q0 -27 60 -27q32 0 86 8z" />
    <glyph glyph-name="Ydieresis" unicode="&#x178;" horiz-adv-x="892" 
d="M446 815l158 412q12 36 41 39h197q16 -2 28.5 -13t12.5 -26l-297 -789v-395q0 -17 -11.5 -29t-27.5 -14h-199q-17 2 -29 14t-12 29v395l-297 789q0 15 12.5 26t28.5 13h197q29 -3 41 -39zM135 1493q0 60 42 100.5t102 40.5t101.5 -40.5t41.5 -100.5t-41.5 -102.5
t-101.5 -42.5t-102 42.5t-42 102.5zM467 1493q0 60 41.5 100.5t101.5 40.5t102 -40.5t42 -100.5t-42 -102.5t-102 -42.5t-101.5 42.5t-41.5 102.5z" />
    <glyph glyph-name="Zacute" unicode="&#x179;" horiz-adv-x="788" 
d="M72 225l362 803h-336q-13 0 -24 10.5t-13 24.5v170q2 12 13 22.5t24 10.5h592q13 0 24 -10.5t13 -22.5v-160q0 -13 -10 -33l-363 -802h336q13 0 24 -10.5t13 -24.5v-170q-2 -12 -13 -22.5t-24 -10.5h-592q-13 0 -24 10.5t-13 22.5v160q0 10 11 32zM180 1526l297 174
q12 6 27 6q19 0 31 -12l124 -144q7 -14 7 -26q0 -18 -13 -31l-325 -137q-24 -8 -33 -8q-14 0 -27 10l-94 110q-8 11 -8 27q0 20 14 31z" />
    <glyph glyph-name="zacute" unicode="&#x17a;" horiz-adv-x="671" 
d="M41 225l287 480h-260q-13 0 -24 10t-13 24v170q2 12 13 22.5t24 10.5h536q13 0 24 -10.5t13 -22.5v-159q0 -13 -10 -33l-287 -479h260q13 0 24 -10.5t13 -24.5v-170q-2 -12 -13 -22.5t-24 -10.5h-536q-13 0 -24 10.5t-13 22.5v160q0 12 10 32zM117 1217l297 174
q12 6 26 6q18 0 31 -13l125 -143q6 -12 6 -27q0 -18 -12 -30l-326 -137q-27 -9 -33 -9q-11 0 -26 11l-94 110q-9 12 -9 27q0 19 15 31z" />
    <glyph glyph-name="Zdotaccent" unicode="&#x17b;" horiz-adv-x="788" 
d="M72 225l362 803h-336q-13 0 -24 10.5t-13 24.5v170q2 12 13 22.5t24 10.5h592q13 0 24 -10.5t13 -22.5v-160q0 -13 -10 -33l-363 -802h336q13 0 24 -10.5t13 -24.5v-170q-2 -12 -13 -22.5t-24 -10.5h-592q-13 0 -24 10.5t-13 22.5v160q0 10 11 32zM264 1493
q0 -60 42 -102.5t102 -42.5t101.5 42.5t41.5 102.5t-41.5 100.5t-101.5 40.5t-102 -40.5t-42 -100.5z" />
    <glyph glyph-name="zdotaccent" unicode="&#x17c;" horiz-adv-x="671" 
d="M41 225l287 480h-260q-13 0 -24 10t-13 24v170q2 12 13 22.5t24 10.5h536q13 0 24 -10.5t13 -22.5v-159q0 -13 -10 -33l-287 -479h260q13 0 24 -10.5t13 -24.5v-170q-2 -12 -13 -22.5t-24 -10.5h-536q-13 0 -24 10.5t-13 22.5v160q0 12 10 32zM190 1184q0 -60 42 -103
t102 -43t101.5 43t41.5 103t-41.5 100.5t-101.5 40.5t-102 -40.5t-42 -100.5z" />
    <glyph glyph-name="Zcaron" unicode="&#x17d;" horiz-adv-x="788" 
d="M72 225l362 803h-336q-13 0 -24 10.5t-13 24.5v170q2 12 13 22.5t24 10.5h592q13 0 24 -10.5t13 -22.5v-160q0 -13 -10 -33l-363 -802h336q13 0 24 -10.5t13 -24.5v-170q-2 -12 -13 -22.5t-24 -10.5h-592q-13 0 -24 10.5t-13 22.5v160q0 10 11 32zM279 1348h241
q27 3 41 45l113 323q0 15 -12 26t-29 13h-152q-30 -3 -41 -39l-41 -114l-41 114q-11 36 -41 39h-151q-17 -2 -29 -13t-12 -26l113 -323q14 -42 41 -45z" />
    <glyph glyph-name="zcaron" unicode="&#x17e;" horiz-adv-x="671" 
d="M41 225l287 480h-260q-13 0 -24 10t-13 24v170q2 12 13 22.5t24 10.5h536q13 0 24 -10.5t13 -22.5v-159q0 -13 -10 -33l-287 -479h260q13 0 24 -10.5t13 -24.5v-170q-2 -12 -13 -22.5t-24 -10.5h-536q-13 0 -24 10.5t-13 22.5v160q0 12 10 32zM221 1038h242q27 3 41 45
l112 324q0 15 -12 26t-29 13h-151q-30 -3 -41 -39l-41 -115l-41 115q-11 36 -41 39h-151q-17 -2 -29 -13t-12 -26l112 -324q14 -42 41 -45z" />
    <glyph glyph-name="florin" unicode="&#x192;" horiz-adv-x="561" 
d="M47 942h92q0 181 77 252.5t230 71.5h78q13 0 24 -11t13 -24v-139q-2 -14 -13 -24.5t-24 -10.5q-36 0 -58.5 -6t-32 -18.5t-12.5 -23.5t-3 -30v-37h106q14 0 24.5 -10.5t12.5 -24.5v-153q-2 -13 -12.5 -24t-24.5 -11h-106v-692q0 -101 -20.5 -170t-62.5 -107t-95.5 -53.5
t-128.5 -15.5h-78q-13 0 -24 11t-13 23v168q2 14 13 24.5t24 10.5q38 0 61 6.5t32 23.5t11 31t2 44v696h-92q-14 0 -24.5 11t-12.5 24v153q2 14 12 24.5t25 10.5z" />
    <glyph glyph-name="uni0218" unicode="&#x218;" horiz-adv-x="858" 
d="M51 371q0 17 11.5 29t27.5 14h199q17 -2 29 -14t12 -29q0 -23 1 -37.5t7.5 -37.5t18 -36.5t35.5 -24t57 -10.5q35 0 60.5 11.5t37.5 25.5t18.5 34.5t7 29t0.5 18.5q0 39 -28.5 71.5t-74.5 57.5t-101.5 51t-111 60.5t-101.5 77.5t-74.5 109t-28.5 149q0 53 8 99t32.5 96
t63.5 85t107.5 57.5t159.5 22.5q66 0 120.5 -15t91 -39t65 -58t45 -67.5t27 -72t14 -67t4.5 -56.5q0 -17 -11.5 -29t-27.5 -14h-199q-17 2 -29 14t-12 29q-3 26 -7 44.5t-13 42t-27.5 36t-44.5 12.5q-88 0 -88 -106q0 -47 27.5 -84t71 -62.5t96 -50.5t105.5 -56.5t96.5 -72
t71 -105.5t27.5 -149q0 -98 -32.5 -171.5t-89 -115t-123.5 -61.5t-144 -20q-58 0 -112 12.5t-104.5 41.5t-88 72t-60 109.5t-22.5 149.5zM569 -119l-43 -254q-7 -38 -41 -41h-190q-16 2 -27.5 13t-11.5 28l88 254q14 41 39 43h145q17 -2 29 -14t12 -29z" />
    <glyph glyph-name="uni0219" unicode="&#x219;" horiz-adv-x="739" 
d="M283 270q0 -22 21.5 -37.5t53.5 -15.5q37 0 55.5 9t18.5 34q0 18 -17 35.5t-35 27.5t-56 29q-29 13 -46.5 21t-49.5 26.5t-53 34.5t-47.5 42t-41.5 52.5t-26 62.5t-11 75q0 76 31 134.5t81.5 91t106.5 48.5t115 16q54 0 105 -16t98 -48.5t78.5 -92t37.5 -137.5
q0 -17 -10.5 -29.5t-25.5 -14.5h-168q-18 2 -29.5 13t-11.5 28q0 22 -21.5 42t-50.5 20q-2 0 -6 -0.5t-14 -3t-17.5 -7.5t-13.5 -16t-6 -26q0 -24 36 -51.5t96 -60t72 -40.5q93 -50 136 -107t43 -147q0 -33 -9.5 -68t-34 -73t-61 -67.5t-96.5 -48.5t-135 -19t-134.5 21
t-94.5 52t-60 72.5t-35 74.5t-14 66q0 17 11.5 28t29.5 13h168q15 -2 26 -14t11 -29zM465 -373l43 254q0 17 -12 29t-29 14h-145q-25 -2 -39 -43l-88 -254q0 -17 11 -28t27 -13h191q34 3 41 41z" />
    <glyph glyph-name="uni021A" unicode="&#x21a;" horiz-adv-x="729" 
d="M225 1028h-168q-13 0 -24 10.5t-13 22.5v170q2 14 13 24.5t24 10.5h615q13 0 24 -10.5t13 -24.5v-170q-2 -12 -13 -22.5t-24 -10.5h-168v-985q0 -17 -11.5 -29t-27.5 -14h-199q-17 2 -29 14t-12 29v985zM471 -119l-43 -254q-7 -38 -41 -41h-190q-16 2 -27.5 13t-11.5 28
l88 254q14 41 39 43h145q17 -2 29 -14t12 -29z" />
    <glyph glyph-name="uni021B" unicode="&#x21b;" horiz-adv-x="602" 
d="M139 719h-92q-15 0 -25 10.5t-12 24.5v153q2 13 12.5 24t24.5 11h92v219q0 18 12.5 29.5t28.5 13.5h197q18 -2 29.5 -13.5t11.5 -29.5v-219h106q14 0 24.5 -11t12.5 -24v-153q-2 -14 -12.5 -24.5t-24.5 -10.5h-106v-377q0 -30 2 -44t11 -30.5t32 -23t61 -6.5
q13 0 24 -10.5t13 -24.5v-168q-2 -13 -13 -24t-24 -11h-78q-75 0 -128.5 15.5t-95.5 53.5t-62.5 107t-20.5 170v373zM522 -119l-43 -254q-7 -38 -41 -41h-190q-16 2 -27.5 13t-11.5 28l88 254q14 41 39 43h145q17 -2 29 -14t12 -29z" />
    <glyph glyph-name="circumflex" unicode="&#x2c6;" horiz-adv-x="712" 
d="M236 1266h241q27 -3 41 -45l113 -324q0 -15 -12 -26t-29 -13h-152q-30 3 -41 39l-41 115l-41 -115q-11 -36 -41 -39h-151q-17 2 -29 13t-12 26l113 324q14 42 41 45z" />
    <glyph glyph-name="caron" unicode="&#x2c7;" horiz-adv-x="712" 
d="M477 858h-241q-27 3 -41 45l-113 324q0 15 12 26t29 13h151q30 -3 41 -39l41 -115l41 115q11 36 41 39h152q17 -2 29 -13t12 -26l-113 -324q-14 -42 -41 -45z" />
    <glyph glyph-name="breve" unicode="&#x2d8;" horiz-adv-x="798" 
d="M399 926q-317 0 -317 288v13q0 16 11 26.5t26 12.5h182q18 -2 28.5 -12t10.5 -27v-13q0 -51 59 -51q60 0 60 51v13q0 17 10.5 27t28.5 12h182q15 -2 26 -12.5t11 -26.5v-13q0 -288 -318 -288z" />
    <glyph glyph-name="dotaccent" unicode="&#x2d9;" horiz-adv-x="450" 
d="M82 1124q0 60 41.5 101t101.5 41t102 -41t42 -101t-42 -102.5t-102 -42.5t-101.5 42.5t-41.5 102.5z" />
    <glyph glyph-name="ring" unicode="&#x2da;" horiz-adv-x="638" 
d="M319 735q-112 0 -174.5 66.5t-62.5 197.5t63 199t174 68t174.5 -68t63.5 -199q0 -130 -63 -197t-175 -67zM319 911q22 0 37 22.5t15 63.5q0 43 -15 63.5t-37 20.5q-21 0 -35 -20.5t-14 -63.5q0 -41 14.5 -63.5t34.5 -22.5z" />
    <glyph glyph-name="ogonek" unicode="&#x2db;" horiz-adv-x="559" 
d="M109 -14q20 38 55 41h131q14 -2 27.5 -12t13.5 -21q0 -6 -2 -8q-2 -5 -11 -20.5t-14.5 -31t-5.5 -32.5q0 -23 17 -40.5t42 -17.5q26 0 87 9q24 0 28 -27v-131q-4 -24 -28 -27q-44 -8 -111 -8q-74 0 -127.5 22.5t-79.5 58t-37.5 70.5t-11.5 70q0 56 27 105z" />
    <glyph glyph-name="tilde" unicode="&#x2dc;" horiz-adv-x="782" 
d="M504 979q-48 0 -84 14.5t-63 29.5t-52 15q-19 0 -48 -24.5t-46 -24.5q-15 0 -27 12l-96 117q-6 12 -6 23q0 14 12 26q109 109 185 109q34 0 96 -29.5t102 -29.5q19 0 48 24.5t46 24.5q14 0 27 -13l96 -116q6 -12 6 -23q0 -15 -12 -27q-108 -108 -184 -108z" />
    <glyph glyph-name="hungarumlaut" unicode="&#x2dd;" horiz-adv-x="845" 
d="M82 887l61 338q7 38 41 41h191q16 -2 27.5 -13t11.5 -28l-107 -338q-14 -41 -39 -43h-145q-17 2 -29 14t-12 29zM432 887l62 338q7 38 41 41h190q16 -2 27.5 -13t11.5 -28l-107 -338q-14 -41 -39 -43h-145q-17 2 -29 14t-12 29z" />
    <glyph glyph-name="uni03A9" unicode="&#x3a9;" horiz-adv-x="1138" 
d="M569 1280q167 0 276 -104t109 -261v-565q0 -56 -16 -112h82q13 0 24 -10.5t13 -24.5v-170q-2 -12 -13 -22.5t-24 -10.5h-391q-13 0 -24 10.5t-13 22.5v170q0 13 11.5 24t25.5 11h14q33 0 33 100v590q0 58 -31.5 85t-75.5 27t-75 -27t-31 -85v-590q0 -100 33 -100h14
q14 0 25.5 -11t11.5 -24v-170q-2 -12 -13 -22.5t-24 -10.5h-391q-13 0 -24 10.5t-13 22.5v170q2 14 13 24.5t24 10.5h82q-17 60 -17 112v565q0 157 109 261t276 104z" />
    <glyph glyph-name="pi" unicode="&#x3c0;" horiz-adv-x="1323" 
d="M287 719h-168q-13 0 -24 10.5t-13 22.5v170q2 14 13 24t24 10h1085q13 0 24 -10t13 -24v-170q-2 -12 -13 -22.5t-24 -10.5h-168v-676q0 -17 -11.5 -29t-27.5 -14h-198q-17 2 -29 14t-12 29v676h-193v-676q0 -17 -11.5 -29t-27.5 -14h-198q-17 2 -29 14t-12 29v676z" />
    <glyph glyph-name="ZWSP" unicode="&#x200b;" horiz-adv-x="0" 
 />
    <glyph glyph-name="endash" unicode="&#x2013;" horiz-adv-x="770" 
d="M651 389h-532q-13 0 -24 10.5t-13 22.5v170q2 14 13 24.5t24 10.5h532q13 0 24 -10.5t13 -24.5v-170q-2 -12 -13 -22.5t-24 -10.5z" />
    <glyph glyph-name="emdash" unicode="&#x2014;" horiz-adv-x="897" 
d="M778 389h-659q-13 0 -24 10.5t-13 22.5v170q2 14 13 24.5t24 10.5h659q13 0 24 -10.5t13 -24.5v-170q-2 -12 -13 -22.5t-24 -10.5z" />
    <glyph glyph-name="quoteleft" unicode="&#x2018;" horiz-adv-x="495" 
d="M414 1223l-62 -338q-7 -38 -41 -41h-190q-16 2 -27.5 13t-11.5 28l106 338q14 41 39 43h146q17 -2 29 -14t12 -29z" />
    <glyph glyph-name="quoteright" unicode="&#x2019;" horiz-adv-x="495" 
d="M82 887l61 338q7 38 41 41h191q16 -2 27.5 -13t11.5 -28l-107 -338q-14 -41 -39 -43h-145q-17 2 -29 14t-12 29z" />
    <glyph glyph-name="quotesinglbase" unicode="&#x201a;" horiz-adv-x="495" 
d="M82 -154l61 338q7 38 41 41h191q16 -2 27.5 -13t11.5 -28l-107 -338q-14 -41 -39 -43h-145q-17 2 -29 14t-12 29z" />
    <glyph glyph-name="quotedblleft" unicode="&#x201c;" horiz-adv-x="845" 
d="M764 1223l-62 -338q-7 -38 -40 -41h-191q-16 2 -27.5 13t-11.5 28l107 338q14 41 39 43h145q17 -2 29 -14t12 -29zM414 1223l-62 -338q-7 -38 -41 -41h-190q-16 2 -27.5 13t-11.5 28l106 338q14 41 39 43h146q17 -2 29 -14t12 -29z" />
    <glyph glyph-name="quotedblright" unicode="&#x201d;" horiz-adv-x="845" 
d="M82 887l61 338q7 38 41 41h191q16 -2 27.5 -13t11.5 -28l-107 -338q-14 -41 -39 -43h-145q-17 2 -29 14t-12 29zM432 887l62 338q7 38 41 41h190q16 -2 27.5 -13t11.5 -28l-107 -338q-14 -41 -39 -43h-145q-17 2 -29 14t-12 29z" />
    <glyph glyph-name="quotedblbase" unicode="&#x201e;" horiz-adv-x="845" 
d="M82 -154l61 338q7 38 41 41h191q16 -2 27.5 -13t11.5 -28l-107 -338q-14 -41 -39 -43h-145q-17 2 -29 14t-12 29zM432 -154l62 338q7 38 41 41h190q16 -2 27.5 -13t11.5 -28l-107 -338q-14 -41 -39 -43h-145q-17 2 -29 14t-12 29z" />
    <glyph glyph-name="dagger" unicode="&#x2020;" horiz-adv-x="813" 
d="M268 1008v215q0 18 12.5 29.5t28.5 13.5h197q18 -2 29.5 -13.5t11.5 -29.5v-215h147q13 0 24 -10.5t13 -24.5v-170q-2 -12 -13 -22.5t-24 -10.5h-147v-727q0 -17 -11.5 -29t-27.5 -14h-199q-17 2 -29 14t-12 29v727h-149q-13 0 -24 10.5t-13 22.5v170q2 14 13 24.5
t24 10.5h149z" />
    <glyph glyph-name="daggerdbl" unicode="&#x2021;" horiz-adv-x="813" 
d="M547 479h147q13 0 24 -10.5t13 -24.5v-170q-2 -12 -13 -22t-24 -10h-147v-199q0 -17 -11.5 -29t-27.5 -14h-199q-17 2 -29 14t-12 29v199h-149q-13 0 -24 10t-13 22v170q2 14 13 24.5t24 10.5h149v291h-149q-13 0 -24 10.5t-13 22.5v170q2 14 13 24.5t24 10.5h149v215
q0 18 12.5 29.5t28.5 13.5h197q18 -2 29.5 -13.5t11.5 -29.5v-215h147q13 0 24 -10.5t13 -24.5v-170q-2 -12 -13 -22.5t-24 -10.5h-147v-291z" />
    <glyph glyph-name="bullet" unicode="&#x2022;" horiz-adv-x="450" 
d="M82 444q0 60 41.5 101t101.5 41t102 -41t42 -101t-42 -102.5t-102 -42.5t-101.5 42.5t-41.5 102.5z" />
    <glyph glyph-name="ellipsis" unicode="&#x2026;" horiz-adv-x="1282" 
d="M82 145q0 60 41.5 101t101.5 41t102 -41t42 -101t-42 -102.5t-102 -42.5t-101.5 42.5t-41.5 102.5zM498 145q0 60 41.5 101t101.5 41t101.5 -41t41.5 -101t-41.5 -102.5t-101.5 -42.5t-101.5 42.5t-41.5 102.5zM913 145q0 60 42 101t102 41t101.5 -41t41.5 -101
t-41.5 -102.5t-101.5 -42.5t-102 42.5t-42 102.5z" />
    <glyph glyph-name="perthousand" unicode="&#x2030;" horiz-adv-x="1646" 
d="M930 1225l-426 -1182q-14 -40 -47 -43h-176q-12 2 -21.5 13t-9.5 24q0 4 424 1188q13 38 45 41h176q14 -2 25.5 -10.5t11.5 -20.5q0 -6 -2 -10zM281 819q-93 0 -146 56.5t-53 166.5t53 167t146 57q94 0 147 -57t53 -167t-53 -166.5t-147 -56.5zM281 965q19 0 32 20t13 57
q0 39 -13 57.5t-32 18.5t-32 -18.5t-13 -57.5q0 -37 13 -57t32 -20zM895 0q-95 0 -148 56.5t-53 166.5t53 166.5t148 56.5q93 0 146 -56.5t53 -166.5t-53 -166.5t-146 -56.5zM895 145q19 0 32 20t13 58q0 39 -13 57.5t-32 18.5t-32 -18.5t-13 -57.5q0 -38 13 -58t32 -20z
M1366 0q-95 0 -148 56.5t-53 166.5t53 166.5t148 56.5q93 0 146 -56.5t53 -166.5t-53 -166.5t-146 -56.5zM1366 145q19 0 32 20t13 58q0 39 -13 57.5t-32 18.5t-32 -18.5t-13 -57.5q0 -38 13 -58t32 -20z" />
    <glyph glyph-name="guilsinglleft" unicode="&#x2039;" horiz-adv-x="720" 
d="M82 252v246q3 36 45 49l473 207q15 0 26 -12t13 -29v-185q-1 -15 -12.5 -26.5t-26.5 -14.5l-281 -110l281 -109q36 -11 39 -41v-186q-2 -17 -13 -29t-26 -12l-473 203q-42 13 -45 49z" />
    <glyph glyph-name="guilsinglright" unicode="&#x203a;" horiz-adv-x="720" 
d="M639 498v-246q-3 -36 -45 -49l-473 -203q-15 0 -26 12t-13 29v186q3 30 39 41l280 109l-280 110q-15 3 -26.5 14.5t-12.5 26.5v185q2 17 13 29t26 12l473 -207q42 -13 45 -49z" />
    <glyph glyph-name="fraction" unicode="&#x2044;" horiz-adv-x="749" 
d="M668 1470l-330 -1669q-7 -40 -41 -43h-176q-16 2 -27.5 14t-11.5 29l330 1669q7 38 39 41h176q18 -2 29.5 -13t11.5 -28z" />
    <glyph glyph-name="Euro" unicode="&#x20ac;" horiz-adv-x="1030" 
d="M180 360h-67q-10 0 -19.5 9t-11.5 20v146q1 12 10.5 21t20.5 9h67v109h-67q-10 0 -19.5 8.5t-11.5 19.5v146q2 12 11 21.5t20 9.5h67v36q0 157 109 261t274 104q166 0 275.5 -104t109.5 -261q0 -17 -12.5 -29t-28.5 -14h-196q-17 2 -29 14t-12 29v13q0 58 -31.5 85
t-75.5 27q-43 0 -73.5 -27t-30.5 -85v-49h112q11 0 20 -9.5t11 -21.5v-146q-2 -11 -11.5 -19.5t-19.5 -8.5h-112v-109h112q11 0 20.5 -9t10.5 -21v-146q-2 -11 -11.5 -20t-19.5 -9h-112v-22q0 -58 31 -85.5t73 -27.5q44 0 75.5 28.5t31.5 86.5v12q0 17 11.5 28t29.5 13h196
q16 -2 28.5 -13.5t12.5 -27.5q0 -157 -109.5 -260.5t-275.5 -103.5t-274.5 102.5t-108.5 259.5v10z" />
    <glyph glyph-name="Numero" unicode="&#x2116;" horiz-adv-x="1734" 
d="M580 43l-220 492v-492q0 -17 -12.5 -29t-28.5 -14h-196q-17 2 -29 14t-12 29v1182q0 17 11.5 28t29.5 13h174q27 -3 43 -43l221 -498v500q0 17 11.5 28t27.5 13h197q18 -2 29.5 -13t11.5 -28v-1184q0 -17 -11.5 -28t-29.5 -13h-174q-27 3 -43 43zM1296 1266
q155 0 256 -96.5t101 -243.5v-252q0 -142 -104 -234t-253 -92t-252.5 92t-103.5 234v252q0 147 100.5 243.5t255.5 96.5zM1296 586q35 0 56.5 23.5t21.5 58.5v276q0 35 -21.5 58.5t-56.5 23.5q-34 0 -55.5 -23.5t-21.5 -58.5v-276q0 -35 21.5 -58.5t55.5 -23.5zM1573 0h-549
q-13 0 -24 10.5t-13 22.5v170q2 14 13 24.5t24 10.5h549q13 0 24 -10.5t13 -24.5v-170q-2 -12 -13 -22.5t-24 -10.5z" />
    <glyph glyph-name="trademark" unicode="&#x2122;" horiz-adv-x="1138" 
d="M184 1090h-84q-7 0 -12.5 5t-5.5 11v143q0 6 5.5 11.5t12.5 5.5h349q6 0 12 -5.5t6 -11.5v-143q0 -6 -6 -11t-12 -5h-84v-437q0 -19 -21 -22h-139q-21 3 -21 22v437zM805 715h-47q-11 4 -15 10l-57 164v-236q0 -18 -18 -22h-142q-20 4 -20 22v592q0 7 6 13t14 8h150
q14 0 22 -21l84 -233l82 233q7 21 25 21h147q8 -2 14.5 -8t6.5 -13v-592q0 -18 -21 -22h-141q-18 4 -18 22v236l-58 -164q-5 -7 -14 -10z" />
    <glyph glyph-name="Omega" unicode="&#x2126;" horiz-adv-x="1138" 
d="M569 1280q167 0 276 -104t109 -261v-565q0 -56 -16 -112h82q13 0 24 -10.5t13 -24.5v-170q-2 -12 -13 -22.5t-24 -10.5h-391q-13 0 -24 10.5t-13 22.5v170q0 13 11.5 24t25.5 11h14q33 0 33 100v590q0 58 -31.5 85t-75.5 27t-75 -27t-31 -85v-590q0 -100 33 -100h14
q14 0 25.5 -11t11.5 -24v-170q-2 -12 -13 -22.5t-24 -10.5h-391q-13 0 -24 10.5t-13 22.5v170q2 14 13 24.5t24 10.5h82q-17 60 -17 112v565q0 157 109 261t276 104z" />
    <glyph glyph-name="partialdiff" unicode="&#x2202;" horiz-adv-x="882" 
d="M522 307v170q0 35 -23.5 59.5t-58.5 24.5q-33 0 -56.5 -24.5t-23.5 -59.5v-170q0 -34 24 -58t56 -24q35 0 58.5 24t23.5 58zM522 741v189q0 60 -18.5 85t-57.5 25q-38 0 -54.5 -25t-16.5 -85v-29q0 -16 -12.5 -27.5t-28.5 -13.5h-197q-18 2 -29.5 13t-11.5 28v14
q0 161 94 263t256 102q165 0 260 -102t95 -263v-872q0 -17 -12.5 -29t-28.5 -14h-164q-17 2 -29 14t-12 29v23q-46 -48 -94.5 -63t-108.5 -15q-111 0 -190.5 77t-79.5 187v283q0 109 80 187.5t190 78.5q89 0 170 -60z" />
    <glyph glyph-name="Delta" unicode="&#x2206;" horiz-adv-x="1173" 
d="M1053 0h-932q-16 2 -27.5 14t-11.5 29l377 1182q4 11 6.5 16t10.5 12t22 13h176q15 -6 23.5 -13t11 -12t6.5 -16l377 -1182q0 -17 -11.5 -29t-27.5 -14zM586 823l-187 -585h373z" />
    <glyph glyph-name="product" unicode="&#x220f;" horiz-adv-x="1323" 
d="M287 1028h-168q-13 0 -24 10.5t-13 22.5v170q2 14 13 24.5t24 10.5h1085q13 0 24 -10.5t13 -24.5v-170q-2 -12 -13 -22.5t-24 -10.5h-168v-985q0 -17 -11.5 -29t-27.5 -14h-198q-17 2 -29 14t-12 29v985h-193v-985q0 -17 -11.5 -29t-27.5 -14h-198q-17 2 -29 14t-12 29
v985z" />
    <glyph glyph-name="summation" unicode="&#x2211;" horiz-adv-x="813" 
d="M731 1061q-2 -14 -12.5 -24.5t-24.5 -10.5h-307l148 -383v-20l-148 -383h307q14 0 24.5 -10.5t12.5 -24.5v-170q-2 -13 -12.5 -24t-24.5 -11h-571q-17 2 -29 14t-12 29v195l149 395l-149 395v195q0 17 12 29t29 14h571q14 0 24.5 -11t12.5 -24v-170z" />
    <glyph glyph-name="minus" unicode="&#x2212;" horiz-adv-x="770" 
d="M651 389h-532q-13 0 -24 10.5t-13 22.5v170q2 14 13 24.5t24 10.5h532q13 0 24 -10.5t13 -24.5v-170q-2 -12 -13 -22.5t-24 -10.5z" />
    <glyph glyph-name="radical" unicode="&#x221a;" horiz-adv-x="1101" 
d="M983 1266q13 0 24 -10.5t13 -24.5v-170q-2 -12 -13 -22.5t-24 -10.5h-162l-196 -983q-10 -42 -41 -45h-305q-31 3 -41 45l-156 498q0 15 12 26t29 13h196q15 -1 26.5 -12.5t14.5 -26.5l70 -242l154 926q3 15 14.5 26.5t26.5 12.5h358z" />
    <glyph glyph-name="infinity" unicode="&#x221e;" horiz-adv-x="1564" 
d="M594 459q-28 45 -63 67.5t-68 22.5q-103 0 -103 -88t103 -88q33 0 68 22t63 64zM782 285q-93 -84 -167.5 -124t-153.5 -40q-184 0 -281.5 95t-97.5 245t97.5 245t281.5 95q79 0 153.5 -40t167.5 -124q93 84 167.5 124t154.5 40q184 0 281.5 -95t97.5 -245t-97.5 -245
t-281.5 -95q-80 0 -154.5 40t-167.5 124zM971 459q28 -42 63 -64t68 -22q102 0 102 88t-102 88q-33 0 -68 -22.5t-63 -67.5z" />
    <glyph glyph-name="integral" unicode="&#x222b;" horiz-adv-x="729" 
d="M504 924v-897q0 -101 -20.5 -170t-62.5 -107t-95.5 -53.5t-128.5 -15.5h-78q-13 0 -24 11t-13 23v168q2 14 13 24.5t24 10.5q38 0 61 6.5t32 23.5t11 31t2 44v897q0 101 20.5 170t62.5 107t95.5 53.5t128.5 15.5h78q13 0 24 -11t13 -24v-168q-2 -14 -13 -24.5t-24 -10.5
q-38 0 -61 -6.5t-32 -23t-11 -30.5t-2 -44z" />
    <glyph glyph-name="approxequal" unicode="&#x2248;" horiz-adv-x="782" 
d="M504 176q-48 0 -84 15t-63 30t-52 15q-19 0 -48 -25t-46 -25q-14 0 -27 13l-96 116q-6 12 -6 23q0 15 12 27q108 108 185 108q34 0 96 -29.5t102 -29.5q19 0 48 24.5t46 24.5q15 0 27 -12l96 -117q6 -12 6 -23q0 -14 -12 -26q-109 -109 -184 -109zM504 473
q-48 0 -84 14.5t-63 29.5t-52 15q-19 0 -48 -24.5t-46 -24.5q-14 0 -27 13l-96 116q-6 12 -6 23q0 15 12 27q108 108 185 108q34 0 96 -29.5t102 -29.5q19 0 48 24.5t46 24.5q15 0 27 -12l96 -117q6 -12 6 -23q0 -14 -12 -26q-109 -109 -184 -109z" />
    <glyph glyph-name="notequal" unicode="&#x2260;" horiz-adv-x="770" 
d="M291 502h-172q-13 0 -24 10.5t-13 22.5v170q2 14 13 24t24 10h219l27 129q7 32 34 35h152q14 -2 24.5 -12t10.5 -23l-27 -129h92q13 0 24 -10t13 -24v-170q-2 -12 -13 -22.5t-24 -10.5h-139l-16 -82h155q13 0 24 -10.5t13 -24.5v-170q-2 -12 -13 -22.5t-24 -10.5h-205
l-28 -145q-2 -14 -11.5 -25t-23.5 -12h-152q-12 2 -22 13t-10 24l28 145h-108q-13 0 -24 10.5t-13 22.5v170q2 14 13 24.5t24 10.5h155z" />
    <glyph glyph-name="lessequal" unicode="&#x2264;" horiz-adv-x="720" 
d="M119 0h483q13 0 24 10.5t13 22.5v170q-2 14 -13 24.5t-24 10.5h-483q-13 0 -24 -10.5t-13 -24.5v-170q2 -12 13 -22.5t24 -10.5zM82 547v246q3 36 45 49l473 207q15 0 26 -12t13 -29v-185q-1 -15 -12.5 -26.5t-26.5 -14.5l-281 -110l281 -109q36 -11 39 -41v-186
q-2 -17 -13 -29t-26 -12l-473 203q-42 13 -45 49z" />
    <glyph glyph-name="greaterequal" unicode="&#x2265;" horiz-adv-x="720" 
d="M119 0h483q13 0 24 10.5t13 22.5v170q-2 14 -13 24.5t-24 10.5h-483q-13 0 -24 -10.5t-13 -24.5v-170q2 -12 13 -22.5t24 -10.5zM639 793v-246q-3 -36 -45 -49l-473 -203q-15 0 -26 12t-13 29v186q3 30 39 41l280 109l-280 110q-15 3 -26.5 14.5t-12.5 26.5v185
q2 17 13 29t26 12l473 -207q42 -13 45 -49z" />
    <glyph glyph-name="lozenge" unicode="&#x25ca;" horiz-adv-x="851" 
d="M299 41l-217 592l217 592q4 11 6.5 16t10.5 12t22 13h176q15 -6 23.5 -13t11 -12t6.5 -16l215 -592l-215 -592q-4 -11 -6.5 -16t-11 -12t-23.5 -13h-176q-14 6 -22 13t-10.5 12t-6.5 16zM426 383l88 250l-88 250l-90 -250z" />
    <glyph glyph-name="uni25CC" unicode="&#x25cc;" horiz-adv-x="378" 
 />
    <glyph glyph-name="fi" unicode="&#xfb01;" horiz-adv-x="1013" 
d="M47 942h92q0 181 77 252.5t230 71.5h78q13 0 24 -11t13 -24v-139q-2 -14 -13 -24.5t-24 -10.5q-36 0 -58.5 -6t-32 -18.5t-12.5 -23.5t-3 -30v-37h106q14 0 24.5 -10.5t12.5 -24.5v-153q-2 -13 -12.5 -24t-24.5 -11h-106v-676q0 -18 -11.5 -29.5t-29.5 -13.5h-197
q-16 2 -28.5 13.5t-12.5 29.5v676h-92q-14 0 -24.5 11t-12.5 24v153q2 14 12 24.5t25 10.5zM653 43v856q0 18 12.5 29.5t28.5 13.5h197q18 -2 29.5 -13.5t11.5 -29.5v-856q0 -17 -12 -29t-29 -14h-197q-16 2 -28.5 14t-12.5 29zM653 1081v176q0 17 11.5 28t29.5 13h199
q16 -2 27.5 -13t11.5 -28v-176q0 -17 -11.5 -29t-27.5 -14h-199q-17 2 -29 14t-12 29z" />
    <glyph glyph-name="fl" unicode="&#xfb02;" horiz-adv-x="1013" 
d="M47 942h92q0 181 77 252.5t230 71.5h78q13 0 24 -11t13 -24v-139q-2 -14 -13 -24.5t-24 -10.5q-36 0 -58.5 -6t-32 -18.5t-12.5 -23.5t-3 -30v-37h106q14 0 24.5 -10.5t12.5 -24.5v-153q-2 -13 -12.5 -24t-24.5 -11h-106v-676q0 -18 -11.5 -29.5t-29.5 -13.5h-197
q-16 2 -28.5 13.5t-12.5 29.5v676h-92q-14 0 -24.5 11t-12.5 24v153q2 14 12 24.5t25 10.5zM653 43v1182q0 17 11.5 28t29.5 13h199q16 -2 27.5 -13t11.5 -28v-1182q0 -17 -11.5 -29t-27.5 -14h-199q-17 2 -29 14t-12 29z" />
    <glyph glyph-name="Superstore" horiz-adv-x="1198" 
d="M596 1034q107 0 203 -41t165.5 -110.5t110.5 -165.5t41 -203q0 -139 -69 -257.5t-189 -187.5t-262 -69q-139 0 -257.5 69t-187.5 187.5t-69 257.5q0 142 69 262t187.5 189t257.5 69zM815 184q66 0 66 56q0 33 -11.5 47t-38.5 14v272q0 88 -65 146q12 4 39 4t39 -4h22v133
q-148 -18 -235 -66q-31 5 -76 5q-101 0 -180 -29v-129h12q105 33 156 33q18 0 29 -0.5t31.5 -2.5t34 -8t28 -15t21.5 -25t7 -37l-168 -17q-43 -4 -75 -12t-65 -27.5t-51 -57t-18 -91.5q0 -85 58.5 -137t150.5 -52q61 0 88 6v111l-12 8q-18 -8 -47 -8q-37 0 -64.5 21
t-27.5 63q0 33 37 45.5t194 38.5v-145q0 -76 21.5 -108t81.5 -32h18z" />
    </font>
</defs>
</svg>
