<?xml version="1.0" standalone="no"?>
<!DOCTYPE svg PUBLIC "-//W3C//DTD SVG 1.1//EN" "http://www.w3.org/Graphics/SVG/1.1/DTD/svg11.dtd" >
<svg xmlns="http://www.w3.org/2000/svg" xmlns:xlink="http://www.w3.org/1999/xlink" version="1.1">
<metadata>
Created by FontForge 20170731 at Fri Sep 18 15:16:09 2020
 By Aleksey,,,
Copyright (c) 2017 by Typesketchbook. All rights reserved.
</metadata>
<defs>
<font id="Calps-BoldItalic" horiz-adv-x="876" >
  <font-face 
    font-family="Calps Bold"
    font-weight="700"
    font-style="italic"
    font-stretch="normal"
    units-per-em="2048"
    panose-1="2 0 0 0 0 0 0 0 0 0"
    ascent="1638"
    descent="-410"
    x-height="942"
    cap-height="1266"
    bbox="-102.091 -414 1795.65 1858"
    underline-thickness="71"
    underline-position="-294"
    unicode-range="U+0020-FB02"
  />
<missing-glyph horiz-adv-x="1161" 
d="M1094 0h-1047v1282h1047v-1282zM139 88h39v43h-39l-4 -41q4 0 4 -2zM999 1192v-4h5q0 4 -5 4zM999 1188h-36v-37h36v37zM1004 92l-5 39h-36v-39h41zM141 1192v-41h37v41l-39 2q0 -2 2 -2zM178 1151v-1020h785v1020h-785z" />
    <glyph glyph-name=".notdef" horiz-adv-x="1161" 
d="M1094 0h-1047v1282h1047v-1282zM139 88h39v43h-39l-4 -41q4 0 4 -2zM999 1192v-4h5q0 4 -5 4zM999 1188h-36v-37h36v37zM1004 92l-5 39h-36v-39h41zM141 1192v-41h37v41l-39 2q0 -2 2 -2zM178 1151v-1020h785v1020h-785z" />
    <glyph glyph-name=".null" horiz-adv-x="0" 
 />
    <glyph glyph-name="nonmarkingreturn" horiz-adv-x="378" 
 />
    <glyph glyph-name="space" unicode=" " horiz-adv-x="378" 
 />
    <glyph glyph-name="exclam" unicode="!" horiz-adv-x="425" 
d="M508 1227l-115 -809q-2 -15 -15 -27t-30 -12h-164q-17 0 -28 12t-9 27l115 809q2 15 15 27t30 12h164q17 0 28 -12t9 -27zM367 223l-27 -184q-2 -15 -15 -27t-30 -12h-164q-17 0 -28 12t-9 27l27 184q2 15 15 27t30 12h164q17 0 28 -12t9 -27z" />
    <glyph glyph-name="quotedbl" unicode="&#x22;" horiz-adv-x="729" 
d="M240 909l22 322q3 31 39 35h162q13 -2 21.5 -11.5t7.5 -23.5l-72 -322q-7 -33 -39 -37h-113q-13 2 -22 12.5t-6 24.5zM559 909l23 322q3 31 39 35h161q13 -2 21.5 -11.5t7.5 -23.5l-72 -322q-7 -33 -39 -37h-112q-13 2 -22.5 12.5t-6.5 24.5z" />
    <glyph glyph-name="numbersign" unicode="#" horiz-adv-x="1378" 
d="M823 514l84 229h-190l-82 -229h188zM326 311h-154q-15 0 -25.5 12t-7.5 29l17 121q3 17 16.5 29t28.5 12h198l82 229h-164q-15 0 -25 12t-9 29l18 121q1 17 14.5 29t28.5 12h209l104 281q12 39 45 39h154q17 0 28 -12t9 -27l-105 -281h191l102 281q12 39 45 39h154
q17 0 28 -12t9 -27l-103 -281h166q15 0 25.5 -12t9.5 -29l-18 -121q-1 -17 -14.5 -29t-28.5 -12h-211l-84 -229h178q15 0 25.5 -12t7.5 -29l-17 -121q-3 -17 -16.5 -29t-28.5 -12h-221l-100 -272q-12 -39 -45 -39h-154q-17 0 -28 12t-9 27l101 272h-191l-98 -272
q-12 -39 -45 -39h-154q-17 0 -28 12t-9 27z" />
    <glyph glyph-name="dollar" unicode="$" horiz-adv-x="940" 
d="M897 344q-22 -153 -109.5 -237.5t-214.5 -110.5l-79 -227q-11 -32 -41 -35h-164q-13 2 -21.5 12t-5.5 23l100 227q-54 13 -97 39t-76 67t-47 103.5t-5 140.5q3 15 17.5 27t31.5 12h164q17 0 27 -11.5t8 -27.5q-6 -26 -3 -53.5t12 -50t37.5 -37.5t74.5 -15q117 0 142 128
q1 3 1 4q10 73 -29 118t-128 92q-57 30 -86.5 48t-76.5 55.5t-69 74.5t-35 94.5t-4 125.5q43 289 297 340l94 270q3 14 14.5 24t26.5 11h164q11 -2 19.5 -12t7.5 -23l-119 -268q232 -50 215 -342q-2 -15 -16 -27t-31 -12h-164q-17 0 -27 11.5t-10 27.5q5 145 -94 145
q-109 0 -129 -131q-5 -34 4 -64t22 -49.5t44.5 -42.5t51 -34.5t62.5 -34.5q111 -60 156 -101q113 -103 88 -274z" />
    <glyph glyph-name="percent" unicode="%" horiz-adv-x="1142" 
d="M1069 1225l-594 -1182q-17 -40 -51 -43h-143q-12 2 -20 13t-7 24q0 4 592 1188q16 38 49 41h143q14 -2 24 -10.5t9 -20.5q0 -6 -2 -10zM395 846q-88 0 -130 53.5t-27 155.5q15 104 71 157.5t144 53.5t131 -54t28 -157q-15 -102 -72 -155.5t-145 -53.5zM414 983
q17 0 33 19t20 53q5 36 -5 53.5t-28 17.5q-42 0 -53 -71q-4 -35 5.5 -53.5t27.5 -18.5zM864 0q-88 0 -130 53.5t-27 155.5q15 104 71 157.5t144 53.5t131 -54t28 -157q-15 -102 -72 -155.5t-145 -53.5zM883 137q17 0 32 19t21 53q4 37 -6 54.5t-27 17.5q-19 0 -34 -17.5
t-19 -54.5q-6 -35 4 -53.5t29 -18.5z" />
    <glyph glyph-name="ampersand" unicode="&#x26;" horiz-adv-x="1150" 
d="M483 158q95 0 187 96l-166 229q-6 -3 -15 -9.5t-33 -26t-43.5 -40t-37 -51t-21.5 -59.5q-19 -139 129 -139zM580 758q143 106 159 215q7 49 -14 84t-74 35q-19 0 -32.5 -3t-34.5 -14t-35.5 -40t-20.5 -74q-15 -117 52 -203zM1065 39q-1 -15 -14.5 -26t-30.5 -13h-164
q-22 4 -29 16l-61 84q-53 -53 -141 -94t-160 -41q-22 0 -43.5 1.5t-50.5 5.5t-54 11t-54 19t-49.5 29t-41.5 40t-30.5 53.5t-15.5 69t3 85.5q10 69 42 131.5t71.5 102t77 69t62.5 42.5l26 13q-127 152 -103 319q11 74 40 132t66.5 93t84.5 58t90 32t86 9q142 0 227.5 -74.5
t65.5 -222.5q-9 -59 -42 -120t-73.5 -105.5t-80 -80.5t-66.5 -55l-27 -18l129 -182l115 164q27 39 51 39h129q17 0 28 -12t9 -27l-222 -330q14 -21 69 -99.5t81 -117.5z" />
    <glyph glyph-name="quotesingle" unicode="'" horiz-adv-x="409" 
d="M240 909l22 322q3 31 39 35h162q13 -2 21.5 -11.5t7.5 -23.5l-72 -322q-7 -33 -39 -37h-113q-13 2 -22 12.5t-6 24.5z" />
    <glyph glyph-name="parenleft" unicode="(" horiz-adv-x="493" 
d="M182 659q52 375 183 818q5 18 17.5 30t29.5 13h166q15 -2 24 -14t8 -29q-132 -456 -182 -818q-55 -380 -55 -866q-1 -17 -15 -29t-30 -14h-166q-31 3 -35 43q-3 450 55 866z" />
    <glyph glyph-name="parenright" unicode=")" horiz-adv-x="493" 
d="M496 659q-58 -415 -191 -866q-5 -18 -17.5 -30t-29.5 -13h-166q-15 2 -24.5 14t-8.5 29q131 452 191 866q47 341 47 818q1 17 15 29t30 14h166q31 -3 35 -43q3 -459 -47 -818z" />
    <glyph glyph-name="asterisk" unicode="*" horiz-adv-x="915" 
d="M631 580l-68 182l-117 -182q-3 -7 -12.5 -13t-15.5 -6q-7 0 -19 6l-127 72q-9 7 -14 31q1 2 3 7t3 7l142 166l-170 98q-11 11 -11 27q3 7 11 16l104 133q10 17 29 17q10 0 16 -6l119 -107l14 205q2 12 13 22t26 11h156q12 -2 19.5 -11.5t6.5 -21.5l-43 -205l152 107
q12 6 18 6q15 0 25 -17l65 -133q6 -12 5 -16q0 -16 -19 -27l-194 -98l94 -166q4 -7 0 -14q0 -20 -21 -31l-147 -72q-12 -6 -21 -6q-18 0 -22 19z" />
    <glyph glyph-name="plus" unicode="+" horiz-adv-x="763" 
d="M715 573q15 0 25 -13t8 -28l-19 -124q-2 -15 -15 -28t-28 -13h-151l-29 -197q-1 -15 -12 -25t-25 -10h-135q-15 0 -24 10t-7 25l29 197h-150q-17 0 -28 12.5t-9 28.5l19 124q2 15 16 28t31 13h149l27 197q3 15 14.5 25t26.5 10h135q14 0 22 -10t5 -25l-27 -197h152z" />
    <glyph glyph-name="comma" unicode="," horiz-adv-x="466" 
d="M70 -137l92 293q4 13 15.5 22.5t25.5 11.5h168q11 -2 19 -11.5t7 -22.5l-133 -293q-15 -36 -41 -39h-127q-11 2 -19 13.5t-7 25.5z" />
    <glyph glyph-name="hyphen" unicode="-" horiz-adv-x="763" 
d="M152 440l16 127q3 16 16.5 27.5t30.5 11.5h504q15 0 25.5 -12t7.5 -29l-17 -123q-3 -17 -16.5 -29t-28.5 -12h-504q-17 0 -27 12t-7 27z" />
    <glyph glyph-name="period" unicode="." horiz-adv-x="434" 
d="M104 115q7 52 50 88.5t96 36.5t84 -36.5t24 -88.5q-8 -54 -49.5 -91.5t-93.5 -37.5q-53 0 -85.5 37.5t-25.5 91.5z" />
    <glyph glyph-name="slash" unicode="/" horiz-adv-x="731" 
d="M61 -203l568 1676q5 16 17 27t28 11h137q17 0 28 -11.5t9 -26.5l-565 -1676q-16 -39 -47 -39h-138q-17 0 -28.5 12t-8.5 27z" />
    <glyph glyph-name="zero" unicode="0" horiz-adv-x="913" 
d="M483 190q53 0 96.5 34.5t53.5 103.5l86 610q10 69 -24.5 103t-88.5 34t-96.5 -34t-52.5 -103l-86 -610q-10 -69 24 -103.5t88 -34.5zM635 1280q164 0 257 -100.5t71 -253.5l-82 -586q-22 -153 -142 -253.5t-284 -100.5t-257 100.5t-71 253.5l82 586q22 153 142 253.5
t284 100.5z" />
    <glyph glyph-name="one" unicode="1" horiz-adv-x="614" 
d="M459 1266h200q17 0 28 -12t9 -27l-168 -1188q-2 -15 -15 -27t-30 -12h-164q-17 0 -27.5 12t-8.5 27l143 1014l-250 -127q-4 -2 -14 -2q-5 0 -9 6t-3 14l22 162q11 30 33 41l215 108q22 11 39 11z" />
    <glyph glyph-name="two" unicode="2" horiz-adv-x="792" 
d="M182 952q20 114 79 189.5t137 107t175 31.5q145 0 234.5 -89t71.5 -226l-11 -72q-7 -53 -32 -104t-68 -99.5t-78 -81t-92 -80.5q-53 -44 -83.5 -72t-68.5 -70.5t-59 -87t-27 -93.5h324q15 0 24.5 -12t8.5 -29l-19 -123q-1 -17 -14.5 -29t-28.5 -12h-561q-15 0 -25.5 12
t-9.5 29l23 154q8 59 32.5 116.5t53.5 100t74 91t78 77.5t83 71q50 41 81 69t65.5 66t54 75t25.5 75l4 33q5 44 -19.5 75t-68.5 31q-48 0 -77 -27t-40 -96q-3 -16 -16.5 -27.5t-30.5 -11.5h-164q-17 0 -27.5 12t-7.5 27z" />
    <glyph glyph-name="three" unicode="3" horiz-adv-x="823" 
d="M92 311q2 15 16 28t31 13h164q17 0 27 -11.5t8 -27.5q-8 -69 14 -96t70 -27q45 0 78 31t39 76l18 129q6 45 -18.5 74.5t-69.5 29.5h-53q-15 0 -25.5 12t-7.5 29l16 123q3 17 16.5 29t28.5 12h54q45 0 77.5 30t38.5 75l19 129q6 45 -18.5 75.5t-69.5 30.5q-48 0 -77 -27
t-40 -96q-3 -16 -16.5 -27.5t-30.5 -11.5h-164q-17 0 -27 12.5t-8 28.5q29 167 135.5 246.5t255.5 79.5q145 0 234.5 -89t71.5 -226l-17 -119q-19 -124 -137 -217q94 -94 74 -226l-15 -102q-20 -137 -133 -226t-258 -89q-71 0 -128.5 18.5t-100 56t-62 101.5t-10.5 149z" />
    <glyph glyph-name="four" unicode="4" horiz-adv-x="851" 
d="M526 492l58 411l-240 -411h182zM111 537l432 690q23 39 49 39h248q17 0 28 -12t9 -27l-105 -735h90q15 0 25.5 -12t7.5 -29l-16 -123q-3 -17 -16.5 -29t-28.5 -12h-91l-34 -248q-2 -15 -15 -27t-30 -12h-164q-17 0 -28 12t-9 27l35 248h-392q-15 0 -25 12t-7 29l26 184
q0 8 11 25z" />
    <glyph glyph-name="five" unicode="5" horiz-adv-x="843" 
d="M119 283q2 15 16 27t31 12h164q17 0 27 -11.5t8 -27.5q-2 -40 22.5 -66.5t65.5 -26.5q45 0 77.5 31t38.5 76l29 205q6 45 -18.5 75.5t-69.5 30.5q-60 0 -94 -53q-15 -20 -31 -20h-192q-16 0 -26 11.5t-7 28.5l92 650q1 17 14.5 29t28.5 12h553q15 0 25.5 -12t9.5 -29
l-19 -123q-1 -17 -15 -29t-30 -12h-346l-45 -320q33 25 51.5 37t50.5 23.5t68 11.5q145 0 205 -90.5t39 -239.5l-27 -180q-18 -137 -131 -226t-260 -89q-140 0 -227.5 82.5t-77.5 212.5z" />
    <glyph glyph-name="six" unicode="6" horiz-adv-x="843" 
d="M426 -12q-145 0 -234 89t-71 226l92 645q20 142 131 237t262 95q148 0 232 -79.5t71 -225.5q-2 -15 -16 -27t-31 -12h-164q-16 0 -25 10.5t-9 26.5q4 56 -18.5 79t-67.5 23q-103 0 -123 -145l-25 -185q44 35 80.5 51.5t89.5 16.5q143 0 203 -91t39 -239l-27 -180
q-18 -137 -131 -226t-258 -89zM395 502l-28 -205q-6 -45 18.5 -76t69.5 -31t76.5 31t37.5 76l29 205q6 45 -17.5 75.5t-68.5 30.5t-78 -30.5t-39 -75.5z" />
    <glyph glyph-name="seven" unicode="7" horiz-adv-x="686" 
d="M803 1049l-443 -1010q-16 -39 -45 -39h-176q-17 0 -28 12t-9 27l451 1022h-338q-15 0 -24.5 12t-8.5 29l19 123q1 17 14.5 29t28.5 12h551q15 0 25 -12t9 -29z" />
    <glyph glyph-name="eight" unicode="8" horiz-adv-x="831" 
d="M594 1280q150 0 235.5 -94.5t65.5 -235.5l-12 -86q-9 -62 -54 -129.5t-104 -103.5q50 -35 74.5 -107t15.5 -137l-12 -86q-20 -137 -132 -226t-257 -89t-234 89t-69 226l12 86q10 66 54.5 137.5t105.5 106.5q-50 36 -76 104t-17 129l13 86q20 142 130.5 236t260.5 94z
M442 190q45 0 77 31t38 76l18 127q6 45 -17.5 74.5t-68.5 29.5t-76.5 -29.5t-37.5 -74.5l-19 -127q-6 -45 17.5 -76t68.5 -31zM518 735q45 0 77 30t38 75l18 129q6 45 -17.5 75.5t-68.5 30.5t-76.5 -30.5t-37.5 -75.5l-19 -129q-6 -45 17.5 -75t68.5 -30z" />
    <glyph glyph-name="nine" unicode="9" horiz-adv-x="843" 
d="M594 1280q145 0 234 -89t71 -226l-92 -648q-20 -142 -131 -236.5t-262 -94.5q-148 0 -232.5 79.5t-72.5 225.5q3 15 17.5 27t31.5 12h164q16 0 25 -10.5t9 -26.5q-4 -56 18.5 -78t67.5 -22q101 0 123 143l25 186q-43 -34 -79.5 -50.5t-90.5 -16.5q-143 0 -203 90.5
t-39 238.5l27 181q18 137 131 226t258 89zM625 766l28 203q6 45 -18.5 75.5t-69.5 30.5t-76.5 -30.5t-37.5 -75.5l-29 -203q-6 -45 17.5 -76t68.5 -31t78 31t39 76z" />
    <glyph glyph-name="colon" unicode=":" horiz-adv-x="434" 
d="M104 115q7 52 50 88.5t96 36.5t84 -36.5t24 -88.5q-8 -54 -49.5 -91.5t-93.5 -37.5q-53 0 -85.5 37.5t-25.5 91.5zM178 635q7 52 50 89.5t96 37.5q52 0 84 -37t24 -90t-50.5 -90t-94.5 -37q-53 0 -84.5 37.5t-24.5 89.5z" />
    <glyph glyph-name="semicolon" unicode=";" horiz-adv-x="436" 
d="M178 635q7 52 50 89.5t96 37.5q52 0 84 -37t24 -90t-50.5 -90t-94.5 -37q-53 0 -84.5 37.5t-24.5 89.5zM360 113l-2 -17q-5 -36 -18 -81t-41 -93t-61 -53h-101q-18 4 -14 25l10 18q3 7 13.5 26.5t15.5 32t8 23.5q-34 14 -52 46.5t-14 72.5q7 54 50.5 90.5t97.5 36.5
q53 0 84 -36.5t24 -90.5z" />
    <glyph glyph-name="less" unicode="&#x3c;" horiz-adv-x="708" 
d="M125 248l29 217q10 38 51 53l477 197q13 0 22 -12t9 -27l-25 -174q-5 -24 -43 -39l-264 -107l235 -106q31 -16 31 -39l-24 -174q-3 -15 -16 -27t-27 -12l-420 197q-38 17 -35 53z" />
    <glyph glyph-name="equal" unicode="=" horiz-adv-x="763" 
d="M121 225l18 127q2 15 15 27t30 12h504q15 0 25.5 -12t9.5 -29l-18 -123q-1 -17 -15.5 -29t-30.5 -12h-503q-17 0 -27 11.5t-8 27.5zM164 539l18 127q3 16 16.5 27.5t30.5 11.5h504q15 0 25.5 -12t7.5 -29l-16 -123q-3 -17 -16.5 -29t-28.5 -12h-504q-17 0 -28 12t-9 27z
" />
    <glyph glyph-name="greater" unicode="&#x3e;" horiz-adv-x="708" 
d="M682 465l-29 -217q-10 -38 -51 -53l-477 -197q-13 0 -22 12t-9 27l25 174q5 24 43 39l264 106l-236 107q-30 15 -30 39l24 174q3 15 16 27t27 12l420 -197q38 -17 35 -53z" />
    <glyph glyph-name="question" unicode="?" horiz-adv-x="874" 
d="M555 199l-23 -160q-2 -15 -15 -27t-30 -12h-163q-17 0 -28 12t-9 27l22 160q3 16 16.5 27.5t30.5 11.5h164q17 0 27.5 -12t7.5 -27zM469 952q-3 -16 -16.5 -28.5t-30.5 -12.5h-164q-17 0 -27.5 13t-7.5 28q20 114 79.5 189.5t138 107t175.5 31.5q145 0 233.5 -89
t70.5 -226l-11 -72q-6 -43 -22 -80.5t-45 -72.5t-48.5 -55t-58.5 -56q-46 -41 -71 -66.5t-48.5 -65t-29.5 -79.5l-6 -41q-2 -15 -15 -27t-30 -12h-164q-17 0 -28 12t-9 27l14 96q7 46 33.5 90t51.5 69t73 68q38 34 57.5 53t46.5 50.5t41 64t19 68.5l4 33q5 44 -18.5 75
t-67.5 31q-48 0 -77 -27t-42 -96z" />
    <glyph glyph-name="at" unicode="@" horiz-adv-x="1185" 
d="M913 428l19 139q8 47 -11.5 77t-64.5 30q-41 0 -68.5 -30t-35.5 -77l-19 -139q-6 -46 13.5 -76t60.5 -30q45 0 72.5 29.5t33.5 76.5zM909 168l4 35q-58 -51 -107 -67.5t-104 -16.5q-102 0 -152.5 72.5t-35.5 179.5l37 256q14 110 84 181t190 71q109 0 170 -84l6 49
q5 22 2.5 48.5t-7.5 54.5t-22.5 54.5t-41.5 47t-65 33t-93 12.5h-55q-76 0 -135 -26t-92.5 -67.5t-51 -80.5t-22.5 -76l-88 -631q-5 -21 -2 -47t8.5 -52.5t23.5 -52t42.5 -45t65.5 -31.5t93 -12h172q12 0 18.5 -7.5t6.5 -18.5l-19 -133q-9 -27 -32 -27h-179
q-111 0 -197.5 34t-135.5 89.5t-70.5 122.5t-11.5 137l102 727q10 69 49 137t97.5 123t142 89t174.5 34h186q73 0 136 -22.5t106.5 -60t72.5 -86.5t39.5 -104t2.5 -110l-103 -729q-1 -14 -14 -24.5t-27 -12.5h-139q-13 2 -21.5 12.5t-7.5 24.5z" />
    <glyph glyph-name="A" unicode="A" horiz-adv-x="901" 
d="M604 365l-33 503l-172 -503h205zM512 1266h229q16 0 25.5 -11.5t11.5 -27.5l99 -1188q-2 -15 -15.5 -27t-30.5 -12h-161q-16 0 -25.5 11.5t-11.5 27.5l-8 123h-303l-46 -123q-12 -39 -45 -39h-161q-17 0 -28 12t-9 27l434 1188q12 39 45 39z" />
    <glyph glyph-name="B" unicode="B" horiz-adv-x="894" 
d="M483 1063l-45 -322h97q50 0 95.5 40t55.5 114l2 16q10 74 -24 113t-84 39h-97zM489 205q48 0 95 47t57 121q10 73 -24 117.5t-82 44.5h-125l-45 -330h124zM307 1266h303q152 0 250 -93.5t76 -252.5l-6 -33q-8 -65 -47.5 -130.5t-98.5 -97.5q44 -18 79.5 -108t25.5 -172
l-2 -14q-24 -162 -149.5 -263.5t-274.5 -101.5h-332q-17 0 -28 12t-9 29l168 1186q2 15 15 27t30 12z" />
    <glyph glyph-name="C" unicode="C" horiz-adv-x="860" 
d="M717 942q8 68 -25.5 100.5t-87.5 32.5q-52 0 -94.5 -34t-52.5 -103l-86 -610q-10 -69 24 -103.5t86 -34.5q51 0 94 34t56 100q2 15 16 28t31 13h164q17 0 27 -12.5t8 -28.5q-29 -145 -148.5 -240.5t-275.5 -95.5q-163 0 -255.5 100t-70.5 252l82 586q22 153 142 253.5
t282 100.5q157 0 251 -96t79 -242q-2 -15 -16.5 -28t-31.5 -13h-163q-17 0 -27 12.5t-8 28.5z" />
    <glyph glyph-name="D" unicode="D" horiz-adv-x="907" 
d="M463 0h-332q-17 0 -28 12t-9 27l168 1188q2 15 15 27t30 12h332q161 0 254.5 -101.5t71.5 -255.5l-78 -555q-22 -153 -142 -253.5t-282 -100.5zM639 340l82 584q10 69 -24.5 103t-86.5 34h-127l-121 -858h127q53 0 96.5 34t53.5 103z" />
    <glyph glyph-name="E" unicode="E" horiz-adv-x="763" 
d="M94 39l168 1188q2 15 15 27t30 12h524q15 0 25.5 -12t9.5 -29l-18 -123q-1 -17 -15 -29t-30 -12h-320l-51 -363h223q15 0 25.5 -12t9.5 -29l-18 -122q-1 -17 -15 -29t-30 -12h-224l-38 -289h319q15 0 24.5 -12t8.5 -29l-19 -123q-1 -17 -14.5 -29t-28.5 -12h-524
q-17 0 -28 12t-9 27z" />
    <glyph glyph-name="F" unicode="F" horiz-adv-x="692" 
d="M403 494l-63 -455q-2 -15 -15 -27t-30 -12h-164q-17 0 -28 12t-9 27l168 1188q2 15 15 27t30 12h524q15 0 25.5 -12t9.5 -29l-18 -123q-1 -17 -15 -29t-30 -12h-320l-51 -363h223q15 0 25.5 -12t9.5 -29l-18 -122q-1 -17 -15 -29t-30 -12h-224z" />
    <glyph glyph-name="G" unicode="G" horiz-adv-x="921" 
d="M838 47l-4 -18q0 -9 -10.5 -19t-22.5 -10h-105q-10 0 -18 9.5t-8 19.5l8 45q-49 -43 -111 -65.5t-112 -22.5q-165 0 -257.5 100.5t-70.5 253.5l82 586q22 153 141.5 253.5t284.5 100.5q161 0 254.5 -101t71.5 -253l-5 -23q-2 -16 -15 -28.5t-30 -12.5h-163
q-17 0 -28 12.5t-9 28.5l6 37q10 68 -24.5 101.5t-86.5 33.5q-53 0 -96 -33.5t-53 -101.5l-86 -612q-10 -68 24.5 -103t87.5 -35q52 0 95 35t53 103l28 198h-96q-4 0 -9 6.5t-5 12.5l20 145q0 5 6.5 10t12.5 5h330q4 0 10 -13z" />
    <glyph glyph-name="H" unicode="H" horiz-adv-x="917" 
d="M963 1266q17 0 27.5 -12t8.5 -27l-168 -1188q-2 -15 -15 -27t-30 -12h-163q-17 0 -28 12t-9 27l63 448h-246l-63 -448q-2 -15 -15 -27t-30 -12h-164q-17 0 -28 12t-9 27l168 1188q2 15 15 27t30 12h164q17 0 28 -12t9 -27l-76 -533h246l76 533q2 15 15 27t30 12h164z" />
    <glyph glyph-name="I" unicode="I" horiz-adv-x="425" 
d="M508 1227l-168 -1188q-2 -15 -15 -27t-30 -12h-164q-17 0 -28 12t-9 27l168 1188q2 15 15 27t30 12h164q17 0 28 -12t9 -27z" />
    <glyph glyph-name="J" unicode="J" horiz-adv-x="808" 
d="M311 344l-6 -47q-6 -45 18.5 -76t69.5 -31q46 0 80.5 32t40.5 81l131 924q2 15 15 27t30 12h164q17 0 28 -12t9 -27l-131 -924q-20 -138 -134.5 -227.5t-260.5 -89.5t-236 89.5t-70 227.5l7 41q3 16 16.5 27.5t30.5 11.5h163q17 0 27.5 -12t7.5 -27z" />
    <glyph glyph-name="K" unicode="K" horiz-adv-x="894" 
d="M606 39l-96 418l-145 -244l-25 -174q-2 -15 -15 -27t-30 -12h-164q-17 0 -28 12t-9 27l168 1188q2 15 15 27t30 12h164q17 0 28 -12t9 -27l-72 -502l312 502q20 39 45 39h188q17 0 28 -12t9 -27l-311 -502l163 -686q-2 -15 -15 -27t-30 -12h-182q-25 0 -37 39z" />
    <glyph glyph-name="L" unicode="L" horiz-adv-x="733" 
d="M655 0h-524q-17 0 -28 12t-9 27l168 1188q2 15 15 27t30 12h164q17 0 28 -12t9 -27l-143 -1022h319q15 0 24.5 -12t8.5 -29l-19 -123q-1 -17 -14.5 -29t-28.5 -12z" />
    <glyph glyph-name="M" unicode="M" horiz-adv-x="1110" 
d="M633 281h-78q-14 0 -23 22l-98 410l-94 -674q-2 -15 -15 -27t-30 -12h-164q-17 0 -28 12t-9 27l168 1188q2 15 15 27t30 12h197q29 0 37 -31l114 -510l258 510q15 31 45 31h197q17 0 28 -12t9 -27l-168 -1188q-2 -15 -15 -27t-30 -12h-164q-17 0 -28 12t-9 27l94 674
l-213 -410q-3 -8 -11 -15t-15 -7z" />
    <glyph glyph-name="N" unicode="N" horiz-adv-x="921" 
d="M489 1235l187 -588l82 580q2 15 15 27t30 12h164q17 0 28 -12t9 -27l-168 -1188q-2 -15 -15 -27t-30 -12h-146q-15 0 -25 9.5t-12 21.5l-188 577l-80 -569q-2 -15 -15 -27t-30 -12h-164q-17 0 -28 12t-9 27l168 1188q2 15 15 27t30 12h146q28 0 36 -31z" />
    <glyph glyph-name="O" unicode="O" horiz-adv-x="913" 
d="M483 190q53 0 96.5 34.5t53.5 103.5l86 610q10 69 -24.5 103t-88.5 34t-96.5 -34t-52.5 -103l-86 -610q-10 -69 24 -103.5t88 -34.5zM635 1280q164 0 257 -100.5t71 -253.5l-82 -586q-22 -153 -142 -253.5t-284 -100.5t-257 100.5t-71 253.5l82 586q22 153 142 253.5
t284 100.5z" />
    <glyph glyph-name="P" unicode="P" horiz-adv-x="886" 
d="M633 1266q149 0 246 -98t75 -261l-34 -243q-15 -107 -80.5 -190t-154.5 -124t-185 -41h-119l-39 -270q-2 -15 -16 -27t-31 -12h-162q-18 0 -29.5 12t-9.5 27l168 1188q2 15 15.5 27t31.5 12h324zM678 672l31 231q11 73 -23.5 115.5t-85.5 42.5h-115l-75 -549h114
q50 0 96.5 43.5t57.5 116.5z" />
    <glyph glyph-name="Q" unicode="Q" horiz-adv-x="954" 
d="M934 172q13 0 23 -10.5t8 -24.5l-17 -114q-2 -14 -14 -25.5t-25 -11.5l-485 2q-151 9 -235 107.5t-62 242.5l82 586q22 154 142 255t284 101t257 -101t71 -255l-82 -586q-12 -91 -66 -166h119zM371 326q-10 -69 24 -102.5t88 -33.5t97 33.5t53 102.5l86 610
q10 69 -24.5 104t-88.5 35q-53 0 -96 -34.5t-53 -104.5z" />
    <glyph glyph-name="R" unicode="R" 
d="M932 745q-13 -91 -64 -164t-125 -120l80 -422q-2 -14 -16 -26.5t-31 -12.5h-153q-26 0 -39 39l-62 352h-133l-49 -352q-2 -14 -15 -26.5t-30 -12.5h-164q-17 0 -28 12.5t-9 26.5l168 1190q2 14 15 25.5t30 11.5h326q149 0 246 -98t75 -261zM483 1061l-65 -467h117
q50 0 96.5 43.5t56.5 116.5l21 149q11 73 -23.5 115.5t-85.5 42.5h-117z" />
    <glyph glyph-name="S" unicode="S" horiz-adv-x="858" 
d="M106 346q3 15 18 27t32 12h163q17 0 27 -11.5t8 -27.5q-6 -26 -3 -53.5t12 -50t37.5 -37.5t74.5 -15q117 0 142 128q1 3 1 4q10 73 -29 118t-128 92q-57 30 -86.5 48t-76.5 55.5t-69 74.5t-35 94.5t-4 125.5q52 350 410 350q85 0 147 -26t93.5 -63t48.5 -88t20 -90.5
t0 -82.5q-2 -15 -16 -27t-31 -12h-164q-16 0 -26 11.5t-10 27.5q5 145 -95 145q-109 0 -129 -131q-12 -93 72 -157q31 -24 113 -68q112 -60 157 -102q111 -102 86 -273q-13 -96 -55 -167.5t-102.5 -112t-128.5 -59.5t-144 -19q-71 0 -131.5 19.5t-110.5 59.5t-74 112.5
t-14 168.5z" />
    <glyph glyph-name="T" unicode="T" horiz-adv-x="724" 
d="M244 39l143 1022h-172q-15 0 -24.5 12t-8.5 29l19 123q1 17 14.5 29t28.5 12h590q15 0 25 -12t9 -29l-18 -123q-1 -17 -15 -29t-30 -12h-172l-144 -1022q-2 -15 -15 -27t-30 -12h-163q-17 0 -28 12t-9 27z" />
    <glyph glyph-name="U" unicode="U" horiz-adv-x="933" 
d="M465 -14q-164 0 -257 100.5t-71 253.5l125 887q2 15 15 27t30 12h164q17 0 28 -12t9 -27l-127 -899q-10 -69 24.5 -103.5t88.5 -34.5q53 0 96 34t53 104l127 899q2 15 15 27t30 12h164q17 0 28 -12t9 -27l-125 -887q-22 -153 -142 -253.5t-284 -100.5z" />
    <glyph glyph-name="V" unicode="V" horiz-adv-x="901" 
d="M508 416l293 811q12 39 45 39h162q17 0 27.5 -12t8.5 -27l-434 -1188q-12 -39 -45 -39h-229q-16 0 -25.5 11.5t-11.5 27.5l-98 1188q2 15 15 27t30 12h162q32 0 36 -39z" />
    <glyph glyph-name="W" unicode="W" horiz-adv-x="1208" 
d="M727 1266h107q33 0 36 -39l29 -725l217 727q12 39 45 39h164q17 0 28 -12t9 -27l-385 -1184q-17 -42 -47 -45h-185q-31 3 -34 45l-33 483l-168 -483q-17 -42 -47 -45h-184q-32 3 -35 45l-54 1184q2 15 15.5 27t30.5 12h163q16 0 25.5 -11.5t11.5 -27.5l13 -727l233 725
q4 18 16.5 28.5t28.5 10.5z" />
    <glyph glyph-name="X" unicode="X" 
d="M571 37l-86 301l-172 -301l-6 -9t-5.5 -9t-5.5 -7.5t-7.5 -6.5t-8 -3.5t-10.5 -1.5h-182q-17 0 -28 12t-9 27l344 575l-194 613q2 15 15 27t30 12h188q7 0 11.5 -1.5t8.5 -7t5.5 -7.5t5.5 -11t4 -10l94 -336l189 336l6 9t5.5 9t5.5 7.5t7.5 6.5t8 3.5t10.5 1.5h188
q17 0 28 -12t9 -27l-367 -613l181 -575q-2 -15 -15.5 -27t-30.5 -12h-182q-7 0 -11.5 1.5t-8.5 7t-5.5 7.5t-5.5 11t-4 10z" />
    <glyph glyph-name="Y" unicode="Y" 
d="M621 434l-56 -395q-2 -15 -15 -27t-30 -12h-164q-17 0 -28 12t-9 27l56 395l-185 793q2 15 15.5 27t30.5 12h165q25 0 37 -39l107 -463l237 463q20 39 45 39h166q17 0 28 -12t9 -27z" />
    <glyph glyph-name="Z" unicode="Z" horiz-adv-x="784" 
d="M854 1063l-496 -858h347q15 0 24.5 -12t7.5 -29l-18 -123q-1 -17 -14.5 -29t-28.5 -12h-565q-17 0 -28 12t-9 27l18 131q1 8 3.5 14.5t5 11.5l3.5 7l490 858h-338q-15 0 -24.5 12t-8.5 29l19 123q1 17 14.5 29t28.5 12h565q17 0 28 -12t9 -27l-19 -127q-2 -19 -14 -37z
" />
    <glyph glyph-name="bracketleft" unicode="[" horiz-adv-x="593" 
d="M342 1511h334q15 0 25.5 -12t7.5 -29l-17 -122q-3 -17 -16.5 -29t-28.5 -12h-129l-188 -1344h129q15 0 25.5 -12t7.5 -29l-17 -123q-3 -17 -16.5 -29t-28.5 -12h-334q-17 0 -27.5 12t-7.5 27l236 1676q2 15 15 26.5t30 11.5z" />
    <glyph glyph-name="backslash" unicode="\" horiz-adv-x="731" 
d="M516 1473l96 -1676q-3 -15 -17.5 -27t-31.5 -12h-137q-16 0 -25.5 11.5t-9.5 27.5l-94 1676q2 15 15 26.5t30 11.5h137q33 0 37 -38z" />
    <glyph glyph-name="bracketright" unicode="]" horiz-adv-x="593" 
d="M340 1511h334q17 0 28 -11.5t9 -26.5l-236 -1676q-3 -16 -16.5 -27.5t-30.5 -11.5h-334q-15 0 -25.5 12t-7.5 29l17 123q3 17 16.5 29t28.5 12h129l188 1344h-129q-15 0 -25 12t-7 29l16 122q3 17 16.5 29t28.5 12z" />
    <glyph glyph-name="asciicircum" unicode="^" horiz-adv-x="696" 
d="M416 1266h217q29 0 37 -39l59 -338q-2 -15 -15 -27t-30 -12h-115q-29 0 -37 39l-28 219l-94 -219q-16 -39 -45 -39h-115q-17 0 -28 12t-9 27l158 338q16 39 45 39z" />
    <glyph glyph-name="underscore" unicode="_" horiz-adv-x="851" 
d="M63 -180l19 127q2 15 16 27t31 12h592q15 0 24.5 -12t8.5 -29l-19 -123q-1 -17 -15 -29t-30 -12h-592q-17 0 -27 11.5t-8 27.5z" />
    <glyph glyph-name="grave" unicode="`" horiz-adv-x="483" 
d="M510 1229l12 -309q-3 -15 -15.5 -26t-27.5 -13h-133q-25 3 -29 39l-55 309q1 14 13 24.5t26 12.5h174q15 -1 24 -11.5t11 -25.5z" />
    <glyph glyph-name="a" unicode="a" 
d="M877 942q17 0 27 -12t7 -27l-120 -866q-2 -14 -16.5 -26.5t-31.5 -12.5h-149q-16 0 -26.5 12.5t-8.5 26.5l4 26q-44 -35 -88 -53.5t-71 -22t-66 -3.5q-107 0 -173.5 75t-51.5 179l65 462q13 104 101.5 180t195.5 76q37 0 62 -4t64.5 -24.5t74.5 -59.5l4 35
q3 16 16.5 27.5t30.5 11.5h150zM582 295l49 348q6 46 -20.5 77.5t-73.5 31.5q-42 0 -77.5 -32t-41.5 -77l-49 -348q-6 -43 20.5 -75t67.5 -32q46 0 82.5 31.5t42.5 75.5z" />
    <glyph glyph-name="b" unicode="b" 
d="M668 956q107 0 174 -75t53 -179l-66 -462q-15 -104 -103.5 -180t-195.5 -76q-38 0 -63.5 3.5t-63.5 23t-73 55.5l-4 -27q-2 -15 -15 -27t-30 -12h-150q-17 0 -28 12t-9 27l168 1188q2 15 15 27t30 12h164q17 0 28 -12t9 -27l-49 -344q43 33 85 50.5t65 20t59 2.5z
M590 297l49 348q6 45 -21 77t-69 32q-47 0 -82 -31.5t-41 -77.5l-49 -348q-6 -44 20 -76.5t72 -32.5q41 0 78 33t43 76z" />
    <glyph glyph-name="c" unicode="c" horiz-adv-x="839" 
d="M430 -14q-146 0 -237.5 89.5t-71.5 227.5l45 320q20 143 133.5 238t265.5 95t236.5 -95t64.5 -238q-2 -15 -15 -27t-30 -12h-164q-17 0 -27.5 12t-8.5 27l4 22q6 45 -18 76t-70 31q-45 0 -80 -31t-41 -76l-49 -348q-6 -45 20.5 -76t71.5 -31q46 0 78 30.5t38 76.5l3 22
q3 16 16.5 27.5t30.5 11.5h163q17 0 27.5 -12t7.5 -27q-20 -143 -131 -238t-262 -95z" />
    <glyph glyph-name="d" unicode="d" 
d="M475 956q36 0 58.5 -2.5t60 -20t70.5 -50.5l49 344q2 15 15 27t30 12h164q17 0 27.5 -12t8.5 -27l-167 -1188q-2 -15 -15.5 -27t-30.5 -12h-149q-17 0 -28 12t-9 27l4 27q-44 -36 -88 -55.5t-71 -23t-66 -3.5q-107 0 -173.5 76t-51.5 180l65 462q13 104 101 179t196 75z
M418 645l-49 -348q-6 -43 20.5 -76t67.5 -33q46 0 82.5 32.5t42.5 76.5l49 348q6 46 -20.5 77.5t-73.5 31.5q-42 0 -77.5 -32t-41.5 -77z" />
    <glyph glyph-name="e" unicode="e" horiz-adv-x="856" 
d="M416 645l-10 -65h204l11 65q6 45 -19 76t-70 31q-46 0 -78 -30.5t-38 -76.5zM559 248q15 30 39 33h180q13 -1 22 -11t7 -22q-33 -117 -140 -189.5t-239 -72.5q-94 0 -168.5 39.5t-113 113t-25.5 164.5l45 320q20 143 132 238t265 95q151 0 235 -95t64 -238l-26 -187
q-1 -17 -14.5 -29t-28.5 -12h-412l-14 -98q-6 -45 19 -76t71 -31q35 0 63.5 17.5t38.5 40.5z" />
    <glyph glyph-name="f" unicode="f" horiz-adv-x="575" 
d="M152 39l100 706h-90q-15 0 -25.5 12t-9.5 29l16 115q3 17 16.5 29t28.5 12h91q14 96 43 161t74.5 100t99.5 49t127 14h65q15 0 25.5 -12t9.5 -29l-16 -107q-1 -17 -15 -29t-30 -12q-75 -3 -101 -26t-31 -68l-6 -41h125q15 0 25.5 -12t7.5 -29l-16 -117q-1 -17 -14.5 -29
t-28.5 -12h-125l-101 -704q-2 -15 -15 -27t-30 -12h-164q-17 0 -27.5 12t-8.5 27z" />
    <glyph glyph-name="g" unicode="g" 
d="M877 940q17 0 27 -11t7 -26l-133 -950q-15 -107 -119.5 -186.5t-228.5 -79.5h-18q-118 0 -203 70.5t-76 168.5q3 16 16.5 27.5t30.5 11.5h142q28 0 38 -33q18 -59 86 -59q35 0 66.5 28t38.5 72l22 162q-63 -51 -115 -66.5t-110 -15.5q-107 0 -173.5 76t-51.5 180l55 391
q14 104 102 181t195 77q36 0 62 -4.5t65 -25.5t74 -60l4 35q3 15 16.5 26t30.5 11h150zM592 367l39 278q6 46 -20.5 76.5t-73.5 30.5q-42 0 -77.5 -31t-41.5 -76l-39 -278q-6 -43 20.5 -75t67.5 -32q46 0 82.5 31.5t42.5 75.5z" />
    <glyph glyph-name="h" unicode="h" 
d="M94 39l168 1188q2 15 15 27t30 12h164q17 0 28 -12t9 -27l-49 -346q43 34 84.5 51.5t66 20.5t58.5 3q107 0 174 -75.5t53 -180.5l-94 -661q-2 -15 -15 -27t-30 -12h-164q-17 0 -28 12t-9 27l86 604q6 45 -22 77t-70 32q-47 0 -82 -31.5t-41 -77.5l-86 -604
q-2 -15 -15 -27t-30 -12h-164q-17 0 -28 12t-9 27z" />
    <glyph glyph-name="i" unicode="i" horiz-adv-x="425" 
d="M461 903l-121 -864q-2 -15 -15 -27t-30 -12h-164q-17 0 -28 12t-9 27l121 864q3 16 16.5 27.5t30.5 11.5h164q17 0 27.5 -12t7.5 -27zM512 1260l-27 -185q-2 -15 -15 -27t-30 -12h-164q-17 0 -27.5 12t-8.5 27l26 185q2 15 16 26.5t31 11.5h164q17 0 27 -11.5t8 -26.5z
" />
    <glyph glyph-name="j" unicode="j" horiz-adv-x="425" 
d="M512 1260l-27 -185q-2 -15 -15 -27t-30 -12h-164q-17 0 -27.5 12t-8.5 27l26 185q2 15 16 26.5t31 11.5h164q17 0 27 -11.5t8 -26.5zM-4 -319h-64q-15 0 -25 11.5t-9 28.5l18 123q1 17 15 29t30 12q19 1 34 3.5t26.5 5.5t21 10t15.5 11.5t11.5 16t8 17t6 21t4.5 22
t4 24.5l123 887q3 16 16.5 27.5t30.5 11.5h164q17 0 27.5 -12t7.5 -27l-123 -883q-14 -99 -43.5 -166.5t-74.5 -104.5t-98.5 -52.5t-125.5 -15.5z" />
    <glyph glyph-name="k" unicode="k" horiz-adv-x="847" 
d="M508 397l-143 -184l-25 -174q-2 -15 -15 -27t-30 -12h-164q-17 0 -28 12t-9 27l168 1188q2 15 15 27t30 12h164q17 0 28 -12t9 -27l-88 -617l231 295q23 35 45 37h172q17 -2 27.5 -13t7.5 -26l-203 -264l144 -600q-1 -15 -14.5 -26t-30.5 -13h-158q-27 3 -37 37z" />
    <glyph glyph-name="l" unicode="l" horiz-adv-x="425" 
d="M508 1227l-168 -1188q-2 -15 -15 -27t-30 -12h-164q-17 0 -28 12t-9 27l168 1188q2 15 15 27t30 12h164q17 0 28 -12t9 -27z" />
    <glyph glyph-name="m" unicode="m" horiz-adv-x="1259" 
d="M1278 700l-94 -661q-2 -15 -15 -27t-30 -12h-164q-17 0 -28 12t-9 27l86 606q6 46 -16 76.5t-66 30.5q-41 0 -69.5 -29.5t-34.5 -73.5l-86 -610q-2 -15 -15 -27t-30 -12h-146q-17 0 -28 12t-9 27l86 606q6 47 -13.5 77t-64.5 30q-43 0 -71.5 -29.5t-34.5 -75.5l-86 -608
q-2 -15 -15 -27t-30 -12h-164q-17 0 -28 12t-9 27l121 864q3 16 16.5 27.5t30.5 11.5h150q17 0 27 -12t7 -27l-4 -35q68 57 113 72.5t98 15.5q115 0 181 -118q109 116 231 116q105 0 166 -74.5t47 -179.5z" />
    <glyph glyph-name="n" unicode="n" 
d="M895 700l-94 -661q-2 -15 -15 -27t-30 -12h-164q-17 0 -28 12t-9 27l86 604q6 45 -22 77t-70 32q-47 0 -82 -31.5t-41 -77.5l-86 -604q-2 -15 -15 -27t-30 -12h-164q-17 0 -28 12t-9 27l121 864q3 16 16.5 27.5t30.5 11.5h150q17 0 27 -12t7 -27l-4 -35q47 39 92 59.5
t71 24.5t63 4q107 0 174 -75.5t53 -180.5z" />
    <glyph glyph-name="o" unicode="o" horiz-adv-x="860" 
d="M563 956q152 0 237.5 -95t65.5 -238l-45 -318q-18 -138 -132.5 -227.5t-260.5 -89.5t-235.5 89.5t-71.5 227.5l45 318q20 143 132.5 238t264.5 95zM457 190q45 0 77.5 31t38.5 76l50 348q6 45 -18.5 76t-69.5 31t-78 -31t-39 -76l-49 -348q-6 -45 18.5 -76t69.5 -31z" />
    <glyph glyph-name="p" unicode="p" 
d="M530 -16q-35 0 -57 2.5t-59.5 20t-71.5 50.5l-47 -338q-2 -15 -15 -26.5t-30 -11.5h-164q-17 0 -28 11.5t-9 26.5l166 1182q3 16 16.5 27.5t30.5 11.5h150q17 0 27 -12t7 -27l-2 -27q44 36 87.5 55.5t70.5 23t66 3.5q107 0 174 -75.5t53 -180.5l-66 -462
q-15 -104 -103.5 -179t-195.5 -75zM590 295l49 348q6 43 -21.5 76t-68.5 33q-46 0 -81.5 -32.5t-41.5 -76.5l-49 -348q-6 -46 19.5 -77.5t72.5 -31.5q42 0 78.5 32t42.5 77z" />
    <glyph glyph-name="q" unicode="q" 
d="M338 -16q-107 0 -173.5 75t-51.5 179l65 462q13 104 101.5 180t195.5 76q39 0 65 -3.5t64.5 -23t73.5 -55.5l2 27q3 16 16.5 27.5t30.5 11.5h150q17 0 27 -12t7 -27l-166 -1182q-2 -15 -15 -26.5t-30 -11.5h-163q-17 0 -28 11.5t-9 26.5l47 338q-42 -33 -84 -50.5
t-65.5 -20t-59.5 -2.5zM418 643l-49 -348q-6 -45 20 -77t68 -32q47 0 83 31.5t42 77.5l49 348q6 44 -21 76.5t-73 32.5q-41 0 -77 -33t-42 -76z" />
    <glyph glyph-name="r" unicode="r" horiz-adv-x="626" 
d="M670 717h-8q-33 0 -70.5 -12t-78.5 -37.5t-71.5 -74.5t-40.5 -114l-61 -440q-2 -15 -15 -27t-30 -12h-164q-17 0 -28 12t-9 27l121 864q3 16 16.5 27.5t30.5 11.5h150q17 0 27 -12t7 -27l-10 -86q61 64 131 100.5t135 36.5q15 0 25.5 -12t7.5 -29l-20 -155
q-3 -17 -16.5 -29t-28.5 -12z" />
    <glyph glyph-name="s" unicode="s" horiz-adv-x="739" 
d="M80 248q1 15 15.5 26t31.5 11h127q35 0 41 -37q2 -27 25.5 -45.5t62.5 -18.5q49 0 76 14.5t33 51.5q3 26 -14.5 48.5t-37 34.5t-59.5 32q-31 15 -51.5 25.5t-54 31.5t-54.5 44t-41.5 53.5t-27 69.5t-0.5 83q10 74 46.5 130.5t87.5 88.5t107 47.5t113 15.5
q115 0 196 -68.5t84 -201.5q-2 -15 -15 -26t-30 -11h-127q-28 0 -41 37q-3 26 -26.5 47t-57.5 21q-3 0 -9 -0.5t-20.5 -4.5t-26 -11.5t-22.5 -23.5t-14 -38q-2 -11 1.5 -22.5t13 -22.5t19.5 -20.5t28.5 -22t32 -21t37.5 -23.5t38 -24q37 -24 55.5 -36.5t48 -39t42.5 -50.5
t21.5 -61t2.5 -79q-5 -32 -18.5 -65.5t-42.5 -70.5t-68 -65t-100.5 -46.5t-134.5 -18.5q-69 0 -122.5 18.5t-84.5 45.5t-50.5 64.5t-27 69t-8.5 64.5z" />
    <glyph glyph-name="t" unicode="t" horiz-adv-x="606" 
d="M518 0h-72q-58 0 -100.5 9t-78.5 32t-53.5 61.5t-25 97.5t6.5 140l57 405h-90q-15 0 -25.5 12t-9.5 29l16 115q3 17 16.5 29t28.5 12h91l30 223q3 16 16.5 27.5t30.5 11.5h164q17 0 27.5 -12t7.5 -27l-31 -223h125q15 0 25.5 -12t7.5 -29l-16 -117q-1 -17 -14.5 -29
t-28.5 -12h-125l-58 -407q-10 -64 10 -95.5t97 -35.5q15 0 24.5 -12t8.5 -29l-19 -123q-1 -17 -14.5 -29t-28.5 -12z" />
    <glyph glyph-name="u" unicode="u" 
d="M113 242l92 661q3 16 16.5 27.5t30.5 11.5h164q17 0 27.5 -12t7.5 -27l-84 -604q-6 -45 22 -77t70 -32q47 0 82 31.5t41 77.5l84 604q3 16 16.5 27.5t30.5 11.5h164q17 0 27 -12t7 -27l-120 -864q-2 -15 -15.5 -27t-30.5 -12h-149q-17 0 -28 12t-9 27l6 35
q-47 -39 -91.5 -59.5t-70.5 -24.5t-63 -4q-107 0 -174 75.5t-53 180.5z" />
    <glyph glyph-name="v" unicode="v" horiz-adv-x="770" 
d="M530 0h-290q-32 3 -35 45l-62 858q3 15 16.5 26.5t30.5 12.5h164q15 -1 25 -12.5t10 -26.5l35 -620l207 620q6 15 19 26.5t28 12.5h164q17 -2 27.5 -13t7.5 -26l-299 -858q-17 -42 -48 -45z" />
    <glyph glyph-name="w" unicode="w" horiz-adv-x="1101" 
d="M725 942q37 0 37 -39l43 -512l147 510q3 16 16.5 27.5t30.5 11.5h164q17 0 27.5 -12t7.5 -27l-283 -856q-17 -42 -47 -45h-204q-32 3 -35 45l-29 309l-115 -309q-17 -42 -47 -45h-205q-31 3 -34 45l-45 856q3 16 16.5 27.5t30.5 11.5h164q17 0 27 -12t7 -27l4 -510
l187 512q12 39 47 39h88z" />
    <glyph glyph-name="x" unicode="x" horiz-adv-x="765" 
d="M483 37l-67 196l-125 -196q-8 -14 -25 -25.5t-33 -11.5h-174q-17 0 -27.5 12t-8.5 27l296 430l-176 434q3 16 16.5 27.5t30.5 11.5h175q16 0 30 -11.5t19 -25.5l67 -196l125 196q8 14 25 25.5t33 11.5h174q17 0 27 -12t7 -27l-294 -434l174 -430q-2 -15 -15 -27t-30 -12
h-175q-16 0 -30 11.5t-19 25.5z" />
    <glyph glyph-name="y" unicode="y" horiz-adv-x="778" 
d="M162 -281l114 293l-133 891q3 15 16.5 26.5t30.5 12.5h164q15 -1 25 -12.5t10 -26.5l72 -469l178 469q6 15 19 26.5t28 12.5h164q17 -2 27.5 -13t7.5 -26l-473 -1184q-14 -35 -45 -38h-168q-17 2 -27.5 12.5t-9.5 25.5z" />
    <glyph glyph-name="z" unicode="z" horiz-adv-x="669" 
d="M725 739l-393 -534h289q15 0 24.5 -12t7.5 -29l-18 -123q-1 -17 -14.5 -29t-28.5 -12h-512q-17 0 -28 12t-9 27l18 131q2 16 13 33l395 534h-289q-15 0 -25.5 12t-7.5 29l17 123q3 17 16.5 29t28.5 12h512q17 0 27.5 -12t7.5 -27l-19 -131q-2 -18 -12 -33z" />
    <glyph glyph-name="braceleft" unicode="{" horiz-adv-x="718" 
d="M258 8l53 375q10 73 -24 111t-84 38q-15 0 -25.5 12t-7.5 29l16 125q3 17 16.5 29t28.5 12q50 0 95.5 39t56.5 113l51 369q15 112 91.5 181.5t181.5 69.5h94q15 0 25.5 -12t7.5 -29l-17 -122q-3 -17 -16.5 -29t-28.5 -12q-42 -2 -66 -19t-30 -61l-49 -344
q-10 -69 -53.5 -136.5t-120.5 -109.5q66 -43 90 -110t14 -136l-49 -348q-6 -44 14 -61t62 -19q15 0 25 -12t7 -29l-16 -123q-3 -17 -16.5 -29t-28.5 -12h-94q-105 0 -161.5 69t-41.5 181z" />
    <glyph glyph-name="bar" unicode="|" horiz-adv-x="425" 
d="M543 1473l-236 -1676q-3 -16 -16.5 -27.5t-30.5 -11.5h-164q-17 0 -27.5 12t-7.5 27l236 1676q2 15 15 26.5t30 11.5h164q17 0 28 -11.5t9 -26.5z" />
    <glyph glyph-name="braceright" unicode="}" horiz-adv-x="718" 
d="M514 383l-53 -375q-15 -112 -91.5 -181t-181.5 -69h-94q-15 0 -25.5 12t-7.5 29l17 123q3 17 16.5 29t28.5 12q42 2 66 19t30 61l49 348q10 69 53.5 136.5t120.5 109.5q-66 43 -90 110t-14 136l49 344q6 44 -14 61t-62 19q-15 0 -25 12t-7 29l16 122q3 17 16.5 29
t28.5 12h94q105 0 161.5 -69.5t41.5 -181.5l-51 -369q-11 -74 22.5 -113t83.5 -39q15 0 25.5 -12t7.5 -29l-16 -125q-3 -17 -16.5 -29t-28.5 -12q-51 0 -95.5 -38t-54.5 -111z" />
    <glyph glyph-name="asciitilde" unicode="~" horiz-adv-x="768" 
d="M549 360q-59 0 -119 33q-58 29 -78 29q-35 0 -78 -37q-10 -10 -22 -10q-14 0 -21 10l-67 100q-4 6 -4 19q3 13 14 24q111 99 180 99q9 0 18 -1.5t19 -5t15 -5.5t18 -8.5t16 -8.5q64 -33 111 -33q37 0 80 37q10 10 22 10q14 0 21 -10l67 -100q4 -6 4 -19q-3 -13 -14 -24
q-111 -99 -182 -99z" />
    <glyph glyph-name="uni00A0" unicode="&#xa0;" horiz-adv-x="378" 
 />
    <glyph glyph-name="exclamdown" unicode="&#xa1;" horiz-adv-x="425" 
d="M455 848l-115 -809q-2 -15 -15 -27t-30 -12h-164q-17 0 -28 12t-9 27l115 809q2 15 15 27t30 12h164q17 0 28 -12t9 -27zM508 1227l-27 -185q-2 -15 -16 -26.5t-31 -11.5h-164q-17 0 -26.5 11t-7.5 27l26 185q2 15 15 27t30 12h164q17 0 28 -12t9 -27z" />
    <glyph glyph-name="cent" unicode="&#xa2;" horiz-adv-x="931" 
d="M852 365q17 0 27 -12.5t8 -28.5q-23 -114 -102.5 -199t-192.5 -119l-84 -237q-11 -32 -41 -35h-164q-13 2 -21.5 12t-5.5 23l101 227q-126 26 -192.5 120.5t-47.5 223.5l82 586q17 124 101 216t208 124l99 274q3 14 14.5 24t26.5 11h163q11 -2 19.5 -12t7.5 -23
l-121 -270q118 -28 183 -117t53 -211q-2 -15 -16 -28t-31 -13h-164q-17 0 -27 12.5t-8 28.5q8 68 -25.5 100.5t-87.5 32.5q-52 0 -94.5 -34t-52.5 -103l-86 -610q-10 -69 24.5 -103.5t86.5 -34.5q51 0 93.5 34t55.5 100q2 15 16 28t31 13h164z" />
    <glyph glyph-name="sterling" unicode="&#xa3;" horiz-adv-x="1021" 
d="M346 682l35 250q22 143 135 238.5t264 95.5q150 0 226.5 -94.5t54.5 -239.5q-2 -15 -15 -27t-30 -12h-144q-17 0 -27.5 12t-8.5 27l4 22q6 45 -18 76t-70 31q-45 0 -80 -31t-41 -76l-39 -272h158q15 0 25 -12t7 -29l-16 -123q-1 -17 -15 -29t-30 -12h-158l-37 -272h389
q15 0 24.5 -12t8.5 -29l-18 -123q-1 -17 -14.5 -29t-28.5 -12h-756q-17 0 -28 12t-9 27l19 127q2 15 16 27t31 12h121l36 272h-120q-17 0 -27 11.5t-8 27.5l18 127q2 15 15 27t30 12h121z" />
    <glyph glyph-name="currency" unicode="&#xa4;" horiz-adv-x="929" 
d="M776 276l78 -90q8 -8 8 -22q-4 -15 -16 -25l-103 -90q-11 -8 -24 -8q-15 0 -23 8l-73 86q-65 -26 -144 -26q-76 0 -135 26l-98 -86q-13 -8 -27 -8q-15 0 -20 8l-78 90q-11 14 -8 25q0 10 12 22l102 90q-13 50 -6 115l19 131q9 56 39 115l-78 90q-9 13 -6 23q3 14 16 24
l102 90q8 8 23 8q13 0 24 -8l74 -86q68 27 144 27q74 0 135 -27l98 86q11 8 25 8t22 -8l78 -90q10 -14 8 -24q-4 -15 -14 -23l-103 -90q16 -54 7 -115l-19 -131q-6 -59 -39 -115zM608 373l25 168q5 39 -17.5 65.5t-62.5 26.5q-41 0 -70 -26.5t-34 -65.5l-25 -168
q-5 -39 17.5 -65.5t62.5 -26.5q41 0 70 26.5t34 65.5z" />
    <glyph glyph-name="yen" unicode="&#xa5;" horiz-adv-x="1019" 
d="M289 510l18 127q3 16 16.5 27.5t30.5 11.5h37l-129 551q2 15 15 27t30 12h166q25 0 37 -39l106 -463l238 463q20 39 45 39h166q17 0 28 -12t9 -27l-285 -551h39q15 0 25.5 -12t7.5 -29l-17 -123q-3 -17 -16.5 -29t-28.5 -12h-116l-19 -37l-8 -67h129q15 0 24.5 -12
t8.5 -29l-19 -123q-1 -17 -14.5 -29t-28.5 -12h-129l-18 -123q-2 -15 -15 -27t-30 -12h-164q-17 0 -28 12t-9 27l19 123h-127q-17 0 -28 12t-9 27l18 127q2 15 16 27t31 12h127l8 67l-8 37h-112q-17 0 -28 12t-9 27z" />
    <glyph glyph-name="brokenbar" unicode="&#xa6;" horiz-adv-x="425" 
d="M543 1473l-84 -599q-3 -15 -16.5 -26.5t-30.5 -11.5h-164q-17 0 -27.5 11.5t-7.5 26.5l84 599q2 15 15 26.5t30 11.5h164q17 0 28 -11.5t9 -26.5zM391 399l-84 -602q-3 -16 -16.5 -27.5t-30.5 -11.5h-164q-17 0 -27.5 12t-7.5 27l84 602q2 15 16.5 27t31.5 12h163
q17 0 27 -11.5t8 -27.5z" />
    <glyph glyph-name="section" unicode="&#xa7;" horiz-adv-x="1007" 
d="M997 578q-6 -44 -27 -88t-71.5 -89.5t-120.5 -68.5q10 -37 4 -80q-5 -32 -18.5 -65.5t-42.5 -70.5t-68 -65t-100.5 -46.5t-134.5 -18.5q-69 0 -122.5 18.5t-84.5 45.5t-50.5 64.5t-27 69t-8.5 64.5q1 15 15.5 26t31.5 11h127q35 0 41 -37q2 -27 25.5 -45.5t62.5 -18.5
q49 0 76 14.5t33 51.5q3 26 -14.5 48.5t-37 34.5t-59.5 32q-31 15 -51.5 25.5t-54 31.5t-54.5 44t-41.5 53.5t-27 69.5t-0.5 83q13 100 71.5 164.5t141.5 93.5q-3 34 2 67q10 74 46.5 131t87.5 89t107 47.5t113 15.5q74 0 135.5 -27.5t103.5 -90t44 -152.5q-3 -15 -17 -26
t-31 -11h-127q-28 0 -38 37q-5 27 -29 47t-57 20q-3 0 -9 -0.5t-20.5 -4.5t-26.5 -11.5t-23 -23.5t-14 -38q-2 -11 1.5 -22.5t13 -22.5t19.5 -20.5t28.5 -21.5t32 -20.5t37 -23.5t38.5 -24q37 -24 55.5 -36.5t48 -39t42.5 -50.5t21.5 -61t2.5 -79zM684 508q58 0 66 55
q4 27 -36.5 67.5t-100 71.5t-105.5 31q-58 0 -66 -55q-6 -44 83 -107t159 -63z" />
    <glyph glyph-name="dieresis" unicode="&#xa8;" horiz-adv-x="712" 
d="M250 1141q7 52 48.5 88.5t94.5 36.5t85.5 -36.5t25.5 -88.5q-7 -54 -50 -91.5t-96 -37.5t-84 37.5t-24 91.5zM528 1141q7 52 49 88.5t95 36.5t85 -36.5t25 -88.5q-7 -54 -49.5 -91.5t-95.5 -37.5t-84.5 37.5t-24.5 91.5z" />
    <glyph glyph-name="copyright" unicode="&#xa9;" horiz-adv-x="1468" 
d="M909 1280q177 0 314 -86t202.5 -235t40.5 -326q-24 -174 -131 -322t-268 -234.5t-338 -86.5q-173 0 -308.5 86.5t-201 234.5t-41.5 322q25 177 132 326t266.5 235t332.5 86zM756 186q120 0 233.5 61.5t190 164.5t92.5 219q17 120 -30 224.5t-143 166t-216 61.5
q-116 0 -227.5 -61.5t-187.5 -166t-93 -224.5q-16 -116 30.5 -219t140.5 -164.5t210 -61.5zM1059 514v8q3 13 -4.5 22t-18.5 11h-143q-28 -3 -35 -33l-2 -12q-3 -25 -21.5 -42t-43.5 -17q-26 0 -40.5 17t-11.5 42l35 238q3 25 22.5 43t45.5 18q24 0 38 -18t11 -43l-4 -23
q-2 -12 5 -21t19 -10h144q12 2 21.5 10.5t10.5 20.5l3 10q15 106 -48.5 176t-175.5 70q-113 0 -197.5 -70t-99.5 -176l-30 -221q-15 -102 52 -170t175 -68t193 67.5t100 170.5z" />
    <glyph glyph-name="ordfeminine" unicode="&#xaa;" horiz-adv-x="704" 
d="M518 770l41 283q3 26 -12 42.5t-43 16.5q-24 0 -44.5 -17t-23.5 -42l-41 -283q-3 -24 12 -41.5t39 -17.5q28 0 48.5 17t23.5 42zM786 1233l-90 -643q-1 -13 -12 -23t-22 -10h-117q-12 0 -20 10t-7 23l2 16q-40 -37 -77.5 -48t-84.5 -11q-82 0 -128.5 57.5t-34.5 140.5
l45 332q12 83 75.5 141t145.5 58q97 0 145 -62l2 19q1 13 11.5 22t23.5 11h117q11 -2 19 -11t7 -22z" />
    <glyph glyph-name="guillemotleft" unicode="&#xab;" horiz-adv-x="1064" 
d="M147 416q6 52 43 116l156 259q22 37 60 40h155q14 -2 24 -13t9 -27l-156 -259q-37 -64 -43 -116q-8 -63 11 -117l81 -258q-1 -17 -14 -28t-29 -13h-155q-34 3 -49 41l-82 258q-19 54 -11 117zM639 416q6 52 43 116l156 259q22 37 59 40h156q14 -2 23.5 -13t8.5 -27
l-155 -259q-37 -64 -43 -116q-8 -65 10 -117l82 -258q-1 -17 -14 -28t-29 -13h-156q-34 3 -49 41l-82 258q-18 52 -10 117z" />
    <glyph glyph-name="logicalnot" unicode="&#xac;" horiz-adv-x="784" 
d="M201 522h524q17 0 28 -12t9 -27l-49 -344q-2 -15 -16 -27t-31 -12h-164q-17 0 -27 11.5t-8 27.5l25 178h-320q-15 0 -24.5 12t-8.5 29l19 123q1 17 14.5 29t28.5 12z" />
    <glyph glyph-name="uni00AD" unicode="&#xad;" horiz-adv-x="378" 
 />
    <glyph glyph-name="registered" unicode="&#xae;" horiz-adv-x="1468" 
d="M909 1280q177 0 314 -86t202.5 -235t40.5 -326q-24 -174 -131 -322t-268 -234.5t-338 -86.5q-173 0 -308.5 86.5t-201 234.5t-41.5 322q25 177 132 326t266.5 235t332.5 86zM756 186q120 0 233.5 61.5t190 164.5t92.5 219q17 120 -30 224.5t-143 166t-216 61.5
q-116 0 -227.5 -61.5t-187.5 -166t-93 -224.5q-16 -116 30.5 -219t140.5 -164.5t210 -61.5zM1145 688q-18 -132 -127 -207l22 -149q-1 -12 -10.5 -20.5t-21.5 -10.5h-144q-20 2 -24 31l-13 90h-67l-12 -90q-1 -11 -11.5 -20t-21.5 -11h-146q-11 2 -18 10.5t-6 20.5l88 622
q1 11 11.5 20t21.5 11h241q54 0 101.5 -18.5t82 -51.5t50.5 -84t8 -112zM815 811l-31 -215h68q30 0 58 27t34 71l4 21q6 44 -14.5 70t-50.5 26h-68z" />
    <glyph glyph-name="macron" unicode="&#xaf;" horiz-adv-x="720" 
d="M244 1100l18 127q2 15 15 27t30 12h461q15 0 25.5 -12t9.5 -29l-19 -123q-1 -17 -15 -29t-30 -12h-460q-17 0 -27 11.5t-8 27.5z" />
    <glyph glyph-name="degree" unicode="&#xb0;" horiz-adv-x="636" 
d="M424 756q-109 0 -160 64t-33 190q18 127 87.5 191.5t177.5 64.5q107 0 158.5 -65t33.5 -191t-87.5 -190t-176.5 -64zM449 920q23 0 42 23.5t25 66.5q11 88 -43 88q-23 0 -41 -21t-24 -67q-6 -43 6.5 -66.5t34.5 -23.5z" />
    <glyph glyph-name="plusminus" unicode="&#xb1;" horiz-adv-x="763" 
d="M739 752q15 0 25.5 -13t7.5 -28l-16 -125q-3 -15 -16.5 -28t-28.5 -13h-152l-29 -197q-1 -15 -11.5 -25t-24.5 -10h-136q-15 0 -23.5 10t-6.5 25l28 197h-149q-17 0 -27.5 13t-7.5 28l16 125q3 16 17 28.5t31 12.5h149l29 196q1 15 12.5 25t26.5 10h135q14 0 22 -10
t6 -25l-28 -196h151zM94 39l19 127q2 15 16 27t31 12h504q15 0 24.5 -12t7.5 -29l-18 -123q-1 -17 -14.5 -29t-28.5 -12h-504q-17 0 -28 12t-9 27z" />
    <glyph glyph-name="twosuperior" unicode="&#xb2;" horiz-adv-x="575" 
d="M395 729h166q9 0 14 -5t3 -13l-17 -123q-5 -19 -22 -19h-342q-9 2 -15.5 9t-5.5 16l14 92q8 58 37.5 107.5t67 83.5t74 64t64 63t32.5 67l2 14q3 35 -23 35q-27 0 -34 -47q-1 -9 -10.5 -16.5t-18.5 -7.5h-123q-9 0 -14.5 6t-3.5 14q14 103 77.5 157t149.5 54
q81 0 131.5 -51t40.5 -129l-6 -39q-6 -45 -31.5 -84.5t-58 -67.5t-64.5 -54.5t-56 -58.5t-28 -67z" />
    <glyph glyph-name="threesuperior" unicode="&#xb3;" horiz-adv-x="622" 
d="M641 780l-8 -55q-10 -78 -85 -130t-161 -52q-43 0 -79.5 11t-65 34t-42 62t-7.5 91q3 19 26 23h131q9 -2 15.5 -9t5.5 -16q-3 -21 7 -34t30 -13t33 12.5t16 32.5l8 56q3 19 -7 32t-30 13h-35q-13 0 -18 18l14 94q2 8 9 14.5t14 6.5h34q20 0 34 13t16 32l6 47q3 19 -6 32
t-29 13q-43 0 -49 -39q-1 -9 -10.5 -16t-18.5 -9h-131q-21 4 -18 23q14 100 85 149.5t162 49.5q86 0 146.5 -52t50.5 -131l-10 -63q-10 -73 -68 -117q45 -45 35 -123z" />
    <glyph glyph-name="acute" unicode="&#xb4;" horiz-adv-x="630" 
d="M256 1104l293 156q9 6 20 6q19 0 29 -13l94 -129q4 -13 2 -22q-4 -20 -16 -27l-307 -125q-28 -8 -33 -8q-13 0 -23 10l-69 101q-6 6 -6 22q3 19 16 29z" />
    <glyph glyph-name="mu" unicode="&#xb5;" 
d="M877 942q17 0 27 -12t7 -27l-120 -862q-2 -15 -15.5 -27t-30.5 -12h-149q-17 0 -28 12t-9 27l6 33q-47 -39 -91.5 -59.5t-70.5 -24.5t-63 -4q-10 0 -16 2l-43 -297q-2 -15 -15 -27t-30 -12h-164q-17 0 -28 12t-9 27l170 1212q3 16 16.5 27.5t30.5 11.5h164q17 0 27.5 -12
t7.5 -27l-84 -604q-6 -45 22 -77t70 -32q47 0 82 31.5t41 77.5l84 604q3 16 16.5 27.5t30.5 11.5h164z" />
    <glyph glyph-name="paragraph" unicode="&#xb6;" horiz-adv-x="1155" 
d="M795 1061l-144 -1022q-2 -15 -16 -27t-31 -12h-162q-18 0 -29.5 12t-9.5 27l68 479q-125 0 -206.5 76t-63.5 201l26 194q18 125 115 201t215 76h662q23 -9 20 -23l-170 -1204q-2 -15 -16 -27t-31 -12h-162q-18 0 -29.5 12t-9.5 27l144 1022h-170z" />
    <glyph glyph-name="periodcentered" unicode="&#xb7;" horiz-adv-x="434" 
d="M152 438q6 52 48 88.5t95 36.5t85 -36.5t26 -88.5q-7 -54 -50 -91.5t-96 -37.5t-84 37.5t-24 91.5z" />
    <glyph glyph-name="cedilla" unicode="&#xb8;" horiz-adv-x="468" 
d="M377 -2l-98 -309q-10 -34 -43 -37h-160q-14 2 -23 12t-8 25l141 309q18 36 41 39h119q15 -2 24.5 -13t6.5 -26z" />
    <glyph glyph-name="onesuperior" unicode="&#xb9;" horiz-adv-x="499" 
d="M383 1090l-119 -60q-4 -2 -10 -2q-13 0 -18 14l18 127q1 7 10 17.5t15 13.5l112 57q23 9 31 9h141q10 -2 16 -8t5 -15l-95 -661q0 -9 -7.5 -16t-16.5 -9h-133q-9 1 -15 8.5t-6 16.5z" />
    <glyph glyph-name="ordmasculine" unicode="&#xba;" horiz-adv-x="636" 
d="M424 756q-109 0 -160 64t-33 190q18 127 87.5 191.5t177.5 64.5q107 0 158.5 -65t33.5 -191t-87.5 -190t-176.5 -64zM449 920q23 0 42 23.5t25 66.5q11 88 -43 88q-23 0 -41 -21t-24 -67q-6 -43 6.5 -66.5t34.5 -23.5z" />
    <glyph glyph-name="guillemotright" unicode="&#xbb;" horiz-adv-x="1064" 
d="M1032 416q-7 -53 -43 -117l-155 -258q-23 -38 -58 -41h-155q-16 2 -26 13t-9 28l155 258q36 64 43 117q8 64 -10 116l-82 259q1 17 14 27.5t31 12.5h156q15 -1 28 -12.5t19 -27.5l82 -259q18 -52 10 -116zM541 416q-7 -53 -43 -117l-156 -258q-23 -38 -57 -41h-156
q-16 2 -26 13t-9 28l156 258q36 64 43 117q8 64 -10 116l-82 259q1 17 14 27.5t31 12.5h155q15 -1 28.5 -13t19.5 -27l81 -259q19 -54 11 -116z" />
    <glyph glyph-name="onequarter" unicode="&#xbc;" horiz-adv-x="1349" 
d="M1212 1225l-718 -1182q-24 -40 -54 -43h-139q-15 2 -25.5 14t-9.5 29l719 1182q23 38 53 41h138q17 -2 27 -13t9 -28zM383 1090l-119 -60q-4 -2 -10 -2q-13 0 -18 14l18 127q1 7 10 17.5t15 13.5l112 57q23 9 31 9h141q10 -2 16 -8t5 -15l-95 -661q0 -9 -7.5 -16
t-16.5 -9h-133q-9 1 -15 8.5t-6 16.5zM1028 129h-235q-7 0 -13 6t-6 12l19 136q0 2 8 22l243 389q10 15 33 15h191q18 -4 18 -23l-57 -397h49q8 0 13.5 -6t4.5 -13l-16 -123q-2 -6 -10 -12t-15 -6h-49l-14 -104q-4 -21 -23 -25h-135q-9 2 -15 9t-5 16zM1051 289l22 157
l-100 -157h78z" />
    <glyph glyph-name="onehalf" unicode="&#xbd;" horiz-adv-x="1298" 
d="M1212 1225l-718 -1182q-24 -40 -54 -43h-139q-15 2 -25.5 14t-9.5 29l719 1182q23 38 53 41h138q17 -2 27 -13t9 -28zM383 1090l-119 -60q-4 -2 -10 -2q-13 0 -18 14l18 127q1 7 10 17.5t15 13.5l112 57q23 9 31 9h141q10 -2 16 -8t5 -15l-95 -661q0 -9 -7.5 -16
t-16.5 -9h-133q-9 1 -15 8.5t-6 16.5zM1036 160h166q9 0 14.5 -5.5t4.5 -13.5l-17 -123q-4 -18 -22 -18h-342q-9 2 -15.5 9t-5.5 16l15 92q8 58 37.5 107.5t66.5 83.5t73.5 64t64 63t32.5 67l2 14q3 35 -23 35q-27 0 -34 -47q-2 -9 -11 -17t-18 -8h-123q-9 0 -14.5 6.5
t-3.5 14.5q14 103 77.5 157t149.5 54q81 0 131.5 -51.5t40.5 -129.5l-6 -38q-6 -45 -31.5 -84.5t-58 -67.5t-64.5 -54.5t-56.5 -58.5t-29.5 -67z" />
    <glyph glyph-name="threequarters" unicode="&#xbe;" horiz-adv-x="1437" 
d="M1300 1225l-718 -1182q-24 -40 -54 -43h-139q-15 2 -25.5 14t-9.5 29l719 1182q23 38 53 41h138q17 -2 27 -13t9 -28zM1116 129h-235q-7 0 -13 6t-6 12l19 136q0 2 8 22l244 389q10 15 32 15h191q18 -4 18 -23l-57 -397h49q8 0 13.5 -6t4.5 -13l-16 -123q-2 -6 -10 -12
t-15 -6h-49l-14 -104q-4 -21 -23 -25h-135q-9 2 -15 9t-5 16zM1139 289l22 157l-100 -157h78zM641 780l-8 -55q-10 -78 -85 -130t-161 -52q-43 0 -79.5 11t-65 34t-42 62t-7.5 91q3 19 26 23h131q9 -2 15.5 -9t5.5 -16q-3 -21 7 -34t30 -13t33 12.5t16 32.5l8 56q3 19 -7 32
t-30 13h-35q-13 0 -18 18l14 94q2 8 9 14.5t14 6.5h34q20 0 34 13t16 32l6 47q3 19 -6 32t-29 13q-43 0 -49 -39q-1 -9 -10.5 -16t-18.5 -9h-131q-21 4 -18 23q14 100 85 149.5t162 49.5q86 0 146.5 -52t50.5 -131l-10 -63q-10 -73 -68 -117q45 -45 35 -123z" />
    <glyph glyph-name="questiondown" unicode="&#xbf;" horiz-adv-x="874" 
d="M498 1081l22 160q2 15 15 27t30 12h164q17 0 28 -12t9 -27l-23 -160q-3 -16 -16.5 -27.5t-30.5 -11.5h-164q-17 0 -27 12t-7 27zM584 328q2 15 16 28t31 13h164q17 0 26.5 -12.5t7.5 -28.5q-20 -114 -79.5 -189.5t-138 -107t-175.5 -31.5q-145 0 -234 89t-69 226l10 72
q6 43 21.5 80.5t44 72t49.5 56t59 55.5q35 31 54 50t43 47t36.5 55.5t16.5 58.5l4 41q3 16 16.5 27.5t30.5 11.5h164q17 0 27.5 -12t7.5 -27l-12 -96q-7 -46 -33.5 -90t-51.5 -69t-73 -68q-38 -34 -57.5 -53t-46.5 -50.5t-41 -64t-19 -68.5l-4 -33q-5 -44 18.5 -75t67.5 -31
q48 0 77 27t42 96z" />
    <glyph glyph-name="Agrave" unicode="&#xc0;" horiz-adv-x="901" 
d="M604 365l-33 503l-172 -503h205zM512 1266h229q16 0 25.5 -11.5t11.5 -27.5l99 -1188q-2 -15 -15.5 -27t-30.5 -12h-161q-16 0 -25.5 11.5t-11.5 27.5l-8 123h-303l-46 -123q-12 -39 -45 -39h-161q-17 0 -28 12t-9 27l434 1188q12 39 45 39zM627 1665l247 -156
q12 -9 9 -28q0 -12 -11 -23l-98 -100q-17 -10 -26 -10t-29 8l-275 125q-11 11 -8 26q4 18 8 23l131 129q12 12 31 12q12 0 21 -6z" />
    <glyph glyph-name="Aacute" unicode="&#xc1;" horiz-adv-x="901" 
d="M604 365l-33 503l-172 -503h205zM512 1266h229q16 0 25.5 -11.5t11.5 -27.5l99 -1188q-2 -15 -15.5 -27t-30.5 -12h-161q-16 0 -25.5 11.5t-11.5 27.5l-8 123h-303l-46 -123q-12 -39 -45 -39h-161q-17 0 -28 12t-9 27l434 1188q12 39 45 39zM449 1509l292 156q9 6 21 6
q20 0 26 -12l95 -129q7 -11 4 -23q-4 -18 -17 -26l-307 -125q-28 -8 -33 -8q-12 0 -22 10l-70 100q-6 6 -6 23q3 17 17 28z" />
    <glyph glyph-name="Acircumflex" unicode="&#xc2;" horiz-adv-x="901" 
d="M604 365l-33 503l-172 -503h205zM512 1266h229q16 0 25.5 -11.5t11.5 -27.5l99 -1188q-2 -15 -15.5 -27t-30.5 -12h-161q-16 0 -25.5 11.5t-11.5 27.5l-8 123h-303l-46 -123q-12 -39 -45 -39h-161q-17 0 -28 12t-9 27l434 1188q12 39 45 39zM582 1718h217q29 0 37 -39
l55 -293q-3 -15 -16.5 -26.5t-30.5 -11.5h-115q-31 0 -35 38l-24 175l-74 -175q-19 -38 -47 -38h-115q-17 0 -27.5 11.5t-7.5 26.5l138 293q16 39 45 39z" />
    <glyph glyph-name="Atilde" unicode="&#xc3;" horiz-adv-x="901" 
d="M604 365l-33 503l-172 -503h205zM512 1266h229q16 0 25.5 -11.5t11.5 -27.5l99 -1188q-2 -15 -15.5 -27t-30.5 -12h-161q-16 0 -25.5 11.5t-11.5 27.5l-8 123h-303l-46 -123q-12 -39 -45 -39h-161q-17 0 -28 12t-9 27l434 1188q12 39 45 39zM756 1346q-61 0 -119 32
q-58 29 -78 29q-38 0 -78 -37q-13 -10 -22 -10q-18 0 -21 10l-69 100q-4 12 -2 19q0 8 12 24q115 99 180 99q9 0 18 -1.5t19 -5t15 -5.5t18 -8.5t16 -8.5q68 -33 113 -33q38 0 78 37q13 10 22 10q18 0 21 -10l69 -100q4 -13 2 -19q0 -8 -12 -24q-114 -98 -182 -98z" />
    <glyph glyph-name="Adieresis" unicode="&#xc4;" horiz-adv-x="901" 
d="M604 365l-33 503l-172 -503h205zM512 1266h229q16 0 25.5 -11.5t11.5 -27.5l99 -1188q-2 -15 -15.5 -27t-30.5 -12h-161q-16 0 -25.5 11.5t-11.5 27.5l-8 123h-303l-46 -123q-12 -39 -45 -39h-161q-17 0 -28 12t-9 27l434 1188q12 39 45 39zM391 1477q7 52 49 88.5
t95 36.5t85 -36.5t25 -88.5q-7 -54 -49.5 -91.5t-95.5 -37.5t-84.5 37.5t-24.5 91.5zM670 1477q7 52 48.5 88.5t94.5 36.5t85.5 -36.5t25.5 -88.5q-7 -54 -50 -91.5t-96 -37.5t-84 37.5t-24 91.5z" />
    <glyph glyph-name="Aring" unicode="&#xc5;" horiz-adv-x="901" 
d="M604 365l-33 503l-172 -503h205zM512 1266h229q16 0 25.5 -11.5t11.5 -27.5l99 -1188q-2 -15 -15.5 -27t-30.5 -12h-161q-16 0 -25.5 11.5t-11.5 27.5l-8 123h-303l-46 -123q-12 -39 -45 -39h-161q-17 0 -28 12t-9 27l434 1188q12 39 45 39zM639 1348q-108 0 -160 64
t-35 190q18 126 88.5 191t178.5 65q107 0 157.5 -65t32.5 -191q-17 -126 -86 -190t-176 -64zM662 1511q23 0 42 23.5t25 67.5q13 88 -43 88q-52 0 -65 -88q-6 -43 6.5 -67t34.5 -24z" />
    <glyph glyph-name="AE" unicode="&#xc6;" horiz-adv-x="1271" 
d="M1311 1061h-320l-51 -363h223q15 0 25.5 -12t9.5 -29l-18 -122q-1 -17 -15 -29t-30 -12h-224l-39 -289h320q15 0 24.5 -12t8.5 -29l-19 -123q-1 -17 -14.5 -29t-28.5 -12h-524q-17 0 -28 12t-9 27l31 221h-262l-107 -221q-14 -36 -45 -39h-160q-17 1 -27.5 12.5
t-8.5 26.5l569 1194q14 28 37 33h710q15 0 25.5 -12t9.5 -29l-18 -123q-1 -17 -15 -29t-30 -12zM662 463l83 598l-276 -598h193z" />
    <glyph glyph-name="Ccedilla" unicode="&#xc7;" horiz-adv-x="860" 
d="M522 -6l-69 -221q-14 -34 -45 -37h-160q-13 2 -22.5 12.5t-6.5 24.5l107 233q-107 36 -161.5 125.5t-37.5 208.5l82 586q22 153 142 253.5t282 100.5q157 0 251 -96t79 -242q-2 -15 -16.5 -28t-31.5 -13h-163q-17 0 -27 12.5t-8 28.5q8 68 -25.5 100.5t-87.5 32.5
q-52 0 -94.5 -34t-52.5 -103l-86 -610q-10 -69 24 -103.5t86 -34.5q51 0 94 34t56 100q2 15 16 28t31 13h164q17 0 27 -12.5t8 -28.5q-26 -128 -124 -219t-231 -111z" />
    <glyph glyph-name="Egrave" unicode="&#xc8;" horiz-adv-x="763" 
d="M94 39l168 1188q2 15 15 27t30 12h524q15 0 25.5 -12t9.5 -29l-18 -123q-1 -17 -15 -29t-30 -12h-320l-51 -363h223q15 0 25.5 -12t9.5 -29l-18 -122q-1 -17 -15 -29t-30 -12h-224l-38 -289h319q15 0 24.5 -12t8.5 -29l-19 -123q-1 -17 -14.5 -29t-28.5 -12h-524
q-17 0 -28 12t-9 27zM571 1665l248 -156q11 -8 8 -28q0 -13 -10 -23l-98 -100q-17 -10 -27 -10q-8 0 -28 8l-275 125q-11 11 -8 26q4 18 8 23l131 129q12 12 31 12q11 0 20 -6z" />
    <glyph glyph-name="Eacute" unicode="&#xc9;" horiz-adv-x="763" 
d="M94 39l168 1188q2 15 15 27t30 12h524q15 0 25.5 -12t9.5 -29l-18 -123q-1 -17 -15 -29t-30 -12h-320l-51 -363h223q15 0 25.5 -12t9.5 -29l-18 -122q-1 -17 -15 -29t-30 -12h-224l-38 -289h319q15 0 24.5 -12t8.5 -29l-19 -123q-1 -17 -14.5 -29t-28.5 -12h-524
q-17 0 -28 12t-9 27zM393 1509l293 156q9 6 21 6q20 0 26 -12l94 -129q7 -11 4 -23q-4 -19 -16 -26l-307 -125q-28 -8 -33 -8q-12 0 -22 10l-70 100q-6 6 -6 23q3 18 16 28z" />
    <glyph glyph-name="Ecircumflex" unicode="&#xca;" horiz-adv-x="763" 
d="M94 39l168 1188q2 15 15 27t30 12h524q15 0 25.5 -12t9.5 -29l-18 -123q-1 -17 -15 -29t-30 -12h-320l-51 -363h223q15 0 25.5 -12t9.5 -29l-18 -122q-1 -17 -15 -29t-30 -12h-224l-38 -289h319q15 0 24.5 -12t8.5 -29l-19 -123q-1 -17 -14.5 -29t-28.5 -12h-524
q-17 0 -28 12t-9 27zM737 1718h-217q-29 0 -45 -39l-137 -293q-3 -15 7.5 -26.5t27.5 -11.5h114q29 0 48 38l73 175l25 -175q4 -38 35 -38h114q17 0 30.5 11.5t16.5 26.5l-55 293q-8 39 -37 39z" />
    <glyph glyph-name="Edieresis" unicode="&#xcb;" horiz-adv-x="763" 
d="M94 39l168 1188q2 15 15 27t30 12h524q15 0 25.5 -12t9.5 -29l-18 -123q-1 -17 -15 -29t-30 -12h-320l-51 -363h223q15 0 25.5 -12t9.5 -29l-18 -122q-1 -17 -15 -29t-30 -12h-224l-38 -289h319q15 0 24.5 -12t8.5 -29l-19 -123q-1 -17 -14.5 -29t-28.5 -12h-524
q-17 0 -28 12t-9 27zM328 1477q-7 -54 24 -91.5t84 -37.5t96 37.5t50 91.5q7 52 -25.5 88.5t-85.5 36.5t-94.5 -36.5t-48.5 -88.5zM606 1477q-7 -54 24.5 -91.5t84.5 -37.5t95.5 37.5t49.5 91.5q7 52 -25 88.5t-85 36.5t-95 -36.5t-49 -88.5z" />
    <glyph glyph-name="Igrave" unicode="&#xcc;" horiz-adv-x="425" 
d="M508 1227l-168 -1188q-2 -15 -15 -27t-30 -12h-164q-17 0 -28 12t-9 27l168 1188q2 15 15 27t30 12h164q17 0 28 -12t9 -27zM391 1665l248 -156q11 -8 8 -28q0 -13 -10 -23l-98 -100q-17 -10 -27 -10q-9 0 -29 8l-274 125q-11 11 -8 26q4 18 8 23l131 129q12 12 31 12
q11 0 20 -6z" />
    <glyph glyph-name="Iacute" unicode="&#xcd;" horiz-adv-x="425" 
d="M94 39l168 1188q2 15 15 27t30 12h164q17 0 28 -12t9 -27l-168 -1188q-2 -15 -15 -27t-30 -12h-164q-17 0 -28 12t-9 27zM209 1509l293 156q9 6 20 6q21 0 27 -12l94 -129q7 -11 4 -23q-4 -19 -16 -26l-307 -125q-28 -8 -33 -8q-13 0 -23 10l-69 100q-6 6 -6 23
q3 18 16 28z" />
    <glyph glyph-name="Icircumflex" unicode="&#xce;" horiz-adv-x="425" 
d="M508 1227l-168 -1188q-2 -15 -15 -27t-30 -12h-164q-17 0 -28 12t-9 27l168 1188q2 15 15 27t30 12h164q17 0 28 -12t9 -27zM561 1718h-217q-29 0 -45 -39l-137 -293q-3 -15 7.5 -26.5t27.5 -11.5h114q28 0 47 38l74 175l25 -175q4 -38 35 -38h114q17 0 30.5 11.5
t16.5 26.5l-55 293q-8 39 -37 39z" />
    <glyph glyph-name="Idieresis" unicode="&#xcf;" horiz-adv-x="425" 
d="M508 1227l-168 -1188q-2 -15 -15 -27t-30 -12h-164q-17 0 -28 12t-9 27l168 1188q2 15 15 27t30 12h164q17 0 28 -12t9 -27zM154 1477q-7 -54 24 -91.5t84 -37.5t96 37.5t50 91.5q7 52 -25.5 88.5t-85.5 36.5t-94.5 -36.5t-48.5 -88.5zM432 1477q-7 -54 24.5 -91.5
t84.5 -37.5t95.5 37.5t49.5 91.5q7 52 -25.5 88.5t-85.5 36.5t-94.5 -36.5t-48.5 -88.5z" />
    <glyph glyph-name="Eth" unicode="&#xd0;" horiz-adv-x="929" 
d="M84 551l18 127q2 15 16.5 27t31.5 12h63l72 510q2 15 15 27t30 12h332q161 0 254 -101.5t71 -255.5l-78 -555q-22 -153 -142 -253.5t-282 -100.5h-331q-17 0 -28 12t-9 27l67 473h-63q-17 0 -28 12t-9 27zM662 340l81 584q10 69 -24 103t-86 34h-127l-47 -344h100
q15 0 24.5 -12t8.5 -29l-19 -123q-1 -17 -14.5 -29t-28.5 -12h-100l-45 -309h127q53 0 96.5 34t53.5 103z" />
    <glyph glyph-name="Ntilde" unicode="&#xd1;" horiz-adv-x="921" 
d="M489 1235l187 -588l82 580q2 15 15 27t30 12h164q17 0 28 -12t9 -27l-168 -1188q-2 -15 -15 -27t-30 -12h-146q-15 0 -25 9.5t-12 21.5l-188 577l-80 -569q-2 -15 -15 -27t-30 -12h-164q-17 0 -28 12t-9 27l168 1188q2 15 15 27t30 12h146q28 0 36 -31zM758 1346
q68 0 182 98q12 16 12 24q2 6 -2 19l-69 100q-3 10 -21 10q-9 0 -22 -10q-40 -37 -78 -37q-45 0 -113 33q-3 2 -16 8.5t-18 8.5t-15 5.5t-19 5t-18 1.5q-65 0 -180 -99q-12 -16 -12 -24q-2 -7 2 -19l69 -100q3 -10 21 -10q9 0 22 10q40 37 78 37q20 0 78 -29q58 -32 119 -32
z" />
    <glyph glyph-name="Ograve" unicode="&#xd2;" horiz-adv-x="913" 
d="M483 190q53 0 96.5 34.5t53.5 103.5l86 610q10 69 -24.5 103t-88.5 34t-96.5 -34t-52.5 -103l-86 -610q-10 -69 24 -103.5t88 -34.5zM635 1280q164 0 257 -100.5t71 -253.5l-82 -586q-22 -153 -142 -253.5t-284 -100.5t-257 100.5t-71 253.5l82 586q22 153 142 253.5
t284 100.5zM633 1665l248 -156q11 -8 8 -28q0 -13 -10 -23l-99 -100q-17 -10 -26 -10t-29 8l-274 125q-12 12 -9 26q4 15 9 23l131 129q12 12 30 12q12 0 21 -6z" />
    <glyph glyph-name="Oacute" unicode="&#xd3;" horiz-adv-x="913" 
d="M483 190q53 0 96.5 34.5t53.5 103.5l86 610q10 69 -24.5 103t-88.5 34t-96.5 -34t-52.5 -103l-86 -610q-10 -69 24 -103.5t88 -34.5zM635 1280q164 0 257 -100.5t71 -253.5l-82 -586q-22 -153 -142 -253.5t-284 -100.5t-257 100.5t-71 253.5l82 586q22 153 142 253.5
t284 100.5zM455 1509l293 156q9 6 20 6q21 0 27 -12l94 -129q7 -11 4 -23q-4 -19 -16 -26l-308 -125q-28 -8 -32 -8q-13 0 -23 10l-70 100q-6 6 -6 23q3 17 17 28z" />
    <glyph glyph-name="Ocircumflex" unicode="&#xd4;" horiz-adv-x="913" 
d="M483 190q53 0 96.5 34.5t53.5 103.5l86 610q10 69 -24.5 103t-88.5 34t-96.5 -34t-52.5 -103l-86 -610q-10 -69 24 -103.5t88 -34.5zM635 1280q164 0 257 -100.5t71 -253.5l-82 -586q-22 -153 -142 -253.5t-284 -100.5t-257 100.5t-71 253.5l82 586q22 153 142 253.5
t284 100.5zM588 1718h217q29 0 37 -39l55 -293q-3 -15 -16.5 -26.5t-30.5 -11.5h-115q-31 0 -35 38l-24 175l-74 -175q-19 -38 -47 -38h-115q-17 0 -27 11.5t-7 26.5l137 293q16 39 45 39z" />
    <glyph glyph-name="Otilde" unicode="&#xd5;" horiz-adv-x="913" 
d="M483 190q53 0 96.5 34.5t53.5 103.5l86 610q10 69 -24.5 103t-88.5 34t-96.5 -34t-52.5 -103l-86 -610q-10 -69 24 -103.5t88 -34.5zM635 1280q164 0 257 -100.5t71 -253.5l-82 -586q-22 -153 -142 -253.5t-284 -100.5t-257 100.5t-71 253.5l82 586q22 153 142 253.5
t284 100.5zM762 1346q-61 0 -119 32q-58 29 -78 29q-38 0 -78 -37q-13 -10 -22 -10q-18 0 -21 10l-69 100q-4 12 -2 19q0 8 12 24q115 99 180 99q9 0 18 -1.5t19 -5t15 -5.5t18 -8.5t16 -8.5q68 -33 113 -33q38 0 78 37q13 10 22 10q18 0 21 -10l69 -100q4 -13 2 -19
q0 -8 -12 -24q-114 -98 -182 -98z" />
    <glyph glyph-name="Odieresis" unicode="&#xd6;" horiz-adv-x="913" 
d="M483 190q53 0 96.5 34.5t53.5 103.5l86 610q10 69 -24.5 103t-88.5 34t-96.5 -34t-52.5 -103l-86 -610q-10 -69 24 -103.5t88 -34.5zM635 1280q164 0 257 -100.5t71 -253.5l-82 -586q-22 -153 -142 -253.5t-284 -100.5t-257 100.5t-71 253.5l82 586q22 153 142 253.5
t284 100.5zM397 1477q7 52 49 88.5t95 36.5t85 -36.5t25 -88.5q-7 -54 -49.5 -91.5t-95.5 -37.5t-84.5 37.5t-24.5 91.5zM676 1477q7 52 48.5 88.5t94.5 36.5t85.5 -36.5t25.5 -88.5q-7 -54 -50 -91.5t-96 -37.5t-84 37.5t-24 91.5z" />
    <glyph glyph-name="multiply" unicode="&#xd7;" horiz-adv-x="749" 
d="M442 139l-34 97l-64 -97q-8 -14 -23.5 -24.5t-31.5 -10.5h-146q-17 0 -26.5 11t-7.5 26l206 301l-120 301q2 15 14 26t29 11h145q16 0 29 -10.5t18 -24.5l35 -96l63 96q8 14 23.5 24.5t32.5 10.5h145q17 0 27 -11t8 -26l-207 -301l121 -301q-2 -15 -14 -26t-29 -11h-146
q-16 0 -29 10.5t-18 24.5z" />
    <glyph glyph-name="Oslash" unicode="&#xd8;" horiz-adv-x="913" 
d="M209 926q19 127 108.5 220.5t217.5 121.5l98 272q3 14 14.5 24t26.5 11h164q11 -2 19 -12t7 -23l-123 -274q117 -31 178 -123.5t44 -216.5l-82 -586q-17 -116 -93.5 -204.5t-189.5 -127.5l-84 -239q-11 -32 -41 -35h-164q-13 2 -21 12t-5 23l98 223q-133 22 -203.5 118
t-50.5 230zM483 190q53 0 96.5 34.5t53.5 103.5l86 610q10 69 -24.5 103t-88.5 34t-96.5 -34t-52.5 -103l-86 -610q-10 -69 24 -103.5t88 -34.5z" />
    <glyph glyph-name="Ugrave" unicode="&#xd9;" horiz-adv-x="933" 
d="M465 -14q-164 0 -257 100.5t-71 253.5l125 887q2 15 15 27t30 12h164q17 0 28 -12t9 -27l-127 -899q-10 -69 24.5 -103.5t88.5 -34.5q53 0 96 34t53 104l127 899q2 15 15 27t30 12h164q17 0 28 -12t9 -27l-125 -887q-22 -153 -142 -253.5t-284 -100.5zM643 1665l248 -156
q11 -8 8 -28q0 -13 -10 -23l-98 -100q-17 -10 -27 -10q-9 0 -29 8l-274 125q-11 11 -8 26q4 18 8 23l131 129q12 12 31 12q11 0 20 -6z" />
    <glyph glyph-name="Uacute" unicode="&#xda;" horiz-adv-x="933" 
d="M465 -14q-164 0 -257 100.5t-71 253.5l125 887q2 15 15 27t30 12h164q17 0 28 -12t9 -27l-127 -899q-10 -69 24.5 -103.5t88.5 -34.5q53 0 96 34t53 104l127 899q2 15 15 27t30 12h164q17 0 28 -12t9 -27l-125 -887q-22 -153 -142 -253.5t-284 -100.5zM465 1509l293 156
q9 6 20 6q21 0 27 -12l94 -129q7 -11 4 -23q-4 -19 -16 -26l-307 -125q-28 -8 -33 -8q-13 0 -23 10l-69 100q-6 6 -6 23q3 18 16 28z" />
    <glyph glyph-name="Ucircumflex" unicode="&#xdb;" horiz-adv-x="933" 
d="M465 -14q-164 0 -257 100.5t-71 253.5l125 887q2 15 15 27t30 12h164q17 0 28 -12t9 -27l-127 -899q-10 -69 24.5 -103.5t88.5 -34.5q53 0 96 34t53 104l127 899q2 15 15 27t30 12h164q17 0 28 -12t9 -27l-125 -887q-22 -153 -142 -253.5t-284 -100.5zM596 1718h217
q29 0 37 -39l55 -293q-3 -15 -16.5 -26.5t-30.5 -11.5h-115q-30 0 -34 38l-25 175l-74 -175q-19 -38 -47 -38h-114q-17 0 -27.5 11.5t-7.5 26.5l137 293q16 39 45 39z" />
    <glyph glyph-name="Udieresis" unicode="&#xdc;" horiz-adv-x="933" 
d="M465 -14q-164 0 -257 100.5t-71 253.5l125 887q2 15 15 27t30 12h164q17 0 28 -12t9 -27l-127 -899q-10 -69 24.5 -103.5t88.5 -34.5q53 0 96 34t53 104l127 899q2 15 15 27t30 12h164q17 0 28 -12t9 -27l-125 -887q-22 -153 -142 -253.5t-284 -100.5zM406 1477
q7 52 48.5 88.5t94.5 36.5t85 -36.5t25 -88.5q-7 -54 -49.5 -91.5t-95.5 -37.5t-84 37.5t-24 91.5zM684 1477q7 52 48.5 88.5t94.5 36.5t85.5 -36.5t25.5 -88.5q-7 -54 -49.5 -91.5t-95.5 -37.5t-84.5 37.5t-24.5 91.5z" />
    <glyph glyph-name="Yacute" unicode="&#xdd;" 
d="M621 434l-56 -395q-2 -15 -15 -27t-30 -12h-164q-17 0 -28 12t-9 27l56 395l-185 793q2 15 15.5 27t30.5 12h165q25 0 37 -39l107 -463l237 463q20 39 45 39h166q17 0 28 -12t9 -27zM457 1509l293 156q9 6 20 6q21 0 27 -12l94 -129q7 -11 4 -23q-4 -19 -16 -26
l-308 -125q-28 -8 -32 -8q-13 0 -23 10l-70 100q-6 6 -6 23q3 17 17 28z" />
    <glyph glyph-name="Thorn" unicode="&#xde;" horiz-adv-x="886" 
d="M655 514l33 231q10 73 -25 115.5t-85 42.5h-115l-76 -549h115q50 0 96.5 43.5t56.5 116.5zM494 1108h118q71 0 134 -24.5t109 -69t67.5 -113.5t9.5 -151l-35 -244q-15 -107 -80.5 -189.5t-154.5 -123.5t-185 -41h-119l-16 -113q-2 -15 -16 -27t-31 -12h-162
q-18 0 -29.5 12t-9.5 27l168 1188q2 15 15.5 27t31.5 12h162q17 0 29 -12t10 -27z" />
    <glyph glyph-name="germandbls" unicode="&#xdf;" horiz-adv-x="966" 
d="M578 745h20q50 0 96 42t56 116l4 23q10 73 -25 112t-86 39h-37q-54 0 -96.5 -34t-52.5 -105l-127 -899q-2 -15 -15 -27t-30 -12h-164q-17 0 -28 12t-9 27l123 879q23 155 144 258.5t284 103.5h37q73 0 137 -24t111 -67.5t69 -112t10 -150.5l-4 -31q-10 -68 -54.5 -130.5
t-125.5 -105.5q59 -24 103 -109t32 -167l-2 -16q-24 -162 -150.5 -264.5t-275.5 -102.5h-49q-15 0 -25.5 12t-9.5 29l19 123q1 17 15 29t30 12h49q48 0 94.5 48t56.5 122t-23 120t-81 46h-49q-15 0 -25.5 12t-9.5 29l18 123q1 17 15.5 28.5t30.5 11.5z" />
    <glyph glyph-name="agrave" unicode="&#xe0;" 
d="M877 942q17 0 27 -12t7 -27l-120 -866q-2 -14 -16.5 -26.5t-31.5 -12.5h-149q-16 0 -26.5 12.5t-8.5 26.5l4 26q-44 -35 -88 -53.5t-71 -22t-66 -3.5q-107 0 -173.5 75t-51.5 179l65 462q13 104 101.5 180t195.5 76q37 0 62 -4t64.5 -24.5t74.5 -59.5l4 35
q3 16 16.5 27.5t30.5 11.5h150zM582 295l49 348q6 46 -20.5 77.5t-73.5 31.5q-42 0 -77.5 -32t-41.5 -77l-49 -348q-6 -43 20.5 -75t67.5 -32q46 0 82.5 31.5t42.5 75.5zM563 1356l248 -156q11 -11 8 -29q-4 -16 -12 -22l-98 -100q-15 -11 -25 -11q-4 0 -31 9l-272 124
q-12 9 -8 27q0 11 8 23l131 129q12 12 31 12q11 0 20 -6z" />
    <glyph glyph-name="aacute" unicode="&#xe1;" 
d="M877 942q17 0 27 -12t7 -27l-120 -866q-2 -14 -16.5 -26.5t-31.5 -12.5h-149q-16 0 -26.5 12.5t-8.5 26.5l4 26q-44 -35 -88 -53.5t-71 -22t-66 -3.5q-107 0 -173.5 75t-51.5 179l65 462q13 104 101.5 180t195.5 76q37 0 62 -4t64.5 -24.5t74.5 -59.5l4 35
q3 16 16.5 27.5t30.5 11.5h150zM582 295l49 348q6 46 -20.5 77.5t-73.5 31.5q-42 0 -77.5 -32t-41.5 -77l-49 -348q-6 -43 20.5 -75t67.5 -32q46 0 82.5 31.5t42.5 75.5zM397 1200l293 156q9 6 21 6q20 0 26 -12l94 -129q5 -7 5 -23q-3 -17 -17 -27l-309 -124q-27 -9 -31 -9
q-9 0 -24 11l-70 100q-7 10 -4 22q4 22 16 29z" />
    <glyph glyph-name="acircumflex" unicode="&#xe2;" 
d="M877 942q17 0 27 -12t7 -27l-120 -866q-2 -14 -16.5 -26.5t-31.5 -12.5h-149q-16 0 -26.5 12.5t-8.5 26.5l4 26q-44 -35 -88 -53.5t-71 -22t-66 -3.5q-107 0 -173.5 75t-51.5 179l65 462q13 104 101.5 180t195.5 76q37 0 62 -4t64.5 -24.5t74.5 -59.5l4 35
q3 16 16.5 27.5t30.5 11.5h150zM582 295l49 348q6 46 -20.5 77.5t-73.5 31.5q-42 0 -77.5 -32t-41.5 -77l-49 -348q-6 -43 20.5 -75t67.5 -32q46 0 82.5 31.5t42.5 75.5zM528 1409h217q29 0 37 -39l54 -293q-2 -15 -15 -27t-30 -12h-115q-29 0 -37 39l-25 174l-73 -174
q-16 -39 -45 -39h-115q-17 0 -28 12t-9 27l139 293q16 39 45 39z" />
    <glyph glyph-name="atilde" unicode="&#xe3;" 
d="M877 942q17 0 27 -12t7 -27l-120 -866q-2 -14 -16.5 -26.5t-31.5 -12.5h-149q-16 0 -26.5 12.5t-8.5 26.5l4 26q-44 -35 -88 -53.5t-71 -22t-66 -3.5q-107 0 -173.5 75t-51.5 179l65 462q13 104 101.5 180t195.5 76q37 0 62 -4t64.5 -24.5t74.5 -59.5l4 35
q3 16 16.5 27.5t30.5 11.5h150zM582 295l49 348q6 46 -20.5 77.5t-73.5 31.5q-42 0 -77.5 -32t-41.5 -77l-49 -348q-6 -43 20.5 -75t67.5 -32q46 0 82.5 31.5t42.5 75.5zM694 1038q-59 0 -119 33q-58 29 -77 29q-37 0 -80 -37q-10 -10 -21 -10q-15 0 -22 10l-68 100
q-4 13 -2 19q0 8 12 24q115 99 181 99q9 0 18 -1.5t19 -5t15 -5.5t18 -8.5t16 -8.5q68 -33 112 -33q38 0 78 37q13 10 23 10q17 0 20 -10l68 -100q7 -10 4 -19q0 -8 -12 -24q-115 -99 -183 -99z" />
    <glyph glyph-name="adieresis" unicode="&#xe4;" 
d="M877 942q17 0 27 -12t7 -27l-120 -866q-2 -14 -16.5 -26.5t-31.5 -12.5h-149q-16 0 -26.5 12.5t-8.5 26.5l4 26q-44 -35 -88 -53.5t-71 -22t-66 -3.5q-107 0 -173.5 75t-51.5 179l65 462q13 104 101.5 180t195.5 76q37 0 62 -4t64.5 -24.5t74.5 -59.5l4 35
q3 16 16.5 27.5t30.5 11.5h150zM582 295l49 348q6 46 -20.5 77.5t-73.5 31.5q-42 0 -77.5 -32t-41.5 -77l-49 -348q-6 -43 20.5 -75t67.5 -32q46 0 82.5 31.5t42.5 75.5zM334 1167q6 52 48 88.5t95 36.5t85 -36.5t26 -88.5q-7 -54 -50 -91.5t-96 -37.5t-84 37.5t-24 91.5z
M612 1167q6 52 48.5 88.5t95.5 36.5q52 0 84 -36t26 -89q-7 -54 -49.5 -91.5t-95.5 -37.5t-84.5 37.5t-24.5 91.5z" />
    <glyph glyph-name="aring" unicode="&#xe5;" 
d="M877 942q17 0 27 -12t7 -27l-120 -866q-2 -14 -16.5 -26.5t-31.5 -12.5h-149q-16 0 -26.5 12.5t-8.5 26.5l4 26q-44 -35 -88 -53.5t-71 -22t-66 -3.5q-107 0 -173.5 75t-51.5 179l65 462q13 104 101.5 180t195.5 76q37 0 62 -4t64.5 -24.5t74.5 -59.5l4 35
q3 16 16.5 27.5t30.5 11.5h150zM582 295l49 348q6 46 -20.5 77.5t-73.5 31.5q-42 0 -77.5 -32t-41.5 -77l-49 -348q-6 -43 20.5 -75t67.5 -32q46 0 82.5 31.5t42.5 75.5zM604 1038q-109 0 -160.5 64t-33.5 190t88 191t178 65q107 0 157.5 -65t32.5 -191t-86.5 -190
t-175.5 -64zM627 1202q23 0 42 23.5t25 66.5q13 88 -43 88q-52 0 -65 -88q-6 -43 6.5 -66.5t34.5 -23.5z" />
    <glyph glyph-name="ae" unicode="&#xe6;" horiz-adv-x="1284" 
d="M1221 397h-412l-14 -98q-6 -45 19 -75.5t71 -30.5q35 0 64 17t38 40q15 30 39 33h180q13 -1 22 -11t7 -22q-33 -117 -140 -189.5t-239 -72.5q-142 0 -240 121q-41 -42 -87 -69.5t-92 -37t-71 -12t-59 -2.5q-107 0 -173 75t-52 181l16 108q13 104 100.5 179t194.5 75
q104 0 189 -76l16 113q6 44 -24 77.5t-76 33.5q-72 0 -97 -56q-16 -39 -45 -39h-149q-17 0 -28 12t-9 27q10 70 43.5 122t81.5 80.5t100.5 42t110.5 13.5q135 0 219 -96q112 98 266 98q151 0 235 -95t64 -238l-24 -187q-3 -17 -16.5 -29t-28.5 -12zM844 647l-10 -65h204
l11 65q6 45 -18.5 76t-69.5 31q-46 0 -78.5 -31t-38.5 -76zM549 299l2 14q6 45 -20.5 76t-71.5 31q-42 0 -78.5 -31.5t-42.5 -75.5l-2 -14q-6 -44 22 -75t70 -31q45 0 80 30.5t41 75.5z" />
    <glyph glyph-name="ccedilla" unicode="&#xe7;" horiz-adv-x="839" 
d="M518 -4l-69 -223q-14 -34 -46 -37h-159q-13 2 -22.5 12.5t-6.5 24.5l104 227q-102 32 -157.5 112.5t-40.5 190.5l45 320q20 143 133.5 238t265.5 95t236.5 -95t64.5 -238q-2 -15 -15 -27t-30 -12h-164q-17 0 -27.5 12t-8.5 27l4 22q6 45 -18 76t-70 31q-45 0 -80 -31
t-41 -76l-49 -348q-6 -45 20.5 -76t71.5 -31q46 0 78 30.5t38 76.5l3 22q3 16 16.5 27.5t30.5 11.5h163q17 0 27.5 -12t7.5 -27q-17 -121 -100 -209t-205 -114z" />
    <glyph glyph-name="egrave" unicode="&#xe8;" horiz-adv-x="856" 
d="M416 645l-10 -65h204l11 65q6 45 -19 76t-70 31q-46 0 -78 -30.5t-38 -76.5zM559 248q15 30 39 33h180q13 -1 22 -11t7 -22q-33 -117 -140 -189.5t-239 -72.5q-94 0 -168.5 39.5t-113 113t-25.5 164.5l45 320q20 143 132 238t265 95q151 0 235 -95t64 -238l-26 -187
q-1 -17 -14.5 -29t-28.5 -12h-412l-14 -98q-6 -45 19 -76t71 -31q35 0 63.5 17.5t38.5 40.5zM561 1356l248 -156q11 -11 8 -29q-4 -16 -12 -22l-98 -100q-15 -11 -25 -11q-4 0 -31 9l-272 124q-12 9 -8 27q0 11 8 23l131 129q12 12 31 12q11 0 20 -6z" />
    <glyph glyph-name="eacute" unicode="&#xe9;" horiz-adv-x="856" 
d="M416 645l-10 -65h204l11 65q6 45 -19 76t-70 31q-46 0 -78 -30.5t-38 -76.5zM559 248q15 30 39 33h180q13 -1 22 -11t7 -22q-33 -117 -140 -189.5t-239 -72.5q-94 0 -168.5 39.5t-113 113t-25.5 164.5l45 320q20 143 132 238t265 95q151 0 235 -95t64 -238l-26 -187
q-1 -17 -14.5 -29t-28.5 -12h-412l-14 -98q-6 -45 19 -76t71 -31q35 0 63.5 17.5t38.5 40.5zM395 1200l293 156q9 6 21 6q20 0 26 -12l94 -129q5 -7 5 -23q-3 -17 -17 -27l-309 -124q-27 -9 -31 -9q-9 0 -24 11l-70 100q-7 10 -4 22q4 22 16 29z" />
    <glyph glyph-name="ecircumflex" unicode="&#xea;" horiz-adv-x="856" 
d="M416 645l-10 -65h204l11 65q6 45 -19 76t-70 31q-46 0 -78 -30.5t-38 -76.5zM559 248q15 30 39 33h180q13 -1 22 -11t7 -22q-33 -117 -140 -189.5t-239 -72.5q-94 0 -168.5 39.5t-113 113t-25.5 164.5l45 320q20 143 132 238t265 95q151 0 235 -95t64 -238l-26 -187
q-1 -17 -14.5 -29t-28.5 -12h-412l-14 -98q-6 -45 19 -76t71 -31q35 0 63.5 17.5t38.5 40.5zM518 1409h217q29 0 37 -39l53 -293q-2 -15 -15 -27t-30 -12h-114q-29 0 -37 39l-25 174l-74 -174q-16 -39 -45 -39h-114q-17 0 -28 12t-9 27l139 293q16 39 45 39z" />
    <glyph glyph-name="edieresis" unicode="&#xeb;" horiz-adv-x="856" 
d="M416 645l-10 -65h204l11 65q6 45 -19 76t-70 31q-46 0 -78 -30.5t-38 -76.5zM559 248q15 30 39 33h180q13 -1 22 -11t7 -22q-33 -117 -140 -189.5t-239 -72.5q-94 0 -168.5 39.5t-113 113t-25.5 164.5l45 320q20 143 132 238t265 95q151 0 235 -95t64 -238l-26 -187
q-1 -17 -14.5 -29t-28.5 -12h-412l-14 -98q-6 -45 19 -76t71 -31q35 0 63.5 17.5t38.5 40.5zM330 1167q6 52 48 88.5t95 36.5t85 -36.5t26 -88.5q-7 -54 -50 -91.5t-96 -37.5t-84 37.5t-24 91.5zM608 1167q6 52 48.5 88.5t95.5 36.5q52 0 84 -36t26 -89q-7 -54 -49.5 -91.5
t-95.5 -37.5t-84.5 37.5t-24.5 91.5z" />
    <glyph glyph-name="igrave" unicode="&#xec;" horiz-adv-x="425" 
d="M461 903l-121 -864q-2 -15 -15 -27t-30 -12h-164q-17 0 -28 12t-9 27l121 864q3 16 16.5 27.5t30.5 11.5h164q17 0 27.5 -12t7.5 -27zM348 1356l248 -156q11 -11 8 -29q-4 -16 -12 -22l-98 -100q-15 -11 -25 -11q-4 0 -31 9l-272 124q-12 9 -8 27q0 11 8 23l131 129
q12 12 31 12q11 0 20 -6z" />
    <glyph glyph-name="iacute" unicode="&#xed;" horiz-adv-x="425" 
d="M94 39l121 864q3 16 16.5 27.5t30.5 11.5h164q17 0 27.5 -12t7.5 -27l-121 -864q-2 -15 -15 -27t-30 -12h-164q-17 0 -28 12t-9 27zM166 1200l293 156q9 6 20 6q21 0 27 -12l94 -129q4 -6 4 -23q-4 -18 -16 -27l-309 -124q-27 -9 -31 -9q-10 0 -25 11l-69 100
q-7 10 -4 22q4 22 16 29z" />
    <glyph glyph-name="icircumflex" unicode="&#xee;" horiz-adv-x="425" 
d="M461 903l-121 -864q-2 -15 -15 -27t-30 -12h-164q-17 0 -28 12t-9 27l121 864q3 16 16.5 27.5t30.5 11.5h164q17 0 27.5 -12t7.5 -27zM518 1409h-217q-29 0 -45 -39l-139 -293q-2 -15 9 -27t28 -12h114q29 0 45 39l74 174l25 -174q8 -39 37 -39h114q17 0 30 12t15 27
l-53 293q-8 39 -37 39z" />
    <glyph glyph-name="idieresis" unicode="&#xef;" horiz-adv-x="425" 
d="M461 903l-121 -864q-2 -15 -15 -27t-30 -12h-164q-17 0 -28 12t-9 27l121 864q3 16 16.5 27.5t30.5 11.5h164q17 0 27.5 -12t7.5 -27zM111 1167q-7 -54 24 -91.5t84 -37.5t96 37.5t50 91.5q6 52 -26 88.5t-85 36.5t-95 -36.5t-48 -88.5zM389 1167q-7 -54 24.5 -91.5
t84.5 -37.5t95.5 37.5t49.5 91.5q6 52 -26 88.5t-85 36.5t-95 -36.5t-48 -88.5z" />
    <glyph glyph-name="eth" unicode="&#xf0;" horiz-adv-x="860" 
d="M559 297l29 205q6 45 -18.5 75.5t-69.5 30.5t-77 -30.5t-38 -75.5l-29 -205q-6 -45 17.5 -76t68.5 -31t78 31t39 76zM776 1108h133q9 0 16 -8t7 -17l-17 -118q-3 -8 -12 -15.5t-18 -7.5h-66l43 -160q6 -38 -4 -102l-53 -377q-18 -137 -132 -226t-259 -89t-233 89t-70 226
l26 180q21 149 105 239.5t227 90.5q101 0 162 -61l-41 190h-234q-9 0 -15.5 7.5t-6.5 15.5l16 118q3 9 12.5 17t18.5 8h164l-33 121q1 14 13 24.5t26 12.5h160q9 -1 16 -7t9.5 -12t6.5 -18z" />
    <glyph glyph-name="ntilde" unicode="&#xf1;" 
d="M895 700l-94 -661q-2 -15 -15 -27t-30 -12h-164q-17 0 -28 12t-9 27l86 604q6 45 -22 77t-70 32q-47 0 -82 -31.5t-41 -77.5l-86 -604q-2 -15 -15 -27t-30 -12h-164q-17 0 -28 12t-9 27l121 864q3 16 16.5 27.5t30.5 11.5h150q17 0 27 -12t7 -27l-4 -35q47 39 92 59.5
t71 24.5t63 4q107 0 174 -75.5t53 -180.5zM692 1038q-59 0 -119 33q-58 29 -77 29q-37 0 -80 -37q-10 -10 -21 -10q-15 0 -22 10l-68 100q-4 13 -2 19q0 8 12 24q115 99 181 99q9 0 18 -1.5t19 -5t15 -5.5t18 -8.5t16 -8.5q68 -33 112 -33q38 0 78 37q13 10 23 10
q17 0 20 -10l68 -100q7 -10 4 -19q0 -7 -13 -24q-115 -99 -182 -99z" />
    <glyph glyph-name="ograve" unicode="&#xf2;" horiz-adv-x="860" 
d="M563 956q152 0 237.5 -95t65.5 -238l-45 -318q-18 -138 -132.5 -227.5t-260.5 -89.5t-235.5 89.5t-71.5 227.5l45 318q20 143 132.5 238t264.5 95zM457 190q45 0 77.5 31t38.5 76l50 348q6 45 -18.5 76t-69.5 31t-78 -31t-39 -76l-49 -348q-6 -45 18.5 -76t69.5 -31z
M545 1356l248 -156q11 -11 8 -29q-4 -15 -13 -22l-98 -100q-15 -11 -24 -11q-4 0 -31 9l-273 124q-12 9 -8 27q0 11 8 23l132 129q12 12 30 12q12 0 21 -6z" />
    <glyph glyph-name="oacute" unicode="&#xf3;" horiz-adv-x="860" 
d="M563 956q152 0 237.5 -95t65.5 -238l-45 -318q-18 -138 -132.5 -227.5t-260.5 -89.5t-235.5 89.5t-71.5 227.5l45 318q20 143 132.5 238t264.5 95zM457 190q45 0 77.5 31t38.5 76l50 348q6 45 -18.5 76t-69.5 31t-78 -31t-39 -76l-49 -348q-6 -45 18.5 -76t69.5 -31z
M367 1200l292 156q9 6 21 6q21 0 27 -12l94 -129q4 -6 4 -23q-3 -17 -17 -27l-309 -124q-27 -9 -30 -9q-10 0 -25 11l-70 100q-7 10 -4 22q3 21 17 29z" />
    <glyph glyph-name="ocircumflex" unicode="&#xf4;" horiz-adv-x="860" 
d="M563 956q152 0 237.5 -95t65.5 -238l-45 -318q-18 -138 -132.5 -227.5t-260.5 -89.5t-235.5 89.5t-71.5 227.5l45 318q20 143 132.5 238t264.5 95zM457 190q45 0 77.5 31t38.5 76l50 348q6 45 -18.5 76t-69.5 31t-78 -31t-39 -76l-49 -348q-6 -45 18.5 -76t69.5 -31z
M518 1409h217q29 0 37 -39l53 -293q-2 -15 -15 -27t-30 -12h-114q-29 0 -37 39l-25 174l-74 -174q-16 -39 -45 -39h-114q-17 0 -28 12t-9 27l139 293q16 39 45 39z" />
    <glyph glyph-name="otilde" unicode="&#xf5;" horiz-adv-x="860" 
d="M563 956q152 0 237.5 -95t65.5 -238l-45 -318q-18 -138 -132.5 -227.5t-260.5 -89.5t-235.5 89.5t-71.5 227.5l45 318q20 143 132.5 238t264.5 95zM457 190q45 0 77.5 31t38.5 76l50 348q6 45 -18.5 76t-69.5 31t-78 -31t-39 -76l-49 -348q-6 -45 18.5 -76t69.5 -31z
M690 1038q-59 0 -119 33q-58 29 -77 29q-37 0 -80 -37q-10 -10 -21 -10q-15 0 -22 10l-68 100q-4 13 -2 19q0 8 12 24q115 99 181 99q9 0 18 -1.5t19 -5t15 -5.5t18 -8.5t16 -8.5q68 -33 112 -33q38 0 78 37q13 10 23 10q17 0 20 -10l68 -100q7 -10 4 -19q0 -7 -13 -24
q-115 -99 -182 -99z" />
    <glyph glyph-name="odieresis" unicode="&#xf6;" horiz-adv-x="860" 
d="M563 956q152 0 237.5 -95t65.5 -238l-45 -318q-18 -138 -132.5 -227.5t-260.5 -89.5t-235.5 89.5t-71.5 227.5l45 318q20 143 132.5 238t264.5 95zM457 190q45 0 77.5 31t38.5 76l50 348q6 45 -18.5 76t-69.5 31t-78 -31t-39 -76l-49 -348q-6 -45 18.5 -76t69.5 -31z
M328 1167q6 52 48 88.5t95 36.5t85 -36.5t26 -88.5q-7 -54 -50 -91.5t-96 -37.5t-84 37.5t-24 91.5zM606 1167q6 52 48.5 88.5t95.5 36.5q52 0 84 -36t26 -89q-7 -54 -49.5 -91.5t-95.5 -37.5t-84.5 37.5t-24.5 91.5z" />
    <glyph glyph-name="divide" unicode="&#xf7;" horiz-adv-x="763" 
d="M135 332l19 127q2 15 16 27t31 12h504q15 0 24.5 -12t7.5 -29l-18 -123q-1 -17 -14.5 -29t-28.5 -12h-504q-17 0 -28 12t-9 27zM266 115q7 52 50 88.5t96 36.5t84 -36.5t24 -88.5q-8 -54 -49.5 -91.5t-93.5 -37.5q-53 0 -85.5 37.5t-25.5 91.5zM346 676q7 54 50 91.5
t96 37.5t84 -37.5t24 -91.5q-7 -52 -49.5 -88.5t-95.5 -36.5t-84.5 36.5t-24.5 88.5z" />
    <glyph glyph-name="oslash" unicode="&#xf8;" horiz-adv-x="860" 
d="M166 623q15 108 87 191.5t179 119.5l90 260q11 32 41 35h164q13 -2 21.5 -12t5.5 -23l-109 -246q116 -25 177 -114t44 -211l-45 -318q-15 -112 -94 -193.5t-192 -111.5l-82 -231q-11 -32 -41 -35h-164q-13 2 -21.5 12t-5.5 23l105 231q-106 30 -163 111t-42 194zM457 190
q45 0 77.5 31t38.5 76l50 348q6 45 -18.5 76t-69.5 31t-78 -31t-39 -76l-49 -348q-6 -45 18.5 -76t69.5 -31z" />
    <glyph glyph-name="ugrave" unicode="&#xf9;" 
d="M113 242l92 661q3 16 16.5 27.5t30.5 11.5h164q17 0 27.5 -12t7.5 -27l-84 -604q-6 -45 22 -77t70 -32q47 0 82 31.5t41 77.5l84 604q3 16 16.5 27.5t30.5 11.5h164q17 0 27 -12t7 -27l-120 -864q-2 -15 -15.5 -27t-30.5 -12h-149q-17 0 -28 12t-9 27l6 35
q-47 -39 -91.5 -59.5t-70.5 -24.5t-63 -4q-107 0 -174 75.5t-53 180.5zM547 1356l248 -156q11 -11 8 -29q-4 -16 -12 -22l-99 -100q-15 -11 -24 -11q-4 0 -31 9l-272 124q-13 9 -9 27q0 10 9 23l131 129q12 12 30 12q12 0 21 -6z" />
    <glyph glyph-name="uacute" unicode="&#xfa;" 
d="M113 242l92 661q3 16 16.5 27.5t30.5 11.5h164q17 0 27.5 -12t7.5 -27l-84 -604q-6 -45 22 -77t70 -32q47 0 82 31.5t41 77.5l84 604q3 16 16.5 27.5t30.5 11.5h164q17 0 27 -12t7 -27l-120 -864q-2 -15 -15.5 -27t-30.5 -12h-149q-17 0 -28 12t-9 27l6 35
q-47 -39 -91.5 -59.5t-70.5 -24.5t-63 -4q-107 0 -174 75.5t-53 180.5zM369 1200l293 156q9 6 20 6q21 0 27 -12l94 -129q4 -6 4 -23q-4 -18 -16 -27l-310 -124q-27 -9 -30 -9q-10 0 -25 11l-70 100q-7 10 -4 22q3 21 17 29z" />
    <glyph glyph-name="ucircumflex" unicode="&#xfb;" 
d="M113 242l92 661q3 16 16.5 27.5t30.5 11.5h164q17 0 27.5 -12t7.5 -27l-84 -604q-6 -45 22 -77t70 -32q47 0 82 31.5t41 77.5l84 604q3 16 16.5 27.5t30.5 11.5h164q17 0 27 -12t7 -27l-120 -864q-2 -15 -15.5 -27t-30.5 -12h-149q-17 0 -28 12t-9 27l6 35
q-47 -39 -91.5 -59.5t-70.5 -24.5t-63 -4q-107 0 -174 75.5t-53 180.5zM524 1409h217q29 0 37 -39l53 -293q-2 -15 -15 -27t-30 -12h-114q-29 0 -37 39l-25 174l-73 -174q-16 -39 -45 -39h-115q-17 0 -28 12t-9 27l139 293q16 39 45 39z" />
    <glyph glyph-name="udieresis" unicode="&#xfc;" 
d="M113 242l92 661q3 16 16.5 27.5t30.5 11.5h164q17 0 27.5 -12t7.5 -27l-84 -604q-6 -45 22 -77t70 -32q47 0 82 31.5t41 77.5l84 604q3 16 16.5 27.5t30.5 11.5h164q17 0 27 -12t7 -27l-120 -864q-2 -15 -15.5 -27t-30.5 -12h-149q-17 0 -28 12t-9 27l6 35
q-47 -39 -91.5 -59.5t-70.5 -24.5t-63 -4q-107 0 -174 75.5t-53 180.5zM332 1167q6 52 48 88.5t95 36.5t85 -36.5t26 -88.5q-7 -54 -50 -91.5t-96 -37.5t-84 37.5t-24 91.5zM610 1167q6 52 48.5 88.5t95.5 36.5q52 0 84 -36t26 -89q-7 -54 -49.5 -91.5t-95.5 -37.5
t-84.5 37.5t-24.5 91.5z" />
    <glyph glyph-name="yacute" unicode="&#xfd;" horiz-adv-x="778" 
d="M162 -281l114 293l-133 891q3 15 16.5 26.5t30.5 12.5h164q15 -1 25 -12.5t10 -26.5l72 -469l178 469q6 15 19 26.5t28 12.5h164q17 -2 27.5 -13t7.5 -26l-473 -1184q-14 -35 -45 -38h-168q-17 2 -27.5 12.5t-9.5 25.5zM354 1200l293 156q9 6 21 6q20 0 26 -12l94 -129
q5 -7 5 -23q-3 -17 -17 -27l-309 -124q-27 -9 -31 -9q-9 0 -24 11l-70 100q-7 10 -4 22q4 22 16 29z" />
    <glyph glyph-name="thorn" unicode="&#xfe;" 
d="M668 956q107 0 174 -76.5t53 -179.5l-66 -462q-15 -105 -103 -180.5t-196 -75.5q-34 0 -57 3t-60 20.5t-71 51.5l-47 -340q-1 -15 -14.5 -25.5t-30.5 -10.5h-164q-17 0 -28 10.5t-9 25.5l213 1508q2 16 15 28.5t30 12.5h164q17 0 28 -12.5t9 -28.5l-49 -338q41 31 82 47
t66 19t61 3zM590 295l47 346q7 44 -19.5 77.5t-68.5 33.5q-46 0 -81.5 -33t-43.5 -78l-47 -346q-8 -47 18.5 -79t73.5 -32q42 0 78 32t43 79z" />
    <glyph glyph-name="ydieresis" unicode="&#xff;" horiz-adv-x="778" 
d="M162 -281l114 293l-133 891q3 15 16.5 26.5t30.5 12.5h164q15 -1 25 -12.5t10 -26.5l72 -469l178 469q6 15 19 26.5t28 12.5h164q17 -2 27.5 -13t7.5 -26l-473 -1184q-14 -35 -45 -38h-168q-17 2 -27.5 12.5t-9.5 25.5zM299 1167q6 52 48 88.5t95 36.5t85 -36.5t26 -88.5
q-7 -54 -49.5 -91.5t-95.5 -37.5t-84.5 37.5t-24.5 91.5zM578 1167q6 52 48 88.5t95 36.5q52 0 84 -36t26 -89q-7 -54 -49.5 -91.5t-95.5 -37.5t-84 37.5t-24 91.5z" />
    <glyph glyph-name="Amacron" unicode="&#x100;" horiz-adv-x="901" 
d="M604 365l-33 503l-172 -503h205zM512 1266h229q16 0 25.5 -11.5t11.5 -27.5l99 -1188q-2 -15 -15.5 -27t-30.5 -12h-161q-16 0 -25.5 11.5t-11.5 27.5l-8 123h-303l-46 -123q-12 -39 -45 -39h-161q-17 0 -28 12t-9 27l434 1188q12 39 45 39zM375 1386l16 127
q3 16 16.5 27.5t30.5 11.5h461q15 0 25.5 -12t7.5 -29l-17 -122q-3 -17 -16.5 -29t-28.5 -12h-460q-17 0 -27.5 11.5t-7.5 26.5z" />
    <glyph glyph-name="amacron" unicode="&#x101;" 
d="M877 942q17 0 27 -12t7 -27l-120 -866q-2 -14 -16.5 -26.5t-31.5 -12.5h-149q-16 0 -26.5 12.5t-8.5 26.5l4 26q-44 -35 -88 -53.5t-71 -22t-66 -3.5q-107 0 -173.5 75t-51.5 179l65 462q13 104 101.5 180t195.5 76q37 0 62 -4t64.5 -24.5t74.5 -59.5l4 35
q3 16 16.5 27.5t30.5 11.5h150zM582 295l49 348q6 46 -20.5 77.5t-73.5 31.5q-42 0 -77.5 -32t-41.5 -77l-49 -348q-6 -43 20.5 -75t67.5 -32q46 0 82.5 31.5t42.5 75.5zM307 1077l19 127q3 16 16.5 27.5t30.5 11.5h461q15 0 25 -12t7 -29l-16 -123q-3 -17 -16.5 -29
t-28.5 -12h-461q-17 0 -28 12t-9 27z" />
    <glyph glyph-name="Abreve" unicode="&#x102;" horiz-adv-x="901" 
d="M604 365l-33 503l-172 -503h205zM512 1266h229q16 0 25.5 -11.5t11.5 -27.5l99 -1188q-2 -15 -15.5 -27t-30.5 -12h-161q-16 0 -25.5 11.5t-11.5 27.5l-8 123h-303l-46 -123q-12 -39 -45 -39h-161q-17 0 -28 12t-9 27l434 1188q12 39 45 39zM639 1348q-66 0 -115.5 12.5
t-90 41.5t-57 84.5t-5.5 135.5q2 14 14 24.5t27 10.5h151q15 0 25 -10.5t8 -24.5q-6 -36 13.5 -54t58.5 -18q80 0 92 72q2 14 14 24.5t27 10.5h151q15 0 25 -10.5t8 -24.5q-38 -274 -346 -274z" />
    <glyph glyph-name="abreve" unicode="&#x103;" 
d="M877 942q17 0 27 -12t7 -27l-120 -866q-2 -14 -16.5 -26.5t-31.5 -12.5h-149q-16 0 -26.5 12.5t-8.5 26.5l4 26q-44 -35 -88 -53.5t-71 -22t-66 -3.5q-107 0 -173.5 75t-51.5 179l65 462q13 104 101.5 180t195.5 76q37 0 62 -4t64.5 -24.5t74.5 -59.5l4 35
q3 16 16.5 27.5t30.5 11.5h150zM582 295l49 348q6 46 -20.5 77.5t-73.5 31.5q-42 0 -77.5 -32t-41.5 -77l-49 -348q-6 -43 20.5 -75t67.5 -32q46 0 82.5 31.5t42.5 75.5zM584 1038q-310 0 -269 275q2 14 14 24.5t27 10.5h152q15 0 25 -10.5t8 -24.5q-12 -72 71 -72
q81 0 93 72q2 14 13.5 24.5t26.5 10.5h152q15 0 25 -10.5t8 -24.5q-41 -275 -346 -275z" />
    <glyph glyph-name="Aogonek" unicode="&#x104;" horiz-adv-x="901" 
d="M799 -334q-53 -6 -103 -6q-48 0 -87 10t-62.5 27t-41 39t-23.5 45t-9 46t2 42q14 115 107 180l49 29l-6 84h-303l-46 -123q-12 -39 -45 -39h-161q-17 0 -28 12t-9 27l434 1188q12 39 45 39h229q16 0 25.5 -11.5t11.5 -27.5l99 -1188q-2 -15 -15.5 -27t-30.5 -12h-73
q-76 -26 -86 -94q-5 -32 15.5 -57t55.5 -25q7 0 76 6q9 0 15 -7.5t6 -15.5l-17 -120q-9 -19 -24 -21zM604 365l-33 503l-172 -503h205z" />
    <glyph glyph-name="aogonek" unicode="&#x105;" 
d="M717 -334q-53 -6 -103 -6q-48 0 -87 10t-62.5 27t-41 39t-23.5 45t-9 46t2 42q8 74 51 129q-43 -14 -106 -14q-107 0 -173.5 75t-51.5 179l65 462q13 104 101.5 180t195.5 76q37 0 62 -4t64.5 -24.5t74.5 -59.5l4 35q3 16 16.5 27.5t30.5 11.5h150q17 0 27 -12t7 -27
l-120 -866q-2 -14 -16.5 -26.5t-31.5 -12.5h-100q-45 -30 -53 -92q-5 -32 15.5 -57t56.5 -25q6 0 75 6q9 0 15 -7.5t6 -15.5l-17 -120q-9 -19 -24 -21zM582 295l49 348q6 46 -20.5 77.5t-73.5 31.5q-42 0 -77.5 -32t-41.5 -77l-49 -348q-6 -43 20.5 -75t67.5 -32
q46 0 82.5 31.5t42.5 75.5z" />
    <glyph glyph-name="Cacute" unicode="&#x106;" horiz-adv-x="860" 
d="M717 942q8 68 -25.5 100.5t-87.5 32.5q-52 0 -94.5 -34t-52.5 -103l-86 -610q-10 -69 24 -103.5t86 -34.5q51 0 94 34t56 100q2 15 16 28t31 13h164q17 0 27 -12.5t8 -28.5q-29 -145 -148.5 -240.5t-275.5 -95.5q-163 0 -255.5 100t-70.5 252l82 586q22 153 142 253.5
t282 100.5q157 0 251 -96t79 -242q-2 -15 -16.5 -28t-31.5 -13h-163q-17 0 -27 12.5t-8 28.5zM426 1509l293 156q9 6 20 6q21 0 27 -12l94 -129q7 -11 4 -23q-4 -19 -16 -26l-307 -125q-28 -8 -33 -8q-13 0 -23 10l-69 100q-6 6 -6 23q3 18 16 28z" />
    <glyph glyph-name="cacute" unicode="&#x107;" horiz-adv-x="839" 
d="M430 -14q-146 0 -237.5 89.5t-71.5 227.5l45 320q20 143 133.5 238t265.5 95t236.5 -95t64.5 -238q-2 -15 -15 -27t-30 -12h-164q-17 0 -27.5 12t-8.5 27l4 22q6 45 -18 76t-70 31q-45 0 -80 -31t-41 -76l-49 -348q-6 -45 20.5 -76t71.5 -31q46 0 78 30.5t38 76.5l3 22
q3 16 16.5 27.5t30.5 11.5h163q17 0 27.5 -12t7.5 -27q-20 -143 -131 -238t-262 -95zM365 1200l292 156q9 6 21 6q21 0 27 -12l94 -129q4 -6 4 -23q-3 -17 -17 -27l-309 -124q-27 -9 -31 -9q-9 0 -24 11l-70 100q-7 10 -4 22q3 21 17 29z" />
    <glyph glyph-name="Ccircumflex" unicode="&#x108;" horiz-adv-x="860" 
d="M717 942q8 68 -25.5 100.5t-87.5 32.5q-52 0 -94.5 -34t-52.5 -103l-86 -610q-10 -69 24 -103.5t86 -34.5q51 0 94 34t56 100q2 15 16 28t31 13h164q17 0 27 -12.5t8 -28.5q-29 -145 -148.5 -240.5t-275.5 -95.5q-163 0 -255.5 100t-70.5 252l82 586q22 153 142 253.5
t282 100.5q157 0 251 -96t79 -242q-2 -15 -16.5 -28t-31.5 -13h-163q-17 0 -27 12.5t-8 28.5zM801 1718h-217q-29 0 -45 -39l-138 -293q-3 -15 7.5 -26.5t27.5 -11.5h115q28 0 47 38l74 175l24 -175q4 -38 35 -38h115q17 0 30.5 11.5t16.5 26.5l-55 293q-8 39 -37 39z" />
    <glyph glyph-name="ccircumflex" unicode="&#x109;" horiz-adv-x="839" 
d="M430 -14q-146 0 -237.5 89.5t-71.5 227.5l45 320q20 143 133.5 238t265.5 95t236.5 -95t64.5 -238q-2 -15 -15 -27t-30 -12h-164q-17 0 -27.5 12t-8.5 27l4 22q6 45 -18 76t-70 31q-45 0 -80 -31t-41 -76l-49 -348q-6 -45 20.5 -76t71.5 -31q46 0 78 30.5t38 76.5l3 22
q3 16 16.5 27.5t30.5 11.5h163q17 0 27.5 -12t7.5 -27q-20 -143 -131 -238t-262 -95zM733 1409h-217q-29 0 -45 -39l-139 -293q-2 -15 9 -27t28 -12h114q29 0 45 39l74 174l25 -174q8 -39 37 -39h114q17 0 30 12t15 27l-53 293q-8 39 -37 39z" />
    <glyph glyph-name="Cdotaccent" unicode="&#x10a;" horiz-adv-x="860" 
d="M717 942q8 68 -25.5 100.5t-87.5 32.5q-52 0 -94.5 -34t-52.5 -103l-86 -610q-10 -69 24 -103.5t86 -34.5q51 0 94 34t56 100q2 15 16 28t31 13h164q17 0 27 -12.5t8 -28.5q-29 -145 -148.5 -240.5t-275.5 -95.5q-163 0 -255.5 100t-70.5 252l82 586q22 153 142 253.5
t282 100.5q157 0 251 -96t79 -242q-2 -15 -16.5 -28t-31.5 -13h-163q-17 0 -27 12.5t-8 28.5zM535 1477q-7 -54 24 -91.5t84 -37.5t95.5 37.5t49.5 91.5q7 52 -25 88.5t-85 36.5t-94.5 -36.5t-48.5 -88.5z" />
    <glyph glyph-name="cdotaccent" unicode="&#x10b;" horiz-adv-x="839" 
d="M430 -14q-146 0 -237.5 89.5t-71.5 227.5l45 320q20 143 133.5 238t265.5 95t236.5 -95t64.5 -238q-2 -15 -15 -27t-30 -12h-164q-17 0 -27.5 12t-8.5 27l4 22q6 45 -18 76t-70 31q-45 0 -80 -31t-41 -76l-49 -348q-6 -45 20.5 -76t71.5 -31q46 0 78 30.5t38 76.5l3 22
q3 16 16.5 27.5t30.5 11.5h163q17 0 27.5 -12t7.5 -27q-20 -143 -131 -238t-262 -95zM471 1167q-7 -54 24.5 -91.5t84.5 -37.5t95.5 37.5t49.5 91.5q6 52 -26 88.5t-85 36.5t-95 -36.5t-48 -88.5z" />
    <glyph glyph-name="Ccaron" unicode="&#x10c;" horiz-adv-x="860" 
d="M717 942q8 68 -25.5 100.5t-87.5 32.5q-52 0 -94.5 -34t-52.5 -103l-86 -610q-10 -69 24 -103.5t86 -34.5q51 0 94 34t56 100q2 15 16 28t31 13h164q17 0 27 -12.5t8 -28.5q-29 -145 -148.5 -240.5t-275.5 -95.5q-163 0 -255.5 100t-70.5 252l82 586q22 153 142 253.5
t282 100.5q157 0 251 -96t79 -242q-2 -15 -16.5 -28t-31.5 -13h-163q-17 0 -27 12.5t-8 28.5zM528 1348h217q29 0 48 38l137 293q2 15 -9 27t-28 12h-115q-29 0 -45 -39l-74 -174l-24 174q-8 39 -37 39h-115q-17 0 -30 -12t-15 -27l56 -293q4 -38 34 -38z" />
    <glyph glyph-name="ccaron" unicode="&#x10d;" horiz-adv-x="839" 
d="M430 -14q-146 0 -237.5 89.5t-71.5 227.5l45 320q20 143 133.5 238t265.5 95t236.5 -95t64.5 -238q-2 -15 -15 -27t-30 -12h-164q-17 0 -27.5 12t-8.5 27l4 22q6 45 -18 76t-70 31q-45 0 -80 -31t-41 -76l-49 -348q-6 -45 20.5 -76t71.5 -31q46 0 78 30.5t38 76.5l3 22
q3 16 16.5 27.5t30.5 11.5h163q17 0 27.5 -12t7.5 -27q-20 -143 -131 -238t-262 -95zM465 1038h217q29 0 45 39l139 293q2 15 -9 27t-28 12h-114q-29 0 -45 -39l-74 -174l-25 174q-8 39 -36 39h-115q-17 0 -30 -12t-15 -27l53 -293q8 -39 37 -39z" />
    <glyph glyph-name="Dcaron" unicode="&#x10e;" horiz-adv-x="907" 
d="M463 0h-332q-17 0 -28 12t-9 27l168 1188q2 15 15 27t30 12h332q161 0 254.5 -101.5t71.5 -255.5l-78 -555q-22 -153 -142 -253.5t-282 -100.5zM639 340l82 584q10 69 -24.5 103t-86.5 34h-127l-121 -858h127q53 0 96.5 34t53.5 103zM684 1348h-217q-31 0 -35 38l-55 293
q2 15 15 27t30 12h115q28 0 36 -39l25 -174l74 174q16 39 45 39h114q17 0 28 -12t9 -27l-137 -293q-19 -38 -47 -38z" />
    <glyph glyph-name="dcaron" unicode="&#x10f;" horiz-adv-x="1153" 
d="M475 956q36 0 58.5 -2.5t60 -20t70.5 -50.5l49 344q2 15 15 27t30 12h164q17 0 27.5 -12t8.5 -27l-167 -1188q-2 -15 -15.5 -27t-30.5 -12h-149q-17 0 -28 12t-9 27l4 27q-44 -36 -88 -55.5t-71 -23t-66 -3.5q-107 0 -173.5 76t-51.5 180l65 462q13 104 101 179t196 75z
M418 645l-49 -348q-6 -43 20.5 -76t67.5 -33q46 0 82.5 32.5t42.5 76.5l49 348q6 46 -20.5 77.5t-73.5 31.5q-42 0 -77.5 -32t-41.5 -77zM1096 1223l-37 -179q-2 -17 8 -29.5t27 -13.5h108q28 3 45 43l68 179q3 17 -7 28t-26 13h-139q-34 -3 -47 -41z" />
    <glyph glyph-name="Dcroat" unicode="&#x110;" horiz-adv-x="929" 
d="M84 551l18 127q2 15 16.5 27t31.5 12h63l72 510q2 15 15 27t30 12h332q161 0 254 -101.5t71 -255.5l-78 -555q-22 -153 -142 -253.5t-282 -100.5h-331q-17 0 -28 12t-9 27l67 473h-63q-17 0 -28 12t-9 27zM662 340l81 584q10 69 -24 103t-86 34h-127l-47 -344h100
q15 0 24.5 -12t8.5 -29l-19 -123q-1 -17 -14.5 -29t-28.5 -12h-100l-45 -309h127q53 0 96.5 34t53.5 103z" />
    <glyph glyph-name="dcroat" unicode="&#x111;" horiz-adv-x="905" 
d="M584 1034l16 115q3 14 15.5 24.5t27.5 10.5h64l6 43q2 15 15 27t30 12h164q17 0 27.5 -12t8.5 -27l-6 -43h56q14 0 22.5 -11t5.5 -26l-14 -111q-3 -15 -15.5 -27t-25.5 -12h-55l-135 -958q-2 -15 -15.5 -27t-30.5 -12h-149q-17 0 -28 12t-9 27l4 27q-44 -36 -88 -55.5
t-71 -23t-66 -3.5q-107 0 -173.5 76t-51.5 180l65 462q13 104 101 179t196 75q36 0 58.5 -2.5t60 -20t70.5 -50.5l16 114h-64q-15 0 -24.5 11.5t-7.5 25.5zM418 645l-49 -348q-6 -43 20.5 -76t67.5 -33q46 0 82.5 32.5t42.5 76.5l49 348q6 46 -20.5 77.5t-73.5 31.5
q-42 0 -77.5 -32t-41.5 -77z" />
    <glyph glyph-name="Emacron" unicode="&#x112;" horiz-adv-x="763" 
d="M94 39l168 1188q2 15 15 27t30 12h524q15 0 25.5 -12t9.5 -29l-18 -123q-1 -17 -15 -29t-30 -12h-320l-51 -363h223q15 0 25.5 -12t9.5 -29l-18 -122q-1 -17 -15 -29t-30 -12h-224l-38 -289h319q15 0 24.5 -12t8.5 -29l-19 -123q-1 -17 -14.5 -29t-28.5 -12h-524
q-17 0 -28 12t-9 27zM324 1513l-17 -127q-3 -15 7.5 -26.5t27.5 -11.5h461q15 0 28.5 12t16.5 29l16 122q3 17 -7.5 29t-25.5 12h-460q-17 0 -30.5 -11.5t-16.5 -27.5z" />
    <glyph glyph-name="emacron" unicode="&#x113;" horiz-adv-x="856" 
d="M416 645l-10 -65h204l11 65q6 45 -19 76t-70 31q-46 0 -78 -30.5t-38 -76.5zM559 248q15 30 39 33h180q13 -1 22 -11t7 -22q-33 -117 -140 -189.5t-239 -72.5q-94 0 -168.5 39.5t-113 113t-25.5 164.5l45 320q20 143 132 238t265 95q151 0 235 -95t64 -238l-26 -187
q-1 -17 -14.5 -29t-28.5 -12h-412l-14 -98q-6 -45 19 -76t71 -31q35 0 63.5 17.5t38.5 40.5zM305 1077l19 127q3 16 16.5 27.5t30.5 11.5h460q15 0 25.5 -12t7.5 -29l-16 -123q-3 -17 -16.5 -29t-28.5 -12h-461q-17 0 -28 12t-9 27z" />
    <glyph glyph-name="Edotaccent" unicode="&#x116;" horiz-adv-x="763" 
d="M94 39l168 1188q2 15 15 27t30 12h524q15 0 25.5 -12t9.5 -29l-18 -123q-1 -17 -15 -29t-30 -12h-320l-51 -363h223q15 0 25.5 -12t9.5 -29l-18 -122q-1 -17 -15 -29t-30 -12h-224l-38 -289h319q15 0 24.5 -12t8.5 -29l-19 -123q-1 -17 -14.5 -29t-28.5 -12h-524
q-17 0 -28 12t-9 27zM471 1477q-7 -54 24.5 -91.5t84.5 -37.5t95.5 37.5t49.5 91.5q7 52 -25.5 88.5t-85.5 36.5t-94.5 -36.5t-48.5 -88.5z" />
    <glyph glyph-name="edotaccent" unicode="&#x117;" horiz-adv-x="856" 
d="M416 645l-10 -65h204l11 65q6 45 -19 76t-70 31q-46 0 -78 -30.5t-38 -76.5zM559 248q15 30 39 33h180q13 -1 22 -11t7 -22q-33 -117 -140 -189.5t-239 -72.5q-94 0 -168.5 39.5t-113 113t-25.5 164.5l45 320q20 143 132 238t265 95q151 0 235 -95t64 -238l-26 -187
q-1 -17 -14.5 -29t-28.5 -12h-412l-14 -98q-6 -45 19 -76t71 -31q35 0 63.5 17.5t38.5 40.5zM467 1167q6 52 48 88.5t95 36.5t85 -36.5t26 -88.5q-7 -54 -50 -91.5t-96 -37.5t-84 37.5t-24 91.5z" />
    <glyph glyph-name="Eogonek" unicode="&#x118;" horiz-adv-x="763" 
d="M803 1061h-320l-51 -363h223q15 0 25.5 -12t9.5 -29l-18 -122q-1 -17 -15 -29t-30 -12h-224l-38 -289h319q15 0 24.5 -12t8.5 -29l-19 -123q-1 -17 -14.5 -29t-28.5 -12h-69q-39 -17 -61.5 -42t-28.5 -71q-5 -32 15.5 -57t55.5 -25q16 0 43.5 3.5t32.5 3.5q9 0 15 -7.5
t6 -15.5l-17 -121q-9 -17 -26 -20q-50 -6 -101 -6q-57 0 -101 14.5t-68 36.5t-37.5 51t-16.5 55t0 51q13 89 74 150h-240q-17 0 -28 12t-9 27l168 1188q2 15 15 27t30 12h524q15 0 25.5 -12t9.5 -29l-18 -123q-1 -17 -15 -29t-30 -12z" />
    <glyph glyph-name="eogonek" unicode="&#x119;" horiz-adv-x="856" 
d="M586 -352q-50 -6 -101 -6q-57 0 -101 14.5t-68 36.5t-37.5 51t-16.5 55t0 51q13 88 68 148q-106 27 -165 109t-44 196l45 320q20 143 132 238t265 95q151 0 235 -95t64 -238l-26 -187q-1 -17 -14.5 -29t-28.5 -12h-412l-14 -98q-6 -45 19 -76t71 -31q35 0 63.5 17.5
t38.5 40.5q15 30 39 33h180q13 -1 22 -11t7 -22q-24 -78 -82.5 -139.5t-136.5 -92.5q-32 -14 -46.5 -21.5t-35.5 -22.5t-31 -35.5t-14 -49.5q-5 -32 15 -57t56 -25q16 0 43.5 3.5t32.5 3.5q9 0 15 -7.5t6 -15.5l-17 -121q-9 -17 -26 -20zM416 645l-10 -65h204l11 65
q6 45 -19 76t-70 31q-46 0 -78 -30.5t-38 -76.5z" />
    <glyph glyph-name="Ecaron" unicode="&#x11a;" horiz-adv-x="763" 
d="M94 39l168 1188q2 15 15 27t30 12h524q15 0 25.5 -12t9.5 -29l-18 -123q-1 -17 -15 -29t-30 -12h-320l-51 -363h223q15 0 25.5 -12t9.5 -29l-18 -122q-1 -17 -15 -29t-30 -12h-224l-38 -289h319q15 0 24.5 -12t8.5 -29l-19 -123q-1 -17 -14.5 -29t-28.5 -12h-524
q-17 0 -28 12t-9 27zM457 1348h217q28 0 47 38l137 293q2 15 -9 27t-28 12h-114q-29 0 -45 -39l-74 -174l-25 174q-8 39 -37 39h-114q-17 0 -30 -12t-15 -27l55 -293q4 -38 35 -38z" />
    <glyph glyph-name="ecaron" unicode="&#x11b;" horiz-adv-x="856" 
d="M416 645l-10 -65h204l11 65q6 45 -19 76t-70 31q-46 0 -78 -30.5t-38 -76.5zM559 248q15 30 39 33h180q13 -1 22 -11t7 -22q-33 -117 -140 -189.5t-239 -72.5q-94 0 -168.5 39.5t-113 113t-25.5 164.5l45 320q20 143 132 238t265 95q151 0 235 -95t64 -238l-26 -187
q-1 -17 -14.5 -29t-28.5 -12h-412l-14 -98q-6 -45 19 -76t71 -31q35 0 63.5 17.5t38.5 40.5zM682 1038h-217q-29 0 -37 39l-53 293q2 15 15 27t30 12h115q28 0 36 -39l25 -174l74 174q16 39 45 39h114q17 0 28 -12t9 -27l-139 -293q-16 -39 -45 -39z" />
    <glyph glyph-name="Gcircumflex" unicode="&#x11c;" horiz-adv-x="921" 
d="M838 47l-4 -18q0 -9 -10.5 -19t-22.5 -10h-105q-10 0 -18 9.5t-8 19.5l8 45q-49 -43 -111 -65.5t-112 -22.5q-165 0 -257.5 100.5t-70.5 253.5l82 586q22 153 141.5 253.5t284.5 100.5q161 0 254.5 -101t71.5 -253l-5 -23q-2 -16 -15 -28.5t-30 -12.5h-163
q-17 0 -28 12.5t-9 28.5l6 37q10 68 -24.5 101.5t-86.5 33.5q-53 0 -96 -33.5t-53 -101.5l-86 -612q-10 -68 24.5 -103t87.5 -35q52 0 95 35t53 103l28 198h-96q-4 0 -9 6.5t-5 12.5l20 145q0 5 6.5 10t12.5 5h330q4 0 10 -13zM584 1718h217q29 0 37 -39l55 -293
q-3 -15 -16.5 -26.5t-30.5 -11.5h-115q-31 0 -35 38l-24 175l-74 -175q-19 -38 -47 -38h-115q-17 0 -27.5 11.5t-7.5 26.5l138 293q16 39 45 39z" />
    <glyph glyph-name="gcircumflex" unicode="&#x11d;" 
d="M877 940q17 0 27 -11t7 -26l-133 -950q-15 -107 -119.5 -186.5t-228.5 -79.5h-18q-118 0 -203 70.5t-76 168.5q3 16 16.5 27.5t30.5 11.5h142q28 0 38 -33q18 -59 86 -59q35 0 66.5 28t38.5 72l22 162q-63 -51 -115 -66.5t-110 -15.5q-107 0 -173.5 76t-51.5 180l55 391
q14 104 102 181t195 77q36 0 62 -4.5t65 -25.5t74 -60l4 35q3 15 16.5 26t30.5 11h150zM592 367l39 278q6 46 -20.5 76.5t-73.5 30.5q-42 0 -77.5 -31t-41.5 -76l-39 -278q-6 -43 20.5 -75t67.5 -32q46 0 82.5 31.5t42.5 75.5zM528 1409h217q29 0 37 -39l54 -293
q-2 -15 -15 -27t-30 -12h-115q-29 0 -37 39l-25 174l-73 -174q-16 -39 -45 -39h-115q-17 0 -28 12t-9 27l139 293q16 39 45 39z" />
    <glyph glyph-name="Gbreve" unicode="&#x11e;" horiz-adv-x="921" 
d="M838 47l-4 -18q0 -9 -10.5 -19t-22.5 -10h-105q-10 0 -18 9.5t-8 19.5l8 45q-49 -43 -111 -65.5t-112 -22.5q-165 0 -257.5 100.5t-70.5 253.5l82 586q22 153 141.5 253.5t284.5 100.5q161 0 254.5 -101t71.5 -253l-5 -23q-2 -16 -15 -28.5t-30 -12.5h-163
q-17 0 -28 12.5t-9 28.5l6 37q10 68 -24.5 101.5t-86.5 33.5q-53 0 -96 -33.5t-53 -101.5l-86 -612q-10 -68 24.5 -103t87.5 -35q52 0 95 35t53 103l28 198h-96q-4 0 -9 6.5t-5 12.5l20 145q0 5 6.5 10t12.5 5h330q4 0 10 -13zM645 1348q-66 0 -115.5 12.5t-90 41.5
t-57 84.5t-5.5 135.5q2 14 14 24.5t27 10.5h151q15 0 25 -10.5t8 -24.5q-6 -36 13.5 -54t58.5 -18q80 0 92 72q2 14 14 24.5t27 10.5h151q15 0 25 -10.5t8 -24.5q-38 -274 -346 -274z" />
    <glyph glyph-name="gbreve" unicode="&#x11f;" 
d="M877 940q17 0 27 -11t7 -26l-133 -950q-15 -107 -119.5 -186.5t-228.5 -79.5h-18q-118 0 -203 70.5t-76 168.5q3 16 16.5 27.5t30.5 11.5h142q28 0 38 -33q18 -59 86 -59q35 0 66.5 28t38.5 72l22 162q-63 -51 -115 -66.5t-110 -15.5q-107 0 -173.5 76t-51.5 180l55 391
q14 104 102 181t195 77q36 0 62 -4.5t65 -25.5t74 -60l4 35q3 15 16.5 26t30.5 11h150zM592 367l39 278q6 46 -20.5 76.5t-73.5 30.5q-42 0 -77.5 -31t-41.5 -76l-39 -278q-6 -43 20.5 -75t67.5 -32q46 0 82.5 31.5t42.5 75.5zM586 1038q-310 0 -269 275q2 14 14 24.5
t27 10.5h152q15 0 25 -10.5t8 -24.5q-12 -72 71 -72q81 0 93 72q2 14 14 24.5t27 10.5h151q15 0 25 -10.5t8 -24.5q-41 -275 -346 -275z" />
    <glyph glyph-name="Gdotaccent" unicode="&#x120;" horiz-adv-x="921" 
d="M838 47l-4 -18q0 -9 -10.5 -19t-22.5 -10h-105q-10 0 -18 9.5t-8 19.5l8 45q-49 -43 -111 -65.5t-112 -22.5q-165 0 -257.5 100.5t-70.5 253.5l82 586q22 153 141.5 253.5t284.5 100.5q161 0 254.5 -101t71.5 -253l-5 -23q-2 -16 -15 -28.5t-30 -12.5h-163
q-17 0 -28 12.5t-9 28.5l6 37q10 68 -24.5 101.5t-86.5 33.5q-53 0 -96 -33.5t-53 -101.5l-86 -612q-10 -68 24.5 -103t87.5 -35q52 0 95 35t53 103l28 198h-96q-4 0 -9 6.5t-5 12.5l20 145q0 5 6.5 10t12.5 5h330q4 0 10 -13zM532 1477q7 52 49 88.5t95 36.5t85 -36.5
t25 -88.5q-7 -54 -49.5 -91.5t-95.5 -37.5t-84.5 37.5t-24.5 91.5z" />
    <glyph glyph-name="gdotaccent" unicode="&#x121;" 
d="M877 940q17 0 27 -11t7 -26l-133 -950q-15 -107 -119.5 -186.5t-228.5 -79.5h-18q-118 0 -203 70.5t-76 168.5q3 16 16.5 27.5t30.5 11.5h142q28 0 38 -33q18 -59 86 -59q35 0 66.5 28t38.5 72l22 162q-63 -51 -115 -66.5t-110 -15.5q-107 0 -173.5 76t-51.5 180l55 391
q14 104 102 181t195 77q36 0 62 -4.5t65 -25.5t74 -60l4 35q3 15 16.5 26t30.5 11h150zM592 367l39 278q6 46 -20.5 76.5t-73.5 30.5q-42 0 -77.5 -31t-41.5 -76l-39 -278q-6 -43 20.5 -75t67.5 -32q46 0 82.5 31.5t42.5 75.5zM442 1167q6 52 48.5 88.5t95.5 36.5
q52 0 84 -36t26 -89q-7 -54 -49.5 -91.5t-95.5 -37.5t-84.5 37.5t-24.5 91.5z" />
    <glyph glyph-name="uni0122" unicode="&#x122;" horiz-adv-x="921" 
d="M838 47l-4 -18q0 -9 -10.5 -19t-22.5 -10h-105q-10 0 -18 9.5t-8 19.5l8 45q-49 -43 -111 -65.5t-112 -22.5q-165 0 -257.5 100.5t-70.5 253.5l82 586q22 153 141.5 253.5t284.5 100.5q161 0 254.5 -101t71.5 -253l-5 -23q-2 -16 -15 -28.5t-30 -12.5h-163
q-17 0 -28 12.5t-9 28.5l6 37q10 68 -24.5 101.5t-86.5 33.5q-53 0 -96 -33.5t-53 -101.5l-86 -612q-10 -68 24.5 -103t87.5 -35q52 0 95 35t53 103l28 198h-96q-4 0 -9 6.5t-5 12.5l20 145q0 5 6.5 10t12.5 5h330q4 0 10 -13zM471 -377l74 262q1 15 -8.5 26t-24.5 13h-133
q-24 -3 -39 -39l-117 -262q-3 -14 6 -24.5t23 -12.5h174q31 3 45 37z" />
    <glyph glyph-name="uni0123" unicode="&#x123;" 
d="M877 940q17 0 27 -11t7 -26l-133 -950q-15 -107 -119.5 -186.5t-228.5 -79.5h-18q-118 0 -203 70.5t-76 168.5q3 16 16.5 27.5t30.5 11.5h142q28 0 38 -33q18 -59 86 -59q35 0 66.5 28t38.5 72l22 162q-63 -51 -115 -66.5t-110 -15.5q-107 0 -173.5 76t-51.5 180l55 391
q14 104 102 181t195 77q36 0 62 -4.5t65 -25.5t74 -60l4 35q3 15 16.5 26t30.5 11h150zM592 367l39 278q6 46 -20.5 76.5t-73.5 30.5q-42 0 -77.5 -31t-41.5 -76l-39 -278q-6 -43 20.5 -75t67.5 -32q46 0 82.5 31.5t42.5 75.5zM397 1200l293 156q9 6 21 6q20 0 26 -12
l94 -129q5 -7 5 -23q-3 -17 -17 -27l-309 -124q-27 -9 -31 -9q-9 0 -24 11l-70 100q-7 10 -4 22q4 22 16 29z" />
    <glyph glyph-name="Hcircumflex" unicode="&#x124;" horiz-adv-x="917" 
d="M963 1266q17 0 27.5 -12t8.5 -27l-168 -1188q-2 -15 -15 -27t-30 -12h-163q-17 0 -28 12t-9 27l63 448h-246l-63 -448q-2 -15 -15 -27t-30 -12h-164q-17 0 -28 12t-9 27l168 1188q2 15 15 27t30 12h164q17 0 28 -12t9 -27l-76 -533h246l76 533q2 15 15 27t30 12h164z
M588 1718h217q29 0 37 -39l55 -293q-3 -15 -16.5 -26.5t-30.5 -11.5h-115q-31 0 -35 38l-24 175l-74 -175q-19 -38 -47 -38h-115q-17 0 -27 11.5t-7 26.5l137 293q16 39 45 39z" />
    <glyph glyph-name="hcircumflex" unicode="&#x125;" 
d="M94 39l168 1188q2 15 15 27t30 12h164q17 0 28 -12t9 -27l-49 -346q43 34 84.5 51.5t66 20.5t58.5 3q107 0 174 -75.5t53 -180.5l-94 -661q-2 -15 -15 -27t-30 -12h-164q-17 0 -28 12t-9 27l86 604q6 45 -22 77t-70 32q-47 0 -82 -31.5t-41 -77.5l-86 -604
q-2 -15 -15 -27t-30 -12h-164q-17 0 -28 12t-9 27zM477 1718h217q29 0 37 -39l55 -293q-3 -15 -16.5 -26.5t-30.5 -11.5h-114q-31 0 -35 38l-25 175l-73 -175q-19 -38 -48 -38h-114q-17 0 -27.5 11.5t-7.5 26.5l137 293q16 39 45 39z" />
    <glyph glyph-name="Hbar" unicode="&#x126;" horiz-adv-x="983" 
d="M156 918l18 126q3 16 16.5 27.5t30.5 11.5h53l21 144q2 15 15 27t30 12h164q17 0 28 -12t9 -27l-21 -144h246l20 144q2 15 15 27t30 12h164q17 0 28 -12t9 -27l-20 -144h55q15 0 25.5 -12t7.5 -29l-17 -122q-3 -17 -16.5 -29t-28.5 -12h-55l-119 -840q-2 -15 -15 -27
t-30 -12h-164q-17 0 -28 12t-9 27l64 448h-246l-63 -448q-2 -15 -15 -27t-30 -12h-164q-17 0 -28 12t-9 27l119 840h-53q-17 0 -28 12t-9 27zM465 694h246l26 185h-245z" />
    <glyph glyph-name="hbar" unicode="&#x127;" horiz-adv-x="905" 
d="M504 997l-17 -116q43 34 84.5 51.5t66 20.5t58.5 3q107 0 174.5 -76t53.5 -180l-95 -661q-2 -15 -15 -27t-30 -12h-163q-17 0 -28 12t-9 27l86 604q6 45 -22 77t-70 32q-47 0 -82 -31.5t-41 -77.5l-86 -604q-2 -15 -15 -27t-30 -12h-164q-17 0 -28 12t-9 27l135 958h-55
q-14 0 -23 12t-6 27l14 111q3 15 15 26t26 11h56l6 43q2 15 15 27t30 12h164q17 0 28 -12t9 -27l-7 -43h64q15 0 24.5 -10.5t6.5 -24.5l-17 -115q-2 -14 -14 -25.5t-27 -11.5h-63z" />
    <glyph glyph-name="Itilde" unicode="&#x128;" horiz-adv-x="425" 
d="M94 39l168 1188q2 15 15 27t30 12h164q17 0 28 -12t9 -27l-168 -1188q-2 -15 -15 -27t-30 -12h-164q-17 0 -28 12t-9 27zM518 1348q68 0 182 98q13 17 13 24q2 6 -2 19l-68 100q-7 10 -22 10q-11 0 -21 -10q-43 -37 -80 -37q-44 0 -112 33q-3 2 -16 8.5t-18 8.5t-15 5.5
t-19 5t-18 1.5q-69 0 -179 -98q-14 -14 -14 -25q-3 -8 4 -18l68 -101q3 -10 20 -10q10 0 23 10q40 37 78 37q19 0 77 -29q58 -32 119 -32z" />
    <glyph glyph-name="itilde" unicode="&#x129;" horiz-adv-x="425" 
d="M94 39l121 864q3 16 16.5 27.5t30.5 11.5h164q17 0 27.5 -12t7.5 -27l-121 -864q-2 -15 -15 -27t-30 -12h-164q-17 0 -28 12t-9 27zM475 1038q67 0 182 99q13 17 13 24q3 9 -4 19l-68 100q-3 10 -20 10q-10 0 -23 -10q-40 -37 -78 -37q-44 0 -112 33q-3 2 -16 8.5
t-18 8.5t-15 5.5t-19 5t-18 1.5q-66 0 -181 -99q-12 -16 -12 -24q-2 -6 2 -19l68 -100q7 -10 22 -10q11 0 21 10q43 37 80 37q19 0 77 -29q60 -33 119 -33z" />
    <glyph glyph-name="Imacron" unicode="&#x12a;" horiz-adv-x="425" 
d="M508 1227l-168 -1188q-2 -15 -15 -27t-30 -12h-164q-17 0 -28 12t-9 27l168 1188q2 15 15 27t30 12h164q17 0 28 -12t9 -27zM154 1513l-17 -127q-3 -15 7.5 -26.5t27.5 -11.5h461q15 0 28.5 12t16.5 29l16 122q3 17 -7 29t-25 12h-461q-17 0 -30.5 -11.5t-16.5 -27.5z
" />
    <glyph glyph-name="imacron" unicode="&#x12b;" horiz-adv-x="425" 
d="M461 903l-121 -864q-2 -15 -15 -27t-30 -12h-164q-17 0 -28 12t-9 27l121 864q3 16 16.5 27.5t30.5 11.5h164q17 0 27.5 -12t7.5 -27zM111 1204l-19 -127q-2 -15 9 -27t28 -12h461q15 0 28.5 12t16.5 29l16 123q3 17 -7.5 29t-25.5 12h-460q-17 0 -30.5 -11.5
t-16.5 -27.5z" />
    <glyph glyph-name="Iogonek" unicode="&#x12e;" horiz-adv-x="425" 
d="M96 53l166 1174q2 15 15 27t30 12h164q17 0 28 -12t9 -27l-168 -1188q-2 -15 -14 -26t-29 -11h-55q-50 -32 -58 -94q-5 -33 16 -57.5t56 -24.5q15 0 39 2t35 2q8 0 14 -7.5t6 -15.5l-16 -120q-9 -18 -25 -21q-70 -4 -102 -4q-70 0 -119 21.5t-70 55t-28 67t-2 65.5
q15 114 108 182z" />
    <glyph glyph-name="iogonek" unicode="&#x12f;" horiz-adv-x="425" 
d="M96 53l119 850q3 16 16.5 27.5t30.5 11.5h164q17 0 27.5 -12t7.5 -27l-121 -864q-2 -15 -14 -26t-29 -11h-55q-50 -32 -58 -94q-5 -33 16 -57.5t56 -24.5q15 0 39 2t35 2q8 0 14 -7.5t6 -15.5l-16 -120q-9 -18 -25 -21q-70 -4 -102 -4q-70 0 -119 21.5t-70 55t-28 67
t-2 65.5q15 114 108 182zM512 1260l-27 -185q-2 -15 -15 -27t-30 -12h-164q-17 0 -27.5 12t-8.5 27l26 185q2 15 16 26.5t31 11.5h164q17 0 27 -11.5t8 -26.5z" />
    <glyph glyph-name="Idotaccent" unicode="&#x130;" horiz-adv-x="425" 
d="M508 1227l-168 -1188q-2 -15 -15 -27t-30 -12h-164q-17 0 -28 12t-9 27l168 1188q2 15 15 27t30 12h164q17 0 28 -12t9 -27zM555 1571l-25 -185q-3 -15 -16.5 -26.5t-30.5 -11.5h-164q-17 0 -27 11.5t-7 26.5l24 185q3 16 16.5 27.5t30.5 11.5h164q17 0 27.5 -12t7.5 -27
z" />
    <glyph glyph-name="dotlessi" unicode="&#x131;" horiz-adv-x="425" 
d="M461 903l-121 -864q-2 -15 -15 -27t-30 -12h-164q-17 0 -28 12t-9 27l121 864q3 16 16.5 27.5t30.5 11.5h164q17 0 27.5 -12t7.5 -27z" />
    <glyph glyph-name="Jcircumflex" unicode="&#x134;" horiz-adv-x="808" 
d="M311 344l-6 -47q-6 -45 18.5 -76t69.5 -31q46 0 80.5 32t40.5 81l131 924q2 15 15 27t30 12h164q17 0 28 -12t9 -27l-131 -924q-20 -138 -134.5 -227.5t-260.5 -89.5t-236 89.5t-70 227.5l7 41q3 16 16.5 27.5t30.5 11.5h163q17 0 27.5 -12t7.5 -27zM803 1718h-217
q-29 0 -45 -39l-138 -293q-3 -15 7.5 -26.5t27.5 -11.5h115q28 0 47 38l74 175l24 -175q4 -38 35 -38h115q17 0 30.5 11.5t16.5 26.5l-55 293q-8 39 -37 39z" />
    <glyph glyph-name="jcircumflex" unicode="&#x135;" horiz-adv-x="425" 
d="M-4 -319h-64q-15 0 -25 11.5t-9 28.5l18 123q1 17 15 29t30 12q19 1 34 3.5t26.5 5.5t21 10t15.5 11.5t11.5 16t8 17t6 21t4.5 22t4 24.5l123 887q3 16 16.5 27.5t30.5 11.5h164q17 0 27.5 -12t7.5 -27l-123 -883q-14 -99 -43.5 -166.5t-74.5 -104.5t-98.5 -52.5
t-125.5 -15.5zM518 1409h-217q-29 0 -45 -39l-139 -293q-2 -15 9 -27t28 -12h114q29 0 45 39l74 174l25 -174q8 -39 37 -39h114q17 0 30 12t15 27l-53 293q-8 39 -37 39z" />
    <glyph glyph-name="uni0136" unicode="&#x136;" horiz-adv-x="894" 
d="M606 39l-96 418l-145 -244l-25 -174q-2 -15 -15 -27t-30 -12h-164q-17 0 -28 12t-9 27l168 1188q2 15 15 27t30 12h164q17 0 28 -12t9 -27l-72 -502l312 502q20 39 45 39h188q17 0 28 -12t9 -27l-311 -502l163 -686q-2 -15 -15 -27t-30 -12h-182q-25 0 -37 39zM545 -115
l-74 -262q-14 -34 -45 -37h-174q-14 2 -23 12.5t-6 24.5l117 262q15 36 39 39h133q15 -2 24.5 -13t8.5 -26z" />
    <glyph glyph-name="uni0137" unicode="&#x137;" horiz-adv-x="847" 
d="M508 397l-143 -184l-25 -174q-2 -15 -15 -27t-30 -12h-164q-17 0 -28 12t-9 27l168 1188q2 15 15 27t30 12h164q17 0 28 -12t9 -27l-88 -617l231 295q23 35 45 37h172q17 -2 27.5 -13t7.5 -26l-203 -264l144 -600q-1 -15 -14.5 -26t-30.5 -13h-158q-27 3 -37 37z
M545 -115l-74 -262q-14 -34 -45 -37h-174q-14 2 -23 12.5t-6 24.5l117 262q15 36 39 39h133q15 -2 24.5 -13t8.5 -26z" />
    <glyph glyph-name="kgreenlandic" unicode="&#x138;" horiz-adv-x="847" 
d="M508 397l-143 -184l-25 -174q-2 -15 -15 -27t-30 -12h-164q-17 0 -28 12t-9 27l121 864q3 16 16.5 27.5t30.5 11.5h164q17 0 27.5 -12t7.5 -27l-41 -293l231 295q23 35 45 37h172q17 -2 27.5 -13t7.5 -26l-203 -264l144 -600q-1 -15 -14.5 -26t-30.5 -13h-158
q-27 3 -37 37z" />
    <glyph glyph-name="Lacute" unicode="&#x139;" horiz-adv-x="733" 
d="M655 0h-524q-17 0 -28 12t-9 27l168 1188q2 15 15 27t30 12h164q17 0 28 -12t9 -27l-143 -1022h319q15 0 24.5 -12t8.5 -29l-19 -123q-1 -17 -14.5 -29t-28.5 -12zM330 1509l293 156q9 6 20 6q21 0 27 -12l94 -129q7 -11 4 -23q-4 -19 -16 -26l-308 -125q-28 -8 -32 -8
q-13 0 -23 10l-70 100q-6 6 -6 23q3 17 17 28z" />
    <glyph glyph-name="lacute" unicode="&#x13a;" horiz-adv-x="425" 
d="M94 39l168 1188q2 15 15 27t30 12h164q17 0 28 -12t9 -27l-168 -1188q-2 -15 -15 -27t-30 -12h-164q-17 0 -28 12t-9 27zM209 1509l293 156q9 6 20 6q21 0 27 -12l94 -129q7 -11 4 -23q-4 -19 -16 -26l-307 -125q-28 -8 -33 -8q-13 0 -23 10l-69 100q-6 6 -6 23
q3 18 16 28z" />
    <glyph glyph-name="uni013B" unicode="&#x13b;" horiz-adv-x="733" 
d="M655 0h-524q-17 0 -28 12t-9 27l168 1188q2 15 15 27t30 12h164q17 0 28 -12t9 -27l-143 -1022h319q15 0 24.5 -12t8.5 -29l-19 -123q-1 -17 -14.5 -29t-28.5 -12zM473 -115l-74 -262q-14 -34 -45 -37h-174q-14 2 -22.5 12t-5.5 25l116 262q15 36 39 39h133
q15 -2 24.5 -13t8.5 -26z" />
    <glyph glyph-name="uni013C" unicode="&#x13c;" horiz-adv-x="425" 
d="M508 1227l-168 -1188q-2 -15 -15 -27t-30 -12h-164q-17 0 -28 12t-9 27l168 1188q2 15 15 27t30 12h164q17 0 28 -12t9 -27zM295 -115l-74 -262q-14 -34 -45 -37h-174q-13 2 -21.5 12.5t-5.5 24.5l115 262q15 36 39 39h133q15 -2 24.5 -13t8.5 -26z" />
    <glyph glyph-name="Lcaron" unicode="&#x13d;" horiz-adv-x="733" 
d="M655 0h-524q-17 0 -28 12t-9 27l168 1188q2 15 15 27t30 12h164q17 0 28 -12t9 -27l-143 -1022h319q15 0 24.5 -12t8.5 -29l-19 -123q-1 -17 -14.5 -29t-28.5 -12zM596 1038l49 181q13 38 47 41h139q16 -2 26 -13t7 -28l-80 -181q-21 -41 -45 -43h-108q-18 2 -28 14
t-7 29z" />
    <glyph glyph-name="lcaron" unicode="&#x13e;" horiz-adv-x="702" 
d="M508 1227l-168 -1188q-2 -15 -15 -27t-30 -12h-164q-17 0 -28 12t-9 27l168 1188q2 15 15 27t30 12h164q17 0 28 -12t9 -27zM608 1044l37 179q13 38 47 41h139q16 -2 26 -13t7 -28l-67 -179q-17 -40 -45 -43h-109q-17 1 -27 13.5t-8 29.5z" />
    <glyph glyph-name="Lslash" unicode="&#x141;" horiz-adv-x="843" 
d="M766 0h-524q-17 0 -28 12t-9 27l76 530l-140 -22q-15 0 -23.5 7.5t-8.5 18.5l18 136q3 14 16.5 27t26.5 14l137 22l66 455q2 15 15 27t30 12h164q17 0 27.5 -12t8.5 -27l-59 -412l137 25q15 0 24 -8t9 -19l-18 -135q-3 -14 -16.5 -27t-26.5 -14l-136 -25l-57 -407h320
q15 0 24.5 -12t7.5 -29l-18 -123q-1 -17 -14.5 -29t-28.5 -12z" />
    <glyph glyph-name="lslash" unicode="&#x142;" horiz-adv-x="645" 
d="M559 815l137 25q15 0 24 -8t9 -19l-18 -135q-3 -14 -16.5 -27t-26.5 -14l-136 -25l-81 -573q-2 -15 -15 -27t-30 -12h-164q-17 0 -28 12t-9 27l76 530l-140 -22q-15 0 -23.5 7.5t-8.5 18.5l18 136q3 14 16.5 27t26.5 14l137 22l66 455q2 15 15 27t30 12h164
q17 0 27.5 -12t8.5 -27z" />
    <glyph glyph-name="Nacute" unicode="&#x143;" horiz-adv-x="921" 
d="M489 1235l187 -588l82 580q2 15 15 27t30 12h164q17 0 28 -12t9 -27l-168 -1188q-2 -15 -15 -27t-30 -12h-146q-15 0 -25 9.5t-12 21.5l-188 577l-80 -569q-2 -15 -15 -27t-30 -12h-164q-17 0 -28 12t-9 27l168 1188q2 15 15 27t30 12h146q28 0 36 -31zM426 1509l293 156
q9 6 20 6q21 0 27 -12l94 -129q7 -11 4 -23q-4 -19 -16 -26l-307 -125q-28 -8 -33 -8q-13 0 -23 10l-69 100q-6 6 -6 23q3 18 16 28z" />
    <glyph glyph-name="nacute" unicode="&#x144;" 
d="M895 700l-94 -661q-2 -15 -15 -27t-30 -12h-164q-17 0 -28 12t-9 27l86 604q6 45 -22 77t-70 32q-47 0 -82 -31.5t-41 -77.5l-86 -604q-2 -15 -15 -27t-30 -12h-164q-17 0 -28 12t-9 27l121 864q3 16 16.5 27.5t30.5 11.5h150q17 0 27 -12t7 -27l-4 -35q47 39 92 59.5
t71 24.5t63 4q107 0 174 -75.5t53 -180.5zM338 1200l293 156q9 6 20 6q21 0 27 -12l94 -129q4 -6 4 -23q-4 -18 -16 -27l-309 -124q-27 -9 -31 -9q-10 0 -25 11l-69 100q-7 10 -4 22q4 22 16 29z" />
    <glyph glyph-name="uni0145" unicode="&#x145;" horiz-adv-x="921" 
d="M489 1235l187 -588l82 580q2 15 15 27t30 12h164q17 0 28 -12t9 -27l-168 -1188q-2 -15 -15 -27t-30 -12h-146q-15 0 -25 9.5t-12 21.5l-188 577l-80 -569q-2 -15 -15 -27t-30 -12h-164q-17 0 -28 12t-9 27l168 1188q2 15 15 27t30 12h146q28 0 36 -31zM553 -115
l-74 -262q-14 -34 -45 -37h-174q-14 2 -23 12.5t-6 24.5l117 262q15 36 39 39h133q15 -2 24.5 -13t8.5 -26z" />
    <glyph glyph-name="uni0146" unicode="&#x146;" 
d="M895 700l-94 -661q-2 -15 -15 -27t-30 -12h-164q-17 0 -28 12t-9 27l86 604q6 45 -22 77t-70 32q-47 0 -82 -31.5t-41 -77.5l-86 -604q-2 -15 -15 -27t-30 -12h-164q-17 0 -28 12t-9 27l121 864q3 16 16.5 27.5t30.5 11.5h150q17 0 27 -12t7 -27l-4 -35q47 39 92 59.5
t71 24.5t63 4q107 0 174 -75.5t53 -180.5zM463 -377l74 262q1 15 -8.5 26t-24.5 13h-133q-24 -3 -39 -39l-117 -262q-3 -14 6 -24.5t23 -12.5h174q31 3 45 37z" />
    <glyph glyph-name="Ncaron" unicode="&#x147;" horiz-adv-x="921" 
d="M489 1235l187 -588l82 580q2 15 15 27t30 12h164q17 0 28 -12t9 -27l-168 -1188q-2 -15 -15 -27t-30 -12h-146q-15 0 -25 9.5t-12 21.5l-188 577l-80 -569q-2 -15 -15 -27t-30 -12h-164q-17 0 -28 12t-9 27l168 1188q2 15 15 27t30 12h146q28 0 36 -31zM528 1348h217
q29 0 48 38l137 293q2 15 -9 27t-28 12h-115q-29 0 -45 -39l-74 -174l-24 174q-8 39 -37 39h-115q-17 0 -30 -12t-15 -27l56 -293q4 -38 34 -38z" />
    <glyph glyph-name="ncaron" unicode="&#x148;" 
d="M895 700l-94 -661q-2 -15 -15 -27t-30 -12h-164q-17 0 -28 12t-9 27l86 604q6 45 -22 77t-70 32q-47 0 -82 -31.5t-41 -77.5l-86 -604q-2 -15 -15 -27t-30 -12h-164q-17 0 -28 12t-9 27l121 864q3 16 16.5 27.5t30.5 11.5h150q17 0 27 -12t7 -27l-4 -35q47 39 92 59.5
t71 24.5t63 4q107 0 174 -75.5t53 -180.5zM692 1038h-217q-29 0 -37 39l-53 293q2 15 15 27t30 12h115q29 0 37 -39l24 -174l74 174q16 39 45 39h115q17 0 28 -12t9 -27l-140 -293q-16 -39 -45 -39z" />
    <glyph glyph-name="Eng" unicode="&#x14a;" horiz-adv-x="921" 
d="M489 -319h-63q-15 0 -25.5 11.5t-9.5 28.5l19 123q1 17 15 29t30 12q28 1 48.5 5t34.5 14.5t22 18.5t14 27t8 29.5t6 36.5l6 54l-174 538l-80 -569q-2 -15 -15 -27t-30 -12h-164q-17 0 -28 12t-9 27l168 1188q2 15 15 27t30 12h146q28 0 36 -31l187 -588l82 580
q2 15 15 27t30 12h164q17 0 28 -12t9 -27l-170 -1207q-14 -99 -43.5 -166.5t-75 -104.5t-99.5 -52.5t-127 -15.5z" />
    <glyph glyph-name="eng" unicode="&#x14b;" 
d="M668 956q107 0 174 -75.5t53 -180.5l-96 -680q-14 -99 -43.5 -166.5t-75 -104.5t-99 -52.5t-126.5 -15.5h-64q-15 0 -25.5 11.5t-9.5 28.5l19 123q1 17 15 29t30 12q28 1 48.5 5t34.5 14.5t22 18.5t14 27t8 29.5t6 36.5l88 627q6 45 -22 77t-70 32q-47 0 -82 -31.5
t-41 -77.5l-86 -604q-2 -15 -15 -27t-30 -12h-164q-17 0 -28 12t-9 27l121 864q3 16 16.5 27.5t30.5 11.5h150q17 0 27 -12t7 -27l-4 -35q47 39 92 59.5t71 24.5t63 4z" />
    <glyph glyph-name="Omacron" unicode="&#x14c;" horiz-adv-x="913" 
d="M483 190q53 0 96.5 34.5t53.5 103.5l86 610q10 69 -24.5 103t-88.5 34t-96.5 -34t-52.5 -103l-86 -610q-10 -69 24 -103.5t88 -34.5zM635 1280q164 0 257 -100.5t71 -253.5l-82 -586q-22 -153 -142 -253.5t-284 -100.5t-257 100.5t-71 253.5l82 586q22 153 142 253.5
t284 100.5zM381 1386l16 127q3 16 16.5 27.5t30.5 11.5h461q15 0 25.5 -12t7.5 -29l-16 -122q-3 -17 -16.5 -29t-28.5 -12h-461q-17 0 -27.5 11.5t-7.5 26.5z" />
    <glyph glyph-name="omacron" unicode="&#x14d;" horiz-adv-x="860" 
d="M563 956q152 0 237.5 -95t65.5 -238l-45 -318q-18 -138 -132.5 -227.5t-260.5 -89.5t-235.5 89.5t-71.5 227.5l45 318q20 143 132.5 238t264.5 95zM457 190q45 0 77.5 31t38.5 76l50 348q6 45 -18.5 76t-69.5 31t-78 -31t-39 -76l-49 -348q-6 -45 18.5 -76t69.5 -31z
M309 1077l19 127q3 16 16.5 27.5t30.5 11.5h461q15 0 25 -12t7 -29l-16 -123q-3 -17 -16.5 -29t-28.5 -12h-461q-17 0 -28 12t-9 27z" />
    <glyph glyph-name="Ohungarumlaut" unicode="&#x150;" horiz-adv-x="913" 
d="M483 190q53 0 96.5 34.5t53.5 103.5l86 610q10 69 -24.5 103t-88.5 34t-96.5 -34t-52.5 -103l-86 -610q-10 -69 24 -103.5t88 -34.5zM635 1280q164 0 257 -100.5t71 -253.5l-82 -586q-22 -153 -142 -253.5t-284 -100.5t-257 100.5t-71 253.5l82 586q22 153 142 253.5
t284 100.5zM690 1389l60 221q13 36 45 39h161q15 -2 24.5 -12.5t6.5 -26.5l-100 -221q-20 -38 -43 -41h-121q-17 2 -26.5 13t-6.5 28zM406 1389l59 221q13 36 45 39h162q15 -2 24 -12.5t6 -26.5l-100 -221q-20 -38 -43 -41h-121q-17 2 -26 13t-6 28z" />
    <glyph glyph-name="ohungarumlaut" unicode="&#x151;" horiz-adv-x="860" 
d="M563 956q152 0 237.5 -95t65.5 -238l-45 -318q-18 -138 -132.5 -227.5t-260.5 -89.5t-235.5 89.5t-71.5 227.5l45 318q20 143 132.5 238t264.5 95zM457 190q45 0 77.5 31t38.5 76l50 348q6 45 -18.5 76t-69.5 31t-78 -31t-39 -76l-49 -348q-6 -45 18.5 -76t69.5 -31z
M633 1079l59 221q9 36 43 39h162q36 -4 33 -39l-101 -221q-20 -38 -43 -41h-120q-17 2 -26.5 13t-6.5 28zM348 1079l60 221q9 36 43 39h161q36 -4 33 -39l-100 -221q-20 -38 -43 -41h-121q-17 2 -26.5 13t-6.5 28z" />
    <glyph glyph-name="OE" unicode="&#x152;" horiz-adv-x="1257" 
d="M1298 1061h-321l-51 -363h225q14 0 25 -11.5t10 -29.5l-19 -120q-1 -17 -16 -30t-29 -13h-225l-39 -289h322q15 0 23 -11t7 -30l-18 -123q-2 -15 -14 -28t-27 -13h-698q-161 0 -253.5 101t-70.5 255l78 553q22 154 141.5 255.5t280.5 101.5h698q15 0 24.5 -11.5
t8.5 -29.5l-19 -121q-1 -17 -14.5 -30t-28.5 -13zM612 205l119 856h-131q-51 0 -93 -34t-52 -103l-82 -582q-10 -69 23.5 -103t84.5 -34h131z" />
    <glyph glyph-name="oe" unicode="&#x153;" horiz-adv-x="1310" 
d="M1014 248q15 30 39 33h180q13 -1 22 -11t7 -22q-33 -117 -140 -189.5t-239 -72.5q-134 0 -219 73q-106 -71 -236 -71q-146 0 -235.5 89.5t-71.5 227.5l45 318q20 143 132.5 238t264.5 95q130 0 215 -75q105 75 240 75q151 0 235 -95t64 -238l-27 -187q-1 -17 -14.5 -29
t-28.5 -12h-411l-17 -104q-5 -43 21 -72t71 -29q35 0 64 17.5t39 40.5zM457 190q45 0 77.5 31t38.5 76l50 348q6 45 -18.5 76t-69.5 31t-78 -31t-39 -76l-49 -348q-6 -45 18.5 -76t69.5 -31zM870 645l-10 -65h205l10 65q6 45 -18.5 76t-69.5 31q-46 0 -78.5 -31t-38.5 -76z
" />
    <glyph glyph-name="Racute" unicode="&#x154;" 
d="M932 745q-13 -91 -64 -164t-125 -120l80 -422q-2 -14 -16 -26.5t-31 -12.5h-153q-26 0 -39 39l-62 352h-133l-49 -352q-2 -14 -15 -26.5t-30 -12.5h-164q-17 0 -28 12.5t-9 26.5l168 1190q2 14 15 25.5t30 11.5h326q149 0 246 -98t75 -261zM483 1061l-65 -467h117
q50 0 96.5 43.5t56.5 116.5l21 149q11 73 -23.5 115.5t-85.5 42.5h-117zM426 1509l293 156q9 6 20 6q21 0 27 -12l94 -129q7 -11 4 -23q-4 -19 -16 -26l-307 -125q-28 -8 -33 -8q-13 0 -23 10l-69 100q-6 6 -6 23q3 18 16 28z" />
    <glyph glyph-name="racute" unicode="&#x155;" horiz-adv-x="626" 
d="M670 717h-8q-33 0 -70.5 -12t-78.5 -37.5t-71.5 -74.5t-40.5 -114l-61 -440q-2 -15 -15 -27t-30 -12h-164q-17 0 -28 12t-9 27l121 864q3 16 16.5 27.5t30.5 11.5h150q17 0 27 -12t7 -27l-10 -86q61 64 131 100.5t135 36.5q15 0 25.5 -12t7.5 -29l-20 -155
q-3 -17 -16.5 -29t-28.5 -12zM295 1200l293 156q9 6 20 6q21 0 27 -12l94 -129q4 -6 4 -23q-4 -18 -16 -27l-309 -124q-27 -9 -31 -9q-10 0 -25 11l-69 100q-7 10 -4 22q4 22 16 29z" />
    <glyph glyph-name="uni0156" unicode="&#x156;" 
d="M932 745q-13 -91 -64 -164t-125 -120l80 -422q-2 -14 -16 -26.5t-31 -12.5h-153q-26 0 -39 39l-62 352h-133l-49 -352q-2 -14 -15 -26.5t-30 -12.5h-164q-17 0 -28 12.5t-9 26.5l168 1190q2 14 15 25.5t30 11.5h326q149 0 246 -98t75 -261zM483 1061l-65 -467h117
q50 0 96.5 43.5t56.5 116.5l21 149q11 73 -23.5 115.5t-85.5 42.5h-117zM459 -377l73 262q1 15 -8 26t-24 13h-133q-24 -3 -39 -39l-117 -262q-3 -14 6 -24.5t23 -12.5h174q31 3 45 37z" />
    <glyph glyph-name="uni0157" unicode="&#x157;" horiz-adv-x="626" 
d="M670 717h-8q-33 0 -70.5 -12t-78.5 -37.5t-71.5 -74.5t-40.5 -114l-61 -440q-2 -15 -15 -27t-30 -12h-164q-17 0 -28 12t-9 27l121 864q3 16 16.5 27.5t30.5 11.5h150q17 0 27 -12t7 -27l-10 -86q61 64 131 100.5t135 36.5q15 0 25.5 -12t7.5 -29l-20 -155
q-3 -17 -16.5 -29t-28.5 -12zM299 -377l74 262q1 15 -8.5 26t-24.5 13h-133q-24 -3 -39 -39l-117 -262q-3 -14 6 -24.5t23 -12.5h174q31 3 45 37z" />
    <glyph glyph-name="Rcaron" unicode="&#x158;" 
d="M932 745q-13 -91 -64 -164t-125 -120l80 -422q-2 -14 -16 -26.5t-31 -12.5h-153q-26 0 -39 39l-62 352h-133l-49 -352q-2 -14 -15 -26.5t-30 -12.5h-164q-17 0 -28 12.5t-9 26.5l168 1190q2 14 15 25.5t30 11.5h326q149 0 246 -98t75 -261zM483 1061l-65 -467h117
q50 0 96.5 43.5t56.5 116.5l21 149q11 73 -23.5 115.5t-85.5 42.5h-117zM719 1348h-217q-31 0 -35 38l-55 293q2 15 15 27t30 12h114q29 0 37 -39l25 -174l74 174q16 39 45 39h114q17 0 28 -12t9 -27l-137 -293q-19 -38 -47 -38z" />
    <glyph glyph-name="rcaron" unicode="&#x159;" horiz-adv-x="626" 
d="M670 717h-8q-33 0 -70.5 -12t-78.5 -37.5t-71.5 -74.5t-40.5 -114l-61 -440q-2 -15 -15 -27t-30 -12h-164q-17 0 -28 12t-9 27l121 862q3 16 16.5 27.5t30.5 11.5h150q17 0 27 -12t7 -27l-10 -84q61 64 131 100.5t135 36.5q15 0 25.5 -12t7.5 -29l-20 -155
q-3 -17 -16.5 -29t-28.5 -12zM598 1038h-217q-29 0 -37 39l-53 293q2 15 15 27t30 12h115q28 0 36 -39l25 -174l74 174q16 39 45 39h114q17 0 28 -12t9 -27l-139 -293q-16 -39 -45 -39z" />
    <glyph glyph-name="Sacute" unicode="&#x15a;" horiz-adv-x="858" 
d="M106 346q3 15 18 27t32 12h163q17 0 27 -11.5t8 -27.5q-6 -26 -3 -53.5t12 -50t37.5 -37.5t74.5 -15q117 0 142 128q1 3 1 4q10 73 -29 118t-128 92q-57 30 -86.5 48t-76.5 55.5t-69 74.5t-35 94.5t-4 125.5q52 350 410 350q85 0 147 -26t93.5 -63t48.5 -88t20 -90.5
t0 -82.5q-2 -15 -16 -27t-31 -12h-164q-16 0 -26 11.5t-10 27.5q5 145 -95 145q-109 0 -129 -131q-12 -93 72 -157q31 -24 113 -68q112 -60 157 -102q111 -102 86 -273q-13 -96 -55 -167.5t-102.5 -112t-128.5 -59.5t-144 -19q-71 0 -131.5 19.5t-110.5 59.5t-74 112.5
t-14 168.5zM414 1509l293 156q9 6 20 6q21 0 27 -12l94 -129q7 -11 4 -23q-4 -19 -16 -26l-308 -125q-28 -8 -32 -8q-13 0 -23 10l-70 100q-6 6 -6 23q3 17 17 28z" />
    <glyph glyph-name="sacute" unicode="&#x15b;" horiz-adv-x="739" 
d="M80 248q1 15 15.5 26t31.5 11h127q35 0 41 -37q2 -27 25.5 -45.5t62.5 -18.5q49 0 76 14.5t33 51.5q3 26 -14.5 48.5t-37 34.5t-59.5 32q-31 15 -51.5 25.5t-54 31.5t-54.5 44t-41.5 53.5t-27 69.5t-0.5 83q10 74 46.5 130.5t87.5 88.5t107 47.5t113 15.5
q115 0 196 -68.5t84 -201.5q-2 -15 -15 -26t-30 -11h-127q-28 0 -41 37q-3 26 -26.5 47t-57.5 21q-3 0 -9 -0.5t-20.5 -4.5t-26 -11.5t-22.5 -23.5t-14 -38q-2 -11 1.5 -22.5t13 -22.5t19.5 -20.5t28.5 -22t32 -21t37.5 -23.5t38 -24q37 -24 55.5 -36.5t48 -39t42.5 -50.5
t21.5 -61t2.5 -79q-5 -32 -18.5 -65.5t-42.5 -70.5t-68 -65t-100.5 -46.5t-134.5 -18.5q-69 0 -122.5 18.5t-84.5 45.5t-50.5 64.5t-27 69t-8.5 64.5zM324 1200l292 156q9 6 21 6q21 0 27 -12l94 -129q4 -6 4 -23q-3 -17 -17 -27l-309 -124q-27 -9 -30 -9q-10 0 -25 11
l-70 100q-7 10 -4 22q3 21 17 29z" />
    <glyph glyph-name="Scircumflex" unicode="&#x15c;" horiz-adv-x="858" 
d="M106 346q3 15 18 27t32 12h163q17 0 27 -11.5t8 -27.5q-6 -26 -3 -53.5t12 -50t37.5 -37.5t74.5 -15q117 0 142 128q1 3 1 4q10 73 -29 118t-128 92q-57 30 -86.5 48t-76.5 55.5t-69 74.5t-35 94.5t-4 125.5q52 350 410 350q85 0 147 -26t93.5 -63t48.5 -88t20 -90.5
t0 -82.5q-2 -15 -16 -27t-31 -12h-164q-16 0 -26 11.5t-10 27.5q5 145 -95 145q-109 0 -129 -131q-12 -93 72 -157q31 -24 113 -68q112 -60 157 -102q111 -102 86 -273q-13 -96 -55 -167.5t-102.5 -112t-128.5 -59.5t-144 -19q-71 0 -131.5 19.5t-110.5 59.5t-74 112.5
t-14 168.5zM770 1718h-217q-29 0 -45 -39l-137 -293q-3 -15 7.5 -26.5t27.5 -11.5h114q28 0 47 38l74 175l25 -175q4 -38 34 -38h115q17 0 30.5 11.5t16.5 26.5l-55 293q-8 39 -37 39z" />
    <glyph glyph-name="scircumflex" unicode="&#x15d;" horiz-adv-x="739" 
d="M80 248q1 15 15.5 26t31.5 11h127q35 0 41 -37q2 -27 25.5 -45.5t62.5 -18.5q49 0 76 14.5t33 51.5q3 26 -14.5 48.5t-37 34.5t-59.5 32q-31 15 -51.5 25.5t-54 31.5t-54.5 44t-41.5 53.5t-27 69.5t-0.5 83q10 74 46.5 130.5t87.5 88.5t107 47.5t113 15.5
q115 0 196 -68.5t84 -201.5q-2 -15 -15 -26t-30 -11h-127q-28 0 -41 37q-3 26 -26.5 47t-57.5 21q-3 0 -9 -0.5t-20.5 -4.5t-26 -11.5t-22.5 -23.5t-14 -38q-2 -11 1.5 -22.5t13 -22.5t19.5 -20.5t28.5 -22t32 -21t37.5 -23.5t38 -24q37 -24 55.5 -36.5t48 -39t42.5 -50.5
t21.5 -61t2.5 -79q-5 -32 -18.5 -65.5t-42.5 -70.5t-68 -65t-100.5 -46.5t-134.5 -18.5q-69 0 -122.5 18.5t-84.5 45.5t-50.5 64.5t-27 69t-8.5 64.5zM672 1409h-217q-29 0 -45 -39l-140 -293q-2 -15 9 -27t28 -12h115q29 0 45 39l74 174l24 -174q8 -39 37 -39h115
q17 0 30 12t15 27l-53 293q-8 39 -37 39z" />
    <glyph glyph-name="Scedilla" unicode="&#x15e;" horiz-adv-x="858" 
d="M866 344q-19 -135 -90.5 -217t-177.5 -117l-84 -241q-11 -32 -41 -35h-164q-13 2 -21 12t-5 23l98 219q-62 7 -113.5 30t-92 64.5t-59.5 109t-10 154.5q3 15 18 27t32 12h163q17 0 27 -11.5t8 -27.5q-6 -26 -3 -53.5t12 -50t37.5 -37.5t74.5 -15q117 0 142 128q1 3 1 4
q10 73 -29 118t-128 92q-57 30 -86.5 48t-76.5 55.5t-69 74.5t-35 94.5t-4 125.5q52 350 410 350q85 0 147 -26t93.5 -63t48.5 -88t20 -90.5t0 -82.5q-2 -15 -16 -27t-31 -12h-164q-16 0 -26 11.5t-10 27.5q5 145 -95 145q-109 0 -129 -131q-12 -93 72 -157q31 -24 113 -68
q112 -60 157 -102q111 -102 86 -273z" />
    <glyph glyph-name="scedilla" unicode="&#x15f;" horiz-adv-x="739" 
d="M481 -2l-69 -225q-14 -34 -45 -37h-160q-13 2 -22.5 12.5t-6.5 24.5l101 223q-57 12 -98 41.5t-61.5 67t-29.5 72.5t-10 71q1 15 15.5 26t31.5 11h127q35 0 41 -37q2 -27 25.5 -45.5t62.5 -18.5q49 0 76 14.5t33 51.5q3 26 -14.5 48.5t-37 34.5t-59.5 32
q-31 15 -51.5 25.5t-54 31.5t-54.5 44t-41.5 53.5t-27 69.5t-0.5 83q10 74 46.5 130.5t87.5 88.5t107 47.5t113 15.5q115 0 196 -68.5t84 -201.5q-2 -15 -15 -26t-30 -11h-127q-28 0 -41 37q-3 26 -26.5 47t-57.5 21q-3 0 -9 -0.5t-20.5 -4.5t-26 -11.5t-22.5 -23.5t-14 -38
q-2 -11 1.5 -22.5t13 -22.5t19.5 -20.5t28.5 -22t32 -21t37.5 -23.5t38 -24q37 -24 55.5 -36.5t48 -39t42.5 -50.5t21.5 -61t2.5 -79q-5 -34 -21.5 -70t-45.5 -73t-78 -67t-111 -44z" />
    <glyph glyph-name="Scaron" unicode="&#x160;" horiz-adv-x="858" 
d="M106 346q3 15 18 27t32 12h163q17 0 27 -11.5t8 -27.5q-6 -26 -3 -53.5t12 -50t37.5 -37.5t74.5 -15q117 0 142 128q1 3 1 4q10 73 -29 118t-128 92q-57 30 -86.5 48t-76.5 55.5t-69 74.5t-35 94.5t-4 125.5q52 350 410 350q85 0 147 -26t93.5 -63t48.5 -88t20 -90.5
t0 -82.5q-2 -15 -16 -27t-31 -12h-164q-16 0 -26 11.5t-10 27.5q5 145 -95 145q-109 0 -129 -131q-12 -93 72 -157q31 -24 113 -68q112 -60 157 -102q111 -102 86 -273q-13 -96 -55 -167.5t-102.5 -112t-128.5 -59.5t-144 -19q-71 0 -131.5 19.5t-110.5 59.5t-74 112.5
t-14 168.5zM502 1348h217q28 0 47 38l137 293q2 15 -9 27t-28 12h-114q-29 0 -45 -39l-74 -174l-25 174q-8 39 -37 39h-114q-17 0 -30 -12t-15 -27l55 -293q4 -38 35 -38z" />
    <glyph glyph-name="scaron" unicode="&#x161;" horiz-adv-x="739" 
d="M80 248q1 15 15.5 26t31.5 11h127q35 0 41 -37q2 -27 25.5 -45.5t62.5 -18.5q49 0 76 14.5t33 51.5q3 26 -14.5 48.5t-37 34.5t-59.5 32q-31 15 -51.5 25.5t-54 31.5t-54.5 44t-41.5 53.5t-27 69.5t-0.5 83q10 74 46.5 130.5t87.5 88.5t107 47.5t113 15.5
q115 0 196 -68.5t84 -201.5q-2 -15 -15 -26t-30 -11h-127q-28 0 -41 37q-3 26 -26.5 47t-57.5 21q-3 0 -9 -0.5t-20.5 -4.5t-26 -11.5t-22.5 -23.5t-14 -38q-2 -11 1.5 -22.5t13 -22.5t19.5 -20.5t28.5 -22t32 -21t37.5 -23.5t38 -24q37 -24 55.5 -36.5t48 -39t42.5 -50.5
t21.5 -61t2.5 -79q-5 -32 -18.5 -65.5t-42.5 -70.5t-68 -65t-100.5 -46.5t-134.5 -18.5q-69 0 -122.5 18.5t-84.5 45.5t-50.5 64.5t-27 69t-8.5 64.5zM401 1038h217q30 0 46 39l139 293q2 15 -9 27t-28 12h-115q-29 0 -45 -39l-74 -174l-24 174q-8 39 -37 39h-115
q-17 0 -30 -12t-15 -27l54 -293q8 -39 36 -39z" />
    <glyph glyph-name="uni0162" unicode="&#x162;" horiz-adv-x="727" 
d="M834 1266q17 0 27 -11t9 -28l-18 -123q-1 -18 -15 -29.5t-32 -11.5h-172l-144 -1024q-2 -15 -14 -26t-29 -11h-55q-49 -32 -57 -94q-5 -33 16 -57.5t56 -24.5q15 0 38.5 2t34.5 2q9 0 15 -7.5t6 -15.5l-17 -120q-9 -19 -24 -21q-70 -4 -103 -4q-57 0 -100.5 14.5
t-66.5 37t-38.5 51t-16 55.5t0.5 51q6 44 32 94t79 88l141 1010h-170q-16 0 -26 11.5t-9 29.5l19 123q1 17 15 28t30 11h588z" />
    <glyph glyph-name="uni0163" unicode="&#x163;" horiz-adv-x="606" 
d="M459 0l-74 -227q-14 -34 -45 -37h-160q-13 2 -22 12.5t-6 24.5l120 264q-112 67 -77 303l57 405h-90q-15 0 -25.5 12t-9.5 29l16 115q3 17 16.5 29t28.5 12h91l30 223q3 16 16.5 27.5t30.5 11.5h164q17 0 27.5 -12t7.5 -27l-31 -223h125q15 0 25.5 -12t7.5 -29l-16 -117
q-1 -17 -14.5 -29t-28.5 -12h-125l-58 -407q-10 -64 10 -95.5t97 -35.5q15 0 24.5 -12t8.5 -29l-19 -123q-1 -17 -14.5 -29t-28.5 -12h-59z" />
    <glyph glyph-name="Tcaron" unicode="&#x164;" horiz-adv-x="724" 
d="M244 39l143 1022h-172q-15 0 -24.5 12t-8.5 29l19 123q1 17 14.5 29t28.5 12h590q15 0 25 -12t9 -29l-18 -123q-1 -17 -15 -29t-30 -12h-172l-144 -1022q-2 -15 -15 -27t-30 -12h-163q-17 0 -28 12t-9 27zM442 1348h217q29 0 48 38l137 293q2 15 -9 27t-28 12h-115
q-29 0 -45 -39l-74 -174l-24 174q-8 39 -37 39h-115q-17 0 -30 -12t-15 -27l56 -293q4 -38 34 -38z" />
    <glyph glyph-name="tcaron" unicode="&#x165;" horiz-adv-x="700" 
d="M518 0h-72q-58 0 -100.5 9t-78.5 32t-53.5 61.5t-25 97.5t6.5 140l57 405h-90q-15 0 -25.5 12t-9.5 29l16 115q3 17 16.5 29t28.5 12h91l30 223q3 16 16.5 27.5t30.5 11.5h164q17 0 27.5 -12t7.5 -27l-31 -223h125q15 0 25.5 -12t7.5 -29l-16 -117q-1 -17 -14.5 -29
t-28.5 -12h-125l-58 -407q-10 -64 10 -95.5t97 -35.5q15 0 24.5 -12t8.5 -29l-19 -123q-1 -17 -14.5 -29t-28.5 -12zM612 1044l23 119q13 38 47 41h139q16 -2 26 -13t7 -28l-53 -119q-17 -40 -45 -43h-109q-17 1 -27 13.5t-8 29.5z" />
    <glyph glyph-name="Tbar" unicode="&#x166;" horiz-adv-x="727" 
d="M834 1266q17 0 27 -13t7 -30l-16 -123q-3 -17 -16.5 -29t-30.5 -12h-172l-35 -244h109q16 0 26.5 -11t9.5 -28l-18 -125q-1 -17 -15 -28t-30 -11h-109l-82 -573q-2 -16 -15 -28.5t-30 -12.5h-163q-17 0 -28 12.5t-9 28.5l82 573h-107q-17 0 -27 11t-8 26l19 129
q2 15 14 26t29 11h106l35 244h-170q-16 0 -27 12t-8 29l17 123q3 17 17.5 30t29.5 13h588z" />
    <glyph glyph-name="tbar" unicode="&#x167;" horiz-adv-x="606" 
d="M219 522h-90q-15 0 -24.5 12t-8.5 29l17 115q3 17 16.5 29t28.5 12h90l16 123h-90q-15 0 -24.5 12t-8.5 29l17 114q1 17 15 29t30 12h90l16 127q3 16 16.5 27.5t30.5 11.5h164q17 0 27.5 -12t7.5 -27l-16 -127h125q15 0 24.5 -12t7.5 -29l-16 -116q-3 -17 -16.5 -29
t-28.5 -12h-125l-16 -121h124q15 0 25.5 -12t7.5 -29l-16 -117q-3 -17 -16.5 -29t-28.5 -12h-125l-25 -184q-10 -64 10 -95.5t97 -35.5q15 0 24.5 -12t8.5 -29l-19 -123q-1 -17 -14.5 -29t-28.5 -12h-72q-58 0 -100.5 9t-78.5 32t-53.5 61.5t-25 97.5t6.5 140z" />
    <glyph glyph-name="Utilde" unicode="&#x168;" horiz-adv-x="933" 
d="M465 -14q-164 0 -257 100.5t-71 253.5l125 887q2 15 15 27t30 12h164q17 0 28 -12t9 -27l-127 -899q-10 -69 24.5 -103.5t88.5 -34.5q53 0 96 34t53 104l127 899q2 15 15 27t30 12h164q17 0 28 -12t9 -27l-125 -887q-22 -153 -142 -253.5t-284 -100.5zM772 1346
q-61 0 -119 32q-58 29 -78 29q-37 0 -77 -37q-13 -10 -23 -10q-17 0 -20 10l-70 100q-4 12 -2 19q0 8 12 24q115 99 180 99q9 0 17.5 -1t20 -5.5t15 -5.5t18.5 -9t16 -8q68 -33 112 -33q38 0 78 37q13 10 22 10q18 0 21 -10l70 -100q4 -13 2 -19q0 -7 -13 -24
q-114 -98 -182 -98z" />
    <glyph glyph-name="utilde" unicode="&#x169;" 
d="M113 242l92 661q3 16 16.5 27.5t30.5 11.5h164q17 0 27.5 -12t7.5 -27l-84 -604q-6 -45 22 -77t70 -32q47 0 82 31.5t41 77.5l84 604q3 16 16.5 27.5t30.5 11.5h164q17 0 27 -12t7 -27l-120 -864q-2 -15 -15.5 -27t-30.5 -12h-149q-17 0 -28 12t-9 27l6 35
q-47 -39 -91.5 -59.5t-70.5 -24.5t-63 -4q-107 0 -174 75.5t-53 180.5zM694 1038q-59 0 -119 33q-58 29 -77 29q-37 0 -80 -37q-10 -10 -21 -10q-15 0 -22 10l-68 100q-4 13 -2 19q0 8 12 24q115 99 181 99q9 0 18 -1.5t19 -5t15 -5.5t18 -8.5t16 -8.5q68 -33 112 -33
q38 0 78 37q13 10 23 10q17 0 20 -10l68 -100q7 -10 4 -19q0 -8 -12 -24q-115 -99 -183 -99z" />
    <glyph glyph-name="Umacron" unicode="&#x16a;" horiz-adv-x="933" 
d="M465 -14q-164 0 -257 100.5t-71 253.5l125 887q2 15 15 27t30 12h164q17 0 28 -12t9 -27l-127 -899q-10 -69 24.5 -103.5t88.5 -34.5q53 0 96 34t53 104l127 899q2 15 15 27t30 12h164q17 0 28 -12t9 -27l-125 -887q-22 -153 -142 -253.5t-284 -100.5zM391 1386l17 127
q3 16 16.5 27.5t30.5 11.5h460q15 0 25.5 -12t7.5 -29l-16 -122q-3 -17 -16.5 -29t-28.5 -12h-461q-17 0 -27.5 11.5t-7.5 26.5z" />
    <glyph glyph-name="umacron" unicode="&#x16b;" 
d="M113 242l92 661q3 16 16.5 27.5t30.5 11.5h164q17 0 27.5 -12t7.5 -27l-84 -604q-6 -45 22 -77t70 -32q47 0 82 31.5t41 77.5l84 604q3 16 16.5 27.5t30.5 11.5h164q17 0 27 -12t7 -27l-120 -864q-2 -15 -15.5 -27t-30.5 -12h-149q-17 0 -28 12t-9 27l6 35
q-47 -39 -91.5 -59.5t-70.5 -24.5t-63 -4q-107 0 -174 75.5t-53 180.5zM309 1077l19 127q3 16 16.5 27.5t30.5 11.5h461q15 0 25 -12t7 -29l-16 -123q-3 -17 -16.5 -29t-28.5 -12h-461q-17 0 -28 12t-9 27z" />
    <glyph glyph-name="Ubreve" unicode="&#x16c;" horiz-adv-x="933" 
d="M465 -14q-164 0 -257 100.5t-71 253.5l125 887q2 15 15 27t30 12h164q17 0 28 -12t9 -27l-127 -899q-10 -69 24.5 -103.5t88.5 -34.5q53 0 96 34t53 104l127 899q2 15 15 27t30 12h164q17 0 28 -12t9 -27l-125 -887q-22 -153 -142 -253.5t-284 -100.5zM655 1348
q-66 0 -115.5 12.5t-90 41.5t-57 84.5t-5.5 135.5q2 14 14 24.5t27 10.5h152q15 0 24.5 -10.5t7.5 -24.5q-6 -36 13.5 -54t58.5 -18q80 0 92 72q2 14 14 24.5t27 10.5h152q15 0 24.5 -10.5t7.5 -24.5q-38 -274 -346 -274z" />
    <glyph glyph-name="ubreve" unicode="&#x16d;" 
d="M113 242l92 661q3 16 16.5 27.5t30.5 11.5h164q17 0 27.5 -12t7.5 -27l-84 -604q-6 -45 22 -77t70 -32q47 0 82 31.5t41 77.5l84 604q3 16 16.5 27.5t30.5 11.5h164q17 0 27 -12t7 -27l-120 -864q-2 -15 -15.5 -27t-30.5 -12h-149q-17 0 -28 12t-9 27l6 35
q-47 -39 -91.5 -59.5t-70.5 -24.5t-63 -4q-107 0 -174 75.5t-53 180.5zM582 1038q-310 0 -269 275q2 14 14 24.5t27 10.5h152q15 0 25 -10.5t8 -24.5q-12 -72 71 -72q80 0 92 72q2 14 14 24.5t27 10.5h152q15 0 25 -10.5t8 -24.5q-41 -275 -346 -275z" />
    <glyph glyph-name="Uring" unicode="&#x16e;" horiz-adv-x="933" 
d="M465 -14q-164 0 -257 100.5t-71 253.5l125 887q2 15 15 27t30 12h164q17 0 28 -12t9 -27l-127 -899q-10 -69 24.5 -103.5t88.5 -34.5q53 0 96 34t53 104l127 899q2 15 15 27t30 12h164q17 0 28 -12t9 -27l-125 -887q-22 -153 -142 -253.5t-284 -100.5zM655 1348
q-108 0 -159.5 64t-34.5 190q18 126 88 191t178 65q107 0 158 -65t33 -191q-17 -126 -86.5 -190t-176.5 -64zM678 1511q23 0 42 23.5t25 67.5q13 88 -43 88q-52 0 -65 -88q-6 -43 6.5 -67t34.5 -24z" />
    <glyph glyph-name="uring" unicode="&#x16f;" 
d="M113 242l92 661q3 16 16.5 27.5t30.5 11.5h164q17 0 27.5 -12t7.5 -27l-84 -604q-6 -45 22 -77t70 -32q47 0 82 31.5t41 77.5l84 604q3 16 16.5 27.5t30.5 11.5h164q17 0 27 -12t7 -27l-120 -864q-2 -15 -15.5 -27t-30.5 -12h-149q-17 0 -28 12t-9 27l6 35
q-47 -39 -91.5 -59.5t-70.5 -24.5t-63 -4q-107 0 -174 75.5t-53 180.5zM588 1038q-109 0 -161 64t-34 190t88 191t178 65q107 0 158 -65t33 -191t-86.5 -190t-175.5 -64zM610 1202q23 0 42.5 23.5t25.5 66.5q13 88 -43 88q-23 0 -41 -21t-25 -67q-6 -43 6.5 -66.5
t34.5 -23.5z" />
    <glyph glyph-name="Uhungarumlaut" unicode="&#x170;" horiz-adv-x="933" 
d="M465 -14q-164 0 -257 100.5t-71 253.5l125 887q2 15 15 27t30 12h164q17 0 28 -12t9 -27l-127 -899q-10 -69 24.5 -103.5t88.5 -34.5q53 0 96 34t53 104l127 899q2 15 15 27t30 12h164q17 0 28 -12t9 -27l-125 -887q-22 -153 -142 -253.5t-284 -100.5zM690 1389l60 221
q13 36 45 39h161q15 -2 24.5 -12.5t6.5 -26.5l-100 -221q-20 -38 -43 -41h-121q-17 2 -26.5 13t-6.5 28zM406 1389l59 221q13 36 45 39h162q15 -2 24 -12.5t6 -26.5l-100 -221q-20 -38 -43 -41h-121q-17 2 -26 13t-6 28z" />
    <glyph glyph-name="uhungarumlaut" unicode="&#x171;" 
d="M113 242l92 661q3 16 16.5 27.5t30.5 11.5h164q17 0 27.5 -12t7.5 -27l-84 -604q-6 -45 22 -77t70 -32q47 0 82 31.5t41 77.5l84 604q3 16 16.5 27.5t30.5 11.5h164q17 0 27 -12t7 -27l-120 -864q-2 -15 -15.5 -27t-30.5 -12h-149q-17 0 -28 12t-9 27l6 35
q-47 -39 -91.5 -59.5t-70.5 -24.5t-63 -4q-107 0 -174 75.5t-53 180.5zM623 1079l59 221q9 36 43 39h162q36 -4 33 -39l-101 -221q-20 -38 -43 -41h-121q-17 2 -26 13t-6 28zM338 1079l59 221q9 36 43 39h162q36 -4 33 -39l-100 -221q-20 -38 -43 -41h-121q-17 2 -26.5 13
t-6.5 28z" />
    <glyph glyph-name="Uogonek" unicode="&#x172;" horiz-adv-x="933" 
d="M645 -334q-52 -6 -102 -6q-48 0 -87 10t-62.5 27t-41 39t-23.5 45t-9 46t2 42q9 75 51 127q-124 26 -189.5 120t-46.5 224l125 887q2 15 15 27t30 12h164q17 0 28 -12t9 -27l-127 -899q-10 -69 24.5 -103.5t88.5 -34.5q53 0 96 34t53 104l127 899q2 15 15 27t30 12h164
q17 0 28 -12t9 -27l-125 -887q-19 -125 -106 -218t-212 -122q-47 -33 -55 -94q-5 -32 15.5 -57t56.5 -25q7 0 76 6q8 0 14 -7.5t6 -15.5l-16 -120q-9 -18 -25 -21z" />
    <glyph glyph-name="uogonek" unicode="&#x173;" 
d="M557 25l8 49q-47 -39 -91.5 -59.5t-70.5 -24.5t-63 -4q-107 0 -174 75.5t-53 180.5l92 661q3 16 16.5 27.5t30.5 11.5h164q17 0 27.5 -12t7.5 -27l-84 -604q-6 -45 22 -77t70 -32q47 0 82 31.5t41 77.5l84 604q3 16 16.5 27.5t30.5 11.5h164q17 0 27 -12t7 -27l-120 -866
q-2 -15 -14 -26t-29 -11h-56q-49 -32 -57 -92q-11 -82 51 -82q15 0 27.5 2t23.5 2q9 0 15 -7.5t6 -15.5l-17 -120q-9 -19 -24 -21q-14 -1 -23.5 -2t-16.5 -1.5t-20 -0.5q-57 0 -100.5 14.5t-66.5 37t-38.5 51t-16 55.5t0.5 51q14 110 121 154z" />
    <glyph glyph-name="Ydieresis" unicode="&#x178;" 
d="M621 434l-56 -395q-2 -15 -15 -27t-30 -12h-164q-17 0 -28 12t-9 27l56 395l-185 793q2 15 15.5 27t30.5 12h165q25 0 37 -39l107 -463l237 463q20 39 45 39h166q17 0 28 -12t9 -27zM379 1477q7 52 48.5 88.5t94.5 36.5t85.5 -36.5t25.5 -88.5q-7 -54 -50 -91.5
t-96 -37.5t-84 37.5t-24 91.5zM657 1477q7 52 49 88.5t95 36.5t85 -36.5t25 -88.5q-7 -54 -49.5 -91.5t-95.5 -37.5t-84.5 37.5t-24.5 91.5z" />
    <glyph glyph-name="Zacute" unicode="&#x179;" horiz-adv-x="784" 
d="M854 1063l-496 -858h347q15 0 24.5 -12t7.5 -29l-18 -123q-1 -17 -14.5 -29t-28.5 -12h-565q-17 0 -28 12t-9 27l18 131q1 8 3.5 14.5t5 11.5l3.5 7l490 858h-338q-15 0 -24.5 12t-8.5 29l19 123q1 17 14.5 29t28.5 12h565q17 0 28 -12t9 -27l-19 -127q-2 -19 -14 -37z
M381 1509l293 156q9 6 20 6q21 0 27 -12l94 -129q7 -11 4 -23q-4 -19 -16 -26l-307 -125q-28 -8 -33 -8q-13 0 -23 10l-69 100q-6 6 -6 23q3 18 16 28z" />
    <glyph glyph-name="zacute" unicode="&#x17a;" horiz-adv-x="669" 
d="M725 739l-393 -534h289q15 0 24.5 -12t7.5 -29l-18 -123q-1 -17 -14.5 -29t-28.5 -12h-512q-17 0 -28 12t-9 27l18 131q2 16 13 33l395 534h-289q-15 0 -25.5 12t-7.5 29l17 123q3 17 16.5 29t28.5 12h512q17 0 27.5 -12t7.5 -27l-19 -131q-2 -18 -12 -33zM285 1200
l293 156q9 6 20 6q21 0 27 -12l94 -129q4 -6 4 -23q-4 -18 -16 -27l-310 -124q-27 -9 -30 -9q-10 0 -25 11l-70 100q-7 10 -4 22q3 21 17 29z" />
    <glyph glyph-name="Zdotaccent" unicode="&#x17b;" horiz-adv-x="784" 
d="M854 1063l-496 -858h347q15 0 24.5 -12t7.5 -29l-18 -123q-1 -17 -14.5 -29t-28.5 -12h-565q-17 0 -28 12t-9 27l18 131q1 8 3.5 14.5t5 11.5l3.5 7l490 858h-338q-15 0 -24.5 12t-8.5 29l19 123q1 17 14.5 29t28.5 12h565q17 0 28 -12t9 -27l-19 -127q-2 -19 -14 -37z
M473 1477q-7 -54 24.5 -91.5t84.5 -37.5t95.5 37.5t49.5 91.5q7 52 -25.5 88.5t-85.5 36.5t-94.5 -36.5t-48.5 -88.5z" />
    <glyph glyph-name="zdotaccent" unicode="&#x17c;" horiz-adv-x="669" 
d="M725 739l-393 -534h289q15 0 24.5 -12t7.5 -29l-18 -123q-1 -17 -14.5 -29t-28.5 -12h-512q-17 0 -28 12t-9 27l18 131q2 16 13 33l395 534h-289q-15 0 -25.5 12t-7.5 29l17 123q3 17 16.5 29t28.5 12h512q17 0 27.5 -12t7.5 -27l-19 -131q-2 -18 -12 -33zM371 1167
q-7 -54 24 -91.5t84 -37.5t96 37.5t50 91.5q6 52 -26 88.5t-85 36.5t-95 -36.5t-48 -88.5z" />
    <glyph glyph-name="Zcaron" unicode="&#x17d;" horiz-adv-x="784" 
d="M854 1063l-496 -858h347q15 0 24.5 -12t7.5 -29l-18 -123q-1 -17 -14.5 -29t-28.5 -12h-565q-17 0 -28 12t-9 27l18 131q1 8 3.5 14.5t5 11.5l3.5 7l490 858h-338q-15 0 -24.5 12t-8.5 29l19 123q1 17 14.5 29t28.5 12h565q17 0 28 -12t9 -27l-19 -127q-2 -19 -14 -37z
M471 1348h217q28 0 47 38l137 293q2 15 -8.5 27t-27.5 12h-115q-29 0 -45 -39l-74 -174l-24 174q-8 39 -37 39h-115q-17 0 -30 -12t-15 -27l55 -293q4 -38 35 -38z" />
    <glyph glyph-name="zcaron" unicode="&#x17e;" horiz-adv-x="669" 
d="M725 739l-393 -534h289q15 0 24.5 -12t7.5 -29l-18 -123q-1 -17 -14.5 -29t-28.5 -12h-512q-17 0 -28 12t-9 27l18 131q2 16 13 33l395 534h-289q-15 0 -25.5 12t-7.5 29l17 123q3 17 16.5 29t28.5 12h512q17 0 27.5 -12t7.5 -27l-19 -131q-2 -18 -12 -33zM371 1038h217
q29 0 45 39l139 293q2 15 -9 27t-28 12h-114q-30 0 -46 -39l-73 -174l-25 174q-8 39 -37 39h-114q-17 0 -30 -12t-15 -27l53 -293q8 -39 37 -39z" />
    <glyph glyph-name="florin" unicode="&#x192;" horiz-adv-x="575" 
d="M51 -319h-61q-15 0 -25.5 11.5t-9.5 28.5l18 123q1 17 15 29t28 12q34 1 57 8.5t36 16.5t22 29t11.5 33.5t7.5 43.5l102 729h-90q-15 0 -25.5 12t-9.5 29l16 115q3 17 16.5 29t28.5 12h91q14 96 43 161t74.5 100t99.5 49t127 14h65q15 0 25.5 -12t9.5 -29l-16 -107
q-1 -17 -15 -29t-30 -12q-75 -3 -101 -26t-31 -68l-6 -41h125q15 0 25.5 -12t7.5 -29l-16 -117q-1 -17 -14.5 -29t-28.5 -12h-125l-103 -723q-14 -99 -43.5 -166.5t-75 -104.5t-99 -52.5t-126.5 -15.5z" />
    <glyph glyph-name="uni0218" unicode="&#x218;" horiz-adv-x="858" 
d="M106 346q3 15 18 27t32 12h163q17 0 27 -11.5t8 -27.5q-6 -26 -3 -53.5t12 -50t37.5 -37.5t74.5 -15q117 0 142 128q1 3 1 4q10 73 -29 118t-128 92q-57 30 -86.5 48t-76.5 55.5t-69 74.5t-35 94.5t-4 125.5q52 350 410 350q85 0 147 -26t93.5 -63t48.5 -88t20 -90.5
t0 -82.5q-2 -15 -16 -27t-31 -12h-164q-16 0 -26 11.5t-10 27.5q5 145 -95 145q-109 0 -129 -131q-12 -93 72 -157q31 -24 113 -68q112 -60 157 -102q111 -102 86 -273q-13 -96 -55 -167.5t-102.5 -112t-128.5 -59.5t-144 -19q-71 0 -131.5 19.5t-110.5 59.5t-74 112.5
t-14 168.5zM561 -115l-74 -262q-14 -34 -45 -37h-174q-14 2 -22.5 12t-5.5 25l116 262q15 36 39 39h133q15 -2 24.5 -13t8.5 -26z" />
    <glyph glyph-name="uni0219" unicode="&#x219;" horiz-adv-x="739" 
d="M80 248q1 15 15.5 26t31.5 11h127q35 0 41 -37q2 -27 25.5 -45.5t62.5 -18.5q49 0 76 14.5t33 51.5q3 26 -14.5 48.5t-37 34.5t-59.5 32q-31 15 -51.5 25.5t-54 31.5t-54.5 44t-41.5 53.5t-27 69.5t-0.5 83q10 74 46.5 130.5t87.5 88.5t107 47.5t113 15.5
q115 0 196 -68.5t84 -201.5q-2 -15 -15 -26t-30 -11h-127q-28 0 -41 37q-3 26 -26.5 47t-57.5 21q-3 0 -9 -0.5t-20.5 -4.5t-26 -11.5t-22.5 -23.5t-14 -38q-2 -11 1.5 -22.5t13 -22.5t19.5 -20.5t28.5 -22t32 -21t37.5 -23.5t38 -24q37 -24 55.5 -36.5t48 -39t42.5 -50.5
t21.5 -61t2.5 -79q-5 -32 -18.5 -65.5t-42.5 -70.5t-68 -65t-100.5 -46.5t-134.5 -18.5q-69 0 -122.5 18.5t-84.5 45.5t-50.5 64.5t-27 69t-8.5 64.5zM494 -115l-74 -262q-14 -34 -45 -37h-174q-14 2 -23 12.5t-6 24.5l117 262q15 36 39 39h133q15 -2 24.5 -13t8.5 -26z" />
    <glyph glyph-name="uni021A" unicode="&#x21a;" horiz-adv-x="724" 
d="M244 39l143 1022h-172q-15 0 -24.5 12t-8.5 29l19 123q1 17 14.5 29t28.5 12h590q15 0 25 -12t9 -29l-18 -123q-1 -17 -15 -29t-30 -12h-172l-144 -1022q-2 -15 -15 -27t-30 -12h-163q-17 0 -28 12t-9 27zM449 -115l-74 -262q-14 -34 -45 -37h-174q-14 2 -23 12.5
t-6 24.5l117 262q15 36 39 39h133q15 -2 24.5 -13t8.5 -26z" />
    <glyph glyph-name="uni021B" unicode="&#x21b;" horiz-adv-x="606" 
d="M518 0h-72q-58 0 -100.5 9t-78.5 32t-53.5 61.5t-25 97.5t6.5 140l57 405h-90q-15 0 -25.5 12t-9.5 29l16 115q3 17 16.5 29t28.5 12h91l30 223q3 16 16.5 27.5t30.5 11.5h164q17 0 27.5 -12t7.5 -27l-31 -223h125q15 0 25.5 -12t7.5 -29l-16 -117q-1 -17 -14.5 -29
t-28.5 -12h-125l-58 -407q-10 -64 10 -95.5t97 -35.5q15 0 24.5 -12t8.5 -29l-19 -123q-1 -17 -14.5 -29t-28.5 -12zM444 -115l-73 -262q-14 -34 -45 -37h-174q-14 2 -23 12.5t-6 24.5l117 262q15 36 39 39h133q15 -2 24 -13t8 -26z" />
    <glyph glyph-name="circumflex" unicode="&#x2c6;" horiz-adv-x="671" 
d="M403 1266h218q28 0 36 -39l56 -293q-3 -16 -16.5 -27.5t-30.5 -11.5h-115q-31 0 -35 39l-24 174l-74 -174q-20 -39 -47 -39h-115q-17 0 -27.5 12t-7.5 27l137 293q16 39 45 39z" />
    <glyph glyph-name="caron" unicode="&#x2c7;" horiz-adv-x="671" 
d="M569 895h-217q-31 0 -35 39l-55 293q2 15 15 27t30 12h115q29 0 37 -39l24 -174l74 174q16 39 45 39h115q17 0 28 -12t9 -27l-138 -293q-20 -39 -47 -39z" />
    <glyph glyph-name="breve" unicode="&#x2d8;" horiz-adv-x="794" 
d="M530 956q-66 0 -115.5 12.5t-90 41.5t-57 85t-5.5 136q2 14 14 24.5t27 10.5h152q15 0 24.5 -10.5t7.5 -24.5q-9 -72 72 -72q83 0 92 72q2 14 14 24.5t27 10.5h152q15 0 25 -10.5t8 -24.5q-39 -275 -347 -275z" />
    <glyph glyph-name="dotaccent" unicode="&#x2d9;" horiz-adv-x="434" 
d="M252 1155q7 52 48.5 88.5t94.5 36.5t85.5 -36.5t25.5 -88.5q-7 -54 -50 -91.5t-96 -37.5t-84 37.5t-24 91.5z" />
    <glyph glyph-name="ring" unicode="&#x2da;" horiz-adv-x="636" 
d="M424 756q-109 0 -160 64t-33 190q18 127 87.5 191.5t177.5 64.5q107 0 158.5 -65t33.5 -191t-87.5 -190t-176.5 -64zM449 920q23 0 42 23.5t25 66.5q11 88 -43 88q-23 0 -41 -21t-24 -67q-6 -43 6.5 -66.5t34.5 -23.5z" />
    <glyph glyph-name="ogonek" unicode="&#x2db;" horiz-adv-x="534" 
d="M106 -47q24 34 56 37h117q13 -2 23 -10.5t9 -18.5q0 -4 -4 -8q-2 -4 -12 -18.5t-16.5 -28t-8.5 -29.5q-3 -20 10 -35.5t35 -15.5q28 0 78 8q23 0 23 -24l-17 -117q-2 -8 -10 -15.5t-18 -7.5q-41 -8 -101 -8q-66 0 -110.5 20t-63.5 52.5t-24.5 63.5t-1.5 63q6 50 36 92z
" />
    <glyph glyph-name="tilde" unicode="&#x2dc;" horiz-adv-x="768" 
d="M639 997q-59 0 -119 33q-58 29 -78 29q-37 0 -77 -37q-13 -10 -23 -10q-17 0 -20 10l-68 100q-7 10 -4 19q0 8 12 24q115 99 180 99q9 0 18 -1.5t19 -5t15 -5.5t18 -8.5t16 -8.5q68 -33 113 -33q37 0 80 37q10 10 20 10q16 0 23 -10l67 -100q5 -14 3 -19q0 -7 -13 -24
q-115 -99 -182 -99z" />
    <glyph glyph-name="hungarumlaut" unicode="&#x2dd;" horiz-adv-x="808" 
d="M551 913l102 314q9 36 43 39h162q36 -4 33 -39l-143 -314q-17 -38 -43 -41h-121q-15 2 -24.5 13t-8.5 28zM217 913l102 314q9 36 43 39h162q36 -4 33 -39l-143 -314q-17 -38 -43 -41h-121q-15 2 -24.5 13t-8.5 28z" />
    <glyph glyph-name="uni03A9" unicode="&#x3a9;" horiz-adv-x="1146" 
d="M752 1280q164 0 256.5 -100.5t70.5 -253.5l-82 -586q-5 -45 -43 -135h93q15 0 24.5 -12t7.5 -29l-18 -123q-1 -17 -14.5 -29t-28.5 -12h-367q-15 0 -25.5 12t-9.5 29l19 123q1 17 15 29t30 12q51 0 70 123l86 610q10 69 -24.5 103t-88.5 34t-97 -34t-53 -103l-86 -610
q-19 -123 37 -123q15 0 24.5 -12t8.5 -29l-18 -123q-1 -17 -14.5 -29t-28.5 -12h-367q-15 0 -25.5 12t-9.5 29l19 123q1 17 15 29t30 12h92q-13 74 -6 135l82 586q22 153 142 253.5t284 100.5z" />
    <glyph glyph-name="pi" unicode="&#x3c0;" horiz-adv-x="1335" 
d="M793 39l98 698h-242l-98 -698q-2 -15 -15 -27t-30 -12h-164q-17 0 -28 12t-9 27l98 698h-172q-15 0 -25 12t-7 29l16 123q3 17 16.5 29t28.5 12h1077q15 0 25.5 -12t7.5 -29l-16 -123q-3 -17 -16.5 -29t-28.5 -12h-172l-99 -698q-2 -15 -15 -27t-30 -12h-164
q-17 0 -27.5 12t-8.5 27z" />
    <glyph glyph-name="ZWSP" unicode="&#x200b;" horiz-adv-x="0" 
 />
    <glyph glyph-name="endash" unicode="&#x2013;" horiz-adv-x="763" 
d="M152 440l16 127q3 16 16.5 27.5t30.5 11.5h504q15 0 25.5 -12t7.5 -29l-17 -123q-3 -17 -16.5 -29t-28.5 -12h-504q-17 0 -27 12t-7 27z" />
    <glyph glyph-name="emdash" unicode="&#x2014;" horiz-adv-x="894" 
d="M152 440l16 127q3 16 16.5 27.5t30.5 11.5h635q15 0 25.5 -12t7.5 -29l-17 -123q-3 -17 -16.5 -29t-28.5 -12h-635q-17 0 -27 12t-7 27z" />
    <glyph glyph-name="quoteleft" unicode="&#x2018;" horiz-adv-x="475" 
d="M557 1225l-102 -314q-13 -36 -45 -39h-162q-15 2 -24.5 12.5t-6.5 26.5l143 314q17 38 41 41h121q17 -2 26.5 -13t8.5 -28z" />
    <glyph glyph-name="quoteright" unicode="&#x2019;" horiz-adv-x="475" 
d="M217 913l102 314q9 36 43 39h162q36 -4 33 -39l-143 -314q-17 -38 -43 -41h-121q-15 2 -24.5 13t-8.5 28z" />
    <glyph glyph-name="quotesinglbase" unicode="&#x201a;" horiz-adv-x="475" 
d="M66 -162l102 314q9 35 45 38h162q14 -2 23 -12t8 -26l-144 -314q-17 -38 -41 -41h-121q-17 1 -26.5 12.5t-7.5 28.5z" />
    <glyph glyph-name="quotedblleft" unicode="&#x201c;" horiz-adv-x="808" 
d="M557 1225l-102 -314q-13 -36 -45 -39h-162q-15 2 -24.5 12.5t-6.5 26.5l143 314q17 38 41 41h121q17 -2 26.5 -13t8.5 -28zM891 1225l-103 -314q-13 -36 -45 -39h-161q-15 2 -24.5 12.5t-6.5 26.5l143 314q17 38 41 41h121q17 -2 26.5 -13t8.5 -28z" />
    <glyph glyph-name="quotedblright" unicode="&#x201d;" horiz-adv-x="808" 
d="M551 913l102 314q9 36 43 39h162q36 -4 33 -39l-143 -314q-17 -38 -43 -41h-121q-15 2 -24.5 13t-8.5 28zM217 913l102 314q9 36 43 39h162q36 -4 33 -39l-143 -314q-17 -38 -43 -41h-121q-15 2 -24.5 13t-8.5 28z" />
    <glyph glyph-name="quotedblbase" unicode="&#x201e;" horiz-adv-x="808" 
d="M399 -162l103 314q9 35 45 38h162q33 -4 30 -38l-143 -314q-17 -38 -41 -41h-121q-17 2 -26.5 13t-8.5 28zM66 -162l102 314q9 35 45 38h162q14 -2 23 -12t8 -26l-144 -314q-17 -38 -41 -41h-121q-17 1 -26.5 12.5t-7.5 28.5z" />
    <glyph glyph-name="dagger" unicode="&#x2020;" horiz-adv-x="778" 
d="M623 795l-107 -756q-2 -15 -15 -27t-30 -12h-164q-17 0 -28 12t-9 27l107 756h-137q-15 0 -25.5 12t-7.5 29l16 122q3 17 16.5 29t28.5 12h138l32 228q2 15 15 27t30 12h164q17 0 28 -12t9 -27l-33 -228h137q15 0 25.5 -12t7.5 -29l-16 -122q-3 -17 -16.5 -29t-28.5 -12
h-137z" />
    <glyph glyph-name="daggerdbl" unicode="&#x2021;" horiz-adv-x="778" 
d="M301 250h-137q-15 0 -25.5 12t-9.5 29l18 123q1 17 15.5 29t30.5 12h137l47 340h-137q-15 0 -25.5 12t-7.5 29l16 122q3 17 16.5 29t28.5 12h138l32 228q2 15 15 27t30 12h164q17 0 28 -12t9 -27l-33 -228h137q15 0 25.5 -12t7.5 -29l-16 -122q-3 -17 -16.5 -29
t-28.5 -12h-137l-48 -340h138q15 0 24.5 -12t7.5 -29l-18 -123q-1 -17 -14.5 -29t-28.5 -12h-137l-31 -211q-2 -15 -15 -27t-30 -12h-164q-17 0 -28 12t-9 27z" />
    <glyph glyph-name="bullet" unicode="&#x2022;" horiz-adv-x="434" 
d="M152 438q6 52 48 88.5t95 36.5t85 -36.5t26 -88.5q-7 -54 -50 -91.5t-96 -37.5t-84 37.5t-24 91.5z" />
    <glyph glyph-name="ellipsis" unicode="&#x2026;" horiz-adv-x="1294" 
d="M104 115q7 52 50 88.5t96 36.5t84 -36.5t24 -88.5q-8 -54 -49.5 -91.5t-93.5 -37.5q-53 0 -85.5 37.5t-25.5 91.5zM535 115q7 52 49.5 88.5t95.5 36.5t84 -36.5t24 -88.5q-8 -54 -49.5 -91.5t-93.5 -37.5q-53 0 -85 37.5t-25 91.5zM965 115q7 52 49.5 88.5t95.5 36.5
t84.5 -36.5t24.5 -88.5q-7 -54 -49 -91.5t-95 -37.5t-85 37.5t-25 91.5z" />
    <glyph glyph-name="perthousand" unicode="&#x2030;" horiz-adv-x="1585" 
d="M1069 1225l-594 -1182q-17 -40 -51 -43h-143q-12 2 -20 13t-7 24q0 4 592 1188q16 38 49 41h143q14 -2 24 -10.5t9 -20.5q0 -6 -2 -10zM395 846q-88 0 -130 53.5t-27 155.5q15 104 71 157.5t144 53.5t131 -54t28 -157q-15 -102 -72 -155.5t-145 -53.5zM414 983
q17 0 33 19t20 53q5 36 -5 53.5t-28 17.5q-42 0 -53 -71q-4 -35 5.5 -53.5t27.5 -18.5zM864 0q-88 0 -130 53.5t-27 155.5q15 104 71 157.5t144 53.5t131 -54t28 -157q-15 -102 -72 -155.5t-145 -53.5zM883 137q17 0 32 19t21 53q4 37 -6 54.5t-27 17.5q-19 0 -34 -17.5
t-19 -54.5q-6 -35 4 -53.5t29 -18.5zM1307 0q-88 0 -130.5 53.5t-27.5 155.5q15 104 71 157.5t144 53.5t131.5 -54t28.5 -157q-15 -102 -72 -155.5t-145 -53.5zM1325 137q17 0 32 19t21 53q4 37 -5.5 54.5t-26.5 17.5q-19 0 -34.5 -17.5t-19.5 -54.5q-6 -35 4 -53.5
t29 -18.5z" />
    <glyph glyph-name="guilsinglleft" unicode="&#x2039;" horiz-adv-x="708" 
d="M125 248l29 217q10 38 51 53l477 197q13 0 22 -12t9 -27l-25 -174q-5 -24 -43 -39l-264 -107l235 -106q31 -16 31 -39l-24 -174q-3 -15 -16 -27t-27 -12l-420 197q-38 17 -35 53z" />
    <glyph glyph-name="guilsinglright" unicode="&#x203a;" horiz-adv-x="708" 
d="M682 465l-29 -217q-10 -38 -51 -53l-477 -197q-13 0 -22 12t-9 27l25 174q5 24 43 39l264 106l-236 107q-30 15 -30 39l24 174q3 15 16 27t27 12l420 -197q38 -17 35 -53z" />
    <glyph glyph-name="fraction" unicode="&#x2044;" horiz-adv-x="731" 
d="M61 -203l568 1676q5 16 17 27t28 11h137q17 0 28 -11.5t9 -26.5l-565 -1676q-16 -39 -47 -39h-138q-17 0 -28.5 12t-8.5 27z" />
    <glyph glyph-name="Euro" unicode="&#x20ac;" horiz-adv-x="1034" 
d="M954 365q17 0 27 -12.5t8 -28.5q-29 -145 -148.5 -240.5t-275.5 -95.5q-163 0 -255 100t-70 252l4 33h-68q-13 0 -23 10.5t-8 22.5l17 110q2 12 14 22.5t25 10.5h67l21 141h-68q-13 0 -23 10.5t-8 22.5l17 111q2 12 14 22t25 10h67l9 60q22 153 141.5 253.5t281.5 100.5
q157 0 251 -96t79 -242q-2 -15 -16 -28t-31 -13h-164q-17 0 -27 12.5t-8 28.5q8 68 -25.5 100.5t-86.5 32.5q-52 0 -95 -34t-53 -103l-10 -72h121q12 0 21 -11t8 -24l-17 -106q-1 -13 -13 -24t-24 -11h-120l-21 -141h121q12 0 21 -11t8 -24l-17 -106q-1 -13 -13 -24t-24 -11
h-121l-6 -45q-10 -69 24.5 -103.5t86.5 -34.5q51 0 93.5 34t55.5 100q2 15 16.5 28t31.5 13h163z" />
    <glyph glyph-name="Numero" unicode="&#x2116;" horiz-adv-x="1751" 
d="M489 1235l187 -588l82 580q2 15 15 27t30 12h164q17 0 28 -12t9 -27l-168 -1188q-2 -15 -15 -27t-30 -12h-146q-15 0 -25 9.5t-12 21.5l-188 577l-80 -569q-2 -15 -15 -27t-30 -12h-164q-17 0 -28 12t-9 27l168 1188q2 15 15 27t30 12h146q28 0 36 -31zM1352 295
q-152 0 -237.5 95.5t-65.5 238.5l43 317q20 138 135 228t260 90q146 0 235.5 -90t69.5 -228l-43 -317q-20 -143 -132.5 -238.5t-264.5 -95.5zM1458 1061q-45 0 -78 -31t-39 -76l-49 -348q-6 -45 18.5 -75.5t69.5 -30.5t78 30.5t39 75.5l49 348q6 45 -18.5 76t-69.5 31z
M1047 47l16 127q3 16 16.5 27.5t30.5 11.5h461q15 0 25.5 -12t7.5 -29l-17 -123q-3 -17 -16.5 -29t-28.5 -12h-461q-17 0 -27 12t-7 27z" />
    <glyph glyph-name="trademark" unicode="&#x2122;" horiz-adv-x="1114" 
d="M358 1122h-92q-7 0 -12.5 5.5t-3.5 11.5l14 110q2 6 8 11.5t13 5.5h336q6 0 11.5 -5.5t4.5 -11.5l-14 -110q-2 -6 -8.5 -11.5t-12.5 -5.5h-96l-64 -448q-3 -19 -22 -23h-109q-19 3 -16 23zM899 762h-49q-9 3 -14 10l-45 158l-35 -256q-3 -19 -23 -23h-110q-20 4 -17 23
l80 571q3 17 23 21h131q7 0 12.5 -6.5t7.5 -14.5l49 -225l115 225q13 21 25 21h131q8 -2 13.5 -8t4.5 -13l-80 -571q-3 -19 -24 -23h-111q-17 3 -14 23l35 256l-91 -158q-5 -7 -14 -10z" />
    <glyph glyph-name="Omega" unicode="&#x2126;" horiz-adv-x="1146" 
d="M752 1280q164 0 256.5 -100.5t70.5 -253.5l-82 -586q-5 -45 -43 -135h93q15 0 24.5 -12t7.5 -29l-18 -123q-1 -17 -14.5 -29t-28.5 -12h-367q-15 0 -25.5 12t-9.5 29l19 123q1 17 15 29t30 12q51 0 70 123l86 610q10 69 -24.5 103t-88.5 34t-97 -34t-53 -103l-86 -610
q-19 -123 37 -123q15 0 24.5 -12t8.5 -29l-18 -123q-1 -17 -14.5 -29t-28.5 -12h-367q-15 0 -25.5 12t-9.5 29l19 123q1 17 15 29t30 12h92q-13 74 -6 135l82 586q22 153 142 253.5t284 100.5z" />
    <glyph glyph-name="partialdiff" unicode="&#x2202;" horiz-adv-x="886" 
d="M651 723l35 246q6 45 -20.5 75.5t-71.5 30.5q-46 0 -78.5 -30.5t-38.5 -75.5l-4 -23q-2 -15 -15 -27t-30 -12h-164q-17 0 -28 12t-9 27q22 144 133.5 239t262.5 95q152 0 239.5 -95.5t65.5 -238.5l-127 -907q-2 -15 -15 -27t-30 -12h-150q-17 0 -28 12t-9 27l4 27
q-44 -36 -88 -55.5t-71 -23t-66 -3.5q-107 0 -173.5 76t-51.5 180l43 303q13 104 101 179t196 75q35 0 58 -3t60 -20.5t70 -50.5zM406 485l-27 -188q-6 -43 20.5 -76t67.5 -33q46 0 82.5 32.5t42.5 76.5l26 188q6 46 -20.5 77.5t-73.5 31.5q-42 0 -77 -32t-41 -77z" />
    <glyph glyph-name="Delta" unicode="&#x2206;" horiz-adv-x="1189" 
d="M1061 0h-932q-15 2 -25.5 14t-9.5 29l545 1182q5 11 8.5 16t12 12t22.5 13h176q15 -6 23 -13.5t9.5 -12t4.5 -15.5l209 -1182q-1 -17 -14 -29t-29 -14zM717 887l-305 -682h424z" />
    <glyph glyph-name="product" unicode="&#x220f;" horiz-adv-x="1335" 
d="M793 39l143 1022h-242l-143 -1022q-2 -15 -15 -27t-30 -12h-164q-17 0 -28 12t-9 27l144 1022h-173q-15 0 -24.5 12t-7.5 29l18 123q1 17 14.5 29t28.5 12h1077q15 0 25.5 -12t9.5 -29l-18 -123q-1 -17 -15 -29t-30 -12h-172l-144 -1022q-2 -15 -15 -27t-30 -12h-164
q-17 0 -27.5 12t-8.5 27z" />
    <glyph glyph-name="summation" unicode="&#x2211;" horiz-adv-x="808" 
d="M121 223l215 410l-100 409l26 183q1 17 14.5 29t28.5 12h551q15 0 25.5 -12t9.5 -29l-19 -123q-1 -17 -15 -29t-30 -12h-340l101 -422v-12l-219 -422h340q15 0 24.5 -12t7.5 -29l-18 -123q-1 -17 -14.5 -29t-28.5 -12h-551q-15 0 -25.5 12t-9.5 29z" />
    <glyph glyph-name="minus" unicode="&#x2212;" horiz-adv-x="763" 
d="M152 440l16 127q3 16 16.5 27.5t30.5 11.5h504q15 0 25.5 -12t7.5 -29l-17 -123q-3 -17 -16.5 -29t-28.5 -12h-504q-17 0 -27 12t-7 27z" />
    <glyph glyph-name="radical" unicode="&#x221a;" horiz-adv-x="1097" 
d="M549 0h-291q-32 3 -35 45l-61 475q3 15 16.5 26.5t30.5 12.5h164q15 -1 25 -12.5t10 -26.5l34 -237l320 944q5 15 17.5 26.5t27.5 12.5h338q15 0 25.5 -12t9.5 -29l-19 -123q-1 -17 -15 -29t-30 -12h-168l-352 -1016q-17 -42 -47 -45z" />
    <glyph glyph-name="infinity" unicode="&#x221e;" horiz-adv-x="1585" 
d="M686 457q-29 59 -67 91t-76 32q-62 0 -99 -33.5t-45 -91.5t19.5 -91.5t89.5 -33.5q38 0 86 33t92 94zM836 315q-199 -190 -375 -190q-174 0 -251 92t-56 238q20 146 122.5 237.5t276.5 91.5q176 0 321 -190q199 190 375 190q174 0 252 -91.5t58 -237.5
q-21 -146 -124.5 -238t-277.5 -92q-176 0 -321 190zM1026 457q27 -61 65 -94t76 -33q62 0 100 33.5t46 91.5t-20.5 91.5t-90.5 33.5q-38 0 -85.5 -32.5t-90.5 -90.5z" />
    <glyph glyph-name="integral" unicode="&#x222b;" horiz-adv-x="733" 
d="M717 1266h63q15 0 25.5 -12t9.5 -29l-18 -123q-1 -17 -15 -29t-30 -12q-34 -1 -57 -8.5t-36 -16.5t-22 -29t-11.5 -33.5t-7.5 -43.5l-126 -910q-14 -99 -43.5 -166.5t-75 -104.5t-99.5 -52.5t-127 -15.5h-63q-15 0 -25.5 11.5t-9.5 28.5l19 123q1 17 15 29t30 12
q28 1 48.5 5t34.5 14.5t22 18.5t14 27t8 29.5t6 36.5l127 910q14 99 43.5 166.5t75 105t99 53t126.5 15.5z" />
    <glyph glyph-name="approxequal" unicode="&#x2248;" horiz-adv-x="768" 
d="M522 174q-56 0 -116 33l-16 8t-21 10t-20.5 7.5t-20.5 3.5q-37 0 -80 -37q-11 -11 -23 -11q-13 0 -20 11l-68 100q-4 6 -4 18q4 15 14 25q110 98 181 98q28 0 86 -28q68 -33 112 -33q35 0 78 37q10 10 23 10t20 -10l68 -101q4 -6 4 -18q-4 -15 -14 -25q-110 -98 -183 -98
zM561 444q-59 0 -119 33q-58 29 -77 29q-38 0 -78 -37q-13 -10 -23 -10q-17 0 -20 10l-68 100q-7 10 -4 19q0 10 14 24q111 99 179 99q9 0 18 -1.5t19 -5t15 -5.5t18 -8.5t16 -8.5q68 -33 112 -33q37 0 80 37q10 10 21 10q15 0 22 -10l68 -100q4 -12 2 -19q0 -7 -13 -24
q-115 -99 -182 -99z" />
    <glyph glyph-name="notequal" unicode="&#x2260;" horiz-adv-x="763" 
d="M705 504h-142l-37 -109h164q15 0 24.5 -12t8.5 -29l-18 -123q-1 -17 -14.5 -29t-28.5 -12h-205l-54 -157q-15 -33 -41 -33h-114q-14 0 -25 10t-8 23l55 157h-112q-17 0 -28 12t-9 27l18 127q2 15 16 27t31 12h154l35 109h-174q-17 0 -27.5 12t-7.5 27l16 127
q3 16 16.5 27.5t30.5 11.5h215l52 149q15 33 41 33h114q15 0 24.5 -10t6.5 -23l-51 -149h102q15 0 25.5 -12t7.5 -29l-16 -123q-3 -17 -16.5 -29t-28.5 -12z" />
    <glyph glyph-name="lessequal" unicode="&#x2264;" horiz-adv-x="708" 
d="M158 487l30 218q6 36 52 53l471 174q13 0 22.5 -12t9.5 -27l-24 -174q-7 -25 -43 -39l-279 -84l256 -84q31 -16 31 -39l-25 -174q-3 -15 -16 -27t-27 -12l-423 174q-38 17 -35 53zM94 39l19 127q2 15 16 27t31 12h448q15 0 24.5 -12t8.5 -29l-18 -123q-1 -17 -14.5 -29
t-28.5 -12h-449q-17 0 -28 12t-9 27z" />
    <glyph glyph-name="greaterequal" unicode="&#x2265;" horiz-adv-x="708" 
d="M717 705l-31 -218q-10 -38 -51 -53l-473 -174q-13 0 -22 12t-9 27l25 174q5 24 43 39l276 84l-254 84q-33 17 -31 39l25 174q3 15 15.5 27t25.5 12l426 -174q35 -15 35 -53zM641 166l-18 -127q-2 -15 -15 -27t-30 -12h-449q-15 0 -25.5 12t-9.5 29l19 123q1 17 15 29
t30 12h448q17 0 27 -11.5t8 -27.5z" />
    <glyph glyph-name="lozenge" unicode="&#x25ca;" horiz-adv-x="868" 
d="M311 41l-133 592l301 592q5 11 8.5 16t12 12t22.5 13h176q15 -6 23 -13.5t9.5 -12t4.5 -15.5l131 -592l-299 -592q-5 -11 -8.5 -16t-12.5 -12t-24 -13h-176q-14 6 -21.5 13.5t-9 12t-4.5 15.5zM479 311l156 322l-66 319l-161 -319z" />
    <glyph glyph-name="uni25CC" unicode="&#x25cc;" horiz-adv-x="378" 
 />
    <glyph glyph-name="fi" unicode="&#xfb01;" horiz-adv-x="1001" 
d="M152 39l100 706h-90q-15 0 -25.5 12t-9.5 29l16 115q3 17 16.5 29t28.5 12h91q14 96 43 161t74.5 100t99.5 49t127 14h65q15 0 25.5 -12t9.5 -29l-16 -107q-1 -17 -15 -29t-30 -12q-75 -3 -101 -26t-31 -68l-6 -41h125q15 0 25.5 -12t7.5 -29l-16 -117q-1 -17 -14.5 -29
t-28.5 -12h-125l-101 -704q-2 -15 -15 -27t-30 -12h-164q-17 0 -27.5 12t-8.5 27zM1036 903l-121 -864q-2 -15 -15 -27t-30 -12h-163q-17 0 -28 12t-9 27l121 864q3 16 16.5 27.5t30.5 11.5h163q17 0 27.5 -12t7.5 -27zM1087 1260l-26 -185q-2 -15 -15 -27t-30 -12h-164
q-17 0 -28 12t-9 27l27 185q2 15 16 26.5t31 11.5h164q17 0 26.5 -11t7.5 -27z" />
    <glyph glyph-name="fl" unicode="&#xfb02;" horiz-adv-x="1001" 
d="M152 39l100 706h-90q-15 0 -25.5 12t-9.5 29l16 115q3 17 16.5 29t28.5 12h91q14 96 43 161t74.5 100t99.5 49t127 14h65q15 0 25.5 -12t9.5 -29l-16 -107q-1 -17 -15 -29t-30 -12q-75 -3 -101 -26t-31 -68l-6 -41h125q15 0 25.5 -12t7.5 -29l-16 -117q-1 -17 -14.5 -29
t-28.5 -12h-125l-101 -704q-2 -15 -15 -27t-30 -12h-164q-17 0 -27.5 12t-8.5 27zM1083 1227l-168 -1188q-2 -15 -15 -27t-30 -12h-163q-17 0 -28 12t-9 27l168 1188q2 15 15 27t30 12h164q17 0 27.5 -12t8.5 -27z" />
    <glyph glyph-name="Superstore" horiz-adv-x="1214" 
d="M604 1034q107 0 203 -41t165.5 -110.5t110.5 -165.5t41 -203q0 -139 -69 -257.5t-189 -187.5t-262 -69q-139 0 -257.5 69t-187.5 187.5t-69 257.5q0 142 69 262t187.5 189t257.5 69zM823 184q66 0 66 56q0 33 -11.5 47t-37.5 14v272q0 88 -66 146q12 4 39 4t39 -4h22v133
q-148 -18 -235 -66q-31 5 -76 5q-101 0 -180 -29v-129h12q105 33 156 33q18 0 29 -0.5t31.5 -2.5t34 -8t28 -15t21.5 -25t7 -37l-167 -17q-43 -4 -75 -12t-65 -27.5t-51 -57t-18 -91.5q0 -85 58.5 -137t150.5 -52q61 0 88 6v111l-13 8q-18 -8 -47 -8q-37 0 -64.5 21
t-27.5 63q0 33 37 45.5t194 38.5v-145q0 -76 21.5 -108t81.5 -32h18z" />
    </font>
</defs>
</svg>
