<?xml version="1.0" standalone="no"?>
<!DOCTYPE svg PUBLIC "-//W3C//DTD SVG 1.1//EN" "http://www.w3.org/Graphics/SVG/1.1/DTD/svg11.dtd" >
<svg xmlns="http://www.w3.org/2000/svg" xmlns:xlink="http://www.w3.org/1999/xlink" version="1.1">
<metadata>
Created by FontForge 20170731 at Fri Sep 18 15:16:11 2020
 By Aleksey,,,
Copyright (c) 2017 by Typesketchbook. All rights reserved.
</metadata>
<defs>
<font id="Calps-Light" horiz-adv-x="882" >
  <font-face 
    font-family="Calps Light"
    font-weight="300"
    font-stretch="normal"
    units-per-em="2048"
    panose-1="2 0 0 0 0 0 0 0 0 0"
    ascent="1638"
    descent="-410"
    x-height="942"
    cap-height="1266"
    bbox="-100 -371 1602 1751"
    underline-thickness="71"
    underline-position="-294"
    unicode-range="U+0020-FB02"
  />
<missing-glyph horiz-adv-x="1161" 
d="M1094 0h-1047v1282h1047v-1282zM139 88h39v43h-39l-4 -41q4 0 4 -2zM999 1192v-4h5q0 4 -5 4zM999 1188h-36v-37h36v37zM1004 92l-5 39h-36v-39h41zM141 1192v-41h37v41l-39 2q0 -2 2 -2zM178 1151v-1020h785v1020h-785z" />
    <glyph glyph-name=".notdef" horiz-adv-x="1161" 
d="M1094 0h-1047v1282h1047v-1282zM139 88h39v43h-39l-4 -41q4 0 4 -2zM999 1192v-4h5q0 4 -5 4zM999 1188h-36v-37h36v37zM1004 92l-5 39h-36v-39h41zM141 1192v-41h37v41l-39 2q0 -2 2 -2zM178 1151v-1020h785v1020h-785z" />
    <glyph glyph-name=".null" horiz-adv-x="0" 
 />
    <glyph glyph-name="nonmarkingreturn" horiz-adv-x="378" 
 />
    <glyph glyph-name="space" unicode=" " horiz-adv-x="378" 
 />
    <glyph glyph-name="exclam" unicode="!" horiz-adv-x="352" 
d="M123 309v938q0 7 5 13t15 6h68q8 0 13 -6t5 -13v-938q0 -7 -5 -12.5t-13 -5.5h-68q-10 0 -15 5.5t-5 12.5zM123 18v162q0 7 5 13t15 6h68q8 0 13 -6t5 -13v-162q0 -7 -5 -12.5t-13 -5.5h-68q-10 0 -15 5.5t-5 12.5z" />
    <glyph glyph-name="quotedbl" unicode="&#x22;" horiz-adv-x="571" 
d="M135 1030l-12 215q0 18 20 21h70q18 -4 18 -21l-14 -215q0 -16 -18 -20h-43q-21 4 -21 20zM352 1030l-12 215q0 18 20 21h70q19 -4 19 -21l-15 -215q0 -16 -18 -20h-43q-21 4 -21 20z" />
    <glyph glyph-name="numbersign" unicode="#" horiz-adv-x="1427" 
d="M1286 930q7 0 13 -5.5t6 -15.5v-67q0 -8 -6 -13.5t-13 -5.5h-244l-90 -389h242q7 0 12.5 -5t5.5 -15v-68q0 -8 -5.5 -13t-12.5 -5h-264l-64 -312q-4 -16 -16 -16h-64q-8 0 -13 5.5t-5 10.5l68 312h-381l-64 -312q-4 -16 -16 -16h-64q-8 0 -13 5.5t-5 10.5l67 312h-219
q-7 0 -12.5 5t-5.5 13v68q0 10 5.5 15t12.5 5h242l82 389h-227q-7 0 -13 5.5t-6 13.5v67q0 10 6 15.5t13 5.5h251l68 319q6 17 16 17h64q8 0 13 -6t5 -11l-63 -319h373l67 319q6 17 17 17h63q8 0 13 -6t5 -11l-63 -319h219zM858 434l84 389h-375l-90 -389h381z" />
    <glyph glyph-name="dollar" unicode="$" horiz-adv-x="931" 
d="M420 1278l55 254q3 13 17 16h75q15 -5 15 -16l-76 -256q53 -6 98 -26t83 -55t59.5 -92t21.5 -130q0 -7 -5 -13t-13 -6h-68q-10 0 -15 6t-5 13q0 209 -209 209q-62 0 -107.5 -18t-67 -40t-34 -54.5t-14 -49.5t-1.5 -37q0 -56 20 -101.5t53.5 -78t77 -60.5t91.5 -52.5
t96 -50.5t91.5 -59t77 -72t53.5 -96t20 -126q0 -140 -84.5 -214.5t-220.5 -80.5l-49 -236q-3 -13 -17 -16h-76q-14 5 -14 16l68 238q-55 6 -103.5 25t-90 54t-65.5 92.5t-24 131.5q0 7 5.5 12.5t13.5 5.5h67q10 0 15.5 -5.5t5.5 -12.5q0 -38 10.5 -72t35 -66.5t71.5 -51.5
t112 -19q63 0 109 16t69 37.5t36.5 52.5t16 51.5t2.5 43.5q0 71 -32 127.5t-83 94t-112.5 71.5t-123.5 69t-113 75.5t-83 103t-32 141.5q0 149 82.5 224.5t214.5 82.5z" />
    <glyph glyph-name="percent" unicode="%" horiz-adv-x="1224" 
d="M784 1249l-438 -1233q0 -5 5.5 -10.5t13.5 -5.5h63q12 0 16 16l439 1233q0 5 -5.5 11t-13.5 6h-63q-11 0 -17 -17zM123 1065q0 99 46.5 152t129.5 53t129.5 -53t46.5 -152t-46.5 -152t-129.5 -53t-129.5 53t-46.5 152zM385 1065q0 60 -26.5 90.5t-59.5 30.5t-59.5 -30.5
t-26.5 -90.5t26.5 -90.5t59.5 -30.5t59.5 30.5t26.5 90.5zM1102 201q0 -99 -46.5 -152t-129.5 -53t-129.5 53t-46.5 152t46.5 152t129.5 53t129.5 -53t46.5 -152zM840 201q0 -60 26.5 -90.5t59.5 -30.5t59.5 30.5t26.5 90.5t-26.5 90.5t-59.5 30.5t-59.5 -30.5t-26.5 -90.5z
" />
    <glyph glyph-name="ampersand" unicode="&#x26;" horiz-adv-x="1140" 
d="M459 66q73 0 135 33.5t129 103.5l-283 338q-9 -6 -23 -16t-50.5 -41.5t-64 -63.5t-50.5 -76.5t-23 -85.5q0 -37 11 -69t36 -61t71.5 -45.5t111.5 -16.5zM459 676q217 169 217 328q0 75 -43 126.5t-135 51.5q-20 0 -39.5 -3.5t-46 -15.5t-46 -31.5t-33.5 -56.5t-14 -86
q0 -74 42.5 -162.5t97.5 -150.5zM889 10l-107 123q-62 -82 -153.5 -124t-167.5 -42q-32 0 -64 4t-72.5 14t-74.5 30.5t-63.5 50.5t-46.5 78.5t-17 109.5q0 57 26.5 115.5t64 101t75 76.5t63.5 51l27 18q-166 182 -166 373q0 82 26 141.5t69 90.5t88.5 45t95.5 14
q128 0 209 -70.5t81 -203.5q0 -60 -27.5 -124t-67 -112t-79 -87t-66.5 -60l-28 -21l266 -319q36 59 131 254q9 18 25 18h61q10 0 15.5 -5.5t5.5 -12.5q-106 -206 -176 -328q19 -23 75.5 -92t81.5 -99q-5 -18 -20 -18h-68q-12 0 -22 10z" />
    <glyph glyph-name="quotesingle" unicode="'" horiz-adv-x="354" 
d="M135 1030l-12 215q0 18 20 21h70q18 -4 18 -21l-14 -215q0 -16 -18 -20h-43q-21 4 -21 20z" />
    <glyph glyph-name="parenleft" unicode="(" horiz-adv-x="421" 
d="M193 -223q-70 497 -70 882q0 206 17 394t53 442q5 18 20 18h68q8 0 13 -5.5t5 -12.5q-70 -520 -70 -836q0 -350 70 -882q0 -7 -5 -13t-13 -6h-68q-15 0 -20 19z" />
    <glyph glyph-name="parenright" unicode=")" horiz-adv-x="421" 
d="M229 -223q-5 -19 -20 -19h-68q-8 0 -13 6t-5 13q70 532 70 882q0 316 -70 836q0 7 5 12.5t13 5.5h68q15 0 20 -18q36 -254 53 -442t17 -394q0 -385 -70 -882z" />
    <glyph glyph-name="asterisk" unicode="*" horiz-adv-x="671" 
d="M299 1266h74q16 -3 16 -19l-6 -153l96 65q4 2 10 2q7 0 13 -6l43 -63q4 -4 4 -11t-8 -12l-125 -65l80 -125q4 -8 4 -11q0 -12 -6 -16q-70 -35 -80 -35q-8 0 -15 10l-63 134l-64 -134q-7 -10 -14 -10q-10 0 -80 35q-6 4 -6 16q0 3 4 11l80 125l-125 65q-8 5 -8 12t4 11
l43 63q6 6 12 6q7 0 11 -2l96 -65l-6 153q0 16 16 19z" />
    <glyph glyph-name="plus" unicode="+" horiz-adv-x="733" 
d="M592 496q7 0 12.5 -5.5t5.5 -15.5v-67q0 -8 -5.5 -13.5t-12.5 -5.5h-172v-205q0 -7 -5.5 -12.5t-13.5 -5.5h-67q-10 0 -15.5 5.5t-5.5 12.5v205h-172q-7 0 -12.5 5.5t-5.5 13.5v67q0 10 5.5 15.5t12.5 5.5h172v206q0 7 5.5 13t15.5 6h67q8 0 13.5 -6t5.5 -13v-206h172z
" />
    <glyph glyph-name="comma" unicode="," horiz-adv-x="407" 
d="M123 -139l41 217q3 17 18 20h84q19 -4 19 -20l-64 -217q-7 -20 -20 -23h-58q-20 3 -20 23z" />
    <glyph glyph-name="hyphen" unicode="-" horiz-adv-x="733" 
d="M141 502h451q7 0 12.5 -5.5t5.5 -15.5v-67q0 -8 -5.5 -13.5t-12.5 -5.5h-451q-7 0 -12.5 5.5t-5.5 13.5v67q0 10 5.5 15.5t12.5 5.5z" />
    <glyph glyph-name="period" unicode="." horiz-adv-x="364" 
d="M123 47q0 26 16 44t41 18q26 0 44 -18t18 -44q0 -25 -18 -41t-44 -16q-25 0 -41 16t-16 41z" />
    <glyph glyph-name="slash" unicode="/" horiz-adv-x="677" 
d="M123 -225l334 1722q5 16 16 16h64q8 0 13 -5.5t5 -10.5q-20 -108 -334 -1722q-4 -17 -16 -17h-64q-8 0 -13 6t-5 11z" />
    <glyph glyph-name="zero" unicode="0" horiz-adv-x="917" 
d="M459 1280q150 0 248 -89.5t98 -223.5v-664q0 -134 -98 -223.5t-248 -89.5t-248 89.5t-98 223.5v664q0 134 98 223.5t248 89.5zM459 88q99 0 169 62t70 184v602q0 123 -70 184.5t-169 61.5q-46 0 -88 -14t-76.5 -42.5t-55 -77.5t-20.5 -112v-602q0 -122 70.5 -184
t169.5 -62z" />
    <glyph glyph-name="one" unicode="1" horiz-adv-x="577" 
d="M362 1266h74q8 0 13.5 -6t5.5 -13v-1229q0 -7 -5.5 -12.5t-13.5 -5.5h-67q-10 0 -15.5 5.5t-5.5 12.5v1135l-276 -143q-8 0 -14.5 6.5t-6.5 15.5v76q0 10 15 18l268 136q8 4 28 4z" />
    <glyph glyph-name="two" unicode="2" horiz-adv-x="782" 
d="M82 1001q0 126 88.5 202.5t216.5 76.5q133 0 223 -86.5t90 -214.5q0 -36 -9 -72.5t-19.5 -65t-35 -66t-40 -59t-51.5 -61.5t-51 -55.5t-56 -58.5q-62 -64 -96 -103t-76 -98t-61 -118.5t-19 -123.5h461q17 0 17 -18v-64q0 -7 -5.5 -11.5t-11.5 -4.5h-538q-10 0 -15.5 5.5
t-5.5 12.5v115q0 46 10 89.5t32.5 86.5t43.5 76.5t59 76.5t61.5 68t67.5 70q41 42 59.5 61t52.5 57t50 62.5t35 58.5t27 65.5t8 64.5q0 93 -57.5 153t-149.5 60q-85 0 -142 -51.5t-57 -129.5q0 -7 -5 -12.5t-13 -5.5h-68q-10 0 -15 5.5t-5 12.5z" />
    <glyph glyph-name="three" unicode="3" horiz-adv-x="813" 
d="M324 684h63q93 0 150 58t57 151v76q0 93 -57.5 153t-149.5 60q-82 0 -138 -48t-61 -122q0 -7 -5 -13t-13 -6h-68q-10 0 -15 6t-5 13q4 120 92 194t213 74q133 0 223 -86.5t90 -214.5v-94q0 -32 -4 -58t-16.5 -62.5t-43.5 -71t-79 -62.5q49 -34 80.5 -71.5t43.5 -76
t15.5 -63t3.5 -58.5v-71q0 -128 -90 -214.5t-223 -86.5q-125 0 -213 74t-92 194q0 7 5 12.5t15 5.5h68q8 0 13 -5.5t5 -12.5q5 -74 61 -122t138 -48q92 0 149.5 60t57.5 153v76q0 92 -57 150.5t-150 58.5h-63q-6 0 -11.5 4.5t-5.5 11.5v64q0 18 17 18z" />
    <glyph glyph-name="four" unicode="4" horiz-adv-x="884" 
d="M580 389v791l-422 -791h422zM66 422l438 825l4 5q4 6 5.5 7.5t6 4t10.5 2.5h138q8 0 13 -6t5 -13v-858h131q17 0 17 -18v-64q0 -7 -5.5 -11.5t-11.5 -4.5h-131v-273q0 -7 -5 -12.5t-13 -5.5h-68q-10 0 -15 5.5t-5 12.5v273h-498q-10 0 -15.5 5.5t-5.5 12.5v94q0 4 5 19z
" />
    <glyph glyph-name="five" unicode="5" horiz-adv-x="831" 
d="M729 477v-198q0 -122 -88 -205.5t-221 -83.5q-113 0 -198.5 63.5t-106.5 186.5q0 18 14 18h74q15 0 20 -18q38 -152 197 -152q100 0 151.5 60.5t51.5 191.5v135q0 91 -56 146t-151 55q-84 0 -150 -66q-18 -18 -35 -18h-102q-16 0 -16 18v637q0 19 16 19h510q16 0 16 -19
v-63q0 -7 -5 -12t-11 -5h-422v-477q82 84 217 84q126 0 210.5 -86.5t84.5 -210.5z" />
    <glyph glyph-name="six" unicode="6" horiz-adv-x="829" 
d="M219 438v-137q0 -94 55.5 -153.5t149.5 -59.5q89 0 143 59.5t54 153.5v148q0 92 -53.5 150t-143.5 58q-93 0 -149 -63t-56 -156zM594 1053q-37 129 -184 129q-98 0 -144.5 -59.5t-46.5 -192.5v-266q64 92 215 92q82 0 141 -25.5t91 -71.5t46.5 -99t14.5 -118v-149
q0 -133 -88 -218t-215 -85q-131 0 -221 85t-90 218v698q0 123 82.5 206t214.5 83q106 0 187.5 -62.5t107.5 -164.5q0 -7 -5.5 -13t-15.5 -6h-70q-15 0 -20 19z" />
    <glyph glyph-name="seven" unicode="7" horiz-adv-x="661" 
d="M164 18l332 1149h-418q-6 0 -11.5 5t-5.5 12v63q0 9 5.5 14t11.5 5h506q16 0 16 -19v-84l-328 -1145q-4 -18 -20 -18h-68q-10 0 -15 5.5t-5 12.5z" />
    <glyph glyph-name="eight" unicode="8" horiz-adv-x="815" 
d="M408 88q90 0 144 59.5t54 153.5v72q0 93 -54 151t-144 58t-144.5 -58t-54.5 -151v-72q0 -93 54.5 -153t144.5 -60zM408 680q90 0 144 58.5t54 150.5v80q0 94 -54 153.5t-144 59.5t-144.5 -60t-54.5 -153v-80q0 -92 54.5 -150.5t144.5 -58.5zM408 1280q132 0 218.5 -87.5
t86.5 -225.5v-70q0 -171 -148 -266q148 -95 148 -277v-73q0 -130 -88.5 -210.5t-216.5 -80.5t-217 80.5t-89 210.5v73q0 182 148 277q-148 95 -148 266v70q0 138 87 225.5t219 87.5z" />
    <glyph glyph-name="nine" unicode="9" horiz-adv-x="829" 
d="M610 831v138q0 94 -55 153.5t-149 59.5q-89 0 -143 -59.5t-54 -153.5v-148q0 -92 53.5 -150.5t143.5 -58.5q93 0 148.5 62.5t55.5 156.5zM236 217q37 -129 184 -129q98 0 144 59.5t46 192.5v266q-64 -92 -215 -92q-82 0 -141 25.5t-91 71t-46.5 98.5t-14.5 118v150
q0 132 88.5 217.5t215.5 85.5q131 0 221 -85t90 -218v-698q0 -123 -82.5 -206t-214.5 -83q-106 0 -187.5 62.5t-107.5 164.5q0 7 5 13t15 6h70q16 0 21 -19z" />
    <glyph glyph-name="colon" unicode=":" horiz-adv-x="364" 
d="M123 47q0 26 16 44t41 18q26 0 44 -18t18 -44q0 -25 -18 -41t-44 -16q-25 0 -41 16t-16 41zM123 621q0 26 16 43.5t41 17.5q26 0 44 -17.5t18 -43.5q0 -25 -18 -41.5t-44 -16.5q-25 0 -41 16.5t-16 41.5z" />
    <glyph glyph-name="semicolon" unicode=";" horiz-adv-x="368" 
d="M127 621q0 26 16 43.5t41 17.5q26 0 44 -17.5t18 -43.5q0 -25 -18 -41.5t-44 -16.5q-25 0 -41 16.5t-16 41.5zM246 47v-8q0 -33 -12.5 -83t-36.5 -54h-47q-11 4 -11 12l6 12q13 25 19 64q-17 4 -29 21t-12 36q0 26 17.5 44t43.5 18q25 0 43.5 -18t18.5 -44z" />
    <glyph glyph-name="less" unicode="&#x3c;" horiz-adv-x="694" 
d="M123 252v82q3 11 14 20l422 191q4 0 8 -4t4 -9v-88q0 -12 -12 -16l-334 -135l334 -139q12 -4 12 -17v-82q0 -5 -3.5 -8.5t-8.5 -3.5l-422 188q-11 9 -14 21z" />
    <glyph glyph-name="equal" unicode="=" horiz-adv-x="688" 
d="M141 305h406q7 0 12.5 -5t5.5 -15v-68q0 -8 -5.5 -13t-12.5 -5h-406q-7 0 -12.5 5t-5.5 13v68q0 10 5.5 15t12.5 5zM141 600h406q7 0 12.5 -5t5.5 -15v-68q0 -8 -5.5 -13t-12.5 -5h-406q-7 0 -12.5 5t-5.5 13v68q0 10 5.5 15t12.5 5z" />
    <glyph glyph-name="greater" unicode="&#x3e;" horiz-adv-x="694" 
d="M571 334v-82q-3 -12 -14 -21l-422 -188q-5 0 -8.5 3.5t-3.5 8.5v82q0 13 12 17l334 139l-334 135q-12 4 -12 16v88q0 5 4 9t8 4l422 -191q11 -9 14 -20z" />
    <glyph glyph-name="question" unicode="?" horiz-adv-x="864" 
d="M451 375v-33q0 -7 -5.5 -12.5t-13.5 -5.5h-67q-10 0 -15.5 5.5t-5.5 12.5v72q0 43 16 85t41.5 77.5t56.5 71t62.5 71.5t57 73.5t41.5 83t16 93.5q0 93 -57.5 153t-149.5 60q-82 0 -138 -48t-61 -122q0 -7 -5 -13t-13 -6h-68q-10 0 -15 6t-5 13q4 120 92 194t213 74
q133 0 223 -86.5t90 -214.5v-29q0 -66 -30 -128t-72.5 -112t-85 -99.5t-72.5 -110.5t-30 -125zM344 18v162q0 7 5.5 13t15.5 6h67q8 0 13.5 -6t5.5 -13v-162q0 -7 -5.5 -12.5t-13.5 -5.5h-67q-10 0 -15.5 5.5t-5.5 12.5z" />
    <glyph glyph-name="at" unicode="@" horiz-adv-x="1202" 
d="M975 158v43q-69 -74 -195 -74q-111 0 -175 62t-64 212v164q0 78 18 133t52 85.5t75 43.5t94 13q126 0 193 -72v63q0 39 -9 79.5t-33.5 88t-63 83.5t-104 60.5t-149.5 24.5h-28q-84 0 -149.5 -24.5t-104 -60.5t-63 -83.5t-33.5 -88t-9 -79.5v-598q0 -39 9 -79.5
t33.5 -87.5t63 -83.5t104 -60.5t149.5 -24h147q7 0 12 -5t5 -14v-63q0 -7 -5.5 -12t-11.5 -5h-143q-101 1 -183 29t-134 72.5t-86.5 102.5t-49 113.5t-14.5 110.5v613q0 55 14.5 110.5t49 113.5t86.5 102t134 72t183 28h22q101 0 183 -28t134 -72t86.5 -102t49 -113.5
t14.5 -110.5v-682q0 -7 -5 -13t-13 -6h-66q-10 0 -15 6t-5 13zM643 561v-155q0 -99 39 -141t123 -42t126 50.5t42 132.5v155q0 82 -42 132t-126 50t-123 -41.5t-39 -140.5z" />
    <glyph glyph-name="A" unicode="A" horiz-adv-x="901" 
d="M385 1266h131q18 0 23 -19l301 -1229q0 -7 -5.5 -12.5t-15.5 -5.5h-67q-16 0 -21 18l-55 224h-453l-53 -224q-4 -18 -20 -18h-68q-10 0 -15.5 5.5t-5.5 12.5l301 1229q5 19 23 19zM451 1167l-203 -827h403z" />
    <glyph glyph-name="B" unicode="B" horiz-adv-x="890" 
d="M229 1165v-475h193q46 0 86.5 12t76 38.5t56.5 75.5t21 116v16q0 67 -20.5 112.5t-57.5 67t-75 29.5t-87 8h-193zM459 100q44 0 83 12t74 38t55.5 74t20.5 112q0 124 -70.5 190t-162.5 66h-230v-492h230zM143 1266h277q165 0 256.5 -78.5t91.5 -226.5v-39q0 -37 -5 -66.5
t-20 -69.5t-51.5 -76.5t-91.5 -64.5q95 -24 147 -110.5t52 -198.5v-19q0 -98 -48 -171.5t-123.5 -109.5t-164.5 -36h-320q-10 0 -15 5.5t-5 12.5v1229q0 7 5 13t15 6z" />
    <glyph glyph-name="C" unicode="C" horiz-adv-x="854" 
d="M113 303v664q0 134 98 223.5t248 89.5q142 0 233.5 -83t100.5 -210q0 -7 -5.5 -12.5t-13.5 -5.5h-67q-10 0 -15.5 5.5t-5.5 12.5q-16 97 -79 146t-148 49q-46 0 -88 -14t-76.5 -42.5t-55 -77.5t-20.5 -112v-602q0 -63 20.5 -112t55 -77.5t76.5 -42.5t88 -14q85 0 148 49
t79 146q0 7 5.5 12.5t15.5 5.5h67q8 0 13.5 -5.5t5.5 -12.5q-9 -127 -100.5 -210t-233.5 -83q-150 0 -248 89.5t-98 223.5z" />
    <glyph glyph-name="D" unicode="D" horiz-adv-x="903" 
d="M694 342v582q0 121 -69 182t-164 61h-232v-1069h232q95 0 164 61.5t69 182.5zM801 920v-574q0 -173 -92.5 -259.5t-243.5 -86.5h-322q-10 0 -15 5.5t-5 12.5v1229q0 7 5 13t15 6h322q151 0 243.5 -86.5t92.5 -259.5z" />
    <glyph glyph-name="E" unicode="E" horiz-adv-x="741" 
d="M143 1266h480q16 0 16 -19v-63q0 -7 -5 -12t-11 -5h-394v-526h281q16 0 16 -18v-64q0 -16 -16 -16h-281v-445h394q16 0 16 -18v-64q0 -16 -16 -16h-480q-10 0 -15 5.5t-5 12.5v1229q0 7 5 13t15 6z" />
    <glyph glyph-name="F" unicode="F" horiz-adv-x="669" 
d="M229 543v-525q0 -7 -5 -12.5t-15 -5.5h-66q-10 0 -15 5.5t-5 12.5v1229q0 7 5 13t15 6h480q16 0 16 -19v-63q0 -7 -5 -12t-11 -5h-394v-526h281q16 0 16 -18v-64q0 -16 -16 -16h-281z" />
    <glyph glyph-name="G" unicode="G" horiz-adv-x="915" 
d="M772 651q10 0 15.5 -5.5t5.5 -12.5v-615q0 -7 -5.5 -12.5t-15.5 -5.5h-57q-8 0 -13.5 5.5t-5.5 12.5v80q-81 -108 -237 -108q-150 0 -248 89.5t-98 223.5v664q0 134 98 223.5t248 89.5q142 0 233.5 -83t100.5 -210q0 -7 -5.5 -12.5t-13.5 -5.5h-67q-10 0 -15.5 5.5
t-5.5 12.5q-16 97 -79 146t-148 49q-46 0 -88 -14t-76.5 -42.5t-55 -77.5t-20.5 -112v-602q0 -63 20.5 -112t55 -77.5t76.5 -42.5t88 -14q85 0 148 49t79 146v270h-127q-16 0 -16 18v64q0 16 16 16h213z" />
    <glyph glyph-name="H" unicode="H" horiz-adv-x="903" 
d="M674 18v523h-445v-523q0 -7 -5 -12.5t-13 -5.5h-68q-10 0 -15 5.5t-5 12.5v1229q0 7 5 13t15 6h68q8 0 13 -6t5 -13v-608h445v608q0 7 5 13t15 6h68q8 0 13 -6t5 -13v-1229q0 -7 -5 -12.5t-13 -5.5h-68q-10 0 -15 5.5t-5 12.5z" />
    <glyph glyph-name="I" unicode="I" horiz-adv-x="352" 
d="M123 18v1229q0 7 5 13t15 6h68q8 0 13 -6t5 -13v-1229q0 -7 -5 -12.5t-13 -5.5h-68q-10 0 -15 5.5t-5 12.5z" />
    <glyph glyph-name="J" unicode="J" horiz-adv-x="794" 
d="M51 272q0 7 5.5 13t15.5 6h69q8 0 13.5 -6t5.5 -13q5 -80 59 -132t139 -52q94 0 150.5 59.5t56.5 165.5v934q0 7 5.5 13t15.5 6h67q8 0 13.5 -6t5.5 -13v-942q0 -158 -88 -237.5t-226 -79.5q-128 0 -217.5 83t-89.5 201z" />
    <glyph glyph-name="K" unicode="K" horiz-adv-x="864" 
d="M229 272v-254q0 -7 -5 -12.5t-13 -5.5h-68q-10 0 -15 5.5t-5 12.5v1229q0 7 5 13t15 6h68q8 0 13 -6t5 -13v-772l426 772q9 19 25 19h70q10 0 15 -6t5 -13l-262 -473l295 -756q0 -7 -5.5 -12.5t-15.5 -5.5h-65q-14 0 -23 18l-252 637z" />
    <glyph glyph-name="L" unicode="L" horiz-adv-x="710" 
d="M123 18v1229q0 7 5 13t15 6h68q8 0 13 -6t5 -13v-1149h394q16 0 16 -18v-64q0 -16 -16 -16h-480q-10 0 -15 5.5t-5 12.5z" />
    <glyph glyph-name="M" unicode="M" horiz-adv-x="1146" 
d="M584 342h-21q-11 0 -14 10l-320 674v-1008q0 -7 -5 -12.5t-13 -5.5h-68q-10 0 -15 5.5t-5 12.5v1229q0 6 7 12.5t13 6.5h78q10 0 19 -13l333 -700l334 700q9 13 19 13h78q6 0 13 -6.5t7 -12.5v-1229q0 -7 -5 -12.5t-15 -5.5h-68q-8 0 -13 5.5t-5 12.5v1008l-320 -674
q-3 -10 -14 -10z" />
    <glyph glyph-name="N" unicode="N" horiz-adv-x="921" 
d="M688 14l-459 961v-957q0 -7 -5 -12.5t-13 -5.5h-68q-10 0 -15 5.5t-5 12.5v1229q0 7 5 13t15 6h64q12 0 22 -15l463 -970v966q0 7 5.5 13t13.5 6h67q10 0 15.5 -6t5.5 -13v-1229q0 -7 -5.5 -12.5t-15.5 -5.5h-67q-14 0 -23 14z" />
    <glyph glyph-name="O" unicode="O" horiz-adv-x="917" 
d="M459 1280q150 0 248 -89.5t98 -223.5v-664q0 -134 -98 -223.5t-248 -89.5t-248 89.5t-98 223.5v664q0 134 98 223.5t248 89.5zM459 88q99 0 169 62t70 184v602q0 123 -70 184.5t-169 61.5q-46 0 -88 -14t-76.5 -42.5t-55 -77.5t-20.5 -112v-602q0 -122 70.5 -184
t169.5 -62z" />
    <glyph glyph-name="P" unicode="P" horiz-adv-x="878" 
d="M143 1266h314q137 0 233 -94.5t96 -266.5v-192q0 -172 -96 -266.5t-233 -94.5h-228v-334q0 -7 -5 -12.5t-13 -5.5h-68q-10 0 -15 5.5t-5 12.5v1229q0 7 5 13t15 6zM229 1167v-716h217q44 0 83.5 14t74.5 43.5t55.5 84t20.5 128.5v176q0 74 -20.5 128.5t-55.5 84
t-74.5 43.5t-83.5 14h-217z" />
    <glyph glyph-name="Q" unicode="Q" horiz-adv-x="964" 
d="M907 88q17 0 17 -18v-64q0 -7 -5.5 -11.5t-11.5 -4.5h-448q-150 0 -248 89.5t-98 223.5v664q0 134 98 223.5t248 89.5t248 -89.5t98 -223.5v-664q0 -127 -88 -215h190zM219 334q0 -122 70.5 -184t169.5 -62t169 62t70 184v602q0 123 -70 184.5t-169 61.5q-46 0 -88 -14
t-76.5 -42.5t-55 -77.5t-20.5 -112v-602z" />
    <glyph glyph-name="R" unicode="R" horiz-adv-x="868" 
d="M645 18l-133 416q-18 -4 -55 -4h-228v-412q0 -7 -5 -12.5t-13 -5.5h-68q-10 0 -15 5.5t-5 12.5v1229q0 7 5 13t15 6h314q137 0 233 -94.5t96 -266.5v-114q0 -119 -48.5 -202.5t-129.5 -123.5l140 -447q0 -7 -5.5 -12.5t-15.5 -5.5h-61q-16 0 -21 18zM229 1167v-639h217
q44 0 83.5 14t74.5 44t55.5 84.5t20.5 128.5v98q0 74 -20.5 128.5t-55.5 84t-74.5 43.5t-83.5 14h-217z" />
    <glyph glyph-name="S" unicode="S" horiz-adv-x="849" 
d="M672 289q0 63 -25 114.5t-65.5 86t-93 67.5t-106.5 59t-106.5 61t-93 72.5t-65.5 94.5t-25 127q0 81 26.5 142t73 96.5t103.5 53t125 17.5q61 0 115 -16t100.5 -50t74 -96t27.5 -145q0 -7 -5 -13t-13 -6h-68q-10 0 -15 6t-5 13q0 209 -209 209q-62 0 -107.5 -18t-67 -40
t-33.5 -55t-13.5 -49.5t-1.5 -36.5q0 -56 20 -101.5t53.5 -78t76.5 -60.5t91.5 -52.5t96.5 -50.5t91 -59t76.5 -72t53.5 -96t20 -126q0 -148 -94.5 -222.5t-243.5 -74.5q-49 0 -94.5 9.5t-90.5 32.5t-78.5 57t-54 87.5t-20.5 120.5q0 7 5.5 12.5t13.5 5.5h67q10 0 15.5 -5.5
t5.5 -12.5q0 -38 10.5 -72t35 -66.5t71.5 -51.5t112 -19q63 0 109 16t69 37.5t36.5 52.5t16.5 51.5t3 43.5z" />
    <glyph glyph-name="T" unicode="T" horiz-adv-x="712" 
d="M78 1266h557q16 0 16 -19v-63q0 -7 -5 -12t-11 -5h-225v-1149q0 -7 -5.5 -12.5t-13.5 -5.5h-67q-10 0 -15.5 5.5t-5.5 12.5v1149h-225q-6 0 -11.5 5t-5.5 12v63q0 9 5.5 14t11.5 5z" />
    <glyph glyph-name="U" unicode="U" horiz-adv-x="937" 
d="M815 1247v-944q0 -134 -98 -223.5t-248 -89.5t-248 89.5t-98 223.5v944q0 7 5 13t15 6h68q8 0 13 -6t5 -13v-913q0 -122 70.5 -184t169.5 -62t169.5 62t70.5 184v913q0 7 5 13t13 6h68q10 0 15 -6t5 -13z" />
    <glyph glyph-name="V" unicode="V" horiz-adv-x="901" 
d="M516 0h-131q-19 0 -23 18l-301 1229q0 7 5.5 13t15.5 6h68q15 0 20 -19l281 -1149l280 1149q5 19 21 19h67q10 0 15.5 -6t5.5 -13l-301 -1229q-5 -18 -23 -18z" />
    <glyph glyph-name="W" unicode="W" horiz-adv-x="1200" 
d="M567 1266h66q15 0 20 -19l203 -1091l184 1091q5 19 21 19h67q10 0 15.5 -6t5.5 -13q-35 -199 -111.5 -615t-111.5 -614q-4 -18 -23 -18h-94q-19 0 -23 18l-186 998l-186 -998q-4 -18 -23 -18h-94q-19 0 -23 18q-35 199 -111.5 614.5t-111.5 614.5q0 7 5.5 13t15.5 6h67
q16 0 21 -19l184 -1091l203 1091q5 19 20 19z" />
    <glyph glyph-name="X" unicode="X" horiz-adv-x="823" 
d="M412 520l-228 -502q-9 -18 -22 -18h-70q-10 0 -15 5.5t-5 12.5l278 603l-289 626q0 7 5.5 13t15.5 6h70q12 0 22 -19l238 -524l237 524q9 19 23 19h69q10 0 15.5 -6t5.5 -13l-289 -626l279 -603q0 -7 -5.5 -12.5t-15.5 -5.5h-69q-14 0 -23 18z" />
    <glyph glyph-name="Y" unicode="Y" horiz-adv-x="839" 
d="M473 410v-392q0 -7 -5 -12.5t-13 -5.5h-68q-10 0 -15 5.5t-5 12.5v392l-316 837q0 7 5.5 13t15.5 6h65q19 0 23 -17l260 -698l260 698q4 17 22 17h66q10 0 15 -6t5 -13z" />
    <glyph glyph-name="Z" unicode="Z" horiz-adv-x="763" 
d="M104 121l457 1046h-442q-6 0 -11.5 5t-5.5 12v63q0 9 5 14t12 5h526q7 0 12 -5t5 -14v-78q0 -5 -2 -11l-1 -5l-460 -1055h446q6 0 11.5 -4.5t5.5 -11.5v-64q0 -18 -17 -18h-526q-17 0 -17 18v86q0 5 1 11z" />
    <glyph glyph-name="bracketleft" unicode="[" horiz-adv-x="518" 
d="M123 -223v1718q0 7 5 12.5t15 5.5h236q16 0 16 -16v-63q0 -19 -16 -19h-150v-1558h150q16 0 16 -19v-63q0 -7 -5 -12t-11 -5h-236q-10 0 -15 6t-5 13z" />
    <glyph glyph-name="backslash" unicode="\" horiz-adv-x="677" 
d="M221 1497l334 -1722q0 -5 -5 -11t-13 -6h-64q-12 0 -16 17q-314 1614 -334 1722q0 5 5 10.5t13 5.5h64q11 0 16 -16z" />
    <glyph glyph-name="bracketright" unicode="]" horiz-adv-x="518" 
d="M395 1495v-1718q0 -7 -5 -13t-15 -6h-236q-6 0 -11 5t-5 12v63q0 19 16 19h150v1558h-150q-16 0 -16 19v63q0 16 16 16h236q10 0 15 -5.5t5 -12.5z" />
    <glyph glyph-name="asciicircum" unicode="^" horiz-adv-x="598" 
d="M244 1266h110q14 0 21 -21l100 -274q0 -8 -5.5 -13.5t-14.5 -5.5h-60q-12 0 -20 19l-76 207l-76 -207q-8 -19 -20 -19h-60q-9 0 -14.5 5.5t-5.5 13.5l100 274q7 21 21 21z" />
    <glyph glyph-name="underscore" unicode="_" horiz-adv-x="733" 
d="M141 -66h451q7 0 12.5 -5t5.5 -15v-68q0 -8 -5.5 -13t-12.5 -5h-451q-7 0 -12.5 5t-5.5 13v68q0 10 5.5 15t12.5 5z" />
    <glyph glyph-name="grave" unicode="`" horiz-adv-x="413" 
d="M242 1247l49 -233q0 -16 -19 -19h-57q-17 3 -20 19l-72 233q0 15 16 19h84q13 -3 19 -19z" />
    <glyph glyph-name="a" unicode="a" 
d="M760 924v-906q0 -7 -5.5 -12.5t-13.5 -5.5h-67q-10 0 -15.5 5.5t-5.5 12.5v64q-73 -92 -243 -92q-48 0 -90 10.5t-81 35.5t-66 63.5t-43.5 97t-16.5 133.5v282q0 75 16.5 133.5t43.5 97t66 63.5t81 35.5t90 10.5q170 0 243 -92v64q0 7 5.5 12.5t15.5 5.5h67
q8 0 13.5 -5.5t5.5 -12.5zM653 305v332q0 100 -61 158.5t-162 58.5q-43 0 -78.5 -12t-66.5 -39t-48.5 -77.5t-17.5 -121.5v-266q0 -71 17.5 -121.5t48.5 -77.5t66.5 -39t78.5 -12q101 0 162 58.5t61 158.5z" />
    <glyph glyph-name="b" unicode="b" 
d="M123 18v1229q0 7 5 13t13 6h68q10 0 15 -6t5 -13v-387q73 92 244 92q48 0 90 -10.5t81 -35.5t66 -63.5t43.5 -97t16.5 -133.5v-282q0 -75 -16.5 -133.5t-43.5 -97t-66 -63.5t-81 -35.5t-90 -10.5q-171 0 -244 92v-64q0 -7 -5 -12.5t-15 -5.5h-68q-8 0 -13 5.5t-5 12.5z
M229 637v-332q0 -100 61.5 -158.5t162.5 -58.5q43 0 78.5 12t66.5 39t48.5 77.5t17.5 121.5v266q0 71 -17.5 121.5t-48.5 77.5t-66.5 39t-78.5 12q-101 0 -162.5 -58.5t-61.5 -158.5z" />
    <glyph glyph-name="c" unicode="c" horiz-adv-x="837" 
d="M113 299v344q0 134 82 221.5t233 87.5q136 0 221 -76t96 -190q0 -7 -5 -12.5t-13 -5.5h-68q-10 0 -15 5.5t-5 12.5q-9 73 -68.5 120.5t-142.5 47.5q-94 0 -151.5 -60.5t-57.5 -154.5v-336q0 -94 57.5 -154.5t151.5 -60.5q83 0 142.5 47.5t68.5 120.5q0 7 5 12.5t15 5.5
h68q8 0 13 -5.5t5 -12.5q-11 -114 -96 -190t-221 -76q-151 0 -233 87.5t-82 221.5z" />
    <glyph glyph-name="d" unicode="d" 
d="M760 1247v-1229q0 -7 -5.5 -12.5t-13.5 -5.5h-67q-10 0 -15.5 5.5t-5.5 12.5v64q-73 -92 -243 -92q-48 0 -90 10.5t-81 35.5t-66 63.5t-43.5 97t-16.5 133.5v282q0 75 16.5 133.5t43.5 97t66 63.5t81 35.5t90 10.5q170 0 243 -92v387q0 7 5.5 13t15.5 6h67q8 0 13.5 -6
t5.5 -13zM653 305v332q0 100 -61 158.5t-162 58.5q-43 0 -78.5 -12t-66.5 -39t-48.5 -77.5t-17.5 -121.5v-266q0 -71 17.5 -121.5t48.5 -77.5t66.5 -39t78.5 -12q101 0 162 58.5t61 158.5z" />
    <glyph glyph-name="e" unicode="e" horiz-adv-x="860" 
d="M641 532v109q0 94 -58 153.5t-155 59.5q-93 0 -151 -60t-58 -153v-109h422zM729 436h-510v-133q0 -94 57.5 -154.5t151.5 -60.5q77 0 126.5 35t74.5 88q1 1 2 4t2 4.5t2.5 3.5t3 3t4.5 2t6 1h60q8 0 13 -5.5t5 -12.5q0 -28 -19 -64.5t-53.5 -72t-94.5 -60t-132 -24.5
q-151 0 -233 87.5t-82 221.5v346q0 142 88.5 224.5t228.5 82.5q143 0 230.5 -81t87.5 -226v-190q0 -7 -5.5 -13t-13.5 -6z" />
    <glyph glyph-name="f" unicode="f" horiz-adv-x="591" 
d="M483 1280h35q17 0 17 -18v-64q0 -7 -5.5 -11.5t-11.5 -4.5h-18q-95 0 -132.5 -43t-37.5 -121v-76h194q17 0 17 -18v-64q0 -7 -5.5 -11.5t-11.5 -4.5h-194v-826q0 -7 -5.5 -12.5t-13.5 -5.5h-67q-10 0 -15.5 5.5t-5.5 12.5v826h-155q-6 0 -11.5 4.5t-5.5 11.5v64
q0 18 17 18h155v72q0 81 18 135t54.5 82t80.5 38.5t107 10.5z" />
    <glyph glyph-name="g" unicode="g" 
d="M760 924v-959q0 -136 -75 -222.5t-224 -86.5q-72 0 -129.5 24.5t-89 60.5t-48 71.5t-16.5 64.5q0 7 5.5 13t13.5 6h59q4 0 7 -1t5 -3.5t3 -4t2.5 -5.5t2.5 -5q27 -56 68.5 -89.5t116.5 -33.5q92 0 142 59.5t50 155.5v160q-73 -92 -243 -92q-48 0 -90 10.5t-81 35.5
t-66 63.5t-43.5 97t-16.5 133.5v235q0 75 16.5 133.5t43.5 97t66 63.5t81 35.5t90 10.5q170 0 243 -92v64q0 7 5.5 12.5t15.5 5.5h67q8 0 13.5 -5.5t5.5 -12.5zM653 352v285q0 100 -61 158.5t-162 58.5q-43 0 -78.5 -12t-66.5 -39t-48.5 -77.5t-17.5 -121.5v-219
q0 -71 17.5 -121.5t48.5 -77.5t66.5 -39t78.5 -12q101 0 162 58.5t61 158.5z" />
    <glyph glyph-name="h" unicode="h" 
d="M664 18v586q0 71 -17.5 121.5t-48.5 77.5t-66.5 39t-78.5 12q-101 0 -162.5 -58.5t-61.5 -158.5v-619q0 -7 -5 -12.5t-15 -5.5h-68q-8 0 -13 5.5t-5 12.5v1229q0 7 5 13t13 6h68q10 0 15 -6t5 -13v-387q73 92 244 92q48 0 90 -10.5t81 -35.5t66 -63.5t43.5 -97
t16.5 -133.5v-594q0 -7 -5 -12.5t-15 -5.5h-68q-8 0 -13 5.5t-5 12.5z" />
    <glyph glyph-name="i" unicode="i" horiz-adv-x="352" 
d="M123 18v906q0 7 5 12.5t15 5.5h68q8 0 13 -5.5t5 -12.5v-906q0 -7 -5 -12.5t-13 -5.5h-68q-10 0 -15 5.5t-5 12.5zM123 1053v161q0 7 5 13t15 6h68q8 0 13 -6t5 -13v-161q0 -7 -5 -13t-13 -6h-68q-10 0 -15 6t-5 13z" />
    <glyph glyph-name="j" unicode="j" horiz-adv-x="352" 
d="M-84 -233h14q39 0 69.5 7.5t51 18t34.5 30.5t21.5 37.5t11 46.5t4.5 49t1 54v914q0 7 5 12.5t15 5.5h68q8 0 13 -5.5t5 -12.5v-947q0 -91 -17.5 -153t-53 -96t-81 -48t-110.5 -14h-51q-6 0 -11 5t-5 12v65q0 19 16 19zM123 1214v-161q0 -7 5 -13t15 -6h68q8 0 13 6t5 13
v161q0 7 -5 13t-13 6h-68q-10 0 -15 -6t-5 -13z" />
    <glyph glyph-name="k" unicode="k" horiz-adv-x="835" 
d="M229 367l355 557q12 18 26 18h72q10 0 15 -5.5t5 -12.5l-157 -250l250 -656q0 -7 -5.5 -12.5t-15.5 -5.5h-65q-8 0 -14.5 5.5t-8.5 12.5l-211 549l-246 -385v-164q0 -7 -5 -12.5t-13 -5.5h-68q-10 0 -15 5.5t-5 12.5v1229q0 7 5 13t15 6h68q8 0 13 -6t5 -13v-880z" />
    <glyph glyph-name="l" unicode="l" horiz-adv-x="352" 
d="M123 18v1229q0 7 5 13t15 6h68q8 0 13 -6t5 -13v-1229q0 -7 -5 -12.5t-13 -5.5h-68q-10 0 -15 5.5t-5 12.5z" />
    <glyph glyph-name="m" unicode="m" horiz-adv-x="1302" 
d="M922 952q268 0 268 -340v-594q0 -7 -5.5 -12.5t-15.5 -5.5h-67q-8 0 -13.5 5.5t-5.5 12.5v586q0 140 -42.5 195t-127.5 55q-69 0 -117.5 -34.5t-84.5 -106.5q8 -41 8 -101v-594q0 -7 -5.5 -12.5t-15.5 -5.5h-67q-8 0 -13.5 5.5t-5.5 12.5v586q0 140 -43 195t-129 55
q-99 0 -155 -57.5t-56 -159.5v-619q0 -7 -5 -12.5t-15 -5.5h-68q-8 0 -13 5.5t-5 12.5v906q0 7 5 12.5t13 5.5h68q10 0 15 -5.5t5 -12.5v-78q79 106 220 106q162 0 229 -131q92 131 244 131z" />
    <glyph glyph-name="n" unicode="n" 
d="M664 18v586q0 71 -17.5 121.5t-48.5 77.5t-66.5 39t-78.5 12q-101 0 -162.5 -58.5t-61.5 -158.5v-619q0 -7 -5 -12.5t-15 -5.5h-68q-8 0 -13 5.5t-5 12.5v906q0 7 5 12.5t13 5.5h68q10 0 15 -5.5t5 -12.5v-64q73 92 244 92q48 0 90 -10.5t81 -35.5t66 -63.5t43.5 -97
t16.5 -133.5v-594q0 -7 -5 -12.5t-15 -5.5h-68q-8 0 -13 5.5t-5 12.5z" />
    <glyph glyph-name="o" unicode="o" horiz-adv-x="856" 
d="M428 952q151 0 233 -87.5t82 -221.5v-344q0 -134 -82 -221.5t-233 -87.5t-233 87.5t-82 221.5v344q0 134 82 221.5t233 87.5zM428 88q94 0 151.5 60.5t57.5 154.5v336q0 94 -57.5 154.5t-151.5 60.5t-151.5 -60.5t-57.5 -154.5v-336q0 -94 57.5 -154.5t151.5 -60.5z" />
    <glyph glyph-name="p" unicode="p" 
d="M123 -301v1225q0 7 5 12.5t13 5.5h68q10 0 15 -5.5t5 -12.5v-64q73 92 244 92q48 0 90 -10.5t81 -35.5t66 -63.5t43.5 -97t16.5 -133.5v-282q0 -75 -16.5 -133.5t-43.5 -97t-66 -63.5t-81 -35.5t-90 -10.5q-171 0 -244 92v-383q0 -7 -5 -12.5t-15 -5.5h-68q-8 0 -13 5.5
t-5 12.5zM229 637v-332q0 -100 61.5 -158.5t162.5 -58.5q43 0 78.5 12t66.5 39t48.5 77.5t17.5 121.5v266q0 71 -17.5 121.5t-48.5 77.5t-66.5 39t-78.5 12q-101 0 -162.5 -58.5t-61.5 -158.5z" />
    <glyph glyph-name="q" unicode="q" 
d="M760 924v-1225q0 -7 -5.5 -12.5t-13.5 -5.5h-67q-10 0 -15.5 5.5t-5.5 12.5v383q-73 -92 -243 -92q-48 0 -90 10.5t-81 35.5t-66 63.5t-43.5 97t-16.5 133.5v282q0 75 16.5 133.5t43.5 97t66 63.5t81 35.5t90 10.5q170 0 243 -92v64q0 7 5.5 12.5t15.5 5.5h67
q8 0 13.5 -5.5t5.5 -12.5zM653 305v332q0 100 -61 158.5t-162 58.5q-43 0 -78.5 -12t-66.5 -39t-48.5 -77.5t-17.5 -121.5v-266q0 -71 17.5 -121.5t48.5 -77.5t66.5 -39t78.5 -12q101 0 162 58.5t61 158.5z" />
    <glyph glyph-name="r" unicode="r" horiz-adv-x="606" 
d="M553 942q7 0 12.5 -5t5.5 -15v-66q0 -8 -5.5 -13t-12.5 -5q-51 -7 -105 -36.5t-104 -78.5t-82.5 -127.5t-32.5 -171.5v-406q0 -7 -5 -12.5t-15 -5.5h-68q-8 0 -13 5.5t-5 12.5v906q0 7 5 12.5t13 5.5h68q10 0 15 -5.5t5 -12.5v-185q71 105 160.5 154t163.5 49z" />
    <glyph glyph-name="s" unicode="s" horiz-adv-x="727" 
d="M551 219q0 44 -26 79t-68 59.5t-92.5 48t-100.5 50t-92 58t-68 79.5t-26 109q0 63 23.5 112.5t63 78.5t86.5 44t97 15q69 0 125 -25t90 -65t53 -82t25 -84q0 -7 -5 -12.5t-13 -5.5h-68q-15 0 -20 18q-8 55 -39 92t-67 51.5t-75 14.5q-18 0 -33.5 -1.5t-42.5 -9.5
t-46 -22.5t-33.5 -44.5t-14.5 -71t26 -77t68 -63t92 -53.5t100.5 -55.5t92.5 -61t68 -77t26 -99q0 -108 -85 -168.5t-189 -60.5q-75 0 -135.5 22.5t-95 59t-53 77t-19.5 80.5q0 7 5 13t13 6h68q10 0 15 -6t5 -13q5 -51 38.5 -84.5t72.5 -45t80 -11.5q20 0 43.5 4.5t56 16
t53.5 40.5t21 70z" />
    <glyph glyph-name="t" unicode="t" horiz-adv-x="622" 
d="M524 0h-41q-127 0 -193.5 75t-66.5 247v522h-155q-6 0 -11.5 4.5t-5.5 11.5v64q0 18 17 18h155v268q0 7 5.5 13t15.5 6h67q8 0 13.5 -6t5.5 -13v-268h194q17 0 17 -18v-64q0 -7 -5.5 -11.5t-11.5 -4.5h-194v-518q0 -53 7 -88.5t26 -69t59 -51t102 -19.5q17 0 17 -18v-64
q0 -7 -5.5 -11.5t-11.5 -4.5z" />
    <glyph glyph-name="u" unicode="u" 
d="M219 924v-586q0 -71 17.5 -121.5t48.5 -77.5t66.5 -39t78.5 -12q101 0 162 58.5t61 158.5v619q0 7 5.5 12.5t15.5 5.5h67q8 0 13.5 -5.5t5.5 -12.5v-906q0 -7 -5.5 -12.5t-13.5 -5.5h-67q-10 0 -15.5 5.5t-5.5 12.5v64q-73 -92 -243 -92q-48 0 -90 10.5t-81 35.5
t-66 63.5t-43.5 97t-16.5 133.5v594q0 7 5 12.5t15 5.5h68q8 0 13 -5.5t5 -12.5z" />
    <glyph glyph-name="v" unicode="v" horiz-adv-x="798" 
d="M465 0h-131q-18 0 -23 18l-260 906q0 7 5.5 12.5t15.5 5.5h67q17 0 21 -18l239 -826l240 826q5 18 20 18h68q10 0 15.5 -5.5t5.5 -12.5l-261 -906q-5 -18 -22 -18z" />
    <glyph glyph-name="w" unicode="w" horiz-adv-x="1122" 
d="M528 942h66q7 0 12.5 -5.5t7.5 -12.5l181 -836l157 836q4 18 21 18h67q10 0 15.5 -5.5t5.5 -12.5l-182 -906q-5 -18 -19 -18h-119q-17 0 -22 18l-158 689l-158 -689q-5 -18 -22 -18h-119q-14 0 -18 18l-183 906q0 7 5.5 12.5t15.5 5.5h68q16 0 20 -18l158 -836l180 836
q2 7 7.5 12.5t12.5 5.5z" />
    <glyph glyph-name="x" unicode="x" horiz-adv-x="724" 
d="M362 549l199 375q9 18 23 18h69q10 0 15.5 -5.5t5.5 -12.5l-246 -465l238 -441q0 -7 -5.5 -12.5t-15.5 -5.5h-65q-18 0 -27 18l-191 351l-190 -351q-9 -18 -27 -18h-65q-10 0 -15.5 5.5t-5.5 12.5l238 441l-246 465q0 7 5.5 12.5t15.5 5.5h69q14 0 23 -18z" />
    <glyph glyph-name="y" unicode="y" horiz-adv-x="786" 
d="M735 924l-334 -1225q-5 -18 -22 -18h-66q-10 0 -15 5.5t-5 12.5l63 235l-305 990q0 7 5.5 12.5t15.5 5.5h65q8 0 14.5 -5.5t8.5 -12.5l248 -807l219 807q5 18 22 18h66q10 0 15 -5.5t5 -12.5z" />
    <glyph glyph-name="z" unicode="z" horiz-adv-x="665" 
d="M74 121l413 723h-399q-16 0 -16 16v64q0 18 16 18h490q16 0 16 -18v-78q0 -5 -1 -11l-1 -6l-418 -731h404q16 0 16 -16v-64q0 -18 -16 -18h-490q-16 0 -16 18v86q0 5 1 11z" />
    <glyph glyph-name="braceleft" unicode="{" horiz-adv-x="737" 
d="M340 -45v367q0 113 -60.5 184.5t-140.5 79.5q-16 0 -16 18v64q0 16 16 16q80 8 140.5 78t60.5 184v371q0 88 52 142t130 54h76q16 0 16 -16v-63q0 -19 -16 -19q-75 -2 -113.5 -32t-38.5 -115v-355q0 -33 -4.5 -57t-21 -62t-58 -78t-106.5 -81q65 -41 106.5 -81t58 -78.5
t21 -62.5t4.5 -57v-352q0 -85 38.5 -115t113.5 -32q16 0 16 -19v-63q0 -7 -5 -12t-11 -5h-76q-78 0 -130 54.5t-52 142.5z" />
    <glyph glyph-name="bar" unicode="|" horiz-adv-x="352" 
d="M123 -223v1718q0 7 5 12.5t15 5.5h68q8 0 13 -5.5t5 -12.5v-1718q0 -7 -5 -13t-13 -6h-68q-10 0 -15 6t-5 13z" />
    <glyph glyph-name="braceright" unicode="}" horiz-adv-x="737" 
d="M397 322v-367q0 -88 -52 -142.5t-130 -54.5h-76q-6 0 -11 5t-5 12v63q0 19 16 19q75 2 113.5 32t38.5 115v352q0 33 4.5 57t21 62.5t58 78.5t106.5 81q-65 41 -106.5 81t-58 78t-21 62t-4.5 57v355q0 85 -38.5 115t-113.5 32q-16 0 -16 19v63q0 16 16 16h76q78 0 130 -54
t52 -142v-371q0 -114 60.5 -184t140.5 -78q16 0 16 -16v-64q0 -18 -16 -18q-80 -8 -140.5 -79.5t-60.5 -184.5z" />
    <glyph glyph-name="asciitilde" unicode="~" horiz-adv-x="622" 
d="M399 391q-42 0 -94 23q-32 16 -61 16q-15 0 -39 -12t-29 -12q-6 0 -14 8l-35 43q-4 8 -4 12q0 7 6 16q19 21 46.5 36.5t47.5 15.5q19 0 66 -19q46 -20 90 -20q15 0 38.5 12t28.5 12q7 0 15 -8l35 -43q4 -8 4 -12q0 -8 -6 -17q-19 -21 -47 -36t-48 -15z" />
    <glyph glyph-name="uni00A0" unicode="&#xa0;" horiz-adv-x="378" 
 />
    <glyph glyph-name="exclamdown" unicode="&#xa1;" horiz-adv-x="352" 
d="M123 18v938q0 7 5 13t15 6h68q8 0 13 -6t5 -13v-938q0 -7 -5 -12.5t-13 -5.5h-68q-10 0 -15 5.5t-5 12.5zM123 1085v162q0 7 5 13t15 6h68q8 0 13 -6t5 -13v-162q0 -7 -5 -12.5t-13 -5.5h-68q-10 0 -15 5.5t-5 12.5z" />
    <glyph glyph-name="cent" unicode="&#xa2;" horiz-adv-x="925" 
d="M784 301q8 0 13.5 -5.5t5.5 -12.5q-8 -115 -83.5 -194.5t-197.5 -96.5l-51 -236q-3 -13 -16 -16h-76q-14 5 -14 16l69 234q-137 12 -224 99.5t-87 213.5v664q0 126 88.5 213t226.5 98l54 254q3 13 16 16h76q14 -5 14 -16l-74 -256q120 -17 195.5 -96t83.5 -193
q0 -7 -5.5 -12.5t-13.5 -5.5h-67q-10 0 -15.5 5.5t-5.5 12.5q-16 97 -79 146t-148 49q-46 0 -88 -14t-76.5 -42.5t-55 -77.5t-20.5 -112v-602q0 -63 20.5 -112t55 -77.5t76.5 -42.5t88 -14q85 0 148 49t79 146q0 7 5.5 12.5t15.5 5.5h67z" />
    <glyph glyph-name="sterling" unicode="&#xa3;" horiz-adv-x="1026" 
d="M600 1280q135 0 213.5 -75.5t89.5 -190.5q0 -7 -5 -13t-13 -6h-68q-10 0 -15 6t-5 13q-9 75 -62 121.5t-135 46.5q-92 0 -142 -59.5t-50 -155.5v-322h186q5 0 10.5 -5t5.5 -13v-64q0 -7 -5.5 -11.5t-10.5 -4.5h-186v-449h432q16 0 16 -18v-64q0 -16 -16 -16h-701
q-5 0 -10.5 4.5t-5.5 11.5v64q0 8 5.5 13t10.5 5h162v449h-162q-5 0 -10.5 4.5t-5.5 11.5v64q0 8 5.5 13t10.5 5h162v326q0 136 75 222.5t224 86.5z" />
    <glyph glyph-name="currency" unicode="&#xa4;" horiz-adv-x="851" 
d="M299 418q0 -199 127 -199t127 199q0 198 -127 198t-127 -198zM670 418q0 -105 -33 -187l86 -86q6 -6 6 -12t-6 -12l-49 -49q-4 -4 -12 -4q-7 0 -11 4l-86 84q-58 -33 -139 -33t-139 33l-86 -84q-4 -4 -11 -4q-8 0 -12 4l-49 49q-6 6 -6 12t6 12l86 86q-33 82 -33 187
q0 104 33 186l-86 86q-6 6 -6 12q0 7 6 13l49 49q4 4 12 4q7 0 11 -4l86 -84q58 33 139 33t139 -33l86 84q4 4 11 4q8 0 12 -4l49 -49q6 -6 6 -13q0 -6 -6 -12l-86 -86q33 -82 33 -186z" />
    <glyph glyph-name="yen" unicode="&#xa5;" horiz-adv-x="983" 
d="M264 580h111l-252 667q0 7 5 13t15 6h66q18 0 22 -17l261 -698l260 698q4 17 22 17h66q10 0 15 -6t5 -13l-252 -667h111q5 0 10.5 -5.5t5.5 -13.5v-63q0 -7 -5.5 -12t-10.5 -5h-148l-26 -71v-127h174q5 0 10.5 -5.5t5.5 -13.5v-63q0 -7 -5.5 -12t-10.5 -5h-174v-166
q0 -7 -5.5 -12.5t-13.5 -5.5h-67q-10 0 -15.5 5.5t-5.5 12.5v166h-174q-5 0 -10.5 5t-5.5 12v63q0 8 5.5 13.5t10.5 5.5h174v127l-26 71h-148q-5 0 -10.5 5t-5.5 12v63q0 8 5.5 13.5t10.5 5.5z" />
    <glyph glyph-name="brokenbar" unicode="&#xa6;" horiz-adv-x="352" 
d="M123 932v563q0 7 5 12.5t15 5.5h68q8 0 13 -5.5t5 -12.5v-563q0 -7 -5 -13t-13 -6h-68q-10 0 -15 6t-5 13zM123 -223v563q0 7 5 12.5t15 5.5h68q8 0 13 -5.5t5 -12.5v-563q0 -7 -5 -13t-13 -6h-68q-10 0 -15 6t-5 13z" />
    <glyph glyph-name="section" unicode="&#xa7;" horiz-adv-x="1075" 
d="M952 547q0 -104 -83 -166t-193 -64q26 -47 26 -98q0 -108 -85 -168.5t-189 -60.5q-75 0 -135.5 22.5t-95 59t-53 77t-19.5 80.5q0 7 5 13t13 6h68q10 0 15 -6t5 -13q5 -51 38.5 -84.5t72.5 -45t80 -11.5q20 0 43.5 4.5t56 16t53.5 40.5t21 70q0 44 -26 79t-68 59.5
t-92.5 48t-100.5 50t-92 58t-68 79.5t-26 109q0 120 78 184t184 66q-12 34 -12 78q0 63 23.5 112.5t63 78.5t86.5 44t97 15q69 0 125 -25t90 -65t53 -82t25 -84q0 -7 -5 -12.5t-13 -5.5h-68q-16 0 -21 18q-8 55 -38.5 92t-66.5 51.5t-75 14.5q-17 0 -33 -1.5t-43 -10
t-46 -23t-33.5 -44.5t-14.5 -71q0 -64 68 -119l35 -26q29 -19 75 -44t83 -44t78.5 -47t69 -55.5t46 -66.5t18.5 -83zM229 705q0 -28 13 -54t31 -45t50.5 -40.5t57.5 -35t67.5 -36t65.5 -35.5q31 -13 83 -28t75 -15q20 0 43.5 4.5t56 16t53.5 40.5t21 70q0 54 -41.5 96.5
t-95 66.5t-127 60.5t-115.5 71.5q-35 12 -68 12q-18 0 -33.5 -1.5t-42.5 -9.5t-46 -22.5t-33.5 -44.5t-14.5 -71z" />
    <glyph glyph-name="dieresis" unicode="&#xa8;" horiz-adv-x="544" 
d="M123 1219q0 26 16 43.5t41 17.5q26 0 44 -17.5t18 -43.5q0 -25 -18 -41.5t-44 -16.5q-25 0 -41 16.5t-16 41.5zM303 1219q0 26 16 43.5t41 17.5q26 0 44 -17.5t18 -43.5q0 -25 -18 -41.5t-44 -16.5q-25 0 -41 16.5t-16 41.5z" />
    <glyph glyph-name="copyright" unicode="&#xa9;" horiz-adv-x="1533" 
d="M764 1280q133 0 252.5 -51t206 -137.5t137.5 -206t51 -252.5q0 -174 -86 -322t-235 -234.5t-326 -86.5q-173 0 -321 86.5t-234 234.5t-86 322q0 177 86.5 326t234 235t320.5 86zM764 74q151 0 283.5 77.5t210 206.5t77.5 275q0 114 -46 219.5t-123 182.5t-182.5 123
t-219.5 46q-146 0 -275 -77.5t-206.5 -210t-77.5 -283.5q0 -109 46 -212t122 -179t179 -122t212 -46zM530 743v-243q0 -97 68.5 -161.5t171.5 -64.5q104 0 172 64.5t68 161.5v8q0 7 -5.5 12.5t-13.5 5.5h-63q-10 0 -15.5 -5.5t-5.5 -12.5v-10q0 -60 -39.5 -92.5t-97.5 -32.5
q-59 0 -98 32.5t-39 92.5v247q0 60 39 92.5t98 32.5q58 0 97.5 -32.5t39.5 -92.5v-10q0 -7 5.5 -12.5t15.5 -5.5h63q8 0 13.5 5.5t5.5 12.5v8q0 97 -68 161.5t-172 64.5q-103 0 -171.5 -64.5t-68.5 -161.5z" />
    <glyph glyph-name="ordfeminine" unicode="&#xaa;" horiz-adv-x="608" 
d="M123 909v181q0 83 51.5 131.5t116.5 48.5q31 0 55 -6.5t57 -30.5v16q0 13 19 17h51q12 -4 12 -17v-499q0 -13 -12 -17h-51q-19 4 -19 17v16q-33 -24 -57 -30.5t-55 -6.5q-65 0 -116.5 48.5t-51.5 131.5zM205 1092v-185q0 -36 18.5 -59.5t38.5 -31t39 -7.5q34 0 68 22
t34 70v197q0 48 -34 70t-68 22q-19 0 -39 -7.5t-38.5 -31t-18.5 -59.5z" />
    <glyph glyph-name="guillemotleft" unicode="&#xab;" horiz-adv-x="956" 
d="M123 379q0 56 22 98l121 260q0 2 8 10.5t13 8.5h67q10 0 15.5 -6t5.5 -13l-119 -252q-27 -56 -27 -106q0 -51 27 -107l119 -252q0 -7 -5.5 -12.5t-15.5 -5.5h-67q-5 0 -13 8t-8 10l-121 259q-22 42 -22 100zM582 379q0 56 22 98l121 260q0 2 7.5 10.5t12.5 8.5h68
q10 0 15.5 -6t5.5 -13l-119 -252q-27 -56 -27 -106q0 -51 27 -107l119 -252q0 -7 -5.5 -12.5t-15.5 -5.5h-68q-5 0 -12.5 8t-7.5 10l-121 259q-22 42 -22 100z" />
    <glyph glyph-name="logicalnot" unicode="&#xac;" horiz-adv-x="761" 
d="M639 428v-293q0 -7 -5.5 -12.5t-15.5 -5.5h-67q-8 0 -13.5 5.5t-5.5 12.5v213h-393q-16 0 -16 19v63q0 16 16 16h479q10 0 15.5 -5.5t5.5 -12.5z" />
    <glyph glyph-name="uni00AD" unicode="&#xad;" horiz-adv-x="378" 
 />
    <glyph glyph-name="registered" unicode="&#xae;" horiz-adv-x="1533" 
d="M764 1280q133 0 252.5 -51t206 -137.5t137.5 -206t51 -252.5q0 -174 -86 -322t-235 -234.5t-326 -86.5q-173 0 -321 86.5t-234 234.5t-86 322q0 177 86.5 326t234 235t320.5 86zM764 74q151 0 283.5 77.5t210 206.5t77.5 275q0 114 -46 219.5t-123 182.5t-182.5 123
t-219.5 46q-146 0 -275 -77.5t-206.5 -210t-77.5 -283.5q0 -109 46 -212t122 -179t179 -122t212 -46zM686 883v-351h131q38 0 70.5 42.5t32.5 99.5v67q0 58 -32.5 100t-70.5 42h-131zM604 967h187q100 0 165.5 -68t65.5 -186v-31q0 -61 -29 -115t-78 -90l43 -155
q0 -7 -5 -13t-13 -6h-63q-16 0 -21 19l-31 129h-139v-129q0 -7 -5 -13t-13 -6h-64q-10 0 -15 6t-5 13v626q0 7 5 13t15 6z" />
    <glyph glyph-name="macron" unicode="&#xaf;" horiz-adv-x="669" 
d="M141 1266h387q7 0 13 -5.5t6 -15.5v-67q0 -8 -6 -13.5t-13 -5.5h-387q-7 0 -12.5 5.5t-5.5 13.5v67q0 10 5.5 15.5t12.5 5.5z" />
    <glyph glyph-name="degree" unicode="&#xb0;" horiz-adv-x="598" 
d="M123 1075q0 99 46.5 152t129.5 53t129.5 -53t46.5 -152t-46.5 -152t-129.5 -53t-129.5 53t-46.5 152zM385 1075q0 60 -26.5 90.5t-59.5 30.5t-59.5 -30.5t-26.5 -90.5t26.5 -90.5t59.5 -30.5t59.5 30.5t26.5 90.5z" />
    <glyph glyph-name="plusminus" unicode="&#xb1;" horiz-adv-x="733" 
d="M592 571q7 0 12.5 -5t5.5 -15v-68q0 -8 -5.5 -13t-12.5 -5h-172v-205q0 -7 -5.5 -12.5t-13.5 -5.5h-67q-10 0 -15.5 5.5t-5.5 12.5v205h-172q-7 0 -12.5 5t-5.5 13v68q0 10 5.5 15t12.5 5h172v207q0 7 5.5 13t15.5 6h67q8 0 13.5 -6t5.5 -13v-207h172zM141 106h451
q7 0 12.5 -5t5.5 -15v-68q0 -8 -5.5 -13t-12.5 -5h-451q-7 0 -12.5 5t-5.5 13v68q0 10 5.5 15t12.5 5z" />
    <glyph glyph-name="twosuperior" unicode="&#xb2;" horiz-adv-x="595" 
d="M473 672v-45q0 -13 -14 -17h-318q-14 4 -14 17v67q0 39 14 75t37 63.5t50.5 53.5t55 50t50.5 48t37 51.5t14 56.5v22q0 45 -28.5 63.5t-59.5 18.5t-57.5 -22.5t-26.5 -79.5q0 -14 -14 -17h-62q-14 3 -14 17q0 90 51 138t127 48q72 0 122 -45t50 -113v-35q0 -45 -26 -87
t-64 -75.5t-76 -68t-65 -78t-29 -90.5h246q14 -4 14 -16z" />
    <glyph glyph-name="threesuperior" unicode="&#xb3;" horiz-adv-x="598" 
d="M291 889h-27q-4 0 -8 3.5t-4 6.5v59q0 11 12 11h27q34 0 64 21.5t30 62.5v47q0 44 -28.5 63t-59.5 19q-30 0 -57 -23.5t-27 -79.5q0 -13 -14 -16h-62q-14 3 -14 16q0 92 51 139.5t127 47.5q72 0 123 -45.5t51 -114.5v-64q0 -64 -72 -112q72 -54 72 -121v-55
q0 -69 -51 -114.5t-123 -45.5q-76 0 -127 47t-51 139q0 14 14 17h62q14 -3 14 -17q0 -56 27 -79t57 -23q31 0 59.5 19t28.5 63v51q0 78 -94 78z" />
    <glyph glyph-name="acute" unicode="&#xb4;" horiz-adv-x="559" 
d="M129 1126l219 136q8 4 12 4q13 0 19 -6l53 -62q4 -4 4 -12q0 -14 -6 -17l-231 -116q-8 -4 -19 -4q-10 0 -14 4l-39 45q-4 4 -4 12q0 10 6 16z" />
    <glyph glyph-name="mu" unicode="&#xb5;" horiz-adv-x="892" 
d="M123 -301v1225q0 7 5 12.5t15 5.5h68q8 0 13 -5.5t5 -12.5v-600q0 -66 18 -114t49 -73.5t66.5 -37t77.5 -11.5q101 0 162.5 58.5t61.5 158.5v619q0 7 5 12.5t15 5.5h68q8 0 13 -5.5t5 -12.5v-906q0 -7 -5 -12.5t-13 -5.5h-68q-10 0 -15 5.5t-5 12.5v64q-73 -92 -244 -92
q-118 0 -191 59v-350q0 -7 -5 -12.5t-13 -5.5h-68q-10 0 -15 5.5t-5 12.5z" />
    <glyph glyph-name="paragraph" unicode="&#xb6;" horiz-adv-x="1097" 
d="M422 1266h534q8 0 13.5 -6t5.5 -13v-1229q0 -7 -5.5 -12.5t-13.5 -5.5h-67q-10 0 -15.5 5.5t-5.5 12.5v1149h-288v-1149q0 -7 -5.5 -12.5t-13.5 -5.5h-67q-10 0 -15.5 5.5t-5.5 12.5v572q-138 0 -244 72.5t-106 179.5v176q0 107 89.5 177.5t209.5 70.5z" />
    <glyph glyph-name="periodcentered" unicode="&#xb7;" horiz-adv-x="376" 
d="M123 430q0 29 17.5 48.5t45.5 19.5q29 0 48.5 -19.5t19.5 -48.5q0 -28 -19.5 -45.5t-48.5 -17.5q-28 0 -45.5 17.5t-17.5 45.5z" />
    <glyph glyph-name="cedilla" unicode="&#xb8;" horiz-adv-x="409" 
d="M287 -20l-58 -267q-3 -13 -16 -16h-76q-14 5 -14 16l78 267q3 13 18 16h51q7 -1 12 -6t5 -10z" />
    <glyph glyph-name="onesuperior" unicode="&#xb9;" horiz-adv-x="481" 
d="M268 1167l-123 -59q-2 -2 -10 -2q-7 0 -12 10v64q6 17 12 20l119 60q12 6 20 6h70q14 -4 14 -15v-643q0 -12 -14 -16h-61q-15 4 -15 16v559z" />
    <glyph glyph-name="ordmasculine" unicode="&#xba;" horiz-adv-x="598" 
d="M123 1075q0 99 46.5 152t129.5 53t129.5 -53t46.5 -152t-46.5 -152t-129.5 -53t-129.5 53t-46.5 152zM385 1075q0 60 -26.5 90.5t-59.5 30.5t-59.5 -30.5t-26.5 -90.5t26.5 -90.5t59.5 -30.5t59.5 30.5t26.5 90.5z" />
    <glyph glyph-name="guillemotright" unicode="&#xbb;" horiz-adv-x="956" 
d="M834 379q0 -56 -23 -100l-121 -259q0 -2 -7.5 -10t-12.5 -8h-68q-10 0 -15 5.5t-5 12.5l118 252q27 56 27 107q0 50 -27 106l-118 252q0 7 5 13t15 6h68q5 0 12.5 -8.5t7.5 -10.5l121 -260q23 -44 23 -98zM375 379q0 -56 -23 -100l-121 -259q0 -2 -7.5 -10t-12.5 -8h-68
q-10 0 -15 5.5t-5 12.5l119 252q26 54 26 107q0 52 -26 106l-119 252q0 7 5 13t15 6h68q5 0 12.5 -8.5t7.5 -10.5l121 -260q23 -44 23 -98z" />
    <glyph glyph-name="onequarter" unicode="&#xbc;" horiz-adv-x="1296" 
d="M268 1167l-123 -59q-2 -2 -10 -2q-7 0 -12 10v64q6 17 12 20l119 60q12 6 20 6h70q14 -4 14 -15v-643q0 -12 -14 -16h-61q-15 4 -15 16v559zM272 18l578 1229q10 19 22 19h70q10 0 15.5 -6t5.5 -13l-578 -1229q-9 -18 -23 -18h-69q-10 0 -15.5 5.5t-5.5 12.5zM985 240
v290v78l-184 -368h184zM1075 240h86q13 0 13 -11v-59q0 -3 -4.5 -6.5t-8.5 -3.5h-86v-144q0 -12 -14 -16h-62q-14 4 -14 16v144h-252q-14 4 -14 16v78q0 2 4 14l188 389q7 15 17 17h133q14 -4 14 -17v-417z" />
    <glyph glyph-name="onehalf" unicode="&#xbd;" horiz-adv-x="1247" 
d="M268 1167l-123 -59q-2 -2 -10 -2q-7 0 -12 10v64q6 17 12 20l119 60q12 6 20 6h70q14 -4 14 -15v-643q0 -12 -14 -16h-61q-15 4 -15 16v559zM272 18l578 1229q10 19 22 19h70q10 0 15.5 -6t5.5 -13l-578 -1229q-9 -18 -23 -18h-69q-10 0 -15.5 5.5t-5.5 12.5zM1124 61
v-45q0 -12 -14 -16h-317q-15 4 -15 16v68q0 53 26.5 100.5t64.5 82.5t76 67.5t64.5 70t26.5 76.5v23q0 45 -28.5 63.5t-59.5 18.5t-57.5 -23t-26.5 -80q0 -13 -14 -16h-62q-14 3 -14 16q0 90 51 138.5t127 48.5q72 0 122 -45t50 -113v-35q0 -45 -26 -87t-64 -75.5t-76 -68
t-65 -78t-29 -90.5h246q14 -4 14 -17z" />
    <glyph glyph-name="threequarters" unicode="&#xbe;" horiz-adv-x="1349" 
d="M326 18l577 1229q9 19 23 19h69q10 0 15.5 -6t5.5 -13l-578 -1229q-9 -18 -22 -18h-70q-10 0 -15 5.5t-5 12.5zM1038 240v290v78l-184 -368h184zM1128 240h86q13 0 13 -11v-59q0 -3 -4.5 -6.5t-8.5 -3.5h-86v-144q0 -12 -14 -16h-61q-15 4 -15 16v144h-252q-14 4 -14 16
v78q0 2 4 14l189 389q7 15 16 17h133q14 -4 14 -17v-417zM291 889h-27q-4 0 -8 3.5t-4 6.5v59q0 11 12 11h27q34 0 64 21.5t30 62.5v47q0 44 -28.5 63t-59.5 19q-30 0 -57 -23.5t-27 -79.5q0 -13 -14 -16h-62q-14 3 -14 16q0 92 51 139.5t127 47.5q72 0 123 -45.5t51 -114.5
v-64q0 -64 -72 -112q72 -54 72 -121v-55q0 -69 -51 -114.5t-123 -45.5q-76 0 -127 47t-51 139q0 14 14 17h62q14 -3 14 -17q0 -56 27 -79t57 -23q31 0 59.5 19t28.5 63v51q0 78 -94 78z" />
    <glyph glyph-name="questiondown" unicode="&#xbf;" horiz-adv-x="864" 
d="M414 905v33q0 7 5 12.5t13 5.5h68q10 0 15 -5.5t5 -12.5v-72q0 -43 -16 -85t-41.5 -77.5t-56.5 -71t-62.5 -71.5t-57 -73.5t-41.5 -83t-16 -93.5q0 -93 57.5 -153t149.5 -60q82 0 138 48t61 122q0 7 5 13t13 6h68q10 0 15 -6t5 -13q-4 -120 -92 -194t-213 -74
q-133 0 -223 86.5t-90 214.5v29q0 66 30 128t72.5 112t85.5 99.5t73 110.5t30 125zM520 1100v162q0 7 -5 12.5t-15 5.5h-68q-8 0 -13 -5.5t-5 -12.5v-162q0 -7 5 -13t13 -6h68q10 0 15 6t5 13z" />
    <glyph glyph-name="Agrave" unicode="&#xc0;" horiz-adv-x="901" 
d="M385 1266h131q18 0 23 -19l301 -1229q0 -7 -5.5 -12.5t-15.5 -5.5h-67q-16 0 -21 18l-55 224h-453l-53 -224q-4 -18 -20 -18h-68q-10 0 -15.5 5.5t-5.5 12.5l301 1229q5 19 23 19zM451 1167l-203 -827h403zM383 1554l219 -135q6 -6 6 -16q0 -8 -4 -12l-39 -45
q-5 -5 -14 -5t-19 5l-231 116q-6 3 -6 17q0 8 4 12l53 61q7 7 19 7q2 0 12 -5z" />
    <glyph glyph-name="Aacute" unicode="&#xc1;" horiz-adv-x="901" 
d="M385 1266h131q18 0 23 -19l301 -1229q0 -7 -5.5 -12.5t-15.5 -5.5h-67q-16 0 -21 18l-55 224h-453l-53 -224q-4 -18 -20 -18h-68q-10 0 -15.5 5.5t-5.5 12.5l301 1229q5 19 23 19zM451 1167l-203 -827h403zM301 1419l219 135q10 5 12 5q12 0 19 -7l53 -61q4 -4 4 -12
q0 -14 -6 -17l-231 -116q-10 -5 -19 -5t-14 5l-39 45q-4 4 -4 12q0 10 6 16z" />
    <glyph glyph-name="Acircumflex" unicode="&#xc2;" horiz-adv-x="901" 
d="M385 1266h131q18 0 23 -19l301 -1229q0 -7 -5.5 -12.5t-15.5 -5.5h-67q-16 0 -21 18l-55 224h-453l-53 -224q-4 -18 -20 -18h-68q-10 0 -15.5 5.5t-5.5 12.5l301 1229q5 19 23 19zM451 1167l-203 -827h403zM395 1610h111q13 0 20 -21l84 -229q0 -8 -5.5 -13.5t-14.5 -5.5
h-60q-12 0 -20 19l-59 162l-60 -162q-8 -19 -20 -19h-60q-9 0 -14.5 5.5t-5.5 13.5l84 229q7 21 20 21z" />
    <glyph glyph-name="Atilde" unicode="&#xc3;" horiz-adv-x="901" 
d="M385 1266h131q18 0 23 -19l301 -1229q0 -7 -5.5 -12.5t-15.5 -5.5h-67q-16 0 -21 18l-55 224h-453l-53 -224q-4 -18 -20 -18h-68q-10 0 -15.5 5.5t-5.5 12.5l301 1229q5 19 23 19zM451 1167l-203 -827h403zM539 1341q-43 0 -95 23q-32 16 -61 16q-15 0 -39 -12t-29 -12
q-6 0 -14 8l-35 43q-4 8 -4 12q0 8 6 17q19 21 46.5 36t47.5 15q18 0 66 -19q46 -20 90 -20q15 0 39 12.5t29 12.5t14 -9l35 -43q4 -8 4 -12q0 -7 -6 -16q-19 -21 -46.5 -36.5t-47.5 -15.5z" />
    <glyph glyph-name="Adieresis" unicode="&#xc4;" horiz-adv-x="901" 
d="M385 1266h131q18 0 23 -19l301 -1229q0 -7 -5.5 -12.5t-15.5 -5.5h-67q-16 0 -21 18l-55 224h-453l-53 -224q-4 -18 -20 -18h-68q-10 0 -15.5 5.5t-5.5 12.5l301 1229q5 19 23 19zM451 1167l-203 -827h403zM301 1399q0 26 16 43.5t41 17.5q26 0 44 -17.5t18 -43.5
q0 -25 -18 -41.5t-44 -16.5q-25 0 -41 16.5t-16 41.5zM481 1399q0 26 16.5 43.5t41.5 17.5q26 0 43.5 -17.5t17.5 -43.5q0 -25 -17.5 -41.5t-43.5 -16.5q-25 0 -41.5 16.5t-16.5 41.5z" />
    <glyph glyph-name="Aring" unicode="&#xc5;" horiz-adv-x="901" 
d="M385 1266h131q18 0 23 -19l301 -1229q0 -7 -5.5 -12.5t-15.5 -5.5h-67q-16 0 -21 18l-55 224h-453l-53 -224q-4 -18 -20 -18h-68q-10 0 -15.5 5.5t-5.5 12.5l301 1229q5 19 23 19zM451 1167l-203 -827h403zM274 1546q0 99 47 152t130 53t129.5 -53t46.5 -152t-46.5 -152
t-129.5 -53t-130 53t-47 152zM537 1546q0 60 -26.5 90.5t-59.5 30.5t-59.5 -30.5t-26.5 -90.5t26.5 -90.5t59.5 -30.5t59.5 30.5t26.5 90.5z" />
    <glyph glyph-name="AE" unicode="&#xc6;" horiz-adv-x="1286" 
d="M1167 1167h-393v-526h281q16 0 16 -18v-64q0 -16 -16 -16h-281v-445h393q17 0 17 -18v-64q0 -7 -5.5 -11.5t-11.5 -4.5h-479q-10 0 -15 5.5t-5 12.5v261h-412l-119 -261q-9 -18 -22 -18h-66q-10 0 -15 5.5t-5 12.5l561 1229q10 19 24 19h553q7 0 12 -5t5 -14v-63
q0 -7 -5.5 -12t-11.5 -5zM668 377v797l-367 -797h367z" />
    <glyph glyph-name="Ccedilla" unicode="&#xc7;" horiz-adv-x="854" 
d="M774 301q8 0 13.5 -5.5t5.5 -12.5q-8 -119 -90 -200t-211 -91l-52 -236q-3 -13 -16 -16h-76q-14 5 -14 16l69 238q-128 17 -209 103t-81 206v664q0 134 98 223.5t248 89.5q142 0 233.5 -83t100.5 -210q0 -7 -5.5 -12.5t-13.5 -5.5h-67q-10 0 -15.5 5.5t-5.5 12.5
q-16 97 -79 146t-148 49q-46 0 -88 -14t-76.5 -42.5t-55 -77.5t-20.5 -112v-602q0 -63 20.5 -112t55 -77.5t76.5 -42.5t88 -14q85 0 148 49t79 146q0 7 5.5 12.5t15.5 5.5h67z" />
    <glyph glyph-name="Egrave" unicode="&#xc8;" horiz-adv-x="741" 
d="M143 1266h480q16 0 16 -19v-63q0 -7 -5 -12t-11 -5h-394v-526h281q16 0 16 -18v-64q0 -16 -16 -16h-281v-445h394q16 0 16 -18v-64q0 -16 -16 -16h-480q-10 0 -15 5.5t-5 12.5v1229q0 7 5 13t15 6zM319 1554l220 -135q6 -6 6 -16q0 -8 -4 -12l-39 -45q-5 -5 -15 -5
q-8 0 -18 5l-231 116q-7 4 -7 17q0 7 5 12l53 61q7 7 18 7q2 0 12 -5z" />
    <glyph glyph-name="Eacute" unicode="&#xc9;" horiz-adv-x="741" 
d="M143 1266h480q16 0 16 -19v-63q0 -7 -5 -12t-11 -5h-394v-526h281q16 0 16 -18v-64q0 -16 -16 -16h-281v-445h394q16 0 16 -18v-64q0 -16 -16 -16h-480q-10 0 -15 5.5t-5 12.5v1229q0 7 5 13t15 6zM238 1419l219 135q10 5 12 5q11 0 18 -7l54 -61q4 -4 4 -12
q0 -14 -6 -17l-232 -116q-10 -5 -18 -5q-10 0 -15 5l-38 45q-5 5 -5 12q0 9 7 16z" />
    <glyph glyph-name="Ecircumflex" unicode="&#xca;" horiz-adv-x="741" 
d="M143 1266h480q16 0 16 -19v-63q0 -7 -5 -12t-11 -5h-394v-526h281q16 0 16 -18v-64q0 -16 -16 -16h-281v-445h394q16 0 16 -18v-64q0 -16 -16 -16h-480q-10 0 -15 5.5t-5 12.5v1229q0 7 5 13t15 6zM326 1610h110q14 0 21 -21l84 -229q0 -8 -6 -13.5t-15 -5.5h-59
q-13 0 -21 19l-59 162l-59 -162q-8 -19 -21 -19h-59q-9 0 -15 5.5t-6 13.5l84 229q7 21 21 21z" />
    <glyph glyph-name="Edieresis" unicode="&#xcb;" horiz-adv-x="741" 
d="M143 1266h480q16 0 16 -19v-63q0 -7 -5 -12t-11 -5h-394v-526h281q16 0 16 -18v-64q0 -16 -16 -16h-281v-445h394q16 0 16 -18v-64q0 -16 -16 -16h-480q-10 0 -15 5.5t-5 12.5v1229q0 7 5 13t15 6zM236 1399q0 26 16 43.5t41 17.5q26 0 43.5 -17.5t17.5 -43.5
q0 -25 -17.5 -41.5t-43.5 -16.5q-25 0 -41 16.5t-16 41.5zM416 1399q0 26 16 43.5t41 17.5q26 0 44 -17.5t18 -43.5q0 -25 -18 -41.5t-44 -16.5q-25 0 -41 16.5t-16 41.5z" />
    <glyph glyph-name="Igrave" unicode="&#xcc;" horiz-adv-x="352" 
d="M123 18v1229q0 7 5 13t15 6h68q8 0 13 -6t5 -13v-1229q0 -7 -5 -12.5t-13 -5.5h-68q-10 0 -15 5.5t-5 12.5zM106 1554l220 -135q6 -6 6 -16q0 -8 -4 -12l-39 -45q-5 -5 -15 -5q-8 0 -18 5l-231 116q-7 4 -7 17q0 7 5 12l53 61q7 7 18 7q2 0 12 -5z" />
    <glyph glyph-name="Iacute" unicode="&#xcd;" horiz-adv-x="352" 
d="M229 1247v-1229q0 -7 -5 -12.5t-15 -5.5h-68q-8 0 -13 5.5t-5 12.5v1229q0 7 5 13t13 6h68q10 0 15 -6t5 -13zM27 1419l219 135q10 5 12 5q11 0 18 -7l54 -61q4 -4 4 -12q0 -14 -6 -17l-232 -116q-10 -5 -18 -5q-10 0 -15 5l-38 45q-5 5 -5 12q0 9 7 16z" />
    <glyph glyph-name="Icircumflex" unicode="&#xce;" horiz-adv-x="352" 
d="M229 1247v-1229q0 -7 -5 -12.5t-15 -5.5h-68q-8 0 -13 5.5t-5 12.5v1229q0 7 5 13t13 6h68q10 0 15 -6t5 -13zM121 1610h110q14 0 21 -21l84 -229q0 -8 -6 -13.5t-15 -5.5h-59q-12 0 -20 19l-60 162l-59 -162q-8 -19 -21 -19h-59q-9 0 -15 5.5t-6 13.5l84 229q7 21 21 21
z" />
    <glyph glyph-name="Idieresis" unicode="&#xcf;" horiz-adv-x="352" 
d="M229 1247v-1229q0 -7 -5 -12.5t-15 -5.5h-68q-8 0 -13 5.5t-5 12.5v1229q0 7 5 13t13 6h68q10 0 15 -6t5 -13zM20 1399q0 26 16.5 43.5t41.5 17.5q26 0 43.5 -17.5t17.5 -43.5q0 -25 -17.5 -41.5t-43.5 -16.5q-25 0 -41.5 16.5t-16.5 41.5zM213 1399q0 26 16 43.5
t41 17.5q26 0 44 -17.5t18 -43.5q0 -25 -18 -41.5t-44 -16.5q-25 0 -41 16.5t-16 41.5z" />
    <glyph glyph-name="Eth" unicode="&#xd0;" horiz-adv-x="933" 
d="M59 664h95v583q0 7 5 13t15 6h322q151 0 243 -86t92 -260v-574q0 -174 -92 -260t-243 -86h-322q-10 0 -15 5.5t-5 12.5v539h-95q-7 0 -12.5 5t-5.5 13v68q0 10 5.5 15.5t12.5 5.5zM725 342v582q0 121 -69 182t-164 61h-232v-503h141q7 0 13 -5.5t6 -15.5v-68q0 -8 -6 -13
t-13 -5h-141v-459h232q95 0 164 61.5t69 182.5z" />
    <glyph glyph-name="Ntilde" unicode="&#xd1;" horiz-adv-x="921" 
d="M688 14l-459 961v-957q0 -7 -5 -12.5t-13 -5.5h-68q-10 0 -15 5.5t-5 12.5v1229q0 7 5 13t15 6h64q12 0 22 -15l463 -970v966q0 7 5.5 13t13.5 6h67q10 0 15.5 -6t5.5 -13v-1229q0 -7 -5.5 -12.5t-15.5 -5.5h-67q-14 0 -23 14zM543 1341q20 0 47.5 15.5t46.5 36.5
q6 9 6 16q0 4 -4 12l-35 43q-9 9 -14 9t-29 -12.5t-39 -12.5q-44 0 -90 20q-48 19 -65 19q-20 0 -48 -15t-47 -36q-6 -9 -6 -17q0 -4 4 -12l35 -43q8 -8 14 -8q5 0 29 12t39 12q30 0 62 -16q52 -23 94 -23z" />
    <glyph glyph-name="Ograve" unicode="&#xd2;" horiz-adv-x="917" 
d="M459 1280q150 0 248 -89.5t98 -223.5v-664q0 -134 -98 -223.5t-248 -89.5t-248 89.5t-98 223.5v664q0 134 98 223.5t248 89.5zM459 88q99 0 169 62t70 184v602q0 123 -70 184.5t-169 61.5q-46 0 -88 -14t-76.5 -42.5t-55 -77.5t-20.5 -112v-602q0 -122 70.5 -184
t169.5 -62zM391 1554l219 -135q6 -6 6 -16q0 -8 -4 -12l-39 -45q-5 -5 -14 -5q-8 0 -18 5l-232 116q-6 3 -6 17q0 8 4 12l53 61q7 7 19 7q2 0 12 -5z" />
    <glyph glyph-name="Oacute" unicode="&#xd3;" horiz-adv-x="917" 
d="M459 1280q150 0 248 -89.5t98 -223.5v-664q0 -134 -98 -223.5t-248 -89.5t-248 89.5t-98 223.5v664q0 134 98 223.5t248 89.5zM459 88q99 0 169 62t70 184v602q0 123 -70 184.5t-169 61.5q-46 0 -88 -14t-76.5 -42.5t-55 -77.5t-20.5 -112v-602q0 -122 70.5 -184
t169.5 -62zM309 1419l219 135q10 5 13 5q11 0 18 -7l53 -61q4 -4 4 -12q0 -14 -6 -17l-231 -116q-10 -5 -19 -5t-14 5l-39 45q-4 4 -4 12q0 10 6 16z" />
    <glyph glyph-name="Ocircumflex" unicode="&#xd4;" horiz-adv-x="917" 
d="M459 1280q150 0 248 -89.5t98 -223.5v-664q0 -134 -98 -223.5t-248 -89.5t-248 89.5t-98 223.5v664q0 134 98 223.5t248 89.5zM459 88q99 0 169 62t70 184v602q0 123 -70 184.5t-169 61.5q-46 0 -88 -14t-76.5 -42.5t-55 -77.5t-20.5 -112v-602q0 -122 70.5 -184
t169.5 -62zM403 1610h111q14 0 21 -21l83 -229q0 -8 -5.5 -13.5t-14.5 -5.5h-59q-13 0 -21 19l-59 162l-60 -162q-8 -19 -20 -19h-60q-9 0 -14.5 5.5t-5.5 13.5l84 229q7 21 20 21z" />
    <glyph glyph-name="Otilde" unicode="&#xd5;" horiz-adv-x="917" 
d="M459 1280q150 0 248 -89.5t98 -223.5v-664q0 -134 -98 -223.5t-248 -89.5t-248 89.5t-98 223.5v664q0 134 98 223.5t248 89.5zM459 88q99 0 169 62t70 184v602q0 123 -70 184.5t-169 61.5q-46 0 -88 -14t-76.5 -42.5t-55 -77.5t-20.5 -112v-602q0 -122 70.5 -184
t169.5 -62zM547 1341q-42 0 -94 23q-32 16 -62 16q-15 0 -38.5 -12t-28.5 -12q-7 0 -15 8l-35 43q-4 8 -4 12q0 8 6 17q19 21 47 36t48 15q17 0 65 -19q46 -20 90 -20q15 0 39 12.5t29 12.5t14 -9l35 -43q4 -8 4 -12q0 -7 -6 -16q-19 -21 -46.5 -36.5t-47.5 -15.5z" />
    <glyph glyph-name="Odieresis" unicode="&#xd6;" horiz-adv-x="917" 
d="M459 1280q150 0 248 -89.5t98 -223.5v-664q0 -134 -98 -223.5t-248 -89.5t-248 89.5t-98 223.5v664q0 134 98 223.5t248 89.5zM459 88q99 0 169 62t70 184v602q0 123 -70 184.5t-169 61.5q-46 0 -88 -14t-76.5 -42.5t-55 -77.5t-20.5 -112v-602q0 -122 70.5 -184
t169.5 -62zM307 1399q0 26 16.5 43.5t41.5 17.5q26 0 43.5 -17.5t17.5 -43.5q0 -25 -17.5 -41.5t-43.5 -16.5q-25 0 -41.5 16.5t-16.5 41.5zM487 1399q0 26 16.5 43.5t41.5 17.5q26 0 43.5 -17.5t17.5 -43.5q0 -25 -17.5 -41.5t-43.5 -16.5q-25 0 -41.5 16.5t-16.5 41.5z
" />
    <glyph glyph-name="multiply" unicode="&#xd7;" horiz-adv-x="696" 
d="M348 334l-112 -203q-9 -18 -27 -18h-66q-10 0 -15 5.5t-5 12.5l160 293l-146 276q0 7 5.5 13t15.5 6h69q13 0 23 -19l98 -186l98 186q10 19 23 19h70q10 0 15 -6t5 -13l-145 -276l159 -293q0 -7 -5 -12.5t-15 -5.5h-66q-17 0 -26 18z" />
    <glyph glyph-name="Oslash" unicode="&#xd8;" horiz-adv-x="917" 
d="M506 1280q132 -15 215.5 -101.5t83.5 -209.5v-664q0 -123 -84 -210.5t-217 -100.5l-51 -236q-3 -13 -17 -16h-76q-14 5 -14 16l70 236q-134 14 -218.5 100.5t-84.5 210.5v664q0 125 86 212t221 99l53 254q3 13 16 16h76q15 -5 15 -16zM698 336v602q0 123 -70 184.5
t-169 61.5q-46 0 -88 -14t-76.5 -42.5t-55 -77.5t-20.5 -112v-602q0 -122 70.5 -184t169.5 -62t169 62t70 184z" />
    <glyph glyph-name="Ugrave" unicode="&#xd9;" horiz-adv-x="937" 
d="M815 1247v-944q0 -134 -98 -223.5t-248 -89.5t-248 89.5t-98 223.5v944q0 7 5 13t15 6h68q8 0 13 -6t5 -13v-913q0 -122 70.5 -184t169.5 -62t169.5 62t70.5 184v913q0 7 5 13t13 6h68q10 0 15 -6t5 -13zM399 1554l219 -135q7 -7 7 -16q0 -8 -4 -12l-39 -45q-5 -5 -15 -5
q-8 0 -18 5l-232 116q-6 3 -6 17q0 8 4 12l54 61q7 7 18 7q2 0 12 -5z" />
    <glyph glyph-name="Uacute" unicode="&#xda;" horiz-adv-x="937" 
d="M815 1247v-944q0 -134 -98 -223.5t-248 -89.5t-248 89.5t-98 223.5v944q0 7 5 13t15 6h68q8 0 13 -6t5 -13v-913q0 -122 70.5 -184t169.5 -62t169.5 62t70.5 184v913q0 7 5 13t13 6h68q10 0 15 -6t5 -13zM317 1419l220 135q10 5 12 5q11 0 18 -7l54 -61q4 -4 4 -12
q0 -13 -7 -17l-231 -116q-10 -5 -18 -5q-10 0 -15 5l-39 45q-4 4 -4 12q0 10 6 16z" />
    <glyph glyph-name="Ucircumflex" unicode="&#xdb;" horiz-adv-x="937" 
d="M815 1247v-944q0 -134 -98 -223.5t-248 -89.5t-248 89.5t-98 223.5v944q0 7 5 13t15 6h68q8 0 13 -6t5 -13v-913q0 -122 70.5 -184t169.5 -62t169.5 62t70.5 184v913q0 7 5 13t13 6h68q10 0 15 -6t5 -13zM414 1610h110q14 0 21 -21l84 -229q0 -8 -6 -13.5t-15 -5.5h-59
q-13 0 -21 19l-59 162l-59 -162q-8 -19 -21 -19h-59q-9 0 -15 5.5t-6 13.5l84 229q7 21 21 21z" />
    <glyph glyph-name="Udieresis" unicode="&#xdc;" horiz-adv-x="937" 
d="M815 1247v-944q0 -134 -98 -223.5t-248 -89.5t-248 89.5t-98 223.5v944q0 7 5 13t15 6h68q8 0 13 -6t5 -13v-913q0 -122 70.5 -184t169.5 -62t169.5 62t70.5 184v913q0 7 5 13t13 6h68q10 0 15 -6t5 -13zM315 1399q0 26 16.5 43.5t41.5 17.5q26 0 43.5 -17.5t17.5 -43.5
q0 -25 -17.5 -41.5t-43.5 -16.5q-25 0 -41.5 16.5t-16.5 41.5zM496 1399q0 26 16 43.5t41 17.5q26 0 43.5 -17.5t17.5 -43.5q0 -25 -17.5 -41.5t-43.5 -16.5q-25 0 -41 16.5t-16 41.5z" />
    <glyph glyph-name="Yacute" unicode="&#xdd;" horiz-adv-x="839" 
d="M473 410v-392q0 -7 -5 -12.5t-13 -5.5h-68q-10 0 -15 5.5t-5 12.5v392l-316 837q0 7 5.5 13t15.5 6h65q19 0 23 -17l260 -698l260 698q4 17 22 17h66q10 0 15 -6t5 -13zM270 1419l219 135q10 5 13 5q11 0 18 -7l53 -61q5 -5 5 -12q0 -13 -7 -17l-231 -116q-10 -5 -18 -5
q-10 0 -15 5l-39 45q-4 4 -4 12q0 10 6 16z" />
    <glyph glyph-name="Thorn" unicode="&#xde;" horiz-adv-x="878" 
d="M229 989v-713h217q44 0 83.5 14t74.5 44t55.5 84.5t20.5 128.5v172q0 74 -20.5 128.5t-55.5 84t-74.5 43.5t-83.5 14h-217zM229 1087h228q137 0 233 -94t96 -266v-188q0 -172 -96 -266.5t-233 -94.5h-228v-160q0 -7 -5 -12.5t-13 -5.5h-68q-10 0 -15 5.5t-5 12.5v1229
q0 7 5 13t15 6h68q8 0 13 -6t5 -13v-160z" />
    <glyph glyph-name="germandbls" unicode="&#xdf;" horiz-adv-x="972" 
d="M520 584h-67q-6 0 -11.5 4.5t-5.5 11.5v64q0 18 17 18h30q38 0 71 6t66 21.5t56.5 41t38 67.5t14.5 97v25q0 67 -21 113.5t-58.5 70t-78 33.5t-88.5 10h-45q-93 0 -156 -71t-63 -203v-875q0 -7 -5 -12.5t-13 -5.5h-68q-10 0 -15 5.5t-5 12.5v877q0 161 88 266t237 105h45
q146 0 249.5 -86t103.5 -236v-39q0 -32 -7 -66t-23 -73.5t-49 -75t-79 -57.5q54 -12 93.5 -43t60 -72t29.5 -81.5t9 -82.5v-16q0 -100 -51.5 -179t-130.5 -119t-168 -40h-59q-6 0 -11.5 4.5t-5.5 11.5v64q0 18 17 18h59q45 0 86 14t77 42t57.5 77.5t21.5 114.5
q0 67 -21.5 116t-58 74t-76.5 36.5t-86 11.5z" />
    <glyph glyph-name="agrave" unicode="&#xe0;" 
d="M760 924v-906q0 -7 -5.5 -12.5t-13.5 -5.5h-67q-10 0 -15.5 5.5t-5.5 12.5v64q-73 -92 -243 -92q-48 0 -90 10.5t-81 35.5t-66 63.5t-43.5 97t-16.5 133.5v282q0 75 16.5 133.5t43.5 97t66 63.5t81 35.5t90 10.5q170 0 243 -92v64q0 7 5.5 12.5t15.5 5.5h67
q8 0 13.5 -5.5t5.5 -12.5zM653 305v332q0 100 -61 158.5t-162 58.5q-43 0 -78.5 -12t-66.5 -39t-48.5 -77.5t-17.5 -121.5v-266q0 -71 17.5 -121.5t48.5 -77.5t66.5 -39t78.5 -12q101 0 162 58.5t61 158.5zM369 1241l219 -135q6 -6 6 -16q0 -9 -4 -13l-39 -45q-4 -4 -14 -4
q-11 0 -19 4l-231 117q-6 3 -6 16q0 9 4 13l53 61q6 6 18 6q5 0 13 -4z" />
    <glyph glyph-name="aacute" unicode="&#xe1;" 
d="M760 924v-906q0 -7 -5.5 -12.5t-13.5 -5.5h-67q-10 0 -15.5 5.5t-5.5 12.5v64q-73 -92 -243 -92q-48 0 -90 10.5t-81 35.5t-66 63.5t-43.5 97t-16.5 133.5v282q0 75 16.5 133.5t43.5 97t66 63.5t81 35.5t90 10.5q170 0 243 -92v64q0 7 5.5 12.5t15.5 5.5h67
q8 0 13.5 -5.5t5.5 -12.5zM653 305v332q0 100 -61 158.5t-162 58.5q-43 0 -78.5 -12t-66.5 -39t-48.5 -77.5t-17.5 -121.5v-266q0 -71 17.5 -121.5t48.5 -77.5t66.5 -39t78.5 -12q101 0 162 58.5t61 158.5zM287 1106l219 135q8 4 12 4q13 0 19 -6l53 -61q4 -4 4 -13
q0 -13 -6 -16l-232 -117q-8 -4 -18 -4t-14 4l-39 45q-4 4 -4 13q0 10 6 16z" />
    <glyph glyph-name="acircumflex" unicode="&#xe2;" 
d="M760 924v-906q0 -7 -5.5 -12.5t-13.5 -5.5h-67q-10 0 -15.5 5.5t-5.5 12.5v64q-73 -92 -243 -92q-48 0 -90 10.5t-81 35.5t-66 63.5t-43.5 97t-16.5 133.5v282q0 75 16.5 133.5t43.5 97t66 63.5t81 35.5t90 10.5q170 0 243 -92v64q0 7 5.5 12.5t15.5 5.5h67
q8 0 13.5 -5.5t5.5 -12.5zM653 305v332q0 100 -61 158.5t-162 58.5q-43 0 -78.5 -12t-66.5 -39t-48.5 -77.5t-17.5 -121.5v-266q0 -71 17.5 -121.5t48.5 -77.5t66.5 -39t78.5 -12q101 0 162 58.5t61 158.5zM387 1296h111q13 0 20 -20l84 -229q0 -8 -5.5 -13.5t-14.5 -5.5
h-60q-12 0 -20 19l-60 161l-59 -161q-8 -19 -21 -19h-59q-9 0 -14.5 5.5t-5.5 13.5l84 229q7 20 20 20z" />
    <glyph glyph-name="atilde" unicode="&#xe3;" 
d="M760 924v-906q0 -7 -5.5 -12.5t-13.5 -5.5h-67q-10 0 -15.5 5.5t-5.5 12.5v64q-73 -92 -243 -92q-48 0 -90 10.5t-81 35.5t-66 63.5t-43.5 97t-16.5 133.5v282q0 75 16.5 133.5t43.5 97t66 63.5t81 35.5t90 10.5q170 0 243 -92v64q0 7 5.5 12.5t15.5 5.5h67
q8 0 13.5 -5.5t5.5 -12.5zM653 305v332q0 100 -61 158.5t-162 58.5q-43 0 -78.5 -12t-66.5 -39t-48.5 -77.5t-17.5 -121.5v-266q0 -71 17.5 -121.5t48.5 -77.5t66.5 -39t78.5 -12q101 0 162 58.5t61 158.5zM522 1028q-42 0 -94 23q-32 16 -61 16q-15 0 -39 -12.5t-29 -12.5
t-14 9l-35 43q-4 8 -4 12q0 7 6 16q19 21 46.5 36.5t47.5 15.5q18 0 66 -19q46 -20 90 -20q15 0 38.5 12t28.5 12q7 0 15 -8l34 -43q5 -10 5 -12q0 -6 -7 -17q-19 -21 -46.5 -36t-47.5 -15z" />
    <glyph glyph-name="adieresis" unicode="&#xe4;" 
d="M760 924v-906q0 -7 -5.5 -12.5t-13.5 -5.5h-67q-10 0 -15.5 5.5t-5.5 12.5v64q-73 -92 -243 -92q-48 0 -90 10.5t-81 35.5t-66 63.5t-43.5 97t-16.5 133.5v282q0 75 16.5 133.5t43.5 97t66 63.5t81 35.5t90 10.5q170 0 243 -92v64q0 7 5.5 12.5t15.5 5.5h67
q8 0 13.5 -5.5t5.5 -12.5zM653 305v332q0 100 -61 158.5t-162 58.5q-43 0 -78.5 -12t-66.5 -39t-48.5 -77.5t-17.5 -121.5v-266q0 -71 17.5 -121.5t48.5 -77.5t66.5 -39t78.5 -12q101 0 162 58.5t61 158.5zM272 1085q0 26 16.5 44t41.5 18q26 0 43.5 -18t17.5 -44
q0 -25 -17.5 -41t-43.5 -16q-25 0 -41.5 16t-16.5 41zM453 1085q0 26 16 44t41 18q26 0 43.5 -18t17.5 -44q0 -25 -17.5 -41t-43.5 -16q-25 0 -41 16t-16 41z" />
    <glyph glyph-name="aring" unicode="&#xe5;" 
d="M760 924v-906q0 -7 -5.5 -12.5t-13.5 -5.5h-67q-10 0 -15.5 5.5t-5.5 12.5v64q-73 -92 -243 -92q-48 0 -90 10.5t-81 35.5t-66 63.5t-43.5 97t-16.5 133.5v282q0 75 16.5 133.5t43.5 97t66 63.5t81 35.5t90 10.5q170 0 243 -92v64q0 7 5.5 12.5t15.5 5.5h67
q8 0 13.5 -5.5t5.5 -12.5zM653 305v332q0 100 -61 158.5t-162 58.5q-43 0 -78.5 -12t-66.5 -39t-48.5 -77.5t-17.5 -121.5v-266q0 -71 17.5 -121.5t48.5 -77.5t66.5 -39t78.5 -12q101 0 162 58.5t61 158.5zM281 1233q0 99 46.5 152t129.5 53t129.5 -53t46.5 -152t-46.5 -152
t-129.5 -53t-129.5 53t-46.5 152zM543 1233q0 60 -26.5 90.5t-59.5 30.5t-59.5 -30.5t-26.5 -90.5t26.5 -90.5t59.5 -30.5t59.5 30.5t26.5 90.5z" />
    <glyph glyph-name="ae" unicode="&#xe6;" horiz-adv-x="1368" 
d="M938 952q143 0 230 -81t87 -226v-190q0 -7 -5 -13t-13 -6h-510v-133q0 -94 57.5 -154.5t151.5 -60.5q77 0 126.5 35t74.5 88q1 1 2 4t2 4.5t2.5 3.5t3 3t4.5 2t6 1h60q8 0 13 -5.5t5 -12.5q0 -28 -19 -64.5t-53.5 -72t-94.5 -60t-132 -24.5q-188 0 -270 137
q-112 -137 -285 -137q-128 0 -213.5 71.5t-85.5 190.5v45q0 48 16.5 94t50.5 88t96 68t142 26q141 0 234 -81v147q0 95 -52 155t-145 60q-83 0 -137.5 -43.5t-63.5 -116.5q0 -7 -5 -12.5t-15 -5.5h-68q-8 0 -13 5.5t-5 12.5q11 114 91 186t216 72q175 0 252 -121
q88 121 262 121zM621 264v17q0 91 -58.5 142.5t-154.5 51.5q-94 0 -157 -48.5t-63 -145.5v-17q0 -75 57.5 -125.5t143.5 -50.5q89 0 160.5 59t71.5 117zM1149 532v109q0 94 -58 153.5t-155 59.5q-93 0 -151 -60t-58 -153v-109h422z" />
    <glyph glyph-name="ccedilla" unicode="&#xe7;" horiz-adv-x="837" 
d="M727 274q8 0 13 -5.5t5 -12.5q-11 -106 -85.5 -180t-196.5 -84l-51 -236q-3 -13 -17 -16h-76q-14 5 -14 16l70 238q-126 17 -194 101t-68 204v344q0 134 82 221.5t233 87.5q136 0 221 -76t96 -190q0 -7 -5 -12.5t-13 -5.5h-68q-10 0 -15 5.5t-5 12.5q-9 73 -68.5 120.5
t-142.5 47.5q-94 0 -151.5 -60.5t-57.5 -154.5v-336q0 -94 57.5 -154.5t151.5 -60.5q83 0 142.5 47.5t68.5 120.5q0 7 5 12.5t15 5.5h68z" />
    <glyph glyph-name="egrave" unicode="&#xe8;" horiz-adv-x="860" 
d="M641 532v109q0 94 -58 153.5t-155 59.5q-93 0 -151 -60t-58 -153v-109h422zM729 436h-510v-133q0 -94 57.5 -154.5t151.5 -60.5q77 0 126.5 35t74.5 88q1 1 2 4t2 4.5t2.5 3.5t3 3t4.5 2t6 1h60q8 0 13 -5.5t5 -12.5q0 -28 -19 -64.5t-53.5 -72t-94.5 -60t-132 -24.5
q-151 0 -233 87.5t-82 221.5v346q0 142 88.5 224.5t228.5 82.5q143 0 230.5 -81t87.5 -226v-190q0 -7 -5.5 -13t-13.5 -6zM369 1241l219 -135q6 -6 6 -16q0 -9 -4 -13l-39 -45q-4 -4 -14 -4q-11 0 -19 4l-231 117q-6 3 -6 16q0 9 4 13l53 61q6 6 18 6q5 0 13 -4z" />
    <glyph glyph-name="eacute" unicode="&#xe9;" horiz-adv-x="860" 
d="M641 532v109q0 94 -58 153.5t-155 59.5q-93 0 -151 -60t-58 -153v-109h422zM729 436h-510v-133q0 -94 57.5 -154.5t151.5 -60.5q77 0 126.5 35t74.5 88q1 1 2 4t2 4.5t2.5 3.5t3 3t4.5 2t6 1h60q8 0 13 -5.5t5 -12.5q0 -28 -19 -64.5t-53.5 -72t-94.5 -60t-132 -24.5
q-151 0 -233 87.5t-82 221.5v346q0 142 88.5 224.5t228.5 82.5q143 0 230.5 -81t87.5 -226v-190q0 -7 -5.5 -13t-13.5 -6zM287 1106l219 135q8 4 12 4q13 0 19 -6l53 -61q4 -4 4 -13q0 -13 -6 -16l-232 -117q-8 -4 -18 -4t-14 4l-39 45q-4 4 -4 13q0 10 6 16z" />
    <glyph glyph-name="ecircumflex" unicode="&#xea;" horiz-adv-x="860" 
d="M641 532v109q0 94 -58 153.5t-155 59.5q-93 0 -151 -60t-58 -153v-109h422zM729 436h-510v-133q0 -94 57.5 -154.5t151.5 -60.5q77 0 126.5 35t74.5 88q1 1 2 4t2 4.5t2.5 3.5t3 3t4.5 2t6 1h60q8 0 13 -5.5t5 -12.5q0 -28 -19 -64.5t-53.5 -72t-94.5 -60t-132 -24.5
q-151 0 -233 87.5t-82 221.5v346q0 142 88.5 224.5t228.5 82.5q143 0 230.5 -81t87.5 -226v-190q0 -7 -5.5 -13t-13.5 -6zM375 1296h110q14 0 21 -20l84 -229q0 -8 -6 -13.5t-15 -5.5h-59q-13 0 -21 19l-59 161l-59 -161q-8 -19 -21 -19h-59q-9 0 -15 5.5t-6 13.5l84 229
q7 20 21 20z" />
    <glyph glyph-name="edieresis" unicode="&#xeb;" horiz-adv-x="860" 
d="M641 532v109q0 94 -58 153.5t-155 59.5q-93 0 -151 -60t-58 -153v-109h422zM729 436h-510v-133q0 -94 57.5 -154.5t151.5 -60.5q77 0 126.5 35t74.5 88q1 1 2 4t2 4.5t2.5 3.5t3 3t4.5 2t6 1h60q8 0 13 -5.5t5 -12.5q0 -28 -19 -64.5t-53.5 -72t-94.5 -60t-132 -24.5
q-151 0 -233 87.5t-82 221.5v346q0 142 88.5 224.5t228.5 82.5q143 0 230.5 -81t87.5 -226v-190q0 -7 -5.5 -13t-13.5 -6zM279 1085q0 26 16 44t41 18q26 0 43.5 -18t17.5 -44q0 -25 -17.5 -41t-43.5 -16q-25 0 -41 16t-16 41zM459 1085q0 26 16 44t41 18q26 0 44 -18
t18 -44q0 -25 -18 -41t-44 -16q-25 0 -41 16t-16 41z" />
    <glyph glyph-name="igrave" unicode="&#xec;" horiz-adv-x="352" 
d="M123 18v906q0 7 5 12.5t15 5.5h68q8 0 13 -5.5t5 -12.5v-906q0 -7 -5 -12.5t-13 -5.5h-68q-10 0 -15 5.5t-5 12.5zM106 1241l220 -135q6 -6 6 -16q0 -9 -4 -13l-39 -45q-4 -4 -15 -4q-10 0 -18 4l-231 117q-7 3 -7 16q0 8 5 13l53 61q6 6 18 6q4 0 12 -4z" />
    <glyph glyph-name="iacute" unicode="&#xed;" horiz-adv-x="352" 
d="M229 924v-906q0 -7 -5 -12.5t-15 -5.5h-68q-8 0 -13 5.5t-5 12.5v906q0 7 5 12.5t13 5.5h68q10 0 15 -5.5t5 -12.5zM27 1106l219 135q8 4 12 4q12 0 18 -6l54 -61q4 -4 4 -13q0 -13 -6 -16l-232 -117q-8 -4 -18 -4q-11 0 -15 4l-38 45q-5 5 -5 13q0 9 7 16z" />
    <glyph glyph-name="icircumflex" unicode="&#xee;" horiz-adv-x="352" 
d="M123 18v906q0 7 5 12.5t15 5.5h68q8 0 13 -5.5t5 -12.5v-906q0 -7 -5 -12.5t-13 -5.5h-68q-10 0 -15 5.5t-5 12.5zM121 1296h110q14 0 21 -20l84 -229q0 -8 -6 -13.5t-15 -5.5h-59q-12 0 -20 19l-60 161l-59 -161q-8 -19 -21 -19h-59q-9 0 -15 5.5t-6 13.5l84 229
q7 20 21 20z" />
    <glyph glyph-name="idieresis" unicode="&#xef;" horiz-adv-x="352" 
d="M123 18v906q0 7 5 12.5t15 5.5h68q8 0 13 -5.5t5 -12.5v-906q0 -7 -5 -12.5t-13 -5.5h-68q-10 0 -15 5.5t-5 12.5zM20 1085q0 26 16.5 44t41.5 18q26 0 43.5 -18t17.5 -44q0 -25 -17.5 -41t-43.5 -16q-25 0 -41.5 16t-16.5 41zM213 1085q0 26 16 44t41 18q26 0 44 -18
t18 -44q0 -25 -18 -41t-44 -16q-25 0 -41 16t-16 41z" />
    <glyph glyph-name="eth" unicode="&#xf0;" horiz-adv-x="829" 
d="M268 1147h160l-37 100q0 7 5.5 13t15.5 6h63q16 0 21 -19l36 -100h166q7 0 13 -5.5t6 -15.5v-63q0 -8 -6 -13.5t-13 -5.5h-127l136 -358q10 -29 10 -90v-303q0 -133 -90 -218t-221 -85q-127 0 -215.5 85.5t-88.5 217.5v149q0 65 14.5 118t46.5 99t91 71.5t141 25.5
q151 0 215 -92l-143 380h-199q-7 0 -12.5 5.5t-5.5 13.5v63q0 10 5.5 15.5t12.5 5.5zM610 301v137q0 94 -55.5 156.5t-148.5 62.5q-90 0 -143.5 -58t-53.5 -150v-148q0 -94 54 -153.5t143 -59.5q94 0 149 59.5t55 153.5z" />
    <glyph glyph-name="ntilde" unicode="&#xf1;" 
d="M664 18v586q0 71 -17.5 121.5t-48.5 77.5t-66.5 39t-78.5 12q-101 0 -162.5 -58.5t-61.5 -158.5v-619q0 -7 -5 -12.5t-15 -5.5h-68q-8 0 -13 5.5t-5 12.5v906q0 7 5 12.5t13 5.5h68q10 0 15 -5.5t5 -12.5v-64q73 92 244 92q48 0 90 -10.5t81 -35.5t66 -63.5t43.5 -97
t16.5 -133.5v-594q0 -7 -5 -12.5t-15 -5.5h-68q-8 0 -13 5.5t-5 12.5zM532 1028q-42 0 -94 23q-32 16 -61 16q-15 0 -39 -12.5t-29 -12.5t-14 9l-35 43q-4 8 -4 12q0 7 6 16q19 21 46.5 36.5t47.5 15.5q18 0 66 -19q46 -20 90 -20q15 0 39 12t29 12q6 0 14 -8l35 -43
q4 -8 4 -12q0 -8 -6 -17q-19 -21 -47 -36t-48 -15z" />
    <glyph glyph-name="ograve" unicode="&#xf2;" horiz-adv-x="856" 
d="M428 952q151 0 233 -87.5t82 -221.5v-344q0 -134 -82 -221.5t-233 -87.5t-233 87.5t-82 221.5v344q0 134 82 221.5t233 87.5zM428 88q94 0 151.5 60.5t57.5 154.5v336q0 94 -57.5 154.5t-151.5 60.5t-151.5 -60.5t-57.5 -154.5v-336q0 -94 57.5 -154.5t151.5 -60.5z
M360 1241l220 -135q6 -6 6 -16q0 -9 -4 -13l-39 -45q-4 -4 -15 -4q-10 0 -18 4l-231 117q-7 3 -7 16q0 9 4 13l54 61q6 6 18 6q4 0 12 -4z" />
    <glyph glyph-name="oacute" unicode="&#xf3;" horiz-adv-x="856" 
d="M428 952q151 0 233 -87.5t82 -221.5v-344q0 -134 -82 -221.5t-233 -87.5t-233 87.5t-82 221.5v344q0 134 82 221.5t233 87.5zM428 88q94 0 151.5 60.5t57.5 154.5v336q0 94 -57.5 154.5t-151.5 60.5t-151.5 -60.5t-57.5 -154.5v-336q0 -94 57.5 -154.5t151.5 -60.5z
M276 1106l220 135q8 4 12 4q12 0 18 -6l54 -61q4 -4 4 -13q0 -13 -6 -16l-232 -117q-8 -4 -18 -4q-11 0 -15 4l-39 45q-4 4 -4 13q0 10 6 16z" />
    <glyph glyph-name="ocircumflex" unicode="&#xf4;" horiz-adv-x="856" 
d="M428 952q151 0 233 -87.5t82 -221.5v-344q0 -134 -82 -221.5t-233 -87.5t-233 87.5t-82 221.5v344q0 134 82 221.5t233 87.5zM428 88q94 0 151.5 60.5t57.5 154.5v336q0 94 -57.5 154.5t-151.5 60.5t-151.5 -60.5t-57.5 -154.5v-336q0 -94 57.5 -154.5t151.5 -60.5z
M373 1296h110q14 0 21 -20l84 -229q0 -8 -6 -13.5t-15 -5.5h-59q-13 0 -21 19l-59 161l-59 -161q-8 -19 -21 -19h-59q-9 0 -15 5.5t-6 13.5l84 229q7 20 21 20z" />
    <glyph glyph-name="otilde" unicode="&#xf5;" horiz-adv-x="856" 
d="M428 952q151 0 233 -87.5t82 -221.5v-344q0 -134 -82 -221.5t-233 -87.5t-233 87.5t-82 221.5v344q0 134 82 221.5t233 87.5zM428 88q94 0 151.5 60.5t57.5 154.5v336q0 94 -57.5 154.5t-151.5 60.5t-151.5 -60.5t-57.5 -154.5v-336q0 -94 57.5 -154.5t151.5 -60.5z
M516 1028q-42 0 -94 23q-32 16 -62 16q-15 0 -38.5 -12.5t-28.5 -12.5t-14 9l-35 43q-4 8 -4 12q0 7 6 16q19 21 46.5 36.5t47.5 15.5q18 0 66 -19q46 -20 90 -20q15 0 38.5 12t28.5 12q7 0 15 -8l34 -43q4 -8 4 -12q0 -8 -6 -17q-19 -21 -46.5 -36t-47.5 -15z" />
    <glyph glyph-name="odieresis" unicode="&#xf6;" horiz-adv-x="856" 
d="M428 952q151 0 233 -87.5t82 -221.5v-344q0 -134 -82 -221.5t-233 -87.5t-233 87.5t-82 221.5v344q0 134 82 221.5t233 87.5zM428 88q94 0 151.5 60.5t57.5 154.5v336q0 94 -57.5 154.5t-151.5 60.5t-151.5 -60.5t-57.5 -154.5v-336q0 -94 57.5 -154.5t151.5 -60.5z
M279 1085q0 26 16 44t41 18q26 0 43.5 -18t17.5 -44q0 -25 -17.5 -41t-43.5 -16q-25 0 -41 16t-16 41zM459 1085q0 26 16 44t41 18q26 0 44 -18t18 -44q0 -25 -18 -41t-44 -16q-25 0 -41 16t-16 41z" />
    <glyph glyph-name="divide" unicode="&#xf7;" horiz-adv-x="733" 
d="M141 350h451q7 0 12.5 -5t5.5 -15v-68q0 -8 -5.5 -13t-12.5 -5h-451q-7 0 -12.5 5t-5.5 13v68q0 10 5.5 15t12.5 5zM309 63q0 26 16.5 44t41.5 18q26 0 43.5 -18t17.5 -44q0 -25 -17.5 -41t-43.5 -16q-25 0 -41.5 16t-16.5 41zM309 528q0 25 16.5 41.5t41.5 16.5
q26 0 43.5 -16.5t17.5 -41.5q0 -26 -17.5 -43.5t-43.5 -17.5q-25 0 -41.5 17.5t-16.5 43.5z" />
    <glyph glyph-name="oslash" unicode="&#xf8;" horiz-adv-x="856" 
d="M485 950q125 -18 191.5 -102t66.5 -205v-344q0 -121 -67 -204.5t-193 -100.5l-51 -238q-3 -13 -16 -16h-76q-14 5 -14 16l69 236q-135 10 -208.5 96t-73.5 211v344q0 127 75 213.5t211 95.5l54 250q3 14 16 17h76q14 -5 14 -17zM637 303v336q0 94 -57.5 154.5
t-151.5 60.5t-151.5 -60.5t-57.5 -154.5v-336q0 -94 57.5 -154.5t151.5 -60.5t151.5 60.5t57.5 154.5z" />
    <glyph glyph-name="ugrave" unicode="&#xf9;" 
d="M219 924v-586q0 -71 17.5 -121.5t48.5 -77.5t66.5 -39t78.5 -12q101 0 162 58.5t61 158.5v619q0 7 5.5 12.5t15.5 5.5h67q8 0 13.5 -5.5t5.5 -12.5v-906q0 -7 -5.5 -12.5t-13.5 -5.5h-67q-10 0 -15.5 5.5t-5.5 12.5v64q-73 -92 -243 -92q-48 0 -90 10.5t-81 35.5
t-66 63.5t-43.5 97t-16.5 133.5v594q0 7 5 12.5t15 5.5h68q8 0 13 -5.5t5 -12.5zM367 1241l219 -135q6 -6 6 -16q0 -9 -4 -13l-39 -45q-4 -4 -14 -4q-11 0 -19 4l-231 117q-6 3 -6 16q0 9 4 13l53 61q6 6 18 6q5 0 13 -4z" />
    <glyph glyph-name="uacute" unicode="&#xfa;" 
d="M219 924v-586q0 -71 17.5 -121.5t48.5 -77.5t66.5 -39t78.5 -12q101 0 162 58.5t61 158.5v619q0 7 5.5 12.5t15.5 5.5h67q8 0 13.5 -5.5t5.5 -12.5v-906q0 -7 -5.5 -12.5t-13.5 -5.5h-67q-10 0 -15.5 5.5t-5.5 12.5v64q-73 -92 -243 -92q-48 0 -90 10.5t-81 35.5
t-66 63.5t-43.5 97t-16.5 133.5v594q0 7 5 12.5t15 5.5h68q8 0 13 -5.5t5 -12.5zM285 1106l219 135q8 4 12 4q13 0 19 -6l53 -61q4 -4 4 -13q0 -13 -6 -16l-232 -117q-8 -4 -18 -4t-14 4l-39 45q-4 4 -4 13q0 10 6 16z" />
    <glyph glyph-name="ucircumflex" unicode="&#xfb;" 
d="M219 924v-586q0 -71 17.5 -121.5t48.5 -77.5t66.5 -39t78.5 -12q101 0 162 58.5t61 158.5v619q0 7 5.5 12.5t15.5 5.5h67q8 0 13.5 -5.5t5.5 -12.5v-906q0 -7 -5.5 -12.5t-13.5 -5.5h-67q-10 0 -15.5 5.5t-5.5 12.5v64q-73 -92 -243 -92q-48 0 -90 10.5t-81 35.5
t-66 63.5t-43.5 97t-16.5 133.5v594q0 7 5 12.5t15 5.5h68q8 0 13 -5.5t5 -12.5zM377 1296h110q14 0 21 -20l84 -229q0 -8 -6 -13.5t-15 -5.5h-59q-12 0 -20 19l-60 161l-59 -161q-8 -19 -21 -19h-59q-9 0 -15 5.5t-6 13.5l84 229q7 20 21 20z" />
    <glyph glyph-name="udieresis" unicode="&#xfc;" 
d="M219 924v-586q0 -71 17.5 -121.5t48.5 -77.5t66.5 -39t78.5 -12q101 0 162 58.5t61 158.5v619q0 7 5.5 12.5t15.5 5.5h67q8 0 13.5 -5.5t5.5 -12.5v-906q0 -7 -5.5 -12.5t-13.5 -5.5h-67q-10 0 -15.5 5.5t-5.5 12.5v64q-73 -92 -243 -92q-48 0 -90 10.5t-81 35.5
t-66 63.5t-43.5 97t-16.5 133.5v594q0 7 5 12.5t15 5.5h68q8 0 13 -5.5t5 -12.5zM287 1085q0 26 16 44t41 18q26 0 44 -18t18 -44q0 -25 -18 -41t-44 -16q-25 0 -41 16t-16 41zM467 1085q0 26 16 44t41 18q26 0 44 -18t18 -44q0 -25 -18 -41t-44 -16q-25 0 -41 16t-16 41z
" />
    <glyph glyph-name="yacute" unicode="&#xfd;" horiz-adv-x="786" 
d="M735 924l-334 -1225q-5 -18 -22 -18h-66q-10 0 -15 5.5t-5 12.5l63 235l-305 990q0 7 5.5 12.5t15.5 5.5h65q8 0 14.5 -5.5t8.5 -12.5l248 -807l219 807q5 18 22 18h66q10 0 15 -5.5t5 -12.5zM258 1106l219 135q8 4 12 4q13 0 19 -6l53 -61q4 -4 4 -13q0 -13 -6 -16
l-231 -117q-8 -4 -19 -4q-10 0 -14 4l-39 45q-4 4 -4 13q0 10 6 16z" />
    <glyph glyph-name="thorn" unicode="&#xfe;" 
d="M123 -301v1548q0 7 5 13t13 6h68q10 0 15 -6t5 -13v-387q73 92 244 92q48 0 90 -10.5t81 -35.5t66 -63.5t43.5 -97t16.5 -133.5v-282q0 -75 -16.5 -133.5t-43.5 -97t-66 -63.5t-81 -35.5t-90 -10.5q-171 0 -244 92v-383q0 -7 -5 -12.5t-15 -5.5h-68q-8 0 -13 5.5t-5 12.5
zM229 637v-332q0 -100 61.5 -158.5t162.5 -58.5q43 0 78.5 12t66.5 39t48.5 77.5t17.5 121.5v266q0 71 -17.5 121.5t-48.5 77.5t-66.5 39t-78.5 12q-101 0 -162.5 -58.5t-61.5 -158.5z" />
    <glyph glyph-name="ydieresis" unicode="&#xff;" horiz-adv-x="786" 
d="M735 924l-334 -1225q-5 -18 -22 -18h-66q-10 0 -15 5.5t-5 12.5l63 235l-305 990q0 7 5.5 12.5t15.5 5.5h65q8 0 14.5 -5.5t8.5 -12.5l248 -807l219 807q5 18 22 18h66q10 0 15 -5.5t5 -12.5zM260 1085q0 26 16 44t41 18q26 0 44 -18t18 -44q0 -25 -18 -41t-44 -16
q-25 0 -41 16t-16 41zM440 1085q0 26 16.5 44t41.5 18q26 0 43.5 -18t17.5 -44q0 -25 -17.5 -41t-43.5 -16q-25 0 -41.5 16t-16.5 41z" />
    <glyph glyph-name="Amacron" unicode="&#x100;" horiz-adv-x="901" 
d="M385 1266h131q18 0 23 -19l301 -1229q0 -7 -5.5 -12.5t-15.5 -5.5h-67q-16 0 -21 18l-55 224h-453l-53 -224q-4 -18 -20 -18h-68q-10 0 -15.5 5.5t-5.5 12.5l301 1229q5 19 23 19zM451 1167l-203 -827h403zM258 1448h387q7 0 13 -5.5t6 -15.5v-67q0 -8 -6 -13.5t-13 -5.5
h-387q-7 0 -12.5 5.5t-5.5 13.5v67q0 10 5.5 15.5t12.5 5.5z" />
    <glyph glyph-name="amacron" unicode="&#x101;" 
d="M760 924v-906q0 -7 -5.5 -12.5t-13.5 -5.5h-67q-10 0 -15.5 5.5t-5.5 12.5v64q-73 -92 -243 -92q-48 0 -90 10.5t-81 35.5t-66 63.5t-43.5 97t-16.5 133.5v282q0 75 16.5 133.5t43.5 97t66 63.5t81 35.5t90 10.5q170 0 243 -92v64q0 7 5.5 12.5t15.5 5.5h67
q8 0 13.5 -5.5t5.5 -12.5zM653 305v332q0 100 -61 158.5t-162 58.5q-43 0 -78.5 -12t-66.5 -39t-48.5 -77.5t-17.5 -121.5v-266q0 -71 17.5 -121.5t48.5 -77.5t66.5 -39t78.5 -12q101 0 162 58.5t61 158.5zM231 1135h387q7 0 13 -5.5t6 -15.5v-67q0 -8 -6 -13.5t-13 -5.5
h-387q-7 0 -12.5 5.5t-5.5 13.5v67q0 10 5.5 15.5t12.5 5.5z" />
    <glyph glyph-name="Abreve" unicode="&#x102;" horiz-adv-x="901" 
d="M385 1266h131q18 0 23 -19l301 -1229q0 -7 -5.5 -12.5t-15.5 -5.5h-67q-16 0 -21 18l-55 224h-453l-53 -224q-4 -18 -20 -18h-68q-10 0 -15.5 5.5t-5.5 12.5l301 1229q5 19 23 19zM451 1167l-203 -827h403zM451 1341q-193 0 -203 162q0 8 5.5 13.5t12.5 5.5h70q6 0 12 -6
t6 -13q4 -30 31.5 -48.5t65.5 -18.5q36 0 64 18.5t32 48.5q0 7 5 13t11 6h70q7 0 12.5 -5.5t5.5 -13.5q-8 -162 -200 -162z" />
    <glyph glyph-name="abreve" unicode="&#x103;" 
d="M760 924v-906q0 -7 -5.5 -12.5t-13.5 -5.5h-67q-10 0 -15.5 5.5t-5.5 12.5v64q-73 -92 -243 -92q-48 0 -90 10.5t-81 35.5t-66 63.5t-43.5 97t-16.5 133.5v282q0 75 16.5 133.5t43.5 97t66 63.5t81 35.5t90 10.5q170 0 243 -92v64q0 7 5.5 12.5t15.5 5.5h67
q8 0 13.5 -5.5t5.5 -12.5zM653 305v332q0 100 -61 158.5t-162 58.5q-43 0 -78.5 -12t-66.5 -39t-48.5 -77.5t-17.5 -121.5v-266q0 -71 17.5 -121.5t48.5 -77.5t66.5 -39t78.5 -12q101 0 162 58.5t61 158.5zM461 1028q-193 0 -203 162q0 8 5 13t13 5h70q6 0 12.5 -5.5
t6.5 -12.5q4 -30 31.5 -49t64.5 -19q36 0 64 19t32 49q0 7 5 12.5t11 5.5h70q8 0 13.5 -5.5t5.5 -12.5q-8 -162 -201 -162z" />
    <glyph glyph-name="Aogonek" unicode="&#x104;" horiz-adv-x="901" 
d="M825 -305q-14 -2 -51 -2q-174 0 -174 170q0 55 30.5 108t92.5 74l-47 197h-453l-53 -224q-4 -18 -20 -18h-68q-10 0 -15.5 5.5t-5.5 12.5l301 1229q5 19 23 19h131q18 0 23 -19l301 -1229q0 -7 -5.5 -12.5t-15.5 -5.5h-10q-47 -5 -81 -44.5t-34 -90.5q0 -49 28 -72.5
t66 -23.5q21 0 37 4q7 0 11 -11v-57q-2 -7 -11 -10zM451 1167l-203 -827h403z" />
    <glyph glyph-name="aogonek" unicode="&#x105;" 
d="M750 -369q-14 -2 -52 -2q-174 0 -174 170q0 57 32 111t97 74v98q-73 -92 -243 -92q-48 0 -90 10.5t-81 35.5t-66 63.5t-43.5 97t-16.5 133.5v282q0 75 16.5 133.5t43.5 97t66 63.5t81 35.5t90 10.5q170 0 243 -92v64q0 7 5.5 12.5t15.5 5.5h67q8 0 13.5 -5.5t5.5 -12.5
v-969q0 -7 -5.5 -12.5t-13.5 -5.5q-51 0 -87 -40.5t-36 -95.5q0 -48 28 -72t67 -24q21 0 37 4q7 0 10 -10v-57q-3 -9 -10 -11zM653 305v332q0 100 -61 158.5t-162 58.5q-43 0 -78.5 -12t-66.5 -39t-48.5 -77.5t-17.5 -121.5v-266q0 -71 17.5 -121.5t48.5 -77.5t66.5 -39
t78.5 -12q101 0 162 58.5t61 158.5z" />
    <glyph glyph-name="Cacute" unicode="&#x106;" horiz-adv-x="854" 
d="M113 303v664q0 134 98 223.5t248 89.5q142 0 233.5 -83t100.5 -210q0 -7 -5.5 -12.5t-13.5 -5.5h-67q-10 0 -15.5 5.5t-5.5 12.5q-16 97 -79 146t-148 49q-46 0 -88 -14t-76.5 -42.5t-55 -77.5t-20.5 -112v-602q0 -63 20.5 -112t55 -77.5t76.5 -42.5t88 -14q85 0 148 49
t79 146q0 7 5.5 12.5t15.5 5.5h67q8 0 13.5 -5.5t5.5 -12.5q-9 -127 -100.5 -210t-233.5 -83q-150 0 -248 89.5t-98 223.5zM287 1419l219 135q10 5 12 5q12 0 19 -7l53 -61q4 -4 4 -12q0 -14 -6 -17l-232 -116q-10 -5 -18 -5q-9 0 -14 5l-39 45q-4 4 -4 12q0 10 6 16z" />
    <glyph glyph-name="cacute" unicode="&#x107;" horiz-adv-x="837" 
d="M113 299v344q0 134 82 221.5t233 87.5q136 0 221 -76t96 -190q0 -7 -5 -12.5t-13 -5.5h-68q-10 0 -15 5.5t-5 12.5q-9 73 -68.5 120.5t-142.5 47.5q-94 0 -151.5 -60.5t-57.5 -154.5v-336q0 -94 57.5 -154.5t151.5 -60.5q83 0 142.5 47.5t68.5 120.5q0 7 5 12.5t15 5.5
h68q8 0 13 -5.5t5 -12.5q-11 -114 -96 -190t-221 -76q-151 0 -233 87.5t-82 221.5zM256 1106l219 135q8 4 12 4q13 0 19 -6l53 -61q4 -4 4 -13q0 -13 -6 -16l-231 -117q-8 -4 -19 -4q-10 0 -14 4l-39 45q-4 4 -4 13q0 10 6 16z" />
    <glyph glyph-name="Ccircumflex" unicode="&#x108;" horiz-adv-x="854" 
d="M113 303v664q0 134 98 223.5t248 89.5q142 0 233.5 -83t100.5 -210q0 -7 -5.5 -12.5t-13.5 -5.5h-67q-10 0 -15.5 5.5t-5.5 12.5q-16 97 -79 146t-148 49q-46 0 -88 -14t-76.5 -42.5t-55 -77.5t-20.5 -112v-602q0 -63 20.5 -112t55 -77.5t76.5 -42.5t88 -14q85 0 148 49
t79 146q0 7 5.5 12.5t15.5 5.5h67q8 0 13.5 -5.5t5.5 -12.5q-9 -127 -100.5 -210t-233.5 -83q-150 0 -248 89.5t-98 223.5zM397 1610h111q13 0 20 -21l84 -229q0 -8 -5.5 -13.5t-14.5 -5.5h-60q-12 0 -20 19l-59 162l-60 -162q-8 -19 -20 -19h-60q-9 0 -14.5 5.5t-5.5 13.5
l84 229q7 21 20 21z" />
    <glyph glyph-name="ccircumflex" unicode="&#x109;" horiz-adv-x="837" 
d="M113 299v344q0 134 82 221.5t233 87.5q136 0 221 -76t96 -190q0 -7 -5 -12.5t-13 -5.5h-68q-10 0 -15 5.5t-5 12.5q-9 73 -68.5 120.5t-142.5 47.5q-94 0 -151.5 -60.5t-57.5 -154.5v-336q0 -94 57.5 -154.5t151.5 -60.5q83 0 142.5 47.5t68.5 120.5q0 7 5 12.5t15 5.5
h68q8 0 13 -5.5t5 -12.5q-11 -114 -96 -190t-221 -76q-151 0 -233 87.5t-82 221.5zM373 1296h110q14 0 21 -20l84 -229q0 -8 -6 -13.5t-15 -5.5h-59q-13 0 -21 19l-59 161l-59 -161q-8 -19 -21 -19h-59q-9 0 -15 5.5t-6 13.5l84 229q7 20 21 20z" />
    <glyph glyph-name="Cdotaccent" unicode="&#x10a;" horiz-adv-x="854" 
d="M113 303v664q0 134 98 223.5t248 89.5q142 0 233.5 -83t100.5 -210q0 -7 -5.5 -12.5t-13.5 -5.5h-67q-10 0 -15.5 5.5t-5.5 12.5q-16 97 -79 146t-148 49q-46 0 -88 -14t-76.5 -42.5t-55 -77.5t-20.5 -112v-602q0 -63 20.5 -112t55 -77.5t76.5 -42.5t88 -14q85 0 148 49
t79 146q0 7 5.5 12.5t15.5 5.5h67q8 0 13.5 -5.5t5.5 -12.5q-9 -127 -100.5 -210t-233.5 -83q-150 0 -248 89.5t-98 223.5zM403 1399q0 26 16.5 43.5t41.5 17.5q26 0 43.5 -17.5t17.5 -43.5q0 -25 -17.5 -41.5t-43.5 -16.5q-25 0 -41.5 16.5t-16.5 41.5z" />
    <glyph glyph-name="cdotaccent" unicode="&#x10b;" horiz-adv-x="837" 
d="M113 299v344q0 134 82 221.5t233 87.5q136 0 221 -76t96 -190q0 -7 -5 -12.5t-13 -5.5h-68q-10 0 -15 5.5t-5 12.5q-9 73 -68.5 120.5t-142.5 47.5q-94 0 -151.5 -60.5t-57.5 -154.5v-336q0 -94 57.5 -154.5t151.5 -60.5q83 0 142.5 47.5t68.5 120.5q0 7 5 12.5t15 5.5
h68q8 0 13 -5.5t5 -12.5q-11 -114 -96 -190t-221 -76q-151 0 -233 87.5t-82 221.5zM365 1085q0 26 16 44t41 18q26 0 43.5 -18t17.5 -44q0 -25 -17.5 -41t-43.5 -16q-25 0 -41 16t-16 41z" />
    <glyph glyph-name="Ccaron" unicode="&#x10c;" horiz-adv-x="854" 
d="M113 303v664q0 134 98 223.5t248 89.5q142 0 233.5 -83t100.5 -210q0 -7 -5.5 -12.5t-13.5 -5.5h-67q-10 0 -15.5 5.5t-5.5 12.5q-16 97 -79 146t-148 49q-46 0 -88 -14t-76.5 -42.5t-55 -77.5t-20.5 -112v-602q0 -63 20.5 -112t55 -77.5t76.5 -42.5t88 -14q85 0 148 49
t79 146q0 7 5.5 12.5t15.5 5.5h67q8 0 13.5 -5.5t5.5 -12.5q-9 -127 -100.5 -210t-233.5 -83q-150 0 -248 89.5t-98 223.5zM508 1341h-111q-13 0 -20 21l-84 229q0 8 5.5 13.5t14.5 5.5h60q12 0 20 -19l60 -161l59 161q8 19 20 19h60q9 0 14.5 -5.5t5.5 -13.5l-84 -229
q-7 -21 -20 -21z" />
    <glyph glyph-name="ccaron" unicode="&#x10d;" horiz-adv-x="837" 
d="M113 299v344q0 134 82 221.5t233 87.5q136 0 221 -76t96 -190q0 -7 -5 -12.5t-13 -5.5h-68q-10 0 -15 5.5t-5 12.5q-9 73 -68.5 120.5t-142.5 47.5q-94 0 -151.5 -60.5t-57.5 -154.5v-336q0 -94 57.5 -154.5t151.5 -60.5q83 0 142.5 47.5t68.5 120.5q0 7 5 12.5t15 5.5
h68q8 0 13 -5.5t5 -12.5q-11 -114 -96 -190t-221 -76q-151 0 -233 87.5t-82 221.5zM489 1028h-110q-14 0 -21 21l-84 229q0 8 6 13t15 5h59q14 0 21 -18l59 -162l60 162q7 18 20 18h59q9 0 15 -5t6 -13l-84 -229q-7 -21 -21 -21z" />
    <glyph glyph-name="Dcaron" unicode="&#x10e;" horiz-adv-x="903" 
d="M694 342v582q0 121 -69 182t-164 61h-232v-1069h232q95 0 164 61.5t69 182.5zM801 920v-574q0 -173 -92.5 -259.5t-243.5 -86.5h-322q-10 0 -15 5.5t-5 12.5v1229q0 7 5 13t15 6h322q151 0 243.5 -86.5t92.5 -259.5zM463 1341h-111q-13 0 -20 21l-84 229q0 8 5.5 13.5
t14.5 5.5h60q12 0 20 -19l60 -161l59 161q8 19 20 19h60q9 0 14.5 -5.5t5.5 -13.5l-84 -229q-7 -21 -20 -21z" />
    <glyph glyph-name="dcaron" unicode="&#x10f;" horiz-adv-x="1163" 
d="M760 1247v-1229q0 -7 -5.5 -12.5t-13.5 -5.5h-67q-10 0 -15.5 5.5t-5.5 12.5v64q-73 -92 -243 -92q-48 0 -90 10.5t-81 35.5t-66 63.5t-43.5 97t-16.5 133.5v282q0 75 16.5 133.5t43.5 97t66 63.5t81 35.5t90 10.5q170 0 243 -92v387q0 7 5.5 13t15.5 6h67q8 0 13.5 -6
t5.5 -13zM653 305v332q0 100 -61 158.5t-162 58.5q-43 0 -78.5 -12t-66.5 -39t-48.5 -77.5t-17.5 -121.5v-266q0 -71 17.5 -121.5t48.5 -77.5t66.5 -39t78.5 -12q101 0 162 58.5t61 158.5zM1012 1247l-49 -233q0 -16 18 -19h57q18 4 21 19l71 233q0 15 -16 19h-84
q-12 -3 -18 -19z" />
    <glyph glyph-name="Dcroat" unicode="&#x110;" horiz-adv-x="933" 
d="M59 664h95v583q0 7 5 13t15 6h322q151 0 243 -86t92 -260v-574q0 -174 -92 -260t-243 -86h-322q-10 0 -15 5.5t-5 12.5v539h-95q-7 0 -12.5 5t-5.5 13v68q0 10 5.5 15.5t12.5 5.5zM725 342v582q0 121 -69 182t-164 61h-232v-503h141q7 0 13 -5.5t6 -15.5v-68q0 -8 -6 -13
t-13 -5h-141v-459h232q95 0 164 61.5t69 182.5z" />
    <glyph glyph-name="dcroat" unicode="&#x111;" horiz-adv-x="935" 
d="M518 1159h135v88q0 7 5.5 13t15.5 6h67q8 0 13.5 -6t5.5 -13v-88h96q7 0 12.5 -5t5.5 -15v-68q0 -8 -5.5 -13t-12.5 -5h-96v-1035q0 -7 -5.5 -12.5t-13.5 -5.5h-67q-10 0 -15.5 5.5t-5.5 12.5v64q-73 -92 -243 -92q-48 0 -90 10.5t-81 35.5t-66 63.5t-43.5 97
t-16.5 133.5v282q0 75 16.5 133.5t43.5 97t66 63.5t81 35.5t90 10.5q170 0 243 -92v193h-135q-7 0 -12.5 5t-5.5 13v68q0 10 5.5 15t12.5 5zM653 305v332q0 100 -61 158.5t-162 58.5q-43 0 -78.5 -12t-66.5 -39t-48.5 -77.5t-17.5 -121.5v-266q0 -71 17.5 -121.5t48.5 -77.5
t66.5 -39t78.5 -12q101 0 162 58.5t61 158.5z" />
    <glyph glyph-name="Emacron" unicode="&#x112;" horiz-adv-x="741" 
d="M143 1266h480q16 0 16 -19v-63q0 -7 -5 -12t-11 -5h-394v-526h281q16 0 16 -18v-64q0 -16 -16 -16h-281v-445h394q16 0 16 -18v-64q0 -16 -16 -16h-480q-10 0 -15 5.5t-5 12.5v1229q0 7 5 13t15 6zM186 1448h387q7 0 13 -5.5t6 -15.5v-67q0 -8 -6 -13.5t-13 -5.5h-387
q-7 0 -12.5 5.5t-5.5 13.5v67q0 10 5.5 15.5t12.5 5.5z" />
    <glyph glyph-name="emacron" unicode="&#x113;" horiz-adv-x="860" 
d="M641 532v109q0 94 -58 153.5t-155 59.5q-93 0 -151 -60t-58 -153v-109h422zM729 436h-510v-133q0 -94 57.5 -154.5t151.5 -60.5q77 0 126.5 35t74.5 88q1 1 2 4t2 4.5t2.5 3.5t3 3t4.5 2t6 1h60q8 0 13 -5.5t5 -12.5q0 -28 -19 -64.5t-53.5 -72t-94.5 -60t-132 -24.5
q-151 0 -233 87.5t-82 221.5v346q0 142 88.5 224.5t228.5 82.5q143 0 230.5 -81t87.5 -226v-190q0 -7 -5.5 -13t-13.5 -6zM227 1135h387q7 0 13 -5.5t6 -15.5v-67q0 -8 -6 -13.5t-13 -5.5h-387q-7 0 -12.5 5.5t-5.5 13.5v67q0 10 5.5 15.5t12.5 5.5z" />
    <glyph glyph-name="Edotaccent" unicode="&#x116;" horiz-adv-x="741" 
d="M143 1266h480q16 0 16 -19v-63q0 -7 -5 -12t-11 -5h-394v-526h281q16 0 16 -18v-64q0 -16 -16 -16h-281v-445h394q16 0 16 -18v-64q0 -16 -16 -16h-480q-10 0 -15 5.5t-5 12.5v1229q0 7 5 13t15 6zM330 1399q0 26 16 43.5t41 17.5q26 0 44 -17.5t18 -43.5
q0 -25 -18 -41.5t-44 -16.5q-25 0 -41 16.5t-16 41.5z" />
    <glyph glyph-name="edotaccent" unicode="&#x117;" horiz-adv-x="860" 
d="M641 532v109q0 94 -58 153.5t-155 59.5q-93 0 -151 -60t-58 -153v-109h422zM729 436h-510v-133q0 -94 57.5 -154.5t151.5 -60.5q77 0 126.5 35t74.5 88q1 1 2 4t2 4.5t2.5 3.5t3 3t4.5 2t6 1h60q8 0 13 -5.5t5 -12.5q0 -28 -19 -64.5t-53.5 -72t-94.5 -60t-132 -24.5
q-151 0 -233 87.5t-82 221.5v346q0 142 88.5 224.5t228.5 82.5q143 0 230.5 -81t87.5 -226v-190q0 -7 -5.5 -13t-13.5 -6zM375 1085q0 26 16 44t41 18q26 0 44 -18t18 -44q0 -25 -18 -41t-44 -16q-25 0 -41 16t-16 41z" />
    <glyph glyph-name="Eogonek" unicode="&#x118;" horiz-adv-x="741" 
d="M629 -311q-14 -2 -51 -2q-175 0 -175 170q0 87 56 143h-316q-10 0 -15 5.5t-5 12.5v1229q0 7 5 13t15 6h480q16 0 16 -19v-63q0 -7 -5 -12t-11 -5h-394v-526h281q16 0 16 -18v-64q0 -16 -16 -16h-281v-445h394q16 0 16 -18v-64q0 -16 -16 -16h-41q-49 -25 -66.5 -57
t-17.5 -84q0 -49 28 -73t66 -24q17 0 37 5q6 0 10 -11v-57q-3 -7 -10 -10z" />
    <glyph glyph-name="eogonek" unicode="&#x119;" horiz-adv-x="860" 
d="M543 -311q-14 -2 -51 -2q-175 0 -175 170q0 80 50 137q-122 18 -188 101.5t-66 203.5v346q0 142 88.5 224.5t228.5 82.5q143 0 230.5 -81t87.5 -226v-190q0 -7 -5.5 -13t-13.5 -6h-510v-133q0 -94 57.5 -154.5t151.5 -60.5q77 0 126.5 35t74.5 88q1 1 2 4t2 4.5t2.5 3.5
t3 3t4.5 2t6 1h60q8 0 13 -5.5t5 -12.5q0 -53 -56.5 -120t-152.5 -91q-54 -27 -80 -60t-26 -81q0 -49 28 -73t66 -24q17 0 37 5q6 0 10 -11v-57q-3 -7 -10 -10zM641 532v109q0 94 -58 153.5t-155 59.5q-93 0 -151 -60t-58 -153v-109h422z" />
    <glyph glyph-name="Ecaron" unicode="&#x11a;" horiz-adv-x="741" 
d="M143 1266h480q16 0 16 -19v-63q0 -7 -5 -12t-11 -5h-394v-526h281q16 0 16 -18v-64q0 -16 -16 -16h-281v-445h394q16 0 16 -18v-64q0 -16 -16 -16h-480q-10 0 -15 5.5t-5 12.5v1229q0 7 5 13t15 6zM444 1341h-110q-14 0 -21 21l-84 229q0 8 6 13.5t15 5.5h59q13 0 21 -19
l59 -161l60 161q8 19 20 19h59q9 0 15 -5.5t6 -13.5l-84 -229q-7 -21 -21 -21z" />
    <glyph glyph-name="ecaron" unicode="&#x11b;" horiz-adv-x="860" 
d="M641 532v109q0 94 -58 153.5t-155 59.5q-93 0 -151 -60t-58 -153v-109h422zM729 436h-510v-133q0 -94 57.5 -154.5t151.5 -60.5q77 0 126.5 35t74.5 88q1 1 2 4t2 4.5t2.5 3.5t3 3t4.5 2t6 1h60q8 0 13 -5.5t5 -12.5q0 -28 -19 -64.5t-53.5 -72t-94.5 -60t-132 -24.5
q-151 0 -233 87.5t-82 221.5v346q0 142 88.5 224.5t228.5 82.5q143 0 230.5 -81t87.5 -226v-190q0 -7 -5.5 -13t-13.5 -6zM489 1028h-110q-14 0 -21 21l-84 229q0 8 6 13t15 5h59q14 0 21 -18l59 -162l60 162q7 18 20 18h59q9 0 15 -5t6 -13l-84 -229q-7 -21 -21 -21z" />
    <glyph glyph-name="Gcircumflex" unicode="&#x11c;" horiz-adv-x="915" 
d="M772 651q10 0 15.5 -5.5t5.5 -12.5v-615q0 -7 -5.5 -12.5t-15.5 -5.5h-57q-8 0 -13.5 5.5t-5.5 12.5v80q-81 -108 -237 -108q-150 0 -248 89.5t-98 223.5v664q0 134 98 223.5t248 89.5q142 0 233.5 -83t100.5 -210q0 -7 -5.5 -12.5t-13.5 -5.5h-67q-10 0 -15.5 5.5
t-5.5 12.5q-16 97 -79 146t-148 49q-46 0 -88 -14t-76.5 -42.5t-55 -77.5t-20.5 -112v-602q0 -63 20.5 -112t55 -77.5t76.5 -42.5t88 -14q85 0 148 49t79 146v270h-127q-16 0 -16 18v64q0 16 16 16h213zM387 1610h111q13 0 20 -21l84 -229q0 -8 -5.5 -13.5t-14.5 -5.5h-60
q-12 0 -20 19l-60 162l-59 -162q-8 -19 -21 -19h-59q-9 0 -14.5 5.5t-5.5 13.5l84 229q7 21 20 21z" />
    <glyph glyph-name="gcircumflex" unicode="&#x11d;" 
d="M760 924v-959q0 -136 -75 -222.5t-224 -86.5q-72 0 -129.5 24.5t-89 60.5t-48 71.5t-16.5 64.5q0 7 5.5 13t13.5 6h59q4 0 7 -1t5 -3.5t3 -4t2.5 -5.5t2.5 -5q27 -56 68.5 -89.5t116.5 -33.5q92 0 142 59.5t50 155.5v160q-73 -92 -243 -92q-48 0 -90 10.5t-81 35.5
t-66 63.5t-43.5 97t-16.5 133.5v235q0 75 16.5 133.5t43.5 97t66 63.5t81 35.5t90 10.5q170 0 243 -92v64q0 7 5.5 12.5t15.5 5.5h67q8 0 13.5 -5.5t5.5 -12.5zM653 352v285q0 100 -61 158.5t-162 58.5q-43 0 -78.5 -12t-66.5 -39t-48.5 -77.5t-17.5 -121.5v-219
q0 -71 17.5 -121.5t48.5 -77.5t66.5 -39t78.5 -12q101 0 162 58.5t61 158.5zM365 1296h110q14 0 21 -20l84 -229q0 -8 -6 -13.5t-15 -5.5h-59q-13 0 -21 19l-59 161l-60 -161q-8 -19 -20 -19h-59q-9 0 -15 5.5t-6 13.5l84 229q7 20 21 20z" />
    <glyph glyph-name="Gbreve" unicode="&#x11e;" horiz-adv-x="915" 
d="M772 651q10 0 15.5 -5.5t5.5 -12.5v-615q0 -7 -5.5 -12.5t-15.5 -5.5h-57q-8 0 -13.5 5.5t-5.5 12.5v80q-81 -108 -237 -108q-150 0 -248 89.5t-98 223.5v664q0 134 98 223.5t248 89.5q142 0 233.5 -83t100.5 -210q0 -7 -5.5 -12.5t-13.5 -5.5h-67q-10 0 -15.5 5.5
t-5.5 12.5q-16 97 -79 146t-148 49q-46 0 -88 -14t-76.5 -42.5t-55 -77.5t-20.5 -112v-602q0 -63 20.5 -112t55 -77.5t76.5 -42.5t88 -14q85 0 148 49t79 146v270h-127q-16 0 -16 18v64q0 16 16 16h213zM457 1341q-193 0 -203 162q0 8 5.5 13.5t12.5 5.5h70q6 0 12 -6t6 -13
q4 -30 31.5 -48.5t65.5 -18.5q36 0 64 18.5t32 48.5q0 7 5 13t11 6h70q7 0 12.5 -5.5t5.5 -13.5q-8 -162 -200 -162z" />
    <glyph glyph-name="gbreve" unicode="&#x11f;" 
d="M760 924v-959q0 -136 -75 -222.5t-224 -86.5q-72 0 -129.5 24.5t-89 60.5t-48 71.5t-16.5 64.5q0 7 5.5 13t13.5 6h59q4 0 7 -1t5 -3.5t3 -4t2.5 -5.5t2.5 -5q27 -56 68.5 -89.5t116.5 -33.5q92 0 142 59.5t50 155.5v160q-73 -92 -243 -92q-48 0 -90 10.5t-81 35.5
t-66 63.5t-43.5 97t-16.5 133.5v235q0 75 16.5 133.5t43.5 97t66 63.5t81 35.5t90 10.5q170 0 243 -92v64q0 7 5.5 12.5t15.5 5.5h67q8 0 13.5 -5.5t5.5 -12.5zM653 352v285q0 100 -61 158.5t-162 58.5q-43 0 -78.5 -12t-66.5 -39t-48.5 -77.5t-17.5 -121.5v-219
q0 -71 17.5 -121.5t48.5 -77.5t66.5 -39t78.5 -12q101 0 162 58.5t61 158.5zM440 1028q-192 0 -202 162q0 8 5 13t13 5h70q6 0 12 -5.5t6 -12.5q4 -30 31.5 -49t64.5 -19q36 0 64.5 19t32.5 49q0 7 5 12.5t11 5.5h70q7 0 12.5 -5t5.5 -13q-8 -162 -201 -162z" />
    <glyph glyph-name="Gdotaccent" unicode="&#x120;" horiz-adv-x="915" 
d="M772 651q10 0 15.5 -5.5t5.5 -12.5v-615q0 -7 -5.5 -12.5t-15.5 -5.5h-57q-8 0 -13.5 5.5t-5.5 12.5v80q-81 -108 -237 -108q-150 0 -248 89.5t-98 223.5v664q0 134 98 223.5t248 89.5q142 0 233.5 -83t100.5 -210q0 -7 -5.5 -12.5t-13.5 -5.5h-67q-10 0 -15.5 5.5
t-5.5 12.5q-16 97 -79 146t-148 49q-46 0 -88 -14t-76.5 -42.5t-55 -77.5t-20.5 -112v-602q0 -63 20.5 -112t55 -77.5t76.5 -42.5t88 -14q85 0 148 49t79 146v270h-127q-16 0 -16 18v64q0 16 16 16h213zM403 1399q0 26 16.5 43.5t41.5 17.5q26 0 43.5 -17.5t17.5 -43.5
q0 -25 -17.5 -41.5t-43.5 -16.5q-25 0 -41.5 16.5t-16.5 41.5z" />
    <glyph glyph-name="gdotaccent" unicode="&#x121;" 
d="M760 924v-959q0 -136 -75 -222.5t-224 -86.5q-72 0 -129.5 24.5t-89 60.5t-48 71.5t-16.5 64.5q0 7 5.5 13t13.5 6h59q4 0 7 -1t5 -3.5t3 -4t2.5 -5.5t2.5 -5q27 -56 68.5 -89.5t116.5 -33.5q92 0 142 59.5t50 155.5v160q-73 -92 -243 -92q-48 0 -90 10.5t-81 35.5
t-66 63.5t-43.5 97t-16.5 133.5v235q0 75 16.5 133.5t43.5 97t66 63.5t81 35.5t90 10.5q170 0 243 -92v64q0 7 5.5 12.5t15.5 5.5h67q8 0 13.5 -5.5t5.5 -12.5zM653 352v285q0 100 -61 158.5t-162 58.5q-43 0 -78.5 -12t-66.5 -39t-48.5 -77.5t-17.5 -121.5v-219
q0 -71 17.5 -121.5t48.5 -77.5t66.5 -39t78.5 -12q101 0 162 58.5t61 158.5zM360 1085q0 26 16.5 44t41.5 18q26 0 43.5 -18t17.5 -44q0 -25 -17.5 -41t-43.5 -16q-25 0 -41.5 16t-16.5 41z" />
    <glyph glyph-name="uni0122" unicode="&#x122;" horiz-adv-x="915" 
d="M772 651q10 0 15.5 -5.5t5.5 -12.5v-615q0 -7 -5.5 -12.5t-15.5 -5.5h-57q-8 0 -13.5 5.5t-5.5 12.5v80q-81 -108 -237 -108q-150 0 -248 89.5t-98 223.5v664q0 134 98 223.5t248 89.5q142 0 233.5 -83t100.5 -210q0 -7 -5.5 -12.5t-13.5 -5.5h-67q-10 0 -15.5 5.5
t-5.5 12.5q-16 97 -79 146t-148 49q-46 0 -88 -14t-76.5 -42.5t-55 -77.5t-20.5 -112v-602q0 -63 20.5 -112t55 -77.5t76.5 -42.5t88 -14q85 0 148 49t79 146v270h-127q-16 0 -16 18v64q0 16 16 16h213zM459 -340l49 234q0 15 -19 18h-57q-17 -3 -20 -18l-72 -234
q0 -14 16 -18h84q13 3 19 18z" />
    <glyph glyph-name="uni0123" unicode="&#x123;" 
d="M760 924v-959q0 -136 -75 -222.5t-224 -86.5q-72 0 -129.5 24.5t-89 60.5t-48 71.5t-16.5 64.5q0 7 5.5 13t13.5 6h59q4 0 7 -1t5 -3.5t3 -4t2.5 -5.5t2.5 -5q27 -56 68.5 -89.5t116.5 -33.5q92 0 142 59.5t50 155.5v160q-73 -92 -243 -92q-48 0 -90 10.5t-81 35.5
t-66 63.5t-43.5 97t-16.5 133.5v235q0 75 16.5 133.5t43.5 97t66 63.5t81 35.5t90 10.5q170 0 243 -92v64q0 7 5.5 12.5t15.5 5.5h67q8 0 13.5 -5.5t5.5 -12.5zM653 352v285q0 100 -61 158.5t-162 58.5q-43 0 -78.5 -12t-66.5 -39t-48.5 -77.5t-17.5 -121.5v-219
q0 -71 17.5 -121.5t48.5 -77.5t66.5 -39t78.5 -12q101 0 162 58.5t61 158.5zM256 1106l219 135q8 4 12 4q13 0 19 -6l53 -61q4 -4 4 -13q0 -13 -6 -16l-231 -117q-8 -4 -19 -4q-10 0 -14 4l-39 45q-4 4 -4 13q0 10 6 16z" />
    <glyph glyph-name="Hcircumflex" unicode="&#x124;" horiz-adv-x="903" 
d="M674 18v523h-445v-523q0 -7 -5 -12.5t-13 -5.5h-68q-10 0 -15 5.5t-5 12.5v1229q0 7 5 13t15 6h68q8 0 13 -6t5 -13v-608h445v608q0 7 5 13t15 6h68q8 0 13 -6t5 -13v-1229q0 -7 -5 -12.5t-13 -5.5h-68q-10 0 -15 5.5t-5 12.5zM395 1610h111q13 0 20 -21l84 -229
q0 -8 -5.5 -13.5t-14.5 -5.5h-60q-12 0 -20 19l-59 162l-60 -162q-8 -19 -20 -19h-60q-9 0 -14.5 5.5t-5.5 13.5l84 229q7 21 20 21z" />
    <glyph glyph-name="hcircumflex" unicode="&#x125;" 
d="M664 18v586q0 71 -17.5 121.5t-48.5 77.5t-66.5 39t-78.5 12q-101 0 -162.5 -58.5t-61.5 -158.5v-619q0 -7 -5 -12.5t-15 -5.5h-68q-8 0 -13 5.5t-5 12.5v1229q0 7 5 13t13 6h68q10 0 15 -6t5 -13v-387q73 92 244 92q48 0 90 -10.5t81 -35.5t66 -63.5t43.5 -97
t16.5 -133.5v-594q0 -7 -5 -12.5t-15 -5.5h-68q-8 0 -13 5.5t-5 12.5zM242 1610h110q14 0 21 -21l84 -229q0 -8 -6 -13.5t-15 -5.5h-59q-13 0 -21 19l-59 162l-59 -162q-8 -19 -21 -19h-59q-9 0 -15 5.5t-6 13.5l84 229q7 21 21 21z" />
    <glyph glyph-name="Hbar" unicode="&#x126;" horiz-adv-x="1013" 
d="M80 1075h98v172q0 7 5.5 13t15.5 6h67q8 0 13.5 -6t5.5 -13v-172h444v172q0 7 5.5 13t15.5 6h67q8 0 13.5 -6t5.5 -13v-172h98q7 0 12.5 -5t5.5 -15v-68q0 -8 -5.5 -13t-12.5 -5h-98v-951q0 -7 -5.5 -12.5t-13.5 -5.5h-67q-10 0 -15.5 5.5t-5.5 12.5v523h-444v-523
q0 -7 -5.5 -12.5t-13.5 -5.5h-67q-10 0 -15.5 5.5t-5.5 12.5v951h-98q-7 0 -13 5t-6 13v68q0 10 6 15t13 5zM285 639h444v330h-444v-330z" />
    <glyph glyph-name="hbar" unicode="&#x127;" horiz-adv-x="935" 
d="M176 1053h-96q-7 0 -13 5t-6 13v68q0 10 6 15t13 5h96v88q0 7 5.5 13t13.5 6h67q10 0 15.5 -6t5.5 -13v-88h135q7 0 12.5 -5t5.5 -15v-68q0 -8 -5.5 -13t-12.5 -5h-135v-193q73 92 243 92q48 0 90 -10.5t81 -35.5t66 -63.5t43.5 -97t16.5 -133.5v-594q0 -7 -5 -12.5
t-15 -5.5h-68q-8 0 -13 5.5t-5 12.5v586q0 71 -17.5 121.5t-48.5 77.5t-66.5 39t-78.5 12q-101 0 -162 -58.5t-61 -158.5v-619q0 -7 -5.5 -12.5t-15.5 -5.5h-67q-8 0 -13.5 5.5t-5.5 12.5v1035z" />
    <glyph glyph-name="Itilde" unicode="&#x128;" horiz-adv-x="352" 
d="M123 18v1229q0 7 5 13t15 6h68q8 0 13 -6t5 -13v-1229q0 -7 -5 -12.5t-13 -5.5h-68q-10 0 -15 5.5t-5 12.5zM264 1341q-42 0 -94 23q-32 16 -61 16q-15 0 -39 -12t-29 -12q-6 0 -14 8l-35 43q-4 8 -4 12q0 8 6 17q19 21 46.5 36t47.5 15q18 0 66 -19q46 -20 90 -20
q15 0 38.5 12.5t28.5 12.5q6 0 15 -9l34 -43q5 -10 5 -12q0 -5 -7 -16q-19 -21 -46.5 -36.5t-47.5 -15.5z" />
    <glyph glyph-name="itilde" unicode="&#x129;" horiz-adv-x="352" 
d="M123 18v906q0 7 5 12.5t15 5.5h68q8 0 13 -5.5t5 -12.5v-906q0 -7 -5 -12.5t-13 -5.5h-68q-10 0 -15 5.5t-5 12.5zM264 1028q-42 0 -94 23q-32 16 -61 16q-15 0 -39 -12.5t-29 -12.5t-14 9l-35 43q-4 8 -4 12q0 7 6 16q19 21 46.5 36.5t47.5 15.5q18 0 66 -19
q46 -20 90 -20q15 0 38.5 12t28.5 12q7 0 15 -8l34 -43q5 -10 5 -12q0 -6 -7 -17q-19 -21 -46.5 -36t-47.5 -15z" />
    <glyph glyph-name="Imacron" unicode="&#x12a;" horiz-adv-x="352" 
d="M123 18v1229q0 7 5 13t15 6h68q8 0 13 -6t5 -13v-1229q0 -7 -5 -12.5t-13 -5.5h-68q-10 0 -15 5.5t-5 12.5zM-16 1448h387q7 0 12.5 -5.5t5.5 -15.5v-67q0 -8 -5.5 -13.5t-12.5 -5.5h-387q-7 0 -13 5.5t-6 13.5v67q0 10 6 15.5t13 5.5z" />
    <glyph glyph-name="imacron" unicode="&#x12b;" horiz-adv-x="335" 
d="M123 18v906q0 7 5 12.5t15 5.5h68q8 0 13 -5.5t5 -12.5v-906q0 -7 -5 -12.5t-13 -5.5h-68q-10 0 -15 5.5t-5 12.5zM-18 1135h387q7 0 12.5 -5.5t5.5 -15.5v-67q0 -8 -5.5 -13.5t-12.5 -5.5h-387q-7 0 -13 5.5t-6 13.5v67q0 10 6 15.5t13 5.5z" />
    <glyph glyph-name="Iogonek" unicode="&#x12e;" horiz-adv-x="352" 
d="M211 0q-47 -5 -82 -44.5t-35 -90.5q0 -49 28 -72.5t66 -23.5q21 0 37 4q7 0 11 -11v-57q-2 -7 -11 -10q-14 -2 -51 -2q-174 0 -174 170q0 55 30.5 108t92.5 74v1202q0 7 5 13t15 6h68q8 0 13 -6t5 -13v-1229q0 -7 -5 -12.5t-13 -5.5z" />
    <glyph glyph-name="iogonek" unicode="&#x12f;" horiz-adv-x="352" 
d="M229 924v-906q0 -7 -5 -12.5t-13 -5.5q-47 -5 -82 -44.5t-35 -90.5q0 -49 28 -72.5t66 -23.5q21 0 37 4q7 0 11 -11v-57q-2 -7 -11 -10q-14 -2 -51 -2q-174 0 -174 170q0 55 30.5 108t92.5 74v879q0 7 5 12.5t15 5.5h68q8 0 13 -5.5t5 -12.5zM123 1053v161q0 7 5 13t15 6
h68q8 0 13 -6t5 -13v-161q0 -7 -5 -13t-13 -6h-68q-10 0 -15 6t-5 13z" />
    <glyph glyph-name="Idotaccent" unicode="&#x130;" horiz-adv-x="352" 
d="M123 18v1229q0 7 5 13t15 6h68q8 0 13 -6t5 -13v-1229q0 -7 -5 -12.5t-13 -5.5h-68q-10 0 -15 5.5t-5 12.5zM123 1360v162q0 7 5 12.5t15 5.5h68q8 0 13 -5.5t5 -12.5v-162q0 -7 -5 -13t-13 -6h-68q-10 0 -15 6t-5 13z" />
    <glyph glyph-name="dotlessi" unicode="&#x131;" horiz-adv-x="352" 
d="M123 18v906q0 7 5 12.5t15 5.5h68q8 0 13 -5.5t5 -12.5v-906q0 -7 -5 -12.5t-13 -5.5h-68q-10 0 -15 5.5t-5 12.5z" />
    <glyph glyph-name="Jcircumflex" unicode="&#x134;" horiz-adv-x="794" 
d="M51 272q0 7 5.5 13t15.5 6h69q8 0 13.5 -6t5.5 -13q5 -80 59 -132t139 -52q94 0 150.5 59.5t56.5 165.5v934q0 7 5.5 13t15.5 6h67q8 0 13.5 -6t5.5 -13v-942q0 -158 -88 -237.5t-226 -79.5q-128 0 -217.5 83t-89.5 201zM561 1610h-110q-14 0 -21 -21l-84 -229
q0 -8 6 -13.5t15 -5.5h59q12 0 20 19l60 162l59 -162q8 -19 21 -19h59q9 0 15 5.5t6 13.5l-84 229q-7 21 -21 21z" />
    <glyph glyph-name="jcircumflex" unicode="&#x135;" horiz-adv-x="352" 
d="M-84 -233h14q39 0 69.5 7.5t51 18t34.5 30.5t21.5 37.5t11 46.5t4.5 49t1 54v914q0 7 5 12.5t15 5.5h68q8 0 13 -5.5t5 -12.5v-947q0 -91 -17.5 -153t-53 -96t-81 -48t-110.5 -14h-51q-6 0 -11 5t-5 12v65q0 19 16 19zM231 1296h-110q-14 0 -21 -20l-84 -229
q0 -8 6 -13.5t15 -5.5h59q13 0 21 19l59 161l60 -161q8 -19 20 -19h59q9 0 15 5.5t6 13.5l-84 229q-7 20 -21 20z" />
    <glyph glyph-name="uni0136" unicode="&#x136;" horiz-adv-x="864" 
d="M229 272v-254q0 -7 -5 -12.5t-13 -5.5h-68q-10 0 -15 5.5t-5 12.5v1229q0 7 5 13t15 6h68q8 0 13 -6t5 -13v-772l426 772q9 19 25 19h70q10 0 15 -6t5 -13l-262 -473l295 -756q0 -7 -5.5 -12.5t-15.5 -5.5h-65q-14 0 -23 18l-252 637zM459 -340l49 234q0 15 -19 18h-57
q-17 -3 -20 -18l-72 -234q0 -14 16 -18h84q13 3 19 18z" />
    <glyph glyph-name="uni0137" unicode="&#x137;" horiz-adv-x="835" 
d="M229 367l355 557q12 18 26 18h72q10 0 15 -5.5t5 -12.5l-157 -250l250 -656q0 -7 -5.5 -12.5t-15.5 -5.5h-65q-8 0 -14.5 5.5t-8.5 12.5l-211 549l-246 -385v-164q0 -7 -5 -12.5t-13 -5.5h-68q-10 0 -15 5.5t-5 12.5v1229q0 7 5 13t15 6h68q8 0 13 -6t5 -13v-880z
M455 -340l49 234q0 15 -19 18h-57q-17 -3 -20 -18l-72 -234q0 -14 16 -18h84q13 3 19 18z" />
    <glyph glyph-name="kgreenlandic" unicode="&#x138;" horiz-adv-x="835" 
d="M229 367l355 557q12 18 26 18h72q10 0 15 -5.5t5 -12.5l-157 -250l250 -656q0 -7 -5.5 -12.5t-15.5 -5.5h-65q-8 0 -14.5 5.5t-8.5 12.5l-211 549l-246 -385v-164q0 -7 -5 -12.5t-13 -5.5h-68q-10 0 -15 5.5t-5 12.5v906q0 7 5 12.5t15 5.5h68q8 0 13 -5.5t5 -12.5v-557z
" />
    <glyph glyph-name="Lacute" unicode="&#x139;" horiz-adv-x="710" 
d="M123 18v1229q0 7 5 13t15 6h68q8 0 13 -6t5 -13v-1149h394q16 0 16 -18v-64q0 -16 -16 -16h-480q-10 0 -15 5.5t-5 12.5zM137 1419l219 135q10 5 13 5q11 0 18 -7l53 -61q4 -4 4 -12q0 -14 -6 -17l-231 -116q-10 -5 -19 -5t-14 5l-39 45q-4 4 -4 12q0 10 6 16z" />
    <glyph glyph-name="lacute" unicode="&#x13a;" horiz-adv-x="352" 
d="M229 1247v-1229q0 -7 -5 -12.5t-15 -5.5h-68q-8 0 -13 5.5t-5 12.5v1229q0 7 5 13t13 6h68q10 0 15 -6t5 -13zM27 1419l219 135q10 5 12 5q11 0 18 -7l54 -61q4 -4 4 -12q0 -14 -6 -17l-232 -116q-10 -5 -18 -5q-10 0 -15 5l-38 45q-5 5 -5 12q0 9 7 16z" />
    <glyph glyph-name="uni013B" unicode="&#x13b;" horiz-adv-x="710" 
d="M123 18v1229q0 7 5 13t15 6h68q8 0 13 -6t5 -13v-1149h394q16 0 16 -18v-64q0 -16 -16 -16h-480q-10 0 -15 5.5t-5 12.5zM440 -106l-49 -234q-6 -15 -18 -18h-84q-17 4 -17 18l72 234q3 14 21 18h57q18 -3 18 -18z" />
    <glyph glyph-name="uni013C" unicode="&#x13c;" horiz-adv-x="352" 
d="M123 18v1229q0 7 5 13t15 6h68q8 0 13 -6t5 -13v-1229q0 -7 -5 -12.5t-13 -5.5h-68q-10 0 -15 5.5t-5 12.5zM176 -340l49 234q0 15 -18 18h-57q-18 -4 -21 -18l-72 -234q0 -14 17 -18h84q12 3 18 18z" />
    <glyph glyph-name="Lcaron" unicode="&#x13d;" horiz-adv-x="710" 
d="M123 18v1229q0 7 5 13t15 6h68q8 0 13 -6t5 -13v-1149h394q16 0 16 -18v-64q0 -16 -16 -16h-480q-10 0 -15 5.5t-5 12.5zM461 1014l49 233q6 16 18 19h84q17 -4 17 -19l-72 -233q-3 -16 -20 -19h-58q-18 3 -18 19z" />
    <glyph glyph-name="lcaron" unicode="&#x13e;" horiz-adv-x="632" 
d="M123 18v1229q0 7 5 13t15 6h68q8 0 13 -6t5 -13v-1229q0 -7 -5 -12.5t-13 -5.5h-68q-10 0 -15 5.5t-5 12.5zM481 1247l-49 -233q0 -16 19 -19h57q17 3 20 19l72 233q0 15 -16 19h-84q-13 -3 -19 -19z" />
    <glyph glyph-name="Lslash" unicode="&#x141;" horiz-adv-x="847" 
d="M760 100q16 0 16 -18v-64q0 -16 -16 -16h-479q-10 0 -15.5 5.5t-5.5 12.5v635l-184 -34q-15 0 -15 14v55q0 20 19 25l180 35v499q0 7 5.5 13t15.5 6h67q8 0 13.5 -6t5.5 -13v-481l184 35q18 0 18 -17v-55q0 -20 -18 -22l-184 -35v-574h393z" />
    <glyph glyph-name="lslash" unicode="&#x142;" horiz-adv-x="630" 
d="M551 801q18 0 18 -17v-55q0 -20 -18 -22l-182 -33v-656q0 -7 -5.5 -12.5t-13.5 -5.5h-67q-10 0 -15.5 5.5t-5.5 12.5v635l-186 -35q-5 0 -10 4t-5 11v55q0 20 19 25l182 35v499q0 7 5.5 13t15.5 6h67q8 0 13.5 -6t5.5 -13v-479z" />
    <glyph glyph-name="Nacute" unicode="&#x143;" horiz-adv-x="921" 
d="M688 14l-459 961v-957q0 -7 -5 -12.5t-13 -5.5h-68q-10 0 -15 5.5t-5 12.5v1229q0 7 5 13t15 6h64q12 0 22 -15l463 -970v966q0 7 5.5 13t13.5 6h67q10 0 15.5 -6t5.5 -13v-1229q0 -7 -5.5 -12.5t-15.5 -5.5h-67q-14 0 -23 14zM311 1419l219 135q10 5 13 5q11 0 18 -7
l53 -61q4 -4 4 -12q0 -14 -6 -17l-231 -116q-10 -5 -19 -5t-14 5l-39 45q-4 4 -4 12q0 10 6 16z" />
    <glyph glyph-name="nacute" unicode="&#x144;" 
d="M664 18v586q0 71 -17.5 121.5t-48.5 77.5t-66.5 39t-78.5 12q-101 0 -162.5 -58.5t-61.5 -158.5v-619q0 -7 -5 -12.5t-15 -5.5h-68q-8 0 -13 5.5t-5 12.5v906q0 7 5 12.5t13 5.5h68q10 0 15 -5.5t5 -12.5v-64q73 92 244 92q48 0 90 -10.5t81 -35.5t66 -63.5t43.5 -97
t16.5 -133.5v-594q0 -7 -5 -12.5t-15 -5.5h-68q-8 0 -13 5.5t-5 12.5zM297 1106l219 135q8 4 12 4q13 0 19 -6l53 -61q4 -4 4 -13q0 -13 -6 -16l-231 -117q-8 -4 -19 -4q-10 0 -14 4l-39 45q-4 4 -4 13q0 10 6 16z" />
    <glyph glyph-name="uni0145" unicode="&#x145;" horiz-adv-x="921" 
d="M688 14l-459 961v-957q0 -7 -5 -12.5t-13 -5.5h-68q-10 0 -15 5.5t-5 12.5v1229q0 7 5 13t15 6h64q12 0 22 -15l463 -970v966q0 7 5.5 13t13.5 6h67q10 0 15.5 -6t5.5 -13v-1229q0 -7 -5.5 -12.5t-15.5 -5.5h-67q-14 0 -23 14zM518 -106l-49 -234q-6 -15 -18 -18h-84
q-17 4 -17 18l72 234q3 15 20 18h58q18 -3 18 -18z" />
    <glyph glyph-name="uni0146" unicode="&#x146;" 
d="M664 18v586q0 71 -17.5 121.5t-48.5 77.5t-66.5 39t-78.5 12q-101 0 -162.5 -58.5t-61.5 -158.5v-619q0 -7 -5 -12.5t-15 -5.5h-68q-8 0 -13 5.5t-5 12.5v906q0 7 5 12.5t13 5.5h68q10 0 15 -5.5t5 -12.5v-64q73 92 244 92q48 0 90 -10.5t81 -35.5t66 -63.5t43.5 -97
t16.5 -133.5v-594q0 -7 -5 -12.5t-15 -5.5h-68q-8 0 -13 5.5t-5 12.5zM469 -340l49 234q0 15 -18 18h-58q-17 -3 -20 -18l-72 -234q0 -14 17 -18h84q12 3 18 18z" />
    <glyph glyph-name="Ncaron" unicode="&#x147;" horiz-adv-x="921" 
d="M688 14l-459 961v-957q0 -7 -5 -12.5t-13 -5.5h-68q-10 0 -15 5.5t-5 12.5v1229q0 7 5 13t15 6h64q12 0 22 -15l463 -970v966q0 7 5.5 13t13.5 6h67q10 0 15.5 -6t5.5 -13v-1229q0 -7 -5.5 -12.5t-15.5 -5.5h-67q-14 0 -23 14zM408 1341h110q14 0 21 21l84 229
q0 8 -6 13.5t-15 5.5h-59q-13 0 -21 -19l-59 -161l-60 161q-8 19 -20 19h-59q-9 0 -15 -5.5t-6 -13.5l84 -229q7 -21 21 -21z" />
    <glyph glyph-name="ncaron" unicode="&#x148;" 
d="M664 18v586q0 71 -17.5 121.5t-48.5 77.5t-66.5 39t-78.5 12q-101 0 -162.5 -58.5t-61.5 -158.5v-619q0 -7 -5 -12.5t-15 -5.5h-68q-8 0 -13 5.5t-5 12.5v906q0 7 5 12.5t13 5.5h68q10 0 15 -5.5t5 -12.5v-64q73 92 244 92q48 0 90 -10.5t81 -35.5t66 -63.5t43.5 -97
t16.5 -133.5v-594q0 -7 -5 -12.5t-15 -5.5h-68q-8 0 -13 5.5t-5 12.5zM508 1028h-111q-13 0 -20 21l-84 229q0 18 20 18h60q13 0 20 -18l60 -162l59 162q7 18 20 18h60q20 0 20 -18l-84 -229q-7 -21 -20 -21z" />
    <glyph glyph-name="Eng" unicode="&#x14a;" horiz-adv-x="921" 
d="M485 -233h15q39 0 69 7.5t50.5 18t34.5 30.5t21 37.5t11 45.5t5 48.5t1 53.5q-4 4 -4 6l-459 961v-957q0 -7 -5 -12.5t-13 -5.5h-68q-10 0 -15 5.5t-5 12.5v1229q0 7 5 13t15 6h64q12 0 22 -15l463 -970v966q0 7 5.5 13t13.5 6h67q10 0 15.5 -6t5.5 -13v-1270
q0 -91 -17.5 -153t-53 -96t-81 -48t-110.5 -14h-52q-6 0 -11 5t-5 12v65q0 19 16 19z" />
    <glyph glyph-name="eng" unicode="&#x14b;" 
d="M770 612v-635q0 -91 -17.5 -153t-53 -96t-81 -48t-110.5 -14h-51q-6 0 -11.5 5t-5.5 12v65q0 8 5 13.5t12 5.5h14q39 0 69.5 7.5t51 18t34.5 30.5t21.5 37.5t11 46.5t4.5 49t1 54v594q0 71 -17.5 121.5t-48.5 77.5t-66.5 39t-78.5 12q-101 0 -162.5 -58.5t-61.5 -158.5
v-619q0 -7 -5 -12.5t-15 -5.5h-68q-8 0 -13 5.5t-5 12.5v906q0 7 5 12.5t13 5.5h68q10 0 15 -5.5t5 -12.5v-64q73 92 244 92q48 0 90 -10.5t81 -35.5t66 -63.5t43.5 -97t16.5 -133.5z" />
    <glyph glyph-name="Omacron" unicode="&#x14c;" horiz-adv-x="917" 
d="M459 1280q150 0 248 -89.5t98 -223.5v-664q0 -134 -98 -223.5t-248 -89.5t-248 89.5t-98 223.5v664q0 134 98 223.5t248 89.5zM459 88q99 0 169 62t70 184v602q0 123 -70 184.5t-169 61.5q-46 0 -88 -14t-76.5 -42.5t-55 -77.5t-20.5 -112v-602q0 -122 70.5 -184
t169.5 -62zM266 1448h387q7 0 13 -5.5t6 -15.5v-67q0 -8 -6 -13.5t-13 -5.5h-387q-7 0 -12.5 5.5t-5.5 13.5v67q0 10 5.5 15.5t12.5 5.5z" />
    <glyph glyph-name="omacron" unicode="&#x14d;" horiz-adv-x="856" 
d="M428 952q151 0 233 -87.5t82 -221.5v-344q0 -134 -82 -221.5t-233 -87.5t-233 87.5t-82 221.5v344q0 134 82 221.5t233 87.5zM428 88q94 0 151.5 60.5t57.5 154.5v336q0 94 -57.5 154.5t-151.5 60.5t-151.5 -60.5t-57.5 -154.5v-336q0 -94 57.5 -154.5t151.5 -60.5z
M236 1135h387q7 0 12.5 -5.5t5.5 -15.5v-67q0 -8 -5.5 -13.5t-12.5 -5.5h-387q-7 0 -13 5.5t-6 13.5v67q0 10 6 15.5t13 5.5z" />
    <glyph glyph-name="Ohungarumlaut" unicode="&#x150;" horiz-adv-x="917" 
d="M459 1280q150 0 248 -89.5t98 -223.5v-664q0 -134 -98 -223.5t-248 -89.5t-248 89.5t-98 223.5v664q0 134 98 223.5t248 89.5zM459 88q99 0 169 62t70 184v602q0 123 -70 184.5t-169 61.5q-46 0 -88 -14t-76.5 -42.5t-55 -77.5t-20.5 -112v-602q0 -122 70.5 -184
t169.5 -62zM285 1360l39 201q6 15 18 18h84q16 -4 16 -18l-61 -201q-3 -15 -21 -19h-57q-18 3 -18 19zM530 1360l39 201q6 15 19 18h84q16 -4 16 -18l-61 -201q-3 -15 -21 -19h-57q-19 3 -19 19z" />
    <glyph glyph-name="ohungarumlaut" unicode="&#x151;" horiz-adv-x="856" 
d="M428 952q151 0 233 -87.5t82 -221.5v-344q0 -134 -82 -221.5t-233 -87.5t-233 87.5t-82 221.5v344q0 134 82 221.5t233 87.5zM428 88q94 0 151.5 60.5t57.5 154.5v336q0 94 -57.5 154.5t-151.5 60.5t-151.5 -60.5t-57.5 -154.5v-336q0 -94 57.5 -154.5t151.5 -60.5z
M258 1047l39 200q6 16 18 19h84q17 -4 17 -19l-62 -200q-3 -16 -20 -19h-58q-18 3 -18 19zM504 1047l39 200q6 16 18 19h84q17 -4 17 -19l-62 -200q-3 -16 -20 -19h-58q-18 3 -18 19z" />
    <glyph glyph-name="OE" unicode="&#x152;" horiz-adv-x="1296" 
d="M1178 1167h-394v-526h281q16 0 16 -18v-64q0 -16 -16 -16h-281v-445h394q16 0 16 -18v-64q0 -16 -16 -16h-719q-150 0 -248 89.5t-98 223.5v639q0 134 98 224t248 90h719q16 0 16 -19v-63q0 -7 -5 -12t-11 -5zM678 98v1069h-219q-63 0 -115.5 -23.5t-88.5 -80.5t-36 -141
v-578q0 -63 20.5 -112t55 -77.5t76.5 -42.5t88 -14h219z" />
    <glyph glyph-name="oe" unicode="&#x153;" horiz-adv-x="1384" 
d="M1253 436h-510v-133q0 -94 57.5 -154.5t151.5 -60.5q77 0 126.5 35t74.5 88q0 1 1.5 3.5t2 3.5t2 3.5t2.5 3t3 2t4.5 2t5.5 0.5h59q8 0 13 -5.5t5 -12.5q0 -28 -19 -64.5t-53.5 -72t-94.5 -60t-132 -24.5q-177 0 -262 123q-85 -123 -262 -123q-151 0 -233 87.5t-82 221.5
v344q0 134 82 221.5t233 87.5q178 0 262 -125q41 60 109.5 92.5t154.5 32.5q143 0 230.5 -81t87.5 -226v-190q0 -7 -5.5 -13t-13.5 -6zM428 88q92 0 150.5 57.5t58.5 147.5v352q0 90 -58 149.5t-151 59.5q-94 0 -151.5 -60.5t-57.5 -154.5v-336q0 -94 57.5 -154.5
t151.5 -60.5zM1165 532v109q0 94 -58 153.5t-155 59.5q-92 0 -150.5 -58.5t-58.5 -152.5v-111h422z" />
    <glyph glyph-name="Racute" unicode="&#x154;" horiz-adv-x="868" 
d="M645 18l-133 416q-18 -4 -55 -4h-228v-412q0 -7 -5 -12.5t-13 -5.5h-68q-10 0 -15 5.5t-5 12.5v1229q0 7 5 13t15 6h314q137 0 233 -94.5t96 -266.5v-114q0 -119 -48.5 -202.5t-129.5 -123.5l140 -447q0 -7 -5.5 -12.5t-15.5 -5.5h-61q-16 0 -21 18zM229 1167v-639h217
q44 0 83.5 14t74.5 44t55.5 84.5t20.5 128.5v98q0 74 -20.5 128.5t-55.5 84t-74.5 43.5t-83.5 14h-217zM303 1419l219 135q10 5 13 5q11 0 18 -7l53 -61q4 -4 4 -12q0 -14 -6 -17l-231 -116q-10 -5 -19 -5t-14 5l-39 45q-4 4 -4 12q0 10 6 16z" />
    <glyph glyph-name="racute" unicode="&#x155;" horiz-adv-x="606" 
d="M553 942q7 0 12.5 -5t5.5 -15v-66q0 -8 -5.5 -13t-12.5 -5q-51 -7 -105 -36.5t-104 -78.5t-82.5 -127.5t-32.5 -171.5v-406q0 -7 -5 -12.5t-15 -5.5h-68q-8 0 -13 5.5t-5 12.5v906q0 7 5 12.5t13 5.5h68q10 0 15 -5.5t5 -12.5v-185q71 105 160.5 154t163.5 49zM145 1106
l220 135q8 4 12 4q12 0 18 -6l54 -61q4 -4 4 -13q0 -13 -7 -16l-231 -117q-8 -4 -18 -4q-11 0 -15 4l-39 45q-4 4 -4 13q0 10 6 16z" />
    <glyph glyph-name="uni0156" unicode="&#x156;" horiz-adv-x="868" 
d="M645 18l-133 416q-18 -4 -55 -4h-228v-412q0 -7 -5 -12.5t-13 -5.5h-68q-10 0 -15 5.5t-5 12.5v1229q0 7 5 13t15 6h314q137 0 233 -94.5t96 -266.5v-114q0 -119 -48.5 -202.5t-129.5 -123.5l140 -447q0 -7 -5.5 -12.5t-15.5 -5.5h-61q-16 0 -21 18zM229 1167v-639h217
q44 0 83.5 14t74.5 44t55.5 84.5t20.5 128.5v98q0 74 -20.5 128.5t-55.5 84t-74.5 43.5t-83.5 14h-217zM436 -340l49 234q0 15 -18 18h-57q-18 -4 -21 -18l-72 -234q0 -14 17 -18h84q12 3 18 18z" />
    <glyph glyph-name="uni0157" unicode="&#x157;" horiz-adv-x="606" 
d="M553 942q7 0 12.5 -5t5.5 -15v-66q0 -8 -5.5 -13t-12.5 -5q-51 -7 -105 -36.5t-104 -78.5t-82.5 -127.5t-32.5 -171.5v-406q0 -7 -5 -12.5t-15 -5.5h-68q-8 0 -13 5.5t-5 12.5v906q0 7 5 12.5t13 5.5h68q10 0 15 -5.5t5 -12.5v-185q71 105 160.5 154t163.5 49zM291 -106
l-49 -234q-6 -15 -19 -18h-84q-16 4 -16 18l72 234q3 15 20 18h57q19 -3 19 -18z" />
    <glyph glyph-name="Rcaron" unicode="&#x158;" horiz-adv-x="868" 
d="M645 18l-133 416q-18 -4 -55 -4h-228v-412q0 -7 -5 -12.5t-13 -5.5h-68q-10 0 -15 5.5t-5 12.5v1229q0 7 5 13t15 6h314q137 0 233 -94.5t96 -266.5v-114q0 -119 -48.5 -202.5t-129.5 -123.5l140 -447q0 -7 -5.5 -12.5t-15.5 -5.5h-61q-16 0 -21 18zM229 1167v-639h217
q44 0 83.5 14t74.5 44t55.5 84.5t20.5 128.5v98q0 74 -20.5 128.5t-55.5 84t-74.5 43.5t-83.5 14h-217zM453 1341h-111q-13 0 -20 21l-84 229q0 8 5.5 13.5t14.5 5.5h59q13 0 21 -19l59 -161l60 161q8 19 20 19h60q9 0 14.5 -5.5t5.5 -13.5l-84 -229q-7 -21 -20 -21z" />
    <glyph glyph-name="rcaron" unicode="&#x159;" horiz-adv-x="606" 
d="M553 942q7 0 12.5 -5t5.5 -15v-66q0 -8 -5.5 -13t-12.5 -5q-51 -7 -105 -36.5t-104 -78.5t-82.5 -127.5t-32.5 -171.5v-406q0 -7 -5 -12.5t-15 -5.5h-68q-8 0 -13 5.5t-5 12.5v906q0 7 5 12.5t13 5.5h68q10 0 15 -5.5t5 -12.5v-185q71 105 160.5 154t163.5 49zM270 1028
h111q13 0 20 21l84 229q0 18 -20 18h-59q-14 0 -21 -18l-59 -162l-60 162q-7 18 -20 18h-60q-20 0 -20 -18l84 -229q7 -21 20 -21z" />
    <glyph glyph-name="Sacute" unicode="&#x15a;" horiz-adv-x="849" 
d="M672 289q0 63 -25 114.5t-65.5 86t-93 67.5t-106.5 59t-106.5 61t-93 72.5t-65.5 94.5t-25 127q0 81 26.5 142t73 96.5t103.5 53t125 17.5q61 0 115 -16t100.5 -50t74 -96t27.5 -145q0 -7 -5 -13t-13 -6h-68q-10 0 -15 6t-5 13q0 209 -209 209q-62 0 -107.5 -18t-67 -40
t-33.5 -55t-13.5 -49.5t-1.5 -36.5q0 -56 20 -101.5t53.5 -78t76.5 -60.5t91.5 -52.5t96.5 -50.5t91 -59t76.5 -72t53.5 -96t20 -126q0 -148 -94.5 -222.5t-243.5 -74.5q-49 0 -94.5 9.5t-90.5 32.5t-78.5 57t-54 87.5t-20.5 120.5q0 7 5.5 12.5t13.5 5.5h67q10 0 15.5 -5.5
t5.5 -12.5q0 -38 10.5 -72t35 -66.5t71.5 -51.5t112 -19q63 0 109 16t69 37.5t36.5 52.5t16.5 51.5t3 43.5zM287 1419l219 135q10 5 12 5q12 0 19 -7l53 -61q4 -4 4 -12q0 -14 -6 -17l-232 -116q-10 -5 -18 -5q-9 0 -14 5l-39 45q-4 4 -4 12q0 10 6 16z" />
    <glyph glyph-name="sacute" unicode="&#x15b;" horiz-adv-x="727" 
d="M551 219q0 44 -26 79t-68 59.5t-92.5 48t-100.5 50t-92 58t-68 79.5t-26 109q0 63 23.5 112.5t63 78.5t86.5 44t97 15q69 0 125 -25t90 -65t53 -82t25 -84q0 -7 -5 -12.5t-13 -5.5h-68q-15 0 -20 18q-8 55 -39 92t-67 51.5t-75 14.5q-18 0 -33.5 -1.5t-42.5 -9.5
t-46 -22.5t-33.5 -44.5t-14.5 -71t26 -77t68 -63t92 -53.5t100.5 -55.5t92.5 -61t68 -77t26 -99q0 -108 -85 -168.5t-189 -60.5q-75 0 -135.5 22.5t-95 59t-53 77t-19.5 80.5q0 7 5 13t13 6h68q10 0 15 -6t5 -13q5 -51 38.5 -84.5t72.5 -45t80 -11.5q20 0 43.5 4.5t56 16
t53.5 40.5t21 70zM195 1106l219 135q8 4 12 4q12 0 18 -6l54 -61q4 -4 4 -13q0 -13 -6 -16l-232 -117q-8 -4 -18 -4q-11 0 -15 4l-38 45q-5 5 -5 13q0 9 7 16z" />
    <glyph glyph-name="Scircumflex" unicode="&#x15c;" horiz-adv-x="849" 
d="M672 289q0 63 -25 114.5t-65.5 86t-93 67.5t-106.5 59t-106.5 61t-93 72.5t-65.5 94.5t-25 127q0 81 26.5 142t73 96.5t103.5 53t125 17.5q61 0 115 -16t100.5 -50t74 -96t27.5 -145q0 -7 -5 -13t-13 -6h-68q-10 0 -15 6t-5 13q0 209 -209 209q-62 0 -107.5 -18t-67 -40
t-33.5 -55t-13.5 -49.5t-1.5 -36.5q0 -56 20 -101.5t53.5 -78t76.5 -60.5t91.5 -52.5t96.5 -50.5t91 -59t76.5 -72t53.5 -96t20 -126q0 -148 -94.5 -222.5t-243.5 -74.5q-49 0 -94.5 9.5t-90.5 32.5t-78.5 57t-54 87.5t-20.5 120.5q0 7 5.5 12.5t13.5 5.5h67q10 0 15.5 -5.5
t5.5 -12.5q0 -38 10.5 -72t35 -66.5t71.5 -51.5t112 -19q63 0 109 16t69 37.5t36.5 52.5t16.5 51.5t3 43.5zM473 1610h-111q-13 0 -20 -21l-84 -229q0 -8 6 -13.5t15 -5.5h59q12 0 20 19l60 162l59 -162q8 -19 21 -19h59q9 0 15 5.5t6 13.5l-84 229q-7 21 -21 21z" />
    <glyph glyph-name="scircumflex" unicode="&#x15d;" horiz-adv-x="727" 
d="M551 219q0 44 -26 79t-68 59.5t-92.5 48t-100.5 50t-92 58t-68 79.5t-26 109q0 63 23.5 112.5t63 78.5t86.5 44t97 15q69 0 125 -25t90 -65t53 -82t25 -84q0 -7 -5 -12.5t-13 -5.5h-68q-15 0 -20 18q-8 55 -39 92t-67 51.5t-75 14.5q-18 0 -33.5 -1.5t-42.5 -9.5
t-46 -22.5t-33.5 -44.5t-14.5 -71t26 -77t68 -63t92 -53.5t100.5 -55.5t92.5 -61t68 -77t26 -99q0 -108 -85 -168.5t-189 -60.5q-75 0 -135.5 22.5t-95 59t-53 77t-19.5 80.5q0 7 5 13t13 6h68q10 0 15 -6t5 -13q5 -51 38.5 -84.5t72.5 -45t80 -11.5q20 0 43.5 4.5t56 16
t53.5 40.5t21 70zM406 1296h-111q-14 0 -21 -20l-84 -229q0 -8 6 -13.5t15 -5.5h59q13 0 21 19l59 161l60 -161q8 -19 20 -19h59q9 0 15 5.5t6 13.5l-84 229q-7 20 -20 20z" />
    <glyph glyph-name="Scedilla" unicode="&#x15e;" horiz-adv-x="849" 
d="M500 -6l-51 -238q-3 -13 -17 -16h-76q-14 5 -14 16l68 236q-58 3 -110 21t-98 52.5t-73 94t-27 137.5q0 7 5.5 12.5t13.5 5.5h67q10 0 15.5 -5.5t5.5 -12.5q0 -38 10.5 -72t35 -66.5t71.5 -51.5t112 -19q63 0 109 16t69 37.5t36.5 52.5t16.5 51.5t3 43.5q0 63 -25 114.5
t-65.5 86t-93 67.5t-106.5 59t-106.5 61t-93 72.5t-65.5 94.5t-25 127q0 81 26.5 142t73 96.5t103.5 53t125 17.5q61 0 115 -16t100.5 -50t74 -96t27.5 -145q0 -7 -5 -13t-13 -6h-68q-10 0 -15 6t-5 13q0 209 -209 209q-62 0 -107.5 -18t-67 -40t-33.5 -55t-13.5 -49.5
t-1.5 -36.5q0 -56 20 -101.5t53.5 -78t76.5 -60.5t91.5 -52.5t96.5 -50.5t91 -59t76.5 -72t53.5 -96t20 -126q0 -132 -76.5 -206t-201.5 -87z" />
    <glyph glyph-name="scedilla" unicode="&#x15f;" horiz-adv-x="727" 
d="M428 -6l-51 -238q-3 -13 -17 -16h-75q-15 5 -15 16l68 236q-123 11 -189.5 83t-68.5 154q0 7 5 13t13 6h68q10 0 15 -6t5 -13q5 -51 38.5 -84.5t72.5 -45t80 -11.5q20 0 43.5 4.5t56 16t53.5 40.5t21 70q0 44 -26 79t-68 59.5t-92.5 48t-100.5 50t-92 58t-68 79.5
t-26 109q0 63 23.5 112.5t63 78.5t86.5 44t97 15q69 0 125 -25t90 -65t53 -82t25 -84q0 -7 -5 -12.5t-13 -5.5h-68q-15 0 -20 18q-8 55 -39 92t-67 51.5t-75 14.5q-18 0 -33.5 -1.5t-42.5 -9.5t-46 -22.5t-33.5 -44.5t-14.5 -71t26 -77t68 -63t92 -53.5t100.5 -55.5
t92.5 -61t68 -77t26 -99q0 -96 -68 -154.5t-161 -70.5z" />
    <glyph glyph-name="Scaron" unicode="&#x160;" horiz-adv-x="849" 
d="M672 289q0 63 -25 114.5t-65.5 86t-93 67.5t-106.5 59t-106.5 61t-93 72.5t-65.5 94.5t-25 127q0 81 26.5 142t73 96.5t103.5 53t125 17.5q61 0 115 -16t100.5 -50t74 -96t27.5 -145q0 -7 -5 -13t-13 -6h-68q-10 0 -15 6t-5 13q0 209 -209 209q-62 0 -107.5 -18t-67 -40
t-33.5 -55t-13.5 -49.5t-1.5 -36.5q0 -56 20 -101.5t53.5 -78t76.5 -60.5t91.5 -52.5t96.5 -50.5t91 -59t76.5 -72t53.5 -96t20 -126q0 -148 -94.5 -222.5t-243.5 -74.5q-49 0 -94.5 9.5t-90.5 32.5t-78.5 57t-54 87.5t-20.5 120.5q0 7 5.5 12.5t13.5 5.5h67q10 0 15.5 -5.5
t5.5 -12.5q0 -38 10.5 -72t35 -66.5t71.5 -51.5t112 -19q63 0 109 16t69 37.5t36.5 52.5t16.5 51.5t3 43.5zM365 1341h110q14 0 21 21l84 229q0 8 -6 13.5t-15 5.5h-59q-13 0 -21 -19l-59 -161l-60 161q-8 19 -20 19h-59q-9 0 -15 -5.5t-6 -13.5l84 -229q7 -21 21 -21z" />
    <glyph glyph-name="scaron" unicode="&#x161;" horiz-adv-x="727" 
d="M551 219q0 44 -26 79t-68 59.5t-92.5 48t-100.5 50t-92 58t-68 79.5t-26 109q0 63 23.5 112.5t63 78.5t86.5 44t97 15q69 0 125 -25t90 -65t53 -82t25 -84q0 -7 -5 -12.5t-13 -5.5h-68q-15 0 -20 18q-8 55 -39 92t-67 51.5t-75 14.5q-18 0 -33.5 -1.5t-42.5 -9.5
t-46 -22.5t-33.5 -44.5t-14.5 -71t26 -77t68 -63t92 -53.5t100.5 -55.5t92.5 -61t68 -77t26 -99q0 -108 -85 -168.5t-189 -60.5q-75 0 -135.5 22.5t-95 59t-53 77t-19.5 80.5q0 7 5 13t13 6h68q10 0 15 -6t5 -13q5 -51 38.5 -84.5t72.5 -45t80 -11.5q20 0 43.5 4.5t56 16
t53.5 40.5t21 70zM305 1028h111q13 0 20 21l84 229q0 18 -20 18h-60q-13 0 -20 -18l-60 -162l-59 162q-7 18 -20 18h-60q-20 0 -20 -18l84 -229q7 -21 20 -21z" />
    <glyph glyph-name="uni0162" unicode="&#x162;" horiz-adv-x="712" 
d="M303 45v1122h-225q-6 0 -11.5 5t-5.5 12v63q0 9 5.5 14t11.5 5h557q16 0 16 -19v-63q0 -7 -5 -12t-11 -5h-225v-1149q0 -7 -5.5 -12.5t-13.5 -5.5q-47 -5 -82 -44.5t-35 -90.5q0 -48 28 -72t67 -24q21 0 37 4q6 0 10 -11v-57q-2 -7 -10 -10q-14 -2 -52 -2
q-174 0 -174 170q0 55 30.5 108t92.5 74z" />
    <glyph glyph-name="uni0163" unicode="&#x163;" horiz-adv-x="622" 
d="M442 2l-53 -246q-3 -13 -16 -16h-76q-14 5 -14 16l77 267q-137 58 -137 299v522h-155q-6 0 -11.5 4.5t-5.5 11.5v64q0 18 17 18h155v268q0 7 5.5 13t15.5 6h67q8 0 13.5 -6t5.5 -13v-268h194q17 0 17 -18v-64q0 -7 -5.5 -11.5t-11.5 -4.5h-194v-518q0 -53 7 -88.5t26 -69
t59 -51t102 -19.5q17 0 17 -18v-64q0 -7 -5.5 -11.5t-11.5 -4.5h-41q-29 0 -41 2z" />
    <glyph glyph-name="Tcaron" unicode="&#x164;" horiz-adv-x="712" 
d="M78 1266h557q16 0 16 -19v-63q0 -7 -5 -12t-11 -5h-225v-1149q0 -7 -5.5 -12.5t-13.5 -5.5h-67q-10 0 -15.5 5.5t-5.5 12.5v1149h-225q-6 0 -11.5 5t-5.5 12v63q0 9 5.5 14t11.5 5zM301 1341h111q13 0 20 21l84 229q0 8 -5.5 13.5t-14.5 5.5h-60q-12 0 -20 -19l-60 -161
l-59 161q-8 19 -21 19h-59q-9 0 -14.5 -5.5t-5.5 -13.5l84 -229q7 -21 20 -21z" />
    <glyph glyph-name="tcaron" unicode="&#x165;" horiz-adv-x="737" 
d="M524 0h-41q-127 0 -193.5 75t-66.5 247v522h-155q-6 0 -11.5 4.5t-5.5 11.5v64q0 18 17 18h155v268q0 7 5.5 13t15.5 6h67q8 0 13.5 -6t5.5 -13v-268h194q17 0 17 -18v-64q0 -7 -5.5 -11.5t-11.5 -4.5h-194v-518q0 -53 7 -88.5t26 -69t59 -51t102 -19.5q17 0 17 -18v-64
q0 -7 -5.5 -11.5t-11.5 -4.5zM549 1047l29 163q6 16 18 19h84q16 -4 16 -19l-51 -163q-3 -16 -20 -19h-58q-18 3 -18 19z" />
    <glyph glyph-name="Tbar" unicode="&#x166;" horiz-adv-x="712" 
d="M635 1266q16 0 16 -19v-63q0 -7 -5 -12t-11 -5h-225v-395h147q7 0 12.5 -5t5.5 -15v-68q0 -8 -5.5 -13t-12.5 -5h-147v-648q0 -7 -5.5 -12.5t-13.5 -5.5h-67q-10 0 -15.5 5.5t-5.5 12.5v648h-147q-7 0 -13 5t-6 13v68q0 10 6 15t13 5h147v395h-225q-6 0 -11.5 5t-5.5 12
v63q0 9 5.5 14t11.5 5h557z" />
    <glyph glyph-name="tbar" unicode="&#x167;" horiz-adv-x="622" 
d="M330 690h194q17 0 17 -18v-64q0 -7 -5.5 -11.5t-11.5 -4.5h-194v-266q0 -53 7 -88.5t26 -69t59 -51t102 -19.5q17 0 17 -18v-64q0 -7 -5.5 -11.5t-11.5 -4.5h-41q-127 0 -193.5 75t-66.5 247v270h-155q-6 0 -11.5 4.5t-5.5 11.5v64q0 18 17 18h155v262h-155q-6 0 -11.5 5
t-5.5 12v63q0 8 5.5 13.5t11.5 5.5h155v159q0 7 5.5 13t15.5 6h67q8 0 13.5 -6t5.5 -13v-159h194q6 0 11.5 -5.5t5.5 -13.5v-63q0 -7 -5.5 -12t-11.5 -5h-194v-262z" />
    <glyph glyph-name="Utilde" unicode="&#x168;" horiz-adv-x="937" 
d="M815 1247v-944q0 -134 -98 -223.5t-248 -89.5t-248 89.5t-98 223.5v944q0 7 5 13t15 6h68q8 0 13 -6t5 -13v-913q0 -122 70.5 -184t169.5 -62t169.5 62t70.5 184v913q0 7 5 13t13 6h68q10 0 15 -6t5 -13zM559 1341q-42 0 -94 23q-32 16 -62 16q-15 0 -38.5 -12t-28.5 -12
q-6 0 -14 8l-35 43q-4 8 -4 12q0 8 6 17q19 21 46.5 36t47.5 15q19 0 66 -19q46 -20 90 -20q15 0 38.5 12.5t28.5 12.5q6 0 15 -9l34 -43q4 -8 4 -12q0 -7 -6 -16q-19 -21 -46.5 -36.5t-47.5 -15.5z" />
    <glyph glyph-name="utilde" unicode="&#x169;" 
d="M219 924v-586q0 -71 17.5 -121.5t48.5 -77.5t66.5 -39t78.5 -12q101 0 162 58.5t61 158.5v619q0 7 5.5 12.5t15.5 5.5h67q8 0 13.5 -5.5t5.5 -12.5v-906q0 -7 -5.5 -12.5t-13.5 -5.5h-67q-10 0 -15.5 5.5t-5.5 12.5v64q-73 -92 -243 -92q-48 0 -90 10.5t-81 35.5
t-66 63.5t-43.5 97t-16.5 133.5v594q0 7 5 12.5t15 5.5h68q8 0 13 -5.5t5 -12.5zM522 1028q-42 0 -94 23q-32 16 -61 16q-15 0 -39 -12.5t-29 -12.5t-14 9l-35 43q-4 8 -4 12q0 7 6 16q19 21 46.5 36.5t47.5 15.5q18 0 66 -19q46 -20 90 -20q15 0 38.5 12t28.5 12q7 0 15 -8
l34 -43q5 -10 5 -12q0 -6 -7 -17q-19 -21 -46.5 -36t-47.5 -15z" />
    <glyph glyph-name="Umacron" unicode="&#x16a;" horiz-adv-x="937" 
d="M815 1247v-944q0 -134 -98 -223.5t-248 -89.5t-248 89.5t-98 223.5v944q0 7 5 13t15 6h68q8 0 13 -6t5 -13v-913q0 -122 70.5 -184t169.5 -62t169.5 62t70.5 184v913q0 7 5 13t13 6h68q10 0 15 -6t5 -13zM276 1448h388q7 0 12.5 -5.5t5.5 -15.5v-67q0 -8 -5.5 -13.5
t-12.5 -5.5h-388q-7 0 -12.5 5.5t-5.5 13.5v67q0 10 5.5 15.5t12.5 5.5z" />
    <glyph glyph-name="umacron" unicode="&#x16b;" 
d="M219 924v-586q0 -71 17.5 -121.5t48.5 -77.5t66.5 -39t78.5 -12q101 0 162 58.5t61 158.5v619q0 7 5.5 12.5t15.5 5.5h67q8 0 13.5 -5.5t5.5 -12.5v-906q0 -7 -5.5 -12.5t-13.5 -5.5h-67q-10 0 -15.5 5.5t-5.5 12.5v64q-73 -92 -243 -92q-48 0 -90 10.5t-81 35.5
t-66 63.5t-43.5 97t-16.5 133.5v594q0 7 5 12.5t15 5.5h68q8 0 13 -5.5t5 -12.5zM246 1135h387q7 0 12.5 -5.5t5.5 -15.5v-67q0 -8 -5.5 -13.5t-12.5 -5.5h-387q-7 0 -13 5.5t-6 13.5v67q0 10 6 15.5t13 5.5z" />
    <glyph glyph-name="Ubreve" unicode="&#x16c;" horiz-adv-x="937" 
d="M815 1247v-944q0 -134 -98 -223.5t-248 -89.5t-248 89.5t-98 223.5v944q0 7 5 13t15 6h68q8 0 13 -6t5 -13v-913q0 -122 70.5 -184t169.5 -62t169.5 62t70.5 184v913q0 7 5 13t13 6h68q10 0 15 -6t5 -13zM469 1343q-193 0 -203 162q0 7 6 13t13 6h69q6 0 12.5 -6t6.5 -13
q4 -30 31.5 -48.5t64.5 -18.5q36 0 64 18.5t32 48.5q0 7 5.5 13t11.5 6h69q7 0 13 -6t6 -13q-8 -162 -201 -162z" />
    <glyph glyph-name="ubreve" unicode="&#x16d;" 
d="M219 924v-586q0 -71 17.5 -121.5t48.5 -77.5t66.5 -39t78.5 -12q101 0 162 58.5t61 158.5v619q0 7 5.5 12.5t15.5 5.5h67q8 0 13.5 -5.5t5.5 -12.5v-906q0 -7 -5.5 -12.5t-13.5 -5.5h-67q-10 0 -15.5 5.5t-5.5 12.5v64q-73 -92 -243 -92q-48 0 -90 10.5t-81 35.5
t-66 63.5t-43.5 97t-16.5 133.5v594q0 7 5 12.5t15 5.5h68q8 0 13 -5.5t5 -12.5zM438 1028q-192 0 -202 162q0 8 5 13t13 5h70q6 0 12 -5.5t6 -12.5q4 -30 31.5 -49t64.5 -19q36 0 64.5 19t32.5 49q0 7 5 12.5t11 5.5h70q7 0 12.5 -5t5.5 -13q-8 -162 -201 -162z" />
    <glyph glyph-name="Uring" unicode="&#x16e;" horiz-adv-x="937" 
d="M815 1247v-944q0 -134 -98 -223.5t-248 -89.5t-248 89.5t-98 223.5v944q0 7 5 13t15 6h68q8 0 13 -6t5 -13v-913q0 -122 70.5 -184t169.5 -62t169.5 62t70.5 184v913q0 7 5 13t13 6h68q10 0 15 -6t5 -13zM293 1546q0 99 46.5 152t129.5 53t129.5 -53t46.5 -152
t-46.5 -152t-129.5 -53t-129.5 53t-46.5 152zM555 1546q0 60 -26.5 90.5t-59.5 30.5t-59.5 -30.5t-26.5 -90.5t26.5 -90.5t59.5 -30.5t59.5 30.5t26.5 90.5z" />
    <glyph glyph-name="uring" unicode="&#x16f;" 
d="M219 924v-586q0 -71 17.5 -121.5t48.5 -77.5t66.5 -39t78.5 -12q101 0 162 58.5t61 158.5v619q0 7 5.5 12.5t15.5 5.5h67q8 0 13.5 -5.5t5.5 -12.5v-906q0 -7 -5.5 -12.5t-13.5 -5.5h-67q-10 0 -15.5 5.5t-5.5 12.5v64q-73 -92 -243 -92q-48 0 -90 10.5t-81 35.5
t-66 63.5t-43.5 97t-16.5 133.5v594q0 7 5 12.5t15 5.5h68q8 0 13 -5.5t5 -12.5zM260 1233q0 99 46.5 152t129.5 53t129.5 -53t46.5 -152t-46.5 -152t-129.5 -53t-129.5 53t-46.5 152zM522 1233q0 60 -26.5 90.5t-59.5 30.5t-59.5 -30.5t-26.5 -90.5t26.5 -90.5t59.5 -30.5
t59.5 30.5t26.5 90.5z" />
    <glyph glyph-name="Uhungarumlaut" unicode="&#x170;" horiz-adv-x="937" 
d="M815 1247v-944q0 -134 -98 -223.5t-248 -89.5t-248 89.5t-98 223.5v944q0 7 5 13t15 6h68q8 0 13 -6t5 -13v-913q0 -122 70.5 -184t169.5 -62t169.5 62t70.5 184v913q0 7 5 13t13 6h68q10 0 15 -6t5 -13zM307 1360l39 201q6 15 19 18h84q16 -4 16 -18l-62 -201
q-3 -16 -20 -19h-57q-19 3 -19 19zM553 1360l39 201q6 15 18 18h84q17 -4 17 -18l-62 -201q-3 -16 -20 -19h-58q-18 3 -18 19z" />
    <glyph glyph-name="uhungarumlaut" unicode="&#x171;" 
d="M219 924v-586q0 -71 17.5 -121.5t48.5 -77.5t66.5 -39t78.5 -12q101 0 162 58.5t61 158.5v619q0 7 5.5 12.5t15.5 5.5h67q8 0 13.5 -5.5t5.5 -12.5v-906q0 -7 -5.5 -12.5t-13.5 -5.5h-67q-10 0 -15.5 5.5t-5.5 12.5v64q-73 -92 -243 -92q-48 0 -90 10.5t-81 35.5
t-66 63.5t-43.5 97t-16.5 133.5v594q0 7 5 12.5t15 5.5h68q8 0 13 -5.5t5 -12.5zM260 1047l39 200q6 16 18 19h84q17 -4 17 -19l-62 -200q-3 -16 -20 -19h-57q-19 3 -19 19zM506 1047l39 200q6 16 18 19h84q17 -4 17 -19l-62 -200q-3 -16 -20 -19h-58q-18 3 -18 19z" />
    <glyph glyph-name="Uogonek" unicode="&#x172;" horiz-adv-x="937" 
d="M795 1266q10 0 15 -6t5 -13v-944q0 -115 -72 -198.5t-190 -106.5q-102 -54 -102 -139q0 -49 28 -73t66 -24q17 0 37 5q6 0 10 -11v-57q-2 -7 -10 -10q-14 -2 -52 -2q-174 0 -174 170q0 80 54 137q-128 19 -207.5 104t-79.5 205v944q0 7 5 13t15 6h68q8 0 13 -6t5 -13
v-913q0 -122 70.5 -184t169.5 -62t169.5 62t70.5 184v913q0 7 5 13t13 6h68z" />
    <glyph glyph-name="uogonek" unicode="&#x173;" horiz-adv-x="888" 
d="M760 924v-932q0 -7 -5.5 -13t-13.5 -6q-48 -5 -82 -43.5t-34 -89.5q0 -49 28 -72.5t66 -23.5q21 0 37 4q7 0 10 -10v-57q-3 -9 -10 -11q-14 -2 -51 -2q-175 0 -175 170q0 55 30.5 107t92.5 73v64q-73 -92 -243 -92q-48 0 -90 10.5t-81 35.5t-66 63.5t-43.5 97
t-16.5 133.5v594q0 7 5 12.5t15 5.5h68q8 0 13 -5.5t5 -12.5v-586q0 -71 17.5 -121.5t48.5 -77.5t66.5 -39t78.5 -12q101 0 162 58.5t61 158.5v619q0 7 5.5 12.5t15.5 5.5h67q8 0 13.5 -5.5t5.5 -12.5z" />
    <glyph glyph-name="Ydieresis" unicode="&#x178;" horiz-adv-x="839" 
d="M473 410v-392q0 -7 -5 -12.5t-13 -5.5h-68q-10 0 -15 5.5t-5 12.5v392l-316 837q0 7 5.5 13t15.5 6h65q19 0 23 -17l260 -698l260 698q4 17 22 17h66q10 0 15 -6t5 -13zM270 1399q0 26 16.5 43.5t41.5 17.5q26 0 43.5 -17.5t17.5 -43.5q0 -25 -17.5 -41.5t-43.5 -16.5
q-25 0 -41.5 16.5t-16.5 41.5zM451 1399q0 26 16 43.5t41 17.5q26 0 43.5 -17.5t17.5 -43.5q0 -25 -17.5 -41.5t-43.5 -16.5q-25 0 -41 16.5t-16 41.5z" />
    <glyph glyph-name="Zacute" unicode="&#x179;" horiz-adv-x="763" 
d="M104 121l457 1046h-442q-6 0 -11.5 5t-5.5 12v63q0 9 5 14t12 5h526q7 0 12 -5t5 -14v-78q0 -5 -2 -11l-1 -5l-460 -1055h446q6 0 11.5 -4.5t5.5 -11.5v-64q0 -18 -17 -18h-526q-17 0 -17 18v86q0 5 1 11zM258 1419l219 135q10 5 12 5q12 0 19 -7l53 -61q4 -4 4 -12
q0 -14 -6 -17l-231 -116q-10 -5 -19 -5t-14 5l-39 45q-4 4 -4 12q0 10 6 16z" />
    <glyph glyph-name="zacute" unicode="&#x17a;" horiz-adv-x="665" 
d="M74 121l413 723h-399q-16 0 -16 16v64q0 18 16 18h490q16 0 16 -18v-78q0 -5 -1 -11l-1 -6l-418 -731h404q16 0 16 -16v-64q0 -18 -16 -18h-490q-16 0 -16 18v86q0 5 1 11zM203 1106l219 135q8 4 12 4q13 0 19 -6l53 -61q4 -4 4 -13q0 -13 -6 -16l-232 -117q-8 -4 -18 -4
t-14 4l-39 45q-4 4 -4 13q0 10 6 16z" />
    <glyph glyph-name="Zdotaccent" unicode="&#x17b;" horiz-adv-x="763" 
d="M104 121l457 1046h-442q-6 0 -11.5 5t-5.5 12v63q0 9 5 14t12 5h526q7 0 12 -5t5 -14v-78q0 -5 -2 -11l-1 -5l-460 -1055h446q6 0 11.5 -4.5t5.5 -11.5v-64q0 -18 -17 -18h-526q-17 0 -17 18v86q0 5 1 11zM324 1399q0 -25 16 -41.5t41 -16.5q26 0 43.5 16.5t17.5 41.5
q0 26 -17.5 43.5t-43.5 17.5q-25 0 -41 -17.5t-16 -43.5z" />
    <glyph glyph-name="zdotaccent" unicode="&#x17c;" horiz-adv-x="665" 
d="M74 121l413 723h-399q-16 0 -16 16v64q0 18 16 18h490q16 0 16 -18v-78q0 -5 -1 -11l-1 -6l-418 -731h404q16 0 16 -16v-64q0 -18 -16 -18h-490q-16 0 -16 18v86q0 5 1 11zM274 1085q0 -25 16.5 -41t41.5 -16q26 0 43.5 16t17.5 41q0 26 -17.5 44t-43.5 18
q-25 0 -41.5 -18t-16.5 -44z" />
    <glyph glyph-name="Zcaron" unicode="&#x17d;" horiz-adv-x="763" 
d="M104 121l457 1046h-442q-6 0 -11.5 5t-5.5 12v63q0 9 5 14t12 5h526q7 0 12 -5t5 -14v-78q0 -5 -2 -11l-1 -5l-460 -1055h446q6 0 11.5 -4.5t5.5 -11.5v-64q0 -18 -17 -18h-526q-17 0 -17 18v86q0 5 1 11zM326 1341h110q14 0 21 21l84 229q0 8 -6 13.5t-15 5.5h-59
q-13 0 -21 -19l-59 -161l-59 161q-8 19 -21 19h-59q-9 0 -15 -5.5t-6 -13.5l84 -229q7 -21 21 -21z" />
    <glyph glyph-name="zcaron" unicode="&#x17e;" horiz-adv-x="665" 
d="M74 121l413 723h-399q-16 0 -16 16v64q0 18 16 18h490q16 0 16 -18v-78q0 -5 -1 -11l-1 -6l-418 -731h404q16 0 16 -16v-64q0 -18 -16 -18h-490q-16 0 -16 18v86q0 5 1 11zM276 1028h111q14 0 21 21l84 229q0 8 -6 13t-15 5h-59q-14 0 -21 -18l-59 -162l-60 162
q-7 18 -20 18h-59q-9 0 -15 -5t-6 -13l84 -229q7 -21 20 -21z" />
    <glyph glyph-name="florin" unicode="&#x192;" horiz-adv-x="591" 
d="M330 844v-867q0 -91 -17.5 -153t-53 -96t-81 -48t-110.5 -14h-52q-6 0 -11 5t-5 12v65q0 19 16 19h15q39 0 69.5 7.5t50.5 18t34 30.5t21.5 37.5t11.5 46.5t4.5 49t0.5 54v834h-155q-6 0 -11.5 4.5t-5.5 11.5v64q0 18 17 18h155v72q0 81 18 135t54.5 82t80.5 38.5
t107 10.5h35q17 0 17 -18v-64q0 -7 -5.5 -11.5t-11.5 -4.5h-18q-95 0 -132.5 -43t-37.5 -121v-76h194q17 0 17 -18v-64q0 -7 -5.5 -11.5t-11.5 -4.5h-194z" />
    <glyph glyph-name="uni0218" unicode="&#x218;" horiz-adv-x="849" 
d="M672 289q0 63 -25 114.5t-65.5 86t-93 67.5t-106.5 59t-106.5 61t-93 72.5t-65.5 94.5t-25 127q0 81 26.5 142t73 96.5t103.5 53t125 17.5q61 0 115 -16t100.5 -50t74 -96t27.5 -145q0 -7 -5 -13t-13 -6h-68q-10 0 -15 6t-5 13q0 209 -209 209q-62 0 -107.5 -18t-67 -40
t-33.5 -55t-13.5 -49.5t-1.5 -36.5q0 -56 20 -101.5t53.5 -78t76.5 -60.5t91.5 -52.5t96.5 -50.5t91 -59t76.5 -72t53.5 -96t20 -126q0 -148 -94.5 -222.5t-243.5 -74.5q-49 0 -94.5 9.5t-90.5 32.5t-78.5 57t-54 87.5t-20.5 120.5q0 7 5.5 12.5t13.5 5.5h67q10 0 15.5 -5.5
t5.5 -12.5q0 -38 10.5 -72t35 -66.5t71.5 -51.5t112 -19q63 0 109 16t69 37.5t36.5 52.5t16.5 51.5t3 43.5zM485 -106l-49 -234q-6 -15 -18 -18h-84q-17 4 -17 18l72 234q3 14 21 18h57q18 -3 18 -18z" />
    <glyph glyph-name="uni0219" unicode="&#x219;" horiz-adv-x="727" 
d="M551 219q0 44 -26 79t-68 59.5t-92.5 48t-100.5 50t-92 58t-68 79.5t-26 109q0 63 23.5 112.5t63 78.5t86.5 44t97 15q69 0 125 -25t90 -65t53 -82t25 -84q0 -7 -5 -12.5t-13 -5.5h-68q-15 0 -20 18q-8 55 -39 92t-67 51.5t-75 14.5q-18 0 -33.5 -1.5t-42.5 -9.5
t-46 -22.5t-33.5 -44.5t-14.5 -71t26 -77t68 -63t92 -53.5t100.5 -55.5t92.5 -61t68 -77t26 -99q0 -108 -85 -168.5t-189 -60.5q-75 0 -135.5 22.5t-95 59t-53 77t-19.5 80.5q0 7 5 13t13 6h68q10 0 15 -6t5 -13q5 -51 38.5 -84.5t72.5 -45t80 -11.5q20 0 43.5 4.5t56 16
t53.5 40.5t21 70zM434 -106l-49 -234q-6 -15 -18 -18h-84q-17 4 -17 18l72 234q3 15 20 18h58q18 -3 18 -18z" />
    <glyph glyph-name="uni021A" unicode="&#x21a;" horiz-adv-x="712" 
d="M78 1266h557q16 0 16 -19v-63q0 -7 -5 -12t-11 -5h-225v-1149q0 -7 -5.5 -12.5t-13.5 -5.5h-67q-10 0 -15.5 5.5t-5.5 12.5v1149h-225q-6 0 -11.5 5t-5.5 12v63q0 9 5.5 14t11.5 5zM393 -106l-49 -234q-6 -15 -18 -18h-84q-17 4 -17 18l72 234q3 15 20 18h58
q18 -3 18 -18z" />
    <glyph glyph-name="uni021B" unicode="&#x21b;" horiz-adv-x="622" 
d="M524 0h-41q-127 0 -193.5 75t-66.5 247v522h-155q-6 0 -11.5 4.5t-5.5 11.5v64q0 18 17 18h155v268q0 7 5.5 13t15.5 6h67q8 0 13.5 -6t5.5 -13v-268h194q17 0 17 -18v-64q0 -7 -5.5 -11.5t-11.5 -4.5h-194v-518q0 -53 7 -88.5t26 -69t59 -51t102 -19.5q17 0 17 -18v-64
q0 -7 -5.5 -11.5t-11.5 -4.5zM440 -106l-49 -234q-6 -15 -18 -18h-84q-17 4 -17 18l72 234q3 14 21 18h57q18 -3 18 -18z" />
    <glyph glyph-name="circumflex" unicode="&#x2c6;" horiz-adv-x="565" 
d="M227 1266h111q13 0 20 -21l84 -229q0 -8 -5.5 -13.5t-14.5 -5.5h-60q-12 0 -20 19l-59 162l-60 -162q-8 -19 -20 -19h-60q-9 0 -14.5 5.5t-5.5 13.5l84 229q7 21 20 21z" />
    <glyph glyph-name="caron" unicode="&#x2c7;" horiz-adv-x="565" 
d="M338 997h-111q-13 0 -20 21l-84 229q0 8 5.5 13.5t14.5 5.5h60q12 0 20 -19l60 -162l59 162q8 19 20 19h60q9 0 14.5 -5.5t5.5 -13.5l-84 -229q-7 -21 -20 -21z" />
    <glyph glyph-name="breve" unicode="&#x2d8;" horiz-adv-x="649" 
d="M326 1085q-193 0 -203 162q0 8 5.5 13.5t12.5 5.5h70q6 0 12 -6t6 -13q4 -30 31.5 -48.5t65.5 -18.5q36 0 64 18.5t32 48.5q0 7 5 13t11 6h70q7 0 12.5 -5.5t5.5 -13.5q-8 -162 -200 -162z" />
    <glyph glyph-name="dotaccent" unicode="&#x2d9;" horiz-adv-x="364" 
d="M123 1219q0 26 16 43.5t41 17.5q26 0 44 -17.5t18 -43.5q0 -25 -18 -41.5t-44 -16.5q-25 0 -41 16.5t-16 41.5z" />
    <glyph glyph-name="ring" unicode="&#x2da;" horiz-adv-x="598" 
d="M123 1075q0 99 46.5 152t129.5 53t129.5 -53t46.5 -152t-46.5 -152t-129.5 -53t-129.5 53t-46.5 152zM385 1075q0 60 -26.5 90.5t-59.5 30.5t-59.5 -30.5t-26.5 -90.5t26.5 -90.5t59.5 -30.5t59.5 30.5t26.5 90.5z" />
    <glyph glyph-name="ogonek" unicode="&#x2db;" horiz-adv-x="481" 
d="M133 -25q6 19 21 19h57q8 0 13 -6t5 -13q-12 -27 -12 -59q0 -49 28 -72.5t66 -23.5q21 0 37 4q7 0 10 -10v-58q-2 -8 -10 -10q-14 -2 -51 -2q-174 0 -174 170q0 28 10 61z" />
    <glyph glyph-name="tilde" unicode="&#x2dc;" horiz-adv-x="622" 
d="M399 1120q-42 0 -94 23q-32 16 -61 16q-15 0 -39 -12t-29 -12q-6 0 -14 8l-35 43q-4 8 -4 12q0 7 6 16q19 21 46.5 36.5t47.5 15.5q19 0 66 -19q46 -20 90 -20q15 0 38.5 12t28.5 12q7 0 15 -8l35 -43q4 -8 4 -12q0 -8 -6 -17q-19 -21 -47 -36t-48 -15z" />
    <glyph glyph-name="hungarumlaut" unicode="&#x2dd;" horiz-adv-x="649" 
d="M123 1047l39 200q6 16 18 19h84q17 -4 17 -19l-62 -200q-3 -16 -20 -19h-58q-18 3 -18 19zM369 1047l39 200q6 16 18 19h84q16 -4 16 -19l-61 -200q-3 -15 -21 -19h-57q-18 3 -18 19z" />
    <glyph glyph-name="uni03A9" unicode="&#x3a9;" horiz-adv-x="1118" 
d="M559 1280q151 0 248.5 -89.5t97.5 -223.5v-658q0 -134 -67 -211h141q16 0 16 -18v-64q0 -16 -16 -16h-270q-6 0 -11.5 4.5t-5.5 11.5v64q0 14 17 24q90 51 90 207v625q0 63 -20.5 112t-55 77.5t-76.5 42.5t-88 14t-88 -14t-76.5 -42.5t-55 -77.5t-20.5 -112v-625
q0 -155 91 -207q16 -10 16 -24v-64q0 -16 -16 -16h-271q-16 0 -16 16v64q0 18 16 18h142q-68 78 -68 211v658q0 134 97.5 223.5t248.5 89.5z" />
    <glyph glyph-name="pi" unicode="&#x3c0;" horiz-adv-x="1376" 
d="M139 942h1098q16 0 16 -18v-64q0 -16 -16 -16h-225v-826q0 -7 -5.5 -12.5t-13.5 -5.5h-67q-10 0 -15.5 5.5t-5.5 12.5v826h-434v-826q0 -7 -5 -12.5t-13 -5.5h-68q-10 0 -15 5.5t-5 12.5v826h-226q-16 0 -16 16v64q0 18 16 18z" />
    <glyph glyph-name="ZWSP" unicode="&#x200b;" horiz-adv-x="0" 
 />
    <glyph glyph-name="endash" unicode="&#x2013;" horiz-adv-x="733" 
d="M141 502h451q7 0 12.5 -5.5t5.5 -15.5v-67q0 -8 -5.5 -13.5t-12.5 -5.5h-451q-7 0 -12.5 5.5t-5.5 13.5v67q0 10 5.5 15.5t12.5 5.5z" />
    <glyph glyph-name="emdash" unicode="&#x2014;" horiz-adv-x="868" 
d="M141 502h586q7 0 12.5 -5.5t5.5 -15.5v-67q0 -8 -5.5 -13.5t-12.5 -5.5h-586q-7 0 -12.5 5.5t-5.5 13.5v67q0 10 5.5 15.5t12.5 5.5z" />
    <glyph glyph-name="quoteleft" unicode="&#x2018;" horiz-adv-x="403" 
d="M281 1247l-39 -200q-6 -16 -19 -19h-84q-16 4 -16 19l61 200q3 15 21 19h57q19 -3 19 -19z" />
    <glyph glyph-name="quoteright" unicode="&#x2019;" horiz-adv-x="403" 
d="M123 1047l39 200q6 16 18 19h84q17 -4 17 -19l-62 -200q-3 -16 -20 -19h-58q-18 3 -18 19z" />
    <glyph glyph-name="quotesinglbase" unicode="&#x201a;" horiz-adv-x="403" 
d="M123 -162l39 201q6 15 18 18h84q17 -4 17 -18l-62 -201q-3 -15 -20 -18h-58q-18 3 -18 18z" />
    <glyph glyph-name="quotedblleft" unicode="&#x201c;" horiz-adv-x="649" 
d="M526 1247l-39 -200q-6 -16 -18 -19h-84q-16 4 -16 19l61 200q3 15 21 19h57q18 -3 18 -19zM281 1247l-39 -200q-6 -16 -19 -19h-84q-16 4 -16 19l61 200q3 15 21 19h57q19 -3 19 -19z" />
    <glyph glyph-name="quotedblright" unicode="&#x201d;" horiz-adv-x="649" 
d="M123 1047l39 200q6 16 18 19h84q17 -4 17 -19l-62 -200q-3 -16 -20 -19h-58q-18 3 -18 19zM369 1047l39 200q6 16 18 19h84q16 -4 16 -19l-61 -200q-3 -15 -21 -19h-57q-18 3 -18 19z" />
    <glyph glyph-name="quotedblbase" unicode="&#x201e;" horiz-adv-x="649" 
d="M123 -162l39 201q6 15 18 18h84q17 -4 17 -18l-62 -201q-3 -15 -20 -18h-58q-18 3 -18 18zM369 -162l39 201q6 15 18 18h84q16 -4 16 -18l-61 -201q-3 -14 -21 -18h-57q-18 3 -18 18z" />
    <glyph glyph-name="dagger" unicode="&#x2020;" horiz-adv-x="729" 
d="M416 1247v-270h174q16 0 16 -19v-63q0 -16 -16 -16h-174v-861q0 -7 -5.5 -12.5t-13.5 -5.5h-67q-10 0 -15.5 5.5t-5.5 12.5v861h-170q-16 0 -16 16v63q0 19 16 19h170v270q0 7 5.5 13t13.5 6h67q10 0 15.5 -6t5.5 -13z" />
    <glyph glyph-name="daggerdbl" unicode="&#x2021;" horiz-adv-x="729" 
d="M416 381h174q16 0 16 -19v-63q0 -16 -16 -16h-174v-265q0 -7 -5.5 -12.5t-13.5 -5.5h-67q-10 0 -15.5 5.5t-5.5 12.5v265h-170q-16 0 -16 16v63q0 19 16 19h170v498h-170q-16 0 -16 16v63q0 19 16 19h170v270q0 7 5.5 13t13.5 6h67q10 0 15.5 -6t5.5 -13v-270h174
q16 0 16 -19v-63q0 -16 -16 -16h-174v-498z" />
    <glyph glyph-name="bullet" unicode="&#x2022;" horiz-adv-x="376" 
d="M123 430q0 29 17.5 48.5t45.5 19.5q29 0 48.5 -19.5t19.5 -48.5q0 -28 -19.5 -45.5t-48.5 -17.5q-28 0 -45.5 17.5t-17.5 45.5z" />
    <glyph glyph-name="ellipsis" unicode="&#x2026;" horiz-adv-x="1355" 
d="M123 47q0 26 16 44t41 18q26 0 44 -18t18 -44q0 -25 -18 -41t-44 -16q-25 0 -41 16t-16 41zM618 47q0 26 16.5 44t41.5 18q26 0 43.5 -18t17.5 -44q0 -25 -17.5 -41t-43.5 -16q-25 0 -41.5 16t-16.5 41zM1114 47q0 26 16 44t41 18q26 0 44 -18t18 -44q0 -25 -18 -41
t-44 -16q-25 0 -41 16t-16 41z" />
    <glyph glyph-name="perthousand" unicode="&#x2030;" horiz-adv-x="1689" 
d="M784 1249l-438 -1233q0 -5 5.5 -10.5t13.5 -5.5h63q12 0 16 16l439 1233q0 5 -5.5 11t-13.5 6h-63q-11 0 -17 -17zM123 1065q0 99 46.5 152t129.5 53t129.5 -53t46.5 -152t-46.5 -152t-129.5 -53t-129.5 53t-46.5 152zM385 1065q0 60 -26.5 90.5t-59.5 30.5t-59.5 -30.5
t-26.5 -90.5t26.5 -90.5t59.5 -30.5t59.5 30.5t26.5 90.5zM1102 201q0 -99 -46.5 -152t-129.5 -53t-129.5 53t-46.5 152t46.5 152t129.5 53t129.5 -53t46.5 -152zM840 201q0 -60 26.5 -90.5t59.5 -30.5t59.5 30.5t26.5 90.5t-26.5 90.5t-59.5 30.5t-59.5 -30.5t-26.5 -90.5z
M1567 201q0 -99 -46.5 -152t-129.5 -53t-130 53t-47 152t47 152t130 53t129.5 -53t46.5 -152zM1305 201q0 -60 26.5 -90.5t59.5 -30.5t59.5 30.5t26.5 90.5t-26.5 90.5t-59.5 30.5t-59.5 -30.5t-26.5 -90.5z" />
    <glyph glyph-name="guilsinglleft" unicode="&#x2039;" horiz-adv-x="694" 
d="M123 252v82q3 11 14 20l422 191q4 0 8 -4t4 -9v-88q0 -12 -12 -16l-334 -135l334 -139q12 -4 12 -17v-82q0 -5 -3.5 -8.5t-8.5 -3.5l-422 188q-11 9 -14 21z" />
    <glyph glyph-name="guilsinglright" unicode="&#x203a;" horiz-adv-x="694" 
d="M571 334v-82q-3 -12 -14 -21l-422 -188q-5 0 -8.5 3.5t-3.5 8.5v82q0 13 12 17l334 139l-334 135q-12 4 -12 16v88q0 5 4 9t8 4l422 -191q11 -9 14 -20z" />
    <glyph glyph-name="fraction" unicode="&#x2044;" horiz-adv-x="677" 
d="M123 -225l334 1722q5 16 16 16h64q8 0 13 -5.5t5 -10.5q-20 -108 -334 -1722q-4 -17 -16 -17h-64q-8 0 -13 6t-5 11z" />
    <glyph glyph-name="Euro" unicode="&#x20ac;" horiz-adv-x="1042" 
d="M141 821h99v146q0 134 98 223.5t248 89.5q142 0 233.5 -83t100.5 -210q0 -7 -5.5 -12.5t-13.5 -5.5h-67q-10 0 -15.5 5.5t-5.5 12.5q-16 97 -79 146t-148 49q-46 0 -88 -14t-76.5 -42.5t-55 -77.5t-20.5 -112v-115h186q7 0 13 -5t6 -15v-68q0 -8 -6 -13t-13 -5h-186v-199
h186q7 0 13 -5t6 -15v-68q0 -8 -6 -13t-13 -5h-186v-76q0 -63 20.5 -112t55 -77.5t76.5 -42.5t88 -14q85 0 148 49t79 146q0 7 5.5 12.5t15.5 5.5h67q8 0 13.5 -5.5t5.5 -12.5q-9 -127 -100.5 -210t-233.5 -83q-150 0 -248 89.5t-98 223.5v107h-99q-7 0 -12.5 5t-5.5 13v68
q0 10 5.5 15t12.5 5h99v199h-99q-7 0 -12.5 5t-5.5 13v68q0 10 5.5 15t12.5 5z" />
    <glyph glyph-name="Numero" unicode="&#x2116;" horiz-adv-x="1724" 
d="M688 14l-459 961v-957q0 -7 -5 -12.5t-13 -5.5h-68q-10 0 -15 5.5t-5 12.5v1229q0 7 5 13t15 6h64q12 0 22 -15l463 -970v966q0 7 5.5 13t13.5 6h67q10 0 15.5 -6t5.5 -13v-1229q0 -7 -5.5 -12.5t-15.5 -5.5h-67q-14 0 -23 14zM1286 1280q-151 0 -233 -87.5t-82 -221.5
v-383q0 -134 82 -221.5t233 -87.5t233.5 87.5t82.5 221.5v383q0 134 -82.5 221.5t-233.5 87.5zM1286 377q-94 0 -151.5 60.5t-57.5 154.5v375q0 94 57.5 154.5t151.5 60.5t151.5 -60.5t57.5 -154.5v-375q0 -94 -57.5 -154.5t-151.5 -60.5zM1520 106h-451q-7 0 -12.5 -5
t-5.5 -15v-68q0 -8 5.5 -13t12.5 -5h451q7 0 12.5 5t5.5 13v68q0 10 -5.5 15t-12.5 5z" />
    <glyph glyph-name="trademark" unicode="&#x2122;" horiz-adv-x="993" 
d="M233 1182h-94q-16 0 -16 10v59q0 15 16 15h277q5 0 10.5 -4.5t5.5 -10.5v-59q0 -3 -5.5 -6.5t-10.5 -3.5h-101v-416q0 -12 -12 -16h-51q-19 4 -19 16v416zM702 915h-45q-7 0 -12 9l-74 202v-360q0 -12 -16 -16h-47q-19 4 -19 16v481q0 15 19 19h84q14 0 18 -19l70 -203
l70 203q4 19 18 19h84q18 -4 18 -19v-481q0 -12 -18 -16h-47q-17 4 -17 16v360l-73 -202q-5 -9 -13 -9z" />
    <glyph glyph-name="Omega" unicode="&#x2126;" horiz-adv-x="1118" 
d="M559 1280q151 0 248.5 -89.5t97.5 -223.5v-658q0 -134 -67 -211h141q16 0 16 -18v-64q0 -16 -16 -16h-270q-6 0 -11.5 4.5t-5.5 11.5v64q0 14 17 24q90 51 90 207v625q0 63 -20.5 112t-55 77.5t-76.5 42.5t-88 14t-88 -14t-76.5 -42.5t-55 -77.5t-20.5 -112v-625
q0 -155 91 -207q16 -10 16 -24v-64q0 -16 -16 -16h-271q-16 0 -16 16v64q0 18 16 18h142q-68 78 -68 211v658q0 134 97.5 223.5t248.5 89.5z" />
    <glyph glyph-name="partialdiff" unicode="&#x2202;" horiz-adv-x="892" 
d="M664 305v184q0 100 -61.5 159t-162.5 59q-43 0 -78.5 -12t-66.5 -39t-48.5 -77.5t-17.5 -121.5v-119q0 -71 17.5 -121.5t48.5 -77.5t66.5 -39t78.5 -12q101 0 162.5 58.5t61.5 158.5zM770 971v-953q0 -7 -5 -12.5t-13 -5.5h-68q-10 0 -15 5.5t-5 12.5v64
q-73 -92 -244 -92q-48 0 -90 10.5t-81 35.5t-66 63.5t-43.5 97t-16.5 133.5v135q0 75 16.5 133.5t43.5 97t66 63.5t81 35.5t90 10.5q171 0 244 -92v254q0 95 -52 155t-145 60q-82 0 -135 -46.5t-62 -121.5q0 -7 -5 -13t-15 -6h-68q-8 0 -13 6t-5 13q11 115 89.5 190.5
t213.5 75.5q149 0 226 -86.5t77 -222.5z" />
    <glyph glyph-name="Delta" unicode="&#x2206;" horiz-adv-x="1208" 
d="M1065 0h-922q-20 0 -20 16l395 1231q8 19 23 19h127q14 0 22 -19l395 -1231q0 -16 -20 -16zM264 100h680l-340 1084z" />
    <glyph glyph-name="product" unicode="&#x220f;" horiz-adv-x="1376" 
d="M139 1266h1098q16 0 16 -19v-63q0 -7 -5 -12t-11 -5h-225v-1149q0 -7 -5.5 -12.5t-13.5 -5.5h-67q-10 0 -15.5 5.5t-5.5 12.5v1149h-434v-1149q0 -7 -5 -12.5t-13 -5.5h-68q-10 0 -15 5.5t-5 12.5v1149h-226q-6 0 -11 5t-5 12v63q0 19 16 19z" />
    <glyph glyph-name="summation" unicode="&#x2211;" horiz-adv-x="784" 
d="M123 102l166 531l-166 530v84q0 19 16 19h506q7 0 12 -5t5 -14v-63q0 -7 -5.5 -12t-11.5 -5h-418l168 -534l-168 -535h418q6 0 11.5 -4.5t5.5 -11.5v-64q0 -18 -17 -18h-506q-16 0 -16 18v84z" />
    <glyph glyph-name="minus" unicode="&#x2212;" horiz-adv-x="733" 
d="M141 502h451q7 0 12.5 -5.5t5.5 -15.5v-67q0 -8 -5.5 -13.5t-12.5 -5.5h-451q-7 0 -12.5 5.5t-5.5 13.5v67q0 10 5.5 15.5t12.5 5.5z" />
    <glyph glyph-name="radical" unicode="&#x221a;" horiz-adv-x="1077" 
d="M403 0h-131q-18 0 -22 18l-127 420q0 7 5 13t15 6h68q15 0 20 -19l107 -340l336 1149q5 19 20 19h242q7 0 12.5 -5.5t5.5 -15.5v-67q0 -8 -5.5 -13.5t-12.5 -5.5h-180l-330 -1141q-4 -18 -23 -18z" />
    <glyph glyph-name="infinity" unicode="&#x221e;" horiz-adv-x="1679" 
d="M772 438q-63 106 -158.5 161.5t-169.5 55.5q-111 0 -163 -53.5t-52 -163.5t52 -163.5t163 -53.5q74 0 169.5 55.5t158.5 161.5zM840 375q-49 -70 -99 -119.5t-88.5 -75t-84 -39t-72.5 -16t-66 -2.5q-98 0 -169.5 45.5t-104.5 115.5t-33 154t33 154t104.5 116t169.5 46
q39 0 66 -2.5t72.5 -16t84 -39t88.5 -75t99 -119.5q49 70 99 119.5t88.5 75t83.5 39t72 16t66 2.5q98 0 169.5 -46t104.5 -116t33 -154t-33 -154t-104.5 -115.5t-169.5 -45.5q-39 0 -66 2.5t-72 16t-83.5 39t-88.5 75t-99 119.5zM907 438q63 -106 158.5 -161.5t169.5 -55.5
q111 0 163 53.5t52 163.5t-52 163.5t-163 53.5q-74 0 -169.5 -55.5t-158.5 -161.5z" />
    <glyph glyph-name="integral" unicode="&#x222b;" horiz-adv-x="798" 
d="M659 1163h-14q-39 0 -69 -7t-50 -17.5t-34 -29.5t-21.5 -36.5t-11.5 -44.5t-5 -47.5t-1 -52.5v-951q0 -91 -17.5 -153t-53 -96t-81.5 -48t-111 -14h-51q-6 0 -11 5t-5 12v65q0 19 16 19h15q39 0 69.5 7.5t50.5 18t34 30.5t21.5 37.5t11.5 46.5t4.5 49t0.5 54v942
q0 91 17.5 153t52.5 96.5t81 48.5t111 14h51q6 0 11.5 -5t5.5 -12v-65q0 -8 -5 -13.5t-12 -5.5z" />
    <glyph glyph-name="approxequal" unicode="&#x2248;" horiz-adv-x="622" 
d="M399 211q-45 0 -94 22q-34 17 -61 17q-15 0 -39 -12.5t-29 -12.5q-6 0 -14 8l-35 43q-4 8 -4 13q0 7 6 16q19 21 46.5 36t47.5 15q21 0 66 -18q48 -21 90 -21q15 0 38.5 12.5t28.5 12.5q7 0 15 -8l35 -43q4 -8 4 -12q0 -8 -6 -17q-19 -21 -47 -36t-48 -15zM399 449
q-45 0 -94 22q-32 16 -61 16q-15 0 -39 -12t-29 -12q-6 0 -14 8l-35 43q-4 8 -4 12q0 8 6 17q19 21 46.5 36t47.5 15q19 0 66 -19q46 -20 90 -20q15 0 38.5 12.5t28.5 12.5q6 0 15 -9l35 -43q4 -8 4 -12q0 -7 -6 -16q-19 -21 -47 -36t-48 -15z" />
    <glyph glyph-name="notequal" unicode="&#x2260;" horiz-adv-x="688" 
d="M547 494h-129l-37 -189h166q7 0 12.5 -5t5.5 -15v-68q0 -8 -5.5 -13t-12.5 -5h-185l-36 -185q-5 -14 -17 -14h-59q-7 0 -12 5t-5 9l37 185h-129q-7 0 -12.5 5t-5.5 13v68q0 10 5.5 15t12.5 5h148l37 189h-185q-7 0 -12.5 5t-5.5 13v68q0 10 5.5 15t12.5 5h205l37 193
q3 14 16 14h60q7 0 11.5 -5t4.5 -9l-37 -193h109q7 0 12.5 -5t5.5 -15v-68q0 -8 -5.5 -13t-12.5 -5z" />
    <glyph glyph-name="lessequal" unicode="&#x2264;" horiz-adv-x="694" 
d="M141 106h412q7 0 12.5 -5t5.5 -15v-68q0 -8 -5.5 -13t-12.5 -5h-412q-7 0 -12.5 5t-5.5 13v68q0 10 5.5 15t12.5 5zM123 367v82q3 11 14 20l422 190q5 0 8.5 -3.5t3.5 -8.5v-88q0 -12 -12 -16l-334 -135l334 -140q12 -4 12 -16v-82q0 -4 -3.5 -8t-8.5 -4l-422 188
q-11 9 -14 21z" />
    <glyph glyph-name="greaterequal" unicode="&#x2265;" horiz-adv-x="694" 
d="M141 106h412q7 0 12.5 -5t5.5 -15v-68q0 -8 -5.5 -13t-12.5 -5h-412q-7 0 -12.5 5t-5.5 13v68q0 10 5.5 15t12.5 5zM571 449v-82q-3 -12 -14 -21l-422 -188q-5 0 -8.5 4t-3.5 8v82q0 12 12 16l334 140l-334 135q-12 4 -12 16v88q0 5 3.5 8.5t8.5 3.5l422 -190
q11 -9 14 -20z" />
    <glyph glyph-name="lozenge" unicode="&#x25ca;" horiz-adv-x="847" 
d="M725 633l-225 -610q-8 -23 -27 -23h-98q-19 0 -27 23l-225 610l225 610q8 23 27 23h98q19 0 27 -23zM616 633l-192 536l-193 -536l193 -537z" />
    <glyph glyph-name="uni25CC" unicode="&#x25cc;" horiz-adv-x="378" 
 />
    <glyph glyph-name="fi" unicode="&#xfb01;" horiz-adv-x="944" 
d="M483 1280h35q17 0 17 -18v-64q0 -7 -5.5 -11.5t-11.5 -4.5h-18q-95 0 -132.5 -43t-37.5 -121v-76h194q17 0 17 -18v-64q0 -7 -5.5 -11.5t-11.5 -4.5h-194v-826q0 -7 -5.5 -12.5t-13.5 -5.5h-67q-10 0 -15.5 5.5t-5.5 12.5v826h-155q-6 0 -11.5 4.5t-5.5 11.5v64
q0 18 17 18h155v72q0 81 18 135t54.5 82t80.5 38.5t107 10.5zM715 18v906q0 7 5 12.5t15 5.5h68q8 0 13 -5.5t5 -12.5v-906q0 -7 -5 -12.5t-13 -5.5h-68q-10 0 -15 5.5t-5 12.5zM715 1053v161q0 7 5 13t15 6h68q8 0 13 -6t5 -13v-161q0 -7 -5 -13t-13 -6h-68q-10 0 -15 6
t-5 13z" />
    <glyph glyph-name="fl" unicode="&#xfb02;" horiz-adv-x="944" 
d="M483 1280h35q17 0 17 -18v-64q0 -7 -5.5 -11.5t-11.5 -4.5h-18q-95 0 -132.5 -43t-37.5 -121v-76h194q17 0 17 -18v-64q0 -7 -5.5 -11.5t-11.5 -4.5h-194v-826q0 -7 -5.5 -12.5t-13.5 -5.5h-67q-10 0 -15.5 5.5t-5.5 12.5v826h-155q-6 0 -11.5 4.5t-5.5 11.5v64
q0 18 17 18h155v72q0 81 18 135t54.5 82t80.5 38.5t107 10.5zM715 18v1229q0 7 5 13t15 6h68q8 0 13 -6t5 -13v-1229q0 -7 -5 -12.5t-13 -5.5h-68q-10 0 -15 5.5t-5 12.5z" />
    <glyph glyph-name="Superstore" horiz-adv-x="1280" 
d="M637 1034q107 0 203 -41t165.5 -110.5t110.5 -165.5t41 -203q0 -139 -69 -257.5t-189 -187.5t-262 -69q-139 0 -257.5 69t-187.5 187.5t-69 257.5q0 142 69 262t187.5 189t257.5 69zM856 184q66 0 66 56q0 33 -11.5 47t-38.5 14v272q0 88 -65 146q12 4 39 4t39 -4h22v133
q-148 -18 -235 -66q-31 5 -76 5q-101 0 -180 -29v-129h12q105 33 156 33q18 0 29 -0.5t31.5 -2.5t34 -8t28 -15t21.5 -25t7 -37l-168 -17q-43 -4 -75 -12t-65 -27.5t-51 -57t-18 -91.5q0 -85 58.5 -137t150.5 -52q61 0 88 6v111l-12 8q-18 -8 -47 -8q-37 0 -64.5 21
t-27.5 63q0 33 37 45.5t194 38.5v-145q0 -76 21.5 -108t81.5 -32h18z" />
    </font>
</defs>
</svg>
