<?xml version="1.0" standalone="no"?>
<!DOCTYPE svg PUBLIC "-//W3C//DTD SVG 1.1//EN" "http://www.w3.org/Graphics/SVG/1.1/DTD/svg11.dtd" >
<svg xmlns="http://www.w3.org/2000/svg" xmlns:xlink="http://www.w3.org/1999/xlink" version="1.1">
<metadata>
Created by FontForge 20170731 at Fri Sep 18 15:16:07 2020
 By Aleksey,,,
Copyright (c) 2017 by Typesketchbook. All rights reserved.
</metadata>
<defs>
<font id="Calps-SemiLightItalic" horiz-adv-x="880" >
  <font-face 
    font-family="Calps SemiLight"
    font-weight="300"
    font-style="italic"
    font-stretch="normal"
    units-per-em="2048"
    panose-1="2 0 0 0 0 0 0 0 0 0"
    ascent="1638"
    descent="-410"
    x-height="942"
    cap-height="1266"
    bbox="-129 -377 1719.63 1798"
    underline-thickness="71"
    underline-position="-294"
    unicode-range="U+0020-FB02"
  />
<missing-glyph horiz-adv-x="1161" 
d="M1094 0h-1047v1282h1047v-1282zM139 88h39v43h-39l-4 -41q4 0 4 -2zM999 1192v-4h5q0 4 -5 4zM999 1188h-36v-37h36v37zM1004 92l-5 39h-36v-39h41zM141 1192v-41h37v41l-39 2q0 -2 2 -2zM178 1151v-1020h785v1020h-785z" />
    <glyph glyph-name=".notdef" horiz-adv-x="1161" 
d="M1094 0h-1047v1282h1047v-1282zM139 88h39v43h-39l-4 -41q4 0 4 -2zM999 1192v-4h5q0 4 -5 4zM999 1188h-36v-37h36v37zM1004 92l-5 39h-36v-39h41zM141 1192v-41h37v41l-39 2q0 -2 2 -2zM178 1151v-1020h785v1020h-785z" />
    <glyph glyph-name=".null" horiz-adv-x="0" 
 />
    <glyph glyph-name="nonmarkingreturn" horiz-adv-x="378" 
 />
    <glyph glyph-name="space" unicode=" " horiz-adv-x="378" 
 />
    <glyph glyph-name="exclam" unicode="!" horiz-adv-x="372" 
d="M162 344l127 897q0 8 9.5 16.5t18.5 8.5h93q7 0 14.5 -8.5t7.5 -16.5l-127 -897q-2 -8 -12 -16.5t-17 -8.5h-92q-9 0 -16.5 8.5t-5.5 16.5zM117 25l24 168q0 7 10 15.5t19 8.5h92q7 0 15 -8t8 -16l-25 -168q-2 -8 -11 -16.5t-16 -8.5h-92q-9 0 -17.5 8.5t-6.5 16.5z" />
    <glyph glyph-name="quotedbl" unicode="&#x22;" horiz-adv-x="663" 
d="M270 995l19 244q3 24 28 27h97q25 -4 22 -27l-53 -244q-3 -24 -29 -28h-61q-26 4 -23 28zM557 995l18 244q3 24 29 27h96q10 -2 17 -9t6 -18l-53 -244q-3 -24 -29 -28h-61q-26 4 -23 28z" />
    <glyph glyph-name="numbersign" unicode="#" horiz-adv-x="1415" 
d="M1063 936l106 301q3 12 12.5 20.5t22.5 8.5h78q11 0 18.5 -9.5t6.5 -19.5l-107 -301h209q6 0 12.5 -9t5.5 -18l-12 -88q-2 -6 -11 -14t-15 -8h-240l-121 -340h221q6 0 13 -9t6 -18l-13 -88q0 -6 -9 -14t-15 -8h-250l-107 -295q-12 -29 -34 -29h-78q-12 0 -19.5 9t-5.5 20
l107 295h-324l-106 -295q-12 -29 -35 -29h-78q-12 0 -19.5 9t-5.5 20l107 295h-201q-6 0 -13 8t-7 14l12 88q1 9 11 18t16 9h229l121 340h-211q-6 0 -12.5 8t-5.5 14l12 88q1 9 10.5 18t15.5 9h242l107 301q8 29 34 29h78q11 0 18.5 -9.5t6.5 -19.5l-107 -301h324zM688 799
l-121 -340h324l121 340h-324z" />
    <glyph glyph-name="dollar" unicode="$" horiz-adv-x="933" 
d="M860 303q-21 -148 -115.5 -225.5t-228.5 -85.5l-82 -219q-11 -25 -22 -25h-105q-9 0 -13.5 7t-2.5 18l100 225q-106 24 -171.5 102t-61.5 213q2 8 11.5 16.5t18.5 8.5h93q7 0 14 -9t6 -16q-7 -79 39.5 -135.5t155.5 -56.5q55 0 97 16t64 36t36.5 49t18 44.5t5.5 32.5
q8 54 -5.5 98t-41.5 75.5t-66 58t-81.5 50t-86.5 48t-80.5 55.5t-65 68t-39.5 90.5t-3 118.5q22 148 113 226t221 91l88 238q7 24 20 24h105q18 0 18 -24l-108 -242q108 -19 168.5 -95t41.5 -216q-2 -8 -11.5 -16.5t-18.5 -8.5h-92q-8 0 -15 9t-6 16q7 31 2 64t-18 60
t-49.5 44.5t-92.5 17.5q-46 0 -83 -10t-60 -29t-38 -36t-23.5 -42t-11 -34.5t-5.5 -26.5q-9 -62 15 -111.5t69 -83t100.5 -65t110 -67t98 -78.5t65 -110.5t9.5 -152.5z" />
    <glyph glyph-name="percent" unicode="%" horiz-adv-x="1200" 
d="M315 29l603 1208q12 29 34 29h78q11 0 18.5 -9.5t6.5 -19.5l-602 -1208q-12 -29 -33 -29h-78q-12 0 -20.5 9t-6.5 20zM410 872q-83 0 -121 50t-25 147q13 98 65.5 147.5t135.5 49.5q84 0 123 -49.5t26 -147.5q-13 -97 -67 -147t-137 -50zM424 969q27 0 50 24t30 74
q7 54 -8.5 78t-42.5 24t-48 -24t-28 -78q-7 -50 7 -74t40 -24zM911 0q-83 0 -122.5 50t-26.5 147q13 98 66 147t137 49q83 0 121.5 -49t25.5 -147q-13 -97 -65.5 -147t-135.5 -50zM924 96q26 0 47 24.5t28 74.5q13 102 -47 102q-27 0 -50 -24.5t-30 -77.5q-7 -50 9 -74.5
t43 -24.5z" />
    <glyph glyph-name="ampersand" unicode="&#x26;" horiz-adv-x="1144" 
d="M473 100q66 0 125.5 30t126.5 91l-213 307q-8 -5 -21.5 -14t-49 -37.5t-63.5 -57t-53 -68.5t-30 -77q-4 -33 2 -61.5t24 -55t57 -42t95 -15.5zM563 702q207 151 228 295q8 64 -22.5 108t-109.5 44q-17 0 -34.5 -2.5t-41.5 -13t-43 -27t-35 -48.5t-22 -75
q-10 -68 14.5 -148t65.5 -133zM864 23l-69 104q-66 -74 -160 -114t-170 -40q-21 0 -41.5 1.5t-47.5 5t-50.5 10.5t-50 18t-45.5 27t-38.5 37.5t-28 50t-14 64t2.5 79.5q8 59 41.5 118t76 100.5t83 74.5t68.5 49l28 17q-136 160 -109 352q10 69 35.5 123.5t59 87.5t75.5 54.5
t81 29.5t79 8q134 0 209.5 -67.5t56.5 -204.5q-9 -61 -44.5 -125t-80 -111t-88 -85.5t-73.5 -58.5l-29 -20l194 -276l150 225q4 7 13.5 16t16.5 9h88q9 0 17 -8.5t8 -16.5l-223 -328l147 -204q-2 -8 -10.5 -16.5t-17.5 -8.5h-109q-14 0 -31 23z" />
    <glyph glyph-name="quotesingle" unicode="'" horiz-adv-x="376" 
d="M270 995l19 244q3 24 28 27h97q25 -4 22 -27l-53 -244q-3 -24 -29 -28h-61q-26 4 -23 28z" />
    <glyph glyph-name="parenleft" unicode="(" horiz-adv-x="440" 
d="M348 659q-53 -375 -53 -876q-2 -8 -12 -16.5t-17 -8.5h-92q-9 0 -16.5 8.5t-5.5 16.5q0 486 55 876q49 351 184 830q0 7 10 15.5t19 8.5h92q7 0 15 -8t8 -16q-140 -494 -187 -830z" />
    <glyph glyph-name="parenright" unicode=")" horiz-adv-x="440" 
d="M276 659q48 340 48 830q0 7 9 15.5t17 8.5h92q9 0 17 -8t8 -16q-2 -260 -11.5 -444.5t-37.5 -385.5q-52 -369 -191 -876q-2 -8 -11.5 -16.5t-18.5 -8.5h-93q-8 0 -15 8.5t-5 16.5q137 483 192 876z" />
    <glyph glyph-name="asterisk" unicode="*" horiz-adv-x="710" 
d="M487 1266h88q20 -4 17 -23l-31 -162l113 66q8 4 10 4q10 0 18 -8l39 -78q0 -1 1 -5.5t1 -6.5q-6 -11 -12 -13l-149 -65l67 -137q2 -4 2 -13q0 -8 -10 -18l-88 -41q-4 -4 -10 -4q-8 0 -15 10l-45 156l-88 -156q-7 -10 -14 -10q-6 0 -10 4l-76 41q-6 6 -6 18q0 1 6 13
l104 137l-129 65q-13 3 -8 13q0 9 6 12l60 78q8 8 18 8q2 0 10 -4l97 -66l14 162q3 20 20 23z" />
    <glyph glyph-name="plus" unicode="+" horiz-adv-x="741" 
d="M494 381l-29 -199q-2 -6 -11.5 -14t-15.5 -8h-88q-9 0 -16.5 8t-5.5 14l28 199h-166q-6 0 -13 8t-7 14l12 89q1 9 11 17.5t16 8.5h166l28 199q0 6 10 14t19 8h88q6 0 13.5 -8t7.5 -14l-29 -199h164q6 0 12.5 -8.5t5.5 -17.5l-12 -89q0 -6 -9.5 -14t-15.5 -8h-163z" />
    <glyph glyph-name="comma" unicode="," horiz-adv-x="436" 
d="M96 -127l80 236q6 23 29 26h110q24 -3 21 -26l-109 -236q-10 -26 -28 -29h-80q-26 3 -23 29z" />
    <glyph glyph-name="hyphen" unicode="-" horiz-adv-x="741" 
d="M659 406h-466q-6 0 -13 8t-6 14l12 88q1 9 11 18t16 9h467q6 0 12.5 -9t5.5 -18l-12 -88q-2 -6 -11.5 -14t-15.5 -8z" />
    <glyph glyph-name="period" unicode="." horiz-adv-x="387" 
d="M123 68q4 32 31 53.5t61 21.5q30 0 50 -22t16 -53q-4 -32 -30 -55t-56 -23q-34 0 -55 23t-17 55z" />
    <glyph glyph-name="slash" unicode="/" horiz-adv-x="694" 
d="M84 -213l565 1696q8 28 35 28h78q10 0 18 -8.5t6 -19.5l-565 -1696q-12 -29 -35 -29h-77q-12 0 -19.5 9t-5.5 20z" />
    <glyph glyph-name="zero" unicode="0" horiz-adv-x="917" 
d="M637 1280q154 0 241.5 -92.5t67.5 -231.5l-90 -643q-20 -139 -132.5 -231t-266.5 -92q-155 0 -242.5 92t-67.5 231l91 643q20 139 132.5 231.5t266.5 92.5zM475 127q87 0 156.5 54t85.5 163l82 582q16 109 -38.5 163t-142.5 54q-87 0 -156 -54t-85 -163l-82 -582
q-16 -109 38.5 -163t141.5 -54z" />
    <glyph glyph-name="one" unicode="1" horiz-adv-x="587" 
d="M487 1128l-282 -139q-9 0 -15.5 8.5t-5.5 18.5l13 88q3 13 20 22l270 136q8 4 29 4h109q7 0 14.5 -8.5t7.5 -16.5l-172 -1216q-2 -8 -10.5 -16.5t-15.5 -8.5h-93q-9 0 -17.5 8.5t-6.5 16.5z" />
    <glyph glyph-name="two" unicode="2" horiz-adv-x="786" 
d="M702 958q12 80 -31 132.5t-122 52.5q-73 0 -129 -43.5t-66 -110.5q0 -7 -9 -15.5t-17 -8.5h-92q-9 0 -17 8t-8 16q20 131 121 211t235 80q138 0 219 -89.5t62 -221.5q-10 -69 -46.5 -137t-88.5 -124.5t-113 -112.5t-122 -110.5t-112.5 -108.5t-87.5 -115.5t-45 -123.5
h439q6 0 12.5 -8.5t5.5 -17.5l-12 -88q-2 -6 -10.5 -14.5t-14.5 -8.5h-547q-9 0 -17.5 8.5t-6.5 16.5l18 125q10 72 46 141.5t86.5 127t110 113t118.5 108t109.5 102.5t86.5 106t45 110z" />
    <glyph glyph-name="three" unicode="3" horiz-adv-x="817" 
d="M612 311l11 74q11 79 -32 129.5t-124 50.5h-64q-6 0 -12.5 9t-5.5 18l12 88q2 6 11.5 14t15.5 8h63q81 0 137.5 51.5t67.5 131.5l10 73q12 80 -31 132.5t-122 52.5q-73 0 -129.5 -44.5t-65.5 -111.5q0 -7 -9 -15.5t-17 -8.5h-92q-9 0 -17 8t-8 16q18 131 120 212t236 81
q138 0 219 -89.5t62 -221.5l-12 -92q-9 -61 -57 -130.5t-134 -117.5q74 -56 101 -126.5t18 -131.5l-10 -70q-19 -132 -124 -221.5t-243 -89.5q-134 0 -213 81t-61 212q2 8 11.5 16t18.5 8h93q8 0 14.5 -8.5t5.5 -15.5q-9 -67 34.5 -111.5t115.5 -44.5q79 0 137 52t69 132z
" />
    <glyph glyph-name="four" unicode="4" horiz-adv-x="872" 
d="M600 418l105 735l-459 -735h354zM96 307l15 107l6 18l504 813q17 21 28 21h189q7 0 14.5 -8.5t7.5 -16.5l-117 -823h121q6 0 13.5 -8.5t7.5 -14.5l-13 -88q-1 -9 -10.5 -17.5t-15.5 -8.5h-121l-37 -256q-2 -8 -10.5 -16.5t-15.5 -8.5h-93q-9 0 -17.5 8.5t-6.5 16.5
l37 256h-467q-6 0 -13 8.5t-6 17.5z" />
    <glyph glyph-name="five" unicode="5" horiz-adv-x="837" 
d="M141 266q0 8 10 16.5t19 8.5h92q7 0 15 -8.5t8 -16.5q0 -70 39 -112.5t110 -42.5q80 0 138.5 53t68.5 135l23 166q12 79 -30 130.5t-124 51.5q-78 0 -145 -67q-13 -13 -25 -13h-131q-9 0 -17 8.5t-6 16.5l93 649q0 8 9.5 16.5t18.5 8.5h518q6 0 13.5 -8.5t7.5 -14.5
l-12 -88q-1 -9 -11 -18t-16 -9h-401l-58 -405q52 31 98 46t66.5 17t54.5 2q128 0 194 -95t48 -226l-27 -188q-18 -127 -123 -208t-241 -81q-127 0 -205.5 77.5t-71.5 198.5z" />
    <glyph glyph-name="six" unicode="6" horiz-adv-x="835" 
d="M311 455l-20 -144q-11 -81 29.5 -132.5t121.5 -51.5q77 0 132.5 52t66.5 132l21 144q11 79 -30 130.5t-118 51.5q-82 0 -137 -51t-66 -131zM721 1032q-19 117 -148 117q-85 0 -132 -52.5t-64 -170.5l-31 -226q48 40 103 57t96 17q74 0 127 -17.5t81 -48.5t43.5 -72
t14 -88.5t-7.5 -98.5l-21 -146q-18 -137 -122 -225t-236 -88q-136 0 -216.5 88t-62.5 225l97 676q18 129 115 215t235 86q115 0 190.5 -67.5t81.5 -180.5q0 -7 -9 -15.5t-17 -8.5h-88q-9 0 -18.5 7.5t-10.5 16.5z" />
    <glyph glyph-name="seven" unicode="7" horiz-adv-x="667" 
d="M629 1128h-396q-6 0 -12.5 9t-5.5 18l12 88q0 6 9.5 14.5t15.5 8.5h512q9 0 16.5 -8.5t7.5 -16.5l-16 -113l-475 -1103q-2 -8 -11 -16.5t-18 -8.5h-92q-8 0 -15.5 9t-6.5 16z" />
    <glyph glyph-name="eight" unicode="8" horiz-adv-x="819" 
d="M426 121q77 0 131.5 52t65.5 132l12 76q11 80 -30 131t-118 51t-131 -51t-65 -131l-12 -76q-11 -81 29.5 -132.5t117.5 -51.5zM508 700q77 0 131.5 51t65.5 130l10 77q12 80 -28.5 132.5t-117.5 52.5t-131.5 -52t-66.5 -133l-11 -77q-11 -79 30 -130t118 -51zM408 -10
q-133 0 -213 83.5t-60 219.5l8 69q25 181 174 269q-119 85 -100 258l10 67q20 144 121.5 234t239.5 90t214 -90t56 -234l-10 -67q-19 -168 -170 -258q121 -86 96 -269l-8 -69q-20 -136 -122.5 -219.5t-235.5 -83.5z" />
    <glyph glyph-name="nine" unicode="9" horiz-adv-x="835" 
d="M700 815l21 143q12 81 -29 133t-123 52q-77 0 -131.5 -52t-66.5 -133l-21 -143q-11 -79 30 -130.5t118 -51.5q82 0 136.5 51t65.5 131zM291 238q19 -117 147 -117q85 0 132.5 52.5t64.5 170.5l33 225q-89 -73 -199 -73q-74 0 -127 17.5t-81.5 48.5t-44 72t-14.5 88.5
t7 98.5l20 146q20 137 123.5 225t235.5 88q136 0 217 -88t61 -225l-96 -676q-18 -129 -115 -215t-235 -86q-115 0 -191 67.5t-82 180.5q2 8 11 16t16 8h88q9 0 18.5 -7.5t10.5 -16.5z" />
    <glyph glyph-name="colon" unicode=":" horiz-adv-x="387" 
d="M123 68q4 32 31 53.5t61 21.5q30 0 50 -22t16 -53q-4 -32 -30 -55t-56 -23q-34 0 -55 23t-17 55zM201 625q4 32 32 53.5t62 21.5q30 0 48.5 -21.5t14.5 -53.5t-30 -55t-56 -23q-34 0 -54.5 23t-16.5 55z" />
    <glyph glyph-name="semicolon" unicode=";" horiz-adv-x="389" 
d="M203 625q4 32 32 53.5t62 21.5q30 0 48.5 -21.5t14.5 -53.5t-30 -55t-56 -23q-34 0 -54.5 23t-16.5 55zM283 68l-2 -11q-2 -15 -7.5 -37t-15 -48t-24.5 -45.5t-31 -22.5h-62q-13 4 -10 16l10 12q11 17 23 60q-20 8 -32 29.5t-9 46.5q4 32 31 54.5t61 22.5
q31 0 51.5 -22.5t16.5 -54.5z" />
    <glyph glyph-name="less" unicode="&#x3c;" horiz-adv-x="700" 
d="M147 244l19 121q3 17 27 30l454 187q8 0 13 -6t4 -13l-11 -78q-2 -13 -22 -20l-391 -160l346 -160q18 -7 16 -20l-10 -78q-4 -18 -23 -18l-403 186q-15 11 -19 29z" />
    <glyph glyph-name="equal" unicode="=" horiz-adv-x="700" 
d="M590 199h-426q-6 0 -13 8t-6 14l13 88q1 9 10.5 18t15.5 9h426q6 0 13 -9t6 -18l-13 -88q-2 -6 -11 -14t-15 -8zM633 500h-426q-6 0 -13.5 8t-7.5 14l13 88q1 9 10.5 18t15.5 9h426q6 0 13 -9t6 -18l-13 -88q0 -6 -9 -14t-15 -8z" />
    <glyph glyph-name="greater" unicode="&#x3e;" horiz-adv-x="700" 
d="M637 365l-19 -121q-3 -16 -26 -29l-457 -186q-7 0 -11.5 5t-2.5 13l10 78q2 12 21 20l391 160l-346 160q-17 8 -15 20l11 78q4 19 20 19l405 -187q16 -11 19 -30z" />
    <glyph glyph-name="question" unicode="?" horiz-adv-x="868" 
d="M524 383l-6 -45q-2 -8 -12 -16.5t-17 -8.5h-92q-9 0 -16.5 8.5t-5.5 16.5l16 117q7 48 43 97t83.5 92t95 88.5t84.5 104t46 121.5q12 80 -31 132.5t-122 52.5q-73 0 -129 -43.5t-66 -110.5q0 -7 -9 -15.5t-17 -8.5h-93q-9 0 -16.5 8t-7.5 16q20 131 121 211t235 80
q138 0 219 -89.5t62 -221.5l-4 -29q-8 -57 -36.5 -110t-65.5 -92.5t-80 -83.5t-79.5 -82t-64.5 -87.5t-35 -101.5zM330 25l24 168q0 7 10 15.5t19 8.5h92q7 0 15 -8t8 -16l-25 -168q-2 -8 -11 -16.5t-16 -8.5h-92q-9 0 -17.5 8.5t-6.5 16.5z" />
    <glyph glyph-name="at" unicode="@" horiz-adv-x="1196" 
d="M993 416l21 147q10 70 -19.5 113t-99.5 43q-65 0 -108 -44t-52 -112l-20 -147q-9 -72 20 -115t94 -43q71 0 113 43t51 115zM571 -72h150q6 0 11.5 -7t4.5 -13l-12 -84q0 -7 -8.5 -15t-14.5 -8h-159q-216 0 -320.5 112.5t-79.5 295.5l95 670q10 66 47.5 136t95 129.5
t138.5 97.5t167 38h172q88 0 160 -38t114.5 -97.5t61.5 -129.5t10 -136l-102 -719q0 -7 -9.5 -16t-17.5 -9h-92q-9 0 -17 8.5t-8 16.5l5 24q-57 -38 -95 -49.5t-88 -11.5q-106 0 -166.5 66t-46.5 161l39 277q12 98 79 161.5t171 63.5q38 0 62.5 -2.5t61 -15t67.5 -37.5l8 51
q6 26 2.5 59t-10.5 67t-28.5 66t-51.5 57.5t-80.5 40.5t-114.5 15h-29q-76 0 -138.5 -22t-102 -54.5t-68 -75.5t-41.5 -80.5t-18 -72.5l-88 -629q-7 -26 -3 -57.5t10.5 -64t28.5 -63t52.5 -54t81 -38t114.5 -14.5z" />
    <glyph glyph-name="A" unicode="A" horiz-adv-x="909" 
d="M733 1241l125 -1216q-2 -8 -11 -16.5t-18 -8.5h-92q-8 0 -15.5 9t-6.5 16l-19 208h-415l-82 -208q-2 -8 -11 -16.5t-16 -8.5h-92q-9 0 -17.5 9t-7.5 16l469 1216q11 25 29 25h156q20 0 24 -25zM334 371h346l-74 714z" />
    <glyph glyph-name="B" unicode="B" horiz-adv-x="892" 
d="M416 1128l-60 -419h166q40 0 77 10.5t72 34t60 66.5t33 102l2 16q8 59 -4.5 98.5t-42.5 58.5t-62 26t-75 7h-166zM477 137q38 0 74.5 11t70.5 34t58.5 65t32.5 99q16 110 -38.5 167.5t-135.5 57.5h-201l-62 -434h201zM463 0h-322q-9 0 -17.5 8.5t-6.5 16.5l172 1216
q0 8 9.5 16.5t18.5 8.5h287q68 0 127.5 -21t103.5 -59.5t65.5 -100t10.5 -135.5l-6 -39q-5 -36 -13 -63.5t-27 -63.5t-57.5 -70.5t-94.5 -66.5q80 -28 120 -106.5t25 -186.5l-2 -18q-15 -101 -75.5 -179t-144 -117.5t-173.5 -39.5z" />
    <glyph glyph-name="C" unicode="C" horiz-adv-x="856" 
d="M147 313l91 643q20 139 132 231.5t263 92.5q136 0 223.5 -92t81.5 -223q-2 -8 -12 -16.5t-17 -8.5h-92q-22 0 -22 27q5 97 -48.5 139.5t-132.5 42.5q-86 0 -154.5 -54t-84.5 -163l-82 -594q-16 -109 38 -163t140 -54q36 0 70 9t66.5 28.5t57 56.5t35.5 88q9 27 31 27h92
q8 0 15 -9t6 -16q-31 -132 -143.5 -223.5t-247.5 -91.5q-152 0 -239 92.5t-67 230.5z" />
    <glyph glyph-name="D" unicode="D" horiz-adv-x="905" 
d="M715 346l80 569q16 108 -38.5 161.5t-138.5 53.5h-202l-142 -999h203q84 0 154 53.5t84 161.5zM465 0h-324q-9 0 -17.5 8.5t-6.5 16.5l172 1216q0 8 9.5 16.5t18.5 8.5h324q148 0 234.5 -93.5t66.5 -232.5l-86 -616q-20 -139 -131.5 -231.5t-259.5 -92.5z" />
    <glyph glyph-name="E" unicode="E" horiz-adv-x="749" 
d="M791 1128h-375l-66 -466h266q6 0 13 -9t6 -18l-12 -88q-2 -6 -11.5 -14.5t-15.5 -8.5h-266l-54 -387h375q6 0 13 -8.5t6 -17.5l-13 -88q-2 -6 -10 -14.5t-14 -8.5h-492q-9 0 -17.5 8.5t-6.5 16.5l172 1216q0 8 9.5 16.5t18.5 8.5h492q6 0 13 -8.5t7 -14.5l-12 -88
q-1 -9 -10.5 -18t-15.5 -9z" />
    <glyph glyph-name="F" unicode="F" horiz-adv-x="677" 
d="M330 524l-70 -499q-2 -8 -11 -16.5t-18 -8.5h-90q-9 0 -17.5 8.5t-6.5 16.5l172 1216q0 8 9.5 16.5t18.5 8.5h492q6 0 13 -8.5t7 -14.5l-12 -88q-1 -9 -10.5 -18t-15.5 -9h-375l-66 -466h266q6 0 13 -9t6 -18l-12 -88q-2 -6 -11.5 -14.5t-15.5 -8.5h-266z" />
    <glyph glyph-name="G" unicode="G" horiz-adv-x="917" 
d="M733 535h-110q-6 0 -13 8.5t-6 17.5l12 88q2 6 11.5 14.5t15.5 8.5h227q9 0 17 -8.5t6 -16.5l-88 -622q-2 -8 -11 -16.5t-18 -8.5h-76q-8 0 -15.5 9t-6.5 16l8 59q-104 -94 -233 -94q-152 0 -239 92.5t-67 230.5l91 643q20 139 132 231.5t263 92.5q136 0 223.5 -92
t81.5 -223q-2 -8 -12 -16.5t-17 -8.5h-92q-22 0 -22 27q5 97 -48.5 139.5t-132.5 42.5q-86 0 -154.5 -54t-84.5 -163l-82 -594q-16 -109 38 -163t140 -54q49 0 96 19t87 65.5t48 111.5z" />
    <glyph glyph-name="H" unicode="H" horiz-adv-x="905" 
d="M739 659l82 582q0 8 10 16.5t19 8.5h92q7 0 15 -8.5t8 -16.5l-172 -1216q-2 -8 -11 -16.5t-16 -8.5h-92q-9 0 -17.5 9t-7.5 16l70 497h-389l-70 -497q-2 -8 -11 -16.5t-16 -8.5h-92q-9 0 -17.5 8.5t-6.5 16.5l172 1216q0 8 9.5 16.5t18.5 8.5h93q7 0 14.5 -8.5t7.5 -16.5
l-82 -582h389z" />
    <glyph glyph-name="I" unicode="I" horiz-adv-x="372" 
d="M117 25l172 1216q0 8 9.5 16.5t18.5 8.5h93q7 0 14.5 -8.5t7.5 -16.5l-172 -1216q-2 -8 -11 -16.5t-16 -8.5h-92q-9 0 -17.5 8.5t-6.5 16.5z" />
    <glyph glyph-name="J" unicode="J" horiz-adv-x="798" 
d="M227 293q-5 -73 35.5 -119.5t114.5 -46.5q81 0 138.5 52t70.5 145l129 917q0 8 9.5 16.5t18.5 8.5h93q7 0 14.5 -8.5t7.5 -16.5l-131 -926q-22 -162 -124 -244.5t-245 -82.5q-132 0 -212.5 86.5t-63.5 210.5l2 8q0 7 10 15.5t19 8.5h92q7 0 14.5 -8t7.5 -16z" />
    <glyph glyph-name="K" unicode="K" horiz-adv-x="872" 
d="M635 768l186 -743q-2 -8 -10.5 -16.5t-17.5 -8.5h-91q-8 0 -19.5 7.5t-14.5 17.5l-148 575l-225 -326l-35 -249q-2 -8 -11 -16.5t-16 -8.5h-92q-9 0 -17.5 8.5t-6.5 16.5l172 1216q0 8 9.5 16.5t18.5 8.5h93q7 0 14.5 -8.5t7.5 -16.5l-96 -684l473 684q6 10 18.5 17.5
t20.5 7.5h92q9 0 17 -8.5t8 -16.5z" />
    <glyph glyph-name="L" unicode="L" horiz-adv-x="718" 
d="M276 137h375q6 0 13 -8.5t6 -17.5l-13 -88q-2 -6 -10 -14.5t-14 -8.5h-492q-9 0 -17.5 8.5t-6.5 16.5l172 1216q0 8 9.5 16.5t18.5 8.5h93q7 0 14.5 -8.5t7.5 -16.5z" />
    <glyph glyph-name="M" unicode="M" horiz-adv-x="1134" 
d="M629 322h-33q-11 0 -14 10l-195 588l-127 -895q-2 -8 -11 -16.5t-16 -8.5h-92q-9 0 -17.5 8.5t-6.5 16.5l172 1216q0 8 9.5 16.5t18.5 8.5h99q6 0 12 -5.5t8 -11.5l215 -647l396 647q13 17 24 17h98q9 0 17 -8.5t8 -16.5l-172 -1216q-2 -8 -11 -16.5t-18 -8.5h-92
q-8 0 -15.5 9t-6.5 16l127 895l-363 -588q-3 -10 -14 -10z" />
    <glyph glyph-name="N" unicode="N" horiz-adv-x="919" 
d="M670 14l-289 860l-121 -849q-2 -8 -11 -16.5t-16 -8.5h-92q-9 0 -17.5 8.5t-6.5 16.5l172 1216q0 8 9.5 16.5t18.5 8.5h86q16 0 21 -15l289 -886l123 876q0 7 9 16t17 9h92q9 0 17 -8.5t8 -16.5l-172 -1216q-2 -8 -11 -16.5t-18 -8.5h-86q-13 0 -22 14z" />
    <glyph glyph-name="O" unicode="O" horiz-adv-x="917" 
d="M637 1280q154 0 241.5 -92.5t67.5 -231.5l-90 -643q-20 -139 -132.5 -231t-266.5 -92q-155 0 -242.5 92t-67.5 231l91 643q20 139 132.5 231.5t266.5 92.5zM475 127q87 0 156.5 54t85.5 163l82 582q16 109 -38.5 163t-142.5 54q-87 0 -156 -54t-85 -163l-82 -582
q-16 -109 38.5 -163t141.5 -54z" />
    <glyph glyph-name="P" unicode="P" 
d="M754 719l22 170q17 113 -36.5 176t-135.5 63h-188l-92 -651h188q81 0 153.5 64t88.5 178zM305 340l-45 -315q-2 -8 -11 -16.5t-18 -8.5h-90q-9 0 -17.5 8.5t-6.5 16.5l172 1216q0 8 9.5 16.5t18.5 8.5h316q141 0 227.5 -96t61.5 -267l-27 -192q-13 -90 -51 -162t-92 -117
t-117.5 -68.5t-130.5 -23.5h-199z" />
    <glyph glyph-name="Q" unicode="Q" horiz-adv-x="962" 
d="M924 127q6 0 12.5 -9t5.5 -18l-12 -88q0 -6 -9.5 -14t-15.5 -8h-461q-146 0 -231 94t-66 229l91 643q20 139 132.5 231.5t266.5 92.5t241.5 -92.5t67.5 -231.5l-90 -643q-15 -102 -86 -186h154zM295 344q-16 -109 38.5 -163t141.5 -54t156.5 54t85.5 163l82 582
q16 109 -38.5 163t-142.5 54q-87 0 -156 -54t-85 -163z" />
    <glyph glyph-name="R" unicode="R" horiz-adv-x="870" 
d="M905 786q-17 -118 -74 -201t-143 -126l74 -430q-2 -11 -11 -20t-20 -9h-78q-24 0 -28 29l-68 391q-28 -4 -43 -4h-199l-55 -391q-2 -8 -11 -16.5t-18 -8.5h-90q-9 0 -17.5 8.5t-6.5 16.5l172 1216q0 8 9.5 16.5t18.5 8.5h316q141 0 227.5 -96t61.5 -267zM764 795l12 94
q17 113 -36.5 176t-135.5 63h-188l-82 -575h188q81 0 153.5 64t88.5 178z" />
    <glyph glyph-name="S" unicode="S" horiz-adv-x="851" 
d="M217 961q12 83 48 146t89 100t114.5 55t131.5 18q63 0 116.5 -16.5t97 -52t63.5 -99.5t8 -149q-2 -8 -12 -16.5t-19 -8.5h-92q-8 0 -15 9t-6 16q7 31 2 64t-17.5 60t-49 44.5t-92.5 17.5q-55 0 -97 -16t-63.5 -35.5t-36.5 -50t-18.5 -43.5t-6.5 -33q-9 -62 15 -111.5
t69 -83t100.5 -65t110 -67t98 -78.5t65 -110.5t9.5 -152.5q-15 -107 -72.5 -179.5t-135.5 -103t-172 -30.5q-62 0 -118.5 18t-104.5 54.5t-75 101t-24 149.5q2 8 12 16.5t19 8.5h92q8 0 15 -9t5 -16q-7 -79 39.5 -135.5t155.5 -56.5q55 0 97 16t64 36t36.5 49t18 44.5
t5.5 32.5q8 54 -5.5 98t-41.5 75.5t-66 58t-81.5 50t-86.5 48t-80.5 55.5t-65 68t-39.5 90.5t-3 118.5z" />
    <glyph glyph-name="T" unicode="T" horiz-adv-x="716" 
d="M289 25l155 1103h-211q-6 0 -12.5 9t-5.5 18l12 88q0 6 9.5 14.5t15.5 8.5h565q6 0 13.5 -8.5t7.5 -14.5l-13 -88q-1 -9 -10.5 -18t-15.5 -9h-211l-156 -1103q-2 -8 -10.5 -16.5t-15.5 -8.5h-93q-9 0 -17.5 8.5t-6.5 16.5z" />
    <glyph glyph-name="U" unicode="U" horiz-adv-x="937" 
d="M467 -10q-155 0 -242 92t-67 231l131 928q0 8 9.5 16.5t18.5 8.5h93q7 0 14.5 -8.5t7.5 -16.5l-127 -897q-16 -109 38.5 -163t141.5 -54t156.5 54t85.5 163l127 897q0 7 9.5 16t17.5 9h92q9 0 16.5 -8.5t7.5 -16.5l-131 -928q-20 -139 -132.5 -231t-266.5 -92z" />
    <glyph glyph-name="V" unicode="V" horiz-adv-x="909" 
d="M532 0h-155q-9 0 -16 7.5t-9 17.5l-125 1216q0 8 10 16.5t19 8.5h92q7 0 15 -8.5t8 -16.5l108 -1061l408 1061q0 7 9 16t17 9h93q9 0 16.5 -8.5t7.5 -16.5l-469 -1216q-11 -25 -29 -25z" />
    <glyph glyph-name="W" unicode="W" horiz-adv-x="1191" 
d="M748 1266h49q4 0 10 -6t6 -15l66 -971l301 967q0 7 9 16t17 9h92q9 0 17 -8.5t8 -16.5l-391 -1216q-3 -9 -12 -17t-17 -8h-121q-7 0 -14.5 8.5t-7.5 16.5l-53 763l-271 -763q-3 -9 -11 -17t-15 -8h-121q-9 0 -17 8.5t-8 16.5l-47 1216q0 8 10 16.5t19 8.5h92
q7 0 14.5 -8.5t7.5 -16.5l27 -967l340 971q3 9 10 15t11 6z" />
    <glyph glyph-name="X" unicode="X" horiz-adv-x="835" 
d="M483 471l-276 -446q-5 -8 -15.5 -16.5t-17.5 -8.5h-88q-9 0 -17.5 9t-7.5 16l367 596l-201 620q0 8 10 16.5t19 8.5h88q7 0 16.5 -8.5t12.5 -16.5l151 -475l287 475q3 8 14.5 16.5t18.5 8.5h88q9 0 16.5 -8.5t7.5 -16.5l-376 -620l198 -596q-2 -8 -10.5 -16.5t-17.5 -8.5
h-88q-7 0 -17 8.5t-12 16.5z" />
    <glyph glyph-name="Y" unicode="Y" horiz-adv-x="847" 
d="M508 608l328 633q3 9 11 17t15 8h92q9 0 17 -8.5t8 -16.5l-426 -823l-55 -393q-2 -8 -11 -16.5t-16 -8.5h-92q-9 0 -18 9t-7 16l56 393l-193 823q0 8 10 16.5t19 8.5h92q12 0 22 -25z" />
    <glyph glyph-name="Z" unicode="Z" horiz-adv-x="770" 
d="M825 1114l-565 -977h412q6 0 12.5 -8.5t5.5 -17.5l-12 -88q-2 -6 -10.5 -14.5t-14.5 -8.5h-532q-9 0 -18 9t-7 16l15 98q2 17 10 29l565 976h-412q-6 0 -12.5 9t-5.5 18l12 88q0 6 9.5 14.5t15.5 8.5h532q9 0 17 -8.5t8 -16.5l-14 -98q-1 -7 -3 -13t-4.5 -10t-3.5 -6z
" />
    <glyph glyph-name="bracketleft" unicode="[" horiz-adv-x="548" 
d="M604 1376h-153l-209 -1480h153q6 0 13.5 -9t7.5 -18l-15 -88q0 -6 -9 -14.5t-15 -8.5h-271q-9 0 -16.5 8.5t-5.5 16.5l240 1706q0 8 9.5 16t18.5 8h271q6 0 13 -8t7 -14l-12 -88q-1 -9 -11 -18t-16 -9z" />
    <glyph glyph-name="backslash" unicode="\" horiz-adv-x="694" 
d="M459 1483l90 -1696q-2 -11 -11.5 -20t-21.5 -9h-78q-22 0 -26 29l-90 1696q2 10 12 19t20 9h78q13 0 20 -8.5t7 -19.5z" />
    <glyph glyph-name="bracketright" unicode="]" horiz-adv-x="548" 
d="M483 1376h-153q-6 0 -13 9t-6 18l13 88q0 6 9 14t15 8h270q9 0 17 -8t8 -16l-240 -1706q-2 -8 -11.5 -16.5t-18.5 -8.5h-271q-6 0 -13 8.5t-7 14.5l14 88q0 9 9 18t16 9h153z" />
    <glyph glyph-name="asciicircum" unicode="^" horiz-adv-x="630" 
d="M422 1266h139q19 0 23 -25l65 -289q-1 -9 -10 -16.5t-18 -7.5h-76q-17 0 -21 24l-47 203l-104 -203q-12 -24 -29 -24h-76q-9 0 -15.5 7.5t-4.5 16.5l147 289q13 25 27 25z" />
    <glyph glyph-name="underscore" unicode="_" horiz-adv-x="741" 
d="M575 -197h-466q-6 0 -13 8.5t-6 14.5l12 88q0 8 9 17.5t16 9.5h467q6 0 13 -9t7 -18l-12 -88q-2 -6 -11.5 -14.5t-15.5 -8.5z" />
    <glyph glyph-name="grave" unicode="`" horiz-adv-x="438" 
d="M446 1241l15 -252q-3 -23 -29 -26h-76q-17 2 -24 26l-43 252q3 22 24 25h111q19 -3 22 -25z" />
    <glyph glyph-name="a" unicode="a" 
d="M666 309l45 324q12 88 -33.5 138t-132.5 50q-79 0 -137.5 -50t-75.5 -169l-37 -262q-17 -119 27 -169t124 -50q88 0 148 50t72 138zM893 918l-125 -893q-2 -8 -11 -16.5t-16 -8.5h-92q-9 0 -17.5 8.5t-6.5 16.5l6 45q-46 -37 -93 -56t-71 -21.5t-59 -2.5q-307 0 -261 329
l43 304q46 329 353 329q35 0 58 -2.5t64.5 -21.5t77.5 -56l7 46q2 8 11.5 16t18.5 8h92q8 0 15 -8.5t6 -15.5z" />
    <glyph glyph-name="b" unicode="b" 
d="M346 633l-45 -324q-12 -88 33.5 -138t132.5 -50q79 0 137.5 50t75.5 169l37 262q17 119 -27.5 169t-124.5 50q-88 0 -147.5 -50t-71.5 -138zM117 25l172 1216q0 7 9 16t17 9h93q9 0 16.5 -8.5t7.5 -16.5l-53 -369q47 37 94.5 56t71.5 21.5t59 2.5q304 0 258 -329
l-43 -304q-46 -329 -350 -329q-35 0 -58.5 2.5t-65.5 21.5t-79 56l-6 -45q-2 -8 -11 -16.5t-18 -8.5h-92q-8 0 -15.5 9t-6.5 16z" />
    <glyph glyph-name="c" unicode="c" horiz-adv-x="843" 
d="M145 299l50 344q19 131 125.5 220t240.5 89q131 0 215.5 -79t77.5 -199q-2 -8 -12 -16.5t-17 -8.5h-92q-22 0 -22 27q-4 65 -51 105t-117 40q-79 0 -137.5 -54t-69.5 -136l-45 -320q-12 -82 31 -136t122 -54q70 0 128 40t81 105q6 27 31 27h92q8 0 15 -9t6 -16
q-26 -120 -133 -199t-238 -79q-135 0 -217.5 89t-63.5 220z" />
    <glyph glyph-name="d" unicode="d" 
d="M666 309l45 324q12 88 -33.5 138t-132.5 50q-79 0 -137.5 -50t-75.5 -169l-37 -262q-17 -119 27 -169t124 -50q88 0 148 50t72 138zM940 1241l-172 -1216q-2 -8 -11 -16.5t-16 -8.5h-92q-9 0 -17.5 8.5t-6.5 16.5l6 45q-46 -37 -93 -56t-71 -21.5t-59 -2.5
q-307 0 -261 329l43 304q46 329 353 329q35 0 58 -2.5t64.5 -21.5t77.5 -56l54 369q0 8 9.5 16.5t18.5 8.5h93q7 0 14.5 -8.5t7.5 -16.5z" />
    <glyph glyph-name="e" unicode="e" horiz-adv-x="858" 
d="M842 637l-27 -191q-1 -7 -11 -15.5t-18 -8.5h-481l-16 -119q-11 -82 32 -132t125 -50q95 0 162 78q19 24 39 24h96q8 0 15 -8.5t6 -15.5q-45 -87 -141 -148t-195 -61q-134 0 -217.5 88.5t-65.5 218.5l48 340q19 133 124.5 224t245.5 91q141 0 219.5 -90.5t59.5 -224.5z
M686 551l12 86q12 81 -30 132.5t-125 51.5q-81 0 -138 -51.5t-69 -132.5l-12 -86h362z" />
    <glyph glyph-name="f" unicode="f" horiz-adv-x="595" 
d="M655 1280h39q6 0 13.5 -9t7.5 -18l-15 -88q0 -6 -9 -14t-15 -8h-23q-79 0 -116 -35.5t-45 -99.5l-11 -66h181q6 0 12.5 -9t5.5 -18l-12 -88q0 -6 -9.5 -14t-15.5 -8h-180l-111 -780q-2 -8 -10.5 -16.5t-15.5 -8.5h-93q-9 0 -17.5 8.5t-6.5 16.5l110 780h-141q-6 0 -13 8
t-7 14l12 88q1 9 11 18t16 9h141l8 62q12 84 38.5 139.5t68.5 84.5t89.5 40.5t112.5 11.5z" />
    <glyph glyph-name="g" unicode="g" 
d="M672 354l39 279q12 88 -33.5 138t-132.5 50q-79 0 -137.5 -50t-75.5 -169l-31 -217q-17 -119 27.5 -169t124.5 -50q88 0 147.5 50t71.5 138zM158 -125q2 8 11.5 16.5t18.5 8.5h84q21 0 29 -25q32 -88 135 -88q79 0 125 53t57 140l19 135q-46 -37 -93 -56t-71 -21.5
t-59 -2.5q-305 0 -258 330l34 258q46 329 353 329q35 0 58 -2.5t64.5 -21.5t77.5 -56l7 46q2 8 11.5 16t18.5 8h92q8 0 15 -8.5t6 -15.5l-135 -969q-19 -131 -113 -212t-227 -81q-114 0 -194 58.5t-66 160.5z" />
    <glyph glyph-name="h" unicode="h" 
d="M635 25l82 577q17 119 -27.5 169t-124.5 50q-88 0 -147.5 -50t-71.5 -138l-86 -608q-2 -8 -11 -16.5t-18 -8.5h-92q-8 0 -15.5 9t-6.5 16l172 1216q0 7 9 16t17 9h93q9 0 16.5 -8.5t7.5 -16.5l-53 -369q47 37 94.5 56t71.5 21.5t59 2.5q304 0 258 -329l-84 -598
q-2 -8 -10.5 -16.5t-17.5 -8.5h-93q-8 0 -15.5 9t-6.5 16z" />
    <glyph glyph-name="i" unicode="i" horiz-adv-x="372" 
d="M117 25l125 893q2 8 11.5 16t18.5 8h93q8 0 14.5 -8.5t5.5 -15.5l-125 -893q-2 -8 -11 -16.5t-16 -8.5h-92q-9 0 -17.5 8.5t-6.5 16.5zM264 1069l23 168q2 8 11.5 16.5t18.5 8.5h93q8 0 15 -9t5 -16l-22 -168q-2 -8 -12 -16.5t-17 -8.5h-92q-9 0 -17 8.5t-6 16.5z" />
    <glyph glyph-name="j" unicode="j" horiz-adv-x="372" 
d="M-90 -197h14q46 0 79.5 12.5t52 29.5t32 49t18.5 56t11 66l125 902q2 8 11.5 16t18.5 8h93q8 0 14.5 -8.5t5.5 -15.5l-129 -932q-14 -93 -41 -156.5t-68 -99t-90.5 -50t-115.5 -14.5h-50q-6 0 -13 8.5t-7 14.5l12 88q1 9 11 17.5t16 8.5zM264 1069l23 168q2 8 11.5 16.5
t18.5 8.5h93q8 0 15 -9t5 -16l-22 -168q-2 -8 -12 -16.5t-17 -8.5h-92q-9 0 -17 8.5t-6 16.5z" />
    <glyph glyph-name="k" unicode="k" horiz-adv-x="841" 
d="M811 25q-2 -8 -11 -16.5t-18 -8.5h-98q-14 0 -33 25l-116 485l-250 -320l-25 -165q-2 -8 -11 -16.5t-16 -8.5h-92q-9 0 -17.5 8.5t-6.5 16.5l172 1216q0 8 9.5 16.5t18.5 8.5h93q7 0 14.5 -8.5t7.5 -16.5l-113 -801l371 478q24 24 39 24h98q9 0 17 -8t6 -16l-195 -252
q3 -13 64.5 -267t91.5 -374z" />
    <glyph glyph-name="l" unicode="l" horiz-adv-x="372" 
d="M117 25l172 1216q0 8 9.5 16.5t18.5 8.5h93q7 0 14.5 -8.5t7.5 -16.5l-172 -1216q-2 -8 -11 -16.5t-16 -8.5h-92q-9 0 -17.5 8.5t-6.5 16.5z" />
    <glyph glyph-name="m" unicode="m" horiz-adv-x="1318" 
d="M1073 25l86 612q12 81 -28.5 132.5t-120.5 51.5q-50 0 -93.5 -28.5t-72.5 -75.5q-3 -35 -6 -53l-90 -639q-2 -8 -11 -16.5t-18 -8.5h-92q-8 0 -16 9t-7 16l86 610q13 92 -20 139t-105 47q-88 0 -147.5 -50t-71.5 -138l-86 -608q-2 -8 -11 -16.5t-18 -8.5h-92
q-8 0 -15.5 9t-6.5 16l125 893q2 8 11.5 16t16.5 8h92q9 0 17 -8t6 -16l-6 -46q47 37 97.5 56t75.5 21.5t62 2.5q65 0 119 -31.5t84 -84.5q94 116 250 116q125 0 192 -79t50 -199l-92 -649q-2 -8 -11 -16.5t-18 -8.5h-92q-8 0 -16 9t-7 16z" />
    <glyph glyph-name="n" unicode="n" 
d="M635 25l82 577q17 119 -27.5 169t-124.5 50q-88 0 -147.5 -50t-71.5 -138l-86 -608q-2 -8 -11 -16.5t-18 -8.5h-92q-8 0 -15.5 9t-6.5 16l125 893q2 8 11.5 16t16.5 8h92q9 0 17 -8t6 -16l-6 -46q47 37 94.5 56t71.5 21.5t59 2.5q304 0 258 -329l-84 -598
q-2 -8 -10.5 -16.5t-17.5 -8.5h-93q-8 0 -15.5 9t-6.5 16z" />
    <glyph glyph-name="o" unicode="o" horiz-adv-x="856" 
d="M561 952q138 0 218 -90.5t61 -222.5l-47 -336q-19 -132 -124 -222.5t-243 -90.5t-219 90.5t-62 222.5l48 336q19 132 124.5 222.5t243.5 90.5zM444 121q79 0 136.5 52t68.5 132l47 332q12 80 -31 132t-122 52t-137 -52t-70 -132l-47 -332q-11 -80 32.5 -132t122.5 -52z
" />
    <glyph glyph-name="p" unicode="p" 
d="M346 633l-45 -324q-12 -88 33.5 -138t132.5 -50q79 0 137.5 50t75.5 169l37 262q17 119 -27.5 169t-124.5 50q-88 0 -147.5 -50t-71.5 -138zM72 -295l170 1213q2 8 11.5 16t16.5 8h92q9 0 17 -8t6 -16l-6 -46q47 37 94.5 56t71.5 21.5t59 2.5q304 0 258 -329l-43 -304
q-46 -329 -350 -329q-35 0 -58.5 2.5t-65.5 21.5t-79 56l-51 -365q0 -7 -10 -15.5t-19 -8.5h-92q-7 0 -14.5 8t-7.5 16z" />
    <glyph glyph-name="q" unicode="q" 
d="M666 309l45 324q12 88 -33.5 138t-132.5 50q-79 0 -137.5 -50t-75.5 -169l-37 -262q-17 -119 27 -169t124 -50q88 0 148 50t72 138zM893 918l-170 -1213q0 -7 -9.5 -15.5t-17.5 -8.5h-92q-9 0 -16.5 8t-7.5 16l51 365q-46 -37 -93 -56t-71 -21.5t-59 -2.5
q-307 0 -261 329l43 304q46 329 353 329q35 0 58 -2.5t64.5 -21.5t77.5 -56l7 46q2 8 11.5 16t18.5 8h92q8 0 15 -8.5t6 -15.5z" />
    <glyph glyph-name="r" unicode="r" horiz-adv-x="612" 
d="M694 942q6 0 13.5 -8t7.5 -14l-10 -72q-1 -9 -11 -18t-16 -9q-47 -4 -100 -26t-107 -62t-94.5 -109.5t-52.5 -156.5l-64 -442q-2 -8 -11 -16.5t-18 -8.5h-92q-8 0 -15.5 9t-6.5 16l125 893q2 8 11.5 16t16.5 8h92q9 0 17 -8t6 -16l-18 -138q48 59 113.5 97.5t117 51.5
t96.5 13z" />
    <glyph glyph-name="s" unicode="s" horiz-adv-x="735" 
d="M561 231q5 37 -15.5 67.5t-57 53.5t-81.5 45.5t-89.5 49t-80 58.5t-53.5 80.5t-10 108.5q10 66 43.5 117.5t80.5 81t98.5 44.5t103.5 15q73 0 126 -25.5t80 -66.5t39 -83.5t11 -86.5q-2 -8 -11 -16t-16 -8h-86q-8 0 -14 8t-6 16q0 71 -40 105t-94 34q-16 0 -29.5 -1
t-39.5 -8.5t-45 -20t-36 -39.5t-22 -64q-5 -36 15.5 -68t57 -57t81.5 -50t89.5 -53t80 -60t54 -77.5t10.5 -99.5q-8 -62 -42 -110t-82.5 -75.5t-101 -41.5t-104.5 -14q-59 0 -107 16t-78.5 41.5t-51 59t-29 67t-7.5 66.5q2 8 11 16t16 8h86q9 0 16 -8t5 -16
q6 -64 48.5 -95.5t96.5 -31.5q164 0 180 118z" />
    <glyph glyph-name="t" unicode="t" horiz-adv-x="626" 
d="M535 137h14q6 0 12.5 -8t5.5 -14l-12 -88q-1 -9 -10 -18t-15 -9h-53q-131 0 -190 75.5t-37 241.5l69 488h-141q-6 0 -12.5 8.5t-5.5 17.5l12 89q0 6 9.5 14t15.5 8h141l37 254q0 8 9.5 16.5t18.5 8.5h93q7 0 14.5 -8.5t7.5 -16.5l-37 -254h181q6 0 13 -8t7 -14l-12 -89
q-1 -9 -11 -17.5t-16 -8.5h-180l-68 -471q-6 -56 -2 -99t39 -69t103 -29z" />
    <glyph glyph-name="u" unicode="u" 
d="M375 918l-80 -578q-17 -119 27 -169t124 -50q88 0 148 50t72 138l84 609q2 8 11.5 16t18.5 8h92q8 0 15 -8.5t6 -15.5l-125 -893q-2 -8 -11 -16.5t-16 -8.5h-92q-9 0 -17.5 8.5t-6.5 16.5l6 45q-46 -37 -93 -56t-71 -21.5t-59 -2.5q-307 0 -261 329l84 599q2 8 12 16
t19 8h92q8 0 15 -8.5t6 -15.5z" />
    <glyph glyph-name="v" unicode="v" horiz-adv-x="806" 
d="M481 0h-155q-9 0 -16.5 7.5t-8.5 17.5l-131 893q2 8 12 16t19 8h92q7 0 13.5 -8t6.5 -16l113 -756l322 756q3 8 12 16t16 8h92q9 0 17 -8t6 -16l-381 -893q-11 -25 -29 -25z" />
    <glyph glyph-name="w" unicode="w" horiz-adv-x="1105" 
d="M651 940h66q7 0 10.5 -6t3.5 -10l64 -768l241 762q1 7 11 15.5t18 8.5h92q9 0 17 -8t6 -16l-301 -893q-3 -9 -12 -17t-17 -8h-148q-7 0 -14.5 8.5t-7.5 16.5l-47 553l-203 -553q-3 -8 -11.5 -16.5t-15.5 -8.5h-147q-9 0 -17 8.5t-8 16.5l-51 893q2 8 12 16t19 8h92
q8 0 15 -8.5t6 -15.5l28 -762l281 768q0 4 5.5 10t12.5 6z" />
    <glyph glyph-name="x" unicode="x" horiz-adv-x="724" 
d="M408 330l-213 -305q-5 -8 -15.5 -16.5t-17.5 -8.5h-88q-9 0 -17.5 9t-7.5 16l301 434l-180 459q2 8 12 16t19 8h88q7 0 15.5 -8t10.5 -16l129 -328l220 328q5 8 16 16t18 8h88q9 0 17 -8t6 -16l-307 -459l178 -434q-2 -8 -11 -16.5t-18 -8.5h-88q-7 0 -16.5 8.5
t-11.5 16.5z" />
    <glyph glyph-name="y" unicode="y" horiz-adv-x="774" 
d="M858 918l-491 -1213q-2 -8 -11 -16t-16 -8h-92q-9 0 -17 8t-8 16l103 252l-156 961q2 8 12 16t19 8h92q7 0 13.5 -8t6.5 -16l113 -713l289 713q3 8 12 16t16 8h93q9 0 16.5 -8t5.5 -16z" />
    <glyph glyph-name="z" unicode="z" horiz-adv-x="667" 
d="M709 791l-473 -654h364q6 0 12.5 -8.5t5.5 -17.5l-12 -88q-2 -6 -10 -14.5t-14 -8.5h-492q-9 0 -17.5 8.5t-6.5 16.5l14 98q2 17 10 29l471 653h-358q-6 0 -13 8.5t-6 17.5l13 89q0 6 9 14t15 8h488q9 0 16.5 -8t5.5 -16l-12 -99q-1 -7 -3 -12.5t-4 -9.5z" />
    <glyph glyph-name="braceleft" unicode="{" horiz-adv-x="724" 
d="M508 365l-47 -330q-10 -75 19.5 -107t90.5 -32q6 0 13.5 -9t7.5 -18l-14 -88q0 -6 -9.5 -14.5t-15.5 -8.5h-78q-85 0 -132 59.5t-34 153.5l49 361q14 100 -29.5 162.5t-113.5 70.5q-6 0 -12.5 9t-5.5 18l12 88q2 6 11.5 14t15.5 8q71 8 132.5 70.5t75.5 163.5l52 364
q12 94 75.5 153.5t149.5 59.5h78q6 0 13 -8t7 -14l-12 -88q-1 -9 -11 -18t-16 -9q-130 0 -151 -139l-45 -332q-5 -34 -12.5 -58.5t-28 -62.5t-62.5 -76t-104 -73q52 -35 83.5 -74.5t40 -72.5t11 -66.5t-3.5 -56.5z" />
    <glyph glyph-name="bar" unicode="|" horiz-adv-x="372" 
d="M84 -217l240 1706q0 8 9.5 16t18.5 8h92q7 0 15 -8t8 -16l-240 -1706q-2 -8 -11.5 -16.5t-16.5 -8.5h-93q-9 0 -16.5 8.5t-5.5 16.5z" />
    <glyph glyph-name="braceright" unicode="}" horiz-adv-x="724" 
d="M272 35l47 330q4 33 11.5 58.5t27.5 63t62 75.5t104 73q-42 29 -70.5 60.5t-41.5 57.5t-18 57t-4 50t5 45l45 332q21 139 -110 139q-6 0 -13 9t-6 18l13 88q0 6 9 14t15 8h78q85 0 132.5 -59t35.5 -154l-51 -364q-14 -101 29.5 -163.5t113.5 -70.5q6 0 13 -8t6 -14
l-13 -88q-1 -9 -10.5 -18t-15.5 -9q-71 -8 -133 -71t-76 -162l-49 -361q-13 -94 -77.5 -153.5t-150.5 -59.5h-78q-6 0 -13 8.5t-7 14.5l14 88q0 9 9 18t16 9q133 0 151 139z" />
    <glyph glyph-name="asciitilde" unicode="~" horiz-adv-x="688" 
d="M512 391q-39 0 -98.5 25.5t-87.5 25.5q-43 0 -68 -28q-11 -11 -18 -11q-13 0 -17 11l-37 55q-4 6 -4 16q0 6 11 21q25 29 57.5 48t58.5 19q35 0 93.5 -25.5t93.5 -25.5q41 0 67 29q10 10 19 10q13 0 16 -10l39 -55q4 -13 2 -17q0 -10 -10 -20q-25 -29 -58 -48.5
t-59 -19.5z" />
    <glyph glyph-name="uni00A0" unicode="&#xa0;" horiz-adv-x="378" 
 />
    <glyph glyph-name="exclamdown" unicode="&#xa1;" horiz-adv-x="372" 
d="M117 25l127 897q0 8 9.5 16t18.5 8h93q7 0 14.5 -8t7.5 -16l-127 -897q-2 -8 -11 -16.5t-16 -8.5h-92q-9 0 -17.5 8.5t-6.5 16.5zM264 1073l25 168q0 8 9.5 16.5t18.5 8.5h93q7 0 14.5 -8.5t7.5 -16.5l-24 -168q-1 -7 -11 -15.5t-18 -8.5h-92q-9 0 -17 8t-6 16z" />
    <glyph glyph-name="cent" unicode="&#xa2;" horiz-adv-x="927" 
d="M834 330q8 0 15 -9t5 -16q-26 -113 -114.5 -198.5t-202.5 -108.5l-82 -225q-11 -25 -23 -25h-104q-9 0 -14 7t-3 18l99 221q-129 15 -200 104t-52 215l90 643q19 129 117.5 219t236.5 103l88 238q7 24 21 24h104q19 0 19 -24l-111 -246q104 -25 167 -110t58 -195
q-2 -8 -11.5 -16.5t-16.5 -8.5h-93q-22 0 -22 27q5 97 -48 139.5t-132 42.5q-86 0 -155 -54t-85 -163l-82 -594q-16 -109 38 -163t140 -54q36 0 70 9t66.5 28.5t57.5 56.5t36 88q9 27 30 27h93z" />
    <glyph glyph-name="sterling" unicode="&#xa3;" horiz-adv-x="1019" 
d="M379 666l43 305q19 133 117 221t231 88q128 0 205 -78.5t69 -200.5q0 -7 -9 -15.5t-17 -8.5h-92q-10 0 -17.5 7t-7.5 20q-5 67 -43 106t-106 39q-77 0 -127 -53t-62 -138l-41 -292h174q6 0 13 -9t6 -18l-13 -88q0 -6 -9 -14.5t-15 -8.5h-174l-55 -391h411q6 0 13 -8.5
t6 -17.5l-13 -88q-2 -6 -10 -14.5t-14 -8.5h-705q-6 0 -13.5 8.5t-6.5 14.5l12 88q1 9 11 17.5t16 8.5h149l55 391h-149q-6 0 -13.5 8.5t-7.5 14.5l13 88q1 9 10.5 18t15.5 9h150z" />
    <glyph glyph-name="currency" unicode="&#xa4;" horiz-adv-x="870" 
d="M698 258l72 -84q8 -9 6 -16q0 -7 -12 -19l-72 -63q-9 -6 -18 -6q-11 0 -17 6l-71 80q-72 -29 -135 -29q-59 0 -125 29l-93 -80q-12 -6 -20 -6q-11 0 -14 6l-56 63q-8 16 -8 19q3 9 10 16l97 84q-16 67 -9 107l17 127q9 50 41 108l-74 84q-6 11 -4 16q0 8 12 17l72 65
q6 6 18 6q8 0 17 -6l71 -80q73 29 134 29t127 -29l92 80q9 6 20 6q9 0 15 -6l55 -65q8 -12 8 -17q-3 -10 -12 -16l-94 -84q16 -64 8 -108l-17 -127q-9 -50 -41 -107zM590 365l16 127q6 45 -18.5 74.5t-71.5 29.5q-45 0 -78 -29.5t-39 -74.5l-16 -127q-8 -45 16.5 -74
t69.5 -29q47 0 80 29t41 74z" />
    <glyph glyph-name="yen" unicode="&#xa5;" horiz-adv-x="991" 
d="M813 602q6 0 12.5 -9t5.5 -18l-12 -88q-2 -6 -11 -14t-15 -8h-144l-24 -47l-15 -105h162q6 0 13 -8.5t6 -17.5l-13 -88q0 -6 -9 -14.5t-15 -8.5h-162l-23 -151q-2 -8 -10.5 -16.5t-15.5 -8.5h-92q-9 0 -18 9t-7 16l23 151h-162q-6 0 -13.5 8.5t-7.5 14.5l13 88
q1 9 10.5 17.5t15.5 8.5h162l14 105l-10 47h-145q-6 0 -13 8t-6 14l12 88q1 9 11 18t16 9h94l-151 639q0 8 9.5 16.5t18.5 8.5h93q12 0 22 -25l148 -633l327 633q3 8 11.5 16.5t15.5 8.5h92q9 0 17 -8.5t8 -16.5l-330 -639h92z" />
    <glyph glyph-name="brokenbar" unicode="&#xa6;" horiz-adv-x="372" 
d="M244 922l80 567q0 8 9.5 16t18.5 8h92q7 0 15 -8t8 -16l-80 -567q-2 -8 -12 -16.5t-17 -8.5h-92q-9 0 -16.5 8.5t-5.5 16.5zM84 -217l80 567q0 8 10 16.5t19 8.5h92q7 0 14.5 -8.5t7.5 -16.5l-80 -567q-2 -8 -11.5 -16.5t-16.5 -8.5h-93q-9 0 -16.5 8.5t-5.5 16.5z" />
    <glyph glyph-name="section" unicode="&#xa7;" horiz-adv-x="1056" 
d="M1020 559q-14 -104 -93 -163.5t-182 -73.5q13 -44 5 -91q-8 -62 -42 -110t-82.5 -75.5t-101 -41.5t-104.5 -14q-59 0 -107 16t-78.5 41.5t-51 59t-29 67t-7.5 66.5q2 8 11 16t16 8h86q9 0 16 -8t5 -16q6 -64 48.5 -95.5t96.5 -31.5q164 0 180 118q5 37 -15.5 67.5
t-57 53.5t-81.5 45.5t-89.5 49t-80 58.5t-53.5 80.5t-10 108.5q16 112 93.5 176.5t179.5 77.5q-9 34 -3 74q9 66 42 117.5t80 81t98.5 44.5t103.5 15q73 0 126.5 -25.5t80.5 -66.5t39 -83.5t10 -86.5q0 -8 -8.5 -16.5t-16.5 -8.5h-86q-17 0 -22 25q0 71 -38.5 105t-92.5 34
q-16 0 -29.5 -1t-39.5 -8.5t-45 -20t-36 -39.5t-22 -64q-5 -36 15 -68t56.5 -57t81 -50t89 -53t80 -60t54.5 -77.5t11 -99.5zM711 440q150 0 166 119q4 32 -8.5 58.5t-44 51t-61 41.5t-82.5 44.5t-85 46.5q-2 1 -11 6t-12.5 6.5t-11.5 5t-13 5t-13 3.5t-15 2h-8
q-62 0 -102 -38.5t-48 -94.5q-6 -51 65 -113.5t156.5 -102.5t127.5 -40z" />
    <glyph glyph-name="dieresis" unicode="&#xa8;" horiz-adv-x="604" 
d="M283 1204q4 32 31 54t61 22q30 0 49.5 -22t15.5 -54t-30 -55t-56 -23q-34 0 -54.5 23t-16.5 55zM500 1204q4 32 31 54t61 22q30 0 49.5 -22t15.5 -54t-30 -55t-56 -23q-34 0 -54.5 23t-16.5 55z" />
    <glyph glyph-name="copyright" unicode="&#xa9;" horiz-adv-x="1517" 
d="M934 1280q177 0 314 -86t202.5 -235t40.5 -326q-24 -174 -131 -322t-268 -234.5t-338 -86.5q-173 0 -308.5 86.5t-201 234.5t-41.5 322q25 177 132 326t266.5 235t332.5 86zM770 98q144 0 281 74.5t229 198.5t111 264q20 144 -37 270t-172.5 200.5t-259.5 74.5
q-140 0 -274.5 -74.5t-226.5 -200.5t-112 -270q-14 -105 16 -204t92.5 -172t155 -117t197.5 -44zM705 516l32 227q8 61 50 90t87 29q44 0 78 -25t27 -79l-4 -21q-3 -29 24 -32h82q13 2 22.5 10.5t10.5 21.5l2 8q13 103 -52.5 170.5t-172.5 67.5q-108 0 -194 -68t-99 -170
l-33 -231q-15 -103 51.5 -170.5t174.5 -67.5q107 0 192 67.5t100 170.5v8q3 13 -4 22t-18 11h-82q-28 -3 -35 -33l-2 -20q-8 -54 -48.5 -79.5t-84.5 -25.5q-45 0 -78.5 29t-25.5 90z" />
    <glyph glyph-name="ordfeminine" unicode="&#xaa;" horiz-adv-x="665" 
d="M698 1268q31 -9 25 -31l-82 -586q-3 -21 -33 -30h-73q-26 9 -23 30l2 17q-26 -24 -56 -36t-49 -14t-49 -2q-71 0 -107.5 54t-27.5 131l41 286q11 76 63.5 130.5t123.5 54.5q31 0 48.5 -1.5t44.5 -13.5t46 -36l2 16q6 23 31 31h73zM537 817l34 252q4 31 -25.5 51.5
t-58.5 20.5q-85 0 -96 -72l-35 -252q-4 -24 3 -39.5t21.5 -22t26 -8.5t25.5 -2q29 0 64.5 20.5t40.5 51.5z" />
    <glyph glyph-name="guillemotleft" unicode="&#xab;" horiz-adv-x="989" 
d="M168 387q6 37 37 94l155 262q19 30 46 33h86q12 -2 19.5 -11t6.5 -22l-158 -262q-32 -52 -38 -94q-6 -40 12 -92l84 -262q-7 -29 -35 -33h-86q-26 3 -37 33l-82 262q-14 52 -10 92zM629 387q6 37 37 94l155 262q19 30 45 33h86q12 -2 20 -11t7 -22l-158 -262
q-13 -21 -17.5 -29t-11.5 -26.5t-10 -38.5q-6 -38 13 -92l84 -262q-7 -29 -35 -33h-86q-26 3 -37 33l-82 262q-14 52 -10 92z" />
    <glyph glyph-name="logicalnot" unicode="&#xac;" horiz-adv-x="770" 
d="M559 340h-375q-6 0 -12.5 9t-5.5 18l12 88q0 6 9.5 14t15.5 8h491q9 0 17 -8t8 -16l-45 -316q-2 -8 -12 -16t-19 -8h-92q-8 0 -15 8.5t-6 15.5z" />
    <glyph glyph-name="uni00AD" unicode="&#xad;" horiz-adv-x="378" 
 />
    <glyph glyph-name="registered" unicode="&#xae;" horiz-adv-x="1517" 
d="M934 1280q177 0 314 -86t202.5 -235t40.5 -326q-24 -174 -131 -322t-268 -234.5t-338 -86.5q-173 0 -308.5 86.5t-201 234.5t-41.5 322q25 177 132 326t266.5 235t332.5 86zM770 98q144 0 281 74.5t229 198.5t111 264q20 144 -37 270t-172.5 200.5t-259.5 74.5
q-140 0 -274.5 -74.5t-226.5 -200.5t-112 -270q-14 -105 16 -204t92.5 -172t155 -117t197.5 -44zM1120 688q-18 -132 -127 -207l21 -149q-1 -12 -11 -20.5t-22 -10.5h-84q-21 3 -25 31l-8 112h-102l-17 -112q-1 -12 -11 -20.5t-21 -10.5h-82q-11 2 -18.5 10.5t-6.5 20.5
l88 622q1 11 11.5 20t21.5 11h191q106 0 164.5 -71.5t41.5 -194.5zM821 862l-43 -299h107q30 0 58 27.5t34 71.5l14 104q6 45 -13.5 70.5t-49.5 25.5h-107z" />
    <glyph glyph-name="macron" unicode="&#xaf;" horiz-adv-x="677" 
d="M698 1128h-403q-6 0 -13.5 8.5t-7.5 14.5l15 88q0 9 9 18t15 9h404q6 0 13 -9t7 -18l-14 -88q0 -6 -9.5 -14.5t-15.5 -8.5z" />
    <glyph glyph-name="degree" unicode="&#xb0;" horiz-adv-x="636" 
d="M432 823q-96 0 -141.5 58t-28.5 170q15 113 76.5 171t157.5 58t142.5 -58t31.5 -171q-17 -112 -79.5 -170t-158.5 -58zM446 932q31 0 59 30.5t36 88.5q8 62 -10 89t-50 27q-31 0 -56.5 -27t-33.5 -89q-8 -59 9 -89t46 -30z" />
    <glyph glyph-name="plusminus" unicode="&#xb1;" horiz-adv-x="741" 
d="M504 465l-27 -199q-2 -6 -11 -14t-15 -8h-89q-9 0 -16.5 8t-5.5 14l27 199h-166q-6 0 -13 8t-6 14l13 88q1 9 10.5 18t15.5 9h166l27 199q2 6 11.5 14t18.5 8h88q6 0 13 -8t6 -14l-27 -199h164q6 0 13 -9t6 -18l-13 -88q-2 -6 -11 -14t-15 -8h-164zM604 0h-467
q-6 0 -13.5 8.5t-6.5 14.5l12 88q1 9 11 17.5t16 8.5h467q6 0 12.5 -8.5t5.5 -17.5l-12 -88q-2 -6 -10.5 -14.5t-14.5 -8.5z" />
    <glyph glyph-name="twosuperior" unicode="&#xb2;" horiz-adv-x="612" 
d="M344 707h231q9 0 14 -5.5t5 -11.5l-12 -82q0 -6 -7 -12t-16 -6h-336q-21 4 -18 24l12 91q7 48 31.5 89.5t56 70t68 56.5t67 50t52.5 50t26 56l2 15q5 31 -14 44t-41 13q-65 0 -74 -70q-2 -9 -9.5 -16.5t-16.5 -7.5h-80q-9 0 -15 6t-6 14q14 100 75.5 152.5t145.5 52.5
q78 0 126 -49.5t38 -124.5l-4 -33q-6 -44 -38 -86.5t-73.5 -77t-83 -67t-72 -67.5t-34.5 -68z" />
    <glyph glyph-name="threesuperior" unicode="&#xb3;" horiz-adv-x="610" 
d="M608 803l-8 -53q-10 -75 -72.5 -125t-140.5 -50q-84 0 -131 52.5t-33 152.5q2 8 9 14.5t16 6.5h80q9 0 15.5 -8t4.5 -17q-11 -69 55 -69q22 0 45 13t27 44l6 41q4 33 -14.5 44t-46.5 11h-33q-7 0 -11.5 6t-4.5 13l10 77q8 21 22 21h33q25 0 49.5 15.5t28.5 45.5l4 39
q5 31 -14 44.5t-41 13.5q-65 0 -74 -70q-2 -9 -10 -17t-17 -8h-79q-9 0 -15 6.5t-6 14.5q14 100 75.5 152.5t145.5 52.5q78 0 126 -49.5t38 -124.5l-8 -62q-10 -70 -72 -110q51 -43 41 -117z" />
    <glyph glyph-name="acute" unicode="&#xb4;" horiz-adv-x="565" 
d="M279 1126l241 136q8 4 15 4q16 0 20 -6l55 -80q4 -4 4 -11q-3 -16 -12 -20l-254 -115q-16 -4 -18 -4q-13 0 -17 4l-41 64q-4 4 -2 12q0 7 9 16z" />
    <glyph glyph-name="mu" unicode="&#xb5;" horiz-adv-x="890" 
d="M883 942q8 0 14.5 -8.5t5.5 -15.5l-125 -893q-2 -8 -10.5 -16.5t-15.5 -8.5h-93q-9 0 -17.5 8.5t-6.5 16.5l6 45q-46 -37 -93 -56t-71 -21.5t-59 -2.5q-95 0 -158 35l-45 -320q0 -7 -9.5 -15.5t-17.5 -8.5h-92q-9 0 -16.5 8t-7.5 16l170 1213q2 8 11.5 16t18.5 8h93
q8 0 14.5 -8.5t5.5 -15.5l-80 -578q-17 -119 27.5 -169t124.5 -50q88 0 147.5 50t71.5 138l84 609q2 8 12 16t19 8h92z" />
    <glyph glyph-name="paragraph" unicode="&#xb6;" horiz-adv-x="1095" 
d="M602 1266h531q7 0 14.5 -8.5t7.5 -16.5l-172 -1216q-2 -8 -11 -16.5t-16 -8.5h-92q-9 0 -17.5 8.5t-6.5 16.5l155 1103h-239l-156 -1103q-2 -8 -11 -16.5t-16 -8.5h-92q-9 0 -17.5 8.5t-6.5 16.5l78 546q-138 0 -230 65.5t-78 176.5l31 213q14 110 115.5 175t228.5 65z
" />
    <glyph glyph-name="periodcentered" unicode="&#xb7;" horiz-adv-x="397" 
d="M172 412q4 34 32.5 57t65.5 23q32 0 53 -23.5t17 -56.5q-4 -34 -32 -59t-60 -25q-37 0 -59 24.5t-17 59.5z" />
    <glyph glyph-name="cedilla" unicode="&#xb8;" horiz-adv-x="432" 
d="M311 -33l-78 -233q-10 -22 -26 -25h-111q-23 4 -20 25l106 233q14 25 31 27h76q25 -3 22 -27z" />
    <glyph glyph-name="onesuperior" unicode="&#xb9;" horiz-adv-x="497" 
d="M414 1135l-119 -60q-4 -2 -10 -2q-14 0 -19 14l13 82q1 7 9.5 17.5t14.5 13.5l113 57q23 9 30 9h91q23 -4 20 -23l-90 -645q-4 -21 -27 -25h-82q-9 2 -14 9t-4 16z" />
    <glyph glyph-name="ordmasculine" unicode="&#xba;" horiz-adv-x="636" 
d="M432 823q-96 0 -141.5 58t-28.5 170q15 113 76.5 171t157.5 58t142.5 -58t31.5 -171q-17 -112 -79.5 -170t-158.5 -58zM446 932q31 0 59 30.5t36 88.5q8 62 -10 89t-50 27q-31 0 -56.5 -27t-33.5 -89q-8 -59 9 -89t46 -30z" />
    <glyph glyph-name="guillemotright" unicode="&#xbb;" horiz-adv-x="989" 
d="M928 387q-4 -36 -35 -92l-156 -262q-19 -30 -45 -33h-86q-13 2 -21 11t-5 22l157 262q31 50 37 92q6 46 -10 94l-84 262q1 13 11.5 22t23.5 11h86q26 -3 37 -33l82 -262q14 -52 8 -94zM467 387q-4 -36 -35 -92l-156 -262q-19 -30 -45 -33h-86q-13 2 -21 11t-5 22l157 262
q31 50 37 92q6 46 -10 94l-84 262q1 13 11.5 22t23.5 11h86q26 -3 37 -33l82 -262q14 -52 8 -94z" />
    <glyph glyph-name="onequarter" unicode="&#xbc;" horiz-adv-x="1298" 
d="M414 1135l-119 -60q-4 -2 -10 -2q-14 0 -19 14l13 82q1 7 9.5 17.5t14.5 13.5l113 57q23 9 30 9h91q23 -4 20 -23l-90 -645q-4 -21 -27 -25h-82q-9 2 -14 9t-4 16zM971 154h-236q-15 0 -20 18l14 94q0 3 8 23l244 389q9 14 33 14h139q19 -4 16 -22l-55 -398h86
q8 0 14 -5.5t5 -12.5l-13 -82q0 -6 -7.5 -12t-14.5 -6h-86l-19 -129q-4 -21 -22 -25h-84q-9 2 -15.5 9t-5.5 16zM987 272l37 254l-164 -254h127zM1145 1237l-731 -1208q-17 -29 -41 -29h-78q-12 0 -20.5 9t-6.5 20l731 1208q17 29 43 29h78q12 0 19.5 -9t5.5 -20z" />
    <glyph glyph-name="onehalf" unicode="&#xbd;" horiz-adv-x="1255" 
d="M414 1135l-119 -60q-4 -2 -10 -2q-14 0 -19 14l13 82q1 7 9.5 17.5t14.5 13.5l113 57q23 9 30 9h91q23 -4 20 -23l-90 -645q-4 -21 -27 -25h-82q-9 2 -14 9t-4 16zM1145 1237l-731 -1208q-17 -29 -41 -29h-78q-12 0 -20.5 9t-6.5 20l731 1208q17 29 43 29h78
q12 0 19.5 -9t5.5 -20zM905 117h232q9 0 13.5 -5.5t2.5 -11.5l-10 -82q-5 -18 -23 -18h-336q-9 2 -15 9t-5 16l12 90q7 48 31.5 89.5t56.5 70t68.5 56.5t67.5 50t53 50t26 56l2 15q4 31 -14.5 44t-40.5 13q-67 0 -76 -70q-2 -9 -9.5 -16.5t-16.5 -7.5h-80q-9 0 -15 6t-4 14
q13 99 75 152t147 53q78 0 125.5 -49.5t37.5 -124.5l-4 -33q-6 -44 -38 -86.5t-73.5 -77t-83 -67t-72 -67.5t-34.5 -68z" />
    <glyph glyph-name="threequarters" unicode="&#xbe;" horiz-adv-x="1349" 
d="M1022 154h-236q-7 0 -12.5 5.5t-7.5 12.5l14 94q0 3 8 23l244 389q9 14 33 14h139q20 -4 17 -22l-56 -398h86q8 0 14 -5.5t5 -12.5l-13 -82q0 -6 -7.5 -12t-14.5 -6h-86l-19 -129q-4 -21 -22 -25h-84q-9 2 -15 9t-5 16zM1038 272l37 254l-164 -254h127zM1196 1237
l-731 -1208q-17 -29 -41 -29h-78q-12 0 -20.5 9t-6.5 20l732 1208q17 29 43 29h77q12 0 19.5 -9t5.5 -20zM608 803l-8 -53q-10 -75 -72.5 -125t-140.5 -50q-84 0 -131 52.5t-33 152.5q2 8 9 14.5t16 6.5h80q9 0 15.5 -8t4.5 -17q-11 -69 55 -69q22 0 45 13t27 44l6 41
q4 33 -14.5 44t-46.5 11h-33q-7 0 -11.5 6t-4.5 13l10 77q8 21 22 21h33q25 0 49.5 15.5t28.5 45.5l4 39q5 31 -14 44.5t-41 13.5q-65 0 -74 -70q-2 -9 -10 -17t-17 -8h-79q-9 0 -15 6.5t-6 14.5q14 100 75.5 152.5t145.5 52.5q78 0 126 -49.5t38 -124.5l-8 -62
q-10 -70 -72 -110q51 -43 41 -117z" />
    <glyph glyph-name="questiondown" unicode="&#xbf;" horiz-adv-x="868" 
d="M522 897l6 45q2 8 12 16.5t17 8.5h92q9 0 17 -8.5t6 -16.5l-17 -117q-7 -48 -43 -97t-83.5 -92t-95 -88.5t-84.5 -104t-46 -121.5q-12 -80 31.5 -132.5t122.5 -52.5q73 0 128 43.5t64 110.5q1 7 11 15.5t18 8.5h92q9 0 17 -8t6 -16q-18 -131 -119.5 -211t-235.5 -80
q-138 0 -218.5 89.5t-61.5 221.5l4 29q9 67 46.5 128.5t86 110t96.5 95.5t85 104.5t46 118.5zM717 1255l-25 -168q-2 -8 -11.5 -16t-18.5 -8h-93q-8 0 -14.5 8.5t-5.5 15.5l24 168q0 7 9.5 16t17.5 9h92q9 0 17 -8.5t8 -16.5z" />
    <glyph glyph-name="Agrave" unicode="&#xc0;" horiz-adv-x="909" 
d="M733 1241l125 -1216q-2 -8 -11 -16.5t-18 -8.5h-92q-8 0 -15.5 9t-6.5 16l-19 208h-415l-82 -208q-2 -8 -11 -16.5t-16 -8.5h-92q-9 0 -17.5 9t-7.5 16l469 1216q11 25 29 25h156q20 0 24 -25zM334 371h346l-74 714zM612 1573l205 -135q4 -4 4 -17q0 -6 -6 -12l-59 -63
q-5 -5 -17 -5q-3 0 -9 2l-9 3l-221 114q-9 6 -6 21q0 4 6 10l78 80q6 6 22 6q8 0 12 -4z" />
    <glyph glyph-name="Aacute" unicode="&#xc1;" horiz-adv-x="909" 
d="M733 1241l125 -1216q-2 -8 -11 -16.5t-18 -8.5h-92q-8 0 -15.5 9t-6.5 16l-19 208h-415l-82 -208q-2 -8 -11 -16.5t-16 -8.5h-92q-9 0 -17.5 9t-7.5 16l469 1216q11 25 29 25h156q20 0 24 -25zM334 371h346l-74 714zM494 1438l241 135q12 4 17 4q16 0 18 -6l57 -80
q2 -2 2 -10q-3 -17 -10 -21l-254 -114l-9 -3t-9 -2q-12 0 -17 5l-43 63q-2 2 -2 12q0 8 9 17z" />
    <glyph glyph-name="Acircumflex" unicode="&#xc2;" horiz-adv-x="909" 
d="M733 1241l125 -1216q-2 -8 -11 -16.5t-18 -8.5h-92q-8 0 -15.5 9t-6.5 16l-19 208h-415l-82 -208q-2 -8 -11 -16.5t-16 -8.5h-92q-9 0 -17.5 9t-7.5 16l469 1216q11 25 29 25h156q20 0 24 -25zM334 371h346l-74 714zM621 1663h139q16 0 20 -25l68 -272q-2 -9 -10 -17
t-17 -8h-76q-18 0 -22 25l-49 186l-103 -186q-13 -25 -26 -25h-76q-9 0 -16.5 8t-6.5 17l146 272q12 25 29 25z" />
    <glyph glyph-name="Atilde" unicode="&#xc3;" horiz-adv-x="909" 
d="M733 1241l125 -1216q-2 -8 -11 -16.5t-18 -8.5h-92q-8 0 -15.5 9t-6.5 16l-19 208h-415l-82 -208q-2 -8 -11 -16.5t-16 -8.5h-92q-9 0 -17.5 9t-7.5 16l469 1216q11 25 29 25h156q20 0 24 -25zM334 371h346l-74 714zM758 1341q-39 0 -100 26t-89 26q-41 0 -67 -29
q-7 -10 -19 -10q-9 0 -16 10l-37 55q-4 6 -4 17q0 7 10 20q25 29 58 48.5t59 19.5q35 0 94 -25.5t94 -25.5q40 0 68 28q7 10 16 10q12 0 19 -10l37 -55q4 -12 4 -16q-4 -12 -13 -21q-23 -29 -55.5 -48.5t-58.5 -19.5z" />
    <glyph glyph-name="Adieresis" unicode="&#xc4;" horiz-adv-x="909" 
d="M733 1241l125 -1216q-2 -8 -11 -16.5t-18 -8.5h-92q-8 0 -15.5 9t-6.5 16l-19 208h-415l-82 -208q-2 -8 -11 -16.5t-16 -8.5h-92q-9 0 -17.5 9t-7.5 16l469 1216q11 25 29 25h156q20 0 24 -25zM334 371h346l-74 714zM463 1419q4 32 31 54t61 22q30 0 50 -22t16 -54
t-30 -55t-56 -23q-34 0 -55 23t-17 55zM680 1419q4 32 31 54t61 22q30 0 50 -22t16 -54t-30 -55t-56 -23q-34 0 -55 23t-17 55z" />
    <glyph glyph-name="Aring" unicode="&#xc5;" horiz-adv-x="909" 
d="M733 1241l125 -1216q-2 -8 -11 -16.5t-18 -8.5h-92q-8 0 -15.5 9t-6.5 16l-19 208h-415l-82 -208q-2 -8 -11 -16.5t-16 -8.5h-92q-9 0 -17.5 9t-7.5 16l469 1216q11 25 29 25h156q20 0 24 -25zM334 371h346l-74 714zM643 1341q-96 0 -141.5 58t-30.5 170q17 113 78.5 171
t157.5 58t142.5 -58t29.5 -171q-15 -112 -77.5 -170t-158.5 -58zM657 1450q31 0 58 30t35 89q8 62 -10 89.5t-50 27.5q-31 0 -56.5 -27.5t-33.5 -89.5q-8 -58 9.5 -88.5t47.5 -30.5z" />
    <glyph glyph-name="AE" unicode="&#xc6;" horiz-adv-x="1284" 
d="M705 406l96 677l-404 -677h308zM784 1266h187h372q6 0 13.5 -8.5t7.5 -14.5l-12 -88q-1 -9 -11 -18t-16 -9h-375l-65 -466h266q6 0 12.5 -9t5.5 -18l-12 -88q-2 -6 -11.5 -14.5t-15.5 -8.5h-266l-53 -387h375q6 0 12.5 -8.5t5.5 -17.5l-12 -88q-2 -6 -10.5 -14.5
t-14.5 -8.5h-491q-9 0 -17.5 9t-7.5 16l37 262h-364l-156 -262q-15 -25 -31 -25h-90q-9 0 -17.5 8.5t-6.5 16.5l735 1224q11 17 26 17z" />
    <glyph glyph-name="Ccedilla" unicode="&#xc7;" horiz-adv-x="856" 
d="M823 330q8 0 15 -9t6 -16q-28 -121 -127 -209.5t-223 -101.5l-80 -221q-11 -25 -23 -25h-104q-9 0 -14 7t-3 18l101 225q-117 25 -179 111t-45 204l91 643q20 139 132 231.5t263 92.5q136 0 223.5 -92t81.5 -223q-2 -8 -12 -16.5t-17 -8.5h-92q-22 0 -22 27
q5 97 -48.5 139.5t-132.5 42.5q-86 0 -154.5 -54t-84.5 -163l-82 -594q-16 -109 38 -163t140 -54q36 0 70 9t66.5 28.5t57 56.5t35.5 88q9 27 31 27h92z" />
    <glyph glyph-name="Egrave" unicode="&#xc8;" horiz-adv-x="749" 
d="M791 1128h-375l-66 -466h266q6 0 13 -9t6 -18l-12 -88q-2 -6 -11.5 -14.5t-15.5 -8.5h-266l-54 -387h375q6 0 13 -8.5t6 -17.5l-13 -88q-2 -6 -10 -14.5t-14 -8.5h-492q-9 0 -17.5 8.5t-6.5 16.5l172 1216q0 8 9.5 16.5t18.5 8.5h492q6 0 13 -8.5t7 -14.5l-12 -88
q-1 -9 -10.5 -18t-15.5 -9zM547 1573l205 -135q4 -4 4 -17q0 -6 -6 -12l-60 -63q-5 -5 -16 -5q-3 0 -5.5 1t-6.5 2t-7 2l-221 114q-9 6 -6 21q0 4 6 10l78 80q6 6 23 6q8 0 12 -4z" />
    <glyph glyph-name="Eacute" unicode="&#xc9;" horiz-adv-x="749" 
d="M791 1128h-375l-66 -466h266q6 0 13 -9t6 -18l-12 -88q-2 -6 -11.5 -14.5t-15.5 -8.5h-266l-54 -387h375q6 0 13 -8.5t6 -17.5l-13 -88q-2 -6 -10 -14.5t-14 -8.5h-492q-9 0 -17.5 8.5t-6.5 16.5l172 1216q0 8 9.5 16.5t18.5 8.5h492q6 0 13 -8.5t7 -14.5l-12 -88
q-1 -9 -10.5 -18t-15.5 -9zM428 1438l242 135q12 4 16 4q17 0 19 -6l57 -80q2 -2 2 -10q-3 -17 -10 -21l-254 -114q-2 0 -9 -2.5t-10 -2.5q-11 0 -16 5l-43 63q-2 2 -2 12q0 9 8 17z" />
    <glyph glyph-name="Ecircumflex" unicode="&#xca;" horiz-adv-x="749" 
d="M791 1128h-375l-66 -466h266q6 0 13 -9t6 -18l-12 -88q-2 -6 -11.5 -14.5t-15.5 -8.5h-266l-54 -387h375q6 0 13 -8.5t6 -17.5l-13 -88q-2 -6 -10 -14.5t-14 -8.5h-492q-9 0 -17.5 8.5t-6.5 16.5l172 1216q0 8 9.5 16.5t18.5 8.5h492q6 0 13 -8.5t7 -14.5l-12 -88
q-1 -9 -10.5 -18t-15.5 -9zM686 1663h-139q-17 0 -29 -25l-145 -272q-1 -9 6 -17t16 -8h76q15 0 27 25l102 186l49 -186q2 -10 8 -17.5t15 -7.5h76q9 0 16.5 8t9.5 17l-67 272q-4 25 -21 25z" />
    <glyph glyph-name="Edieresis" unicode="&#xcb;" horiz-adv-x="749" 
d="M791 1128h-375l-66 -466h266q6 0 13 -9t6 -18l-12 -88q-2 -6 -11.5 -14.5t-15.5 -8.5h-266l-54 -387h375q6 0 13 -8.5t6 -17.5l-13 -88q-2 -6 -10 -14.5t-14 -8.5h-492q-9 0 -17.5 8.5t-6.5 16.5l172 1216q0 8 9.5 16.5t18.5 8.5h492q6 0 13 -8.5t7 -14.5l-12 -88
q-1 -9 -10.5 -18t-15.5 -9zM399 1419q-4 -32 17 -55t55 -23q30 0 56 23t30 55t-15.5 54t-49.5 22q-34 0 -61.5 -22t-31.5 -54zM616 1419q-4 -32 17 -55t55 -23q30 0 56 23t30 55t-15.5 54t-49.5 22q-34 0 -61.5 -22t-31.5 -54z" />
    <glyph glyph-name="Igrave" unicode="&#xcc;" horiz-adv-x="372" 
d="M117 25l172 1216q0 8 9.5 16.5t18.5 8.5h93q7 0 14.5 -8.5t7.5 -16.5l-172 -1216q-2 -8 -11 -16.5t-16 -8.5h-92q-9 0 -17.5 8.5t-6.5 16.5zM344 1573l205 -135q4 -4 4 -17q0 -6 -6 -12l-60 -63q-5 -5 -16 -5q-3 0 -9 2l-9 3l-222 114q-9 6 -6 21q0 4 6 10l78 80
q6 6 23 6q8 0 12 -4z" />
    <glyph glyph-name="Iacute" unicode="&#xcd;" horiz-adv-x="372" 
d="M432 1241l-172 -1216q-2 -8 -11 -16.5t-18 -8.5h-92q-8 0 -15.5 9t-6.5 16l172 1216q0 7 9 16t17 9h93q9 0 16.5 -8.5t7.5 -16.5zM225 1438l242 135q12 4 16 4q17 0 19 -6l57 -80q2 -2 2 -10q-3 -17 -10 -21l-254 -114l-9 -3t-9 -2q-12 0 -17 5l-43 63q-2 2 -2 12
q0 9 8 17z" />
    <glyph glyph-name="Icircumflex" unicode="&#xce;" horiz-adv-x="372" 
d="M432 1241l-172 -1216q-2 -8 -11 -16.5t-18 -8.5h-92q-8 0 -15.5 9t-6.5 16l172 1216q0 7 9 16t17 9h93q9 0 16.5 -8.5t7.5 -16.5zM489 1663h-139q-16 0 -28 -25l-146 -272q-1 -9 6.5 -17t16.5 -8h75q14 0 27 25l102 186l50 -186q4 -25 22 -25h76q9 0 17 8t10 17l-68 272
q-4 25 -21 25z" />
    <glyph glyph-name="Idieresis" unicode="&#xcf;" horiz-adv-x="372" 
d="M432 1241l-172 -1216q-2 -8 -11 -16.5t-18 -8.5h-92q-8 0 -15.5 9t-6.5 16l172 1216q0 7 9 16t17 9h93q9 0 16.5 -8.5t7.5 -16.5zM209 1419q-4 -32 17 -55t55 -23q30 0 56 23t30 55t-16 54t-50 22q-34 0 -61 -22t-31 -54zM406 1419q-4 -32 16.5 -55t54.5 -23q30 0 56 23
t30 55t-15.5 54t-49.5 22q-34 0 -61 -22t-31 -54z" />
    <glyph glyph-name="Eth" unicode="&#xd0;" horiz-adv-x="933" 
d="M670 1266q148 0 234.5 -93.5t66.5 -232.5l-86 -616q-20 -139 -131.5 -231.5t-259.5 -92.5h-324q-9 0 -17.5 9t-7.5 16l74 518h-88q-6 0 -13 8t-7 14l12 88q1 9 11 18t16 9h88l79 561q0 8 10 16.5t19 8.5h324zM743 346l80 569q16 108 -38 161.5t-138 53.5h-203l-63 -450
h131q6 0 12.5 -9t5.5 -18l-12 -88q0 -6 -9 -14t-15 -8h-132l-59 -412h203q84 0 153.5 53.5t83.5 161.5z" />
    <glyph glyph-name="Ntilde" unicode="&#xd1;" horiz-adv-x="919" 
d="M670 14l-289 860l-121 -849q-2 -8 -11 -16.5t-16 -8.5h-92q-9 0 -17.5 8.5t-6.5 16.5l172 1216q0 8 9.5 16.5t18.5 8.5h86q16 0 21 -15l289 -886l123 876q0 7 9 16t17 9h92q9 0 17 -8.5t8 -16.5l-172 -1216q-2 -8 -11 -16.5t-18 -8.5h-86q-13 0 -22 14zM758 1341
q26 0 58.5 19.5t55.5 48.5q9 9 13 21q0 4 -4 16l-37 55q-7 10 -19 10q-9 0 -16 -10q-28 -28 -68 -28q-35 0 -94 25.5t-94 25.5q-26 0 -59 -19.5t-58 -48.5q-10 -13 -10 -20q0 -11 4 -17l37 -55q7 -10 16 -10q12 0 19 10q26 29 67 29q28 0 89 -26t100 -26z" />
    <glyph glyph-name="Ograve" unicode="&#xd2;" horiz-adv-x="917" 
d="M637 1280q154 0 241.5 -92.5t67.5 -231.5l-90 -643q-20 -139 -132.5 -231t-266.5 -92q-155 0 -242.5 92t-67.5 231l91 643q20 139 132.5 231.5t266.5 92.5zM475 127q87 0 156.5 54t85.5 163l82 582q16 109 -38.5 163t-142.5 54q-87 0 -156 -54t-85 -163l-82 -582
q-16 -109 38.5 -163t141.5 -54zM616 1573l205 -135q4 -4 4 -17q0 -6 -6 -12l-59 -63q-5 -5 -17 -5q-3 0 -9 2l-9 3l-221 114q-9 6 -6 21q0 4 6 10l78 80q6 6 22 6q8 0 12 -4z" />
    <glyph glyph-name="Oacute" unicode="&#xd3;" horiz-adv-x="917" 
d="M637 1280q154 0 241.5 -92.5t67.5 -231.5l-90 -643q-20 -139 -132.5 -231t-266.5 -92q-155 0 -242.5 92t-67.5 231l91 643q20 139 132.5 231.5t266.5 92.5zM475 127q87 0 156.5 54t85.5 163l82 582q16 109 -38.5 163t-142.5 54q-87 0 -156 -54t-85 -163l-82 -582
q-16 -109 38.5 -163t141.5 -54zM498 1438l241 135q12 4 17 4q16 0 18 -6l57 -80q3 -3 3 -10q-3 -16 -11 -21l-254 -114l-9 -3t-9 -2q-11 0 -16 5l-43 63q-3 3 -3 12q0 8 9 17z" />
    <glyph glyph-name="Ocircumflex" unicode="&#xd4;" horiz-adv-x="917" 
d="M637 1280q154 0 241.5 -92.5t67.5 -231.5l-90 -643q-20 -139 -132.5 -231t-266.5 -92q-155 0 -242.5 92t-67.5 231l91 643q20 139 132.5 231.5t266.5 92.5zM475 127q87 0 156.5 54t85.5 163l82 582q16 109 -38.5 163t-142.5 54q-87 0 -156 -54t-85 -163l-82 -582
q-16 -109 38.5 -163t141.5 -54zM623 1663h139q16 0 20 -25l68 -272q-2 -9 -10 -17t-17 -8h-75q-9 0 -15 7.5t-8 17.5l-49 186l-103 -186q-13 -25 -26 -25h-76q-9 0 -16 8t-6 17l145 272q12 25 29 25z" />
    <glyph glyph-name="Otilde" unicode="&#xd5;" horiz-adv-x="917" 
d="M637 1280q154 0 241.5 -92.5t67.5 -231.5l-90 -643q-20 -139 -132.5 -231t-266.5 -92q-155 0 -242.5 92t-67.5 231l91 643q20 139 132.5 231.5t266.5 92.5zM475 127q87 0 156.5 54t85.5 163l82 582q16 109 -38.5 163t-142.5 54q-87 0 -156 -54t-85 -163l-82 -582
q-16 -109 38.5 -163t141.5 -54zM762 1341q-39 0 -100 26t-89 26q-41 0 -67 -29q-7 -10 -19 -10q-9 0 -16 10l-37 55q-4 6 -4 17q0 7 10 20q25 29 58 48.5t59 19.5q35 0 94 -25.5t94 -25.5q40 0 68 28q7 10 16 10q12 0 19 -10l37 -55q4 -12 4 -16q-5 -14 -12 -21
q-23 -29 -56 -48.5t-59 -19.5z" />
    <glyph glyph-name="Odieresis" unicode="&#xd6;" horiz-adv-x="917" 
d="M637 1280q154 0 241.5 -92.5t67.5 -231.5l-90 -643q-20 -139 -132.5 -231t-266.5 -92q-155 0 -242.5 92t-67.5 231l91 643q20 139 132.5 231.5t266.5 92.5zM475 127q87 0 156.5 54t85.5 163l82 582q16 109 -38.5 163t-142.5 54q-87 0 -156 -54t-85 -163l-82 -582
q-16 -109 38.5 -163t141.5 -54zM471 1419q4 32 31 54t61 22q30 0 50 -22t16 -54t-30 -55t-56 -23q-34 0 -55 23t-17 55zM688 1419q4 32 31 54t61 22q30 0 50 -22t16 -54t-30 -55t-56 -23q-34 0 -55 23t-17 55z" />
    <glyph glyph-name="multiply" unicode="&#xd7;" horiz-adv-x="712" 
d="M397 301l-118 -168q-5 -8 -16.5 -16t-18.5 -8h-88q-9 0 -17 8t-6 16l207 297l-125 283q2 8 12 16t19 8h88q7 0 15.5 -8t10.5 -16l74 -152l115 152q5 8 16.5 16t18.5 8h88q9 0 16.5 -8t5.5 -16l-202 -283l124 -297q-2 -8 -11.5 -16t-18.5 -8h-88q-7 0 -16 8t-11 16z" />
    <glyph glyph-name="Oslash" unicode="&#xd8;" horiz-adv-x="917" 
d="M238 956q19 128 116.5 217.5t235.5 104.5l88 238q7 24 20 24h105q18 0 18 -24l-108 -242q122 -23 186 -110.5t47 -207.5l-90 -643q-17 -123 -109.5 -210.5t-224.5 -106.5l-80 -223q-11 -25 -22 -25h-105q-9 0 -13.5 7t-2.5 18l98 221q-129 17 -198 105.5t-52 213.5z
M475 127q87 0 156.5 54t85.5 163l82 582q16 109 -38.5 163t-142.5 54q-87 0 -156 -54t-85 -163l-82 -582q-16 -109 38.5 -163t141.5 -54z" />
    <glyph glyph-name="Ugrave" unicode="&#xd9;" horiz-adv-x="937" 
d="M467 -10q-155 0 -242 92t-67 231l131 928q0 8 9.5 16.5t18.5 8.5h93q7 0 14.5 -8.5t7.5 -16.5l-127 -897q-16 -109 38.5 -163t141.5 -54t156.5 54t85.5 163l127 897q0 7 9.5 16t17.5 9h92q9 0 16.5 -8.5t7.5 -16.5l-131 -928q-20 -139 -132.5 -231t-266.5 -92zM625 1573
l204 -135q5 -5 5 -17q0 -5 -7 -12l-59 -63q-5 -5 -16 -5q-3 0 -5.5 1t-6.5 2t-7 2l-221 114q-9 6 -6 21q0 4 6 10l78 80q6 6 22 6q9 0 13 -4z" />
    <glyph glyph-name="Uacute" unicode="&#xda;" horiz-adv-x="937" 
d="M467 -10q-155 0 -242 92t-67 231l131 928q0 8 9.5 16.5t18.5 8.5h93q7 0 14.5 -8.5t7.5 -16.5l-127 -897q-16 -109 38.5 -163t141.5 -54t156.5 54t85.5 163l127 897q0 7 9.5 16t17.5 9h92q9 0 16.5 -8.5t7.5 -16.5l-131 -928q-20 -139 -132.5 -231t-266.5 -92zM510 1438
l242 135q12 4 16 4q16 0 18 -6l58 -80q2 -2 2 -10q-3 -17 -10 -21l-254 -114q-2 0 -9 -2.5t-10 -2.5q-11 0 -16 5l-43 63q-2 2 -2 12q0 9 8 17z" />
    <glyph glyph-name="Ucircumflex" unicode="&#xdb;" horiz-adv-x="937" 
d="M467 -10q-155 0 -242 92t-67 231l131 928q0 8 9.5 16.5t18.5 8.5h93q7 0 14.5 -8.5t7.5 -16.5l-127 -897q-16 -109 38.5 -163t141.5 -54t156.5 54t85.5 163l127 897q0 7 9.5 16t17.5 9h92q9 0 16.5 -8.5t7.5 -16.5l-131 -928q-20 -139 -132.5 -231t-266.5 -92zM633 1663
h139q17 0 21 -25l67 -272q-2 -9 -9.5 -17t-16.5 -8h-76q-9 0 -15 7.5t-8 17.5l-49 186l-102 -186q-12 -25 -27 -25h-76q-9 0 -16 8t-6 17l145 272q12 25 29 25z" />
    <glyph glyph-name="Udieresis" unicode="&#xdc;" horiz-adv-x="937" 
d="M467 -10q-155 0 -242 92t-67 231l131 928q0 8 9.5 16.5t18.5 8.5h93q7 0 14.5 -8.5t7.5 -16.5l-127 -897q-16 -109 38.5 -163t141.5 -54t156.5 54t85.5 163l127 897q0 7 9.5 16t17.5 9h92q9 0 16.5 -8.5t7.5 -16.5l-131 -928q-20 -139 -132.5 -231t-266.5 -92zM479 1419
q4 32 31 54t61 22q30 0 50 -22t16 -54t-30 -55t-56 -23q-34 0 -55 23t-17 55zM696 1419q4 32 31 54t61 22q30 0 50 -22t16 -54t-30 -55t-56 -23q-34 0 -55 23t-17 55z" />
    <glyph glyph-name="Yacute" unicode="&#xdd;" horiz-adv-x="847" 
d="M508 608l328 633q3 9 11 17t15 8h92q9 0 17 -8.5t8 -16.5l-426 -823l-55 -393q-2 -8 -11 -16.5t-16 -8.5h-92q-9 0 -18 9t-7 16l56 393l-193 823q0 8 10 16.5t19 8.5h92q12 0 22 -25zM463 1438l242 135q12 4 16 4q16 0 18 -6l58 -80q2 -2 2 -10q-3 -16 -11 -21l-253 -114
q-3 -1 -7 -2t-6.5 -2t-5.5 -1q-11 0 -16 5l-43 63q-2 2 -2 12q0 9 8 17z" />
    <glyph glyph-name="Thorn" unicode="&#xde;" 
d="M729 551l25 166q16 113 -38 176t-136 63h-189l-90 -647h188q81 0 152.5 64t87.5 178zM412 1094h198q67 0 124 -23.5t98.5 -67.5t60 -114.5t6.5 -157.5l-27 -188q-13 -90 -51.5 -162t-92.5 -117t-118 -68.5t-131 -23.5h-198l-21 -147q-2 -8 -11 -16.5t-18 -8.5h-90
q-9 0 -17.5 8.5t-6.5 16.5l172 1216q0 8 9.5 16.5t18.5 8.5h91q9 0 16.5 -8.5t7.5 -16.5z" />
    <glyph glyph-name="germandbls" unicode="&#xdf;" horiz-adv-x="966" 
d="M596 571h-70q-6 0 -13 8.5t-7 14.5l12 88q1 9 11 18t16 9h35q41 0 78.5 10.5t72.5 33.5t60 66t34 103l2 24q9 58 -3.5 98.5t-42.5 61t-64 29t-76 8.5h-43q-81 0 -145 -63t-80 -179l-123 -876q-2 -8 -11 -16.5t-16 -8.5h-92q-9 0 -18 9t-7 16l130 915q21 145 125 242.5
t255 97.5h43q71 0 132 -22t105.5 -62t66 -104t10.5 -142l-6 -37q-4 -34 -13 -62t-28 -63.5t-57 -71t-93 -67.5q59 -25 96 -74t48 -102t4 -108l-4 -17q-21 -153 -142 -250.5t-262 -97.5h-55q-6 0 -14 8.5t-7 14.5l13 88q1 9 10.5 17.5t15.5 8.5h56q84 0 155.5 55t87.5 164
q8 59 -4.5 102.5t-41.5 67t-63 34.5t-73 11z" />
    <glyph glyph-name="agrave" unicode="&#xe0;" 
d="M666 309l45 324q12 88 -33.5 138t-132.5 50q-79 0 -137.5 -50t-75.5 -169l-37 -262q-17 -119 27 -169t124 -50q88 0 148 50t72 138zM893 918l-125 -893q-2 -8 -11 -16.5t-16 -8.5h-92q-9 0 -17.5 8.5t-6.5 16.5l6 45q-46 -37 -93 -56t-71 -21.5t-59 -2.5q-307 0 -261 329
l43 304q46 329 353 329q35 0 58 -2.5t64.5 -21.5t77.5 -56l7 46q2 8 11.5 16t18.5 8h92q8 0 15 -8.5t6 -15.5zM565 1260l205 -136q4 -8 4 -16q-3 -9 -6 -12l-61 -64q-4 -4 -17 -4q-2 0 -18 4l-221 115q-8 5 -5 20q0 6 5 11l79 79q5 7 21 7q6 0 14 -4z" />
    <glyph glyph-name="aacute" unicode="&#xe1;" 
d="M666 309l45 324q12 88 -33.5 138t-132.5 50q-79 0 -137.5 -50t-75.5 -169l-37 -262q-17 -119 27 -169t124 -50q88 0 148 50t72 138zM893 918l-125 -893q-2 -8 -11 -16.5t-16 -8.5h-92q-9 0 -17.5 8.5t-6.5 16.5l6 45q-46 -37 -93 -56t-71 -21.5t-59 -2.5q-307 0 -261 329
l43 304q46 329 353 329q35 0 58 -2.5t64.5 -21.5t77.5 -56l7 46q2 8 11.5 16t18.5 8h92q8 0 15 -8.5t6 -15.5zM446 1124l242 136q8 4 14 4q16 0 21 -7l55 -79q4 -4 4 -11q-3 -14 -12 -20l-254 -115q-16 -4 -18 -4q-13 0 -17 4l-41 64q-4 4 -2 12q0 11 8 16z" />
    <glyph glyph-name="acircumflex" unicode="&#xe2;" 
d="M666 309l45 324q12 88 -33.5 138t-132.5 50q-79 0 -137.5 -50t-75.5 -169l-37 -262q-17 -119 27 -169t124 -50q88 0 148 50t72 138zM893 918l-125 -893q-2 -8 -11 -16.5t-16 -8.5h-92q-9 0 -17.5 8.5t-6.5 16.5l6 45q-46 -37 -93 -56t-71 -21.5t-59 -2.5q-307 0 -261 329
l43 304q46 329 353 329q35 0 58 -2.5t64.5 -21.5t77.5 -56l7 46q2 8 11.5 16t18.5 8h92q8 0 15 -8.5t6 -15.5zM541 1350h139q16 0 20 -25l70 -272q-2 -9 -11 -17t-18 -8h-75q-17 0 -21 25l-49 186l-102 -186q-12 -25 -29 -25h-76q-9 0 -15.5 8t-4.5 17l143 272q12 25 29 25z
" />
    <glyph glyph-name="atilde" unicode="&#xe3;" 
d="M666 309l45 324q12 88 -33.5 138t-132.5 50q-79 0 -137.5 -50t-75.5 -169l-37 -262q-17 -119 27 -169t124 -50q88 0 148 50t72 138zM893 918l-125 -893q-2 -8 -11 -16.5t-16 -8.5h-92q-9 0 -17.5 8.5t-6.5 16.5l6 45q-46 -37 -93 -56t-71 -21.5t-59 -2.5q-307 0 -261 329
l43 304q46 329 353 329q35 0 58 -2.5t64.5 -21.5t77.5 -56l7 46q2 8 11.5 16t18.5 8h92q8 0 15 -8.5t6 -15.5zM688 1028q-39 0 -98.5 25.5t-87.5 25.5q-43 0 -68 -28q-11 -11 -18 -11q-13 0 -17 11l-39 55q-4 12 -2 16q0 10 11 21q25 29 57.5 48t58.5 19q35 0 93.5 -25.5
t93.5 -25.5q41 0 67 29q7 10 19 10q9 0 16 -10l37 -55q4 -6 4 -17q0 -7 -10 -20q-25 -29 -58 -48.5t-59 -19.5z" />
    <glyph glyph-name="adieresis" unicode="&#xe4;" 
d="M666 309l45 324q12 88 -33.5 138t-132.5 50q-79 0 -137.5 -50t-75.5 -169l-37 -262q-17 -119 27 -169t124 -50q88 0 148 50t72 138zM893 918l-125 -893q-2 -8 -11 -16.5t-16 -8.5h-92q-9 0 -17.5 8.5t-6.5 16.5l6 45q-46 -37 -93 -56t-71 -21.5t-59 -2.5q-307 0 -261 329
l43 304q46 329 353 329q35 0 58 -2.5t64.5 -21.5t77.5 -56l7 46q2 8 11.5 16t18.5 8h92q8 0 15 -8.5t6 -15.5zM395 1106q4 32 32 54t62 22q30 0 49 -22t15 -54t-30 -55t-56 -23q-34 0 -55 23t-17 55zM612 1106q4 32 32.5 54t62.5 22q30 0 48.5 -22t14.5 -54t-30 -55t-56 -23
q-34 0 -55 23t-17 55z" />
    <glyph glyph-name="aring" unicode="&#xe5;" 
d="M666 309l45 324q12 88 -33.5 138t-132.5 50q-79 0 -137.5 -50t-75.5 -169l-37 -262q-17 -119 27 -169t124 -50q88 0 148 50t72 138zM893 918l-125 -893q-2 -8 -11 -16.5t-16 -8.5h-92q-9 0 -17.5 8.5t-6.5 16.5l6 45q-46 -37 -93 -56t-71 -21.5t-59 -2.5q-307 0 -261 329
l43 304q46 329 353 329q35 0 58 -2.5t64.5 -21.5t77.5 -56l7 46q2 8 11.5 16t18.5 8h92q8 0 15 -8.5t6 -15.5zM592 1028q-96 0 -141.5 57.5t-28.5 169.5q15 113 76 171.5t157 58.5t142.5 -58.5t31.5 -171.5q-17 -112 -79 -169.5t-158 -57.5zM608 1137q31 0 57.5 29.5
t34.5 88.5q8 62 -9.5 89.5t-49.5 27.5q-31 0 -56.5 -27.5t-33.5 -89.5q-8 -58 9.5 -88t47.5 -30z" />
    <glyph glyph-name="ae" unicode="&#xe6;" horiz-adv-x="1343" 
d="M1049 952q141 0 219 -90.5t59 -224.5l-27 -191q-2 -8 -11.5 -16t-16.5 -8h-481l-17 -119q-11 -82 32.5 -132t125.5 -50q95 0 162 78q19 24 39 24h96q8 0 14.5 -8.5t5.5 -15.5q-45 -87 -141 -148t-195 -61q-79 0 -143.5 33t-101.5 90q-142 -123 -289 -123
q-132 0 -209.5 74.5t-60.5 197.5l6 43q7 49 30 97t62.5 92t103 71t140.5 27q112 0 213 -64l14 103q11 82 -32 136t-122 54q-69 0 -110 -29.5t-64 -95.5q-6 -26 -31 -26h-92q-8 0 -14.5 8.5t-5.5 15.5q26 121 116 189.5t220 68.5q76 0 137 -29.5t98 -82.5q112 112 271 112z
M627 274l2 15q12 78 -32.5 123t-127.5 45q-81 0 -141.5 -42t-71.5 -126l-2 -15q-8 -63 35.5 -105t116.5 -42q78 0 146.5 49t74.5 98zM1171 551l13 86q12 81 -30.5 132.5t-125.5 51.5q-81 0 -138 -51.5t-69 -132.5l-12 -86h362z" />
    <glyph glyph-name="ccedilla" unicode="&#xe7;" horiz-adv-x="843" 
d="M145 299l50 344q19 131 125.5 220t240.5 89q131 0 215.5 -79t77.5 -199q-2 -8 -12 -16.5t-17 -8.5h-92q-22 0 -22 27q-4 65 -51 105t-117 40q-79 0 -137.5 -54t-69.5 -136l-45 -320q-12 -82 31 -136t122 -54q70 0 128 40t81 105q6 27 31 27h92q8 0 15 -9t6 -16
q-25 -108 -115 -184t-205 -90l-80 -221q-11 -25 -22 -25h-105q-9 0 -13.5 7t-2.5 18l98 225q-105 22 -163.5 105t-43.5 196z" />
    <glyph glyph-name="egrave" unicode="&#xe8;" horiz-adv-x="858" 
d="M842 637l-27 -191q-1 -7 -11 -15.5t-18 -8.5h-481l-16 -119q-11 -82 32 -132t125 -50q95 0 162 78q19 24 39 24h96q8 0 15 -8.5t6 -15.5q-45 -87 -141 -148t-195 -61q-134 0 -217.5 88.5t-65.5 218.5l48 340q19 133 124.5 224t245.5 91q141 0 219.5 -90.5t59.5 -224.5z
M686 551l12 86q12 81 -30 132.5t-125 51.5q-81 0 -138 -51.5t-69 -132.5l-12 -86h362zM535 1260l204 -136q4 -8 4 -16q-3 -9 -6 -12l-61 -64q-4 -4 -17 -4q-2 0 -18 4l-221 115q-7 5 -4 20q0 7 4 11l80 79q5 7 20 7q7 0 15 -4z" />
    <glyph glyph-name="eacute" unicode="&#xe9;" horiz-adv-x="858" 
d="M842 637l-27 -191q-1 -7 -11 -15.5t-18 -8.5h-481l-16 -119q-11 -82 32 -132t125 -50q95 0 162 78q19 24 39 24h96q8 0 15 -8.5t6 -15.5q-45 -87 -141 -148t-195 -61q-134 0 -217.5 88.5t-65.5 218.5l48 340q19 133 124.5 224t245.5 91q141 0 219.5 -90.5t59.5 -224.5z
M686 551l12 86q12 81 -30 132.5t-125 51.5q-81 0 -138 -51.5t-69 -132.5l-12 -86h362zM416 1124l241 136q8 4 15 4q15 0 20 -7l56 -79q4 -4 4 -11q-3 -13 -13 -20l-254 -115q-16 -4 -18 -4q-12 0 -16 4l-41 64q-4 4 -2 12q0 11 8 16z" />
    <glyph glyph-name="ecircumflex" unicode="&#xea;" horiz-adv-x="858" 
d="M842 637l-27 -191q-1 -7 -11 -15.5t-18 -8.5h-481l-16 -119q-11 -82 32 -132t125 -50q95 0 162 78q19 24 39 24h96q8 0 15 -8.5t6 -15.5q-45 -87 -141 -148t-195 -61q-134 0 -217.5 88.5t-65.5 218.5l48 340q19 133 124.5 224t245.5 91q141 0 219.5 -90.5t59.5 -224.5z
M686 551l12 86q12 81 -30 132.5t-125 51.5q-81 0 -138 -51.5t-69 -132.5l-12 -86h362zM549 1350h139q17 0 21 -25l69 -272q-2 -9 -10.5 -17t-17.5 -8h-76q-17 0 -21 25l-49 186l-102 -186q-12 -25 -29 -25h-76q-9 0 -15.5 8t-4.5 17l143 272q12 25 29 25z" />
    <glyph glyph-name="edieresis" unicode="&#xeb;" horiz-adv-x="858" 
d="M842 637l-27 -191q-1 -7 -11 -15.5t-18 -8.5h-481l-16 -119q-11 -82 32 -132t125 -50q95 0 162 78q19 24 39 24h96q8 0 15 -8.5t6 -15.5q-45 -87 -141 -148t-195 -61q-134 0 -217.5 88.5t-65.5 218.5l48 340q19 133 124.5 224t245.5 91q141 0 219.5 -90.5t59.5 -224.5z
M686 551l12 86q12 81 -30 132.5t-125 51.5q-81 0 -138 -51.5t-69 -132.5l-12 -86h362zM391 1106q4 32 32 54t62 22q30 0 49 -22t15 -54t-30 -55t-56 -23q-34 0 -55 23t-17 55zM608 1106q4 32 32 54t62 22q30 0 49 -22t15 -54t-30 -55t-56 -23q-34 0 -55 23t-17 55z" />
    <glyph glyph-name="igrave" unicode="&#xec;" horiz-adv-x="372" 
d="M117 25l125 893q2 8 11.5 16t18.5 8h93q8 0 14.5 -8.5t5.5 -15.5l-125 -893q-2 -8 -11 -16.5t-16 -8.5h-92q-9 0 -17.5 8.5t-6.5 16.5zM301 1260l205 -136q4 -8 4 -16q-3 -9 -6 -12l-62 -64q-4 -4 -16 -4q-2 0 -18 4l-222 115q-7 5 -4 20q0 7 4 11l80 79q5 7 21 7
q6 0 14 -4z" />
    <glyph glyph-name="iacute" unicode="&#xed;" horiz-adv-x="372" 
d="M385 918l-125 -893q-2 -8 -11 -16.5t-18 -8.5h-92q-8 0 -15.5 9t-6.5 16l125 893q2 8 11.5 16t16.5 8h92q9 0 17 -8t6 -16zM182 1124l242 136q8 4 14 4q16 0 21 -7l55 -79q4 -4 4 -11q-3 -14 -12 -20l-254 -115q-16 -4 -19 -4q-12 0 -16 4l-41 64q-4 4 -2 12q0 11 8 16z
" />
    <glyph glyph-name="icircumflex" unicode="&#xee;" horiz-adv-x="372" 
d="M385 918l-125 -893q-2 -8 -11 -16.5t-18 -8.5h-92q-8 0 -15.5 9t-6.5 16l125 893q2 8 11.5 16t16.5 8h92q9 0 17 -8t6 -16zM444 1350h-139q-17 0 -29 -25l-143 -272q-1 -9 5.5 -17t15.5 -8h75q17 0 29 25l102 186l50 -186q4 -25 20 -25h76q9 0 18 8t11 17l-70 272
q-4 25 -21 25z" />
    <glyph glyph-name="idieresis" unicode="&#xef;" horiz-adv-x="372" 
d="M385 918l-125 -893q-2 -8 -11 -16.5t-18 -8.5h-92q-8 0 -15.5 9t-6.5 16l125 893q2 8 11.5 16t16.5 8h92q9 0 17 -8t6 -16zM164 1106q-4 -32 17 -55t55 -23q30 0 56 23t30 55t-15 54t-49 22q-34 0 -62 -22t-32 -54zM360 1106q-4 -32 17 -55t55 -23q30 0 56 23t30 55
t-14.5 54t-48.5 22q-34 0 -62.5 -22t-32.5 -54z" />
    <glyph glyph-name="eth" unicode="&#xf0;" horiz-adv-x="835" 
d="M874 1032q0 -6 -8.5 -13t-13.5 -7h-104l71 -287q8 -25 0 -98l-47 -324q-18 -137 -123 -225t-241 -88q-132 0 -211.5 88t-61.5 225l21 146q10 70 30.5 123t59 101.5t105 74.5t157.5 26q40 0 91 -17t87 -57l-82 312h-194q-5 0 -12 7t-7 13l12 84q1 7 10.5 16t14.5 9h143
l-24 100q0 8 9.5 16.5t18.5 8.5h93q12 0 22 -25l25 -100h155q5 0 11.5 -9t5.5 -16zM631 311l20 144q11 80 -30 131t-123 51q-77 0 -131.5 -51.5t-65.5 -130.5l-20 -144q-11 -81 28.5 -132.5t116.5 -51.5q82 0 138 51.5t67 132.5z" />
    <glyph glyph-name="ntilde" unicode="&#xf1;" 
d="M635 25l82 577q17 119 -27.5 169t-124.5 50q-88 0 -147.5 -50t-71.5 -138l-86 -608q-2 -8 -11 -16.5t-18 -8.5h-92q-8 0 -15.5 9t-6.5 16l125 893q2 8 11.5 16t16.5 8h92q9 0 17 -8t6 -16l-6 -46q47 37 94.5 56t71.5 21.5t59 2.5q304 0 258 -329l-84 -598
q-2 -8 -10.5 -16.5t-17.5 -8.5h-93q-8 0 -15.5 9t-6.5 16zM696 1028q-39 0 -98.5 25.5t-87.5 25.5q-43 0 -68 -28q-11 -11 -18 -11q-12 0 -16 11l-39 55q-4 12 -2 16q0 11 10 21q25 29 58 48t59 19q35 0 93 -25.5t93 -25.5q42 0 68 29q7 10 18 10q9 0 16 -10l37 -55
q4 -6 4 -17q0 -7 -10 -20q-25 -29 -58 -48.5t-59 -19.5z" />
    <glyph glyph-name="ograve" unicode="&#xf2;" horiz-adv-x="856" 
d="M561 952q138 0 218 -90.5t61 -222.5l-47 -336q-19 -132 -124 -222.5t-243 -90.5t-219 90.5t-62 222.5l48 336q19 132 124.5 222.5t243.5 90.5zM444 121q79 0 136.5 52t68.5 132l47 332q12 80 -31 132t-122 52t-137 -52t-70 -132l-47 -332q-11 -80 32.5 -132t122.5 -52z
M543 1260l205 -136q4 -8 4 -16q-2 -8 -7 -12l-61 -64q-4 -4 -16 -4q-3 0 -19 4l-221 115q-7 5 -4 20q0 7 4 11l80 79q5 7 20 7q7 0 15 -4z" />
    <glyph glyph-name="oacute" unicode="&#xf3;" horiz-adv-x="856" 
d="M561 952q138 0 218 -90.5t61 -222.5l-47 -336q-19 -132 -124 -222.5t-243 -90.5t-219 90.5t-62 222.5l48 336q19 132 124.5 222.5t243.5 90.5zM444 121q79 0 136.5 52t68.5 132l47 332q12 80 -31 132t-122 52t-137 -52t-70 -132l-47 -332q-11 -80 32.5 -132t122.5 -52z
M424 1124l242 136q8 4 14 4q15 0 20 -7l56 -79q4 -4 4 -11q-3 -14 -12 -20l-254 -115q-16 -4 -19 -4q-12 0 -16 4l-41 64q-4 4 -2 12q0 11 8 16z" />
    <glyph glyph-name="ocircumflex" unicode="&#xf4;" horiz-adv-x="856" 
d="M561 952q138 0 218 -90.5t61 -222.5l-47 -336q-19 -132 -124 -222.5t-243 -90.5t-219 90.5t-62 222.5l48 336q19 132 124.5 222.5t243.5 90.5zM444 121q79 0 136.5 52t68.5 132l47 332q12 80 -31 132t-122 52t-137 -52t-70 -132l-47 -332q-11 -80 32.5 -132t122.5 -52z
M549 1350h139q17 0 21 -25l69 -272q-2 -9 -10.5 -17t-17.5 -8h-76q-17 0 -21 25l-49 186l-102 -186q-12 -25 -29 -25h-76q-9 0 -15.5 8t-4.5 17l143 272q12 25 29 25z" />
    <glyph glyph-name="otilde" unicode="&#xf5;" horiz-adv-x="856" 
d="M561 952q138 0 218 -90.5t61 -222.5l-47 -336q-19 -132 -124 -222.5t-243 -90.5t-219 90.5t-62 222.5l48 336q19 132 124.5 222.5t243.5 90.5zM444 121q79 0 136.5 52t68.5 132l47 332q12 80 -31 132t-122 52t-137 -52t-70 -132l-47 -332q-11 -80 32.5 -132t122.5 -52z
M686 1028q-39 0 -98.5 25.5t-87.5 25.5q-43 0 -68 -28q-11 -11 -18 -11q-13 0 -17 11l-39 55q-4 12 -2 16q0 10 11 21q25 29 57.5 48t58.5 19q35 0 93.5 -25.5t93.5 -25.5q41 0 67 29q7 10 19 10q9 0 16 -10l37 -55q4 -6 4 -17q0 -7 -10 -20q-25 -29 -58 -48.5t-59 -19.5z
" />
    <glyph glyph-name="odieresis" unicode="&#xf6;" horiz-adv-x="856" 
d="M561 952q138 0 218 -90.5t61 -222.5l-47 -336q-19 -132 -124 -222.5t-243 -90.5t-219 90.5t-62 222.5l48 336q19 132 124.5 222.5t243.5 90.5zM444 121q79 0 136.5 52t68.5 132l47 332q12 80 -31 132t-122 52t-137 -52t-70 -132l-47 -332q-11 -80 32.5 -132t122.5 -52z
M395 1106q4 32 32 54t62 22q30 0 49 -22t15 -54t-30 -55t-56 -23q-34 0 -55 23t-17 55zM612 1106q4 32 32.5 54t62.5 22q30 0 48.5 -22t14.5 -54t-30 -55t-56 -23q-34 0 -55 23t-17 55z" />
    <glyph glyph-name="divide" unicode="&#xf7;" horiz-adv-x="741" 
d="M371 539q-3 -31 15.5 -51.5t49.5 -20.5q32 0 56.5 20.5t27.5 51.5q5 32 -13 53.5t-50 21.5q-31 0 -56.5 -21.5t-29.5 -53.5zM637 246h-467q-6 0 -12.5 8t-5.5 14l12 88q1 9 10.5 18t15.5 9h467q6 0 13 -9t6 -18l-12 -88q-2 -6 -11.5 -14t-15.5 -8zM309 90
q-4 -32 13.5 -54t48.5 -22q32 0 58 22t30 54q3 31 -15.5 51.5t-50.5 20.5q-31 0 -56 -21t-28 -51z" />
    <glyph glyph-name="oslash" unicode="&#xf8;" horiz-adv-x="856" 
d="M193 639q17 121 107.5 207.5t215.5 101.5l86 236q10 24 21 24h104q9 0 14 -7t4 -17l-108 -242q106 -25 163 -108.5t40 -194.5l-47 -336q-15 -114 -98.5 -198.5t-200.5 -106.5l-80 -225q-11 -25 -23 -25h-104q-9 0 -14 7t-3 18l99 221q-115 19 -178 105t-46 204zM444 121
q79 0 136.5 52t68.5 132l47 332q12 80 -31 132t-122 52t-137 -52t-70 -132l-47 -332q-11 -80 32.5 -132t122.5 -52z" />
    <glyph glyph-name="ugrave" unicode="&#xf9;" 
d="M375 918l-80 -578q-17 -119 27 -169t124 -50q88 0 148 50t72 138l84 609q2 8 11.5 16t18.5 8h92q8 0 15 -8.5t6 -15.5l-125 -893q-2 -8 -11 -16.5t-16 -8.5h-92q-9 0 -17.5 8.5t-6.5 16.5l6 45q-46 -37 -93 -56t-71 -21.5t-59 -2.5q-307 0 -261 329l84 599q2 8 12 16
t19 8h92q8 0 15 -8.5t6 -15.5zM539 1260l204 -136q5 -10 5 -16q-2 -8 -7 -12l-61 -64q-4 -4 -16 -4q-3 0 -19 4l-221 115q-7 5 -4 20q0 7 4 11l80 79q5 7 20 7q7 0 15 -4z" />
    <glyph glyph-name="uacute" unicode="&#xfa;" 
d="M375 918l-80 -578q-17 -119 27 -169t124 -50q88 0 148 50t72 138l84 609q2 8 11.5 16t18.5 8h92q8 0 15 -8.5t6 -15.5l-125 -893q-2 -8 -11 -16.5t-16 -8.5h-92q-9 0 -17.5 8.5t-6.5 16.5l6 45q-46 -37 -93 -56t-71 -21.5t-59 -2.5q-307 0 -261 329l84 599q2 8 12 16
t19 8h92q8 0 15 -8.5t6 -15.5zM420 1124l242 136q8 4 14 4q15 0 20 -7l56 -79q4 -4 4 -11q-3 -13 -13 -20l-254 -115q-16 -4 -18 -4q-12 0 -16 4l-41 64q-4 4 -2 12q0 11 8 16z" />
    <glyph glyph-name="ucircumflex" unicode="&#xfb;" 
d="M375 918l-80 -578q-17 -119 27 -169t124 -50q88 0 148 50t72 138l84 609q2 8 11.5 16t18.5 8h92q8 0 15 -8.5t6 -15.5l-125 -893q-2 -8 -11 -16.5t-16 -8.5h-92q-9 0 -17.5 8.5t-6.5 16.5l6 45q-46 -37 -93 -56t-71 -21.5t-59 -2.5q-307 0 -261 329l84 599q2 8 12 16
t19 8h92q8 0 15 -8.5t6 -15.5zM545 1350h139q17 0 21 -25l69 -272q-2 -9 -11 -17t-18 -8h-75q-17 0 -21 25l-49 186l-102 -186q-12 -25 -29 -25h-76q-9 0 -15.5 8t-4.5 17l143 272q12 25 29 25z" />
    <glyph glyph-name="udieresis" unicode="&#xfc;" 
d="M375 918l-80 -578q-17 -119 27 -169t124 -50q88 0 148 50t72 138l84 609q2 8 11.5 16t18.5 8h92q8 0 15 -8.5t6 -15.5l-125 -893q-2 -8 -11 -16.5t-16 -8.5h-92q-9 0 -17.5 8.5t-6.5 16.5l6 45q-46 -37 -93 -56t-71 -21.5t-59 -2.5q-307 0 -261 329l84 599q2 8 12 16
t19 8h92q8 0 15 -8.5t6 -15.5zM401 1106q4 32 32.5 54t62.5 22q30 0 48.5 -22t14.5 -54t-30 -55t-56 -23q-34 0 -55 23t-17 55zM618 1106q4 32 32.5 54t62.5 22q30 0 48.5 -22t14.5 -54t-30 -55t-56 -23q-34 0 -55 23t-17 55z" />
    <glyph glyph-name="yacute" unicode="&#xfd;" horiz-adv-x="774" 
d="M858 918l-491 -1213q-2 -8 -11 -16t-16 -8h-92q-9 0 -17 8t-8 16l103 252l-156 961q2 8 12 16t19 8h92q7 0 13.5 -8t6.5 -16l113 -713l289 713q3 8 12 16t16 8h93q9 0 16.5 -8t5.5 -16zM414 1124l241 136q8 4 15 4q15 0 20 -7l55 -79q5 -5 5 -11q-3 -13 -13 -20
l-254 -115q-16 -4 -18 -4q-12 0 -16 4l-41 64q-4 4 -2 12q0 11 8 16z" />
    <glyph glyph-name="thorn" unicode="&#xfe;" 
d="M346 633l-45 -324q-12 -88 33.5 -138t132.5 -50q79 0 137.5 50t75.5 169l37 262q17 119 -27.5 169t-124.5 50q-88 0 -147.5 -50t-71.5 -138zM72 -295l217 1536q0 7 9 16t17 9h93q9 0 16.5 -8.5t7.5 -16.5l-53 -369q47 37 94.5 56t71.5 21.5t59 2.5q304 0 258 -329
l-43 -304q-46 -329 -350 -329q-35 0 -58.5 2.5t-65.5 21.5t-79 56l-51 -365q0 -7 -10 -15.5t-19 -8.5h-92q-7 0 -14.5 8t-7.5 16z" />
    <glyph glyph-name="ydieresis" unicode="&#xff;" horiz-adv-x="774" 
d="M858 918l-491 -1213q-2 -8 -11 -16t-16 -8h-92q-9 0 -17 8t-8 16l103 252l-156 961q2 8 12 16t19 8h92q7 0 13.5 -8t6.5 -16l113 -713l289 713q3 8 12 16t16 8h93q9 0 16.5 -8t5.5 -16zM367 1106q4 32 32 54t62 22q30 0 48.5 -22t14.5 -54t-30 -55t-56 -23
q-34 0 -54.5 23t-16.5 55zM584 1106q4 32 32 54t62 22q30 0 48.5 -22t14.5 -54t-30 -55t-56 -23q-34 0 -54.5 23t-16.5 55z" />
    <glyph glyph-name="Amacron" unicode="&#x100;" horiz-adv-x="909" 
d="M733 1241l125 -1216q-2 -8 -11 -16.5t-18 -8.5h-92q-8 0 -15.5 9t-6.5 16l-19 208h-415l-82 -208q-2 -8 -11 -16.5t-16 -8.5h-92q-9 0 -17.5 9t-7.5 16l469 1216q11 25 29 25h156q20 0 24 -25zM334 371h346l-74 714zM846 1341h-404q-6 0 -13 8.5t-7 14.5l12 88q1 9 11 18
t16 9h403q6 0 13 -9t6 -18l-13 -88q0 -6 -9 -14.5t-15 -8.5z" />
    <glyph glyph-name="amacron" unicode="&#x101;" 
d="M666 309l45 324q12 88 -33.5 138t-132.5 50q-79 0 -137.5 -50t-75.5 -169l-37 -262q-17 -119 27 -169t124 -50q88 0 148 50t72 138zM893 918l-125 -893q-2 -8 -11 -16.5t-16 -8.5h-92q-9 0 -17.5 8.5t-6.5 16.5l6 45q-46 -37 -93 -56t-71 -21.5t-59 -2.5q-307 0 -261 329
l43 304q46 329 353 329q35 0 58 -2.5t64.5 -21.5t77.5 -56l7 46q2 8 11.5 16t18.5 8h92q8 0 15 -8.5t6 -15.5zM772 1028h-403q-6 0 -13 8.5t-6 14.5l12 88q0 8 9 17t16 9h404q6 0 13 -8.5t7 -17.5l-12 -88q-2 -6 -11.5 -14.5t-15.5 -8.5z" />
    <glyph glyph-name="Abreve" unicode="&#x102;" horiz-adv-x="909" 
d="M733 1241l125 -1216q-2 -8 -11 -16.5t-18 -8.5h-92q-8 0 -15.5 9t-6.5 16l-19 208h-415l-82 -208q-2 -8 -11 -16.5t-16 -8.5h-92q-9 0 -17.5 9t-7.5 16l469 1216q11 25 29 25h156q20 0 24 -25zM334 371h346l-74 714zM643 1341q-107 0 -175 49.5t-65 157.5q0 6 9 13.5
t16 7.5h74q6 0 12 -7.5t6 -13.5q5 -47 42.5 -77.5t92.5 -30.5t101.5 30t66.5 78q0 6 8.5 13.5t14.5 7.5h74q7 0 13.5 -7.5t6.5 -13.5q-29 -108 -109.5 -157.5t-187.5 -49.5z" />
    <glyph glyph-name="abreve" unicode="&#x103;" 
d="M666 309l45 324q12 88 -33.5 138t-132.5 50q-79 0 -137.5 -50t-75.5 -169l-37 -262q-17 -119 27 -169t124 -50q88 0 148 50t72 138zM893 918l-125 -893q-2 -8 -11 -16.5t-16 -8.5h-92q-9 0 -17.5 8.5t-6.5 16.5l6 45q-46 -37 -93 -56t-71 -21.5t-59 -2.5q-307 0 -261 329
l43 304q46 329 353 329q35 0 58 -2.5t64.5 -21.5t77.5 -56l7 46q2 8 11.5 16t18.5 8h92q8 0 15 -8.5t6 -15.5zM606 1028q-107 0 -173.5 49.5t-65.5 157.5q2 6 10.5 13t15.5 7h74q6 0 11.5 -7t4.5 -13q6 -48 44.5 -78.5t93.5 -30.5t100.5 30.5t64.5 78.5q2 6 10.5 13t14.5 7
h74q7 0 13.5 -7t4.5 -13q-14 -56 -44 -97t-71 -64.5t-86 -34.5t-96 -11z" />
    <glyph glyph-name="Aogonek" unicode="&#x104;" horiz-adv-x="909" 
d="M733 1241l125 -1216q-2 -8 -11 -16.5t-18 -8.5h-34q-47 -3 -75 -35t-34 -80q-6 -36 16.5 -57t51.5 -21q2 0 51 7q10 0 14 -17l-12 -80q-4 -11 -16 -14q-46 -4 -66 -4q-195 0 -170 184q8 55 52 112.5t104 78.5l-15 159h-415l-82 -208q-2 -8 -11 -16.5t-16 -8.5h-92
q-9 0 -17.5 9t-7.5 16l469 1216q11 25 29 25h156q20 0 24 -25zM334 371h346l-74 714z" />
    <glyph glyph-name="aogonek" unicode="&#x105;" horiz-adv-x="882" 
d="M666 309l45 324q12 88 -33.5 138t-132.5 50q-79 0 -137.5 -50t-75.5 -169l-37 -262q-17 -119 27 -169t124 -50q88 0 148 50t72 138zM893 918l-137 -988q-1 -7 -11 -15.5t-18 -8.5h-16q-101 0 -117 -96q-4 -37 18.5 -57.5t51.5 -20.5q3 0 51 6q12 0 12 -17l-10 -79
q-9 -13 -17 -15q-46 -4 -65 -4q-195 0 -170 184q8 54 49.5 105t103.5 70l13 88q-46 -37 -93 -56t-71 -21.5t-59 -2.5q-307 0 -261 329l43 304q46 329 353 329q35 0 58 -2.5t64.5 -21.5t77.5 -56l7 46q2 8 11.5 16t18.5 8h92q8 0 15 -8.5t6 -15.5z" />
    <glyph glyph-name="Cacute" unicode="&#x106;" horiz-adv-x="856" 
d="M147 313l91 643q20 139 132 231.5t263 92.5q136 0 223.5 -92t81.5 -223q-2 -8 -12 -16.5t-17 -8.5h-92q-22 0 -22 27q5 97 -48.5 139.5t-132.5 42.5q-86 0 -154.5 -54t-84.5 -163l-82 -594q-16 -109 38 -163t140 -54q36 0 70 9t66.5 28.5t57 56.5t35.5 88q9 27 31 27h92
q8 0 15 -9t6 -16q-31 -132 -143.5 -223.5t-247.5 -91.5q-152 0 -239 92.5t-67 230.5zM502 1438l241 135q12 4 17 4q16 0 18 -6l58 -80q2 -2 2 -10q-3 -16 -11 -21l-254 -114l-9 -3t-9 -2q-11 0 -16 5l-43 63q-2 2 -2 12q0 9 8 17z" />
    <glyph glyph-name="cacute" unicode="&#x107;" horiz-adv-x="843" 
d="M145 299l50 344q19 131 125.5 220t240.5 89q131 0 215.5 -79t77.5 -199q-2 -8 -12 -16.5t-17 -8.5h-92q-22 0 -22 27q-4 65 -51 105t-117 40q-79 0 -137.5 -54t-69.5 -136l-45 -320q-12 -82 31 -136t122 -54q70 0 128 40t81 105q6 27 31 27h92q8 0 15 -9t6 -16
q-26 -120 -133 -199t-238 -79q-135 0 -217.5 89t-63.5 220zM385 1124l242 136q8 4 14 4q16 0 21 -7l55 -79q4 -4 4 -11q-3 -14 -12 -20l-254 -115q-16 -4 -19 -4q-12 0 -16 4l-41 64q-5 4 -2 12q0 11 8 16z" />
    <glyph glyph-name="Ccircumflex" unicode="&#x108;" horiz-adv-x="856" 
d="M147 313l91 643q20 139 132 231.5t263 92.5q136 0 223.5 -92t81.5 -223q-2 -8 -12 -16.5t-17 -8.5h-92q-22 0 -22 27q5 97 -48.5 139.5t-132.5 42.5q-86 0 -154.5 -54t-84.5 -163l-82 -594q-16 -109 38 -163t140 -54q36 0 70 9t66.5 28.5t57 56.5t35.5 88q9 27 31 27h92
q8 0 15 -9t6 -16q-31 -132 -143.5 -223.5t-247.5 -91.5q-152 0 -239 92.5t-67 230.5zM750 1663h-140q-16 0 -28 -25l-146 -272q-1 -9 6.5 -17t16.5 -8h76q13 0 26 25l103 186l49 -186q4 -25 22 -25h76q9 0 17 8t10 17l-68 272q-4 25 -20 25z" />
    <glyph glyph-name="ccircumflex" unicode="&#x109;" horiz-adv-x="843" 
d="M145 299l50 344q19 131 125.5 220t240.5 89q131 0 215.5 -79t77.5 -199q-2 -8 -12 -16.5t-17 -8.5h-92q-22 0 -22 27q-4 65 -51 105t-117 40q-79 0 -137.5 -54t-69.5 -136l-45 -320q-12 -82 31 -136t122 -54q70 0 128 40t81 105q6 27 31 27h92q8 0 15 -9t6 -16
q-26 -120 -133 -199t-238 -79q-135 0 -217.5 89t-63.5 220zM543 1350h139q16 0 20 -25l70 -272q-2 -9 -11 -17t-18 -8h-75q-17 0 -21 25l-49 186l-102 -186q-12 -25 -29 -25h-76q-9 0 -15.5 8t-4.5 17l143 272q12 25 29 25z" />
    <glyph glyph-name="Cdotaccent" unicode="&#x10a;" horiz-adv-x="856" 
d="M147 313l91 643q20 139 132 231.5t263 92.5q136 0 223.5 -92t81.5 -223q-2 -8 -12 -16.5t-17 -8.5h-92q-22 0 -22 27q5 97 -48.5 139.5t-132.5 42.5q-86 0 -154.5 -54t-84.5 -163l-82 -594q-16 -109 38 -163t140 -54q36 0 70 9t66.5 28.5t57 56.5t35.5 88q9 27 31 27h92
q8 0 15 -9t6 -16q-31 -132 -143.5 -223.5t-247.5 -91.5q-152 0 -239 92.5t-67 230.5zM571 1419q-4 -32 17 -55t55 -23q30 0 56 23t30 55t-15.5 54t-49.5 22q-34 0 -61.5 -22t-31.5 -54z" />
    <glyph glyph-name="cdotaccent" unicode="&#x10b;" horiz-adv-x="843" 
d="M145 299l50 344q19 131 125.5 220t240.5 89q131 0 215.5 -79t77.5 -199q-2 -8 -12 -16.5t-17 -8.5h-92q-22 0 -22 27q-4 65 -51 105t-117 40q-79 0 -137.5 -54t-69.5 -136l-45 -320q-12 -82 31 -136t122 -54q70 0 128 40t81 105q6 27 31 27h92q8 0 15 -9t6 -16
q-26 -120 -133 -199t-238 -79q-135 0 -217.5 89t-63.5 220zM500 1106q4 32 32 54t62 22q30 0 48.5 -22t14.5 -54t-30 -55t-56 -23q-34 0 -54.5 23t-16.5 55z" />
    <glyph glyph-name="Ccaron" unicode="&#x10c;" horiz-adv-x="856" 
d="M147 313l91 643q20 139 132 231.5t263 92.5q136 0 223.5 -92t81.5 -223q-2 -8 -12 -16.5t-17 -8.5h-92q-22 0 -22 27q5 97 -48.5 139.5t-132.5 42.5q-86 0 -154.5 -54t-84.5 -163l-82 -594q-16 -109 38 -163t140 -54q36 0 70 9t66.5 28.5t57 56.5t35.5 88q9 27 31 27h92
q8 0 15 -9t6 -16q-31 -132 -143.5 -223.5t-247.5 -91.5q-152 0 -239 92.5t-67 230.5zM578 1341h139q13 0 26 25l146 272q1 9 -5.5 17t-15.5 8h-75q-17 0 -29 -25l-102 -186l-50 186q-4 25 -20 25h-76q-9 0 -18 -8t-11 -17l68 -272q4 -25 23 -25z" />
    <glyph glyph-name="ccaron" unicode="&#x10d;" horiz-adv-x="843" 
d="M145 299l50 344q19 131 125.5 220t240.5 89q131 0 215.5 -79t77.5 -199q-2 -8 -12 -16.5t-17 -8.5h-92q-22 0 -22 27q-4 65 -51 105t-117 40q-79 0 -137.5 -54t-69.5 -136l-45 -320q-12 -82 31 -136t122 -54q70 0 128 40t81 105q6 27 31 27h92q8 0 15 -9t6 -16
q-26 -120 -133 -199t-238 -79q-135 0 -217.5 89t-63.5 220zM641 1028h-139q-17 0 -21 25l-69 272q2 9 10.5 17t17.5 8h76q17 0 21 -25l51 -186l100 186q12 25 29 25h76q9 0 15.5 -8t4.5 -17l-143 -272q-12 -25 -29 -25z" />
    <glyph glyph-name="Dcaron" unicode="&#x10e;" horiz-adv-x="905" 
d="M715 346l80 569q16 108 -38.5 161.5t-138.5 53.5h-202l-142 -999h203q84 0 154 53.5t84 161.5zM465 0h-324q-9 0 -17.5 8.5t-6.5 16.5l172 1216q0 8 9.5 16.5t18.5 8.5h324q148 0 234.5 -93.5t66.5 -232.5l-86 -616q-20 -139 -131.5 -231.5t-259.5 -92.5zM666 1341h-140
q-18 0 -22 25l-68 272q2 9 11 17t18 8h76q16 0 20 -25l49 -186l103 186q13 25 28 25h76q9 0 15.5 -8t5.5 -17l-146 -272q-12 -25 -26 -25z" />
    <glyph glyph-name="dcaron" unicode="&#x10f;" horiz-adv-x="1155" 
d="M666 309l45 324q12 88 -33.5 138t-132.5 50q-79 0 -137.5 -50t-75.5 -169l-37 -262q-17 -119 27 -169t124 -50q88 0 148 50t72 138zM940 1241l-172 -1216q-2 -8 -11 -16.5t-16 -8.5h-92q-9 0 -17.5 8.5t-6.5 16.5l6 45q-46 -37 -93 -56t-71 -21.5t-59 -2.5
q-307 0 -261 329l43 304q46 329 353 329q35 0 58 -2.5t64.5 -21.5t77.5 -56l54 369q0 8 9.5 16.5t18.5 8.5h93q7 0 14.5 -8.5t7.5 -16.5zM1147 1241l-78 -233q-3 -24 23 -27h75q17 2 31 27l107 233q3 21 -21 25h-110q-18 -3 -27 -25z" />
    <glyph glyph-name="Dcroat" unicode="&#x110;" horiz-adv-x="933" 
d="M670 1266q148 0 234.5 -93.5t66.5 -232.5l-86 -616q-20 -139 -131.5 -231.5t-259.5 -92.5h-324q-9 0 -17.5 9t-7.5 16l74 518h-88q-6 0 -13 8t-7 14l12 88q1 9 11 18t16 9h88l79 561q0 8 10 16.5t19 8.5h324zM743 346l80 569q16 108 -38 161.5t-138 53.5h-203l-63 -450
h131q6 0 12.5 -9t5.5 -18l-12 -88q0 -6 -9 -14t-15 -8h-132l-59 -412h203q84 0 153.5 53.5t83.5 161.5z" />
    <glyph glyph-name="dcroat" unicode="&#x111;" horiz-adv-x="927" 
d="M1024 1182q5 0 9 -7t3 -14l-8 -67q-2 -5 -9 -12t-11 -7h-93l-147 -1050q-2 -8 -11 -16.5t-16 -8.5h-92q-9 0 -17.5 8.5t-6.5 16.5l6 45q-46 -37 -93 -56t-71 -21.5t-59 -2.5q-307 0 -261 329l43 304q46 329 353 329q35 0 58 -2.5t64.5 -21.5t77.5 -56l29 203h-110
q-5 0 -9.5 7.5t-3.5 11.5l8 67q1 7 8.5 14t12.5 7h110l9 59q0 8 9.5 16.5t18.5 8.5h93q7 0 14.5 -8.5t7.5 -16.5l-8 -59h92zM666 309l45 324q12 88 -33.5 138t-132.5 50q-79 0 -137.5 -50t-75.5 -169l-37 -262q-17 -119 27 -169t124 -50q88 0 148 50t72 138z" />
    <glyph glyph-name="Emacron" unicode="&#x112;" horiz-adv-x="749" 
d="M791 1128h-375l-66 -466h266q6 0 13 -9t6 -18l-12 -88q-2 -6 -11.5 -14.5t-15.5 -8.5h-266l-54 -387h375q6 0 13 -8.5t6 -17.5l-13 -88q-2 -6 -10 -14.5t-14 -8.5h-492q-9 0 -17.5 8.5t-6.5 16.5l172 1216q0 8 9.5 16.5t18.5 8.5h492q6 0 13 -8.5t7 -14.5l-12 -88
q-1 -9 -10.5 -18t-15.5 -9zM770 1341h-403q-6 0 -13.5 8.5t-7.5 14.5l12 88q1 9 11 18t16 9h403q6 0 13 -9t6 -18l-12 -88q0 -6 -9.5 -14.5t-15.5 -8.5z" />
    <glyph glyph-name="emacron" unicode="&#x113;" horiz-adv-x="858" 
d="M842 637l-27 -191q-1 -7 -11 -15.5t-18 -8.5h-481l-16 -119q-11 -82 32 -132t125 -50q95 0 162 78q19 24 39 24h96q8 0 15 -8.5t6 -15.5q-45 -87 -141 -148t-195 -61q-134 0 -217.5 88.5t-65.5 218.5l48 340q19 133 124.5 224t245.5 91q141 0 219.5 -90.5t59.5 -224.5z
M686 551l12 86q12 81 -30 132.5t-125 51.5q-81 0 -138 -51.5t-69 -132.5l-12 -86h362zM772 1028h-403q-6 0 -13 8.5t-6 14.5l12 88q0 8 9 17t16 9h404q6 0 13 -8.5t7 -17.5l-12 -88q-2 -6 -11.5 -14.5t-15.5 -8.5z" />
    <glyph glyph-name="Edotaccent" unicode="&#x116;" horiz-adv-x="749" 
d="M791 1128h-375l-66 -466h266q6 0 13 -9t6 -18l-12 -88q-2 -6 -11.5 -14.5t-15.5 -8.5h-266l-54 -387h375q6 0 13 -8.5t6 -17.5l-13 -88q-2 -6 -10 -14.5t-14 -8.5h-492q-9 0 -17.5 8.5t-6.5 16.5l172 1216q0 8 9.5 16.5t18.5 8.5h492q6 0 13 -8.5t7 -14.5l-12 -88
q-1 -9 -10.5 -18t-15.5 -9zM502 1419q-4 -32 16.5 -55t54.5 -23q30 0 56 23t30 55t-15.5 54t-49.5 22q-34 0 -61 -22t-31 -54z" />
    <glyph glyph-name="edotaccent" unicode="&#x117;" horiz-adv-x="858" 
d="M842 637l-27 -191q-1 -7 -11 -15.5t-18 -8.5h-481l-16 -119q-11 -82 32 -132t125 -50q95 0 162 78q19 24 39 24h96q8 0 15 -8.5t6 -15.5q-45 -87 -141 -148t-195 -61q-134 0 -217.5 88.5t-65.5 218.5l48 340q19 133 124.5 224t245.5 91q141 0 219.5 -90.5t59.5 -224.5z
M686 551l12 86q12 81 -30 132.5t-125 51.5q-81 0 -138 -51.5t-69 -132.5l-12 -86h362zM500 1106q4 32 32 54t62 22q30 0 48.5 -22t14.5 -54t-30 -55t-56 -23q-34 0 -54.5 23t-16.5 55z" />
    <glyph glyph-name="Eogonek" unicode="&#x118;" horiz-adv-x="749" 
d="M791 1128h-375l-66 -466h266q6 0 13 -9t6 -18l-12 -88q-2 -6 -11.5 -14.5t-15.5 -8.5h-266l-54 -387h375q6 0 13 -8.5t6 -17.5l-13 -88q-2 -6 -10 -14.5t-14 -8.5h-27q-94 -43 -102 -115q-6 -37 12 -57.5t45 -20.5q2 0 51 7q11 0 15 -17l-13 -80q-4 -11 -16 -14
q-46 -4 -66 -4q-99 0 -135 45.5t-24 138.5q12 68 61 117h-293q-9 0 -17.5 8.5t-6.5 16.5l172 1216q0 8 9.5 16.5t18.5 8.5h492q6 0 13 -8.5t7 -14.5l-12 -88q-1 -9 -10.5 -18t-15.5 -9z" />
    <glyph glyph-name="eogonek" unicode="&#x119;" horiz-adv-x="858" 
d="M842 637l-27 -191q-1 -7 -11 -15.5t-18 -8.5h-481l-16 -119q-11 -82 32 -132t125 -50q95 0 162 78q19 24 39 24h96q8 0 15 -8.5t6 -15.5q-34 -64 -98 -117t-138 -76q-101 -41 -112 -121q-6 -37 12 -57.5t45 -20.5q2 0 51 7q11 0 15 -17l-13 -80q-4 -11 -16 -14
q-46 -4 -66 -4q-99 0 -135 45.5t-24 138.5q12 70 59 117q-102 27 -158 108t-41 189l48 340q19 133 124.5 224t245.5 91q141 0 219.5 -90.5t59.5 -224.5zM686 551l12 86q12 81 -30 132.5t-125 51.5q-81 0 -138 -51.5t-69 -132.5l-12 -86h362z" />
    <glyph glyph-name="Ecaron" unicode="&#x11a;" horiz-adv-x="749" 
d="M791 1128h-375l-66 -466h266q6 0 13 -9t6 -18l-12 -88q-2 -6 -11.5 -14.5t-15.5 -8.5h-266l-54 -387h375q6 0 13 -8.5t6 -17.5l-13 -88q-2 -6 -10 -14.5t-14 -8.5h-492q-9 0 -17.5 8.5t-6.5 16.5l172 1216q0 8 9.5 16.5t18.5 8.5h492q6 0 13 -8.5t7 -14.5l-12 -88
q-1 -9 -10.5 -18t-15.5 -9zM516 1341h139q15 0 27 25l145 272q2 9 -4.5 17t-15.5 8h-76q-17 0 -29 -25l-102 -186l-49 186q-4 25 -21 25h-75q-9 0 -18 -8t-11 -17l68 -272q4 -25 22 -25z" />
    <glyph glyph-name="ecaron" unicode="&#x11b;" horiz-adv-x="858" 
d="M842 637l-27 -191q-1 -7 -11 -15.5t-18 -8.5h-481l-16 -119q-11 -82 32 -132t125 -50q95 0 162 78q19 24 39 24h96q8 0 15 -8.5t6 -15.5q-45 -87 -141 -148t-195 -61q-134 0 -217.5 88.5t-65.5 218.5l48 340q19 133 124.5 224t245.5 91q141 0 219.5 -90.5t59.5 -224.5z
M686 551l12 86q12 81 -30 132.5t-125 51.5q-81 0 -138 -51.5t-69 -132.5l-12 -86h362zM641 1028h-139q-17 0 -21 25l-69 272q2 9 10.5 17t17.5 8h76q17 0 21 -25l51 -186l100 186q12 25 29 25h76q9 0 15.5 -8t4.5 -17l-143 -272q-12 -25 -29 -25z" />
    <glyph glyph-name="Gcircumflex" unicode="&#x11c;" horiz-adv-x="917" 
d="M733 535h-110q-6 0 -13 8.5t-6 17.5l12 88q2 6 11.5 14.5t15.5 8.5h227q9 0 17 -8.5t6 -16.5l-88 -622q-2 -8 -11 -16.5t-18 -8.5h-76q-8 0 -15.5 9t-6.5 16l8 59q-104 -94 -233 -94q-152 0 -239 92.5t-67 230.5l91 643q20 139 132 231.5t263 92.5q136 0 223.5 -92
t81.5 -223q-2 -8 -12 -16.5t-17 -8.5h-92q-22 0 -22 27q5 97 -48.5 139.5t-132.5 42.5q-86 0 -154.5 -54t-84.5 -163l-82 -594q-16 -109 38 -163t140 -54q49 0 96 19t87 65.5t48 111.5zM756 1663h-140q-16 0 -28 -25l-146 -272q-1 -9 6.5 -17t16.5 -8h76q13 0 26 25l103 186
l49 -186q4 -25 22 -25h76q9 0 17 8t10 17l-68 272q-4 25 -20 25z" />
    <glyph glyph-name="gcircumflex" unicode="&#x11d;" 
d="M672 354l39 279q12 88 -33.5 138t-132.5 50q-79 0 -137.5 -50t-75.5 -169l-31 -217q-17 -119 27.5 -169t124.5 -50q88 0 147.5 50t71.5 138zM158 -125q2 8 11.5 16.5t18.5 8.5h84q21 0 29 -25q32 -88 135 -88q79 0 125 53t57 140l19 135q-46 -37 -93 -56t-71 -21.5
t-59 -2.5q-305 0 -258 330l34 258q46 329 353 329q35 0 58 -2.5t64.5 -21.5t77.5 -56l7 46q2 8 11.5 16t18.5 8h92q8 0 15 -8.5t6 -15.5l-135 -969q-19 -131 -113 -212t-227 -81q-114 0 -194 58.5t-66 160.5zM524 1350h140q16 0 20 -25l70 -272q-2 -9 -11 -17t-18 -8h-76
q-16 0 -20 25l-49 186l-103 -186q-13 -25 -28 -25h-76q-9 0 -15.5 8t-5.5 17l144 272q12 25 28 25z" />
    <glyph glyph-name="Gbreve" unicode="&#x11e;" horiz-adv-x="917" 
d="M733 535h-110q-6 0 -13 8.5t-6 17.5l12 88q2 6 11.5 14.5t15.5 8.5h227q9 0 17 -8.5t6 -16.5l-88 -622q-2 -8 -11 -16.5t-18 -8.5h-76q-8 0 -15.5 9t-6.5 16l8 59q-104 -94 -233 -94q-152 0 -239 92.5t-67 230.5l91 643q20 139 132 231.5t263 92.5q136 0 223.5 -92
t81.5 -223q-2 -8 -12 -16.5t-17 -8.5h-92q-22 0 -22 27q5 97 -48.5 139.5t-132.5 42.5q-86 0 -154.5 -54t-84.5 -163l-82 -594q-16 -109 38 -163t140 -54q49 0 96 19t87 65.5t48 111.5zM637 1341q-107 0 -175 49.5t-65 157.5q0 6 9 13.5t16 7.5h74q6 0 12 -7.5t6 -13.5
q5 -47 42.5 -77.5t92.5 -30.5t101.5 30t66.5 78q0 6 8.5 13.5t14.5 7.5h73q7 0 14 -7.5t7 -13.5q-29 -108 -109.5 -157.5t-187.5 -49.5z" />
    <glyph glyph-name="gbreve" unicode="&#x11f;" 
d="M672 354l39 279q12 88 -33.5 138t-132.5 50q-79 0 -137.5 -50t-75.5 -169l-31 -217q-17 -119 27.5 -169t124.5 -50q88 0 147.5 50t71.5 138zM158 -125q2 8 11.5 16.5t18.5 8.5h84q21 0 29 -25q32 -88 135 -88q79 0 125 53t57 140l19 135q-46 -37 -93 -56t-71 -21.5
t-59 -2.5q-305 0 -258 330l34 258q46 329 353 329q35 0 58 -2.5t64.5 -21.5t77.5 -56l7 46q2 8 11.5 16t18.5 8h92q8 0 15 -8.5t6 -15.5l-135 -969q-19 -131 -113 -212t-227 -81q-114 0 -194 58.5t-66 160.5zM590 1028q-107 0 -174 49.5t-66 157.5q2 6 11 13t16 7h74
q6 0 11.5 -7t4.5 -13q6 -48 44 -78.5t93 -30.5t101 30.5t65 78.5q2 6 10.5 13t14.5 7h73q7 0 14 -7t5 -13q-14 -56 -44 -97t-71 -64.5t-86 -34.5t-96 -11z" />
    <glyph glyph-name="Gdotaccent" unicode="&#x120;" horiz-adv-x="917" 
d="M733 535h-110q-6 0 -13 8.5t-6 17.5l12 88q2 6 11.5 14.5t15.5 8.5h227q9 0 17 -8.5t6 -16.5l-88 -622q-2 -8 -11 -16.5t-18 -8.5h-76q-8 0 -15.5 9t-6.5 16l8 59q-104 -94 -233 -94q-152 0 -239 92.5t-67 230.5l91 643q20 139 132 231.5t263 92.5q136 0 223.5 -92
t81.5 -223q-2 -8 -12 -16.5t-17 -8.5h-92q-22 0 -22 27q5 97 -48.5 139.5t-132.5 42.5q-86 0 -154.5 -54t-84.5 -163l-82 -594q-16 -109 38 -163t140 -54q49 0 96 19t87 65.5t48 111.5zM571 1419q-4 -32 17 -55t55 -23q30 0 56 23t30 55t-15.5 54t-49.5 22q-34 0 -61.5 -22
t-31.5 -54z" />
    <glyph glyph-name="gdotaccent" unicode="&#x121;" 
d="M672 354l39 279q12 88 -33.5 138t-132.5 50q-79 0 -137.5 -50t-75.5 -169l-31 -217q-17 -119 27.5 -169t124.5 -50q88 0 147.5 50t71.5 138zM158 -125q2 8 11.5 16.5t18.5 8.5h84q21 0 29 -25q32 -88 135 -88q79 0 125 53t57 140l19 135q-46 -37 -93 -56t-71 -21.5
t-59 -2.5q-305 0 -258 330l34 258q46 329 353 329q35 0 58 -2.5t64.5 -21.5t77.5 -56l7 46q2 8 11.5 16t18.5 8h92q8 0 15 -8.5t6 -15.5l-135 -969q-19 -131 -113 -212t-227 -81q-114 0 -194 58.5t-66 160.5zM506 1106q4 32 32 54t62 22q30 0 49 -22t15 -54t-30 -55t-56 -23
q-34 0 -55 23t-17 55z" />
    <glyph glyph-name="uni0122" unicode="&#x122;" horiz-adv-x="917" 
d="M733 535h-110q-6 0 -13 8.5t-6 17.5l12 88q2 6 11.5 14.5t15.5 8.5h227q9 0 17 -8.5t6 -16.5l-88 -622q-2 -8 -11 -16.5t-18 -8.5h-76q-8 0 -15.5 9t-6.5 16l8 59q-104 -94 -233 -94q-152 0 -239 92.5t-67 230.5l91 643q20 139 132 231.5t263 92.5q136 0 223.5 -92
t81.5 -223q-2 -8 -12 -16.5t-17 -8.5h-92q-22 0 -22 27q5 97 -48.5 139.5t-132.5 42.5q-86 0 -154.5 -54t-84.5 -163l-82 -594q-16 -109 38 -163t140 -54q49 0 96 19t87 65.5t48 111.5zM508 -115l-78 -233q-9 -22 -29 -25h-110q-22 4 -19 25l107 233q14 25 29 27h75
q28 -4 25 -27z" />
    <glyph glyph-name="uni0123" unicode="&#x123;" 
d="M672 354l39 279q12 88 -33.5 138t-132.5 50q-79 0 -137.5 -50t-75.5 -169l-31 -217q-17 -119 27.5 -169t124.5 -50q88 0 147.5 50t71.5 138zM158 -125q2 8 11.5 16.5t18.5 8.5h84q21 0 29 -25q32 -88 135 -88q79 0 125 53t57 140l19 135q-46 -37 -93 -56t-71 -21.5
t-59 -2.5q-305 0 -258 330l34 258q46 329 353 329q35 0 58 -2.5t64.5 -21.5t77.5 -56l7 46q2 8 11.5 16t18.5 8h92q8 0 15 -8.5t6 -15.5l-135 -969q-19 -131 -113 -212t-227 -81q-114 0 -194 58.5t-66 160.5zM420 1124l242 136q8 4 14 4q15 0 20 -7l56 -79q4 -4 4 -11
q-3 -13 -13 -20l-254 -115q-16 -4 -18 -4q-12 0 -16 4l-41 64q-4 4 -2 12q0 11 8 16z" />
    <glyph glyph-name="Hcircumflex" unicode="&#x124;" horiz-adv-x="905" 
d="M739 659l82 582q0 8 10 16.5t19 8.5h92q7 0 15 -8.5t8 -16.5l-172 -1216q-2 -8 -11 -16.5t-16 -8.5h-92q-9 0 -17.5 9t-7.5 16l70 497h-389l-70 -497q-2 -8 -11 -16.5t-16 -8.5h-92q-9 0 -17.5 8.5t-6.5 16.5l172 1216q0 8 9.5 16.5t18.5 8.5h93q7 0 14.5 -8.5t7.5 -16.5
l-82 -582h389zM756 1663h-140q-16 0 -28 -25l-146 -272q-1 -9 6.5 -17t16.5 -8h76q13 0 26 25l103 186l49 -186q4 -25 22 -25h76q9 0 17 8t10 17l-68 272q-4 25 -20 25z" />
    <glyph glyph-name="hcircumflex" unicode="&#x125;" 
d="M635 25l82 577q17 119 -27.5 169t-124.5 50q-88 0 -147.5 -50t-71.5 -138l-86 -608q-2 -8 -11 -16.5t-18 -8.5h-92q-8 0 -15.5 9t-6.5 16l172 1216q0 7 9 16t17 9h93q9 0 16.5 -8.5t7.5 -16.5l-53 -369q47 37 94.5 56t71.5 21.5t59 2.5q304 0 258 -329l-84 -598
q-2 -8 -10.5 -16.5t-17.5 -8.5h-93q-8 0 -15.5 9t-6.5 16zM494 1663h139q16 0 20 -25l68 -272q-2 -9 -10 -17t-17 -8h-76q-18 0 -22 25l-49 186l-103 -186q-12 -25 -26 -25h-76q-9 0 -16.5 8t-6.5 17l146 272q13 25 29 25z" />
    <glyph glyph-name="Hbar" unicode="&#x126;" horiz-adv-x="1007" 
d="M297 944h-90q-6 0 -13 8.5t-6 14.5l13 88q1 9 10.5 17.5t15.5 8.5h90l23 160q0 8 10 16.5t19 8.5h92q7 0 14.5 -8.5t7.5 -16.5l-22 -160h389l22 160q0 8 10 16.5t19 8.5h92q7 0 15 -8.5t8 -16.5l-23 -160h90q6 0 13 -8.5t6 -17.5l-12 -88q-2 -6 -11.5 -14.5t-15.5 -8.5
h-90l-129 -919q-2 -8 -11 -16.5t-16 -8.5h-92q-9 0 -18 9t-7 16l70 497h-389l-70 -497q-2 -8 -10.5 -16.5t-15.5 -8.5h-92q-9 0 -18 9t-7 16zM401 659h390l38 285h-389z" />
    <glyph glyph-name="hbar" unicode="&#x127;" horiz-adv-x="927" 
d="M311 1075h-92q-4 0 -9 7t-3 12l8 67q1 7 8.5 14t12.5 7h92l8 59q0 7 9 16t17 9h93q9 0 16.5 -8.5t7.5 -16.5l-8 -59h111q5 0 9 -7t3 -14l-8 -67q-2 -5 -9.5 -12t-11.5 -7h-110l-29 -203q47 37 94.5 56t71.5 21.5t59 2.5q304 0 258 -329l-84 -598q-2 -8 -10.5 -16.5
t-17.5 -8.5h-92q-8 0 -16 9t-7 16l82 577q17 119 -27.5 169t-124.5 50q-88 0 -147.5 -50t-71.5 -138l-86 -608q-2 -8 -10.5 -16.5t-17.5 -8.5h-93q-8 0 -15.5 9t-6.5 16z" />
    <glyph glyph-name="Itilde" unicode="&#x128;" horiz-adv-x="372" 
d="M117 25l172 1216q0 8 9.5 16.5t18.5 8.5h93q7 0 14.5 -8.5t7.5 -16.5l-172 -1216q-2 -8 -11 -16.5t-16 -8.5h-92q-9 0 -17.5 8.5t-6.5 16.5zM489 1341q26 0 59 19.5t56 48.5q8 7 12 21q0 4 -4 16l-37 55q-7 10 -18 10q-9 0 -16 -10q-28 -28 -68 -28q-35 0 -94 25.5
t-94 25.5q-26 0 -59 -19.5t-58 -48.5q-10 -13 -10 -20q0 -11 4 -17l37 -55q7 -10 16 -10q11 0 18 10q26 29 68 29q28 0 88.5 -26t99.5 -26z" />
    <glyph glyph-name="itilde" unicode="&#x129;" horiz-adv-x="372" 
d="M117 25l125 893q2 8 11.5 16t18.5 8h93q8 0 14.5 -8.5t5.5 -15.5l-125 -893q-2 -8 -11 -16.5t-16 -8.5h-92q-9 0 -17.5 8.5t-6.5 16.5zM444 1028q26 0 59 19.5t58 48.5q10 13 10 20q0 11 -4 17l-37 55q-7 10 -16 10q-11 0 -18 -10q-26 -29 -68 -29q-35 0 -93 25.5
t-93 25.5q-26 0 -59 -19t-58 -48q-10 -10 -10 -21q-2 -4 2 -16l39 -55q4 -11 16 -11q7 0 18 11q25 28 68 28q28 0 87.5 -25.5t98.5 -25.5z" />
    <glyph glyph-name="Imacron" unicode="&#x12a;" horiz-adv-x="372" 
d="M117 25l172 1216q0 8 9.5 16.5t18.5 8.5h93q7 0 14.5 -8.5t7.5 -16.5l-172 -1216q-2 -8 -11 -16.5t-16 -8.5h-92q-9 0 -17.5 8.5t-6.5 16.5zM578 1341h-404q-6 0 -13 8.5t-7 14.5l12 88q1 9 11 18t16 9h403q6 0 12.5 -9t5.5 -18l-12 -88q0 -6 -9 -14.5t-15 -8.5z" />
    <glyph glyph-name="imacron" unicode="&#x12b;" horiz-adv-x="372" 
d="M117 25l125 893q2 8 11.5 16t18.5 8h93q8 0 14.5 -8.5t5.5 -15.5l-125 -893q-2 -8 -11 -16.5t-16 -8.5h-92q-9 0 -17.5 8.5t-6.5 16.5zM532 1028h-403q-6 0 -12.5 8.5t-5.5 14.5l12 88q0 9 8.5 17.5t15.5 8.5h404q6 0 13 -8.5t7 -17.5l-12 -88q-2 -6 -11.5 -14.5
t-15.5 -8.5z" />
    <glyph glyph-name="Iogonek" unicode="&#x12e;" horiz-adv-x="372" 
d="M125 76l164 1165q0 8 9.5 16.5t18.5 8.5h93q7 0 14.5 -8.5t7.5 -16.5l-172 -1216q-2 -8 -11 -16.5t-16 -8.5h-20q-51 0 -81 -27.5t-38 -74.5q-4 -37 18.5 -64t49.5 -27q2 0 51 7q10 0 14 -17l-12 -80q-4 -11 -16 -14q-46 -4 -66 -4q-98 0 -138 52t-28 145q8 55 52 108.5
t106 71.5z" />
    <glyph glyph-name="iogonek" unicode="&#x12f;" horiz-adv-x="372" 
d="M125 76l117 842q2 8 11.5 16t18.5 8h93q8 0 14.5 -8.5t5.5 -15.5l-125 -893q-2 -8 -11 -16.5t-16 -8.5h-20q-51 0 -81 -27.5t-38 -74.5q-4 -37 18.5 -64t49.5 -27q2 0 51 7q10 0 14 -17l-12 -80q-4 -11 -16 -14q-46 -4 -66 -4q-98 0 -138 52t-28 145q8 55 52 108.5
t106 71.5zM264 1069l23 168q2 8 11.5 16.5t18.5 8.5h93q8 0 15 -9t5 -16l-22 -168q-2 -8 -12 -16.5t-17 -8.5h-92q-9 0 -17 8.5t-6 16.5z" />
    <glyph glyph-name="Idotaccent" unicode="&#x130;" horiz-adv-x="372" 
d="M117 25l172 1216q0 8 9.5 16.5t18.5 8.5h93q7 0 14.5 -8.5t7.5 -16.5l-172 -1216q-2 -8 -11 -16.5t-16 -8.5h-92q-9 0 -17.5 8.5t-6.5 16.5zM305 1366l25 168q0 8 9.5 16.5t18.5 8.5h93q7 0 14.5 -8.5t7.5 -16.5l-24 -168q0 -7 -9.5 -16t-17.5 -9h-92q-9 0 -17 8.5
t-8 16.5z" />
    <glyph glyph-name="dotlessi" unicode="&#x131;" horiz-adv-x="372" 
d="M117 25l125 893q2 8 11.5 16t18.5 8h93q8 0 14.5 -8.5t5.5 -15.5l-125 -893q-2 -8 -11 -16.5t-16 -8.5h-92q-9 0 -17.5 8.5t-6.5 16.5z" />
    <glyph glyph-name="Jcircumflex" unicode="&#x134;" horiz-adv-x="798" 
d="M227 293q-5 -73 35.5 -119.5t114.5 -46.5q81 0 138.5 52t70.5 145l129 917q0 8 9.5 16.5t18.5 8.5h93q7 0 14.5 -8.5t7.5 -16.5l-131 -926q-22 -162 -124 -244.5t-245 -82.5q-132 0 -212.5 86.5t-63.5 210.5l2 8q0 7 10 15.5t19 8.5h92q7 0 14.5 -8t7.5 -16zM774 1663
h-139q-17 0 -29 -25l-145 -272q-1 -9 6 -17t16 -8h76q15 0 27 25l102 186l49 -186q2 -10 8 -17.5t15 -7.5h76q9 0 16.5 8t9.5 17l-67 272q-4 25 -21 25z" />
    <glyph glyph-name="jcircumflex" unicode="&#x135;" horiz-adv-x="372" 
d="M-90 -197h14q46 0 79.5 12.5t52 29.5t32 49t18.5 56t11 66l125 902q2 8 11.5 16t18.5 8h93q8 0 14.5 -8.5t5.5 -15.5l-129 -932q-14 -93 -41 -156.5t-68 -99t-90.5 -50t-115.5 -14.5h-50q-6 0 -13 8.5t-7 14.5l12 88q1 9 11 17.5t16 8.5zM444 1350h-139q-17 0 -29 -25
l-143 -272q-1 -9 5.5 -17t15.5 -8h75q17 0 29 25l102 186l50 -186q4 -25 20 -25h76q9 0 18 8t11 17l-70 272q-4 25 -21 25z" />
    <glyph glyph-name="uni0136" unicode="&#x136;" horiz-adv-x="872" 
d="M635 768l186 -743q-2 -8 -10.5 -16.5t-17.5 -8.5h-91q-8 0 -19.5 7.5t-14.5 17.5l-148 575l-225 -326l-35 -249q-2 -8 -11 -16.5t-16 -8.5h-92q-9 0 -17.5 8.5t-6.5 16.5l172 1216q0 8 9.5 16.5t18.5 8.5h93q7 0 14.5 -8.5t7.5 -16.5l-96 -684l473 684q6 10 18.5 17.5
t20.5 7.5h92q9 0 17 -8.5t8 -16.5zM498 -115l-78 -233q-9 -22 -29 -25h-110q-22 4 -19 25l107 233q14 25 28 27h76q28 -4 25 -27z" />
    <glyph glyph-name="uni0137" unicode="&#x137;" horiz-adv-x="841" 
d="M811 25q-2 -8 -11 -16.5t-18 -8.5h-98q-14 0 -33 25l-116 485l-250 -320l-25 -165q-2 -8 -11 -16.5t-16 -8.5h-92q-9 0 -17.5 8.5t-6.5 16.5l172 1216q0 8 9.5 16.5t18.5 8.5h93q7 0 14.5 -8.5t7.5 -16.5l-113 -801l371 478q24 24 39 24h98q9 0 17 -8t6 -16l-195 -252
q3 -13 64.5 -267t91.5 -374zM502 -115l-78 -233q-9 -22 -29 -25h-110q-22 4 -19 25l107 233q14 25 28 27h76q28 -4 25 -27z" />
    <glyph glyph-name="kgreenlandic" unicode="&#x138;" horiz-adv-x="841" 
d="M811 25q-2 -8 -11 -16.5t-18 -8.5h-98q-14 0 -33 25l-116 485l-250 -320l-25 -165q-2 -8 -11 -16.5t-16 -8.5h-92q-9 0 -17.5 8.5t-6.5 16.5l125 893q2 8 11.5 16t18.5 8h93q8 0 14.5 -8.5t5.5 -15.5l-66 -478l371 478q24 24 39 24h98q9 0 17 -8t6 -16l-195 -252
q3 -13 64.5 -267t91.5 -374z" />
    <glyph glyph-name="Lacute" unicode="&#x139;" horiz-adv-x="718" 
d="M276 137h375q6 0 13 -8.5t6 -17.5l-13 -88q-2 -6 -10 -14.5t-14 -8.5h-492q-9 0 -17.5 8.5t-6.5 16.5l172 1216q0 8 9.5 16.5t18.5 8.5h93q7 0 14.5 -8.5t7.5 -16.5zM328 1438l241 135q12 4 17 4q16 0 18 -6l58 -80q2 -2 2 -10q-3 -16 -11 -21l-254 -114l-9 -3t-9 -2
q-11 0 -16 5l-43 63q-3 3 -3 12q0 8 9 17z" />
    <glyph glyph-name="lacute" unicode="&#x13a;" horiz-adv-x="372" 
d="M432 1241l-172 -1216q-2 -8 -11 -16.5t-18 -8.5h-92q-8 0 -15.5 9t-6.5 16l172 1216q0 7 9 16t17 9h93q9 0 16.5 -8.5t7.5 -16.5zM225 1438l242 135q12 4 16 4q17 0 19 -6l57 -80q2 -2 2 -10q-3 -17 -10 -21l-254 -114l-9 -3t-9 -2q-12 0 -17 5l-43 63q-2 2 -2 12
q0 9 8 17z" />
    <glyph glyph-name="uni013B" unicode="&#x13b;" horiz-adv-x="718" 
d="M276 137h375q6 0 13 -8.5t6 -17.5l-13 -88q-2 -6 -10 -14.5t-14 -8.5h-492q-9 0 -17.5 8.5t-6.5 16.5l172 1216q0 8 9.5 16.5t18.5 8.5h93q7 0 14.5 -8.5t7.5 -16.5zM438 -115l-78 -233q-9 -22 -28 -25h-111q-21 4 -18 25l106 233q14 25 29 27h76q12 -2 18.5 -9.5
t5.5 -17.5z" />
    <glyph glyph-name="uni013C" unicode="&#x13c;" horiz-adv-x="372" 
d="M117 25l172 1216q0 8 9.5 16.5t18.5 8.5h93q7 0 14.5 -8.5t7.5 -16.5l-172 -1216q-2 -8 -11 -16.5t-16 -8.5h-92q-9 0 -17.5 8.5t-6.5 16.5zM233 -115l-77 -233q-9 -22 -29 -25h-111q-19 3 -16 25l104 233q14 25 29 27h76q12 -2 18.5 -9.5t5.5 -17.5z" />
    <glyph glyph-name="Lcaron" unicode="&#x13d;" horiz-adv-x="718" 
d="M276 137h375q6 0 13 -8.5t6 -17.5l-13 -88q-2 -6 -10 -14.5t-14 -8.5h-492q-9 0 -17.5 8.5t-6.5 16.5l172 1216q0 8 9.5 16.5t18.5 8.5h93q7 0 14.5 -8.5t7.5 -16.5zM584 1008l78 233q10 22 26 25h111q23 -4 20 -25l-106 -233q-14 -25 -31 -27h-76q-25 3 -22 27z" />
    <glyph glyph-name="lcaron" unicode="&#x13e;" horiz-adv-x="647" 
d="M117 25l172 1216q0 8 9.5 16.5t18.5 8.5h93q7 0 14.5 -8.5t7.5 -16.5l-172 -1216q-2 -8 -11 -16.5t-16 -8.5h-92q-9 0 -17.5 8.5t-6.5 16.5zM561 1008l78 233q9 22 27 25h110q24 -4 21 -25l-107 -233q-14 -25 -31 -27h-75q-26 3 -23 27z" />
    <glyph glyph-name="Lslash" unicode="&#x141;" horiz-adv-x="849" 
d="M498 782l182 33q6 0 11.5 -6.5t4.5 -13.5l-12 -82q0 -6 -6.5 -11.5t-13.5 -7.5l-183 -32l-73 -525h374q6 0 13 -8.5t6 -17.5l-13 -88q-2 -6 -10 -14.5t-14 -8.5h-492q-9 0 -17.5 8.5t-6.5 16.5l86 610l-178 -31q-6 0 -11.5 7t-5.5 14l13 82q3 14 20 18l178 31l70 485
q0 8 10 16.5t19 8.5h92q7 0 14.5 -8.5t7.5 -16.5z" />
    <glyph glyph-name="lslash" unicode="&#x142;" horiz-adv-x="638" 
d="M498 782l182 33q6 0 11.5 -6.5t4.5 -13.5l-12 -82q0 -6 -6.5 -11.5t-13.5 -7.5l-183 -32l-90 -637q-2 -8 -10.5 -16.5t-15.5 -8.5h-93q-9 0 -17.5 8.5t-6.5 16.5l86 610l-178 -31q-6 0 -11.5 7t-5.5 14l13 82q3 14 20 18l178 31l70 485q0 8 10 16.5t19 8.5h92
q7 0 14.5 -8.5t7.5 -16.5z" />
    <glyph glyph-name="Nacute" unicode="&#x143;" horiz-adv-x="919" 
d="M670 14l-289 860l-121 -849q-2 -8 -11 -16.5t-16 -8.5h-92q-9 0 -17.5 8.5t-6.5 16.5l172 1216q0 8 9.5 16.5t18.5 8.5h86q16 0 21 -15l289 -886l123 876q0 7 9 16t17 9h92q9 0 17 -8.5t8 -16.5l-172 -1216q-2 -8 -11 -16.5t-18 -8.5h-86q-13 0 -22 14zM500 1438l241 135
q12 4 17 4q16 0 18 -6l58 -80q2 -2 2 -10q-3 -16 -11 -21l-254 -114l-9 -3t-9 -2q-11 0 -16 5l-43 63q-2 2 -2 12q0 9 8 17z" />
    <glyph glyph-name="nacute" unicode="&#x144;" 
d="M635 25l82 577q17 119 -27.5 169t-124.5 50q-88 0 -147.5 -50t-71.5 -138l-86 -608q-2 -8 -11 -16.5t-18 -8.5h-92q-8 0 -15.5 9t-6.5 16l125 893q2 8 11.5 16t16.5 8h92q9 0 17 -8t6 -16l-6 -46q47 37 94.5 56t71.5 21.5t59 2.5q304 0 258 -329l-84 -598
q-2 -8 -10.5 -16.5t-17.5 -8.5h-93q-8 0 -15.5 9t-6.5 16zM406 1124l241 136q8 4 15 4q15 0 20 -7l55 -79q4 -4 4 -11q-3 -14 -12 -20l-254 -115q-16 -4 -18 -4q-13 0 -17 4l-41 64q-5 4 -2 12q0 10 9 16z" />
    <glyph glyph-name="uni0145" unicode="&#x145;" horiz-adv-x="919" 
d="M670 14l-289 860l-121 -849q-2 -8 -11 -16.5t-16 -8.5h-92q-9 0 -17.5 8.5t-6.5 16.5l172 1216q0 8 9.5 16.5t18.5 8.5h86q16 0 21 -15l289 -886l123 876q0 7 9 16t17 9h92q9 0 17 -8.5t8 -16.5l-172 -1216q-2 -8 -11 -16.5t-18 -8.5h-86q-13 0 -22 14zM541 -115
l-78 -233q-9 -22 -29 -25h-110q-22 4 -19 25l107 233q14 25 28 27h76q28 -4 25 -27z" />
    <glyph glyph-name="uni0146" unicode="&#x146;" 
d="M635 25l82 577q17 119 -27.5 169t-124.5 50q-88 0 -147.5 -50t-71.5 -138l-86 -608q-2 -8 -11 -16.5t-18 -8.5h-92q-8 0 -15.5 9t-6.5 16l125 893q2 8 11.5 16t16.5 8h92q9 0 17 -8t6 -16l-6 -46q47 37 94.5 56t71.5 21.5t59 2.5q304 0 258 -329l-84 -598
q-2 -8 -10.5 -16.5t-17.5 -8.5h-93q-8 0 -15.5 9t-6.5 16zM422 -348l78 233q3 23 -25 27h-76q-14 -2 -28 -27l-107 -233q-3 -21 19 -25h110q20 3 29 25z" />
    <glyph glyph-name="Ncaron" unicode="&#x147;" horiz-adv-x="919" 
d="M670 14l-289 860l-121 -849q-2 -8 -11 -16.5t-16 -8.5h-92q-9 0 -17.5 8.5t-6.5 16.5l172 1216q0 8 9.5 16.5t18.5 8.5h86q16 0 21 -15l289 -886l123 876q0 7 9 16t17 9h92q9 0 17 -8.5t8 -16.5l-172 -1216q-2 -8 -11 -16.5t-18 -8.5h-86q-13 0 -22 14zM578 1341h139
q13 0 26 25l146 272q1 9 -5.5 17t-15.5 8h-75q-17 0 -29 -25l-102 -186l-50 186q-4 25 -20 25h-76q-9 0 -18 -8t-11 -17l68 -272q4 -25 23 -25z" />
    <glyph glyph-name="ncaron" unicode="&#x148;" 
d="M635 25l82 577q17 119 -27.5 169t-124.5 50q-88 0 -147.5 -50t-71.5 -138l-86 -608q-2 -8 -11 -16.5t-18 -8.5h-92q-8 0 -15.5 9t-6.5 16l125 893q2 8 11.5 16t16.5 8h92q9 0 17 -8t6 -16l-6 -46q47 37 94.5 56t71.5 21.5t59 2.5q304 0 258 -329l-84 -598
q-2 -8 -10.5 -16.5t-17.5 -8.5h-93q-8 0 -15.5 9t-6.5 16zM682 1028h-139q-17 0 -21 25l-69 272q2 9 10.5 17t17.5 8h76q17 0 21 -25l51 -186l100 186q13 25 29 25h76q9 0 15.5 -8t4.5 -17l-143 -272q-13 -25 -29 -25z" />
    <glyph glyph-name="Eng" unicode="&#x14a;" horiz-adv-x="919" 
d="M455 -197h14q46 0 80 12.5t53 29.5t32.5 49t18.5 56t11 66l2 15l-285 843l-121 -849q-2 -8 -11 -16.5t-16 -8.5h-92q-9 0 -17.5 8.5t-6.5 16.5l172 1216q0 8 9.5 16.5t18.5 8.5h86q16 0 21 -15l289 -886l123 876q0 7 9 16t17 9h92q9 0 17 -8.5t8 -16.5l-176 -1255
q-26 -181 -103.5 -250.5t-214.5 -69.5h-49q-6 0 -13 8.5t-7 14.5l12 88q1 9 11 17.5t16 8.5z" />
    <glyph glyph-name="eng" unicode="&#x14b;" 
d="M862 623l-88 -637q-26 -181 -103 -250.5t-214 -69.5h-49q-6 0 -13.5 8.5t-7.5 14.5l12 88q1 9 11 17.5t16 8.5h14q46 0 80 12.5t53 29.5t32.5 49t18.5 56t11 66l82 586q17 119 -27.5 169t-124.5 50q-88 0 -147.5 -50t-71.5 -138l-86 -608q-2 -8 -11 -16.5t-18 -8.5h-92
q-8 0 -15.5 9t-6.5 16l125 893q2 8 11.5 16t16.5 8h92q9 0 17 -8t6 -16l-6 -46q47 37 94.5 56t71.5 21.5t59 2.5q304 0 258 -329z" />
    <glyph glyph-name="Omacron" unicode="&#x14c;" horiz-adv-x="917" 
d="M637 1280q154 0 241.5 -92.5t67.5 -231.5l-90 -643q-20 -139 -132.5 -231t-266.5 -92q-155 0 -242.5 92t-67.5 231l91 643q20 139 132.5 231.5t266.5 92.5zM475 127q87 0 156.5 54t85.5 163l82 582q16 109 -38.5 163t-142.5 54q-87 0 -156 -54t-85 -163l-82 -582
q-16 -109 38.5 -163t141.5 -54zM850 1341h-404q-6 0 -13 8.5t-7 14.5l12 88q1 9 11 18t16 9h403q6 0 13 -9t6 -18l-13 -88q0 -6 -9 -14.5t-15 -8.5z" />
    <glyph glyph-name="omacron" unicode="&#x14d;" horiz-adv-x="856" 
d="M561 952q138 0 218 -90.5t61 -222.5l-47 -336q-19 -132 -124 -222.5t-243 -90.5t-219 90.5t-62 222.5l48 336q19 132 124.5 222.5t243.5 90.5zM444 121q79 0 136.5 52t68.5 132l47 332q12 80 -31 132t-122 52t-137 -52t-70 -132l-47 -332q-11 -80 32.5 -132t122.5 -52z
M774 1028h-403q-6 0 -13 8.5t-6 14.5l13 88q0 9 8.5 17.5t15.5 8.5h404q6 0 13 -8.5t7 -17.5l-12 -88q-2 -6 -11.5 -14.5t-15.5 -8.5z" />
    <glyph glyph-name="Ohungarumlaut" unicode="&#x150;" horiz-adv-x="917" 
d="M637 1280q154 0 241.5 -92.5t67.5 -231.5l-90 -643q-20 -139 -132.5 -231t-266.5 -92q-155 0 -242.5 92t-67.5 231l91 643q20 139 132.5 231.5t266.5 92.5zM475 127q87 0 156.5 54t85.5 163l82 582q16 109 -38.5 163t-142.5 54q-87 0 -156 -54t-85 -163l-82 -582
q-16 -109 38.5 -163t141.5 -54zM469 1370l72 225q9 24 30 27h105q23 -3 20 -27l-100 -225q-17 -27 -31 -29h-73q-29 4 -23 29zM692 1370l72 225q9 24 31 27h104q24 -3 21 -27l-101 -225q-17 -27 -31 -29h-73q-29 4 -23 29z" />
    <glyph glyph-name="ohungarumlaut" unicode="&#x151;" horiz-adv-x="856" 
d="M561 952q138 0 218 -90.5t61 -222.5l-47 -336q-19 -132 -124 -222.5t-243 -90.5t-219 90.5t-62 222.5l48 336q19 132 124.5 222.5t243.5 90.5zM444 121q79 0 136.5 52t68.5 132l47 332q12 80 -31 132t-122 52t-137 -52t-70 -132l-47 -332q-11 -80 32.5 -132t122.5 -52z
M403 1057l72 225q12 24 31 27h104q27 -4 21 -27l-101 -225q-13 -27 -30 -29h-74q-26 3 -23 29zM627 1057l71 225q12 24 31 27h105q26 -4 20 -27l-100 -225q-13 -26 -31 -29h-74q-25 3 -22 29z" />
    <glyph glyph-name="OE" unicode="&#x152;" horiz-adv-x="1290" 
d="M631 1266h719q6 0 13 -8.5t7 -14.5l-12 -88q-1 -9 -11 -18t-16 -9h-375l-65 -466h266q6 0 13 -9t6 -18l-13 -88q-2 -6 -11 -14.5t-15 -8.5h-267l-53 -387h375q6 0 12.5 -8.5t5.5 -17.5l-12 -88q-2 -6 -10 -14.5t-14 -8.5h-719q-152 0 -238.5 93t-66.5 231l86 618
q20 139 132 231.5t263 92.5zM813 1128h-201q-86 0 -154.5 -54t-84.5 -163l-78 -557q-16 -109 38 -163t140 -54h201z" />
    <glyph glyph-name="oe" unicode="&#x153;" horiz-adv-x="1361" 
d="M1346 637l-27 -191q-1 -7 -11 -15.5t-18 -8.5h-481l-16 -119q-11 -82 32 -132t125 -50q95 0 162 78q19 24 39 24h96q8 0 15 -8.5t6 -15.5q-45 -87 -141 -148t-195 -61q-76 0 -138.5 29.5t-99.5 82.5q-112 -112 -268 -112q-138 0 -219 90.5t-62 222.5l48 336
q19 132 124.5 222.5t243.5 90.5q75 0 137 -30.5t99 -83.5q111 114 270 114q141 0 219.5 -90.5t59.5 -224.5zM444 121q79 0 136.5 52t68.5 132l47 332l2 8q8 77 -35.5 126.5t-119.5 49.5q-79 0 -137 -52t-70 -132l-47 -332q-11 -80 32.5 -132t122.5 -52zM1190 551l12 86
q12 81 -30 132.5t-125 51.5q-81 0 -138 -51.5t-69 -132.5l-13 -86h363z" />
    <glyph glyph-name="Racute" unicode="&#x154;" horiz-adv-x="870" 
d="M905 786q-17 -118 -74 -201t-143 -126l74 -430q-2 -11 -11 -20t-20 -9h-78q-24 0 -28 29l-68 391q-28 -4 -43 -4h-199l-55 -391q-2 -8 -11 -16.5t-18 -8.5h-90q-9 0 -17.5 8.5t-6.5 16.5l172 1216q0 8 9.5 16.5t18.5 8.5h316q141 0 227.5 -96t61.5 -267zM764 795l12 94
q17 113 -36.5 176t-135.5 63h-188l-82 -575h188q81 0 153.5 64t88.5 178zM465 1438l242 135q12 4 16 4q16 0 18 -6l58 -80q2 -2 2 -10q-3 -17 -10 -21l-254 -114q-3 -1 -7 -2t-6.5 -2t-5.5 -1q-11 0 -16 5l-43 63q-2 2 -2 12q0 9 8 17z" />
    <glyph glyph-name="racute" unicode="&#x155;" horiz-adv-x="612" 
d="M694 942q6 0 13.5 -8t7.5 -14l-10 -72q-1 -9 -11 -18t-16 -9q-47 -4 -100 -26t-107 -62t-94.5 -109.5t-52.5 -156.5l-64 -442q-2 -8 -11 -16.5t-18 -8.5h-92q-8 0 -15.5 9t-6.5 16l125 893q2 8 11.5 16t16.5 8h92q9 0 17 -8t6 -16l-18 -138q48 59 113.5 97.5t117 51.5
t96.5 13zM338 1124l242 136q8 4 14 4q15 0 20 -7l56 -79q4 -4 4 -11q-3 -14 -12 -20l-254 -115q-16 -4 -19 -4q-12 0 -16 4l-41 64q-4 4 -2 12q0 11 8 16z" />
    <glyph glyph-name="uni0156" unicode="&#x156;" horiz-adv-x="870" 
d="M905 786q-17 -118 -74 -201t-143 -126l74 -430q-2 -11 -11 -20t-20 -9h-78q-24 0 -28 29l-68 391q-28 -4 -43 -4h-199l-55 -391q-2 -8 -11 -16.5t-18 -8.5h-90q-9 0 -17.5 8.5t-6.5 16.5l172 1216q0 8 9.5 16.5t18.5 8.5h316q141 0 227.5 -96t61.5 -267zM764 795l12 94
q17 113 -36.5 176t-135.5 63h-188l-82 -575h188q81 0 153.5 64t88.5 178zM432 -348l78 233q3 23 -25 27h-75q-15 -2 -29 -27l-107 -233q-3 -21 19 -25h110q20 3 29 25z" />
    <glyph glyph-name="uni0157" unicode="&#x157;" horiz-adv-x="612" 
d="M694 942q6 0 13.5 -8t7.5 -14l-10 -72q-1 -9 -11 -18t-16 -9q-47 -4 -100 -26t-107 -62t-94.5 -109.5t-52.5 -156.5l-64 -442q-2 -8 -11 -16.5t-18 -8.5h-92q-8 0 -15.5 9t-6.5 16l125 893q2 8 11.5 16t16.5 8h92q9 0 17 -8t6 -16l-18 -138q48 59 113.5 97.5t117 51.5
t96.5 13zM305 -115l-78 -233q-9 -22 -28 -25h-111q-21 4 -18 25l106 233q14 25 29 27h76q12 -2 18.5 -9.5t5.5 -17.5z" />
    <glyph glyph-name="Rcaron" unicode="&#x158;" horiz-adv-x="870" 
d="M905 786q-17 -118 -74 -201t-143 -126l74 -430q-2 -11 -11 -20t-20 -9h-78q-24 0 -28 29l-68 391q-28 -4 -43 -4h-199l-55 -391q-2 -8 -11 -16.5t-18 -8.5h-90q-9 0 -17.5 8.5t-6.5 16.5l172 1216q0 8 9.5 16.5t18.5 8.5h316q141 0 227.5 -96t61.5 -267zM764 795l12 94
q17 113 -36.5 176t-135.5 63h-188l-82 -575h188q81 0 153.5 64t88.5 178zM659 1341h-139q-18 0 -22 25l-68 272q2 9 11 17t18 8h76q16 0 20 -25l49 -186l103 186q13 25 28 25h76q9 0 15.5 -8t4.5 -17l-145 -272q-12 -25 -27 -25z" />
    <glyph glyph-name="rcaron" unicode="&#x159;" horiz-adv-x="612" 
d="M694 942q6 0 13.5 -8t7.5 -14l-10 -72q-1 -9 -11 -18t-16 -9q-47 -4 -100 -26t-107 -62t-94.5 -109.5t-52.5 -156.5l-64 -442q-2 -8 -11 -16.5t-18 -8.5h-92q-8 0 -15.5 9t-6.5 16l125 893q2 8 11.5 16t16.5 8h92q9 0 17 -8t6 -16l-18 -138q48 59 113.5 97.5t117 51.5
t96.5 13zM399 1028h140q15 0 28 25l144 272q1 9 -5.5 17t-15.5 8h-76q-16 0 -28 -25l-101 -186l-51 186q-4 25 -20 25h-76q-9 0 -18 -8t-11 -17l70 -272q4 -25 20 -25z" />
    <glyph glyph-name="Sacute" unicode="&#x15a;" horiz-adv-x="851" 
d="M217 961q12 83 48 146t89 100t114.5 55t131.5 18q63 0 116.5 -16.5t97 -52t63.5 -99.5t8 -149q-2 -8 -12 -16.5t-19 -8.5h-92q-8 0 -15 9t-6 16q7 31 2 64t-17.5 60t-49 44.5t-92.5 17.5q-55 0 -97 -16t-63.5 -35.5t-36.5 -50t-18.5 -43.5t-6.5 -33q-9 -62 15 -111.5
t69 -83t100.5 -65t110 -67t98 -78.5t65 -110.5t9.5 -152.5q-15 -107 -72.5 -179.5t-135.5 -103t-172 -30.5q-62 0 -118.5 18t-104.5 54.5t-75 101t-24 149.5q2 8 12 16.5t19 8.5h92q8 0 15 -9t5 -16q-7 -79 39.5 -135.5t155.5 -56.5q55 0 97 16t64 36t36.5 49t18 44.5
t5.5 32.5q8 54 -5.5 98t-41.5 75.5t-66 58t-81.5 50t-86.5 48t-80.5 55.5t-65 68t-39.5 90.5t-3 118.5zM477 1438l242 135q12 4 16 4q17 0 19 -6l57 -80q2 -2 2 -10q-3 -17 -10 -21l-254 -114q-3 -1 -7 -2t-6.5 -2t-5.5 -1q-11 0 -16 5l-43 63q-2 2 -2 12q0 9 8 17z" />
    <glyph glyph-name="sacute" unicode="&#x15b;" horiz-adv-x="735" 
d="M561 231q5 37 -15.5 67.5t-57 53.5t-81.5 45.5t-89.5 49t-80 58.5t-53.5 80.5t-10 108.5q10 66 43.5 117.5t80.5 81t98.5 44.5t103.5 15q73 0 126 -25.5t80 -66.5t39 -83.5t11 -86.5q-2 -8 -11 -16t-16 -8h-86q-8 0 -14 8t-6 16q0 71 -40 105t-94 34q-16 0 -29.5 -1
t-39.5 -8.5t-45 -20t-36 -39.5t-22 -64q-5 -36 15.5 -68t57 -57t81.5 -50t89.5 -53t80 -60t54 -77.5t10.5 -99.5q-8 -62 -42 -110t-82.5 -75.5t-101 -41.5t-104.5 -14q-59 0 -107 16t-78.5 41.5t-51 59t-29 67t-7.5 66.5q2 8 11 16t16 8h86q9 0 16 -8t5 -16
q6 -64 48.5 -95.5t96.5 -31.5q164 0 180 118zM358 1124l242 136q8 4 14 4q16 0 21 -7l55 -79q4 -4 4 -11q-3 -14 -12 -20l-254 -115q-16 -4 -18 -4q-13 0 -17 4l-41 64q-4 4 -2 12q0 11 8 16z" />
    <glyph glyph-name="Scircumflex" unicode="&#x15c;" horiz-adv-x="851" 
d="M217 961q12 83 48 146t89 100t114.5 55t131.5 18q63 0 116.5 -16.5t97 -52t63.5 -99.5t8 -149q-2 -8 -12 -16.5t-19 -8.5h-92q-8 0 -15 9t-6 16q7 31 2 64t-17.5 60t-49 44.5t-92.5 17.5q-55 0 -97 -16t-63.5 -35.5t-36.5 -50t-18.5 -43.5t-6.5 -33q-9 -62 15 -111.5
t69 -83t100.5 -65t110 -67t98 -78.5t65 -110.5t9.5 -152.5q-15 -107 -72.5 -179.5t-135.5 -103t-172 -30.5q-62 0 -118.5 18t-104.5 54.5t-75 101t-24 149.5q2 8 12 16.5t19 8.5h92q8 0 15 -9t5 -16q-7 -79 39.5 -135.5t155.5 -56.5q55 0 97 16t64 36t36.5 49t18 44.5
t5.5 32.5q8 54 -5.5 98t-41.5 75.5t-66 58t-81.5 50t-86.5 48t-80.5 55.5t-65 68t-39.5 90.5t-3 118.5zM721 1663h-139q-16 0 -29 -25l-145 -272q-1 -9 6 -17t16 -8h76q14 0 26 25l103 186l49 -186q2 -10 8 -17.5t15 -7.5h75q9 0 17 8t10 17l-68 272q-4 25 -20 25z" />
    <glyph glyph-name="scircumflex" unicode="&#x15d;" horiz-adv-x="735" 
d="M561 231q5 37 -15.5 67.5t-57 53.5t-81.5 45.5t-89.5 49t-80 58.5t-53.5 80.5t-10 108.5q10 66 43.5 117.5t80.5 81t98.5 44.5t103.5 15q73 0 126 -25.5t80 -66.5t39 -83.5t11 -86.5q-2 -8 -11 -16t-16 -8h-86q-8 0 -14 8t-6 16q0 71 -40 105t-94 34q-16 0 -29.5 -1
t-39.5 -8.5t-45 -20t-36 -39.5t-22 -64q-5 -36 15.5 -68t57 -57t81.5 -50t89.5 -53t80 -60t54 -77.5t10.5 -99.5q-8 -62 -42 -110t-82.5 -75.5t-101 -41.5t-104.5 -14q-59 0 -107 16t-78.5 41.5t-51 59t-29 67t-7.5 66.5q2 8 11 16t16 8h86q9 0 16 -8t5 -16
q6 -64 48.5 -95.5t96.5 -31.5q164 0 180 118zM614 1350h-139q-17 0 -29 -25l-143 -272q-1 -9 5.5 -17t15.5 -8h75q17 0 29 25l102 186l50 -186q4 -25 20 -25h76q9 0 18 8t11 17l-70 272q-4 25 -21 25z" />
    <glyph glyph-name="Scedilla" unicode="&#x15e;" horiz-adv-x="851" 
d="M829 303q-19 -138 -103.5 -214.5t-207.5 -92.5l-82 -223q-11 -25 -22 -25h-105q-9 0 -13.5 7t-2.5 18l100 221q-118 17 -194 95.5t-72 223.5q2 8 12 16.5t19 8.5h92q8 0 15 -9t5 -16q-7 -79 39.5 -135.5t155.5 -56.5q55 0 97 16t64 36t36.5 49t18 44.5t5.5 32.5
q8 54 -5.5 98t-41.5 75.5t-66 58t-81.5 50t-86.5 48t-80.5 55.5t-65 68t-39.5 90.5t-3 118.5q12 83 48 146t89 100t114.5 55t131.5 18q63 0 116.5 -16.5t97 -52t63.5 -99.5t8 -149q-2 -8 -12 -16.5t-19 -8.5h-92q-8 0 -15 9t-6 16q7 31 2 64t-17.5 60t-49 44.5t-92.5 17.5
q-55 0 -97 -16t-63.5 -35.5t-36.5 -50t-18.5 -43.5t-6.5 -33q-9 -62 15 -111.5t69 -83t100.5 -65t110 -67t98 -78.5t65 -110.5t9.5 -152.5z" />
    <glyph glyph-name="scedilla" unicode="&#x15f;" horiz-adv-x="735" 
d="M705 231q-13 -94 -82 -153t-162 -78l-84 -227q-11 -25 -23 -25h-104q-9 0 -14 7t-3 18l99 221q-81 8 -135.5 50t-75 92t-19.5 104q2 8 11 16t16 8h86q9 0 16 -8t5 -16q6 -64 48.5 -95.5t96.5 -31.5q164 0 180 118q5 37 -15.5 67.5t-57 53.5t-81.5 45.5t-89.5 49t-80 58.5
t-53.5 80.5t-10 108.5q10 66 43.5 117.5t80.5 81t98.5 44.5t103.5 15q73 0 126 -25.5t80 -66.5t39 -83.5t11 -86.5q-2 -8 -11 -16t-16 -8h-86q-8 0 -14 8t-6 16q0 71 -40 105t-94 34q-16 0 -29.5 -1t-39.5 -8.5t-45 -20t-36 -39.5t-22 -64q-5 -36 15.5 -68t57 -57t81.5 -50
t89.5 -53t80 -60t54 -77.5t10.5 -99.5z" />
    <glyph glyph-name="Scaron" unicode="&#x160;" horiz-adv-x="851" 
d="M217 961q12 83 48 146t89 100t114.5 55t131.5 18q63 0 116.5 -16.5t97 -52t63.5 -99.5t8 -149q-2 -8 -12 -16.5t-19 -8.5h-92q-8 0 -15 9t-6 16q7 31 2 64t-17.5 60t-49 44.5t-92.5 17.5q-55 0 -97 -16t-63.5 -35.5t-36.5 -50t-18.5 -43.5t-6.5 -33q-9 -62 15 -111.5
t69 -83t100.5 -65t110 -67t98 -78.5t65 -110.5t9.5 -152.5q-15 -107 -72.5 -179.5t-135.5 -103t-172 -30.5q-62 0 -118.5 18t-104.5 54.5t-75 101t-24 149.5q2 8 12 16.5t19 8.5h92q8 0 15 -9t5 -16q-7 -79 39.5 -135.5t155.5 -56.5q55 0 97 16t64 36t36.5 49t18 44.5
t5.5 32.5q8 54 -5.5 98t-41.5 75.5t-66 58t-81.5 50t-86.5 48t-80.5 55.5t-65 68t-39.5 90.5t-3 118.5zM541 1341h139q14 0 27 25l145 272q1 9 -5.5 17t-15.5 8h-75q-16 0 -29 -25l-102 -186l-50 186q-4 25 -20 25h-76q-9 0 -17.5 -8t-10.5 -17l67 -272q4 -25 23 -25z" />
    <glyph glyph-name="scaron" unicode="&#x161;" horiz-adv-x="735" 
d="M561 231q5 37 -15.5 67.5t-57 53.5t-81.5 45.5t-89.5 49t-80 58.5t-53.5 80.5t-10 108.5q10 66 43.5 117.5t80.5 81t98.5 44.5t103.5 15q73 0 126 -25.5t80 -66.5t39 -83.5t11 -86.5q-2 -8 -11 -16t-16 -8h-86q-8 0 -14 8t-6 16q0 71 -40 105t-94 34q-16 0 -29.5 -1
t-39.5 -8.5t-45 -20t-36 -39.5t-22 -64q-5 -36 15.5 -68t57 -57t81.5 -50t89.5 -53t80 -60t54 -77.5t10.5 -99.5q-8 -62 -42 -110t-82.5 -75.5t-101 -41.5t-104.5 -14q-59 0 -107 16t-78.5 41.5t-51 59t-29 67t-7.5 66.5q2 8 11 16t16 8h86q9 0 16 -8t5 -16
q6 -64 48.5 -95.5t96.5 -31.5q164 0 180 118zM446 1028h140q16 0 28 25l144 272q1 9 -5.5 17t-15.5 8h-75q-16 0 -29 -25l-101 -186l-51 186q-4 25 -20 25h-76q-9 0 -18 -8t-11 -17l70 -272q4 -25 20 -25z" />
    <glyph glyph-name="uni0162" unicode="&#x162;" horiz-adv-x="716" 
d="M817 1266q6 0 13.5 -8.5t7.5 -14.5l-13 -88q-1 -9 -10.5 -18t-15.5 -9h-211l-156 -1103q-2 -8 -10.5 -16.5t-15.5 -8.5h-21q-51 0 -81 -27.5t-38 -74.5q-4 -37 18.5 -64t49.5 -27q2 0 51 7q10 0 14 -17l-12 -80q-4 -11 -16 -14q-46 -4 -66 -4q-99 0 -140 52t-28 145
q8 55 52.5 108.5t107.5 71.5l147 1052h-211q-6 0 -12.5 9t-5.5 18l12 88q0 6 9.5 14.5t15.5 8.5h565z" />
    <glyph glyph-name="uni0163" unicode="&#x163;" horiz-adv-x="626" 
d="M643 805h-180l-68 -471q-6 -56 -2 -99t39 -69t103 -29h14q6 0 12.5 -8t5.5 -14l-12 -88q-1 -9 -10 -18t-15 -9h-73l-84 -227q-11 -25 -23 -25h-104q-9 0 -14 7t-3 18l111 256q-123 64 -90 288l69 488h-141q-6 0 -12.5 8.5t-5.5 17.5l12 89q0 6 9.5 14t15.5 8h141l37 254
q0 8 9.5 16.5t18.5 8.5h93q7 0 14.5 -8.5t7.5 -16.5l-37 -254h181q6 0 13 -8t7 -14l-12 -89q-1 -9 -11 -17.5t-16 -8.5z" />
    <glyph glyph-name="Tcaron" unicode="&#x164;" horiz-adv-x="716" 
d="M289 25l155 1103h-211q-6 0 -12.5 9t-5.5 18l12 88q0 6 9.5 14.5t15.5 8.5h565q6 0 13.5 -8.5t7.5 -14.5l-13 -88q-1 -9 -10.5 -18t-15.5 -9h-211l-156 -1103q-2 -8 -10.5 -16.5t-15.5 -8.5h-93q-9 0 -17.5 8.5t-6.5 16.5zM477 1341h139q14 0 27 25l145 272q2 9 -4.5 17
t-15.5 8h-76q-16 0 -28 -25l-103 -186l-49 186q-4 25 -20 25h-76q-9 0 -18 -8t-11 -17l68 -272q4 -25 22 -25z" />
    <glyph glyph-name="tcaron" unicode="&#x165;" horiz-adv-x="739" 
d="M535 137h14q6 0 12.5 -8t5.5 -14l-12 -88q-1 -9 -10 -18t-15 -9h-53q-131 0 -190 75.5t-37 241.5l69 488h-141q-6 0 -12.5 8.5t-5.5 17.5l12 89q0 6 9.5 14t15.5 8h141l37 254q0 8 9.5 16.5t18.5 8.5h93q7 0 14.5 -8.5t7.5 -16.5l-37 -254h181q6 0 13 -8t7 -14l-12 -89
q-1 -9 -11 -17.5t-16 -8.5h-180l-68 -471q-6 -56 -2 -99t39 -69t103 -29zM668 1028l49 168q10 22 26 25h111q23 -4 20 -25l-77 -168q-14 -25 -31 -27h-76q-25 3 -22 27z" />
    <glyph glyph-name="Tbar" unicode="&#x166;" horiz-adv-x="716" 
d="M377 651h-137q-6 0 -13 8.5t-6 14.5l12 88q1 9 11 17.5t16 8.5h137l47 340h-211q-6 0 -12.5 9t-5.5 18l12 88q0 6 9.5 14.5t15.5 8.5h565q6 0 13.5 -8.5t7.5 -14.5l-13 -88q-1 -9 -10.5 -18t-15.5 -9h-211l-47 -340h137q6 0 12.5 -8.5t5.5 -17.5l-12 -88
q-2 -6 -11.5 -14.5t-15.5 -8.5h-137l-88 -626q-2 -8 -10.5 -16.5t-15.5 -8.5h-93q-9 0 -17.5 8.5t-6.5 16.5z" />
    <glyph glyph-name="tbar" unicode="&#x167;" horiz-adv-x="626" 
d="M449 705h180q6 0 12.5 -8.5t5.5 -14.5l-12 -88q-1 -9 -11 -18t-16 -9h-180l-33 -233q-6 -56 -2 -99t39 -69t103 -29h14q6 0 12.5 -8t5.5 -14l-12 -88q-1 -9 -10 -18t-15 -9h-53q-131 0 -190 75.5t-37 241.5l35 250h-142q-6 0 -12.5 9t-5.5 18l12 88q2 6 11.5 14.5
t15.5 8.5h141l29 208h-141q-6 0 -13 9t-6 18l12 88q2 6 11.5 14.5t15.5 8.5h141l21 145q0 8 9.5 16.5t18.5 8.5h93q7 0 14.5 -8.5t7.5 -16.5l-20 -145h180q6 0 12.5 -8.5t5.5 -14.5l-12 -88q-1 -9 -11 -18t-16 -9h-180z" />
    <glyph glyph-name="Utilde" unicode="&#x168;" horiz-adv-x="937" 
d="M467 -10q-155 0 -242 92t-67 231l131 928q0 8 9.5 16.5t18.5 8.5h93q7 0 14.5 -8.5t7.5 -16.5l-127 -897q-16 -109 38.5 -163t141.5 -54t156.5 54t85.5 163l127 897q0 7 9.5 16t17.5 9h92q9 0 16.5 -8.5t7.5 -16.5l-131 -928q-20 -139 -132.5 -231t-266.5 -92zM772 1341
q-39 0 -99.5 26t-88.5 26q-42 0 -68 -29q-7 -10 -18 -10q-10 0 -17 10l-37 55q-4 6 -4 17q0 5 11 20q25 30 57.5 49t58.5 19q35 0 94.5 -25.5t94.5 -25.5q39 0 67 28q7 10 17 10q11 0 18 -10l37 -55q4 -12 4 -16q-5 -14 -12 -21q-23 -29 -56 -48.5t-59 -19.5z" />
    <glyph glyph-name="utilde" unicode="&#x169;" 
d="M375 918l-80 -578q-17 -119 27 -169t124 -50q88 0 148 50t72 138l84 609q2 8 11.5 16t18.5 8h92q8 0 15 -8.5t6 -15.5l-125 -893q-2 -8 -11 -16.5t-16 -8.5h-92q-9 0 -17.5 8.5t-6.5 16.5l6 45q-46 -37 -93 -56t-71 -21.5t-59 -2.5q-307 0 -261 329l84 599q2 8 12 16
t19 8h92q8 0 15 -8.5t6 -15.5zM684 1028q-39 0 -98.5 25.5t-87.5 25.5q-43 0 -68 -28q-11 -11 -18 -11q-13 0 -17 11l-39 55q-4 12 -2 16q0 10 11 21q25 29 57.5 48t58.5 19q35 0 93.5 -25.5t93.5 -25.5q41 0 67 29q7 10 19 10q9 0 16 -10l37 -55q4 -6 4 -17q0 -7 -10 -20
q-25 -29 -58 -48.5t-59 -19.5z" />
    <glyph glyph-name="Umacron" unicode="&#x16a;" horiz-adv-x="937" 
d="M467 -10q-155 0 -242 92t-67 231l131 928q0 8 9.5 16.5t18.5 8.5h93q7 0 14.5 -8.5t7.5 -16.5l-127 -897q-16 -109 38.5 -163t141.5 -54t156.5 54t85.5 163l127 897q0 7 9.5 16t17.5 9h92q9 0 16.5 -8.5t7.5 -16.5l-131 -928q-20 -139 -132.5 -231t-266.5 -92zM860 1341
h-403q-6 0 -13.5 8.5t-7.5 14.5l13 88q1 9 10.5 18t15.5 9h404q6 0 12.5 -9t5.5 -18l-12 -88q0 -6 -9.5 -14.5t-15.5 -8.5z" />
    <glyph glyph-name="umacron" unicode="&#x16b;" 
d="M375 918l-80 -578q-17 -119 27 -169t124 -50q88 0 148 50t72 138l84 609q2 8 11.5 16t18.5 8h92q8 0 15 -8.5t6 -15.5l-125 -893q-2 -8 -11 -16.5t-16 -8.5h-92q-9 0 -17.5 8.5t-6.5 16.5l6 45q-46 -37 -93 -56t-71 -21.5t-59 -2.5q-307 0 -261 329l84 599q2 8 12 16
t19 8h92q8 0 15 -8.5t6 -15.5zM784 1028h-403q-6 0 -13 8.5t-6 14.5l13 88q0 9 8.5 17.5t15.5 8.5h404q6 0 13 -8.5t7 -17.5l-12 -88q-2 -6 -11.5 -14.5t-15.5 -8.5z" />
    <glyph glyph-name="Ubreve" unicode="&#x16c;" horiz-adv-x="937" 
d="M467 -10q-155 0 -242 92t-67 231l131 928q0 8 9.5 16.5t18.5 8.5h93q7 0 14.5 -8.5t7.5 -16.5l-127 -897q-16 -109 38.5 -163t141.5 -54t156.5 54t85.5 163l127 897q0 7 9.5 16t17.5 9h92q9 0 16.5 -8.5t7.5 -16.5l-131 -928q-20 -139 -132.5 -231t-266.5 -92zM657 1341
q-107 0 -174.5 49.5t-64.5 157.5q0 6 8.5 13.5t15.5 7.5h74q6 0 12.5 -7.5t6.5 -13.5q5 -47 42.5 -77.5t92.5 -30.5t101.5 30t66.5 78q0 6 8 13.5t14 7.5h74q7 0 13.5 -7.5t6.5 -13.5q-29 -108 -109.5 -157.5t-187.5 -49.5z" />
    <glyph glyph-name="ubreve" unicode="&#x16d;" 
d="M375 918l-80 -578q-17 -119 27 -169t124 -50q88 0 148 50t72 138l84 609q2 8 11.5 16t18.5 8h92q8 0 15 -8.5t6 -15.5l-125 -893q-2 -8 -11 -16.5t-16 -8.5h-92q-9 0 -17.5 8.5t-6.5 16.5l6 45q-46 -37 -93 -56t-71 -21.5t-59 -2.5q-307 0 -261 329l84 599q2 8 12 16
t19 8h92q8 0 15 -8.5t6 -15.5zM567 1028q-107 0 -173.5 49.5t-65.5 157.5q2 6 10.5 13t15.5 7h74q6 0 11.5 -7t4.5 -13q6 -48 44.5 -78.5t93.5 -30.5t101 30.5t65 78.5q2 6 10 13t14 7h74q7 0 13.5 -7t4.5 -13q-14 -56 -44 -97t-71 -64.5t-86 -34.5t-96 -11z" />
    <glyph glyph-name="Uring" unicode="&#x16e;" horiz-adv-x="937" 
d="M467 -10q-155 0 -242 92t-67 231l131 928q0 8 9.5 16.5t18.5 8.5h93q7 0 14.5 -8.5t7.5 -16.5l-127 -897q-16 -109 38.5 -163t141.5 -54t156.5 54t85.5 163l127 897q0 7 9.5 16t17.5 9h92q9 0 16.5 -8.5t7.5 -16.5l-131 -928q-20 -139 -132.5 -231t-266.5 -92zM657 1341
q-96 0 -141.5 58t-30.5 170q17 113 78.5 171t157.5 58t142.5 -58t29.5 -171q-15 -112 -77.5 -170t-158.5 -58zM672 1450q31 0 57.5 30t34.5 89q8 62 -9.5 89.5t-49.5 27.5q-31 0 -57 -27.5t-34 -89.5q-8 -58 10 -88.5t48 -30.5z" />
    <glyph glyph-name="uring" unicode="&#x16f;" 
d="M375 918l-80 -578q-17 -119 27 -169t124 -50q88 0 148 50t72 138l84 609q2 8 11.5 16t18.5 8h92q8 0 15 -8.5t6 -15.5l-125 -893q-2 -8 -11 -16.5t-16 -8.5h-92q-9 0 -17.5 8.5t-6.5 16.5l6 45q-46 -37 -93 -56t-71 -21.5t-59 -2.5q-307 0 -261 329l84 599q2 8 12 16
t19 8h92q8 0 15 -8.5t6 -15.5zM563 1028q-96 0 -141.5 57.5t-28.5 169.5q15 113 76.5 171.5t157.5 58.5t142.5 -58.5t31.5 -171.5q-17 -112 -79.5 -169.5t-158.5 -57.5zM580 1137q31 0 57.5 29.5t34.5 88.5q8 62 -10 89.5t-50 27.5q-31 0 -56.5 -27.5t-33.5 -89.5
q-8 -58 10 -88t48 -30z" />
    <glyph glyph-name="Uhungarumlaut" unicode="&#x170;" horiz-adv-x="937" 
d="M479 1370l72 225q9 24 31 27h104q24 -3 21 -27l-101 -225q-17 -27 -31 -29h-73q-29 4 -23 29zM702 1370l72 225q9 24 31 27h104q24 -3 21 -27l-101 -225q-15 -24 -25 -28q-2 -1 -5 -1h-74q-29 4 -23 29zM467 -10q-155 0 -242 92t-67 231l131 928q0 8 9.5 16.5t18.5 8.5
h93q7 0 14.5 -8.5t7.5 -16.5l-127 -897q-16 -109 38.5 -163t141.5 -54t156.5 54t85.5 163l127 897q0 7 9.5 16t17.5 9h92q9 0 16.5 -8.5t7.5 -16.5l-131 -928q-20 -139 -132.5 -231t-266.5 -92z" />
    <glyph glyph-name="uhungarumlaut" unicode="&#x171;" 
d="M375 918l-80 -578q-17 -119 27 -169t124 -50q88 0 148 50t72 138l84 609q2 8 11.5 16t18.5 8h92q8 0 15 -8.5t6 -15.5l-125 -893q-2 -8 -11 -16.5t-16 -8.5h-92q-9 0 -17.5 8.5t-6.5 16.5l6 45q-46 -37 -93 -56t-71 -21.5t-59 -2.5q-307 0 -261 329l84 599q2 8 12 16
t19 8h92q8 0 15 -8.5t6 -15.5zM403 1057l72 225q12 24 31 27h104q27 -4 21 -27l-101 -225q-13 -27 -30 -29h-74q-26 3 -23 29zM627 1057l71 225q12 24 31 27h105q26 -4 20 -27l-100 -225q-13 -26 -31 -29h-74q-25 3 -22 29z" />
    <glyph glyph-name="Uogonek" unicode="&#x172;" horiz-adv-x="937" 
d="M866 313q-17 -118 -101 -203t-206 -110q-52 -16 -74 -43t-28 -72q-6 -37 16 -57.5t51 -20.5q2 0 51 7q11 0 15 -17l-12 -80q-4 -11 -17 -14q-46 -4 -65 -4q-195 0 -170 184q11 65 55 117q-118 25 -179 110t-44 203l131 928q0 8 9.5 16.5t18.5 8.5h93q7 0 14.5 -8.5
t7.5 -16.5l-127 -897q-16 -109 38.5 -163t141.5 -54t156.5 54t85.5 163l127 897q0 7 9.5 16t17.5 9h92q9 0 16.5 -8.5t7.5 -16.5z" />
    <glyph glyph-name="uogonek" unicode="&#x173;" 
d="M893 918l-133 -957q-1 -7 -11 -15.5t-18 -8.5h-20q-104 0 -115 -87q-4 -36 18 -52.5t52 -16.5q9 0 51 6q10 0 14 -16l-12 -80q-4 -12 -17 -15q-46 -4 -65 -4q-102 0 -142 43t-28 133q8 53 50.5 99.5t105.5 64.5l8 58q-46 -37 -93 -56t-71 -21.5t-59 -2.5q-307 0 -261 329
l84 599q2 8 12 16t19 8h92q8 0 15 -8.5t6 -15.5l-80 -578q-17 -119 27 -169t124 -50q88 0 148 50t72 138l84 609q2 8 11.5 16t18.5 8h92q8 0 15 -8.5t6 -15.5z" />
    <glyph glyph-name="Ydieresis" unicode="&#x178;" horiz-adv-x="847" 
d="M508 608l328 633q3 9 11 17t15 8h92q9 0 17 -8.5t8 -16.5l-426 -823l-55 -393q-2 -8 -11 -16.5t-16 -8.5h-92q-9 0 -18 9t-7 16l56 393l-193 823q0 8 10 16.5t19 8.5h92q12 0 22 -25zM436 1419q4 32 31 54t61 22q30 0 50 -22t16 -54t-30 -55t-56 -23q-34 0 -55 23t-17 55
zM653 1419q4 32 31 54t61 22q30 0 50 -22t16 -54t-30 -55t-56 -23q-34 0 -55 23t-17 55z" />
    <glyph glyph-name="Zacute" unicode="&#x179;" horiz-adv-x="770" 
d="M825 1114l-565 -977h412q6 0 12.5 -8.5t5.5 -17.5l-12 -88q-2 -6 -10.5 -14.5t-14.5 -8.5h-532q-9 0 -18 9t-7 16l15 98q2 17 10 29l565 976h-412q-6 0 -12.5 9t-5.5 18l12 88q0 6 9.5 14.5t15.5 8.5h532q9 0 17 -8.5t8 -16.5l-14 -98q-1 -7 -3 -13t-4.5 -10t-3.5 -6z
M459 1438l241 135q12 4 17 4q16 0 18 -6l58 -80q2 -2 2 -10q-3 -16 -11 -21l-254 -114l-9 -3t-9 -2q-11 0 -16 5l-43 63q-2 2 -2 12q0 9 8 17z" />
    <glyph glyph-name="zacute" unicode="&#x17a;" horiz-adv-x="667" 
d="M709 791l-473 -654h364q6 0 12.5 -8.5t5.5 -17.5l-12 -88q-2 -6 -10 -14.5t-14 -8.5h-492q-9 0 -17.5 8.5t-6.5 16.5l14 98q2 17 10 29l471 653h-358q-6 0 -13 8.5t-6 17.5l13 89q0 6 9 14t15 8h488q9 0 16.5 -8t5.5 -16l-12 -99q-1 -7 -3 -12.5t-4 -9.5zM365 1124
l241 136q8 4 15 4q15 0 20 -7l55 -79q4 -4 4 -11q-3 -14 -12 -20l-254 -115q-16 -4 -18 -4q-13 0 -17 4l-41 64q-4 4 -2 12q0 10 9 16z" />
    <glyph glyph-name="Zdotaccent" unicode="&#x17b;" horiz-adv-x="770" 
d="M825 1114l-565 -977h412q6 0 12.5 -8.5t5.5 -17.5l-12 -88q-2 -6 -10.5 -14.5t-14.5 -8.5h-532q-9 0 -18 9t-7 16l15 98q2 17 10 29l565 976h-412q-6 0 -12.5 9t-5.5 18l12 88q0 6 9.5 14.5t15.5 8.5h532q9 0 17 -8.5t8 -16.5l-14 -98q-1 -7 -3 -13t-4.5 -10t-3.5 -6z
M502 1419q-4 -32 16.5 -55t54.5 -23q30 0 56 23t30 55t-15.5 54t-49.5 22q-34 0 -61 -22t-31 -54z" />
    <glyph glyph-name="zdotaccent" unicode="&#x17c;" horiz-adv-x="667" 
d="M709 791l-473 -654h364q6 0 12.5 -8.5t5.5 -17.5l-12 -88q-2 -6 -10 -14.5t-14 -8.5h-492q-9 0 -17.5 8.5t-6.5 16.5l14 98q2 17 10 29l471 653h-358q-6 0 -13 8.5t-6 17.5l13 89q0 6 9 14t15 8h488q9 0 16.5 -8t5.5 -16l-12 -99q-1 -7 -3 -12.5t-4 -9.5zM406 1106
q-4 -32 16.5 -55t54.5 -23q30 0 56 23t30 55t-14.5 54t-48.5 22q-34 0 -62 -22t-32 -54z" />
    <glyph glyph-name="Zcaron" unicode="&#x17d;" horiz-adv-x="770" 
d="M825 1114l-565 -977h412q6 0 12.5 -8.5t5.5 -17.5l-12 -88q-2 -6 -10.5 -14.5t-14.5 -8.5h-532q-9 0 -18 9t-7 16l15 98q2 17 10 29l565 976h-412q-6 0 -12.5 9t-5.5 18l12 88q0 6 9.5 14.5t15.5 8.5h532q9 0 17 -8.5t8 -16.5l-14 -98q-1 -7 -3 -13t-4.5 -10t-3.5 -6z
M535 1341h139q14 0 26 25l146 272q1 9 -5.5 17t-15.5 8h-75q-16 0 -29 -25l-103 -186l-49 186q-4 25 -20 25h-76q-9 0 -18 -8t-11 -17l68 -272q4 -25 23 -25z" />
    <glyph glyph-name="zcaron" unicode="&#x17e;" horiz-adv-x="667" 
d="M709 791l-473 -654h364q6 0 12.5 -8.5t5.5 -17.5l-12 -88q-2 -6 -10 -14.5t-14 -8.5h-492q-9 0 -17.5 8.5t-6.5 16.5l14 98q2 17 10 29l471 653h-358q-6 0 -13 8.5t-6 17.5l13 89q0 6 9 14t15 8h488q9 0 16.5 -8t5.5 -16l-12 -99q-1 -7 -3 -12.5t-4 -9.5zM418 1028h139
q17 0 29 25l143 272q2 9 -4.5 17t-15.5 8h-76q-17 0 -29 -25l-100 -186l-51 186q-4 25 -21 25h-76q-9 0 -17.5 -8t-10.5 -17l69 -272q4 -25 21 -25z" />
    <glyph glyph-name="florin" unicode="&#x192;" horiz-adv-x="595" 
d="M463 805l-115 -819q-26 -181 -103 -250.5t-214 -69.5h-47q-6 0 -13.5 8.5t-7.5 14.5l12 88q1 8 10.5 17t14.5 9h14q46 0 80 12.5t53 29.5t32.5 49t18.5 56t11 66l110 789h-141q-6 0 -13 8t-7 14l12 88q1 9 11 18t16 9h141l8 62q12 84 38.5 139.5t68.5 84.5t89.5 40.5
t112.5 11.5h39q6 0 13.5 -9t7.5 -18l-15 -88q0 -6 -9 -14t-15 -8h-23q-79 0 -116 -35.5t-45 -99.5l-11 -66h181q6 0 12.5 -9t5.5 -18l-12 -88q0 -6 -9.5 -14t-15.5 -8h-180z" />
    <glyph glyph-name="uni0218" unicode="&#x218;" horiz-adv-x="851" 
d="M217 961q12 83 48 146t89 100t114.5 55t131.5 18q63 0 116.5 -16.5t97 -52t63.5 -99.5t8 -149q-2 -8 -12 -16.5t-19 -8.5h-92q-8 0 -15 9t-6 16q7 31 2 64t-17.5 60t-49 44.5t-92.5 17.5q-55 0 -97 -16t-63.5 -35.5t-36.5 -50t-18.5 -43.5t-6.5 -33q-9 -62 15 -111.5
t69 -83t100.5 -65t110 -67t98 -78.5t65 -110.5t9.5 -152.5q-15 -107 -72.5 -179.5t-135.5 -103t-172 -30.5q-62 0 -118.5 18t-104.5 54.5t-75 101t-24 149.5q2 8 12 16.5t19 8.5h92q8 0 15 -9t5 -16q-7 -79 39.5 -135.5t155.5 -56.5q55 0 97 16t64 36t36.5 49t18 44.5
t5.5 32.5q8 54 -5.5 98t-41.5 75.5t-66 58t-81.5 50t-86.5 48t-80.5 55.5t-65 68t-39.5 90.5t-3 118.5zM518 -115l-78 -233q-9 -22 -28 -25h-111q-21 4 -18 25l106 233q14 25 29 27h76q12 -2 18.5 -9.5t5.5 -17.5z" />
    <glyph glyph-name="uni0219" unicode="&#x219;" horiz-adv-x="735" 
d="M561 231q5 37 -15.5 67.5t-57 53.5t-81.5 45.5t-89.5 49t-80 58.5t-53.5 80.5t-10 108.5q10 66 43.5 117.5t80.5 81t98.5 44.5t103.5 15q73 0 126 -25.5t80 -66.5t39 -83.5t11 -86.5q-2 -8 -11 -16t-16 -8h-86q-8 0 -14 8t-6 16q0 71 -40 105t-94 34q-16 0 -29.5 -1
t-39.5 -8.5t-45 -20t-36 -39.5t-22 -64q-5 -36 15.5 -68t57 -57t81.5 -50t89.5 -53t80 -60t54 -77.5t10.5 -99.5q-8 -62 -42 -110t-82.5 -75.5t-101 -41.5t-104.5 -14q-59 0 -107 16t-78.5 41.5t-51 59t-29 67t-7.5 66.5q2 8 11 16t16 8h86q9 0 16 -8t5 -16
q6 -64 48.5 -95.5t96.5 -31.5q164 0 180 118zM428 -115l-78 -233q-9 -22 -28 -25h-111q-21 4 -18 25l106 233q14 25 29 27h75q28 -4 25 -27z" />
    <glyph glyph-name="uni021A" unicode="&#x21a;" horiz-adv-x="716" 
d="M289 25l155 1103h-211q-6 0 -12.5 9t-5.5 18l12 88q0 6 9.5 14.5t15.5 8.5h565q6 0 13.5 -8.5t7.5 -14.5l-13 -88q-1 -9 -10.5 -18t-15.5 -9h-211l-156 -1103q-2 -8 -10.5 -16.5t-15.5 -8.5h-93q-9 0 -17.5 8.5t-6.5 16.5zM408 -115l-78 -233q-9 -22 -29 -25h-111
q-21 4 -18 25l107 233q14 25 28 27h76q28 -4 25 -27z" />
    <glyph glyph-name="uni021B" unicode="&#x21b;" horiz-adv-x="626" 
d="M535 137h14q6 0 12.5 -8t5.5 -14l-12 -88q-1 -9 -10 -18t-15 -9h-53q-131 0 -190 75.5t-37 241.5l69 488h-141q-6 0 -12.5 8.5t-5.5 17.5l12 89q0 6 9.5 14t15.5 8h141l37 254q0 8 9.5 16.5t18.5 8.5h93q7 0 14.5 -8.5t7.5 -16.5l-37 -254h181q6 0 13 -8t7 -14l-12 -89
q-1 -9 -11 -17.5t-16 -8.5h-180l-68 -471q-6 -56 -2 -99t39 -69t103 -29zM436 -115l-78 -233q-9 -22 -28 -25h-111q-21 4 -18 25l106 233q14 25 29 27h76q12 -2 18.5 -9.5t5.5 -17.5z" />
    <glyph glyph-name="circumflex" unicode="&#x2c6;" horiz-adv-x="630" 
d="M422 1266h139q19 0 23 -25l67 -272q-2 -9 -10.5 -17t-17.5 -8h-76q-17 0 -21 25l-49 186l-102 -186q-13 -25 -29 -25h-76q-9 0 -15.5 8t-4.5 17l145 272q13 25 27 25z" />
    <glyph glyph-name="caron" unicode="&#x2c7;" horiz-adv-x="630" 
d="M516 944h-139q-17 0 -21 25l-67 272q2 9 9.5 17t16.5 8h76q9 0 15 -7.5t8 -17.5l49 -186l102 186q13 25 27 25h76q9 0 16 -8t6 -17l-145 -272q-13 -25 -29 -25z" />
    <glyph glyph-name="breve" unicode="&#x2d8;" horiz-adv-x="765" 
d="M528 1038q-107 0 -174.5 49.5t-64.5 157.5q2 7 9.5 14t14.5 7h74q6 0 13 -7.5t6 -13.5q6 -48 44 -78t93 -30t101 30t65 78q2 6 9 13.5t13 7.5h74q7 0 14.5 -7.5t5.5 -13.5q-29 -108 -109.5 -157.5t-187.5 -49.5z" />
    <glyph glyph-name="dotaccent" unicode="&#x2d9;" horiz-adv-x="387" 
d="M283 1204q4 32 31 54t61 22q30 0 49.5 -22t15.5 -54t-30 -55t-56 -23q-34 0 -54.5 23t-16.5 55z" />
    <glyph glyph-name="ring" unicode="&#x2da;" horiz-adv-x="636" 
d="M432 823q-96 0 -141.5 58t-28.5 170q15 113 76.5 171t157.5 58t142.5 -58t31.5 -171q-17 -112 -79.5 -170t-158.5 -58zM446 932q31 0 59 30.5t36 88.5q8 62 -10 89t-50 27q-31 0 -56.5 -27t-33.5 -89q-8 -59 9 -89t46 -30z" />
    <glyph glyph-name="ogonek" unicode="&#x2db;" horiz-adv-x="481" 
d="M127 -39q14 24 37 27h82q9 -2 16 -7.5t6 -11.5q0 -6 -2 -8q-24 -36 -26 -61q-3 -13 7.5 -28t24.5 -15q2 0 56 6q8 0 12.5 -6t3.5 -13l-12 -82q0 -5 -7 -9.5t-14 -4.5q-27 -6 -69 -6q-46 0 -78 15.5t-46 39.5t-18.5 47.5t-1.5 44.5q8 48 29 72z" />
    <glyph glyph-name="tilde" unicode="&#x2dc;" horiz-adv-x="688" 
d="M610 1083q-39 0 -99.5 26t-88.5 26q-39 0 -68 -29q-7 -10 -16 -10q-12 0 -19 10l-36 55q-4 12 -4 17q4 12 12 20q23 29 56 48.5t59 19.5q35 0 94 -26t94 -26q42 0 68 29q7 10 18 10q9 0 16 -10l37 -55q4 -6 4 -17q-4 -12 -12 -20q-23 -29 -56 -48.5t-59 -19.5z" />
    <glyph glyph-name="hungarumlaut" unicode="&#x2dd;" horiz-adv-x="671" 
d="M256 1014l74 225q9 24 28 27h105q25 -4 22 -27l-102 -225q-13 -26 -31 -29h-73q-26 3 -23 29zM502 1014l73 225q9 24 29 27h105q25 -4 22 -27l-102 -225q-13 -26 -31 -29h-74q-25 3 -22 29z" />
    <glyph glyph-name="uni03A9" unicode="&#x3a9;" horiz-adv-x="1134" 
d="M745 1280q155 0 242.5 -92.5t67.5 -231.5l-90 -637q-2 -19 -7.5 -43t-26 -65.5t-52.5 -73.5h137q6 0 12.5 -8.5t5.5 -17.5l-12 -88q-2 -6 -10.5 -14.5t-14.5 -8.5h-299q-6 0 -13.5 8.5t-6.5 14.5l12 90q2 16 19 22q55 20 80 69t34 118l84 604q16 109 -38.5 163t-141.5 54
t-156.5 -54t-85.5 -163l-84 -604q-4 -39 -5 -75t15.5 -67t51.5 -45q13 -4 10 -22l-12 -90q-2 -6 -10.5 -14.5t-14.5 -8.5h-299q-6 0 -13.5 8.5t-6.5 14.5l12 88q1 9 11 17.5t16 8.5h137q-46 66 -37 182l90 637q20 139 132.5 231.5t266.5 92.5z" />
    <glyph glyph-name="pi" unicode="&#x3c0;" horiz-adv-x="1363" 
d="M874 25l111 780h-381l-110 -780q-2 -8 -11 -16.5t-16 -8.5h-92q-9 0 -18 9t-7 16l111 780h-211q-6 0 -13 8.5t-6 17.5l13 89q0 6 9 14t15 8h1090q6 0 13 -8t7 -14l-12 -89q-1 -9 -11 -17.5t-16 -8.5h-211l-110 -780q-2 -8 -11 -16.5t-16 -8.5h-92q-9 0 -18 9t-7 16z" />
    <glyph glyph-name="ZWSP" unicode="&#x200b;" horiz-adv-x="0" 
 />
    <glyph glyph-name="endash" unicode="&#x2013;" horiz-adv-x="741" 
d="M659 406h-466q-6 0 -13 8t-6 14l12 88q1 9 11 18t16 9h467q6 0 12.5 -9t5.5 -18l-12 -88q-2 -6 -11.5 -14t-15.5 -8z" />
    <glyph glyph-name="emdash" unicode="&#x2014;" horiz-adv-x="874" 
d="M793 406h-600q-6 0 -13 8t-6 14l12 88q1 9 11 18t16 9h600q6 0 12.5 -9t5.5 -18l-12 -88q-2 -6 -11 -14t-15 -8z" />
    <glyph glyph-name="quoteleft" unicode="&#x2018;" horiz-adv-x="425" 
d="M483 1237l-71 -225q-9 -24 -31 -27h-105q-23 3 -20 27l100 225q17 27 31 29h74q28 -4 22 -29z" />
    <glyph glyph-name="quoteright" unicode="&#x2019;" horiz-adv-x="425" 
d="M256 1014l74 225q9 24 28 27h105q25 -4 22 -27l-102 -225q-13 -26 -31 -29h-73q-26 3 -23 29z" />
    <glyph glyph-name="quotesinglbase" unicode="&#x201a;" horiz-adv-x="425" 
d="M82 -219l74 225q9 24 30 27h105q23 -3 20 -27l-102 -225q-13 -27 -31 -29h-74q-25 4 -22 29z" />
    <glyph glyph-name="quotedblleft" unicode="&#x201c;" horiz-adv-x="671" 
d="M729 1237l-72 -225q-9 -24 -30 -27h-105q-23 3 -20 27l100 225q17 27 31 29h74q28 -4 22 -29zM483 1237l-71 -225q-9 -24 -31 -27h-105q-23 3 -20 27l100 225q17 27 31 29h74q28 -4 22 -29z" />
    <glyph glyph-name="quotedblright" unicode="&#x201d;" horiz-adv-x="671" 
d="M256 1014l74 225q9 24 28 27h105q25 -4 22 -27l-102 -225q-13 -26 -31 -29h-73q-26 3 -23 29zM502 1014l73 225q9 24 29 27h105q25 -4 22 -27l-102 -225q-13 -26 -31 -29h-74q-25 3 -22 29z" />
    <glyph glyph-name="quotedblbase" unicode="&#x201e;" horiz-adv-x="671" 
d="M82 -219l74 225q9 24 30 27h105q23 -3 20 -27l-102 -225q-13 -27 -31 -29h-74q-25 4 -22 29zM328 -219l73 225q9 24 31 27h105q23 -3 20 -27l-102 -225q-13 -27 -31 -29h-74q-25 4 -22 29z" />
    <glyph glyph-name="dagger" unicode="&#x2020;" horiz-adv-x="737" 
d="M432 987l37 254q0 8 10 16.5t19 8.5h92q7 0 14.5 -8.5t7.5 -16.5l-37 -254h162q6 0 13.5 -8t7.5 -14l-13 -88q-1 -9 -10.5 -18t-15.5 -9h-162l-117 -825q-2 -8 -10.5 -16.5t-15.5 -8.5h-92q-9 0 -17.5 9t-7.5 16l117 825h-158q-6 0 -12.5 9t-5.5 18l12 88q0 6 9 14t15 8
h158z" />
    <glyph glyph-name="daggerdbl" unicode="&#x2021;" horiz-adv-x="737" 
d="M496 410h161q6 0 13 -8.5t6 -14.5l-12 -88q-1 -9 -11 -18t-16 -9h-162l-35 -247q-2 -8 -10.5 -16.5t-15.5 -8.5h-92q-9 0 -17.5 9t-7.5 16l35 247h-158q-6 0 -12.5 9t-5.5 18l12 88q2 6 11.5 14.5t15.5 8.5h157l62 440h-158q-6 0 -12.5 9t-5.5 18l12 88q0 6 9 14t15 8
h158l37 254q0 8 10 16.5t19 8.5h92q7 0 14.5 -8.5t7.5 -16.5l-37 -254h162q6 0 13.5 -8t7.5 -14l-13 -88q-1 -9 -10.5 -18t-15.5 -9h-162z" />
    <glyph glyph-name="bullet" unicode="&#x2022;" horiz-adv-x="397" 
d="M172 412q4 34 32.5 57t65.5 23q32 0 53 -23.5t17 -56.5q-4 -34 -32 -59t-60 -25q-37 0 -59 24.5t-17 59.5z" />
    <glyph glyph-name="ellipsis" unicode="&#x2026;" horiz-adv-x="1327" 
d="M123 66q4 31 29 51t57 20q31 0 49 -20t14 -51q-4 -32 -28.5 -54t-55.5 -22q-32 0 -51 22t-14 54zM596 66q4 30 29.5 50.5t56.5 20.5t50.5 -20.5t15.5 -50.5q-4 -32 -29.5 -54t-56.5 -22t-50.5 22t-15.5 54zM1071 66q4 31 29 51t57 20q31 0 49.5 -20.5t14.5 -50.5
q-4 -32 -28.5 -54t-55.5 -22q-32 0 -51 22t-15 54z" />
    <glyph glyph-name="perthousand" unicode="&#x2030;" horiz-adv-x="1613" 
d="M315 29l603 1208q12 29 34 29h78q11 0 18.5 -9.5t6.5 -19.5l-602 -1208q-12 -29 -33 -29h-78q-12 0 -20.5 9t-6.5 20zM410 872q-83 0 -121 50t-25 147q13 98 65.5 147.5t135.5 49.5q84 0 123 -49.5t26 -147.5q-13 -97 -67 -147t-137 -50zM424 969q27 0 50 24t30 74
q7 54 -8.5 78t-42.5 24t-48 -24t-28 -78q-7 -50 7 -74t40 -24zM911 0q-83 0 -122.5 50t-26.5 147q13 98 66 147t137 49q83 0 121.5 -49t25.5 -147q-13 -97 -65.5 -147t-135.5 -50zM924 96q26 0 47 24.5t28 74.5q13 102 -47 102q-27 0 -50 -24.5t-30 -77.5q-7 -50 9 -74.5
t43 -24.5zM1325 0q-83 0 -122.5 50t-26.5 147q13 98 65.5 147t136.5 49t122.5 -49t25.5 -147q-13 -97 -65.5 -147t-135.5 -50zM1337 96q26 0 47.5 24.5t28.5 74.5q13 102 -47 102q-27 0 -50 -24.5t-30 -77.5q-7 -50 9 -74.5t42 -24.5z" />
    <glyph glyph-name="guilsinglleft" unicode="&#x2039;" horiz-adv-x="700" 
d="M147 244l19 121q3 17 27 30l454 187q8 0 13 -6t4 -13l-11 -78q-2 -13 -22 -20l-391 -160l346 -160q18 -7 16 -20l-10 -78q-4 -18 -23 -18l-403 186q-15 11 -19 29z" />
    <glyph glyph-name="guilsinglright" unicode="&#x203a;" horiz-adv-x="700" 
d="M637 365l-19 -121q-3 -16 -26 -29l-457 -186q-7 0 -11.5 5t-2.5 13l10 78q2 12 21 20l391 160l-346 160q-17 8 -15 20l11 78q4 19 20 19l405 -187q16 -11 19 -30z" />
    <glyph glyph-name="fraction" unicode="&#x2044;" horiz-adv-x="694" 
d="M84 -213l565 1696q8 28 35 28h78q10 0 18 -8.5t6 -19.5l-565 -1696q-12 -29 -35 -29h-77q-12 0 -19.5 9t-5.5 20z" />
    <glyph glyph-name="Euro" unicode="&#x20ac;" horiz-adv-x="1044" 
d="M287 399h-94q-6 0 -13.5 8.5t-7.5 14.5l12 88q1 9 11 18t16 9h94l23 159h-95q-6 0 -12.5 8.5t-5.5 14.5l12 88q1 9 11 18t16 9h94l17 122q20 139 132 231.5t263 92.5q136 0 223.5 -92t81.5 -223q-2 -8 -12 -16.5t-17 -8.5h-92q-22 0 -22 27q5 97 -48.5 139.5t-132.5 42.5
q-86 0 -154.5 -54t-84.5 -163l-13 -98h175q6 0 12.5 -9t5.5 -18l-12 -88q-2 -6 -11.5 -14.5t-15.5 -8.5h-174l-23 -159h175q6 0 12.5 -9t5.5 -18l-12 -88q0 -6 -9.5 -14.5t-15.5 -8.5h-174l-8 -61q-16 -109 38 -163t140 -54q36 0 70 9t66.5 28.5t57 56.5t35.5 88q9 27 31 27
h92q8 0 15 -9t6 -16q-31 -132 -143.5 -223.5t-247.5 -91.5q-152 0 -239 92.5t-67 230.5z" />
    <glyph glyph-name="Numero" unicode="&#x2116;" horiz-adv-x="1697" 
d="M670 14l-289 860l-121 -849q-2 -8 -11 -16.5t-16 -8.5h-92q-9 0 -17.5 8.5t-6.5 16.5l172 1216q0 8 9.5 16.5t18.5 8.5h86q16 0 21 -15l289 -886l123 876q0 7 9 16t17 9h92q9 0 17 -8.5t8 -16.5l-172 -1216q-2 -8 -11 -16.5t-18 -8.5h-86q-13 0 -22 14zM1436 1266
q138 0 218.5 -91t61.5 -223l-47 -336q-19 -132 -125 -222.5t-244 -90.5t-217.5 90.5t-60.5 222.5l47 336q19 133 124.5 223.5t242.5 90.5zM1319 434q79 0 137.5 52t69.5 132l47 332q11 80 -33 132.5t-123 52.5t-136.5 -52.5t-68.5 -132.5l-47 -332q-11 -80 32 -132t122 -52z
M1493 0h-467q-6 0 -13.5 8.5t-6.5 14.5l12 88q1 9 10.5 17.5t15.5 8.5h467q6 0 13 -8.5t6 -17.5l-12 -88q-2 -6 -10.5 -14.5t-14.5 -8.5z" />
    <glyph glyph-name="trademark" unicode="&#x2122;" horiz-adv-x="1038" 
d="M391 1167h-96q-7 0 -11.5 5t-2.5 10l8 69q5 15 18 15h297q5 0 10 -5.5t4 -9.5l-8 -69q-2 -5 -8 -10t-10 -5h-100l-62 -434q-3 -17 -20 -20h-66q-17 3 -14 20zM852 870h-45q-6 0 -10 11l-52 192l-47 -340q-3 -17 -20 -20h-66q-17 4 -14 20l72 514q4 16 20 19h94q7 0 12 -6
t5 -13l51 -217l115 217q9 19 20 19h94q8 -2 13 -7.5t4 -11.5l-72 -514q-3 -17 -22 -20h-66q-15 5 -12 20l47 340l-107 -192q-4 -11 -14 -11z" />
    <glyph glyph-name="Omega" unicode="&#x2126;" horiz-adv-x="1134" 
d="M745 1280q155 0 242.5 -92.5t67.5 -231.5l-90 -637q-2 -19 -7.5 -43t-26 -65.5t-52.5 -73.5h137q6 0 12.5 -8.5t5.5 -17.5l-12 -88q-2 -6 -10.5 -14.5t-14.5 -8.5h-299q-6 0 -13.5 8.5t-6.5 14.5l12 90q2 16 19 22q55 20 80 69t34 118l84 604q16 109 -38.5 163t-141.5 54
t-156.5 -54t-85.5 -163l-84 -604q-4 -39 -5 -75t15.5 -67t51.5 -45q13 -4 10 -22l-12 -90q-2 -6 -10.5 -14.5t-14.5 -8.5h-299q-6 0 -13.5 8.5t-6.5 14.5l12 88q1 9 11 17.5t16 8.5h137q-46 66 -37 182l90 637q20 139 132.5 231.5t266.5 92.5z" />
    <glyph glyph-name="partialdiff" unicode="&#x2202;" horiz-adv-x="890" 
d="M676 309l24 178q12 88 -33 138.5t-132 50.5q-79 0 -137.5 -50t-75.5 -169l-17 -117q-17 -119 27.5 -169t124.5 -50q88 0 147.5 50t71.5 138zM733 727l33 231q12 83 -27.5 137t-117.5 54q-68 0 -116.5 -38.5t-72.5 -106.5q-6 -27 -29 -27h-92q-7 0 -14.5 8t-7.5 16
q26 122 124 200.5t226 78.5q134 0 212.5 -88.5t59.5 -220.5l-133 -946q-2 -8 -10.5 -16.5t-15.5 -8.5h-93q-9 0 -17.5 8.5t-6.5 16.5l6 45q-46 -37 -93 -56t-71 -21.5t-59 -2.5q-306 0 -260 329l22 158q47 330 352 330q35 0 58 -2.5t65 -21.5t78 -56z" />
    <glyph glyph-name="Delta" unicode="&#x2206;" horiz-adv-x="1212" 
d="M1077 0h-942q-9 0 -14 4t-4 12q0 6 561 1223q2 8 11 17.5t20 9.5h147q20 0 27 -27q217 -1217 217 -1223q-3 -16 -23 -16zM324 137h602l-166 957z" />
    <glyph glyph-name="product" unicode="&#x220f;" horiz-adv-x="1363" 
d="M874 25l156 1103h-381l-155 -1103q-2 -8 -11 -16.5t-16 -8.5h-92q-9 0 -18 9t-7 16l156 1103h-211q-6 0 -13 9t-6 18l13 88q0 6 9 14.5t15 8.5h1090q6 0 13 -8.5t7 -14.5l-12 -88q-1 -9 -11 -18t-16 -9h-210l-156 -1103q-2 -8 -11 -16.5t-16 -8.5h-92q-9 0 -18 9t-7 16z
" />
    <glyph glyph-name="summation" unicode="&#x2211;" horiz-adv-x="790" 
d="M133 137l234 496l-95 495l17 113q0 8 9.5 16.5t18.5 8.5h512q6 0 13.5 -8.5t7.5 -14.5l-12 -88q-1 -9 -11 -18t-16 -9h-395l94 -495l-234 -496h396q6 0 12.5 -8.5t5.5 -17.5l-12 -88q-2 -6 -10.5 -14.5t-14.5 -8.5h-512q-9 0 -17.5 8.5t-6.5 16.5z" />
    <glyph glyph-name="minus" unicode="&#x2212;" horiz-adv-x="741" 
d="M659 406h-466q-6 0 -13 8t-6 14l12 88q1 9 11 18t16 9h467q6 0 12.5 -9t5.5 -18l-12 -88q-2 -6 -11.5 -14t-15.5 -8z" />
    <glyph glyph-name="radical" unicode="&#x221a;" horiz-adv-x="1071" 
d="M1114 1266q5 0 11 -8t5 -15l-10 -74q-2 -5 -10 -11.5t-12 -6.5h-193l-456 -1126q-11 -25 -29 -25h-156q-20 0 -24 25l-62 434q2 8 12 16t19 8h92q7 0 14 -8t7 -16l43 -297l436 1079q2 8 10.5 16.5t15.5 8.5h287z" />
    <glyph glyph-name="infinity" unicode="&#x221e;" horiz-adv-x="1654" 
d="M799 444q-40 92 -120.5 141.5t-146.5 49.5q-96 0 -147.5 -47.5t-65.5 -143.5t25 -143t135 -47q67 0 161 49t159 141zM877 354q-53 -64 -106 -109.5t-94.5 -69.5t-86.5 -38t-74.5 -17t-66.5 -3q-77 0 -135.5 27.5t-90.5 73.5t-44.5 104t-2.5 122q20 136 116 232t247 96
q37 0 65.5 -3t70 -17t76 -38t75 -69.5t75.5 -109.5q53 64 106 109.5t94.5 69.5t86.5 38t74.5 17t66.5 3q77 0 135.5 -27.5t90.5 -73.5t44.5 -104.5t2.5 -122.5q-20 -136 -116 -231.5t-247 -95.5q-37 0 -65.5 3t-70 17t-76 38t-75 69.5t-75.5 109.5zM979 444q40 -92 120 -141
t146 -49q96 0 147.5 47t65.5 143t-25 143.5t-135 47.5q-66 0 -159.5 -49.5t-159.5 -141.5z" />
    <glyph glyph-name="integral" unicode="&#x222b;" horiz-adv-x="774" 
d="M795 1128h-15q-46 0 -79.5 -12t-52.5 -29t-32 -47.5t-18 -55t-10 -64.5l-131 -934q-26 -181 -103.5 -250.5t-214.5 -69.5h-49q-6 0 -13 8.5t-7 14.5l12 88q1 9 11 17.5t16 8.5h14q46 0 79.5 12.5t52.5 29.5t32 48.5t18 56t10 64.5l131 932q26 181 103.5 250.5t214.5 69.5
h49q6 0 13.5 -8.5t7.5 -14.5l-13 -88q-1 -9 -10.5 -18t-15.5 -9z" />
    <glyph glyph-name="approxequal" unicode="&#x2248;" horiz-adv-x="688" 
d="M481 174q-39 0 -98.5 25.5t-87.5 25.5q-43 0 -68 -28q-7 -11 -18 -11q-9 0 -16 11l-37 55q-4 6 -4 16q0 8 10 21q25 29 58 48t59 19q35 0 93 -25.5t93 -25.5q41 0 67 29q10 10 19 10q13 0 16 -10l39 -55q4 -13 2 -17q0 -10 -10 -20q-25 -29 -58 -48.5t-59 -19.5zM520 442
q-39 0 -99.5 26t-88.5 26q-39 0 -68 -29q-7 -10 -16 -10q-12 0 -19 10l-36 55q-5 15 -5 17q4 10 13 20q23 29 55.5 48.5t58.5 19.5q35 0 94.5 -26t94.5 -26q41 0 67 29q7 10 19 10q9 0 16 -10l37 -55q4 -6 4 -17q-4 -12 -12 -20q-23 -29 -56 -48.5t-59 -19.5z" />
    <glyph glyph-name="notequal" unicode="&#x2260;" horiz-adv-x="700" 
d="M389 500h-182q-6 0 -13.5 8t-7.5 14l13 88q1 9 10.5 18t15.5 9h209l53 160q8 24 31 24h66q9 0 15.5 -7.5t4.5 -16.5l-53 -160h100q6 0 13 -9t6 -18l-13 -88q0 -6 -9 -14t-15 -8h-127l-53 -164h157q6 0 13 -9t6 -18l-13 -88q-2 -6 -11 -14t-15 -8h-184l-58 -174
q-8 -25 -26 -25h-68q-10 0 -17.5 8t-5.5 17l58 174h-125q-6 0 -13 8t-6 14l13 88q1 9 10.5 18t15.5 9h152z" />
    <glyph glyph-name="lessequal" unicode="&#x2264;" horiz-adv-x="700" 
d="M170 403l16 121q6 18 29 31l455 186q8 0 12.5 -5.5t3.5 -12.5l-10 -78q-2 -13 -23 -20l-391 -160l346 -160q19 -8 17 -20l-11 -78q-4 -19 -22 -19l-404 187q-18 13 -18 28zM137 0h426q6 0 14.5 8.5t10.5 14.5l10 71q1 9 -5.5 18t-12.5 9h-426q-6 0 -16 -9t-11 -18
l-10 -71q-1 -6 6.5 -14.5t13.5 -8.5z" />
    <glyph glyph-name="greaterequal" unicode="&#x2265;" horiz-adv-x="700" 
d="M657 524l-16 -121q-7 -17 -27 -28l-456 -187q-7 0 -12 5.5t-3 13.5l11 78q2 13 20 20l391 160l-346 160q-16 8 -14 20l10 78q4 18 21 18l405 -186q16 -11 16 -31zM137 0h426q6 0 14.5 8.5t10.5 14.5l10 71q1 9 -5.5 18t-12.5 9h-426q-6 0 -16 -9t-11 -18l-10 -71
q-1 -6 6.5 -14.5t13.5 -8.5z" />
    <glyph glyph-name="lozenge" unicode="&#x25ca;" horiz-adv-x="856" 
d="M690 1243l139 -610l-311 -610q-10 -23 -29 -23h-122q-20 0 -25 23l-139 610l311 610q10 23 29 23h123q19 0 24 -23zM446 145l244 488l-106 487l-242 -487z" />
    <glyph glyph-name="uni25CC" unicode="&#x25cc;" horiz-adv-x="378" 
 />
    <glyph glyph-name="fi" unicode="&#xfb01;" horiz-adv-x="968" 
d="M655 1280h39q6 0 13.5 -9t7.5 -18l-15 -88q0 -6 -9 -14t-15 -8h-23q-79 0 -116 -35.5t-45 -99.5l-11 -66h181q6 0 12.5 -9t5.5 -18l-12 -88q0 -6 -9.5 -14t-15.5 -8h-180l-111 -780q-2 -8 -10.5 -16.5t-15.5 -8.5h-93q-9 0 -17.5 8.5t-6.5 16.5l110 780h-141q-6 0 -13 8
t-7 14l12 88q1 9 11 18t16 9h141l8 62q12 84 38.5 139.5t68.5 84.5t89.5 40.5t112.5 11.5zM713 25l125 893q2 8 11.5 16t18.5 8h93q8 0 14.5 -8.5t5.5 -15.5l-125 -893q-2 -8 -11 -16.5t-16 -8.5h-92q-9 0 -17.5 8.5t-6.5 16.5zM860 1069l23 168q2 8 11.5 16.5t18.5 8.5h93
q8 0 15 -9t5 -16l-22 -168q-2 -8 -12 -16.5t-17 -8.5h-92q-9 0 -17 8.5t-6 16.5z" />
    <glyph glyph-name="fl" unicode="&#xfb02;" horiz-adv-x="968" 
d="M655 1280h39q6 0 13.5 -9t7.5 -18l-15 -88q0 -6 -9 -14t-15 -8h-23q-79 0 -116 -35.5t-45 -99.5l-11 -66h181q6 0 12.5 -9t5.5 -18l-12 -88q0 -6 -9.5 -14t-15.5 -8h-180l-111 -780q-2 -8 -10.5 -16.5t-15.5 -8.5h-93q-9 0 -17.5 8.5t-6.5 16.5l110 780h-141q-6 0 -13 8
t-7 14l12 88q1 9 11 18t16 9h141l8 62q12 84 38.5 139.5t68.5 84.5t89.5 40.5t112.5 11.5zM713 25l172 1216q0 8 9.5 16.5t18.5 8.5h93q7 0 14.5 -8.5t7.5 -16.5l-172 -1216q-2 -8 -11 -16.5t-16 -8.5h-92q-9 0 -17.5 8.5t-6.5 16.5z" />
    <glyph glyph-name="Superstore" horiz-adv-x="1263" 
d="M629 1034q107 0 203 -41t165.5 -110.5t110.5 -165.5t41 -203q0 -139 -69 -257.5t-189 -187.5t-262 -69q-139 0 -257.5 69t-187.5 187.5t-69 257.5q0 142 69 262t187.5 189t257.5 69zM848 184q65 0 65 56q0 33 -11.5 47t-37.5 14v272q0 88 -65 146q12 4 39 4t39 -4h22v133
q-148 -18 -235 -66q-31 5 -76 5q-101 0 -180 -29v-129h12q105 33 155 33q28 0 46 -1.5t46.5 -9t44 -27t15.5 -50.5l-168 -17q-43 -4 -75 -12t-65 -27.5t-51 -57t-18 -91.5q0 -85 58.5 -137t150.5 -52q61 0 88 6v111l-12 8q-18 -8 -47 -8q-37 0 -64.5 21t-27.5 63
q0 33 37 45.5t194 38.5v-145q0 -77 21.5 -108.5t80.5 -31.5h19z" />
    </font>
</defs>
</svg>
