<?xml version="1.0" standalone="no"?>
<!DOCTYPE svg PUBLIC "-//W3C//DTD SVG 1.1//EN" "http://www.w3.org/Graphics/SVG/1.1/DTD/svg11.dtd" >
<svg xmlns="http://www.w3.org/2000/svg" xmlns:xlink="http://www.w3.org/1999/xlink" version="1.1">
<metadata>
Created by FontForge 20170731 at Fri Sep 18 15:16:08 2020
 By Aleksey,,,
Copyright (c) 2017 by Typesketchbook. All rights reserved.
</metadata>
<defs>
<font id="Calps-Medium" horiz-adv-x="876" >
  <font-face 
    font-family="Calps Medium"
    font-weight="500"
    font-stretch="normal"
    units-per-em="2048"
    panose-1="2 0 0 0 0 0 0 0 0 0"
    ascent="1638"
    descent="-410"
    x-height="942"
    cap-height="1266"
    bbox="-70 -393 1651 1812"
    underline-thickness="71"
    underline-position="-294"
    unicode-range="U+0020-FB02"
  />
<missing-glyph horiz-adv-x="1161" 
d="M1094 0h-1047v1282h1047v-1282zM139 88h39v43h-39l-4 -41q4 0 4 -2zM999 1192v-4h5q0 4 -5 4zM999 1188h-36v-37h36v37zM1004 92l-5 39h-36v-39h41zM141 1192v-41h37v41l-39 2q0 -2 2 -2zM178 1151v-1020h785v1020h-785z" />
    <glyph glyph-name=".notdef" horiz-adv-x="1161" 
d="M1094 0h-1047v1282h1047v-1282zM139 88h39v43h-39l-4 -41q4 0 4 -2zM999 1192v-4h5q0 4 -5 4zM999 1188h-36v-37h36v37zM1004 92l-5 39h-36v-39h41zM141 1192v-41h37v41l-39 2q0 -2 2 -2zM178 1151v-1020h785v1020h-785z" />
    <glyph glyph-name=".null" horiz-adv-x="0" 
 />
    <glyph glyph-name="nonmarkingreturn" horiz-adv-x="378" 
 />
    <glyph glyph-name="space" unicode=" " horiz-adv-x="378" 
 />
    <glyph glyph-name="exclam" unicode="!" horiz-adv-x="409" 
d="M311 1231v-850q0 -13 -10.5 -24t-24.5 -11h-143q-13 0 -24 11t-11 24v850q0 13 11 24t24 11h143q14 0 24.5 -11t10.5 -24zM311 209v-174q0 -13 -10.5 -24t-24.5 -11h-143q-13 0 -24 11t-11 24v174q0 13 11 24t24 11h143q14 0 24.5 -11t10.5 -24z" />
    <glyph glyph-name="quotedbl" unicode="&#x22;" horiz-adv-x="698" 
d="M119 934l-21 299q0 13 9.5 22t23.5 11h139q13 -2 22 -11t9 -22l-25 -299q0 -14 -8.5 -23.5t-21.5 -11.5h-94q-13 2 -23 11.5t-10 23.5zM418 934l-21 299q0 13 9.5 22t23.5 11h139q13 -2 22 -11t9 -22l-25 -299q0 -14 -8.5 -23.5t-21.5 -11.5h-94q-13 2 -23 11.5t-10 23.5
z" />
    <glyph glyph-name="numbersign" unicode="#" horiz-adv-x="1386" 
d="M879 938l65 293q8 35 37 35h121q14 0 24.5 -11t10.5 -24l-66 -293h191q10 0 18 -8t8 -19v-118q0 -11 -8 -19t-18 -8h-230l-61 -274h205q10 0 18 -8t8 -19v-119q0 -11 -8 -19t-18 -8h-242l-64 -284q-8 -35 -36 -35h-121q-13 0 -24 11t-11 24l63 284h-243l-64 -284
q-8 -35 -37 -35h-121q-13 0 -23.5 10.5t-10.5 24.5l63 284h-180q-11 0 -19 8.5t-8 18.5v119q0 11 8 19t19 8h217l61 274h-192q-11 0 -19 8t-8 19v118q0 11 8 19t19 8h231l66 293q8 35 37 35h121q13 0 23.5 -10.5t10.5 -24.5l-65 -293h244zM596 766l-61 -274h243l62 274h-244
z" />
    <glyph glyph-name="dollar" unicode="$" horiz-adv-x="937" 
d="M342 1270l57 282q7 30 35 33h148q12 -2 21 -11t9 -22l-90 -278q64 -9 114 -37.5t78.5 -62.5t48 -79t26.5 -80.5t10 -72.5q0 -14 -10.5 -24.5t-24.5 -10.5h-143q-13 0 -24 10.5t-11 24.5q-3 26 -7 46t-14 44t-24.5 39.5t-39 26t-55.5 10.5q-73 0 -104 -43.5t-31 -110.5
q0 -39 14 -72.5t31.5 -55t55 -47t61 -37.5t74.5 -37q38 -18 59.5 -29.5t57 -33t56.5 -40.5t46.5 -48t39.5 -59.5t24 -72t10 -88.5q0 -156 -75.5 -238.5t-201.5 -101.5l-37 -236q-6 -29 -34 -32h-148q-13 2 -22 10.5t-9 21.5l74 238q-56 11 -103.5 34t-89 61.5t-67 97.5
t-29.5 133q0 13 10.5 23.5t24.5 10.5h143q14 0 24.5 -10.5t10.5 -23.5q9 -162 168 -162q41 0 71.5 14.5t44.5 32.5t22 43t9 37t1 24q0 82 -50 133.5t-153 102.5q-46 23 -75.5 39t-72.5 44t-70.5 57t-54.5 66.5t-40 85t-13 101.5q0 281 244 330z" />
    <glyph glyph-name="percent" unicode="%" horiz-adv-x="1159" 
d="M905 1225l-426 -1182q-14 -40 -47 -43h-143q-12 2 -21.5 13t-9.5 24q0 4 424 1188q13 38 45 41h143q14 -2 25.5 -10.5t11.5 -20.5q0 -6 -2 -10zM285 846q-88 0 -137.5 53.5t-49.5 155.5q0 104 49.5 157.5t137.5 53.5t138 -53.5t50 -157.5q0 -102 -50 -155.5t-138 -53.5z
M285 971q21 0 36 22t15 62q0 42 -15 63t-36 21t-35 -20.5t-14 -63.5q0 -40 14.5 -62t34.5 -22zM872 0q-88 0 -137 53.5t-49 155.5q0 104 49 157.5t137 53.5t138.5 -54t50.5 -157q0 -102 -50.5 -155.5t-138.5 -53.5zM872 125q21 0 36.5 22t15.5 62q0 42 -15.5 63t-36.5 21
t-35 -20.5t-14 -63.5q0 -40 14.5 -62t34.5 -22z" />
    <glyph glyph-name="ampersand" unicode="&#x26;" horiz-adv-x="1157" 
d="M461 152q91 0 168 96l-195 235q-5 -3 -13.5 -9.5t-29.5 -26t-37 -40t-29.5 -51t-13.5 -59.5q0 -63 35 -104t115 -41zM471 758q131 108 131 215q0 60 -26 97.5t-80 37.5q-18 0 -31.5 -3.5t-32 -16t-29 -45t-10.5 -82.5q0 -115 78 -203zM1059 39q0 -15 -12 -26t-29 -13
h-164q-21 3 -31 16l-71 84q-45 -52 -127 -89.5t-156 -37.5q-30 0 -57.5 2t-66.5 9t-71.5 19.5t-66 35.5t-56.5 54.5t-38 79t-15 106.5q0 51 11.5 97.5t30 80.5t41 63.5t45.5 49t41.5 33.5t30.5 20l11 6q-44 45 -72.5 91t-39.5 91t-14 74.5t-3 70.5q0 74 20 132t51.5 93
t73.5 58t83 32t84 9q141 0 232 -74.5t91 -222.5q0 -59 -23 -120t-56.5 -105.5t-66.5 -80.5t-56 -55l-23 -18l158 -184l88 166q20 39 47 39h129q17 0 29 -12t12 -27l-174 -330q25 -31 88.5 -106.5t91.5 -110.5z" />
    <glyph glyph-name="quotesingle" unicode="'" horiz-adv-x="399" 
d="M119 934l-21 299q0 13 9.5 22t23.5 11h139q13 -2 22 -11t9 -22l-25 -299q0 -14 -8.5 -23.5t-21.5 -11.5h-94q-13 2 -23 11.5t-10 23.5z" />
    <glyph glyph-name="parenleft" unicode="(" horiz-adv-x="477" 
d="M379 -207q0 -13 -10.5 -24t-24.5 -11h-141q-29 0 -37 35q-68 460 -68 866q0 358 68 818q8 34 37 34h141q14 0 24.5 -10.5t10.5 -23.5q-68 -486 -68 -818q0 -373 68 -866z" />
    <glyph glyph-name="parenright" unicode=")" horiz-adv-x="477" 
d="M98 -207q68 493 68 866q0 332 -68 818q0 13 10.5 23.5t24.5 10.5h141q29 0 37 -34q68 -460 68 -818q0 -406 -68 -866q-8 -35 -37 -35h-141q-13 0 -24 11t-11 24z" />
    <glyph glyph-name="asterisk" unicode="*" horiz-adv-x="880" 
d="M526 627l-86 170l-84 -170q-3 -5 -11.5 -10t-12.5 -5q-7 0 -19 6l-127 66q-13 8 -18 27q0 6 4 14l111 156l-172 90q-13 13 -13 24q0 3 6 15l80 127q12 12 27 12q7 0 16 -6l123 -96l-14 186q0 12 10 21.5t23 11.5h145q11 -2 20 -11.5t9 -21.5l-15 -186l129 96q6 6 13 6
q14 0 26 -12l78 -127q8 -8 8 -15q0 -14 -16 -24l-168 -90l113 -156q2 -4 2 -14q0 -17 -17 -27l-127 -66q-9 -6 -18 -6q-7 0 -15 5t-10 10z" />
    <glyph glyph-name="plus" unicode="+" horiz-adv-x="743" 
d="M618 543q10 0 18.5 -8.5t8.5 -18.5v-119q0 -10 -8 -18t-19 -8h-161v-209q0 -10 -8.5 -18.5t-18.5 -8.5h-119q-10 0 -18 8t-8 19v209h-160q-11 0 -19 8t-8 18v119q0 10 8 18.5t19 8.5h160v202q0 11 8 19t18 8h119q10 0 18.5 -8t8.5 -19v-202h161z" />
    <glyph glyph-name="comma" unicode="," horiz-adv-x="464" 
d="M98 -158l56 297q7 30 34 33h148q13 -2 22 -11t9 -22l-95 -297q-11 -32 -32 -35h-109q-14 2 -23.5 12t-9.5 23z" />
    <glyph glyph-name="hyphen" unicode="-" horiz-adv-x="755" 
d="M125 584h506q10 0 18 -8t8 -19v-119q0 -10 -7.5 -18t-18.5 -8h-506q-11 0 -19 8t-8 18v119q0 11 8 19t19 8z" />
    <glyph glyph-name="period" unicode="." horiz-adv-x="417" 
d="M98 100q0 43 33 75t78 32t77.5 -32t32.5 -75q0 -46 -32 -79t-78 -33t-78.5 33t-32.5 79z" />
    <glyph glyph-name="slash" unicode="/" horiz-adv-x="712" 
d="M98 -207l332 1684q8 34 37 34h113q14 0 24 -10.5t10 -23.5l-331 -1684q-8 -35 -37 -35h-113q-13 0 -24 11t-11 24z" />
    <glyph glyph-name="zero" unicode="0" horiz-adv-x="913" 
d="M457 160q64 0 109.5 40.5t45.5 123.5v620q0 83 -45.5 123.5t-109.5 40.5t-110 -40.5t-46 -123.5v-620q0 -83 46 -123.5t110 -40.5zM457 -12q-161 0 -265 98t-104 246v604q0 148 104 246t265 98t264.5 -98t103.5 -246v-604q0 -148 -103.5 -246t-264.5 -98z" />
    <glyph glyph-name="one" unicode="1" horiz-adv-x="608" 
d="M45 1143l205 114q18 9 29 9h200q12 0 21.5 -9.5t9.5 -21.5v-1200q0 -13 -11 -24t-24 -11h-143q-14 0 -24.5 11t-10.5 24v1067l-240 -131q-12 0 -21 9t-9 21v115q0 16 18 27z" />
    <glyph glyph-name="two" unicode="2" horiz-adv-x="790" 
d="M670 0h-576q-12 0 -21.5 9.5t-9.5 21.5v149q0 72 22 138t65 125.5t80.5 100t93.5 93.5q96 89 146 158.5t50 150.5v29q-2 56 -37 94.5t-90 38.5q-61 0 -91.5 -30.5t-31.5 -114.5q0 -14 -10.5 -24.5t-23.5 -10.5h-144q-14 0 -24.5 11t-10.5 24q6 163 97.5 240t238.5 77
q142 0 241 -86t99 -219v-74q0 -50 -18 -99t-56 -98.5t-67 -81t-80 -81.5q-42 -41 -62 -60.5t-56.5 -62.5t-54.5 -75.5t-33 -79t-15 -93.5h379q12 0 21 -9.5t9 -21.5v-108q0 -12 -9 -21.5t-21 -9.5z" />
    <glyph glyph-name="three" unicode="3" horiz-adv-x="821" 
d="M270 293q4 -74 35 -103.5t88 -29.5q56 0 91.5 37.5t35.5 95.5v127q0 56 -35.5 92.5t-91.5 36.5h-61q-8 0 -13.5 5.5t-5.5 14.5v129q0 8 6 14.5t13 6.5h61q56 0 91.5 36.5t35.5 92.5v127q0 58 -35.5 95.5t-91.5 37.5q-57 0 -88 -29t-35 -104q0 -14 -10.5 -24.5
t-23.5 -10.5h-144q-14 0 -24.5 11t-10.5 24q10 156 102 230.5t234 74.5t241 -86t99 -219v-123q0 -60 -32.5 -124.5t-90.5 -100.5q60 -41 91.5 -106t31.5 -126v-104q0 -133 -99 -218t-241 -85q-92 0 -163 30t-118.5 100t-54.5 175q0 13 10.5 24t24.5 11h144q13 0 23.5 -10.5
t10.5 -24.5z" />
    <glyph glyph-name="four" unicode="4" horiz-adv-x="854" 
d="M481 465v457v131l-262 -588h262zM37 324v176q0 11 6 26l322 713q16 27 45 27h249q13 0 24 -11t11 -24v-766h103q12 0 21 -9.5t9 -21.5v-110q0 -12 -9 -21.5t-21 -9.5h-103v-258q0 -13 -11 -24t-24 -11h-143q-14 0 -24.5 11t-10.5 24v258h-413q-12 0 -21.5 9.5t-9.5 21.5z
" />
    <glyph glyph-name="five" unicode="5" horiz-adv-x="841" 
d="M672 1094h-371v-361q45 39 87 53.5t97 14.5q138 0 208.5 -89.5t70.5 -232.5v-186q0 -133 -99 -219t-241 -86q-135 0 -232 79.5t-104 204.5q0 6 6 12.5t15 6.5h170q7 0 14.5 -7.5t7.5 -15.5q5 -50 38 -82t85 -32q58 0 92.5 37.5t34.5 95.5v211q0 57 -35 94t-92 37
q-60 0 -105 -60q-10 -16 -28 -16h-168q-13 0 -24 10.5t-11 24.5v643q0 13 11 24t24 11h549q10 0 18 -8t8 -19v-119q0 -10 -8 -18t-18 -8z" />
    <glyph glyph-name="six" unicode="6" horiz-adv-x="841" 
d="M428 -12q-142 0 -241 86t-99 219v665q0 138 96 230t244 92q138 0 229.5 -73.5t104.5 -207.5q0 -14 -10 -24t-23 -10h-143q-14 0 -24.5 10.5t-10.5 23.5q-16 109 -123 109q-127 0 -127 -170v-207q47 40 88.5 54t99.5 14q136 0 205.5 -88.5t69.5 -231.5v-186
q0 -133 -97.5 -219t-238.5 -86zM301 498v-205q0 -58 34.5 -95.5t92.5 -37.5q56 0 89.5 37.5t33.5 95.5v205q0 57 -33.5 94t-89.5 37q-57 0 -92 -37t-35 -94z" />
    <glyph glyph-name="seven" unicode="7" horiz-adv-x="681" 
d="M645 1087l-309 -1052q-12 -35 -37 -35h-141q-14 0 -24.5 11t-10.5 24l311 1061h-366q-12 0 -21.5 9t-9.5 21v109q0 12 9.5 21.5t21.5 9.5h546q12 0 21.5 -9.5t9.5 -21.5v-148z" />
    <glyph glyph-name="eight" unicode="8" horiz-adv-x="827" 
d="M414 1280q146 0 241 -91t95 -228v-89q0 -61 -35.5 -131t-96.5 -110q63 -40 97.5 -113.5t34.5 -138.5v-88q0 -133 -97.5 -218t-238.5 -85t-238.5 85t-97.5 218v88q0 66 34 139t97 113q-61 40 -96 109.5t-35 131.5v89q0 137 95 228t241 91zM414 160q56 0 89.5 37.5
t33.5 95.5v125q0 57 -33.5 93t-89.5 36t-89.5 -36t-33.5 -93v-125q0 -58 33.5 -95.5t89.5 -37.5zM414 717q56 0 89.5 36t33.5 93v129q0 58 -33.5 95.5t-89.5 37.5t-89.5 -37.5t-33.5 -95.5v-129q0 -57 33.5 -93t89.5 -36z" />
    <glyph glyph-name="nine" unicode="9" horiz-adv-x="841" 
d="M414 1280q142 0 241 -86t99 -219v-666q0 -138 -96 -229.5t-244 -91.5q-139 0 -230 73.5t-104 206.5q0 14 10 24.5t23 10.5h143q14 0 24.5 -10.5t10.5 -24.5q9 -59 39.5 -83.5t83.5 -24.5q127 0 127 170v207q-47 -40 -89 -54t-100 -14q-136 0 -205 88t-69 231v187
q0 133 97.5 219t238.5 86zM541 770v205q0 58 -34.5 95.5t-92.5 37.5q-56 0 -89.5 -37.5t-33.5 -95.5v-205q0 -57 33.5 -94t89.5 -37q57 0 92 37t35 94z" />
    <glyph glyph-name="colon" unicode=":" horiz-adv-x="417" 
d="M98 100q0 43 33 75t78 32t77.5 -32t32.5 -75q0 -46 -32 -79t-78 -33t-78.5 33t-32.5 79zM98 631q0 43 32.5 74.5t78.5 31.5q45 0 77.5 -31.5t32.5 -74.5q0 -46 -32.5 -79.5t-77.5 -33.5q-46 0 -78.5 33.5t-32.5 79.5z" />
    <glyph glyph-name="semicolon" unicode=";" horiz-adv-x="421" 
d="M324 94v-14q0 -58 -19.5 -133t-60.5 -82h-88q-15 4 -15 22l9 19q16 41 20 84q-31 11 -51.5 40t-20.5 64q0 46 34 78.5t81 32.5q45 0 78 -33t33 -78zM100 631q0 43 32.5 74.5t78.5 31.5t78.5 -31.5t32.5 -74.5q0 -46 -32.5 -79.5t-78.5 -33.5t-78.5 33.5t-32.5 79.5z" />
    <glyph glyph-name="less" unicode="&#x3c;" horiz-adv-x="694" 
d="M98 248v203q3 34 41 51l422 184q12 0 22.5 -11.5t12.5 -25.5v-149q-2 -21 -35 -37l-266 -115l266 -112q33 -16 35 -37v-150q-2 -14 -12.5 -25.5t-22.5 -11.5l-422 185q-38 17 -41 51z" />
    <glyph glyph-name="equal" unicode="=" horiz-adv-x="720" 
d="M125 686h471q10 0 18.5 -8t8.5 -19v-118q0 -11 -8.5 -19t-18.5 -8h-471q-11 0 -19 8t-8 19v118q0 11 8 19t19 8zM125 365h471q10 0 18.5 -8.5t8.5 -18.5v-119q0 -10 -8 -18t-19 -8h-471q-11 0 -19 8t-8 18v119q0 10 8 18.5t19 8.5z" />
    <glyph glyph-name="greater" unicode="&#x3e;" horiz-adv-x="694" 
d="M596 451v-203q-3 -34 -41 -51l-422 -185q-12 0 -22.5 11.5t-12.5 25.5v150q2 21 35 37l266 112l-266 115q-33 16 -35 37v149q2 14 12.5 25.5t22.5 11.5l422 -184q38 -17 41 -51z" />
    <glyph glyph-name="question" unicode="?" horiz-adv-x="872" 
d="M311 963q0 -13 -10.5 -24t-24.5 -11h-143q-13 0 -24 11t-11 24q6 162 99.5 239.5t240.5 77.5q141 0 238.5 -86t97.5 -219v-55q0 -138 -135 -277q-45 -47 -67 -72.5t-42 -67.5t-20 -85v-33q0 -13 -11 -24t-24 -11h-143q-14 0 -24.5 11t-10.5 24v82q0 44 20.5 87t41 67.5
t61.5 66.5q36 36 55 57t42 55t33.5 69.5t10.5 76.5v29q-2 56 -35 94.5t-88 38.5q-61 0 -92.5 -30.5t-34.5 -114.5zM510 209v-174q0 -13 -11 -24t-24 -11h-143q-14 0 -24.5 11t-10.5 24v174q0 13 10.5 24t24.5 11h143q13 0 24 -11t11 -24z" />
    <glyph glyph-name="at" unicode="@" horiz-adv-x="1175" 
d="M866 428v139q0 47 -23.5 77t-68.5 30q-41 0 -64.5 -30.5t-23.5 -76.5v-139q0 -46 23.5 -76t64.5 -30q45 0 68.5 29.5t23.5 76.5zM868 168v29q-88 -78 -170 -78q-101 0 -162 72t-61 180v256q0 111 55 181.5t170 70.5q92 0 166 -64v29q0 29 -6.5 59.5t-24.5 65.5t-46 62
t-76.5 45t-110.5 18h-29q-61 0 -109.5 -18t-76.5 -45t-46.5 -62t-25 -65.5t-6.5 -59.5v-631q0 -28 6.5 -57.5t25 -63t46.5 -59.5t76.5 -43t109.5 -17h172q25 0 29 -26v-119q-2 -10 -10 -18.5t-19 -8.5h-178q-111 0 -202 32t-148 84.5t-88 118t-31 134.5v727q0 55 18 110
t54 104t84.5 86.5t114.5 60t139 22.5h160q91 0 169.5 -34t130 -89t80.5 -123t29 -137v-729q0 -14 -11 -24.5t-24 -12.5h-139q-14 2 -24.5 12.5t-10.5 24.5z" />
    <glyph glyph-name="A" unicode="A" horiz-adv-x="892" 
d="M340 1266h213q13 0 22.5 -10.5t12.5 -24.5l268 -1196q0 -13 -11 -24t-24 -11h-141q-29 0 -37 35l-35 158h-325l-33 -158q-8 -35 -37 -35h-141q-14 0 -24.5 11t-10.5 24l268 1196q3 14 12.5 24.5t22.5 10.5zM446 954l-127 -589h252z" />
    <glyph glyph-name="B" unicode="B" horiz-adv-x="894" 
d="M311 1094v-371h119q61 0 108.5 46.5t47.5 133.5v15q0 87 -47 131.5t-109 44.5h-119zM461 172q58 0 105.5 53.5t47.5 139.5q0 85 -47 136.5t-106 51.5h-150v-381h150zM463 0h-330q-13 0 -24 11t-11 24v1196q0 13 11 24t24 11h299q71 0 136 -22.5t117 -63.5t83 -106
t31 -144v-35q0 -68 -39 -133t-109 -107q66 -24 121 -100.5t55 -183.5v-15q0 -106 -52.5 -189t-135 -125t-176.5 -42z" />
    <glyph glyph-name="C" unicode="C" horiz-adv-x="860" 
d="M823 319q-9 -142 -112.5 -236.5t-255.5 -94.5q-159 0 -263 97t-104 245v606q0 148 104 246t263 98q151 0 255.5 -95t112.5 -237q0 -14 -10.5 -24.5t-24.5 -10.5h-143q-13 0 -24 10.5t-11 24.5q-1 81 -46.5 120.5t-108.5 39.5t-108.5 -40.5t-45.5 -123.5v-620
q0 -83 45.5 -123.5t108.5 -40.5q62 0 107 40t48 119q0 13 11 24t24 11h143q14 0 24.5 -11t10.5 -24z" />
    <glyph glyph-name="D" unicode="D" horiz-adv-x="909" 
d="M618 334v598q0 83 -45 122.5t-108 39.5h-154v-922h154q63 0 108 39.5t45 122.5zM133 1266h332q157 0 261.5 -98.5t104.5 -247.5v-576q0 -149 -104.5 -246.5t-261.5 -97.5h-332q-13 0 -24 11t-11 24v1196q0 13 11 24t24 11z" />
    <glyph glyph-name="E" unicode="E" horiz-adv-x="759" 
d="M311 1096v-416h244q11 0 19 -8t8 -19v-116q0 -11 -8 -19t-19 -8h-244v-338h344q11 0 19 -8t8 -19v-118q0 -11 -8 -19t-19 -8h-522q-13 0 -24 11t-11 24v1196q0 13 11 24t24 11h522q11 0 19 -8t8 -19v-117q0 -10 -8 -18t-19 -8h-344z" />
    <glyph glyph-name="F" unicode="F" horiz-adv-x="688" 
d="M311 510v-475q0 -13 -10.5 -24t-24.5 -11h-143q-13 0 -24 11t-11 24v1196q0 13 11 24t24 11h522q11 0 19 -8t8 -19v-117q0 -10 -8 -18t-19 -8h-344v-416h244q11 0 19 -8t8 -19v-116q0 -11 -8 -19t-19 -8h-244z" />
    <glyph glyph-name="G" unicode="G" horiz-adv-x="921" 
d="M610 514h-86q-12 0 -21 9.5t-9 21.5v110q0 12 9 21.5t21 9.5h264q14 0 24.5 -11t10.5 -24v-622q0 -11 -9 -20t-19 -9h-117q-12 0 -20.5 9t-8.5 20v34q-84 -75 -192 -75q-162 0 -265.5 97t-103.5 245v606q0 148 104 246t263 98q151 0 255.5 -95t112.5 -237
q0 -14 -10.5 -24.5t-24.5 -10.5h-143q-13 0 -24 10.5t-11 24.5q-1 81 -46.5 120.5t-108.5 39.5t-108.5 -40.5t-45.5 -123.5v-620q0 -82 46 -123t110 -41q62 0 107.5 41t45.5 123v190z" />
    <glyph glyph-name="H" unicode="H" horiz-adv-x="915" 
d="M782 1266q14 0 24.5 -11t10.5 -24v-1196q0 -13 -10.5 -24t-24.5 -11h-143q-13 0 -24 11t-11 24v471h-293v-471q0 -13 -10.5 -24t-24.5 -11h-143q-13 0 -24 11t-11 24v1196q0 13 11 24t24 11h143q14 0 24.5 -11t10.5 -24v-553h293v553q0 13 11 24t24 11h143z" />
    <glyph glyph-name="I" unicode="I" horiz-adv-x="409" 
d="M311 1231v-1196q0 -13 -10.5 -24t-24.5 -11h-143q-13 0 -24 11t-11 24v1196q0 13 11 24t24 11h143q14 0 24.5 -11t10.5 -24z" />
    <glyph glyph-name="J" unicode="J" horiz-adv-x="804" 
d="M27 293v26q0 14 10.5 24.5t23.5 10.5h144q13 0 24 -11t11 -24v-26q0 -58 34.5 -95.5t90.5 -37.5q57 0 93 39t36 100v932q0 14 10.5 24.5t23.5 10.5h144q14 0 24.5 -11t10.5 -24v-938q0 -134 -99.5 -219.5t-242.5 -85.5q-142 0 -240 85.5t-98 219.5z" />
    <glyph glyph-name="K" unicode="K" horiz-adv-x="888" 
d="M621 35l-175 469l-135 -301v-168q0 -13 -10.5 -24t-24.5 -11h-143q-13 0 -24 11t-11 24v1196q0 13 11 24t24 11h143q14 0 24.5 -11t10.5 -24v-590l281 590q18 35 45 35h156q13 0 23.5 -10.5t10.5 -24.5l-239 -500l264 -696q-18 -35 -45 -35h-150q-23 0 -36 35z" />
    <glyph glyph-name="L" unicode="L" horiz-adv-x="729" 
d="M655 0h-522q-13 0 -24 11t-11 24v1196q0 13 11 24t24 11h143q14 0 24.5 -11t10.5 -24v-1059h344q11 0 19 -8t8 -19v-118q0 -11 -8 -19t-19 -8z" />
    <glyph glyph-name="M" unicode="M" horiz-adv-x="1122" 
d="M594 291h-66q-11 0 -20 18l-197 412v-686q0 -13 -10.5 -24t-24.5 -11h-143q-13 0 -24 11t-11 24v1196q0 13 11 24t24 11h135q26 0 43 -35l248 -535l252 535q17 35 43 35h135q13 0 24 -11t11 -24v-1196q0 -13 -11 -24t-24 -11h-143q-14 0 -24.5 11t-10.5 24v686l-197 -412
q-9 -18 -20 -18z" />
    <glyph glyph-name="N" unicode="N" horiz-adv-x="919" 
d="M608 553v678q0 13 11 24t24 11h143q14 0 24.5 -11t10.5 -24v-1196q0 -13 -10.5 -24t-24.5 -11h-127q-11 0 -21 8t-13 17l-314 669v-659q0 -13 -10.5 -24t-24.5 -11h-143q-13 0 -24 11t-11 24v1196q0 13 11 24t24 11h127q11 0 21.5 -8t13.5 -17z" />
    <glyph glyph-name="O" unicode="O" horiz-adv-x="913" 
d="M457 160q64 0 109.5 40.5t45.5 123.5v620q0 83 -45.5 123.5t-109.5 40.5t-110 -40.5t-46 -123.5v-620q0 -83 46 -123.5t110 -40.5zM457 -12q-161 0 -265 98t-104 246v604q0 148 104 246t265 98t264.5 -98t103.5 -246v-604q0 -148 -103.5 -246t-264.5 -98z" />
    <glyph glyph-name="P" unicode="P" horiz-adv-x="884" 
d="M604 674v237q0 87 -47 136t-108 49h-138v-609h138q61 0 108 50t47 137zM133 1266h324q70 0 134 -24t114.5 -67.5t81 -111t30.5 -148.5v-249q0 -157 -107 -252t-253 -95h-146v-284q0 -13 -10.5 -24t-24.5 -11h-143q-13 0 -24 11t-11 24v1196q0 13 11 24t24 11z" />
    <glyph glyph-name="Q" unicode="Q" horiz-adv-x="956" 
d="M457 -12q-161 0 -265 98t-104 246v604q0 148 104 246t265 98t264.5 -98t103.5 -246v-604q0 -96 -45 -172h133q11 0 19 -8t8 -19v-119q0 -10 -8 -18t-19 -8h-456zM457 160q64 0 109.5 40.5t45.5 123.5v620q0 83 -45.5 123.5t-109.5 40.5t-110 -40.5t-46 -123.5v-620
q0 -83 46 -123.5t110 -40.5z" />
    <glyph glyph-name="R" unicode="R" horiz-adv-x="874" 
d="M817 750q0 -95 -41.5 -168.5t-111.5 -118.5l139 -428q0 -13 -10.5 -24t-24.5 -11h-131q-25 0 -37 35l-115 371q-5 0 -14 -1.5t-14 -1.5h-146v-368q0 -13 -10.5 -24t-24.5 -11h-143q-13 0 -24 11t-11 24v1196q0 13 11 24t24 11h324q70 0 134 -24t114.5 -67.5t81 -111
t30.5 -148.5v-165zM449 571q61 0 108 50t47 137v153q0 87 -47 136t-108 49h-138v-525h138z" />
    <glyph glyph-name="S" unicode="S" horiz-adv-x="856" 
d="M68 322q0 14 10 24t24 10h144q14 0 24.5 -10.5t10.5 -23.5q9 -162 168 -162q41 0 71.5 14.5t44 32t21.5 43t9 37.5t1 24q0 82 -50 133.5t-153 102.5q-39 19 -64.5 32.5t-63 37t-62 44.5t-52.5 52t-44.5 63.5t-27.5 74.5t-11 89q0 50 7.5 94t31 91t61 79.5t102 54
t150.5 21.5q82 0 146 -24.5t99.5 -60t59.5 -84.5t32 -88t11 -81q0 -14 -11 -24.5t-24 -10.5h-143q-14 0 -24.5 10.5t-10.5 24.5q-4 33 -10.5 58t-21 52t-41.5 41.5t-66 14.5q-73 0 -104 -43.5t-31 -110.5q0 -33 7.5 -60.5t26.5 -51t35.5 -40t50 -36.5t53.5 -30.5t62 -30.5
q38 -18 59.5 -29.5t57 -33t56.5 -40.5t46.5 -48t39.5 -59.5t24 -72t10 -88.5q0 -94 -29 -163t-80 -108t-113 -57t-136 -18q-68 0 -130 17.5t-118.5 55t-92.5 104.5t-42 157z" />
    <glyph glyph-name="T" unicode="T" horiz-adv-x="720" 
d="M254 35v1061h-186q-12 0 -21.5 9t-9.5 21v109q0 12 9.5 21.5t21.5 9.5h585q12 0 21.5 -9.5t9.5 -21.5v-109q0 -12 -9.5 -21t-21.5 -9h-186v-1061q0 -13 -10.5 -24t-24.5 -11h-143q-13 0 -24 11t-11 24z" />
    <glyph glyph-name="U" unicode="U" horiz-adv-x="933" 
d="M467 -12q-161 0 -265 97t-104 245v901q0 13 11 24t24 11h143q14 0 24.5 -11t10.5 -24v-907q0 -83 46 -123.5t110 -40.5t110 40.5t46 123.5v907q0 14 10.5 24.5t23.5 10.5h144q13 0 24 -11t11 -24v-901q0 -148 -104 -245t-265 -97z" />
    <glyph glyph-name="V" unicode="V" horiz-adv-x="892" 
d="M553 0h-213q-13 0 -22.5 10.5t-12.5 24.5l-268 1196q0 13 10.5 24t24.5 11h141q29 0 37 -35l196 -920l197 920q8 35 37 35h141q13 0 24 -11t11 -24l-268 -1196q-3 -14 -12.5 -24.5t-22.5 -10.5z" />
    <glyph glyph-name="W" unicode="W" horiz-adv-x="1212" 
d="M559 1266h94q11 0 21 -14.5t12 -26.5l156 -813l131 819q2 14 12.5 24.5t24.5 10.5h141q13 0 24 -11t11 -24l-221 -1196q-1 -15 -11 -25t-24 -10h-164q-13 0 -22.5 10.5t-12.5 24.5l-125 588l-125 -588q-3 -14 -12.5 -24.5t-22.5 -10.5h-163q-13 0 -23 10t-12 25
l-221 1196q0 14 10.5 24.5t23.5 10.5h142q15 0 25 -10.5t12 -24.5l131 -819l155 813q2 12 12 26.5t21 14.5z" />
    <glyph glyph-name="X" unicode="X" horiz-adv-x="864" 
d="M580 35l-148 346l-147 -346q-17 -35 -41 -35h-158q-14 0 -24.5 11t-10.5 24l271 579l-285 617q0 13 10.5 24t24.5 11h157q23 0 41 -35l162 -383l162 383q18 35 41 35h158q13 0 23.5 -10.5t10.5 -24.5l-284 -617l270 -579q0 -13 -10.5 -24t-24.5 -11h-157q-23 0 -41 35z
" />
    <glyph glyph-name="Y" unicode="Y" horiz-adv-x="868" 
d="M541 428v-393q0 -13 -10.5 -24t-24.5 -11h-144q-13 0 -23.5 10.5t-10.5 24.5v393l-301 803q0 14 10.5 24.5t23.5 10.5h142q25 0 37 -35l194 -514l195 514q12 35 37 35h141q13 0 24 -11t11 -24z" />
    <glyph glyph-name="Z" unicode="Z" horiz-adv-x="780" 
d="M82 178l397 918h-375q-10 0 -18 8t-8 18v117q0 11 8 19t18 8h572q10 0 18 -8t8 -19v-123q0 -21 -4 -29l-403 -917h381q10 0 18 -8t8 -19v-116q0 -11 -8 -19t-18 -8h-572q-10 0 -18 8t-8 19v123q0 20 4 28z" />
    <glyph glyph-name="bracketleft" unicode="[" horiz-adv-x="571" 
d="M446 -242h-313q-13 0 -24 11t-11 24v1684q0 13 10.5 23.5t24.5 10.5h313q11 0 19 -8t8 -18v-119q0 -10 -8.5 -18.5t-18.5 -8.5h-135v-1409h135q11 0 19 -8t8 -18v-119q0 -11 -8.5 -19t-18.5 -8z" />
    <glyph glyph-name="backslash" unicode="\" horiz-adv-x="712" 
d="M283 1477l331 -1684q0 -14 -10.5 -24.5t-23.5 -10.5h-113q-29 0 -37 35l-332 1684q0 13 10.5 23.5t24.5 10.5h113q29 0 37 -34z" />
    <glyph glyph-name="bracketright" unicode="]" horiz-adv-x="571" 
d="M438 -242h-313q-11 0 -19 8t-8 19v119q0 10 8 18t19 8h135v1409h-135q-11 0 -19 8.5t-8 18.5v119q0 10 8 18t19 8h313q14 0 24.5 -10.5t10.5 -23.5v-1684q0 -13 -10.5 -24t-24.5 -11z" />
    <glyph glyph-name="asciicircum" unicode="^" horiz-adv-x="692" 
d="M242 1266h209q26 0 38 -37l105 -326q0 -14 -12 -25.5t-27 -11.5h-111q-26 0 -38 37l-60 211l-59 -211q-12 -37 -39 -37h-111q-15 0 -27 11.5t-12 25.5l105 326q12 37 39 37z" />
    <glyph glyph-name="underscore" unicode="_" horiz-adv-x="825" 
d="M125 -53h575q10 0 18.5 -8.5t8.5 -18.5v-119q0 -10 -8 -18t-19 -8h-575q-11 0 -19 8t-8 18v119q0 10 8 18.5t19 8.5z" />
    <glyph glyph-name="grave" unicode="`" horiz-adv-x="464" 
d="M311 1233l56 -297q0 -13 -9.5 -23t-23.5 -12h-109q-21 3 -32 35l-95 297q0 13 9 22t22 11h147q28 -3 35 -33z" />
    <glyph glyph-name="a" unicode="a" 
d="M88 291v360q0 151 74 227t205 76q35 0 60 -3t64.5 -19.5t73.5 -48.5v24q0 13 10.5 24t24.5 11h143q13 0 24 -11t11 -24v-872q0 -13 -11 -24t-24 -11h-143q-14 0 -24.5 11t-10.5 24v24q-34 -32 -73.5 -48.5t-64.5 -19.5t-60 -3q-131 0 -205 76t-74 227zM301 649v-356
q0 -63 37.5 -98t91.5 -35q61 0 98 35t37 98v356q0 63 -37 98t-98 35q-54 0 -91.5 -35t-37.5 -98z" />
    <glyph glyph-name="b" unicode="b" 
d="M788 651v-360q0 -151 -73.5 -227t-204.5 -76q-35 0 -60 3t-65 20t-74 48v-24q0 -13 -10.5 -24t-24.5 -11h-143q-13 0 -24 11t-11 24v1196q0 13 11 24t24 11h143q14 0 24.5 -11t10.5 -24v-348q34 31 74 48t65 20t60 3q131 0 204.5 -76t73.5 -227zM575 293v356
q0 63 -37.5 98t-91.5 35q-61 0 -98 -35t-37 -98v-356q0 -63 37 -98t98 -35q54 0 91.5 35t37.5 98z" />
    <glyph glyph-name="c" unicode="c" horiz-adv-x="841" 
d="M432 160q59 0 94 37t35 94v8q0 13 10.5 24t24.5 11h143q13 0 24 -11t11 -24q-6 -134 -102 -222.5t-240 -88.5q-143 0 -243.5 87t-100.5 222v330q0 140 98 233.5t246 93.5q144 0 240 -88.5t102 -222.5q0 -13 -11 -24t-24 -11h-143q-14 0 -24.5 11t-10.5 24v8q0 57 -35 94
t-94 37q-57 0 -94 -37.5t-37 -93.5v-358q0 -57 37 -95t94 -38z" />
    <glyph glyph-name="d" unicode="d" 
d="M88 291v360q0 151 74 227t205 76q35 0 60 -3t64.5 -19.5t73.5 -48.5v348q0 13 10.5 24t24.5 11h143q13 0 24 -11t11 -24v-1196q0 -13 -11 -24t-24 -11h-143q-14 0 -24.5 11t-10.5 24v24q-34 -32 -73.5 -48.5t-64.5 -19.5t-60 -3q-131 0 -205 76t-74 227zM301 649v-356
q0 -63 37.5 -98t91.5 -35q61 0 98 35t37 98v356q0 63 -37 98t-98 35q-54 0 -91.5 -35t-37.5 -98z" />
    <glyph glyph-name="e" unicode="e" horiz-adv-x="858" 
d="M735 389h-434v-96q0 -58 35.5 -95.5t93.5 -37.5q42 0 74 20t45 49q11 25 35 25h143q13 0 24 -11t11 -24q-28 -102 -120.5 -166.5t-211.5 -64.5q-141 0 -241.5 87t-100.5 222v330q0 141 96 234t246 93q148 0 244 -93.5t96 -233.5v-203q0 -14 -11 -24.5t-24 -10.5zM301 651
v-90h256v90q0 56 -35.5 93.5t-93.5 37.5q-57 0 -92 -37t-35 -94z" />
    <glyph glyph-name="f" unicode="f" horiz-adv-x="587" 
d="M516 1108q-78 0 -105.5 -31t-27.5 -84v-51h147q12 0 21.5 -9.5t9.5 -21.5v-110q0 -12 -9.5 -21.5t-21.5 -9.5h-147v-735q0 -13 -10.5 -24t-24.5 -11h-143q-13 0 -24 11t-11 24v735h-113q-12 0 -21 9.5t-9 21.5v110q0 12 9 21.5t21 9.5h113q0 99 19.5 165.5t59 103
t89.5 51t121 14.5h57q12 0 21.5 -9.5t9.5 -21.5v-106q0 -12 -9.5 -21.5t-21.5 -9.5z" />
    <glyph glyph-name="g" unicode="g" 
d="M301 649v-278q0 -63 37.5 -98t91.5 -35q61 0 98 35t37 98v278q0 63 -37 98t-98 35q-54 0 -91.5 -35t-37.5 -98zM565 -29v166q-34 -32 -73.5 -48.5t-64.5 -19.5t-60 -3q-131 0 -205 76t-74 227v282q0 151 74 227t205 76q35 0 60 -3t64.5 -19.5t73.5 -48.5v24q0 13 10.5 24
t24.5 11h143q13 0 24 -11t11 -24v-948q0 -118 -91 -203.5t-212 -85.5h-18q-117 0 -212 68.5t-95 173.5q0 13 9.5 24t22.5 11h117q30 0 47 -31q29 -74 119 -74q45 0 72.5 33t27.5 96z" />
    <glyph glyph-name="h" unicode="h" 
d="M98 35v1196q0 13 11 24t24 11h143q14 0 24.5 -11t10.5 -24v-348q34 31 74 48t65 20t60 3q131 0 204.5 -76t73.5 -227v-616q0 -14 -10.5 -24.5t-23.5 -10.5h-144q-14 0 -24.5 11t-10.5 24v614q0 63 -37.5 98t-91.5 35q-61 0 -98 -35t-37 -98v-614q0 -13 -10.5 -24
t-24.5 -11h-143q-13 0 -24 11t-11 24z" />
    <glyph glyph-name="i" unicode="i" horiz-adv-x="409" 
d="M311 907v-872q0 -13 -10.5 -24t-24.5 -11h-143q-13 0 -24 11t-11 24v872q0 13 11 24t24 11h143q14 0 24.5 -11t10.5 -24zM311 1231v-174q0 -13 -10.5 -24t-24.5 -11h-143q-13 0 -24 11t-11 24v174q0 13 11 24t24 11h143q14 0 24.5 -11t10.5 -24z" />
    <glyph glyph-name="j" unicode="j" horiz-adv-x="409" 
d="M-31 -160h21q32 0 53 9t32 20.5t16.5 36.5t6 40.5t0.5 49.5v911q0 13 11 24t24 11h143q14 0 24.5 -11t10.5 -24v-907q0 -97 -19 -163t-58 -103t-89.5 -52.5t-121.5 -15.5h-54q-12 0 -21 9.5t-9 21.5v113q0 12 9 21t21 9zM311 1231v-174q0 -13 -10.5 -24t-24.5 -11h-143
q-13 0 -24 11t-11 24v174q0 13 11 24t24 11h143q14 0 24.5 -11t10.5 -24z" />
    <glyph glyph-name="k" unicode="k" horiz-adv-x="843" 
d="M616 27l-157 409l-148 -231v-170q0 -13 -10.5 -24t-24.5 -11h-143q-13 0 -24 11t-11 24v1196q0 13 11 24t24 11h143q14 0 24.5 -11t10.5 -24v-688l234 372q17 27 45 27h135q13 0 24 -11t11 -24l-164 -260q44 -111 131.5 -345.5t99.5 -266.5q0 -14 -10.5 -24.5
t-23.5 -10.5h-131q-29 0 -46 27z" />
    <glyph glyph-name="l" unicode="l" horiz-adv-x="409" 
d="M311 1231v-1196q0 -13 -10.5 -24t-24.5 -11h-143q-13 0 -24 11t-11 24v1196q0 13 11 24t24 11h143q14 0 24.5 -11t10.5 -24z" />
    <glyph glyph-name="m" unicode="m" horiz-adv-x="1277" 
d="M1190 709v-674q0 -13 -11 -24t-24 -11h-143q-14 0 -24.5 11t-10.5 24v616q0 57 -32.5 94t-88.5 37q-54 0 -85.5 -35.5t-31.5 -91.5v-620q0 -14 -10.5 -24.5t-23.5 -10.5h-123q-14 0 -24.5 11t-10.5 24v616q0 59 -30 95t-89 36q-51 0 -84 -35t-33 -98v-614
q0 -13 -10.5 -24t-24.5 -11h-143q-13 0 -24 11t-11 24v872q0 13 11 24t24 11h143q14 0 24.5 -11t10.5 -24v-24q34 32 73.5 48.5t64 19.5t59.5 3q61 0 105.5 -26.5t88.5 -79.5q28 37 58 60.5t61 32.5t49.5 11t47.5 2q131 0 201.5 -69t70.5 -176z" />
    <glyph glyph-name="n" unicode="n" 
d="M98 35v872q0 13 11 24t24 11h143q14 0 24.5 -11t10.5 -24v-24q34 31 74 48t65 20t60 3q131 0 204.5 -76t73.5 -227v-616q0 -14 -10.5 -24.5t-23.5 -10.5h-144q-14 0 -24.5 11t-10.5 24v614q0 63 -37.5 98t-91.5 35q-61 0 -98 -35t-37 -98v-614q0 -13 -10.5 -24t-24.5 -11
h-143q-13 0 -24 11t-11 24z" />
    <glyph glyph-name="o" unicode="o" horiz-adv-x="856" 
d="M428 954q147 0 243.5 -93.5t96.5 -233.5v-330q0 -135 -99 -222t-241 -87t-241 87t-99 222v330q0 140 96.5 233.5t243.5 93.5zM428 160q56 0 91.5 37.5t35.5 95.5v358q0 56 -35.5 93.5t-91.5 37.5t-91.5 -37.5t-35.5 -93.5v-358q0 -58 35.5 -95.5t91.5 -37.5z" />
    <glyph glyph-name="p" unicode="p" 
d="M788 651v-360q0 -151 -73.5 -227t-204.5 -76q-35 0 -60 3t-65 20t-74 48v-344q0 -13 -10.5 -23.5t-24.5 -10.5h-143q-14 0 -24.5 10.5t-10.5 23.5v1192q0 13 11 24t24 11h143q14 0 24.5 -11t10.5 -24v-24q34 31 74 48t65 20t60 3q131 0 204.5 -76t73.5 -227zM575 293v356
q0 63 -37.5 98t-91.5 35q-61 0 -98 -35t-37 -98v-356q0 -63 37 -98t98 -35q54 0 91.5 35t37.5 98z" />
    <glyph glyph-name="q" unicode="q" 
d="M88 291v360q0 151 74 227t205 76q35 0 60 -3t64.5 -19.5t73.5 -48.5v24q0 13 10.5 24t24.5 11h143q13 0 24 -11t11 -24v-1192q0 -13 -10.5 -23.5t-24.5 -10.5h-143q-14 0 -24.5 10.5t-10.5 23.5v344q-34 -32 -73.5 -48.5t-64.5 -19.5t-60 -3q-131 0 -205 76t-74 227z
M301 649v-356q0 -63 37.5 -98t91.5 -35q61 0 98 35t37 98v356q0 63 -37 98t-98 35q-54 0 -91.5 -35t-37.5 -98z" />
    <glyph glyph-name="r" unicode="r" horiz-adv-x="614" 
d="M571 760q-29 0 -61 -7.5t-68.5 -26.5t-64.5 -48t-47 -77.5t-19 -108.5v-457q0 -13 -10.5 -24t-24.5 -11h-143q-13 0 -24 11t-11 24v872q0 13 11 24t24 11h143q14 0 24.5 -11t10.5 -24v-96q111 129 260 133q13 0 23 -10t10 -23v-118q0 -13 -10 -23t-23 -10z" />
    <glyph glyph-name="s" unicode="s" horiz-adv-x="737" 
d="M371 954q64 0 116 -17t83.5 -42t55 -60t34.5 -65t18 -63q0 -13 -11 -24t-24 -11h-119q-25 0 -37 35q-7 29 -36 52t-68 23q-4 0 -11.5 -0.5t-26 -6t-32.5 -15t-25.5 -30.5t-11.5 -50q0 -41 57 -80q23 -16 156 -90q47 -26 75 -45.5t61.5 -51t50 -72.5t16.5 -91
q0 -31 -9 -64t-32 -69.5t-57.5 -65t-92 -47t-128.5 -18.5q-80 0 -141.5 23.5t-96.5 62t-54 76.5t-28 79q0 13 10.5 24t24.5 11h119q25 0 37 -35q6 -28 39 -51.5t73 -23.5q60 0 91.5 21.5t31.5 74.5q0 15 -3 27t-12 23t-15.5 18.5t-23.5 18t-25.5 15t-32 16.5t-33.5 17
q-9 5 -37.5 19.5t-44 23t-44 26t-45 31.5t-38 37t-33.5 45t-20.5 51.5t-8.5 61.5q0 72 28 127.5t74 86.5t98 46.5t108 15.5z" />
    <glyph glyph-name="t" unicode="t" horiz-adv-x="618" 
d="M510 172h20q12 0 21.5 -9.5t9.5 -21.5v-110q0 -12 -9.5 -21.5t-21.5 -9.5h-71q-71 0 -121 15t-89.5 51.5t-59 103t-19.5 164.5v436h-113q-12 0 -21 9.5t-9 21.5v110q0 12 9 21.5t21 9.5h113v227q0 13 11 24t24 11h143q14 0 24.5 -11t10.5 -24v-227h147q12 0 21.5 -9.5
t9.5 -21.5v-110q0 -12 -9.5 -21.5t-21.5 -9.5h-147v-442q0 -74 25.5 -113.5t101.5 -42.5z" />
    <glyph glyph-name="u" unicode="u" 
d="M778 907v-872q0 -13 -11 -24t-24 -11h-143q-14 0 -24.5 11t-10.5 24v24q-34 -32 -73.5 -48.5t-64.5 -19.5t-60 -3q-131 0 -205 76t-74 227v616q0 13 11 24t24 11h143q14 0 24.5 -11t10.5 -24v-614q0 -63 37.5 -98t91.5 -35q61 0 98 35t37 98v614q0 13 10.5 24t24.5 11
h143q13 0 24 -11t11 -24z" />
    <glyph glyph-name="v" unicode="v" horiz-adv-x="770" 
d="M522 0h-274q-13 0 -22.5 10.5t-12.5 24.5l-186 872q0 14 10.5 24.5t23.5 10.5h142q29 0 37 -35l145 -739l145 739q8 35 37 35h142q13 0 23.5 -10.5t10.5 -24.5l-186 -872q-3 -14 -12.5 -24.5t-22.5 -10.5z" />
    <glyph glyph-name="w" unicode="w" horiz-adv-x="1114" 
d="M516 942h82q10 0 18.5 -13t10.5 -24l143 -635l94 637q2 14 12 24.5t25 10.5h141q14 0 24.5 -11t10.5 -24l-170 -872q-9 -35 -35 -35h-186q-13 0 -22.5 10.5t-12.5 24.5l-94 407l-94 -407q-3 -14 -12.5 -24.5t-22.5 -10.5h-186q-26 0 -35 35l-170 872q0 13 10.5 24
t24.5 11h141q15 0 25 -10.5t12 -24.5l94 -637l143 635q2 11 10.5 24t18.5 13z" />
    <glyph glyph-name="x" unicode="x" horiz-adv-x="753" 
d="M492 35l-115 235l-115 -235q-18 -35 -41 -35h-158q-13 0 -23.5 10.5t-10.5 24.5l239 432l-241 440q0 14 10.5 24.5t23.5 10.5h158q23 0 41 -35l117 -239l117 239q18 35 41 35h157q14 0 24.5 -11t10.5 -24l-242 -440l240 -432q0 -13 -10.5 -24t-24.5 -11h-158
q-22 0 -40 35z" />
    <glyph glyph-name="y" unicode="y" horiz-adv-x="774" 
d="M223 -285l70 279q-39 135 -132.5 453.5t-133.5 459.5q0 14 10.5 24.5t23.5 10.5h142q29 0 37 -35l161 -563l134 563q8 35 36 35h142q13 0 24 -11t11 -24l-310 -1192q-8 -34 -37 -34h-143q-14 0 -24.5 10.5t-10.5 23.5z" />
    <glyph glyph-name="z" unicode="z" horiz-adv-x="667" 
d="M51 176l357 596h-334q-10 0 -18.5 8t-8.5 19v116q0 11 8.5 19t18.5 8h520q10 0 18.5 -8t8.5 -19v-122q0 -19 -5 -29l-352 -596h330q10 0 18.5 -8t8.5 -19v-116q0 -11 -8.5 -19t-18.5 -8h-520q-10 0 -18.5 8t-8.5 19v122q0 21 4 29z" />
    <glyph glyph-name="braceleft" unicode="{" horiz-adv-x="724" 
d="M129 551q-12 0 -21.5 9.5t-9.5 21.5v108q0 12 9.5 21.5t21.5 9.5q61 0 108.5 45.5t47.5 132.5v373q0 105 63 172t162 67h90q11 0 19 -8t8 -18v-119q0 -10 -8.5 -18.5t-18.5 -8.5q-49 -3 -75.5 -25.5t-26.5 -76.5v-346q0 -65 -40.5 -133.5t-125.5 -120.5
q85 -52 125.5 -120.5t40.5 -133.5v-350q0 -55 26.5 -77.5t75.5 -25.5q11 0 19 -8t8 -18v-119q0 -11 -8.5 -19t-18.5 -8h-90q-98 0 -161.5 67t-63.5 173v377q0 87 -47 131.5t-109 44.5z" />
    <glyph glyph-name="bar" unicode="|" horiz-adv-x="409" 
d="M311 1477v-1684q0 -13 -10.5 -24t-24.5 -11h-143q-13 0 -24 11t-11 24v1684q0 13 10.5 23.5t24.5 10.5h143q14 0 24.5 -10.5t10.5 -23.5z" />
    <glyph glyph-name="braceright" unicode="}" horiz-adv-x="724" 
d="M596 551q-62 0 -109 -44.5t-47 -131.5v-377q0 -106 -63.5 -173t-161.5 -67h-90q-11 0 -19 8t-8 19v119q0 10 8 18t19 8q49 3 75.5 25.5t26.5 77.5v350q0 65 40.5 133.5t125.5 120.5q-85 52 -125.5 120.5t-40.5 133.5v346q0 54 -26.5 76.5t-75.5 25.5q-11 0 -19 8.5
t-8 18.5v119q0 10 8 18t19 8h90q99 0 162 -67t63 -172v-373q0 -87 47.5 -132.5t108.5 -45.5q12 0 21.5 -9.5t9.5 -21.5v-108q0 -12 -9.5 -21.5t-21.5 -9.5z" />
    <glyph glyph-name="asciitilde" unicode="~" horiz-adv-x="745" 
d="M496 373q-59 0 -134 35q-54 28 -81 28q-40 0 -76 -28q-11 -11 -21 -11q-15 0 -22 11l-58 71q-6 9 -6 19q0 9 11 24q31 35 70.5 59.5t70.5 24.5q20 0 86 -28q72 -35 129 -35q40 0 76 28q11 11 20 11q16 0 23 -11l57 -71q6 -9 6 -19q0 -11 -10 -24q-31 -35 -70.5 -59.5
t-70.5 -24.5z" />
    <glyph glyph-name="uni00A0" unicode="&#xa0;" horiz-adv-x="378" 
 />
    <glyph glyph-name="exclamdown" unicode="&#xa1;" horiz-adv-x="409" 
d="M311 885v-850q0 -13 -10.5 -24t-24.5 -11h-143q-13 0 -24 11t-11 24v850q0 13 11 24t24 11h143q14 0 24.5 -11t10.5 -24zM311 1231v-174q0 -13 -10.5 -24t-24.5 -11h-143q-13 0 -24 11t-11 24v174q0 13 11 24t24 11h143q14 0 24.5 -11t10.5 -24z" />
    <glyph glyph-name="cent" unicode="&#xa2;" horiz-adv-x="931" 
d="M602 10l-47 -252q-6 -29 -35 -32h-147q-13 2 -22 10.5t-9 21.5l74 232q-141 15 -229.5 109.5t-88.5 230.5v606q0 126 77.5 218t203.5 118l53 280q7 30 35 33h147q13 -2 22 -11t9 -22l-90 -282q119 -28 196 -116t83 -206q0 -14 -11 -24.5t-24 -10.5h-144q-13 0 -23.5 10.5
t-10.5 24.5q-1 81 -47 120.5t-109 39.5t-108.5 -40.5t-45.5 -123.5v-620q0 -83 45.5 -123.5t108.5 -40.5q62 0 107.5 40t48.5 119q0 14 10.5 24.5t23.5 10.5h144q13 0 24 -11t11 -24q-7 -106 -70 -189t-162 -120z" />
    <glyph glyph-name="sterling" unicode="&#xa3;" horiz-adv-x="1021" 
d="M262 690v248q0 140 98.5 234t245.5 94q141 0 226.5 -87.5t91.5 -224.5q0 -13 -10.5 -23.5t-24.5 -10.5h-119q-14 0 -24.5 10.5t-10.5 23.5v9q0 57 -35 94t-94 37q-57 0 -94 -37.5t-37 -93.5v-273h166q11 0 19 -8t8 -18v-119q0 -11 -8 -19t-19 -8h-166v-346h399
q10 0 18.5 -8t8.5 -19v-118q0 -11 -8.5 -19t-18.5 -8h-749q-11 0 -19 8t-8 19v118q0 11 8 19t19 8h137v346h-137q-11 0 -19 8t-8 19v119q0 10 8 18t19 8h137z" />
    <glyph glyph-name="currency" unicode="&#xa4;" horiz-adv-x="925" 
d="M729 274l88 -88q10 -10 10 -22q0 -11 -12 -23l-88 -88q-5 -8 -20 -8q-14 0 -25 8l-84 84q-59 -26 -135 -26t-135 26l-84 -84q-11 -8 -25 -8q-12 0 -20 8l-88 88q-13 13 -13 23q0 11 11 22l88 88q-23 53 -23 111v129q0 58 23 111l-88 88q-11 11 -11 22q0 10 13 23l88 88
q8 8 20 8q14 0 25 -8l84 -84q59 26 135 26t135 -26l84 84q11 8 25 8q15 0 20 -8l88 -88q12 -12 12 -23q0 -12 -10 -22l-88 -88q23 -53 23 -111v-129q0 -58 -23 -111zM553 369v161q0 39 -25.5 65t-64.5 26t-64.5 -26t-25.5 -65v-161q0 -39 25.5 -64.5t64.5 -25.5t64.5 25.5
t25.5 64.5z" />
    <glyph glyph-name="yen" unicode="&#xa5;" horiz-adv-x="1011" 
d="M756 653q10 0 18 -7.5t8 -18.5v-119q0 -11 -8 -19t-18 -8h-123l-21 -53v-94h144q10 0 18 -8t8 -19v-119q0 -10 -8 -18t-18 -8h-144v-127q0 -14 -10.5 -24.5t-23.5 -10.5h-144q-14 0 -24.5 11t-10.5 24v127h-143q-11 0 -19 8t-8 18v119q0 11 8.5 19t18.5 8h143v94l-18 53
h-125q-10 0 -18.5 8.5t-8.5 18.5v119q0 10 8 18t19 8h59l-217 578q0 13 11 24t24 11h141q25 0 37 -35l195 -514l194 514q12 35 37 35h142q13 0 23.5 -10.5t10.5 -24.5l-215 -578h58z" />
    <glyph glyph-name="brokenbar" unicode="&#xa6;" horiz-adv-x="409" 
d="M311 1477v-594q0 -13 -10.5 -24t-24.5 -11h-143q-13 0 -24 11t-11 24v594q0 13 10.5 23.5t24.5 10.5h143q14 0 24.5 -10.5t10.5 -23.5zM311 387v-594q0 -13 -10.5 -24t-24.5 -11h-143q-13 0 -24 11t-11 24v594q0 13 11 24t24 11h143q14 0 24.5 -11t10.5 -24z" />
    <glyph glyph-name="section" unicode="&#xa7;" horiz-adv-x="991" 
d="M893 575q0 -66 -40.5 -134t-129.5 -103q14 -38 14 -88q0 -31 -9 -64t-32 -69.5t-57.5 -65t-92 -47t-128.5 -18.5q-80 0 -141.5 23.5t-96.5 62t-54 76.5t-28 79q0 13 11 24t24 11h119q25 0 37 -35q6 -28 39.5 -51.5t72.5 -23.5q60 0 91.5 21.5t31.5 74.5q0 15 -3 27
t-12 23t-15.5 18.5t-23.5 18t-25.5 15t-32 16.5t-33.5 17q-9 5 -37.5 19.5t-44 23t-43.5 26t-45 31.5t-38.5 37t-33 45t-20 51.5t-8.5 61.5q0 97 46 159.5t121 92.5q-12 46 -12 74q0 58 18.5 105.5t49 78.5t71 52.5t82.5 30.5t86 9q64 0 116 -17t84 -42t55.5 -60.5
t34.5 -65.5t18 -63q0 -14 -10.5 -24.5t-24.5 -10.5h-119q-25 0 -37 35q-7 29 -36 52.5t-68 23.5q-4 0 -11.5 -0.5t-26 -6t-32.5 -15t-25.5 -30.5t-11.5 -50q0 -41 57 -80q23 -16 156 -90q46 -26 74.5 -45.5t62 -51.5t50 -73t16.5 -91zM618 498q29 0 48.5 20.5t19.5 52.5
q0 31 -51.5 77t-123.5 81t-124 35q-28 0 -49 -21t-21 -53q0 -33 52.5 -79t125 -79.5t123.5 -33.5z" />
    <glyph glyph-name="dieresis" unicode="&#xa8;" horiz-adv-x="692" 
d="M98 1159q0 43 33 75t78 32t77.5 -32t32.5 -75q0 -46 -32 -79t-78 -33t-78.5 33t-32.5 79zM373 1159q0 43 32.5 75t77.5 32t78 -32t33 -75q0 -46 -32.5 -79t-78.5 -33t-78 33t-32 79z" />
    <glyph glyph-name="copyright" unicode="&#xa9;" horiz-adv-x="1484" 
d="M739 1280q133 0 252.5 -51t206 -137.5t137.5 -206t51 -252.5q0 -174 -86 -322t-235 -234.5t-326 -86.5q-173 0 -321 86.5t-234 234.5t-86 322q0 177 86.5 326t234 235t320.5 86zM739 137q133 0 250.5 69t186.5 183.5t69 243.5q0 100 -41 193.5t-109.5 162t-162 109.5
t-193.5 41q-96 0 -187.5 -41t-158.5 -109.5t-108 -162t-41 -193.5q0 -129 68.5 -243.5t183.5 -183.5t243 -69zM995 514v8q0 13 -8 22t-20 11h-119q-12 -2 -20.5 -11t-8.5 -22v-20q0 -26 -24 -48t-58 -22q-35 0 -59.5 22t-24.5 48v254q0 27 22.5 49t61.5 22q36 0 59 -22
t23 -49v-31q0 -12 8.5 -20.5t20.5 -10.5h119q12 2 20 10.5t8 20.5v10q0 106 -73 176t-185 70t-186 -70t-74 -176v-221q0 -103 76 -170.5t184 -67.5q107 0 182.5 67.5t75.5 170.5z" />
    <glyph glyph-name="ordfeminine" unicode="&#xaa;" horiz-adv-x="673" 
d="M391 768v303q0 25 -17 41t-42 16q-21 0 -37 -16.5t-16 -40.5v-303q0 -22 16.5 -38.5t36.5 -16.5q24 0 41.5 16.5t17.5 38.5zM575 1237v-633q0 -13 -8.5 -22t-19.5 -9h-107q-10 0 -18 9t-8 22v14q-33 -33 -66.5 -43t-75.5 -10q-73 0 -123.5 53t-50.5 127v351
q0 74 50.5 127t123.5 53q43 0 76 -10.5t66 -44.5v16q0 22 26 31h107q28 -8 28 -31z" />
    <glyph glyph-name="guillemotleft" unicode="&#xab;" horiz-adv-x="1048" 
d="M98 412q0 47 25 106l123 262q6 14 19.5 25t27.5 12h143q14 -2 24.5 -12.5t10.5 -24.5l-123 -262q-24 -57 -24 -106q0 -50 24 -107l121 -268q0 -15 -10.5 -25t-24.5 -12h-143q-14 1 -27.5 12t-19.5 25l-121 268q-25 59 -25 107zM578 412q0 49 24 106l123 262q6 14 19.5 25
t27.5 12h143q14 -2 24.5 -12.5t10.5 -24.5l-123 -262q-24 -57 -24 -106q0 -50 24 -107l121 -268q0 -15 -10.5 -25t-24.5 -12h-143q-14 1 -27.5 12t-19.5 25l-121 268q-24 57 -24 107z" />
    <glyph glyph-name="logicalnot" unicode="&#xac;" horiz-adv-x="780" 
d="M125 500h522q13 0 24 -11t11 -24v-326q0 -13 -11 -24t-24 -11h-143q-14 0 -24.5 11t-10.5 24v189h-344q-11 0 -19 8t-8 18v119q0 11 8 19t19 8z" />
    <glyph glyph-name="uni00AD" unicode="&#xad;" horiz-adv-x="378" 
 />
    <glyph glyph-name="registered" unicode="&#xae;" horiz-adv-x="1484" 
d="M739 1280q133 0 252.5 -51t206 -137.5t137.5 -206t51 -252.5q0 -174 -86 -322t-235 -234.5t-326 -86.5q-173 0 -321 86.5t-234 234.5t-86 322q0 177 86.5 326t234 235t320.5 86zM739 137q133 0 250.5 69t186.5 183.5t69 243.5q0 100 -41 193.5t-109.5 162t-162 109.5
t-193.5 41q-96 0 -187.5 -41t-158.5 -109.5t-108 -162t-41 -193.5q0 -129 68.5 -243.5t183.5 -183.5t243 -69zM1020 688q0 -132 -98 -207l45 -149q0 -12 -8.5 -20.5t-20.5 -10.5h-119q-20 2 -28 31l-25 112h-78v-112q0 -12 -9 -20.5t-20 -10.5h-118q-11 2 -20 10.5t-9 20.5
v622q0 12 9 20.5t20 10.5h200q113 0 196 -72.5t83 -193.5v-31zM688 834v-238h78q30 0 54 26.5t24 71.5v43q0 44 -24 70.5t-54 26.5h-78z" />
    <glyph glyph-name="macron" unicode="&#xaf;" horiz-adv-x="675" 
d="M125 1266h426q11 0 19 -8t8 -19v-119q0 -10 -8 -18t-19 -8h-426q-11 0 -19 8t-8 18v119q0 11 8 19t19 8z" />
    <glyph glyph-name="degree" unicode="&#xb0;" horiz-adv-x="616" 
d="M307 795q-99 0 -154 59t-55 174q0 118 55 178t154 60t155 -60.5t56 -177.5q0 -115 -56 -174t-155 -59zM307 934q24 0 41 24.5t17 69.5q0 49 -16.5 71.5t-41.5 22.5q-23 0 -39 -22.5t-16 -71.5q0 -44 16.5 -69t38.5 -25z" />
    <glyph glyph-name="plusminus" unicode="&#xb1;" horiz-adv-x="743" 
d="M618 705q10 0 18.5 -8.5t8.5 -18.5v-119q0 -11 -8.5 -19t-18.5 -8h-161v-208q0 -10 -8.5 -18.5t-18.5 -8.5h-119q-10 0 -18 8t-8 19v208h-160q-11 0 -19 8t-8 19v119q0 10 8 18.5t19 8.5h160v202q0 11 8 19t18 8h119q10 0 18.5 -8t8.5 -19v-202h161zM618 172h-493
q-11 0 -19 -8t-8 -19v-118q0 -11 8 -19t19 -8h493q10 0 18.5 8t8.5 19v118q0 11 -8.5 19t-18.5 8z" />
    <glyph glyph-name="twosuperior" unicode="&#xb2;" horiz-adv-x="591" 
d="M285 717h188q9 0 15 -5.5t6 -13.5v-110q0 -6 -6 -12.5t-15 -6.5h-348q-9 2 -16 9t-7 16v92q0 58 24 107.5t58.5 83.5t69 64t58.5 63t24 67v14q-3 35 -41 35q-39 0 -39 -47q0 -9 -8 -16.5t-17 -7.5h-110q-9 0 -16 6t-7 14q0 103 56 157t143 54q81 0 139 -51t58 -129v-39
q0 -45 -21.5 -86t-52 -71.5t-61.5 -59t-52.5 -61t-21.5 -66.5z" />
    <glyph glyph-name="threesuperior" unicode="&#xb3;" horiz-adv-x="616" 
d="M518 780v-55q0 -79 -64 -130.5t-149 -51.5q-90 0 -148.5 48.5t-58.5 149.5q0 19 23 23h108q9 -2 17 -9t8 -16q0 -20 15 -33.5t36 -13.5q20 0 35.5 13t15.5 32v60q0 19 -15.5 32t-35.5 13h-35q-7 0 -12.5 5.5t-7.5 12.5v82q2 8 7.5 14.5t12.5 6.5h35q20 0 35.5 13t15.5 32
v55q0 19 -15.5 32t-35.5 13q-22 0 -37.5 -10t-15.5 -29q0 -9 -8 -16t-17 -9h-106q-23 4 -23 23q0 101 58.5 150t148.5 49q85 0 149 -52t64 -131v-63q0 -72 -51 -117q51 -45 51 -123z" />
    <glyph glyph-name="acute" unicode="&#xb4;" horiz-adv-x="606" 
d="M109 1112l256 148q9 6 18 6q14 0 25 -11l94 -110q6 -6 6 -19q0 -15 -10 -22l-275 -123q-15 -6 -26 -6q-10 0 -21 8l-72 86q-6 6 -6 18q0 14 11 25z" />
    <glyph glyph-name="mu" unicode="&#xb5;" horiz-adv-x="886" 
d="M754 942q13 0 23.5 -10.5t10.5 -24.5v-872q0 -14 -10.5 -24.5t-23.5 -10.5h-144q-14 0 -24.5 11t-10.5 24v24q-34 -32 -73.5 -48.5t-64.5 -19.5t-60 -3q-36 0 -66 6v-279q0 -13 -10.5 -23.5t-24.5 -10.5h-143q-14 0 -24.5 10.5t-10.5 23.5v1192q0 13 11 24t24 11h143
q14 0 24.5 -11t10.5 -24v-614q0 -63 37.5 -98t91.5 -35q61 0 98 35t37 98v614q0 13 10.5 24t24.5 11h144z" />
    <glyph glyph-name="paragraph" unicode="&#xb6;" horiz-adv-x="1161" 
d="M379 1266h649q14 0 24.5 -11t10.5 -24v-1196q0 -13 -10.5 -24t-24.5 -11h-143q-13 0 -24 11t-11 24v1061h-219v-1061q0 -13 -10.5 -24t-24.5 -11h-143q-13 0 -24 11t-11 24v500q-129 0 -224.5 73t-95.5 193v200q0 120 83.5 192.5t197.5 72.5z" />
    <glyph glyph-name="periodcentered" unicode="&#xb7;" horiz-adv-x="417" 
d="M98 434q0 43 33 75t78 32t77.5 -32t32.5 -75q0 -46 -32 -79t-78 -33t-78.5 33t-32.5 79z" />
    <glyph glyph-name="cedilla" unicode="&#xb8;" horiz-adv-x="464" 
d="M367 -39l-56 -297q-7 -30 -35 -33h-147q-13 2 -22 11t-9 22l95 297q11 32 32 35h109q14 -2 23.5 -12t9.5 -23z" />
    <glyph glyph-name="onesuperior" unicode="&#xb9;" horiz-adv-x="495" 
d="M240 1106l-111 -59q-6 -3 -10 -3q-16 0 -21 15v110q2 8 8.5 18t12.5 13l104 57q23 9 31 9h121q22 -4 22 -23v-645q0 -21 -22 -25h-113q-22 4 -22 25v508z" />
    <glyph glyph-name="ordmasculine" unicode="&#xba;" horiz-adv-x="616" 
d="M307 795q-99 0 -154 59t-55 174q0 118 55 178t154 60t155 -60.5t56 -177.5q0 -115 -56 -174t-155 -59zM307 934q24 0 41 24.5t17 69.5q0 49 -16.5 71.5t-41.5 22.5q-23 0 -39 -22.5t-16 -71.5q0 -44 16.5 -69t38.5 -25z" />
    <glyph glyph-name="guillemotright" unicode="&#xbb;" horiz-adv-x="1048" 
d="M950 412q0 -50 -24 -107l-121 -268q-6 -14 -19.5 -25t-27.5 -12h-144q-14 2 -24 12t-10 25l120 268q25 59 25 107q0 47 -25 106l-122 262q0 15 10 25t24 12h144q14 -1 27.5 -12t19.5 -25l123 -262q24 -57 24 -106zM471 412q0 -48 -25 -107l-120 -268q-6 -14 -19.5 -25
t-27.5 -12h-144q-14 2 -24.5 12t-10.5 25l121 268q25 59 25 107q0 47 -25 106l-123 262q0 14 10.5 24.5t24.5 12.5h143q15 -1 28.5 -12t19.5 -25l122 -262q25 -59 25 -106z" />
    <glyph glyph-name="onequarter" unicode="&#xbc;" horiz-adv-x="1314" 
d="M997 1225l-551 -1182q-20 -41 -49 -43h-104q-16 2 -27.5 14t-11.5 29l551 1182q19 38 49 41h102q18 -2 29.5 -13t11.5 -28zM240 1106l-111 -59q-6 -3 -10 -3q-16 0 -21 15v110q2 8 8.5 18t12.5 13l104 57q23 9 31 9h121q22 -4 22 -23v-645q0 -21 -22 -25h-113
q-22 4 -22 25v508zM983 123h-250q-7 0 -13.5 6t-8.5 12v125q0 8 6 23l188 389q7 14 31 14h184q21 -4 21 -22v-398h55q8 0 14.5 -5.5t6.5 -12.5v-113q0 -6 -7 -12t-14 -6h-55v-98q0 -9 -6.5 -16t-14.5 -9h-114q-9 2 -16 9t-7 16v98zM983 272v240l-109 -240h109z" />
    <glyph glyph-name="onehalf" unicode="&#xbd;" horiz-adv-x="1267" 
d="M997 1225l-551 -1182q-20 -41 -49 -43h-104q-16 2 -27.5 14t-11.5 29l551 1182q19 38 49 41h102q18 -2 29.5 -13t11.5 -28zM240 1106l-111 -59q-6 -3 -10 -3q-16 0 -21 15v110q2 8 8.5 18t12.5 13l104 57q23 9 31 9h121q22 -4 22 -23v-645q0 -21 -22 -25h-113
q-22 4 -22 25v508zM961 147h188q20 0 20 -18v-111q0 -6 -5.5 -12t-14.5 -6h-348q-9 2 -16 9t-7 16v92q0 58 24 107.5t58.5 83.5t69 64t58.5 63t24 67v14q-3 35 -41 35q-39 0 -39 -47q0 -9 -8 -17t-17 -8h-110q-9 0 -16 6.5t-7 14.5q0 103 56 157t143 54q81 0 138.5 -51.5
t57.5 -129.5v-38q0 -45 -21.5 -86t-52 -71.5t-61 -59.5t-52 -61.5t-21.5 -66.5z" />
    <glyph glyph-name="threequarters" unicode="&#xbe;" horiz-adv-x="1409" 
d="M1092 1225l-551 -1182q-20 -41 -49 -43h-105q-16 2 -27.5 14t-11.5 29l551 1182q19 38 49 41h103q18 -2 29.5 -13t11.5 -28zM1077 123h-250q-7 0 -13.5 6t-8.5 12v125q0 8 6 23l188 389q7 14 31 14h184q21 -4 21 -22v-398h55q8 0 14.5 -5.5t6.5 -12.5v-113q0 -6 -7 -12
t-14 -6h-55v-98q0 -9 -6.5 -16t-14.5 -9h-114q-9 2 -16 9t-7 16v98zM1077 272v240l-108 -240h108zM518 780v-55q0 -79 -64 -130.5t-149 -51.5q-90 0 -148.5 48.5t-58.5 149.5q0 19 23 23h108q9 -2 17 -9t8 -16q0 -20 15 -33.5t36 -13.5q20 0 35.5 13t15.5 32v60
q0 19 -15.5 32t-35.5 13h-35q-7 0 -12.5 5.5t-7.5 12.5v82q2 8 7.5 14.5t12.5 6.5h35q20 0 35.5 13t15.5 32v55q0 19 -15.5 32t-35.5 13q-22 0 -37.5 -10t-15.5 -29q0 -9 -8 -16t-17 -9h-106q-23 4 -23 23q0 101 58.5 150t148.5 49q85 0 149 -52t64 -131v-63q0 -72 -51 -117
q51 -45 51 -123z" />
    <glyph glyph-name="questiondown" unicode="&#xbf;" horiz-adv-x="872" 
d="M561 317q0 13 10.5 24t24.5 11h143q13 0 24 -11t11 -24q-6 -162 -99.5 -239.5t-240.5 -77.5q-141 0 -238.5 86t-97.5 219v55q0 138 135 277q45 47 67 72.5t42 67.5t20 85v33q0 13 11 24t24 11h144q13 0 23.5 -10.5t10.5 -24.5v-82q0 -44 -20 -87t-41 -68t-61 -66
q-36 -36 -55 -57t-42.5 -55t-34 -69.5t-10.5 -76.5v-29q2 -56 35 -94.5t88 -38.5q61 0 92.5 30.5t34.5 114.5zM362 1071v174q0 13 11 24t24 11h144q13 0 23.5 -10.5t10.5 -24.5v-174q0 -14 -10.5 -24.5t-23.5 -10.5h-144q-13 0 -24 11t-11 24z" />
    <glyph glyph-name="Agrave" unicode="&#xc0;" horiz-adv-x="892" 
d="M340 1266h213q13 0 22.5 -10.5t12.5 -24.5l268 -1196q0 -13 -11 -24t-24 -11h-141q-29 0 -37 35l-35 158h-325l-33 -158q-8 -35 -37 -35h-141q-14 0 -24.5 11t-10.5 24l268 1196q3 14 12.5 24.5t22.5 10.5zM446 954l-127 -589h252zM385 1626l256 -147q10 -10 10 -25
q0 -12 -6 -18l-72 -86q-12 -9 -20 -9q-9 0 -27 7l-274 122q-10 7 -10 23q0 12 6 18l94 111q10 10 25 10q9 0 18 -6z" />
    <glyph glyph-name="Aacute" unicode="&#xc1;" horiz-adv-x="892" 
d="M340 1266h213q13 0 22.5 -10.5t12.5 -24.5l268 -1196q0 -13 -11 -24t-24 -11h-141q-29 0 -37 35l-35 158h-325l-33 -158q-8 -35 -37 -35h-141q-14 0 -24.5 11t-10.5 24l268 1196q3 14 12.5 24.5t22.5 10.5zM446 954l-127 -589h252zM252 1479l256 147q9 6 18 6
q15 0 25 -10l94 -111q6 -6 6 -18q0 -16 -10 -23l-274 -122q-18 -7 -27 -7t-21 9l-71 86q-6 6 -6 18q0 15 10 25z" />
    <glyph glyph-name="Acircumflex" unicode="&#xc2;" horiz-adv-x="892" 
d="M340 1266h213q13 0 22.5 -10.5t12.5 -24.5l268 -1196q0 -13 -11 -24t-24 -11h-141q-29 0 -37 35l-35 158h-325l-33 -158q-8 -35 -37 -35h-141q-14 0 -24.5 11t-10.5 24l268 1196q3 14 12.5 24.5t22.5 10.5zM446 954l-127 -589h252zM342 1698h209q27 0 39 -37l92 -283
q0 -14 -12 -25.5t-27 -11.5h-111q-26 0 -38 37l-48 168l-47 -168q-12 -37 -39 -37h-110q-15 0 -27 11.5t-12 25.5l92 283q12 37 39 37z" />
    <glyph glyph-name="Atilde" unicode="&#xc3;" horiz-adv-x="892" 
d="M340 1266h213q13 0 22.5 -10.5t12.5 -24.5l268 -1196q0 -13 -11 -24t-24 -11h-141q-29 0 -37 35l-35 158h-325l-33 -158q-8 -35 -37 -35h-141q-14 0 -24.5 11t-10.5 24l268 1196q3 14 12.5 24.5t22.5 10.5zM446 954l-127 -589h252zM569 1341q-58 0 -133 35q-56 29 -82 29
q-38 0 -75 -29q-10 -10 -21 -10q-15 0 -22 10l-58 72q-6 9 -6 18q0 12 10 25q30 35 70.5 59.5t71.5 24.5q10 0 21.5 -3t18.5 -6t23.5 -10t22.5 -10q72 -35 129 -35q38 0 75 29q10 10 21 10q15 0 22 -10l58 -72q6 -9 6 -18q0 -12 -10 -25q-30 -35 -70.5 -59.5t-71.5 -24.5z
" />
    <glyph glyph-name="Adieresis" unicode="&#xc4;" horiz-adv-x="892" 
d="M340 1266h213q13 0 22.5 -10.5t12.5 -24.5l268 -1196q0 -13 -11 -24t-24 -11h-141q-29 0 -37 35l-35 158h-325l-33 -158q-8 -35 -37 -35h-141q-14 0 -24.5 11t-10.5 24l268 1196q3 14 12.5 24.5t22.5 10.5zM446 954l-127 -589h252zM199 1454q0 43 32.5 75t77.5 32t78 -32
t33 -75q0 -46 -32.5 -79.5t-78.5 -33.5q-45 0 -77.5 33.5t-32.5 79.5zM473 1454q0 43 33 75t78 32t77.5 -32t32.5 -75q0 -46 -32.5 -79.5t-77.5 -33.5q-46 0 -78.5 33.5t-32.5 79.5z" />
    <glyph glyph-name="Aring" unicode="&#xc5;" horiz-adv-x="892" 
d="M340 1266h213q13 0 22.5 -10.5t12.5 -24.5l268 -1196q0 -13 -11 -24t-24 -11h-141q-29 0 -37 35l-35 158h-325l-33 -158q-8 -35 -37 -35h-141q-14 0 -24.5 11t-10.5 24l268 1196q3 14 12.5 24.5t22.5 10.5zM446 954l-127 -589h252zM449 1341q-99 0 -154 59.5t-55 174.5
q0 118 55 177.5t154 59.5t154.5 -60t55.5 -177q0 -115 -55.5 -174.5t-154.5 -59.5zM449 1481q23 0 40 24.5t17 69.5q0 49 -16.5 71.5t-40.5 22.5q-23 0 -39.5 -23t-16.5 -71q0 -44 17 -69t39 -25z" />
    <glyph glyph-name="AE" unicode="&#xc6;" horiz-adv-x="1288" 
d="M627 436l2 660l-242 -660h240zM27 35l440 1196q12 35 35 35h682q10 0 18 -8t8 -19v-117q0 -10 -8 -18t-18 -8h-344v-416h243q11 0 19 -8t8 -19v-116q0 -11 -8 -19t-19 -8h-243v-338h344q10 0 18 -8t8 -19v-118q0 -11 -8 -19t-18 -8h-522q-14 0 -24.5 11t-10.5 24v233
h-301l-86 -233q-12 -35 -37 -35h-142q-13 0 -23.5 10.5t-10.5 24.5z" />
    <glyph glyph-name="Ccedilla" unicode="&#xc7;" horiz-adv-x="860" 
d="M520 -6l-43 -234q-6 -29 -35 -32h-147q-13 2 -22 10.5t-9 21.5l76 242q-115 31 -183.5 120t-68.5 208v606q0 148 104 246t263 98q151 0 255.5 -95t112.5 -237q0 -14 -10.5 -24.5t-24.5 -10.5h-143q-13 0 -24 10.5t-11 24.5q-1 81 -46.5 120.5t-108.5 39.5t-108.5 -40.5
t-45.5 -123.5v-620q0 -83 45.5 -123.5t108.5 -40.5q62 0 107 40t48 119q0 13 11 24t24 11h143q14 0 24.5 -11t10.5 -24q-9 -126 -92.5 -215.5t-210.5 -109.5z" />
    <glyph glyph-name="Egrave" unicode="&#xc8;" horiz-adv-x="759" 
d="M311 1096v-416h244q11 0 19 -8t8 -19v-116q0 -11 -8 -19t-19 -8h-244v-338h344q11 0 19 -8t8 -19v-118q0 -11 -8 -19t-19 -8h-522q-13 0 -24 11t-11 24v1196q0 13 11 24t24 11h522q11 0 19 -8t8 -19v-117q0 -10 -8 -18t-19 -8h-344zM340 1626l256 -147q10 -10 10 -25
q0 -12 -6 -18l-72 -86q-12 -9 -20 -9q-10 0 -27 7l-274 122q-10 7 -10 23q0 12 6 18l94 111q10 10 25 10q9 0 18 -6z" />
    <glyph glyph-name="Eacute" unicode="&#xc9;" horiz-adv-x="759" 
d="M311 1096v-416h244q11 0 19 -8t8 -19v-116q0 -11 -8 -19t-19 -8h-244v-338h344q11 0 19 -8t8 -19v-118q0 -11 -8 -19t-19 -8h-522q-13 0 -24 11t-11 24v1196q0 13 11 24t24 11h522q11 0 19 -8t8 -19v-117q0 -10 -8 -18t-19 -8h-344zM207 1479l256 147q9 6 18 6
q15 0 25 -10l94 -111q6 -6 6 -18q0 -16 -10 -23l-274 -122q-18 -7 -27 -7t-21 9l-71 86q-6 6 -6 18q0 15 10 25z" />
    <glyph glyph-name="Ecircumflex" unicode="&#xca;" horiz-adv-x="759" 
d="M311 1096v-416h244q11 0 19 -8t8 -19v-116q0 -11 -8 -19t-19 -8h-244v-338h344q11 0 19 -8t8 -19v-118q0 -11 -8 -19t-19 -8h-522q-13 0 -24 11t-11 24v1196q0 13 11 24t24 11h522q11 0 19 -8t8 -19v-117q0 -10 -8 -18t-19 -8h-344zM285 1698h209q26 0 38 -37l93 -283
q0 -14 -12 -25.5t-27 -11.5h-111q-27 0 -39 37l-47 168l-47 -168q-12 -37 -39 -37h-110q-15 0 -27 11.5t-12 25.5l92 283q12 37 39 37z" />
    <glyph glyph-name="Edieresis" unicode="&#xcb;" horiz-adv-x="759" 
d="M311 1096v-416h244q11 0 19 -8t8 -19v-116q0 -11 -8 -19t-19 -8h-244v-338h344q11 0 19 -8t8 -19v-118q0 -11 -8 -19t-19 -8h-522q-13 0 -24 11t-11 24v1196q0 13 11 24t24 11h522q11 0 19 -8t8 -19v-117q0 -10 -8 -18t-19 -8h-344zM141 1454q0 43 33 75t78 32t77.5 -32
t32.5 -75q0 -46 -32.5 -79.5t-77.5 -33.5q-46 0 -78.5 33.5t-32.5 79.5zM416 1454q0 43 32.5 75t77.5 32t78 -32t33 -75q0 -46 -32.5 -79.5t-78.5 -33.5q-45 0 -77.5 33.5t-32.5 79.5z" />
    <glyph glyph-name="Igrave" unicode="&#xcc;" horiz-adv-x="409" 
d="M311 1231v-1196q0 -13 -10.5 -24t-24.5 -11h-143q-13 0 -24 11t-11 24v1196q0 13 11 24t24 11h143q14 0 24.5 -11t10.5 -24zM143 1626l256 -147q11 -11 11 -25q0 -11 -7 -18l-71 -86q-12 -9 -21 -9t-26 7l-275 122q-10 7 -10 23q0 12 6 18l94 111q10 10 25 10q9 0 18 -6z
" />
    <glyph glyph-name="Iacute" unicode="&#xcd;" horiz-adv-x="409" 
d="M98 35v1196q0 13 11 24t24 11h143q14 0 24.5 -11t10.5 -24v-1196q0 -13 -10.5 -24t-24.5 -11h-143q-13 0 -24 11t-11 24zM10 1479l256 147q9 6 19 6q14 0 24 -10l94 -111q7 -7 7 -18q0 -16 -11 -23l-274 -122q-17 -7 -27 -7q-8 0 -20 9l-72 86q-6 6 -6 18q0 15 10 25z
" />
    <glyph glyph-name="Icircumflex" unicode="&#xce;" horiz-adv-x="409" 
d="M311 1231v-1196q0 -13 -10.5 -24t-24.5 -11h-143q-13 0 -24 11t-11 24v1196q0 13 11 24t24 11h143q14 0 24.5 -11t10.5 -24zM309 1698h-209q-27 0 -39 -37l-92 -283q0 -14 12 -25.5t27 -11.5h111q27 0 39 37l47 168l47 -168q12 -37 39 -37h110q15 0 27 11.5t12 25.5
l-92 283q-12 37 -39 37z" />
    <glyph glyph-name="Idieresis" unicode="&#xcf;" horiz-adv-x="409" 
d="M311 1231v-1196q0 -13 -10.5 -24t-24.5 -11h-143q-13 0 -24 11t-11 24v1196q0 13 11 24t24 11h143q14 0 24.5 -11t10.5 -24zM-43 1454q0 -46 32.5 -79.5t78.5 -33.5q45 0 77.5 33.5t32.5 79.5q0 43 -32.5 75t-77.5 32t-78 -32t-33 -75zM231 1454q0 -46 32.5 -79.5
t78.5 -33.5t78.5 33.5t32.5 79.5q0 43 -33 75t-78 32t-78 -32t-33 -75z" />
    <glyph glyph-name="Eth" unicode="&#xd0;" horiz-adv-x="931" 
d="M487 1266q157 0 262 -98.5t105 -247.5v-576q0 -149 -105 -246.5t-262 -97.5h-331q-14 0 -24.5 11t-10.5 24v491h-78q-11 0 -19 8t-8 19v119q0 10 8 18t19 8h78v533q0 13 10.5 24t24.5 11h331zM641 334v598q0 82 -45.5 122t-108.5 40h-153v-396h117q11 0 18.5 -8t7.5 -18
v-119q0 -11 -8 -19t-18 -8h-117v-354h153q63 0 108.5 40t45.5 122z" />
    <glyph glyph-name="Ntilde" unicode="&#xd1;" horiz-adv-x="919" 
d="M608 553v678q0 13 11 24t24 11h143q14 0 24.5 -11t10.5 -24v-1196q0 -13 -10.5 -24t-24.5 -11h-127q-11 0 -21 8t-13 17l-314 669v-659q0 -13 -10.5 -24t-24.5 -11h-143q-13 0 -24 11t-11 24v1196q0 13 11 24t24 11h127q11 0 21.5 -8t13.5 -17zM571 1341q31 0 71.5 24.5
t70.5 59.5q10 13 10 25q0 9 -6 18l-58 72q-7 10 -22 10q-11 0 -21 -10q-37 -29 -75 -29q-57 0 -129 35q-6 3 -22.5 10t-23.5 10t-18.5 6t-21.5 3q-31 0 -71.5 -24.5t-70.5 -59.5q-10 -13 -10 -25q0 -9 6 -18l58 -72q7 -10 22 -10q11 0 21 10q37 29 75 29q26 0 82 -29
q75 -35 133 -35z" />
    <glyph glyph-name="Ograve" unicode="&#xd2;" horiz-adv-x="913" 
d="M457 160q64 0 109.5 40.5t45.5 123.5v620q0 83 -45.5 123.5t-109.5 40.5t-110 -40.5t-46 -123.5v-620q0 -83 46 -123.5t110 -40.5zM457 -12q-161 0 -265 98t-104 246v604q0 148 104 246t265 98t264.5 -98t103.5 -246v-604q0 -148 -103.5 -246t-264.5 -98zM395 1626
l256 -147q11 -11 11 -25q0 -11 -7 -18l-71 -86q-12 -9 -21 -9t-26 7l-275 122q-10 7 -10 23q0 12 6 18l94 111q10 10 25 10q9 0 18 -6z" />
    <glyph glyph-name="Oacute" unicode="&#xd3;" horiz-adv-x="913" 
d="M457 160q64 0 109.5 40.5t45.5 123.5v620q0 83 -45.5 123.5t-109.5 40.5t-110 -40.5t-46 -123.5v-620q0 -83 46 -123.5t110 -40.5zM457 -12q-161 0 -265 98t-104 246v604q0 148 104 246t265 98t264.5 -98t103.5 -246v-604q0 -148 -103.5 -246t-264.5 -98zM262 1479
l256 147q9 6 19 6q14 0 24 -10l94 -111q7 -7 7 -18q0 -16 -11 -23l-274 -122q-18 -7 -27 -7q-8 0 -20 9l-72 86q-6 6 -6 18q0 15 10 25z" />
    <glyph glyph-name="Ocircumflex" unicode="&#xd4;" horiz-adv-x="913" 
d="M457 160q64 0 109.5 40.5t45.5 123.5v620q0 83 -45.5 123.5t-109.5 40.5t-110 -40.5t-46 -123.5v-620q0 -83 46 -123.5t110 -40.5zM457 -12q-161 0 -265 98t-104 246v604q0 148 104 246t265 98t264.5 -98t103.5 -246v-604q0 -148 -103.5 -246t-264.5 -98zM352 1698h209
q27 0 39 -37l92 -283q0 -14 -12 -25.5t-27 -11.5h-110q-27 0 -39 37l-47 168l-47 -168q-12 -37 -39 -37h-111q-15 0 -27 11.5t-12 25.5l92 283q12 37 39 37z" />
    <glyph glyph-name="Otilde" unicode="&#xd5;" horiz-adv-x="913" 
d="M457 160q64 0 109.5 40.5t45.5 123.5v620q0 83 -45.5 123.5t-109.5 40.5t-110 -40.5t-46 -123.5v-620q0 -83 46 -123.5t110 -40.5zM457 -12q-161 0 -265 98t-104 246v604q0 148 104 246t265 98t264.5 -98t103.5 -246v-604q0 -148 -103.5 -246t-264.5 -98zM580 1341
q-59 0 -134 35q-56 29 -81 29q-39 0 -76 -29q-10 -10 -21 -10q-15 0 -22 10l-58 72q-6 9 -6 18q0 10 11 25q31 35 70.5 59.5t70.5 24.5q10 0 21.5 -3t18.5 -6t23.5 -10t22.5 -10q72 -35 129 -35q39 0 76 29q10 10 20 10q16 0 23 -10l57 -72q6 -9 6 -18q0 -12 -10 -25
q-31 -35 -70.5 -59.5t-70.5 -24.5z" />
    <glyph glyph-name="Odieresis" unicode="&#xd6;" horiz-adv-x="913" 
d="M457 160q64 0 109.5 40.5t45.5 123.5v620q0 83 -45.5 123.5t-109.5 40.5t-110 -40.5t-46 -123.5v-620q0 -83 46 -123.5t110 -40.5zM457 -12q-161 0 -265 98t-104 246v604q0 148 104 246t265 98t264.5 -98t103.5 -246v-604q0 -148 -103.5 -246t-264.5 -98zM209 1454
q0 43 32.5 75t77.5 32t78 -32t33 -75q0 -46 -32.5 -79.5t-78.5 -33.5q-45 0 -77.5 33.5t-32.5 79.5zM483 1454q0 43 33 75t78 32t78 -32t33 -75q0 -46 -32.5 -79.5t-78.5 -33.5t-78.5 33.5t-32.5 79.5z" />
    <glyph glyph-name="multiply" unicode="&#xd7;" horiz-adv-x="741" 
d="M422 143l-51 99l-52 -99q-17 -34 -40 -34h-146q-14 0 -24.5 10.5t-10.5 23.5l164 295l-162 297q0 13 11 24t24 11h146q23 0 41 -35l49 -96l49 96q18 35 41 35h145q14 0 24.5 -11t10.5 -24l-162 -297l164 -295q0 -13 -10.5 -23.5t-24.5 -10.5h-145q-24 0 -41 34z" />
    <glyph glyph-name="Oslash" unicode="&#xd8;" horiz-adv-x="913" 
d="M549 1270q125 -26 200.5 -117t75.5 -217v-604q0 -124 -74.5 -215t-197.5 -119l-43 -221q-7 -30 -35 -33h-147q-13 2 -22 11t-9 22l72 219q-126 26 -203.5 118t-77.5 218v604q0 127 78 218.5t205 117.5l49 266q7 30 35 33h147q13 -2 22 -11t9 -22zM612 324v620
q0 83 -45.5 123.5t-109.5 40.5t-110 -40.5t-46 -123.5v-620q0 -83 46 -123.5t110 -40.5t109.5 40.5t45.5 123.5z" />
    <glyph glyph-name="Ugrave" unicode="&#xd9;" horiz-adv-x="933" 
d="M467 -12q-161 0 -265 97t-104 245v901q0 13 11 24t24 11h143q14 0 24.5 -11t10.5 -24v-907q0 -83 46 -123.5t110 -40.5t110 40.5t46 123.5v907q0 14 10.5 24.5t23.5 10.5h144q13 0 24 -11t11 -24v-901q0 -148 -104 -245t-265 -97zM406 1626l256 -147q10 -10 10 -25
q0 -12 -6 -18l-72 -86q-12 -9 -21 -9t-26 7l-275 122q-10 7 -10 23q0 12 6 18l94 111q10 10 25 10q10 0 19 -6z" />
    <glyph glyph-name="Uacute" unicode="&#xda;" horiz-adv-x="933" 
d="M467 -12q-161 0 -265 97t-104 245v901q0 13 11 24t24 11h143q14 0 24.5 -11t10.5 -24v-907q0 -83 46 -123.5t110 -40.5t110 40.5t46 123.5v907q0 14 10.5 24.5t23.5 10.5h144q13 0 24 -11t11 -24v-901q0 -148 -104 -245t-265 -97zM272 1479l256 147q9 6 19 6q14 0 24 -10
l95 -111q6 -6 6 -18q0 -16 -10 -23l-275 -122q-18 -7 -27 -7q-8 0 -20 9l-72 86q-6 6 -6 18q0 15 10 25z" />
    <glyph glyph-name="Ucircumflex" unicode="&#xdb;" horiz-adv-x="933" 
d="M467 -12q-161 0 -265 97t-104 245v901q0 13 11 24t24 11h143q14 0 24.5 -11t10.5 -24v-907q0 -83 46 -123.5t110 -40.5t110 40.5t46 123.5v907q0 14 10.5 24.5t23.5 10.5h144q13 0 24 -11t11 -24v-901q0 -148 -104 -245t-265 -97zM362 1698h209q27 0 39 -37l92 -283
q0 -14 -11.5 -25.5t-26.5 -11.5h-111q-27 0 -39 37l-47 168l-47 -168q-12 -37 -39 -37h-111q-15 0 -27 11.5t-12 25.5l93 283q12 37 38 37z" />
    <glyph glyph-name="Udieresis" unicode="&#xdc;" horiz-adv-x="933" 
d="M467 -12q-161 0 -265 97t-104 245v901q0 13 11 24t24 11h143q14 0 24.5 -11t10.5 -24v-907q0 -83 46 -123.5t110 -40.5t110 40.5t46 123.5v907q0 14 10.5 24.5t23.5 10.5h144q13 0 24 -11t11 -24v-901q0 -148 -104 -245t-265 -97zM219 1454q0 43 33 75t78 32t77.5 -32
t32.5 -75q0 -46 -32.5 -79.5t-77.5 -33.5q-46 0 -78.5 33.5t-32.5 79.5zM494 1454q0 43 32.5 75t77.5 32t78 -32t33 -75q0 -46 -32.5 -79.5t-78.5 -33.5q-45 0 -77.5 33.5t-32.5 79.5z" />
    <glyph glyph-name="Yacute" unicode="&#xdd;" horiz-adv-x="868" 
d="M541 428v-393q0 -13 -10.5 -24t-24.5 -11h-144q-13 0 -23.5 10.5t-10.5 24.5v393l-301 803q0 14 10.5 24.5t23.5 10.5h142q25 0 37 -35l194 -514l195 514q12 35 37 35h141q13 0 24 -11t11 -24zM240 1479l256 147q9 6 18 6q15 0 25 -10l94 -111q6 -6 6 -18q0 -16 -10 -23
l-275 -122q-18 -7 -26 -7q-9 0 -21 9l-71 86q-7 7 -7 18q0 14 11 25z" />
    <glyph glyph-name="Thorn" unicode="&#xde;" horiz-adv-x="884" 
d="M604 514v238q0 86 -47 135t-108 49h-138v-608h138q61 0 108 49.5t47 136.5zM98 35v1196q0 13 11 24t24 11h143q14 0 24.5 -11t10.5 -24v-125h146q94 0 175 -40t133 -121.5t52 -188.5v-250q0 -157 -107 -251.5t-253 -94.5h-146v-125q0 -13 -10.5 -24t-24.5 -11h-143
q-13 0 -24 11t-11 24z" />
    <glyph glyph-name="germandbls" unicode="&#xdf;" horiz-adv-x="974" 
d="M487 172h41q58 0 107 55.5t49 141.5t-48 134t-108 48h-41q-12 0 -21 9.5t-9 21.5v110q0 12 9 21.5t21 9.5h11q61 0 109 49t48 137v21q0 87 -47.5 132.5t-109.5 45.5h-39q-65 0 -111.5 -41t-46.5 -125v-907q0 -13 -10.5 -24t-24.5 -11h-143q-13 0 -24 11t-11 24v889
q0 152 105.5 254t265.5 102h39q97 0 180 -39t136.5 -119.5t53.5 -187.5v-33q0 -76 -29 -137.5t-116 -112.5q72 -28 123 -109t51 -165v-17q0 -106 -54 -190t-137.5 -127t-177.5 -43h-41q-12 0 -21 9.5t-9 21.5v110q0 12 9 21.5t21 9.5z" />
    <glyph glyph-name="agrave" unicode="&#xe0;" 
d="M88 291v360q0 151 74 227t205 76q35 0 60 -3t64.5 -19.5t73.5 -48.5v24q0 13 10.5 24t24.5 11h143q13 0 24 -11t11 -24v-872q0 -13 -11 -24t-24 -11h-143q-14 0 -24.5 11t-10.5 24v24q-34 -32 -73.5 -48.5t-64.5 -19.5t-60 -3q-131 0 -205 76t-74 227zM301 649v-356
q0 -63 37.5 -98t91.5 -35q61 0 98 35t37 98v356q0 63 -37 98t-98 35q-54 0 -91.5 -35t-37.5 -98zM393 1315l256 -148q10 -10 10 -24q0 -13 -6 -19l-71 -86q-11 -8 -21 -8q-11 0 -26 6l-275 123q-10 7 -10 23q0 12 6 18l94 111q10 10 25 10q9 0 18 -6z" />
    <glyph glyph-name="aacute" unicode="&#xe1;" 
d="M88 291v360q0 151 74 227t205 76q35 0 60 -3t64.5 -19.5t73.5 -48.5v24q0 13 10.5 24t24.5 11h143q13 0 24 -11t11 -24v-872q0 -13 -11 -24t-24 -11h-143q-14 0 -24.5 11t-10.5 24v24q-34 -32 -73.5 -48.5t-64.5 -19.5t-60 -3q-131 0 -205 76t-74 227zM301 649v-356
q0 -63 37.5 -98t91.5 -35q61 0 98 35t37 98v356q0 63 -37 98t-98 35q-54 0 -91.5 -35t-37.5 -98zM260 1167l256 148q9 6 19 6q14 0 24 -10l94 -111q6 -6 6 -18q0 -16 -10 -23l-274 -123q-15 -6 -27 -6q-9 0 -20 8l-72 86q-6 6 -6 19q0 14 10 24z" />
    <glyph glyph-name="acircumflex" unicode="&#xe2;" 
d="M88 291v360q0 151 74 227t205 76q35 0 60 -3t64.5 -19.5t73.5 -48.5v24q0 13 10.5 24t24.5 11h143q13 0 24 -11t11 -24v-872q0 -13 -11 -24t-24 -11h-143q-14 0 -24.5 11t-10.5 24v24q-34 -32 -73.5 -48.5t-64.5 -19.5t-60 -3q-131 0 -205 76t-74 227zM301 649v-356
q0 -63 37.5 -98t91.5 -35q61 0 98 35t37 98v356q0 63 -37 98t-98 35q-54 0 -91.5 -35t-37.5 -98zM330 1386h209q27 0 39 -36l92 -283q0 -14 -12 -25.5t-27 -11.5h-111q-27 0 -39 37l-47 168l-47 -168q-12 -37 -39 -37h-110q-15 0 -27 11.5t-12 25.5l92 283q12 36 39 36z" />
    <glyph glyph-name="atilde" unicode="&#xe3;" 
d="M88 291v360q0 151 74 227t205 76q35 0 60 -3t64.5 -19.5t73.5 -48.5v24q0 13 10.5 24t24.5 11h143q13 0 24 -11t11 -24v-872q0 -13 -11 -24t-24 -11h-143q-14 0 -24.5 11t-10.5 24v24q-34 -32 -73.5 -48.5t-64.5 -19.5t-60 -3q-131 0 -205 76t-74 227zM301 649v-356
q0 -63 37.5 -98t91.5 -35q61 0 98 35t37 98v356q0 63 -37 98t-98 35q-54 0 -91.5 -35t-37.5 -98zM565 1030q-58 0 -133 35q-56 29 -82 29q-39 0 -76 -29q-10 -10 -20 -10q-16 0 -23 10l-57 72q-6 9 -6 18q0 12 10 25q31 35 70.5 59.5t70.5 24.5q10 0 21.5 -3t18.5 -5.5
t24.5 -10.5t22.5 -10q72 -35 129 -35q38 0 75 29q10 10 21 10q15 0 22 -10l58 -72q6 -9 6 -18q0 -12 -10 -25q-30 -35 -70.5 -59.5t-71.5 -24.5z" />
    <glyph glyph-name="adieresis" unicode="&#xe4;" 
d="M88 291v360q0 151 74 227t205 76q35 0 60 -3t64.5 -19.5t73.5 -48.5v24q0 13 10.5 24t24.5 11h143q13 0 24 -11t11 -24v-872q0 -13 -11 -24t-24 -11h-143q-14 0 -24.5 11t-10.5 24v24q-34 -32 -73.5 -48.5t-64.5 -19.5t-60 -3q-131 0 -205 76t-74 227zM301 649v-356
q0 -63 37.5 -98t91.5 -35q61 0 98 35t37 98v356q0 63 -37 98t-98 35q-54 0 -91.5 -35t-37.5 -98zM193 1143q0 43 32.5 74.5t77.5 31.5q46 0 78.5 -31.5t32.5 -74.5q0 -46 -32.5 -79.5t-78.5 -33.5q-45 0 -77.5 33.5t-32.5 79.5zM467 1143q0 43 32.5 74.5t78.5 31.5
q45 0 77.5 -31.5t32.5 -74.5q0 -46 -32.5 -79.5t-77.5 -33.5q-46 0 -78.5 33.5t-32.5 79.5z" />
    <glyph glyph-name="aring" unicode="&#xe5;" 
d="M88 291v360q0 151 74 227t205 76q35 0 60 -3t64.5 -19.5t73.5 -48.5v24q0 13 10.5 24t24.5 11h143q13 0 24 -11t11 -24v-872q0 -13 -11 -24t-24 -11h-143q-14 0 -24.5 11t-10.5 24v24q-34 -32 -73.5 -48.5t-64.5 -19.5t-60 -3q-131 0 -205 76t-74 227zM301 649v-356
q0 -63 37.5 -98t91.5 -35q61 0 98 35t37 98v356q0 63 -37 98t-98 35q-54 0 -91.5 -35t-37.5 -98zM432 1030q-99 0 -154 59.5t-55 174.5q0 118 55 177.5t154 59.5t155 -60t56 -177q0 -115 -56 -174.5t-155 -59.5zM432 1169q23 0 40 25t17 70q0 49 -16.5 71.5t-40.5 22.5
q-23 0 -39 -22.5t-16 -71.5q0 -45 16.5 -70t38.5 -25z" />
    <glyph glyph-name="ae" unicode="&#xe6;" horiz-adv-x="1304" 
d="M1182 389h-434v-96q0 -58 35.5 -95.5t93.5 -37.5q42 0 73.5 20t44.5 49q11 25 35 25h144q13 0 23.5 -10.5t10.5 -24.5q-28 -102 -120 -166.5t-211 -64.5q-156 0 -256 114q-36 -40 -76.5 -65.5t-81 -35t-62.5 -11.5t-55 -2q-54 0 -103.5 16.5t-92 50.5t-68 93t-25.5 135
v63q0 104 75.5 178t201.5 74q95 0 201 -57v110q0 58 -36.5 94.5t-107.5 36.5q-91 0 -102 -90q-1 -10 -12 -16t-21 -6h-129q-13 0 -24 11t-11 24q0 87 45 144.5t112.5 81t153.5 23.5q139 0 238 -86q96 86 236 86q148 0 244 -93.5t96 -233.5v-203q0 -14 -10.5 -24.5
t-24.5 -10.5zM532 293v12q0 56 -37.5 94.5t-93.5 38.5q-53 0 -93 -39t-40 -94v-12q0 -56 39.5 -94.5t93.5 -38.5q57 0 94 38t37 95zM748 651v-90h256v90q0 56 -36 93.5t-94 37.5q-57 0 -91.5 -37t-34.5 -94z" />
    <glyph glyph-name="ccedilla" unicode="&#xe7;" horiz-adv-x="841" 
d="M514 -4l-43 -236q-6 -29 -35 -32h-147q-13 2 -22 10.5t-9 21.5l76 240q-109 27 -177.5 106.5t-68.5 190.5v330q0 140 98 233.5t246 93.5q144 0 240 -88.5t102 -222.5q0 -13 -11 -24t-24 -11h-143q-14 0 -24.5 11t-10.5 24v8q0 57 -35 94t-94 37q-57 0 -94 -37.5
t-37 -93.5v-358q0 -57 37 -95t94 -38q59 0 94 37t35 94v8q0 13 10.5 24t24.5 11h143q13 0 24 -11t11 -24q-6 -114 -76.5 -196t-183.5 -107z" />
    <glyph glyph-name="egrave" unicode="&#xe8;" horiz-adv-x="858" 
d="M735 389h-434v-96q0 -58 35.5 -95.5t93.5 -37.5q42 0 74 20t45 49q11 25 35 25h143q13 0 24 -11t11 -24q-28 -102 -120.5 -166.5t-211.5 -64.5q-141 0 -241.5 87t-100.5 222v330q0 141 96 234t246 93q148 0 244 -93.5t96 -233.5v-203q0 -14 -11 -24.5t-24 -10.5zM301 651
v-90h256v90q0 56 -35.5 93.5t-93.5 37.5q-57 0 -92 -37t-35 -94zM393 1315l256 -148q10 -10 10 -24q0 -13 -6 -19l-71 -86q-11 -8 -21 -8q-11 0 -26 6l-275 123q-10 7 -10 23q0 12 6 18l94 111q10 10 25 10q9 0 18 -6z" />
    <glyph glyph-name="eacute" unicode="&#xe9;" horiz-adv-x="858" 
d="M735 389h-434v-96q0 -58 35.5 -95.5t93.5 -37.5q42 0 74 20t45 49q11 25 35 25h143q13 0 24 -11t11 -24q-28 -102 -120.5 -166.5t-211.5 -64.5q-141 0 -241.5 87t-100.5 222v330q0 141 96 234t246 93q148 0 244 -93.5t96 -233.5v-203q0 -14 -11 -24.5t-24 -10.5zM301 651
v-90h256v90q0 56 -35.5 93.5t-93.5 37.5q-57 0 -92 -37t-35 -94zM260 1167l256 148q9 6 19 6q14 0 24 -10l94 -111q6 -6 6 -18q0 -16 -10 -23l-274 -123q-15 -6 -27 -6q-9 0 -20 8l-72 86q-6 6 -6 19q0 14 10 24z" />
    <glyph glyph-name="ecircumflex" unicode="&#xea;" horiz-adv-x="858" 
d="M735 389h-434v-96q0 -58 35.5 -95.5t93.5 -37.5q42 0 74 20t45 49q11 25 35 25h143q13 0 24 -11t11 -24q-28 -102 -120.5 -166.5t-211.5 -64.5q-141 0 -241.5 87t-100.5 222v330q0 141 96 234t246 93q148 0 244 -93.5t96 -233.5v-203q0 -14 -11 -24.5t-24 -10.5zM301 651
v-90h256v90q0 56 -35.5 93.5t-93.5 37.5q-57 0 -92 -37t-35 -94zM324 1386h208q27 0 39 -36l93 -283q0 -14 -12 -25.5t-27 -11.5h-111q-27 0 -39 37l-47 168l-47 -168q-12 -37 -39 -37h-111q-15 0 -26.5 11.5t-11.5 25.5l92 283q12 36 39 36z" />
    <glyph glyph-name="edieresis" unicode="&#xeb;" horiz-adv-x="858" 
d="M735 389h-434v-96q0 -58 35.5 -95.5t93.5 -37.5q42 0 74 20t45 49q11 25 35 25h143q13 0 24 -11t11 -24q-28 -102 -120.5 -166.5t-211.5 -64.5q-141 0 -241.5 87t-100.5 222v330q0 141 96 234t246 93q148 0 244 -93.5t96 -233.5v-203q0 -14 -11 -24.5t-24 -10.5zM301 651
v-90h256v90q0 56 -35.5 93.5t-93.5 37.5q-57 0 -92 -37t-35 -94zM184 1143q0 43 32.5 74.5t78.5 31.5t78.5 -31.5t32.5 -74.5q0 -46 -32.5 -79.5t-78.5 -33.5t-78.5 33.5t-32.5 79.5zM459 1143q0 43 32.5 74.5t77.5 31.5q46 0 78.5 -31.5t32.5 -74.5q0 -46 -32.5 -79.5
t-78.5 -33.5q-45 0 -77.5 33.5t-32.5 79.5z" />
    <glyph glyph-name="igrave" unicode="&#xec;" horiz-adv-x="409" 
d="M311 907v-872q0 -13 -10.5 -24t-24.5 -11h-143q-13 0 -24 11t-11 24v872q0 13 11 24t24 11h143q14 0 24.5 -11t10.5 -24zM143 1315l256 -148q11 -11 11 -24q0 -12 -7 -19l-71 -86q-11 -8 -21 -8q-11 0 -26 6l-275 123q-10 7 -10 23q0 12 6 18l94 111q10 10 25 10
q9 0 18 -6z" />
    <glyph glyph-name="iacute" unicode="&#xed;" horiz-adv-x="409" 
d="M98 35v872q0 13 11 24t24 11h143q14 0 24.5 -11t10.5 -24v-872q0 -13 -10.5 -24t-24.5 -11h-143q-13 0 -24 11t-11 24zM10 1167l256 148q9 6 19 6q14 0 24 -10l94 -111q7 -7 7 -18q0 -16 -11 -23l-274 -123q-15 -6 -27 -6q-9 0 -20 8l-72 86q-6 6 -6 19q0 14 10 24z" />
    <glyph glyph-name="icircumflex" unicode="&#xee;" horiz-adv-x="409" 
d="M311 907v-872q0 -13 -10.5 -24t-24.5 -11h-143q-13 0 -24 11t-11 24v872q0 13 11 24t24 11h143q14 0 24.5 -11t10.5 -24zM309 1386h-209q-27 0 -39 -36l-92 -283q0 -14 12 -25.5t27 -11.5h111q27 0 39 37l47 168l47 -168q12 -37 39 -37h110q15 0 27 11.5t12 25.5l-92 283
q-12 36 -39 36z" />
    <glyph glyph-name="idieresis" unicode="&#xef;" horiz-adv-x="409" 
d="M311 907v-872q0 -13 -10.5 -24t-24.5 -11h-143q-13 0 -24 11t-11 24v872q0 13 11 24t24 11h143q14 0 24.5 -11t10.5 -24zM-43 1143q0 -46 32.5 -79.5t78.5 -33.5q45 0 77.5 33.5t32.5 79.5q0 43 -32.5 74.5t-77.5 31.5q-46 0 -78.5 -31.5t-32.5 -74.5zM231 1143
q0 -46 32.5 -79.5t78.5 -33.5t78.5 33.5t32.5 79.5q0 43 -32.5 74.5t-78.5 31.5t-78.5 -31.5t-32.5 -74.5z" />
    <glyph glyph-name="eth" unicode="&#xf0;" horiz-adv-x="841" 
d="M739 770q15 -39 15 -106v-371q0 -133 -99 -219t-241 -86q-141 0 -238.5 86t-97.5 219v186q0 143 69 231.5t205 88.5q58 0 100 -14t89 -54l-90 238h-197q-9 0 -16 6.5t-7 15.5v101q0 9 7 15.5t16 6.5h139l-45 117q0 13 11 24t24 11h141q25 0 37 -35l45 -117h121
q9 0 16 -6.5t7 -15.5v-101q0 -9 -7 -15.5t-16 -6.5h-63zM541 293v205q0 57 -35 94t-92 37q-56 0 -89.5 -37t-33.5 -94v-205q0 -58 33.5 -95.5t89.5 -37.5q58 0 92.5 37.5t34.5 95.5z" />
    <glyph glyph-name="ntilde" unicode="&#xf1;" 
d="M98 35v872q0 13 11 24t24 11h143q14 0 24.5 -11t10.5 -24v-24q34 31 74 48t65 20t60 3q131 0 204.5 -76t73.5 -227v-616q0 -14 -10.5 -24.5t-23.5 -10.5h-144q-14 0 -24.5 11t-10.5 24v614q0 63 -37.5 98t-91.5 35q-61 0 -98 -35t-37 -98v-614q0 -13 -10.5 -24t-24.5 -11
h-143q-13 0 -24 11t-11 24zM573 1030q-58 0 -133 35q-56 29 -82 29q-38 0 -75 -29q-10 -10 -21 -10q-15 0 -22 10l-58 72q-6 9 -6 18q0 12 10 25q30 35 70.5 59.5t71.5 24.5q10 0 21.5 -3t18.5 -6t23.5 -10t22.5 -10q72 -35 129 -35q38 0 75 29q10 10 21 10q16 0 23 -10
l57 -72q6 -9 6 -18q0 -12 -10 -25q-30 -35 -70.5 -59.5t-71.5 -24.5z" />
    <glyph glyph-name="ograve" unicode="&#xf2;" horiz-adv-x="856" 
d="M428 954q147 0 243.5 -93.5t96.5 -233.5v-330q0 -135 -99 -222t-241 -87t-241 87t-99 222v330q0 140 96.5 233.5t243.5 93.5zM428 160q56 0 91.5 37.5t35.5 95.5v358q0 56 -35.5 93.5t-91.5 37.5t-91.5 -37.5t-35.5 -93.5v-358q0 -58 35.5 -95.5t91.5 -37.5zM391 1315
l256 -148q10 -10 10 -24q0 -13 -6 -19l-71 -86q-11 -8 -21 -8q-12 0 -27 6l-274 123q-10 7 -10 23q0 12 6 18l94 111q10 10 25 10q9 0 18 -6z" />
    <glyph glyph-name="oacute" unicode="&#xf3;" horiz-adv-x="856" 
d="M428 954q147 0 243.5 -93.5t96.5 -233.5v-330q0 -135 -99 -222t-241 -87t-241 87t-99 222v330q0 140 96.5 233.5t243.5 93.5zM428 160q56 0 91.5 37.5t35.5 95.5v358q0 56 -35.5 93.5t-91.5 37.5t-91.5 -37.5t-35.5 -93.5v-358q0 -58 35.5 -95.5t91.5 -37.5zM258 1167
l256 148q9 6 18 6q15 0 25 -10l94 -111q6 -6 6 -18q0 -16 -10 -23l-274 -123q-15 -6 -27 -6q-9 0 -20 8l-72 86q-6 6 -6 19q0 14 10 24z" />
    <glyph glyph-name="ocircumflex" unicode="&#xf4;" horiz-adv-x="856" 
d="M428 954q147 0 243.5 -93.5t96.5 -233.5v-330q0 -135 -99 -222t-241 -87t-241 87t-99 222v330q0 140 96.5 233.5t243.5 93.5zM428 160q56 0 91.5 37.5t35.5 95.5v358q0 56 -35.5 93.5t-91.5 37.5t-91.5 -37.5t-35.5 -93.5v-358q0 -58 35.5 -95.5t91.5 -37.5zM324 1386
h208q27 0 39 -36l93 -283q0 -14 -12 -25.5t-27 -11.5h-111q-27 0 -39 37l-47 168l-47 -168q-12 -37 -39 -37h-111q-15 0 -26.5 11.5t-11.5 25.5l92 283q12 36 39 36z" />
    <glyph glyph-name="otilde" unicode="&#xf5;" horiz-adv-x="856" 
d="M428 954q147 0 243.5 -93.5t96.5 -233.5v-330q0 -135 -99 -222t-241 -87t-241 87t-99 222v330q0 140 96.5 233.5t243.5 93.5zM428 160q56 0 91.5 37.5t35.5 95.5v358q0 56 -35.5 93.5t-91.5 37.5t-91.5 -37.5t-35.5 -93.5v-358q0 -58 35.5 -95.5t91.5 -37.5zM551 1030
q-58 0 -133 35q-56 29 -82 29q-39 0 -76 -29q-10 -10 -20 -10q-16 0 -23 10l-57 72q-6 9 -6 18q0 12 10 25q31 35 70.5 59.5t70.5 24.5q10 0 21.5 -3t18.5 -6t23.5 -10t22.5 -10q72 -35 129 -35q39 0 76 29q10 10 20 10q16 0 23 -10l57 -72q6 -9 6 -18q0 -12 -10 -25
q-31 -35 -70.5 -59.5t-70.5 -24.5z" />
    <glyph glyph-name="odieresis" unicode="&#xf6;" horiz-adv-x="856" 
d="M428 954q147 0 243.5 -93.5t96.5 -233.5v-330q0 -135 -99 -222t-241 -87t-241 87t-99 222v330q0 140 96.5 233.5t243.5 93.5zM428 160q56 0 91.5 37.5t35.5 95.5v358q0 56 -35.5 93.5t-91.5 37.5t-91.5 -37.5t-35.5 -93.5v-358q0 -58 35.5 -95.5t91.5 -37.5zM180 1143
q0 43 32.5 74.5t78.5 31.5q45 0 77.5 -31.5t32.5 -74.5q0 -46 -32.5 -79.5t-77.5 -33.5q-46 0 -78.5 33.5t-32.5 79.5zM455 1143q0 43 32.5 74.5t77.5 31.5q46 0 78.5 -31.5t32.5 -74.5q0 -46 -32.5 -79.5t-78.5 -33.5q-45 0 -77.5 33.5t-32.5 79.5z" />
    <glyph glyph-name="divide" unicode="&#xf7;" horiz-adv-x="755" 
d="M125 446h506q11 0 18.5 -8t7.5 -18v-119q0 -11 -8 -19t-18 -8h-506q-11 0 -19 8t-8 19v119q0 10 8 18t19 8zM268 100q0 -46 32.5 -79t78.5 -33t78 33t32 79q0 43 -32.5 75t-77.5 32t-78 -32t-33 -75zM268 610q0 -43 32.5 -74.5t78.5 -31.5q45 0 77.5 31.5t32.5 74.5
q0 46 -32.5 79.5t-77.5 33.5q-46 0 -78.5 -33.5t-32.5 -79.5z" />
    <glyph glyph-name="oslash" unicode="&#xf8;" horiz-adv-x="856" 
d="M500 948q120 -22 194 -110t74 -211v-330q0 -113 -70 -193.5t-180 -105.5l-43 -223q-7 -30 -35 -33h-147q-13 2 -22 11t-9 22l72 225q-109 27 -177.5 106.5t-68.5 190.5v330q0 112 62.5 196t166.5 115l45 250q7 30 35 33h148q12 -2 21 -11t9 -22zM555 293v358
q0 56 -35.5 93.5t-91.5 37.5t-91.5 -37.5t-35.5 -93.5v-358q0 -58 35.5 -95.5t91.5 -37.5t91.5 37.5t35.5 95.5z" />
    <glyph glyph-name="ugrave" unicode="&#xf9;" 
d="M778 907v-872q0 -13 -11 -24t-24 -11h-143q-14 0 -24.5 11t-10.5 24v24q-34 -32 -73.5 -48.5t-64.5 -19.5t-60 -3q-131 0 -205 76t-74 227v616q0 13 11 24t24 11h143q14 0 24.5 -11t10.5 -24v-614q0 -63 37.5 -98t91.5 -35q61 0 98 35t37 98v614q0 13 10.5 24t24.5 11
h143q13 0 24 -11t11 -24zM377 1315l256 -148q10 -10 10 -24q0 -13 -6 -19l-72 -86q-11 -8 -20 -8q-12 0 -27 6l-274 123q-11 7 -11 23q0 11 7 18l94 111q10 10 24 10q10 0 19 -6z" />
    <glyph glyph-name="uacute" unicode="&#xfa;" 
d="M778 907v-872q0 -13 -11 -24t-24 -11h-143q-14 0 -24.5 11t-10.5 24v24q-34 -32 -73.5 -48.5t-64.5 -19.5t-60 -3q-131 0 -205 76t-74 227v616q0 13 11 24t24 11h143q14 0 24.5 -11t10.5 -24v-614q0 -63 37.5 -98t91.5 -35q61 0 98 35t37 98v614q0 13 10.5 24t24.5 11
h143q13 0 24 -11t11 -24zM244 1167l256 148q9 6 18 6q15 0 25 -10l94 -111q6 -6 6 -18q0 -16 -10 -23l-275 -123q-15 -6 -26 -6q-10 0 -21 8l-71 86q-7 7 -7 19q0 13 11 24z" />
    <glyph glyph-name="ucircumflex" unicode="&#xfb;" 
d="M778 907v-872q0 -13 -11 -24t-24 -11h-143q-14 0 -24.5 11t-10.5 24v24q-34 -32 -73.5 -48.5t-64.5 -19.5t-60 -3q-131 0 -205 76t-74 227v616q0 13 11 24t24 11h143q14 0 24.5 -11t10.5 -24v-614q0 -63 37.5 -98t91.5 -35q61 0 98 35t37 98v614q0 13 10.5 24t24.5 11
h143q13 0 24 -11t11 -24zM328 1386h209q26 0 38 -36l93 -283q0 -14 -12 -25.5t-27 -11.5h-111q-27 0 -39 37l-47 168l-47 -168q-12 -37 -39 -37h-110q-15 0 -27 11.5t-12 25.5l92 283q12 36 39 36z" />
    <glyph glyph-name="udieresis" unicode="&#xfc;" 
d="M778 907v-872q0 -13 -11 -24t-24 -11h-143q-14 0 -24.5 11t-10.5 24v24q-34 -32 -73.5 -48.5t-64.5 -19.5t-60 -3q-131 0 -205 76t-74 227v616q0 13 11 24t24 11h143q14 0 24.5 -11t10.5 -24v-614q0 -63 37.5 -98t91.5 -35q61 0 98 35t37 98v614q0 13 10.5 24t24.5 11
h143q13 0 24 -11t11 -24zM182 1143q0 43 32.5 74.5t78.5 31.5q45 0 77.5 -31.5t32.5 -74.5q0 -46 -32.5 -79.5t-77.5 -33.5q-46 0 -78.5 33.5t-32.5 79.5zM457 1143q0 43 32.5 74.5t77.5 31.5q46 0 78.5 -31.5t32.5 -74.5q0 -46 -32.5 -79.5t-78.5 -33.5q-45 0 -77.5 33.5
t-32.5 79.5z" />
    <glyph glyph-name="yacute" unicode="&#xfd;" horiz-adv-x="774" 
d="M223 -285l70 279q-39 135 -132.5 453.5t-133.5 459.5q0 14 10.5 24.5t23.5 10.5h142q29 0 37 -35l161 -563l134 563q8 35 36 35h142q13 0 24 -11t11 -24l-310 -1192q-8 -34 -37 -34h-143q-14 0 -24.5 10.5t-10.5 23.5zM229 1167l256 148q9 6 19 6q14 0 24 -10l95 -111
q6 -6 6 -18q0 -16 -11 -23l-274 -123q-15 -6 -27 -6q-9 0 -20 8l-72 86q-6 6 -6 19q0 14 10 24z" />
    <glyph glyph-name="thorn" unicode="&#xfe;" 
d="M788 651v-360q0 -151 -73.5 -227t-204.5 -76q-35 0 -60 3t-65 20t-74 48v-344q0 -13 -10.5 -23.5t-24.5 -10.5h-143q-14 0 -24.5 10.5t-10.5 23.5v1516q0 13 11 24t24 11h143q14 0 24.5 -11t10.5 -24v-348q34 31 74 48t65 20t60 3q131 0 204.5 -76t73.5 -227zM575 293
v356q0 63 -37.5 98t-91.5 35q-61 0 -98 -35t-37 -98v-356q0 -63 37 -98t98 -35q54 0 91.5 35t37.5 98z" />
    <glyph glyph-name="ydieresis" unicode="&#xff;" horiz-adv-x="774" 
d="M223 -285l70 279q-39 135 -132.5 453.5t-133.5 459.5q0 14 10.5 24.5t23.5 10.5h142q29 0 37 -35l161 -563l134 563q8 35 36 35h142q13 0 24 -11t11 -24l-310 -1192q-8 -34 -37 -34h-143q-14 0 -24.5 10.5t-10.5 23.5zM154 1143q0 43 32.5 74.5t77.5 31.5
q46 0 78.5 -31.5t32.5 -74.5q0 -46 -32.5 -79.5t-78.5 -33.5q-45 0 -77.5 33.5t-32.5 79.5zM428 1143q0 43 32.5 74.5t78.5 31.5q45 0 77.5 -31.5t32.5 -74.5q0 -46 -32.5 -79.5t-77.5 -33.5q-46 0 -78.5 33.5t-32.5 79.5z" />
    <glyph glyph-name="Amacron" unicode="&#x100;" horiz-adv-x="892" 
d="M340 1266h213q13 0 22.5 -10.5t12.5 -24.5l268 -1196q0 -13 -11 -24t-24 -11h-141q-29 0 -37 35l-35 158h-325l-33 -158q-8 -35 -37 -35h-141q-14 0 -24.5 11t-10.5 24l268 1196q3 14 12.5 24.5t22.5 10.5zM446 954l-127 -589h252zM233 1513h426q11 0 19 -8t8 -18v-119
q0 -10 -8 -18.5t-19 -8.5h-426q-10 0 -18 8t-8 19v119q0 11 7.5 18.5t18.5 7.5z" />
    <glyph glyph-name="amacron" unicode="&#x101;" 
d="M88 291v360q0 151 74 227t205 76q35 0 60 -3t64.5 -19.5t73.5 -48.5v24q0 13 10.5 24t24.5 11h143q13 0 24 -11t11 -24v-872q0 -13 -11 -24t-24 -11h-143q-14 0 -24.5 11t-10.5 24v24q-34 -32 -73.5 -48.5t-64.5 -19.5t-60 -3q-131 0 -205 76t-74 227zM301 649v-356
q0 -63 37.5 -98t91.5 -35q61 0 98 35t37 98v356q0 63 -37 98t-98 35q-54 0 -91.5 -35t-37.5 -98zM229 1202h426q11 0 19 -8t8 -18v-119q0 -11 -8 -19t-19 -8h-426q-10 0 -18 8t-8 19v119q0 10 7.5 18t18.5 8z" />
    <glyph glyph-name="Abreve" unicode="&#x102;" horiz-adv-x="892" 
d="M340 1266h213q13 0 22.5 -10.5t12.5 -24.5l268 -1196q0 -13 -11 -24t-24 -11h-141q-29 0 -37 35l-35 158h-325l-33 -158q-8 -35 -37 -35h-141q-14 0 -24.5 11t-10.5 24l268 1196q3 14 12.5 24.5t22.5 10.5zM446 954l-127 -589h252zM446 1341q-49 0 -89 6t-78.5 23
t-64.5 43.5t-43 71t-19 102.5q0 12 9 21.5t21 9.5h129q12 0 21.5 -9.5t9.5 -21.5q0 -38 29 -59t75 -21t75.5 21t29.5 59q0 12 9.5 21.5t21.5 9.5h129q12 0 21 -9.5t9 -21.5q-2 -73 -26.5 -123t-67.5 -76t-91 -36.5t-110 -10.5z" />
    <glyph glyph-name="abreve" unicode="&#x103;" 
d="M88 291v360q0 151 74 227t205 76q35 0 60 -3t64.5 -19.5t73.5 -48.5v24q0 13 10.5 24t24.5 11h143q13 0 24 -11t11 -24v-872q0 -13 -11 -24t-24 -11h-143q-14 0 -24.5 11t-10.5 24v24q-34 -32 -73.5 -48.5t-64.5 -19.5t-60 -3q-131 0 -205 76t-74 227zM301 649v-356
q0 -63 37.5 -98t91.5 -35q61 0 98 35t37 98v356q0 63 -37 98t-98 35q-54 0 -91.5 -35t-37.5 -98zM457 1030q-62 0 -110 10.5t-91 36.5t-67.5 76t-26.5 123q0 12 9.5 21.5t21.5 9.5h129q12 0 21 -9.5t9 -21.5q0 -38 29.5 -59t75.5 -21t75 21t29 59q0 12 9.5 21.5t21.5 9.5
h129q12 0 21.5 -9.5t9.5 -21.5q-2 -73 -26.5 -123t-67.5 -76t-91 -36.5t-110 -10.5z" />
    <glyph glyph-name="Aogonek" unicode="&#x104;" horiz-adv-x="892" 
d="M340 1266h213q13 0 22.5 -10.5t12.5 -24.5l268 -1196q0 -13 -11 -24t-24 -11h-47q-86 -44 -86 -131q0 -29 21.5 -51.5t52.5 -22.5q11 0 65 6q19 0 23 -20v-107q-4 -15 -21 -18q-44 -6 -88 -6q-63 0 -110 21.5t-70.5 55t-34 65.5t-10.5 61q0 154 121 204l-29 136h-325
l-33 -158q-8 -35 -37 -35h-141q-14 0 -24.5 11t-10.5 24l268 1196q3 14 12.5 24.5t22.5 10.5zM446 954l-127 -589h252z" />
    <glyph glyph-name="aogonek" unicode="&#x105;" 
d="M88 291v360q0 151 74 227t205 76q35 0 60 -3t64.5 -19.5t73.5 -48.5v24q0 13 10.5 24t24.5 11h143q13 0 24 -11t11 -24v-872q0 -13 -11 -24t-24 -11h-45q-86 -44 -86 -131q0 -29 21.5 -51.5t52.5 -22.5q12 0 66 6q18 0 22 -20v-107q-4 -15 -20 -18q-44 -6 -88 -6
q-51 0 -92 15t-65.5 37t-40.5 50.5t-22 53t-6 47.5q0 27 14 73t40 84q-52 -22 -127 -22q-131 0 -205 76t-74 227zM301 649v-356q0 -63 37.5 -98t91.5 -35q61 0 98 35t37 98v356q0 63 -37 98t-98 35q-54 0 -91.5 -35t-37.5 -98z" />
    <glyph glyph-name="Cacute" unicode="&#x106;" horiz-adv-x="860" 
d="M823 319q-9 -142 -112.5 -236.5t-255.5 -94.5q-159 0 -263 97t-104 245v606q0 148 104 246t263 98q151 0 255.5 -95t112.5 -237q0 -14 -10.5 -24.5t-24.5 -10.5h-143q-13 0 -24 10.5t-11 24.5q-1 81 -46.5 120.5t-108.5 39.5t-108.5 -40.5t-45.5 -123.5v-620
q0 -83 45.5 -123.5t108.5 -40.5q62 0 107 40t48 119q0 13 11 24t24 11h143q14 0 24.5 -11t10.5 -24zM217 1479l256 147q9 6 19 6q14 0 24 -10l94 -111q6 -6 6 -18q0 -16 -10 -23l-274 -122q-18 -7 -27 -7q-8 0 -20 9l-72 86q-6 6 -6 18q0 15 10 25z" />
    <glyph glyph-name="cacute" unicode="&#x107;" horiz-adv-x="841" 
d="M432 160q59 0 94 37t35 94v8q0 13 10.5 24t24.5 11h143q13 0 24 -11t11 -24q-6 -134 -102 -222.5t-240 -88.5q-143 0 -243.5 87t-100.5 222v330q0 140 98 233.5t246 93.5q144 0 240 -88.5t102 -222.5q0 -13 -11 -24t-24 -11h-143q-14 0 -24.5 11t-10.5 24v8q0 57 -35 94
t-94 37q-57 0 -94 -37.5t-37 -93.5v-358q0 -57 37 -95t94 -38zM211 1167l256 148q9 6 18 6q15 0 25 -10l94 -111q6 -6 6 -18q0 -16 -10 -23l-274 -123q-15 -6 -27 -6q-9 0 -20 8l-72 86q-6 6 -6 19q0 14 10 24z" />
    <glyph glyph-name="Ccircumflex" unicode="&#x108;" horiz-adv-x="860" 
d="M823 319q-9 -142 -112.5 -236.5t-255.5 -94.5q-159 0 -263 97t-104 245v606q0 148 104 246t263 98q151 0 255.5 -95t112.5 -237q0 -14 -10.5 -24.5t-24.5 -10.5h-143q-13 0 -24 10.5t-11 24.5q-1 81 -46.5 120.5t-108.5 39.5t-108.5 -40.5t-45.5 -123.5v-620
q0 -83 45.5 -123.5t108.5 -40.5q62 0 107 40t48 119q0 13 11 24t24 11h143q14 0 24.5 -11t10.5 -24zM553 1698h-209q-27 0 -39 -37l-92 -283q0 -14 12 -25.5t27 -11.5h110q27 0 39 37l48 168l47 -168q12 -37 39 -37h110q15 0 27 11.5t12 25.5l-92 283q-12 37 -39 37z" />
    <glyph glyph-name="ccircumflex" unicode="&#x109;" horiz-adv-x="841" 
d="M432 160q59 0 94 37t35 94v8q0 13 10.5 24t24.5 11h143q13 0 24 -11t11 -24q-6 -134 -102 -222.5t-240 -88.5q-143 0 -243.5 87t-100.5 222v330q0 140 98 233.5t246 93.5q144 0 240 -88.5t102 -222.5q0 -13 -11 -24t-24 -11h-143q-14 0 -24.5 11t-10.5 24v8q0 57 -35 94
t-94 37q-57 0 -94 -37.5t-37 -93.5v-358q0 -57 37 -95t94 -38zM539 1386h-209q-27 0 -39 -36l-92 -283q0 -14 12 -25.5t27 -11.5h110q27 0 39 37l47 168l47 -168q12 -37 39 -37h111q15 0 27 11.5t12 25.5l-92 283q-12 36 -39 36z" />
    <glyph glyph-name="Cdotaccent" unicode="&#x10a;" horiz-adv-x="860" 
d="M823 319q-9 -142 -112.5 -236.5t-255.5 -94.5q-159 0 -263 97t-104 245v606q0 148 104 246t263 98q151 0 255.5 -95t112.5 -237q0 -14 -10.5 -24.5t-24.5 -10.5h-143q-13 0 -24 10.5t-11 24.5q-1 81 -46.5 120.5t-108.5 39.5t-108.5 -40.5t-45.5 -123.5v-620
q0 -83 45.5 -123.5t108.5 -40.5q62 0 107 40t48 119q0 13 11 24t24 11h143q14 0 24.5 -11t10.5 -24zM346 1454q0 -46 32.5 -79.5t78.5 -33.5q45 0 77.5 33.5t32.5 79.5q0 43 -32.5 75t-77.5 32t-78 -32t-33 -75z" />
    <glyph glyph-name="cdotaccent" unicode="&#x10b;" horiz-adv-x="841" 
d="M432 160q59 0 94 37t35 94v8q0 13 10.5 24t24.5 11h143q13 0 24 -11t11 -24q-6 -134 -102 -222.5t-240 -88.5q-143 0 -243.5 87t-100.5 222v330q0 140 98 233.5t246 93.5q144 0 240 -88.5t102 -222.5q0 -13 -11 -24t-24 -11h-143q-14 0 -24.5 11t-10.5 24v8q0 57 -35 94
t-94 37q-57 0 -94 -37.5t-37 -93.5v-358q0 -57 37 -95t94 -38zM313 1143q0 -46 32.5 -79.5t78.5 -33.5t78.5 33.5t32.5 79.5q0 43 -32.5 74.5t-78.5 31.5t-78.5 -31.5t-32.5 -74.5z" />
    <glyph glyph-name="Ccaron" unicode="&#x10c;" horiz-adv-x="860" 
d="M823 319q-9 -142 -112.5 -236.5t-255.5 -94.5q-159 0 -263 97t-104 245v606q0 148 104 246t263 98q151 0 255.5 -95t112.5 -237q0 -14 -10.5 -24.5t-24.5 -10.5h-143q-13 0 -24 10.5t-11 24.5q-1 81 -46.5 120.5t-108.5 39.5t-108.5 -40.5t-45.5 -123.5v-620
q0 -83 45.5 -123.5t108.5 -40.5q62 0 107 40t48 119q0 13 11 24t24 11h143q14 0 24.5 -11t10.5 -24zM348 1341h209q27 0 39 37l92 283q0 14 -12 25.5t-27 11.5h-110q-27 0 -39 -37l-47 -168l-47 168q-12 37 -39 37h-111q-15 0 -27 -11.5t-12 -25.5l92 -283q12 -37 39 -37z
" />
    <glyph glyph-name="ccaron" unicode="&#x10d;" horiz-adv-x="841" 
d="M432 160q59 0 94 37t35 94v8q0 13 10.5 24t24.5 11h143q13 0 24 -11t11 -24q-6 -134 -102 -222.5t-240 -88.5q-143 0 -243.5 87t-100.5 222v330q0 140 98 233.5t246 93.5q144 0 240 -88.5t102 -222.5q0 -13 -11 -24t-24 -11h-143q-14 0 -24.5 11t-10.5 24v8q0 57 -35 94
t-94 37q-57 0 -94 -37.5t-37 -93.5v-358q0 -57 37 -95t94 -38zM326 1030h209q26 0 38 37l93 283q0 14 -12 25t-27 11h-111q-27 0 -39 -36l-47 -168l-47 168q-12 36 -39 36h-111q-15 0 -26.5 -11t-11.5 -25l92 -283q12 -37 39 -37z" />
    <glyph glyph-name="Dcaron" unicode="&#x10e;" horiz-adv-x="909" 
d="M618 334v598q0 83 -45 122.5t-108 39.5h-154v-922h154q63 0 108 39.5t45 122.5zM133 1266h332q157 0 261.5 -98.5t104.5 -247.5v-576q0 -149 -104.5 -246.5t-261.5 -97.5h-332q-13 0 -24 11t-11 24v1196q0 13 11 24t24 11zM516 1341h-209q-27 0 -39 37l-92 283
q0 14 12 25.5t27 11.5h111q27 0 39 -37l47 -168l47 168q12 37 39 37h110q15 0 27 -11.5t12 -25.5l-92 -283q-12 -37 -39 -37z" />
    <glyph glyph-name="dcaron" unicode="&#x10f;" horiz-adv-x="1155" 
d="M88 291v360q0 151 74 227t205 76q35 0 60 -3t64.5 -19.5t73.5 -48.5v348q0 13 10.5 24t24.5 11h143q13 0 24 -11t11 -24v-1196q0 -13 -11 -24t-24 -11h-143q-14 0 -24.5 11t-10.5 24v24q-34 -32 -73.5 -48.5t-64.5 -19.5t-60 -3q-131 0 -205 76t-74 227zM301 649v-356
q0 -63 37.5 -98t91.5 -35q61 0 98 35t37 98v356q0 63 -37 98t-98 35q-54 0 -91.5 -35t-37.5 -98zM973 1239l-19 -215q0 -10 8 -18.5t19 -10.5h90q20 3 27 29l49 215q0 10 -7.5 17.5t-17.5 9.5h-123q-23 -3 -26 -27z" />
    <glyph glyph-name="Dcroat" unicode="&#x110;" horiz-adv-x="931" 
d="M487 1266q157 0 262 -98.5t105 -247.5v-576q0 -149 -105 -246.5t-262 -97.5h-331q-14 0 -24.5 11t-10.5 24v491h-78q-11 0 -19 8t-8 19v119q0 10 8 18t19 8h78v533q0 13 10.5 24t24.5 11h331zM641 334v598q0 82 -45.5 122t-108.5 40h-153v-396h117q11 0 18.5 -8t7.5 -18
v-119q0 -11 -8 -19t-18 -8h-117v-354h153q63 0 108.5 40t45.5 122z" />
    <glyph glyph-name="dcroat" unicode="&#x111;" horiz-adv-x="911" 
d="M852 1190q9 0 15.5 -7t6.5 -16v-104q0 -9 -6.5 -16t-15.5 -7h-74v-1005q0 -13 -11 -24t-24 -11h-143q-14 0 -24.5 11t-10.5 24v24q-34 -32 -73.5 -48.5t-64.5 -19.5t-60 -3q-131 0 -205 76t-74 227v360q0 151 74 227t205 76q35 0 60 -3t64.5 -19.5t73.5 -48.5v157h-86
q-9 0 -15.5 7t-6.5 16v104q0 9 6.5 16t15.5 7h86v41q0 13 10.5 24t24.5 11h143q13 0 24 -11t11 -24v-41h74zM565 293v356q0 63 -37 98t-98 35q-54 0 -91.5 -35t-37.5 -98v-356q0 -63 37.5 -98t91.5 -35q61 0 98 35t37 98z" />
    <glyph glyph-name="Emacron" unicode="&#x112;" horiz-adv-x="759" 
d="M311 1096v-416h244q11 0 19 -8t8 -19v-116q0 -11 -8 -19t-19 -8h-244v-338h344q11 0 19 -8t8 -19v-118q0 -11 -8 -19t-19 -8h-522q-13 0 -24 11t-11 24v1196q0 13 11 24t24 11h522q11 0 19 -8t8 -19v-117q0 -10 -8 -18t-19 -8h-344zM186 1513h426q11 0 19 -8t8 -18v-119
q0 -10 -8.5 -18.5t-18.5 -8.5h-426q-10 0 -18 8t-8 19v119q0 11 8 18.5t18 7.5z" />
    <glyph glyph-name="emacron" unicode="&#x113;" horiz-adv-x="858" 
d="M735 389h-434v-96q0 -58 35.5 -95.5t93.5 -37.5q42 0 74 20t45 49q11 25 35 25h143q13 0 24 -11t11 -24q-28 -102 -120.5 -166.5t-211.5 -64.5q-141 0 -241.5 87t-100.5 222v330q0 141 96 234t246 93q148 0 244 -93.5t96 -233.5v-203q0 -14 -11 -24.5t-24 -10.5zM301 651
v-90h256v90q0 56 -35.5 93.5t-93.5 37.5q-57 0 -92 -37t-35 -94zM211 1202h426q11 0 19 -8t8 -18v-119q0 -11 -8 -19t-19 -8h-426q-11 0 -19 8t-8 19v119q0 10 8 18t19 8z" />
    <glyph glyph-name="Edotaccent" unicode="&#x116;" horiz-adv-x="759" 
d="M311 1096v-416h244q11 0 19 -8t8 -19v-116q0 -11 -8 -19t-19 -8h-244v-338h344q11 0 19 -8t8 -19v-118q0 -11 -8 -19t-19 -8h-522q-13 0 -24 11t-11 24v1196q0 13 11 24t24 11h522q11 0 19 -8t8 -19v-117q0 -10 -8 -18t-19 -8h-344zM295 1454q0 43 33 75t78 32t77.5 -32
t32.5 -75q0 -46 -32.5 -79.5t-77.5 -33.5q-46 0 -78.5 33.5t-32.5 79.5z" />
    <glyph glyph-name="edotaccent" unicode="&#x117;" horiz-adv-x="858" 
d="M735 389h-434v-96q0 -58 35.5 -95.5t93.5 -37.5q42 0 74 20t45 49q11 25 35 25h143q13 0 24 -11t11 -24q-28 -102 -120.5 -166.5t-211.5 -64.5q-141 0 -241.5 87t-100.5 222v330q0 141 96 234t246 93q148 0 244 -93.5t96 -233.5v-203q0 -14 -11 -24.5t-24 -10.5zM301 651
v-90h256v90q0 56 -35.5 93.5t-93.5 37.5q-57 0 -92 -37t-35 -94zM319 1143q0 43 32.5 74.5t78.5 31.5t78.5 -31.5t32.5 -74.5q0 -46 -32.5 -79.5t-78.5 -33.5t-78.5 33.5t-32.5 79.5z" />
    <glyph glyph-name="Eogonek" unicode="&#x118;" horiz-adv-x="759" 
d="M311 1096v-416h244q11 0 19 -8t8 -19v-116q0 -11 -8 -19t-19 -8h-244v-338h344q11 0 19 -8t8 -19v-118q0 -11 -8 -19t-19 -8h-53q-86 -44 -86 -131q0 -29 21.5 -51.5t52.5 -22.5q11 0 65 6q19 0 23 -20v-107q-4 -15 -21 -18q-43 -6 -88 -6q-63 0 -110 21.5t-70.5 55
t-34 65.5t-10.5 61q0 84 51 147h-262q-13 0 -24 11t-11 24v1196q0 13 11 24t24 11h522q11 0 19 -8t8 -19v-117q0 -10 -8 -18t-19 -8h-344z" />
    <glyph glyph-name="eogonek" unicode="&#x119;" horiz-adv-x="858" 
d="M735 389h-434v-96q0 -58 35.5 -95.5t93.5 -37.5q42 0 74 20t45 49q11 25 35 25h143q13 0 24 -11t11 -24q-22 -75 -79 -131.5t-136 -81.5q-98 -43 -98 -137q0 -29 21 -51.5t52 -22.5q12 0 66 6q18 0 22 -20v-107q-4 -15 -20 -18q-44 -6 -88 -6q-51 0 -92 15t-65.5 37
t-40.5 50.5t-22 53t-6 47.5q0 83 52 147q-106 29 -173 108.5t-67 188.5v330q0 141 96 234t246 93q148 0 244 -93.5t96 -233.5v-203q0 -14 -11 -24.5t-24 -10.5zM301 651v-90h256v90q0 56 -35.5 93.5t-93.5 37.5q-57 0 -92 -37t-35 -94z" />
    <glyph glyph-name="Ecaron" unicode="&#x11a;" horiz-adv-x="759" 
d="M311 1096v-416h244q11 0 19 -8t8 -19v-116q0 -11 -8 -19t-19 -8h-244v-338h344q11 0 19 -8t8 -19v-118q0 -11 -8 -19t-19 -8h-522q-13 0 -24 11t-11 24v1196q0 13 11 24t24 11h522q11 0 19 -8t8 -19v-117q0 -10 -8 -18t-19 -8h-344zM514 1341h-209q-27 0 -39 37l-92 283
q0 14 12 25.5t27 11.5h111q26 0 38 -37l48 -168l47 168q12 37 39 37h110q15 0 27 -11.5t12 -25.5l-92 -283q-12 -37 -39 -37z" />
    <glyph glyph-name="ecaron" unicode="&#x11b;" horiz-adv-x="858" 
d="M735 389h-434v-96q0 -58 35.5 -95.5t93.5 -37.5q42 0 74 20t45 49q11 25 35 25h143q13 0 24 -11t11 -24q-28 -102 -120.5 -166.5t-211.5 -64.5q-141 0 -241.5 87t-100.5 222v330q0 141 96 234t246 93q148 0 244 -93.5t96 -233.5v-203q0 -14 -11 -24.5t-24 -10.5zM301 651
v-90h256v90q0 56 -35.5 93.5t-93.5 37.5q-57 0 -92 -37t-35 -94zM535 1030h-209q-27 0 -39 37l-92 283q0 14 11.5 25t26.5 11h111q27 0 39 -36l47 -168l47 168q12 36 39 36h111q15 0 27 -11t12 -25l-93 -283q-12 -37 -38 -37z" />
    <glyph glyph-name="Gcircumflex" unicode="&#x11c;" horiz-adv-x="921" 
d="M610 514h-86q-12 0 -21 9.5t-9 21.5v110q0 12 9 21.5t21 9.5h264q14 0 24.5 -11t10.5 -24v-622q0 -11 -9 -20t-19 -9h-117q-12 0 -20.5 9t-8.5 20v34q-84 -75 -192 -75q-162 0 -265.5 97t-103.5 245v606q0 148 104 246t263 98q151 0 255.5 -95t112.5 -237
q0 -14 -10.5 -24.5t-24.5 -10.5h-143q-13 0 -24 10.5t-11 24.5q-1 81 -46.5 120.5t-108.5 39.5t-108.5 -40.5t-45.5 -123.5v-620q0 -82 46 -123t110 -41q62 0 107.5 41t45.5 123v190zM348 1698h209q27 0 39 -37l92 -283q0 -14 -12 -25.5t-27 -11.5h-110q-27 0 -39 37
l-47 168l-47 -168q-12 -37 -39 -37h-111q-15 0 -27 11.5t-12 25.5l92 283q12 37 39 37z" />
    <glyph glyph-name="gcircumflex" unicode="&#x11d;" 
d="M301 649v-278q0 -63 37.5 -98t91.5 -35q61 0 98 35t37 98v278q0 63 -37 98t-98 35q-54 0 -91.5 -35t-37.5 -98zM565 -29v166q-34 -32 -73.5 -48.5t-64.5 -19.5t-60 -3q-131 0 -205 76t-74 227v282q0 151 74 227t205 76q35 0 60 -3t64.5 -19.5t73.5 -48.5v24q0 13 10.5 24
t24.5 11h143q13 0 24 -11t11 -24v-948q0 -118 -91 -203.5t-212 -85.5h-18q-117 0 -212 68.5t-95 173.5q0 13 9.5 24t22.5 11h117q30 0 47 -31q29 -74 119 -74q45 0 72.5 33t27.5 96zM328 1386h209q26 0 38 -36l93 -283q0 -14 -12 -25.5t-27 -11.5h-111q-27 0 -39 37l-47 168
l-47 -168q-12 -37 -39 -37h-110q-15 0 -27 11.5t-12 25.5l92 283q12 36 39 36z" />
    <glyph glyph-name="Gbreve" unicode="&#x11e;" horiz-adv-x="921" 
d="M610 514h-86q-12 0 -21 9.5t-9 21.5v110q0 12 9 21.5t21 9.5h264q14 0 24.5 -11t10.5 -24v-622q0 -11 -9 -20t-19 -9h-117q-12 0 -20.5 9t-8.5 20v34q-84 -75 -192 -75q-162 0 -265.5 97t-103.5 245v606q0 148 104 246t263 98q151 0 255.5 -95t112.5 -237
q0 -14 -10.5 -24.5t-24.5 -10.5h-143q-13 0 -24 10.5t-11 24.5q-1 81 -46.5 120.5t-108.5 39.5t-108.5 -40.5t-45.5 -123.5v-620q0 -82 46 -123t110 -41q62 0 107.5 41t45.5 123v190zM459 1341q-62 0 -110 10.5t-91 36.5t-67.5 76t-26.5 123q0 12 9.5 21.5t21.5 9.5h129
q12 0 21 -9.5t9 -21.5q0 -38 29.5 -59t75.5 -21t75 21t29 59q0 12 9.5 21.5t21.5 9.5h129q12 0 21.5 -9.5t9.5 -21.5q-2 -73 -26.5 -123t-67.5 -76t-91 -36.5t-110 -10.5z" />
    <glyph glyph-name="gbreve" unicode="&#x11f;" 
d="M301 649v-278q0 -63 37.5 -98t91.5 -35q61 0 98 35t37 98v278q0 63 -37 98t-98 35q-54 0 -91.5 -35t-37.5 -98zM565 -29v166q-34 -32 -73.5 -48.5t-64.5 -19.5t-60 -3q-131 0 -205 76t-74 227v282q0 151 74 227t205 76q35 0 60 -3t64.5 -19.5t73.5 -48.5v24q0 13 10.5 24
t24.5 11h143q13 0 24 -11t11 -24v-948q0 -118 -91 -203.5t-212 -85.5h-18q-117 0 -212 68.5t-95 173.5q0 13 9.5 24t22.5 11h117q30 0 47 -31q29 -74 119 -74q45 0 72.5 33t27.5 96zM438 1030q-62 0 -110 10.5t-91 36.5t-67.5 76t-26.5 123q0 12 9.5 21.5t21.5 9.5h129
q12 0 21.5 -9.5t9.5 -21.5q0 -38 29 -59t75 -21t75.5 21t29.5 59q0 12 9 21.5t21 9.5h129q12 0 21.5 -9.5t9.5 -21.5q-2 -73 -26.5 -123t-67.5 -76t-91 -36.5t-110 -10.5z" />
    <glyph glyph-name="Gdotaccent" unicode="&#x120;" horiz-adv-x="921" 
d="M610 514h-86q-12 0 -21 9.5t-9 21.5v110q0 12 9 21.5t21 9.5h264q14 0 24.5 -11t10.5 -24v-622q0 -11 -9 -20t-19 -9h-117q-12 0 -20.5 9t-8.5 20v34q-84 -75 -192 -75q-162 0 -265.5 97t-103.5 245v606q0 148 104 246t263 98q151 0 255.5 -95t112.5 -237
q0 -14 -10.5 -24.5t-24.5 -10.5h-143q-13 0 -24 10.5t-11 24.5q-1 81 -46.5 120.5t-108.5 39.5t-108.5 -40.5t-45.5 -123.5v-620q0 -82 46 -123t110 -41q62 0 107.5 41t45.5 123v190zM336 1454q0 43 32.5 75t77.5 32t78 -32t33 -75q0 -46 -32.5 -79.5t-78.5 -33.5
q-45 0 -77.5 33.5t-32.5 79.5z" />
    <glyph glyph-name="gdotaccent" unicode="&#x121;" 
d="M301 649v-278q0 -63 37.5 -98t91.5 -35q61 0 98 35t37 98v278q0 63 -37 98t-98 35q-54 0 -91.5 -35t-37.5 -98zM565 -29v166q-34 -32 -73.5 -48.5t-64.5 -19.5t-60 -3q-131 0 -205 76t-74 227v282q0 151 74 227t205 76q35 0 60 -3t64.5 -19.5t73.5 -48.5v24q0 13 10.5 24
t24.5 11h143q13 0 24 -11t11 -24v-948q0 -118 -91 -203.5t-212 -85.5h-18q-117 0 -212 68.5t-95 173.5q0 13 9.5 24t22.5 11h117q30 0 47 -31q29 -74 119 -74q45 0 72.5 33t27.5 96zM309 1143q0 43 32.5 74.5t78.5 31.5q45 0 77.5 -31.5t32.5 -74.5q0 -46 -32.5 -79.5
t-77.5 -33.5q-46 0 -78.5 33.5t-32.5 79.5z" />
    <glyph glyph-name="uni0122" unicode="&#x122;" horiz-adv-x="921" 
d="M610 514h-86q-12 0 -21 9.5t-9 21.5v110q0 12 9 21.5t21 9.5h264q14 0 24.5 -11t10.5 -24v-622q0 -11 -9 -20t-19 -9h-117q-12 0 -20.5 9t-8.5 20v34q-84 -75 -192 -75q-162 0 -265.5 97t-103.5 245v606q0 148 104 246t263 98q151 0 255.5 -95t112.5 -237
q0 -14 -10.5 -24.5t-24.5 -10.5h-143q-13 0 -24 10.5t-11 24.5q-1 81 -46.5 120.5t-108.5 39.5t-108.5 -40.5t-45.5 -123.5v-620q0 -82 46 -123t110 -41q62 0 107.5 41t45.5 123v190zM510 -360l35 237q0 13 -9.5 23t-23.5 12h-109q-21 -3 -32 -35l-74 -237q0 -13 9 -22
t22 -11h147q28 3 35 33z" />
    <glyph glyph-name="uni0123" unicode="&#x123;" 
d="M301 649v-278q0 -63 37.5 -98t91.5 -35q61 0 98 35t37 98v278q0 63 -37 98t-98 35q-54 0 -91.5 -35t-37.5 -98zM565 -29v166q-34 -32 -73.5 -48.5t-64.5 -19.5t-60 -3q-131 0 -205 76t-74 227v282q0 151 74 227t205 76q35 0 60 -3t64.5 -19.5t73.5 -48.5v24q0 13 10.5 24
t24.5 11h143q13 0 24 -11t11 -24v-948q0 -118 -91 -203.5t-212 -85.5h-18q-117 0 -212 68.5t-95 173.5q0 13 9.5 24t22.5 11h117q30 0 47 -31q29 -74 119 -74q45 0 72.5 33t27.5 96zM258 1167l256 148q9 6 18 6q15 0 25 -10l94 -111q6 -6 6 -18q0 -16 -10 -23l-274 -123
q-15 -6 -27 -6q-9 0 -20 8l-72 86q-6 6 -6 19q0 14 10 24z" />
    <glyph glyph-name="Hcircumflex" unicode="&#x124;" horiz-adv-x="915" 
d="M782 1266q14 0 24.5 -11t10.5 -24v-1196q0 -13 -10.5 -24t-24.5 -11h-143q-13 0 -24 11t-11 24v471h-293v-471q0 -13 -10.5 -24t-24.5 -11h-143q-13 0 -24 11t-11 24v1196q0 13 11 24t24 11h143q14 0 24.5 -11t10.5 -24v-553h293v553q0 13 11 24t24 11h143zM354 1698h209
q27 0 39 -37l92 -283q0 -14 -12 -25.5t-27 -11.5h-110q-27 0 -39 37l-47 168l-47 -168q-12 -37 -39 -37h-111q-15 0 -27 11.5t-12 25.5l92 283q12 37 39 37z" />
    <glyph glyph-name="hcircumflex" unicode="&#x125;" 
d="M98 35v1196q0 13 11 24t24 11h143q14 0 24.5 -11t10.5 -24v-348q34 31 74 48t65 20t60 3q131 0 204.5 -76t73.5 -227v-616q0 -14 -10.5 -24.5t-23.5 -10.5h-144q-14 0 -24.5 11t-10.5 24v614q0 63 -37.5 98t-91.5 35q-61 0 -98 -35t-37 -98v-614q0 -13 -10.5 -24
t-24.5 -11h-143q-13 0 -24 11t-11 24zM240 1698h209q26 0 38 -37l93 -283q0 -14 -12 -25.5t-27 -11.5h-111q-27 0 -39 37l-47 168l-47 -168q-12 -37 -39 -37h-111q-15 0 -26.5 11.5t-11.5 25.5l92 283q12 37 39 37z" />
    <glyph glyph-name="Hbar" unicode="&#x126;" horiz-adv-x="989" 
d="M926 1077q10 0 18 -7.5t8 -18.5v-119q0 -11 -8 -19t-18 -8h-72v-870q0 -13 -11 -24t-24 -11h-143q-14 0 -24.5 11t-10.5 24v471h-293v-471q0 -13 -11 -24t-24 -11h-143q-14 0 -24.5 11t-10.5 24v870h-72q-10 0 -18 8t-8 19v119q0 11 7.5 18.5t18.5 7.5h72v154
q0 13 10.5 24t24.5 11h143q13 0 24 -11t11 -24v-154h293v154q0 13 10.5 24t24.5 11h143q13 0 24 -11t11 -24v-154h72zM641 678v227h-293v-227h293z" />
    <glyph glyph-name="hbar" unicode="&#x127;" horiz-adv-x="911" 
d="M346 1040v-157q34 31 74 48t65 20t60 3q131 0 204.5 -76t73.5 -227v-616q0 -13 -10.5 -24t-24.5 -11h-143q-13 0 -24 11t-11 24v614q0 63 -37.5 98t-91.5 35q-61 0 -98 -35t-37 -98v-614q0 -13 -11 -24t-24 -11h-143q-14 0 -24.5 11t-10.5 24v1005h-74q-9 0 -15.5 7
t-6.5 16v104q0 9 6.5 16t15.5 7h74v41q0 13 10.5 24t24.5 11h143q13 0 24 -11t11 -24v-41h86q9 0 16 -7t7 -16v-104q0 -9 -7 -16t-16 -7h-86z" />
    <glyph glyph-name="Itilde" unicode="&#x128;" horiz-adv-x="409" 
d="M311 1231v-1196q0 -13 -10.5 -24t-24.5 -11h-143q-13 0 -24 11t-11 24v1196q0 13 11 24t24 11h143q14 0 24.5 -11t10.5 -24zM328 1341q31 0 70.5 24.5t70.5 59.5q10 13 10 25q0 9 -6 18l-57 72q-7 10 -23 10q-10 0 -20 -10q-37 -29 -76 -29q-57 0 -129 35q-6 3 -22.5 10
t-23.5 10t-18.5 6t-21.5 3q-31 0 -70.5 -24.5t-70.5 -59.5q-11 -15 -11 -25q0 -8 7 -18l57 -72q7 -10 22 -10q11 0 21 10q37 29 76 29q26 0 82 -29q75 -35 133 -35z" />
    <glyph glyph-name="itilde" unicode="&#x129;" horiz-adv-x="409" 
d="M311 907v-872q0 -13 -10.5 -24t-24.5 -11h-143q-13 0 -24 11t-11 24v872q0 13 11 24t24 11h143q14 0 24.5 -11t10.5 -24zM328 1030q31 0 70.5 24.5t70.5 59.5q10 13 10 25q0 9 -6 18l-57 72q-7 10 -23 10q-10 0 -20 -10q-37 -29 -76 -29q-57 0 -129 35q-6 3 -22.5 10
t-23.5 10t-18.5 6t-21.5 3q-31 0 -70.5 -24.5t-70.5 -59.5q-11 -15 -11 -25q0 -7 7 -18l57 -72q7 -10 22 -10q11 0 21 10q37 29 76 29q26 0 82 -29q75 -35 133 -35z" />
    <glyph glyph-name="Imacron" unicode="&#x12a;" horiz-adv-x="409" 
d="M311 1231v-1196q0 -13 -10.5 -24t-24.5 -11h-143q-13 0 -24 11t-11 24v1196q0 13 11 24t24 11h143q14 0 24.5 -11t10.5 -24zM-8 1513h426q10 0 18 -7.5t8 -18.5v-119q0 -11 -8 -19t-18 -8h-426q-10 0 -18.5 8.5t-8.5 18.5v119q0 10 8 18t19 8z" />
    <glyph glyph-name="imacron" unicode="&#x12b;" horiz-adv-x="409" 
d="M311 907v-872q0 -13 -10.5 -24t-24.5 -11h-143q-13 0 -24 11t-11 24v872q0 13 11 24t24 11h143q14 0 24.5 -11t10.5 -24zM-8 1202h426q10 0 18 -8t8 -18v-119q0 -11 -8 -19t-18 -8h-426q-10 0 -18.5 8t-8.5 19v119q0 10 8 18t19 8z" />
    <glyph glyph-name="Iogonek" unicode="&#x12e;" horiz-adv-x="409" 
d="M98 57v1174q0 13 11 24t24 11h143q14 0 24.5 -11t10.5 -24v-1196q0 -13 -10.5 -24t-24.5 -11h-14q-43 0 -77.5 -42t-34.5 -89q0 -29 21 -51.5t52 -22.5q12 0 66 6q18 0 22 -20v-107q-4 -15 -20 -18q-43 -6 -88 -6q-51 0 -92 15t-65.5 37t-40.5 50.5t-22 53t-6 47.5
q0 154 121 204z" />
    <glyph glyph-name="iogonek" unicode="&#x12f;" horiz-adv-x="409" 
d="M98 57v850q0 13 11 24t24 11h143q14 0 24.5 -11t10.5 -24v-872q0 -13 -10.5 -24t-24.5 -11h-14q-43 0 -77.5 -42t-34.5 -89q0 -29 21 -51.5t52 -22.5q12 0 66 6q18 0 22 -20v-107q-4 -15 -20 -18q-43 -6 -88 -6q-51 0 -92 15t-65.5 37t-40.5 50.5t-22 53t-6 47.5
q0 154 121 204zM311 1231v-174q0 -13 -10.5 -24t-24.5 -11h-143q-13 0 -24 11t-11 24v174q0 13 11 24t24 11h143q14 0 24.5 -11t10.5 -24z" />
    <glyph glyph-name="Idotaccent" unicode="&#x130;" horiz-adv-x="409" 
d="M311 1231v-1196q0 -13 -10.5 -24t-24.5 -11h-143q-13 0 -24 11t-11 24v1196q0 13 11 24t24 11h143q14 0 24.5 -11t10.5 -24zM311 1550v-174q0 -14 -10.5 -24.5t-24.5 -10.5h-143q-13 0 -24 10.5t-11 24.5v174q0 14 11 24.5t24 10.5h143q14 0 24.5 -10.5t10.5 -24.5z" />
    <glyph glyph-name="dotlessi" unicode="&#x131;" horiz-adv-x="409" 
d="M311 907v-872q0 -13 -10.5 -24t-24.5 -11h-143q-13 0 -24 11t-11 24v872q0 13 11 24t24 11h143q14 0 24.5 -11t10.5 -24z" />
    <glyph glyph-name="Jcircumflex" unicode="&#x134;" horiz-adv-x="804" 
d="M27 293v26q0 14 10.5 24.5t23.5 10.5h144q13 0 24 -11t11 -24v-26q0 -58 34.5 -95.5t90.5 -37.5q57 0 93 39t36 100v932q0 14 10.5 24.5t23.5 10.5h144q14 0 24.5 -11t10.5 -24v-938q0 -134 -99.5 -219.5t-242.5 -85.5q-142 0 -240 85.5t-98 219.5zM553 1698h-209
q-27 0 -39 -37l-92 -283q0 -14 12 -25.5t27 -11.5h110q27 0 39 37l48 168l47 -168q12 -37 39 -37h110q15 0 27 11.5t12 25.5l-92 283q-12 37 -39 37z" />
    <glyph glyph-name="jcircumflex" unicode="&#x135;" horiz-adv-x="409" 
d="M-31 -160h21q32 0 53 9t32 20.5t16.5 36.5t6 40.5t0.5 49.5v911q0 13 11 24t24 11h143q14 0 24.5 -11t10.5 -24v-907q0 -97 -19 -163t-58 -103t-89.5 -52.5t-121.5 -15.5h-54q-12 0 -21 9.5t-9 21.5v113q0 12 9 21t21 9zM309 1386h-209q-27 0 -39 -36l-92 -283
q0 -14 12 -25.5t27 -11.5h111q27 0 39 37l47 168l47 -168q12 -37 39 -37h110q15 0 27 11.5t12 25.5l-92 283q-12 36 -39 36z" />
    <glyph glyph-name="uni0136" unicode="&#x136;" horiz-adv-x="888" 
d="M621 35l-175 469l-135 -301v-168q0 -13 -10.5 -24t-24.5 -11h-143q-13 0 -24 11t-11 24v1196q0 13 11 24t24 11h143q14 0 24.5 -11t10.5 -24v-590l281 590q18 35 45 35h156q13 0 23.5 -10.5t10.5 -24.5l-239 -500l264 -696q-18 -35 -45 -35h-150q-23 0 -36 35zM545 -123
l-35 -237q-7 -30 -35 -33h-147q-13 2 -22 11t-9 22l74 237q11 32 32 35h109q14 -2 23.5 -12t9.5 -23z" />
    <glyph glyph-name="uni0137" unicode="&#x137;" horiz-adv-x="843" 
d="M616 27l-157 409l-148 -231v-170q0 -13 -10.5 -24t-24.5 -11h-143q-13 0 -24 11t-11 24v1196q0 13 11 24t24 11h143q14 0 24.5 -11t10.5 -24v-688l234 372q17 27 45 27h135q13 0 24 -11t11 -24l-164 -260q44 -111 131.5 -345.5t99.5 -266.5q0 -14 -10.5 -24.5
t-23.5 -10.5h-131q-29 0 -46 27zM545 -123l-35 -237q-7 -30 -35 -33h-147q-13 2 -22 11t-9 22l74 237q11 32 32 35h109q14 -2 23.5 -12t9.5 -23z" />
    <glyph glyph-name="kgreenlandic" unicode="&#x138;" horiz-adv-x="843" 
d="M616 27l-157 409l-148 -231v-170q0 -13 -10.5 -24t-24.5 -11h-143q-13 0 -24 11t-11 24v872q0 13 11 24t24 11h143q14 0 24.5 -11t10.5 -24v-364l234 372q17 27 45 27h135q13 0 24 -11t11 -24l-164 -260q44 -111 131.5 -345.5t99.5 -266.5q0 -14 -10.5 -24.5t-23.5 -10.5
h-131q-29 0 -46 27z" />
    <glyph glyph-name="Lacute" unicode="&#x139;" horiz-adv-x="729" 
d="M655 0h-522q-13 0 -24 11t-11 24v1196q0 13 11 24t24 11h143q14 0 24.5 -11t10.5 -24v-1059h344q11 0 19 -8t8 -19v-118q0 -11 -8 -19t-19 -8zM115 1479l256 147q9 6 18 6q15 0 25 -10l94 -111q6 -6 6 -18q0 -16 -10 -23l-275 -122q-18 -7 -26 -7q-9 0 -21 9l-71 86
q-7 7 -7 18q0 14 11 25z" />
    <glyph glyph-name="lacute" unicode="&#x13a;" horiz-adv-x="409" 
d="M98 35v1196q0 13 11 24t24 11h143q14 0 24.5 -11t10.5 -24v-1196q0 -13 -10.5 -24t-24.5 -11h-143q-13 0 -24 11t-11 24zM10 1479l256 147q9 6 19 6q14 0 24 -10l94 -111q7 -7 7 -18q0 -16 -11 -23l-274 -122q-17 -7 -27 -7q-8 0 -20 9l-72 86q-6 6 -6 18q0 15 10 25z
" />
    <glyph glyph-name="uni013B" unicode="&#x13b;" horiz-adv-x="729" 
d="M655 0h-522q-13 0 -24 11t-11 24v1196q0 13 11 24t24 11h143q14 0 24.5 -11t10.5 -24v-1059h344q11 0 19 -8t8 -19v-118q0 -11 -8 -19t-19 -8zM467 -123l-35 -237q-7 -30 -35 -33h-147q-13 2 -22 11t-9 22l74 237q11 32 33 35h108q14 -2 23.5 -12t9.5 -23z" />
    <glyph glyph-name="uni013C" unicode="&#x13c;" horiz-adv-x="409" 
d="M311 1231v-1196q0 -13 -10.5 -24t-24.5 -11h-143q-13 0 -24 11t-11 24v1196q0 13 11 24t24 11h143q14 0 24.5 -11t10.5 -24zM293 -123l-35 -237q-7 -30 -35 -33h-147q-13 2 -22 11t-9 22l74 237q11 32 33 35h108q14 -2 23.5 -12t9.5 -23z" />
    <glyph glyph-name="Lcaron" unicode="&#x13d;" horiz-adv-x="729" 
d="M655 0h-522q-13 0 -24 11t-11 24v1196q0 13 11 24t24 11h143q14 0 24.5 -11t10.5 -24v-1059h344q11 0 19 -8t8 -19v-118q0 -11 -8 -19t-19 -8zM461 1001l45 238q3 24 26 27h119q10 -2 17.5 -9.5t7.5 -17.5l-76 -238q-7 -25 -27 -28h-86q-11 2 -18.5 10t-7.5 18z" />
    <glyph glyph-name="lcaron" unicode="&#x13e;" horiz-adv-x="688" 
d="M311 1231v-1196q0 -13 -10.5 -24t-24.5 -11h-143q-13 0 -24 11t-11 24v1196q0 13 11 24t24 11h143q14 0 24.5 -11t10.5 -24zM487 1024l19 215q3 24 26 27h123q10 -2 17.5 -9.5t7.5 -17.5l-49 -215q-7 -26 -27 -29h-90q-11 2 -19 10.5t-8 18.5z" />
    <glyph glyph-name="Lslash" unicode="&#x141;" horiz-adv-x="845" 
d="M428 811l143 27q13 0 23 -8t12 -19v-131q-2 -14 -12.5 -26t-22.5 -13l-143 -27v-442h344q10 0 18.5 -8t8.5 -19v-118q0 -11 -8.5 -19t-18.5 -8h-522q-14 0 -24.5 11t-10.5 24v543l-143 -25q-13 0 -23 8t-12 19v131q2 12 12.5 25t22.5 14l143 24v457q0 13 10.5 24t24.5 11
h143q13 0 24 -11t11 -24v-420z" />
    <glyph glyph-name="lslash" unicode="&#x142;" horiz-adv-x="643" 
d="M428 811l143 27q13 0 23 -8t12 -19v-131q-2 -14 -12.5 -26t-22.5 -13l-143 -27v-579q0 -13 -11 -24t-24 -11h-143q-14 0 -24.5 11t-10.5 24v543l-143 -25q-13 0 -23 8t-12 19v131q2 12 12.5 25t22.5 14l143 24v457q0 13 10.5 24t24.5 11h143q13 0 24 -11t11 -24v-420z
" />
    <glyph glyph-name="Nacute" unicode="&#x143;" horiz-adv-x="919" 
d="M608 553v678q0 13 11 24t24 11h143q14 0 24.5 -11t10.5 -24v-1196q0 -13 -10.5 -24t-24.5 -11h-127q-11 0 -21 8t-13 17l-314 669v-659q0 -13 -10.5 -24t-24.5 -11h-143q-13 0 -24 11t-11 24v1196q0 13 11 24t24 11h127q11 0 21.5 -8t13.5 -17zM254 1479l256 147
q9 6 18 6q15 0 25 -10l94 -111q6 -6 6 -18q0 -16 -10 -23l-274 -122q-18 -7 -27 -7q-8 0 -20 9l-72 86q-6 6 -6 18q0 15 10 25z" />
    <glyph glyph-name="nacute" unicode="&#x144;" 
d="M98 35v872q0 13 11 24t24 11h143q14 0 24.5 -11t10.5 -24v-24q34 31 74 48t65 20t60 3q131 0 204.5 -76t73.5 -227v-616q0 -14 -10.5 -24.5t-23.5 -10.5h-144q-14 0 -24.5 11t-10.5 24v614q0 63 -37.5 98t-91.5 35q-61 0 -98 -35t-37 -98v-614q0 -13 -10.5 -24t-24.5 -11
h-143q-13 0 -24 11t-11 24zM260 1167l256 148q9 6 19 6q14 0 24 -10l94 -111q6 -6 6 -18q0 -16 -10 -23l-274 -123q-15 -6 -27 -6q-9 0 -20 8l-72 86q-6 6 -6 19q0 14 10 24z" />
    <glyph glyph-name="uni0145" unicode="&#x145;" horiz-adv-x="919" 
d="M608 553v678q0 13 11 24t24 11h143q14 0 24.5 -11t10.5 -24v-1196q0 -13 -10.5 -24t-24.5 -11h-127q-11 0 -21 8t-13 17l-314 669v-659q0 -13 -10.5 -24t-24.5 -11h-143q-13 0 -24 11t-11 24v1196q0 13 11 24t24 11h127q11 0 21.5 -8t13.5 -17zM543 -123l-35 -237
q-7 -30 -35 -33h-147q-13 2 -22 11t-9 22l74 237q11 32 32 35h109q14 -2 23.5 -12t9.5 -23z" />
    <glyph glyph-name="uni0146" unicode="&#x146;" 
d="M98 35v872q0 13 11 24t24 11h143q14 0 24.5 -11t10.5 -24v-24q34 31 74 48t65 20t60 3q131 0 204.5 -76t73.5 -227v-616q0 -14 -10.5 -24.5t-23.5 -10.5h-144q-14 0 -24.5 11t-10.5 24v614q0 63 -37.5 98t-91.5 35q-61 0 -98 -35t-37 -98v-614q0 -13 -10.5 -24t-24.5 -11
h-143q-13 0 -24 11t-11 24zM500 -360l35 237q0 13 -9.5 23t-23.5 12h-109q-22 -3 -33 -35l-73 -237q0 -13 9 -22t21 -11h148q28 3 35 33z" />
    <glyph glyph-name="Ncaron" unicode="&#x147;" horiz-adv-x="919" 
d="M608 553v678q0 13 11 24t24 11h143q14 0 24.5 -11t10.5 -24v-1196q0 -13 -10.5 -24t-24.5 -11h-127q-11 0 -21 8t-13 17l-314 669v-659q0 -13 -10.5 -24t-24.5 -11h-143q-13 0 -24 11t-11 24v1196q0 13 11 24t24 11h127q11 0 21.5 -8t13.5 -17zM346 1341h209q27 0 39 37
l92 283q0 14 -12 25.5t-27 11.5h-110q-27 0 -39 -37l-47 -168l-48 168q-12 37 -38 37h-111q-15 0 -27 -11.5t-12 -25.5l92 -283q12 -37 39 -37z" />
    <glyph glyph-name="ncaron" unicode="&#x148;" 
d="M98 35v872q0 13 11 24t24 11h143q14 0 24.5 -11t10.5 -24v-24q34 31 74 48t65 20t60 3q131 0 204.5 -76t73.5 -227v-616q0 -14 -10.5 -24.5t-23.5 -10.5h-144q-14 0 -24.5 11t-10.5 24v614q0 63 -37.5 98t-91.5 35q-61 0 -98 -35t-37 -98v-614q0 -13 -10.5 -24t-24.5 -11
h-143q-13 0 -24 11t-11 24zM539 1030h-209q-27 0 -39 37l-92 283q0 14 12 25t27 11h110q27 0 39 -36l47 -168l47 168q12 36 39 36h111q15 0 27 -11t12 -25l-92 -283q-12 -37 -39 -37z" />
    <glyph glyph-name="Eng" unicode="&#x14a;" horiz-adv-x="919" 
d="M479 -160h21q32 0 53 9t32 20.5t16.5 36.5t6 40.5t0.5 49.5v63l-297 635v-659q0 -13 -10.5 -24t-24.5 -11h-143q-13 0 -24 11t-11 24v1196q0 13 11 24t24 11h127q11 0 21.5 -8t13.5 -17l313 -688v678q0 13 11 24t24 11h143q14 0 24.5 -11t10.5 -24v-1231
q0 -97 -19.5 -163t-58.5 -103t-89.5 -52.5t-121.5 -15.5h-53q-12 0 -21 9.5t-9 21.5v113q0 12 9 21t21 9z" />
    <glyph glyph-name="eng" unicode="&#x14b;" 
d="M788 651v-651q0 -97 -19 -163t-58 -103t-89.5 -52.5t-121.5 -15.5h-54q-12 0 -21 9.5t-9 21.5v113q0 12 9 21t21 9h21q32 0 53 9t32 20.5t16.5 36.5t6 40.5t0.5 49.5v653q0 63 -37.5 98t-91.5 35q-61 0 -98 -35t-37 -98v-614q0 -13 -10.5 -24t-24.5 -11h-143
q-13 0 -24 11t-11 24v872q0 13 11 24t24 11h143q14 0 24.5 -11t10.5 -24v-24q34 31 74 48t65 20t60 3q131 0 204.5 -76t73.5 -227z" />
    <glyph glyph-name="Omacron" unicode="&#x14c;" horiz-adv-x="913" 
d="M457 160q64 0 109.5 40.5t45.5 123.5v620q0 83 -45.5 123.5t-109.5 40.5t-110 -40.5t-46 -123.5v-620q0 -83 46 -123.5t110 -40.5zM457 -12q-161 0 -265 98t-104 246v604q0 148 104 246t265 98t264.5 -98t103.5 -246v-604q0 -148 -103.5 -246t-264.5 -98zM244 1513h426
q10 0 18 -7.5t8 -18.5v-119q0 -11 -8 -19t-18 -8h-426q-10 0 -18.5 8.5t-8.5 18.5v119q0 10 8 18t19 8z" />
    <glyph glyph-name="omacron" unicode="&#x14d;" horiz-adv-x="856" 
d="M428 954q147 0 243.5 -93.5t96.5 -233.5v-330q0 -135 -99 -222t-241 -87t-241 87t-99 222v330q0 140 96.5 233.5t243.5 93.5zM428 160q56 0 91.5 37.5t35.5 95.5v358q0 56 -35.5 93.5t-91.5 37.5t-91.5 -37.5t-35.5 -93.5v-358q0 -58 35.5 -95.5t91.5 -37.5zM215 1202
h426q11 0 19 -8t8 -18v-119q0 -11 -8 -19t-19 -8h-426q-11 0 -19 8t-8 19v119q0 10 8 18t19 8z" />
    <glyph glyph-name="Ohungarumlaut" unicode="&#x150;" horiz-adv-x="913" 
d="M457 160q64 0 109.5 40.5t45.5 123.5v620q0 83 -45.5 123.5t-109.5 40.5t-110 -40.5t-46 -123.5v-620q0 -83 46 -123.5t110 -40.5zM457 -12q-161 0 -265 98t-104 246v604q0 148 104 246t265 98t264.5 -98t103.5 -246v-604q0 -148 -103.5 -246t-264.5 -98zM498 1376
l45 240q7 30 35 33h147q13 -2 22 -11t9 -22l-84 -240q-11 -32 -33 -35h-109q-14 2 -23 12t-9 23zM240 1376l45 240q7 30 34 33h148q13 -2 22 -11t9 -22l-84 -240q-11 -32 -33 -35h-109q-14 2 -23 12t-9 23z" />
    <glyph glyph-name="ohungarumlaut" unicode="&#x151;" horiz-adv-x="856" 
d="M428 954q147 0 243.5 -93.5t96.5 -233.5v-330q0 -135 -99 -222t-241 -87t-241 87t-99 222v330q0 140 96.5 233.5t243.5 93.5zM428 160q56 0 91.5 37.5t35.5 95.5v358q0 56 -35.5 93.5t-91.5 37.5t-91.5 -37.5t-35.5 -93.5v-358q0 -58 35.5 -95.5t91.5 -37.5zM471 1065
l45 240q6 29 35 32h147q13 -2 22 -10.5t9 -21.5l-84 -240q-11 -32 -33 -35h-108q-14 2 -23.5 12t-9.5 23zM213 1065l45 240q6 29 35 32h147q13 -2 22 -10.5t9 -21.5l-84 -240q-11 -32 -33 -35h-108q-14 2 -23.5 12t-9.5 23z" />
    <glyph glyph-name="OE" unicode="&#x152;" horiz-adv-x="1269" 
d="M1165 1096h-344v-416h244q11 0 19 -8t8 -19v-116q0 -11 -8 -19t-19 -8h-244v-338h344q11 0 19 -8t8 -19v-118q0 -11 -8 -19t-19 -8h-710q-159 0 -263 97t-104 245v580q0 148 104 246t263 98h710q11 0 19 -8t8 -19v-117q0 -10 -8 -18t-19 -8zM608 170v926h-153
q-63 0 -108.5 -40.5t-45.5 -123.5v-598q0 -83 45.5 -123.5t108.5 -40.5h153z" />
    <glyph glyph-name="oe" unicode="&#x153;" horiz-adv-x="1325" 
d="M1202 389h-434v-96q0 -58 35.5 -95.5t93.5 -37.5q42 0 74 20t45 49q11 25 35 25h143q14 0 24.5 -11t10.5 -24q-28 -102 -120.5 -166.5t-211.5 -64.5q-134 0 -235 82q-98 -82 -234 -82q-142 0 -241 87t-99 222v330q0 140 96.5 233.5t243.5 93.5q140 0 234 -84
q94 84 235 84q148 0 244 -93.5t96 -233.5v-203q0 -14 -10.5 -24.5t-24.5 -10.5zM428 160q56 0 91.5 37.5t35.5 95.5v358q0 56 -35.5 93.5t-91.5 37.5t-91.5 -37.5t-35.5 -93.5v-358q0 -58 35.5 -95.5t91.5 -37.5zM768 651v-90h256v90q0 56 -35.5 93.5t-93.5 37.5
q-57 0 -92 -37t-35 -94z" />
    <glyph glyph-name="Racute" unicode="&#x154;" horiz-adv-x="874" 
d="M817 750q0 -95 -41.5 -168.5t-111.5 -118.5l139 -428q0 -13 -10.5 -24t-24.5 -11h-131q-25 0 -37 35l-115 371q-5 0 -14 -1.5t-14 -1.5h-146v-368q0 -13 -10.5 -24t-24.5 -11h-143q-13 0 -24 11t-11 24v1196q0 13 11 24t24 11h324q70 0 134 -24t114.5 -67.5t81 -111
t30.5 -148.5v-165zM449 571q61 0 108 50t47 137v153q0 87 -47 136t-108 49h-138v-525h138zM254 1479l256 147q9 6 18 6q15 0 25 -10l94 -111q6 -6 6 -18q0 -16 -10 -23l-274 -122q-18 -7 -27 -7q-8 0 -20 9l-72 86q-6 6 -6 18q0 15 10 25z" />
    <glyph glyph-name="racute" unicode="&#x155;" horiz-adv-x="643" 
d="M584 766q-29 0 -62.5 -8t-71.5 -28t-68.5 -50t-50.5 -79t-20 -109v-457q0 -13 -10.5 -24t-24.5 -11h-143q-13 0 -24 11t-11 24v872q0 13 11 24t24 11h143q14 0 24.5 -11t10.5 -24v-96q59 69 132.5 103t140.5 36q14 0 23 -9t9 -23v-119q0 -14 -9.5 -23.5t-22.5 -9.5z
M143 1167l256 148q9 6 19 6q14 0 24 -10l95 -111q6 -6 6 -18q0 -16 -11 -23l-274 -123q-15 -6 -27 -6q-9 0 -20 8l-72 86q-6 6 -6 19q0 14 10 24z" />
    <glyph glyph-name="uni0156" unicode="&#x156;" horiz-adv-x="874" 
d="M817 750q0 -95 -41.5 -168.5t-111.5 -118.5l139 -428q0 -13 -10.5 -24t-24.5 -11h-131q-25 0 -37 35l-115 371q-5 0 -14 -1.5t-14 -1.5h-146v-368q0 -13 -10.5 -24t-24.5 -11h-143q-13 0 -24 11t-11 24v1196q0 13 11 24t24 11h324q70 0 134 -24t114.5 -67.5t81 -111
t30.5 -148.5v-165zM449 571q61 0 108 50t47 137v153q0 87 -47 136t-108 49h-138v-525h138zM498 -360l34 237q0 13 -9 23t-23 12h-109q-22 -3 -33 -35l-73 -237q0 -13 9 -22t21 -11h148q28 3 35 33z" />
    <glyph glyph-name="uni0157" unicode="&#x157;" horiz-adv-x="626" 
d="M584 766q-29 0 -62.5 -8t-71.5 -28t-68.5 -50t-50.5 -79t-20 -109v-457q0 -13 -10.5 -24t-24.5 -11h-143q-13 0 -24 11t-11 24v872q0 13 11 24t24 11h143q14 0 24.5 -11t10.5 -24v-96q59 69 132.5 103t140.5 36q14 0 23 -9t9 -23v-119q0 -14 -9.5 -23.5t-22.5 -9.5z
M356 -123l-34 -237q-7 -30 -35 -33h-148q-12 2 -21 11t-9 22l73 237q11 32 33 35h109q14 -2 23 -12t9 -23z" />
    <glyph glyph-name="Rcaron" unicode="&#x158;" horiz-adv-x="874" 
d="M817 750q0 -95 -41.5 -168.5t-111.5 -118.5l139 -428q0 -13 -10.5 -24t-24.5 -11h-131q-25 0 -37 35l-115 371q-5 0 -14 -1.5t-14 -1.5h-146v-368q0 -13 -10.5 -24t-24.5 -11h-143q-13 0 -24 11t-11 24v1196q0 13 11 24t24 11h324q70 0 134 -24t114.5 -67.5t81 -111
t30.5 -148.5v-165zM449 571q61 0 108 50t47 137v153q0 87 -47 136t-108 49h-138v-525h138zM514 1341h-209q-27 0 -39 37l-92 283q0 14 12 25.5t27 11.5h111q26 0 38 -37l48 -168l47 168q12 37 39 37h110q15 0 27 -11.5t12 -25.5l-92 -283q-12 -37 -39 -37z" />
    <glyph glyph-name="rcaron" unicode="&#x159;" horiz-adv-x="626" 
d="M584 766q-29 0 -62.5 -8t-71.5 -28t-68.5 -50t-50.5 -79t-20 -109v-457q0 -13 -10.5 -24t-24.5 -11h-143q-13 0 -24 11t-11 24v872q0 13 11 24t24 11h143q14 0 24.5 -11t10.5 -24v-96q59 69 132.5 103t140.5 36q14 0 23 -9t9 -23v-119q0 -14 -9.5 -23.5t-22.5 -9.5z
M244 1030h209q27 0 39 37l92 283q0 14 -12 25t-27 11h-111q-27 0 -39 -36l-47 -168l-47 168q-12 36 -39 36h-110q-15 0 -27 -11t-12 -25l92 -283q12 -37 39 -37z" />
    <glyph glyph-name="Sacute" unicode="&#x15a;" horiz-adv-x="856" 
d="M68 322q0 14 10 24t24 10h144q14 0 24.5 -10.5t10.5 -23.5q9 -162 168 -162q41 0 71.5 14.5t44 32t21.5 43t9 37.5t1 24q0 82 -50 133.5t-153 102.5q-39 19 -64.5 32.5t-63 37t-62 44.5t-52.5 52t-44.5 63.5t-27.5 74.5t-11 89q0 50 7.5 94t31 91t61 79.5t102 54
t150.5 21.5q82 0 146 -24.5t99.5 -60t59.5 -84.5t32 -88t11 -81q0 -14 -11 -24.5t-24 -10.5h-143q-14 0 -24.5 10.5t-10.5 24.5q-4 33 -10.5 58t-21 52t-41.5 41.5t-66 14.5q-73 0 -104 -43.5t-31 -110.5q0 -33 7.5 -60.5t26.5 -51t35.5 -40t50 -36.5t53.5 -30.5t62 -30.5
q38 -18 59.5 -29.5t57 -33t56.5 -40.5t46.5 -48t39.5 -59.5t24 -72t10 -88.5q0 -94 -29 -163t-80 -108t-113 -57t-136 -18q-68 0 -130 17.5t-118.5 55t-92.5 104.5t-42 157zM203 1479l256 147q9 6 18 6q15 0 25 -10l94 -111q6 -6 6 -18q0 -16 -10 -23l-275 -122
q-18 -7 -26 -7q-9 0 -21 9l-71 86q-6 6 -6 18q0 15 10 25z" />
    <glyph glyph-name="sacute" unicode="&#x15b;" horiz-adv-x="737" 
d="M371 954q64 0 116 -17t83.5 -42t55 -60t34.5 -65t18 -63q0 -13 -11 -24t-24 -11h-119q-25 0 -37 35q-7 29 -36 52t-68 23q-4 0 -11.5 -0.5t-26 -6t-32.5 -15t-25.5 -30.5t-11.5 -50q0 -41 57 -80q23 -16 156 -90q47 -26 75 -45.5t61.5 -51t50 -72.5t16.5 -91
q0 -31 -9 -64t-32 -69.5t-57.5 -65t-92 -47t-128.5 -18.5q-80 0 -141.5 23.5t-96.5 62t-54 76.5t-28 79q0 13 10.5 24t24.5 11h119q25 0 37 -35q6 -28 39 -51.5t73 -23.5q60 0 91.5 21.5t31.5 74.5q0 15 -3 27t-12 23t-15.5 18.5t-23.5 18t-25.5 15t-32 16.5t-33.5 17
q-9 5 -37.5 19.5t-44 23t-44 26t-45 31.5t-38 37t-33.5 45t-20.5 51.5t-8.5 61.5q0 72 28 127.5t74 86.5t98 46.5t108 15.5zM154 1167l256 148q9 6 18 6q15 0 25 -10l94 -111q6 -6 6 -18q0 -16 -10 -23l-275 -123q-15 -6 -26 -6q-10 0 -21 8l-71 86q-7 7 -7 19q0 13 11 24z
" />
    <glyph glyph-name="Scircumflex" unicode="&#x15c;" horiz-adv-x="856" 
d="M68 322q0 14 10 24t24 10h144q14 0 24.5 -10.5t10.5 -23.5q9 -162 168 -162q41 0 71.5 14.5t44 32t21.5 43t9 37.5t1 24q0 82 -50 133.5t-153 102.5q-39 19 -64.5 32.5t-63 37t-62 44.5t-52.5 52t-44.5 63.5t-27.5 74.5t-11 89q0 50 7.5 94t31 91t61 79.5t102 54
t150.5 21.5q82 0 146 -24.5t99.5 -60t59.5 -84.5t32 -88t11 -81q0 -14 -11 -24.5t-24 -10.5h-143q-14 0 -24.5 10.5t-10.5 24.5q-4 33 -10.5 58t-21 52t-41.5 41.5t-66 14.5q-73 0 -104 -43.5t-31 -110.5q0 -33 7.5 -60.5t26.5 -51t35.5 -40t50 -36.5t53.5 -30.5t62 -30.5
q38 -18 59.5 -29.5t57 -33t56.5 -40.5t46.5 -48t39.5 -59.5t24 -72t10 -88.5q0 -94 -29 -163t-80 -108t-113 -57t-136 -18q-68 0 -130 17.5t-118.5 55t-92.5 104.5t-42 157zM502 1698h-209q-27 0 -39 -37l-92 -283q0 -14 12 -25.5t27 -11.5h110q27 0 39 37l47 168l47 -168
q12 -37 39 -37h111q15 0 27 11.5t12 25.5l-92 283q-12 37 -39 37z" />
    <glyph glyph-name="scircumflex" unicode="&#x15d;" horiz-adv-x="737" 
d="M371 954q64 0 116 -17t83.5 -42t55 -60t34.5 -65t18 -63q0 -13 -11 -24t-24 -11h-119q-25 0 -37 35q-7 29 -36 52t-68 23q-4 0 -11.5 -0.5t-26 -6t-32.5 -15t-25.5 -30.5t-11.5 -50q0 -41 57 -80q23 -16 156 -90q47 -26 75 -45.5t61.5 -51t50 -72.5t16.5 -91
q0 -31 -9 -64t-32 -69.5t-57.5 -65t-92 -47t-128.5 -18.5q-80 0 -141.5 23.5t-96.5 62t-54 76.5t-28 79q0 13 10.5 24t24.5 11h119q25 0 37 -35q6 -28 39 -51.5t73 -23.5q60 0 91.5 21.5t31.5 74.5q0 15 -3 27t-12 23t-15.5 18.5t-23.5 18t-25.5 15t-32 16.5t-33.5 17
q-9 5 -37.5 19.5t-44 23t-44 26t-45 31.5t-38 37t-33.5 45t-20.5 51.5t-8.5 61.5q0 72 28 127.5t74 86.5t98 46.5t108 15.5zM477 1386h-209q-27 0 -39 -36l-92 -283q0 -14 12 -25.5t27 -11.5h111q27 0 39 37l47 168l47 -168q12 -37 39 -37h110q15 0 27 11.5t12 25.5l-92 283
q-12 36 -39 36z" />
    <glyph glyph-name="Scedilla" unicode="&#x15e;" horiz-adv-x="856" 
d="M578 2l-46 -242q-6 -29 -34 -32h-148q-13 2 -22 10.5t-9 21.5l72 232q-61 6 -114 27.5t-99.5 60t-75.5 100.5t-34 142q0 14 10 24t24 10h144q14 0 24.5 -10.5t10.5 -23.5q9 -162 168 -162q41 0 71.5 14.5t44 32t21.5 43t9 37.5t1 24q0 82 -50 133.5t-153 102.5
q-39 19 -64.5 32.5t-63 37t-62 44.5t-52.5 52t-44.5 63.5t-27.5 74.5t-11 89q0 50 7.5 94t31 91t61 79.5t102 54t150.5 21.5q82 0 146 -24.5t99.5 -60t59.5 -84.5t32 -88t11 -81q0 -14 -11 -24.5t-24 -10.5h-143q-14 0 -24.5 10.5t-10.5 24.5q-4 33 -10.5 58t-21 52
t-41.5 41.5t-66 14.5q-73 0 -104 -43.5t-31 -110.5q0 -33 7.5 -60.5t26.5 -51t35.5 -40t50 -36.5t53.5 -30.5t62 -30.5q38 -18 59.5 -29.5t57 -33t56.5 -40.5t46.5 -48t39.5 -59.5t24 -72t10 -88.5q0 -270 -231 -332z" />
    <glyph glyph-name="scedilla" unicode="&#x15f;" horiz-adv-x="737" 
d="M479 -2l-43 -238q-6 -29 -35 -32h-147q-13 2 -22 10.5t-9 21.5l74 232q-60 10 -106 36t-73 61t-42 68.5t-23 69.5q0 13 10.5 24t24.5 11h119q25 0 37 -35q6 -28 39 -51.5t73 -23.5q60 0 91.5 21.5t31.5 74.5q0 15 -3 27t-12 23t-15.5 18.5t-23.5 18t-25.5 15t-32 16.5
t-33.5 17q-9 5 -37.5 19.5t-44 23t-44 26t-45 31.5t-38 37t-33.5 45t-20.5 51.5t-8.5 61.5q0 72 28 127.5t74 86.5t98 46.5t108 15.5q64 0 116 -17t83.5 -42t55 -60t34.5 -65t18 -63q0 -13 -11 -24t-24 -11h-119q-25 0 -37 35q-7 29 -36 52t-68 23q-4 0 -11.5 -0.5t-26 -6
t-32.5 -15t-25.5 -30.5t-11.5 -50q0 -41 57 -80q23 -16 156 -90q47 -26 75 -45.5t61.5 -51t50 -72.5t16.5 -91q0 -33 -11 -68t-33.5 -72t-66.5 -67t-102 -45z" />
    <glyph glyph-name="Scaron" unicode="&#x160;" horiz-adv-x="856" 
d="M68 322q0 14 10 24t24 10h144q14 0 24.5 -10.5t10.5 -23.5q9 -162 168 -162q41 0 71.5 14.5t44 32t21.5 43t9 37.5t1 24q0 82 -50 133.5t-153 102.5q-39 19 -64.5 32.5t-63 37t-62 44.5t-52.5 52t-44.5 63.5t-27.5 74.5t-11 89q0 50 7.5 94t31 91t61 79.5t102 54
t150.5 21.5q82 0 146 -24.5t99.5 -60t59.5 -84.5t32 -88t11 -81q0 -14 -11 -24.5t-24 -10.5h-143q-14 0 -24.5 10.5t-10.5 24.5q-4 33 -10.5 58t-21 52t-41.5 41.5t-66 14.5q-73 0 -104 -43.5t-31 -110.5q0 -33 7.5 -60.5t26.5 -51t35.5 -40t50 -36.5t53.5 -30.5t62 -30.5
q38 -18 59.5 -29.5t57 -33t56.5 -40.5t46.5 -48t39.5 -59.5t24 -72t10 -88.5q0 -94 -29 -163t-80 -108t-113 -57t-136 -18q-68 0 -130 17.5t-118.5 55t-92.5 104.5t-42 157zM315 1341h209q27 0 39 37l92 283q0 14 -12 25.5t-27 11.5h-110q-27 0 -39 -37l-47 -168l-47 168
q-12 37 -39 37h-111q-15 0 -27 -11.5t-12 -25.5l92 -283q12 -37 39 -37z" />
    <glyph glyph-name="scaron" unicode="&#x161;" horiz-adv-x="737" 
d="M371 954q64 0 116 -17t83.5 -42t55 -60t34.5 -65t18 -63q0 -13 -11 -24t-24 -11h-119q-25 0 -37 35q-7 29 -36 52t-68 23q-4 0 -11.5 -0.5t-26 -6t-32.5 -15t-25.5 -30.5t-11.5 -50q0 -41 57 -80q23 -16 156 -90q47 -26 75 -45.5t61.5 -51t50 -72.5t16.5 -91
q0 -31 -9 -64t-32 -69.5t-57.5 -65t-92 -47t-128.5 -18.5q-80 0 -141.5 23.5t-96.5 62t-54 76.5t-28 79q0 13 10.5 24t24.5 11h119q25 0 37 -35q6 -28 39 -51.5t73 -23.5q60 0 91.5 21.5t31.5 74.5q0 15 -3 27t-12 23t-15.5 18.5t-23.5 18t-25.5 15t-32 16.5t-33.5 17
q-9 5 -37.5 19.5t-44 23t-44 26t-45 31.5t-38 37t-33.5 45t-20.5 51.5t-8.5 61.5q0 72 28 127.5t74 86.5t98 46.5t108 15.5zM262 1030h209q27 0 39 37l92 283q0 14 -12 25t-27 11h-110q-27 0 -39 -36l-47 -168l-48 168q-12 36 -38 36h-111q-15 0 -27 -11t-12 -25l92 -283
q12 -37 39 -37z" />
    <glyph glyph-name="uni0162" unicode="&#x162;" horiz-adv-x="720" 
d="M254 57v1039h-186q-12 0 -21.5 9t-9.5 21v109q0 12 9.5 21.5t21.5 9.5h585q12 0 21.5 -9.5t9.5 -21.5v-109q0 -12 -9.5 -21t-21.5 -9h-186v-1061q0 -13 -10.5 -24t-24.5 -11h-14q-43 0 -78 -42t-35 -89q0 -29 21.5 -51.5t52.5 -22.5q11 0 65 6q19 0 23 -20v-107
q-4 -15 -21 -18q-43 -6 -88 -6q-63 0 -110 21.5t-70.5 55t-34 65.5t-10.5 61q0 154 121 204z" />
    <glyph glyph-name="uni0163" unicode="&#x163;" horiz-adv-x="618" 
d="M463 0l-45 -240q-6 -29 -35 -32h-147q-13 2 -22 10.5t-9 21.5l86 273q-60 33 -90.5 105t-30.5 196v436h-113q-12 0 -21 9.5t-9 21.5v110q0 12 9 21.5t21 9.5h113v227q0 13 11 24t24 11h143q14 0 24.5 -11t10.5 -24v-227h147q12 0 21.5 -9.5t9.5 -21.5v-110
q0 -12 -9.5 -21.5t-21.5 -9.5h-147v-442q0 -74 25.5 -113.5t101.5 -42.5h20q12 0 21.5 -9.5t9.5 -21.5v-110q0 -12 -9.5 -21.5t-21.5 -9.5h-67z" />
    <glyph glyph-name="Tcaron" unicode="&#x164;" horiz-adv-x="720" 
d="M254 35v1061h-186q-12 0 -21.5 9t-9.5 21v109q0 12 9.5 21.5t21.5 9.5h585q12 0 21.5 -9.5t9.5 -21.5v-109q0 -12 -9.5 -21t-21.5 -9h-186v-1061q0 -13 -10.5 -24t-24.5 -11h-143q-13 0 -24 11t-11 24zM256 1341h209q27 0 39 37l92 283q0 14 -12 25.5t-27 11.5h-111
q-26 0 -38 -37l-48 -168l-47 168q-12 37 -39 37h-110q-15 0 -27 -11.5t-12 -25.5l92 -283q12 -37 39 -37z" />
    <glyph glyph-name="tcaron" unicode="&#x165;" horiz-adv-x="710" 
d="M510 172h20q12 0 21.5 -9.5t9.5 -21.5v-110q0 -12 -9.5 -21.5t-21.5 -9.5h-71q-71 0 -121 15t-89.5 51.5t-59 103t-19.5 164.5v436h-113q-12 0 -21 9.5t-9 21.5v110q0 12 9 21.5t21 9.5h113v227q0 13 11 24t24 11h143q14 0 24.5 -11t10.5 -24v-227h147q12 0 21.5 -9.5
t9.5 -21.5v-110q0 -12 -9.5 -21.5t-21.5 -9.5h-147v-442q0 -74 25.5 -113.5t101.5 -42.5zM508 1028l16 150q3 23 27 26h119q10 -2 17 -9t7 -17l-47 -150q-8 -26 -26 -29h-86q-11 2 -19 10.5t-8 18.5z" />
    <glyph glyph-name="Tbar" unicode="&#x166;" horiz-adv-x="720" 
d="M467 803h125q10 0 18 -8t8 -19v-119q0 -11 -8 -18.5t-18 -7.5h-125v-596q0 -13 -10.5 -24t-24.5 -11h-143q-13 0 -24 11t-11 24v596h-125q-11 0 -19 8t-8 18v119q0 10 8 18.5t19 8.5h125v293h-186q-12 0 -21.5 9t-9.5 21v109q0 12 9.5 21.5t21.5 9.5h585q12 0 21.5 -9.5
t9.5 -21.5v-109q0 -12 -9.5 -21t-21.5 -9h-186v-293z" />
    <glyph glyph-name="tbar" unicode="&#x167;" horiz-adv-x="618" 
d="M383 713h147q12 0 21.5 -9.5t9.5 -21.5v-111q0 -12 -9.5 -21t-21.5 -9h-147v-213q0 -74 25.5 -113.5t101.5 -42.5h20q12 0 21.5 -9.5t9.5 -21.5v-110q0 -12 -9.5 -21.5t-21.5 -9.5h-71q-71 0 -121 15t-89.5 51.5t-59 103t-19.5 164.5v207h-113q-12 0 -21 9t-9 21v111
q0 12 9 21.5t21 9.5h113v161h-113q-12 0 -21 9.5t-9 21.5v111q0 12 9 21.5t21 9.5h113v122q0 13 11 24t24 11h143q14 0 24.5 -11t10.5 -24v-122h147q12 0 21.5 -9.5t9.5 -21.5v-111q0 -12 -9.5 -21.5t-21.5 -9.5h-147v-161z" />
    <glyph glyph-name="Utilde" unicode="&#x168;" horiz-adv-x="933" 
d="M467 -12q-161 0 -265 97t-104 245v901q0 13 11 24t24 11h143q14 0 24.5 -11t10.5 -24v-907q0 -83 46 -123.5t110 -40.5t110 40.5t46 123.5v907q0 14 10.5 24.5t23.5 10.5h144q13 0 24 -11t11 -24v-901q0 -148 -104 -245t-265 -97zM590 1341q-58 0 -133 35q-56 29 -82 29
q-39 0 -76 -29q-10 -10 -20 -10q-16 0 -23 10l-57 72q-6 9 -6 18q0 12 10 25q31 35 70.5 59.5t70.5 24.5q10 0 21.5 -3t18.5 -6t23.5 -10t22.5 -10q72 -35 129 -35q39 0 76 29q10 10 20 10q16 0 23 -10l57 -72q6 -9 6 -18q0 -12 -10 -25q-31 -35 -70.5 -59.5t-70.5 -24.5z
" />
    <glyph glyph-name="utilde" unicode="&#x169;" 
d="M778 907v-872q0 -13 -11 -24t-24 -11h-143q-14 0 -24.5 11t-10.5 24v24q-34 -32 -73.5 -48.5t-64.5 -19.5t-60 -3q-131 0 -205 76t-74 227v616q0 13 11 24t24 11h143q14 0 24.5 -11t10.5 -24v-614q0 -63 37.5 -98t91.5 -35q61 0 98 35t37 98v614q0 13 10.5 24t24.5 11
h143q13 0 24 -11t11 -24zM555 1030q-58 0 -133 35q-56 29 -82 29q-39 0 -76 -29q-10 -10 -20 -10q-16 0 -23 10l-57 72q-6 9 -6 18q0 12 10 25q31 35 70.5 59.5t70.5 24.5q10 0 21.5 -3t18.5 -6t23.5 -10t22.5 -10q72 -35 129 -35q39 0 76 29q10 10 21 10q15 0 22 -10
l57 -72q7 -11 7 -18q0 -10 -11 -25q-31 -35 -70.5 -59.5t-70.5 -24.5z" />
    <glyph glyph-name="Umacron" unicode="&#x16a;" horiz-adv-x="933" 
d="M467 -12q-161 0 -265 97t-104 245v901q0 13 11 24t24 11h143q14 0 24.5 -11t10.5 -24v-907q0 -83 46 -123.5t110 -40.5t110 40.5t46 123.5v907q0 14 10.5 24.5t23.5 10.5h144q13 0 24 -11t11 -24v-901q0 -148 -104 -245t-265 -97zM254 1513h426q11 0 19 -8t8 -18v-119
q0 -10 -8.5 -18.5t-18.5 -8.5h-426q-10 0 -18.5 8.5t-8.5 18.5v119q0 10 8 18t19 8z" />
    <glyph glyph-name="umacron" unicode="&#x16b;" 
d="M778 907v-872q0 -13 -11 -24t-24 -11h-143q-14 0 -24.5 11t-10.5 24v24q-34 -32 -73.5 -48.5t-64.5 -19.5t-60 -3q-131 0 -205 76t-74 227v616q0 13 11 24t24 11h143q14 0 24.5 -11t10.5 -24v-614q0 -63 37.5 -98t91.5 -35q61 0 98 35t37 98v614q0 13 10.5 24t24.5 11
h143q13 0 24 -11t11 -24zM225 1202h426q11 0 19 -8t8 -18v-119q0 -11 -8 -19t-19 -8h-426q-10 0 -18 8t-8 19v119q0 10 7.5 18t18.5 8z" />
    <glyph glyph-name="Ubreve" unicode="&#x16c;" horiz-adv-x="933" 
d="M467 -12q-161 0 -265 97t-104 245v901q0 13 11 24t24 11h143q14 0 24.5 -11t10.5 -24v-907q0 -83 46 -123.5t110 -40.5t110 40.5t46 123.5v907q0 14 10.5 24.5t23.5 10.5h144q13 0 24 -11t11 -24v-901q0 -148 -104 -245t-265 -97zM467 1341q-62 0 -110 10.5t-91 36.5
t-67.5 76t-26.5 123q0 12 9.5 21.5t21.5 9.5h129q12 0 21 -9.5t9 -21.5q0 -38 29.5 -59t75.5 -21t75 21t29 59q0 12 9.5 21.5t21.5 9.5h129q12 0 21.5 -9.5t9.5 -21.5q-2 -73 -26.5 -123t-67.5 -76t-91 -36.5t-110 -10.5z" />
    <glyph glyph-name="ubreve" unicode="&#x16d;" 
d="M778 907v-872q0 -13 -11 -24t-24 -11h-143q-14 0 -24.5 11t-10.5 24v24q-34 -32 -73.5 -48.5t-64.5 -19.5t-60 -3q-131 0 -205 76t-74 227v616q0 13 11 24t24 11h143q14 0 24.5 -11t10.5 -24v-614q0 -63 37.5 -98t91.5 -35q61 0 98 35t37 98v614q0 13 10.5 24t24.5 11
h143q13 0 24 -11t11 -24zM430 1030q-62 0 -110 10.5t-91 36.5t-67.5 76t-26.5 123q0 12 9.5 21.5t21.5 9.5h129q12 0 21.5 -9.5t9.5 -21.5q0 -38 29 -59t75 -21t75.5 21t29.5 59q0 12 9 21.5t21 9.5h129q12 0 21.5 -9.5t9.5 -21.5q-2 -73 -26.5 -123t-67.5 -76t-91 -36.5
t-110 -10.5z" />
    <glyph glyph-name="Uring" unicode="&#x16e;" horiz-adv-x="933" 
d="M467 -12q-161 0 -265 97t-104 245v901q0 13 11 24t24 11h143q14 0 24.5 -11t10.5 -24v-907q0 -83 46 -123.5t110 -40.5t110 40.5t46 123.5v907q0 14 10.5 24.5t23.5 10.5h144q13 0 24 -11t11 -24v-901q0 -148 -104 -245t-265 -97zM467 1341q-99 0 -154 59.5t-55 174.5
q0 118 55 177.5t154 59.5t155 -60t56 -177q0 -115 -56 -174.5t-155 -59.5zM467 1481q23 0 40 24.5t17 69.5q0 49 -16.5 71.5t-40.5 22.5q-23 0 -39 -22.5t-16 -71.5q0 -44 16.5 -69t38.5 -25z" />
    <glyph glyph-name="uring" unicode="&#x16f;" 
d="M778 907v-872q0 -13 -11 -24t-24 -11h-143q-14 0 -24.5 11t-10.5 24v24q-34 -32 -73.5 -48.5t-64.5 -19.5t-60 -3q-131 0 -205 76t-74 227v616q0 13 11 24t24 11h143q14 0 24.5 -11t10.5 -24v-614q0 -63 37.5 -98t91.5 -35q61 0 98 35t37 98v614q0 13 10.5 24t24.5 11
h143q13 0 24 -11t11 -24zM432 1030q-99 0 -154 59.5t-55 174.5q0 118 55 177.5t154 59.5t155 -60t56 -177q0 -115 -56 -174.5t-155 -59.5zM432 1169q23 0 40 25t17 70q0 49 -16.5 71.5t-40.5 22.5q-23 0 -39 -22.5t-16 -71.5q0 -45 16.5 -70t38.5 -25z" />
    <glyph glyph-name="Uhungarumlaut" unicode="&#x170;" horiz-adv-x="933" 
d="M467 -12q-161 0 -265 97t-104 245v901q0 13 11 24t24 11h143q14 0 24.5 -11t10.5 -24v-907q0 -83 46 -123.5t110 -40.5t110 40.5t46 123.5v907q0 14 10.5 24.5t23.5 10.5h144q13 0 24 -11t11 -24v-901q0 -148 -104 -245t-265 -97zM494 1376l45 240q7 30 34 33h148
q13 -2 22 -11t9 -22l-84 -240q-11 -32 -33 -35h-109q-14 2 -23 12t-9 23zM236 1376l45 240q7 30 34 33h148q13 -2 22 -11t9 -22l-84 -240q-11 -32 -33 -35h-109q-14 2 -23 12t-9 23z" />
    <glyph glyph-name="uhungarumlaut" unicode="&#x171;" 
d="M778 907v-872q0 -13 -11 -24t-24 -11h-143q-14 0 -24.5 11t-10.5 24v24q-34 -32 -73.5 -48.5t-64.5 -19.5t-60 -3q-131 0 -205 76t-74 227v616q0 13 11 24t24 11h143q14 0 24.5 -11t10.5 -24v-614q0 -63 37.5 -98t91.5 -35q61 0 98 35t37 98v614q0 13 10.5 24t24.5 11
h143q13 0 24 -11t11 -24zM463 1065l45 240q6 29 35 32h147q13 -2 22 -10.5t9 -21.5l-84 -240q-11 -32 -33 -35h-108q-14 2 -23.5 12t-9.5 23zM205 1065l45 240q6 29 35 32h147q13 -2 22 -10.5t9 -21.5l-84 -240q-11 -32 -33 -35h-108q-14 2 -23.5 12t-9.5 23z" />
    <glyph glyph-name="Uogonek" unicode="&#x172;" horiz-adv-x="933" 
d="M836 330q0 -104 -54.5 -187t-146.5 -123q-57 -21 -89 -59.5t-32 -91.5q0 -29 21.5 -51.5t52.5 -22.5q11 0 65 6q19 0 23 -20v-107q-4 -15 -21 -18q-44 -6 -88 -6q-63 0 -110 21.5t-70.5 55t-34 65.5t-10.5 61q0 77 47 141q-131 23 -211 115t-80 221v901q0 13 11 24t24 11
h143q14 0 24.5 -11t10.5 -24v-907q0 -83 46 -123.5t110 -40.5t110 40.5t46 123.5v907q0 14 10.5 24.5t23.5 10.5h144q13 0 24 -11t11 -24v-901z" />
    <glyph glyph-name="uogonek" unicode="&#x173;" 
d="M565 4v55q-34 -32 -73.5 -48.5t-64.5 -19.5t-60 -3q-131 0 -205 76t-74 227v616q0 13 11 24t24 11h143q14 0 24.5 -11t10.5 -24v-614q0 -63 37.5 -98t91.5 -35q61 0 98 35t37 98v614q0 13 10.5 24t24.5 11h143q13 0 24 -11t11 -24v-872q0 -13 -11 -24t-24 -11
q-44 0 -80 -41t-36 -88q0 -30 18 -53t49 -23q8 0 62 6q18 0 22 -20v-107q-4 -15 -20 -18q-43 -6 -88 -6q-64 0 -110.5 15t-70.5 40.5t-34.5 52t-10.5 56.5q0 28 1 44t7.5 40t18.5 40t36 34t58 32z" />
    <glyph glyph-name="Ydieresis" unicode="&#x178;" horiz-adv-x="868" 
d="M541 428v-393q0 -13 -10.5 -24t-24.5 -11h-144q-13 0 -23.5 10.5t-10.5 24.5v393l-301 803q0 14 10.5 24.5t23.5 10.5h142q25 0 37 -35l194 -514l195 514q12 35 37 35h141q13 0 24 -11t11 -24zM186 1454q0 43 33 75t78 32t78 -32t33 -75q0 -46 -32.5 -79.5t-78.5 -33.5
t-78.5 33.5t-32.5 79.5zM461 1454q0 43 32.5 75t77.5 32t78 -32t33 -75q0 -46 -32.5 -79.5t-78.5 -33.5q-45 0 -77.5 33.5t-32.5 79.5z" />
    <glyph glyph-name="Zacute" unicode="&#x179;" horiz-adv-x="780" 
d="M82 178l397 918h-375q-10 0 -18 8t-8 18v117q0 11 8 19t18 8h572q10 0 18 -8t8 -19v-123q0 -21 -4 -29l-403 -917h381q10 0 18 -8t8 -19v-116q0 -11 -8 -19t-18 -8h-572q-10 0 -18 8t-8 19v123q0 20 4 28zM213 1479l256 147q9 6 18 6q15 0 25 -10l94 -111q6 -6 6 -18
q0 -16 -10 -23l-274 -122q-17 -7 -27 -7q-8 0 -20 9l-72 86q-6 6 -6 18q0 15 10 25z" />
    <glyph glyph-name="zacute" unicode="&#x17a;" horiz-adv-x="667" 
d="M51 176l357 596h-334q-10 0 -18.5 8t-8.5 19v116q0 11 8.5 19t18.5 8h520q10 0 18.5 -8t8.5 -19v-122q0 -19 -5 -29l-352 -596h330q10 0 18.5 -8t8.5 -19v-116q0 -11 -8.5 -19t-18.5 -8h-520q-10 0 -18.5 8t-8.5 19v122q0 21 4 29zM156 1167l256 148q9 6 18 6
q15 0 25 -10l94 -111q6 -6 6 -18q0 -16 -10 -23l-275 -123q-15 -6 -26 -6q-10 0 -21 8l-71 86q-7 7 -7 19q0 13 11 24z" />
    <glyph glyph-name="Zdotaccent" unicode="&#x17b;" horiz-adv-x="780" 
d="M82 178l397 918h-375q-10 0 -18 8t-8 18v117q0 11 8 19t18 8h572q10 0 18 -8t8 -19v-123q0 -21 -4 -29l-403 -917h381q10 0 18 -8t8 -19v-116q0 -11 -8 -19t-18 -8h-572q-10 0 -18 8t-8 19v123q0 20 4 28zM279 1454q0 -46 32.5 -79.5t77.5 -33.5q46 0 78.5 33.5
t32.5 79.5q0 43 -33 75t-78 32t-77.5 -32t-32.5 -75z" />
    <glyph glyph-name="zdotaccent" unicode="&#x17c;" horiz-adv-x="667" 
d="M51 176l357 596h-334q-10 0 -18.5 8t-8.5 19v116q0 11 8.5 19t18.5 8h520q10 0 18.5 -8t8.5 -19v-122q0 -19 -5 -29l-352 -596h330q10 0 18.5 -8t8.5 -19v-116q0 -11 -8.5 -19t-18.5 -8h-520q-10 0 -18.5 8t-8.5 19v122q0 21 4 29zM223 1143q0 -46 32.5 -79.5t78.5 -33.5
q45 0 77.5 33.5t32.5 79.5q0 43 -32.5 74.5t-77.5 31.5q-46 0 -78.5 -31.5t-32.5 -74.5z" />
    <glyph glyph-name="Zcaron" unicode="&#x17d;" horiz-adv-x="780" 
d="M82 178l397 918h-375q-10 0 -18 8t-8 18v117q0 11 8 19t18 8h572q10 0 18 -8t8 -19v-123q0 -21 -4 -29l-403 -917h381q10 0 18 -8t8 -19v-116q0 -11 -8 -19t-18 -8h-572q-10 0 -18 8t-8 19v123q0 20 4 28zM309 1341h209q27 0 39 37l92 283q0 14 -12 25.5t-27 11.5h-110
q-27 0 -39 -37l-47 -168l-47 168q-12 37 -39 37h-111q-15 0 -27 -11.5t-12 -25.5l92 -283q12 -37 39 -37z" />
    <glyph glyph-name="zcaron" unicode="&#x17e;" horiz-adv-x="667" 
d="M51 176l357 596h-334q-10 0 -18.5 8t-8.5 19v116q0 11 8.5 19t18.5 8h520q10 0 18.5 -8t8.5 -19v-122q0 -19 -5 -29l-352 -596h330q10 0 18.5 -8t8.5 -19v-116q0 -11 -8.5 -19t-18.5 -8h-520q-10 0 -18.5 8t-8.5 19v122q0 21 4 29zM229 1030h209q27 0 39 37l92 283
q0 14 -12 25t-27 11h-110q-27 0 -39 -36l-47 -168l-47 168q-12 36 -39 36h-111q-15 0 -27 -11t-12 -25l92 -283q12 -37 39 -37z" />
    <glyph glyph-name="florin" unicode="&#x192;" horiz-adv-x="587" 
d="M383 770v-770q0 -97 -19.5 -163t-58.5 -103t-89.5 -52.5t-121.5 -15.5h-53q-12 0 -21.5 9.5t-9.5 21.5v113q0 12 9.5 21t21.5 9h20q32 0 53.5 9t32 20.5t16 36t6.5 41t1 49.5v774h-113q-12 0 -21 9.5t-9 21.5v110q0 12 9 21.5t21 9.5h113q0 99 19.5 165.5t59 103t89.5 51
t121 14.5h57q12 0 21.5 -9.5t9.5 -21.5v-106q0 -12 -9.5 -21.5t-21.5 -9.5q-78 0 -105.5 -31t-27.5 -84v-51h147q12 0 21.5 -9.5t9.5 -21.5v-110q0 -12 -9.5 -21.5t-21.5 -9.5h-147z" />
    <glyph glyph-name="uni0218" unicode="&#x218;" horiz-adv-x="856" 
d="M68 322q0 14 10 24t24 10h144q14 0 24.5 -10.5t10.5 -23.5q9 -162 168 -162q41 0 71.5 14.5t44 32t21.5 43t9 37.5t1 24q0 82 -50 133.5t-153 102.5q-39 19 -64.5 32.5t-63 37t-62 44.5t-52.5 52t-44.5 63.5t-27.5 74.5t-11 89q0 50 7.5 94t31 91t61 79.5t102 54
t150.5 21.5q82 0 146 -24.5t99.5 -60t59.5 -84.5t32 -88t11 -81q0 -14 -11 -24.5t-24 -10.5h-143q-14 0 -24.5 10.5t-10.5 24.5q-4 33 -10.5 58t-21 52t-41.5 41.5t-66 14.5q-73 0 -104 -43.5t-31 -110.5q0 -33 7.5 -60.5t26.5 -51t35.5 -40t50 -36.5t53.5 -30.5t62 -30.5
q38 -18 59.5 -29.5t57 -33t56.5 -40.5t46.5 -48t39.5 -59.5t24 -72t10 -88.5q0 -94 -29 -163t-80 -108t-113 -57t-136 -18q-68 0 -130 17.5t-118.5 55t-92.5 104.5t-42 157zM565 -123l-35 -237q-7 -30 -34 -33h-148q-13 2 -22 11t-9 22l74 237q11 32 33 35h108
q14 -2 23.5 -12t9.5 -23z" />
    <glyph glyph-name="uni0219" unicode="&#x219;" horiz-adv-x="737" 
d="M371 954q64 0 116 -17t83.5 -42t55 -60t34.5 -65t18 -63q0 -13 -11 -24t-24 -11h-119q-25 0 -37 35q-7 29 -36 52t-68 23q-4 0 -11.5 -0.5t-26 -6t-32.5 -15t-25.5 -30.5t-11.5 -50q0 -41 57 -80q23 -16 156 -90q47 -26 75 -45.5t61.5 -51t50 -72.5t16.5 -91
q0 -31 -9 -64t-32 -69.5t-57.5 -65t-92 -47t-128.5 -18.5q-80 0 -141.5 23.5t-96.5 62t-54 76.5t-28 79q0 13 10.5 24t24.5 11h119q25 0 37 -35q6 -28 39 -51.5t73 -23.5q60 0 91.5 21.5t31.5 74.5q0 15 -3 27t-12 23t-15.5 18.5t-23.5 18t-25.5 15t-32 16.5t-33.5 17
q-9 5 -37.5 19.5t-44 23t-44 26t-45 31.5t-38 37t-33.5 45t-20.5 51.5t-8.5 61.5q0 72 28 127.5t74 86.5t98 46.5t108 15.5zM451 -123l-35 -237q-7 -30 -35 -33h-148q-12 2 -21 11t-9 22l73 237q11 32 33 35h109q14 -2 23.5 -12t9.5 -23z" />
    <glyph glyph-name="uni021A" unicode="&#x21a;" horiz-adv-x="720" 
d="M254 35v1061h-186q-12 0 -21.5 9t-9.5 21v109q0 12 9.5 21.5t21.5 9.5h585q12 0 21.5 -9.5t9.5 -21.5v-109q0 -12 -9.5 -21t-21.5 -9h-186v-1061q0 -13 -10.5 -24t-24.5 -11h-143q-13 0 -24 11t-11 24zM422 -123l-35 -237q-7 -30 -35 -33h-147q-13 2 -22 11t-9 22l74 237
q11 32 33 35h108q14 -2 23.5 -12t9.5 -23z" />
    <glyph glyph-name="uni021B" unicode="&#x21b;" horiz-adv-x="618" 
d="M510 172h20q12 0 21.5 -9.5t9.5 -21.5v-110q0 -12 -9.5 -21.5t-21.5 -9.5h-71q-71 0 -121 15t-89.5 51.5t-59 103t-19.5 164.5v436h-113q-12 0 -21 9.5t-9 21.5v110q0 12 9 21.5t21 9.5h113v227q0 13 11 24t24 11h143q14 0 24.5 -11t10.5 -24v-227h147q12 0 21.5 -9.5
t9.5 -21.5v-110q0 -12 -9.5 -21.5t-21.5 -9.5h-147v-442q0 -74 25.5 -113.5t101.5 -42.5zM465 -123l-35 -237q-7 -30 -35 -33h-147q-13 2 -22 11t-9 22l74 237q11 32 33 35h108q14 -2 23.5 -12t9.5 -23z" />
    <glyph glyph-name="circumflex" unicode="&#x2c6;" horiz-adv-x="667" 
d="M229 1266h209q27 0 39 -37l92 -283q0 -14 -12 -25.5t-27 -11.5h-110q-27 0 -39 37l-47 168l-47 -168q-12 -37 -39 -37h-111q-15 0 -27 11.5t-12 25.5l92 283q12 37 39 37z" />
    <glyph glyph-name="caron" unicode="&#x2c7;" horiz-adv-x="667" 
d="M438 909h-209q-27 0 -39 37l-92 283q0 14 12 25.5t27 11.5h111q27 0 39 -37l47 -168l47 168q12 37 39 37h110q15 0 27 -11.5t12 -25.5l-92 -283q-12 -37 -39 -37z" />
    <glyph glyph-name="breve" unicode="&#x2d8;" horiz-adv-x="786" 
d="M393 989q-62 0 -110 10.5t-91 36.5t-67.5 76t-26.5 123q0 12 9.5 21.5t21.5 9.5h129q12 0 21.5 -9.5t9.5 -21.5q0 -38 29 -59t75 -21t75.5 21t29.5 59q0 12 9 21.5t21 9.5h129q12 0 21.5 -9.5t9.5 -21.5q-2 -73 -26.5 -123t-67.5 -76t-91 -36.5t-110 -10.5z" />
    <glyph glyph-name="dotaccent" unicode="&#x2d9;" horiz-adv-x="417" 
d="M98 1174q0 43 32.5 74.5t78.5 31.5q45 0 77.5 -31.5t32.5 -74.5q0 -46 -32.5 -79.5t-77.5 -33.5q-46 0 -78.5 33.5t-32.5 79.5z" />
    <glyph glyph-name="ring" unicode="&#x2da;" horiz-adv-x="616" 
d="M307 795q-99 0 -154 59t-55 174q0 118 55 178t154 60t155 -60.5t56 -177.5q0 -115 -56 -174t-155 -59zM307 934q24 0 41 24.5t17 69.5q0 49 -16.5 71.5t-41.5 22.5q-23 0 -39 -22.5t-16 -71.5q0 -44 16.5 -69t38.5 -25z" />
    <glyph glyph-name="ogonek" unicode="&#x2db;" horiz-adv-x="512" 
d="M121 -45q13 30 43 33h104q11 -2 22 -9.5t11 -15.5q0 -6 -2 -8q-2 -3 -7.5 -12.5t-8.5 -16t-6 -17.5t-3 -22q0 -16 13 -30.5t32 -14.5q24 0 70 8q21 0 25 -22v-104q-2 -7 -9.5 -13t-15.5 -6q-33 -8 -88 -8q-47 0 -84 12t-58.5 30.5t-36 43t-19.5 46.5t-5 44q0 44 23 82z
" />
    <glyph glyph-name="tilde" unicode="&#x2dc;" horiz-adv-x="745" 
d="M496 1032q-59 0 -134 35q-56 29 -81 29q-39 0 -76 -29q-10 -10 -21 -10q-15 0 -22 10l-58 72q-6 9 -6 18q0 10 11 25q31 35 70.5 59.5t70.5 24.5q10 0 21.5 -3t18.5 -6t23.5 -10t22.5 -10q72 -35 129 -35q39 0 76 29q10 10 20 10q16 0 23 -10l57 -72q6 -9 6 -18
q0 -12 -10 -25q-31 -35 -70.5 -59.5t-70.5 -24.5z" />
    <glyph glyph-name="hungarumlaut" unicode="&#x2dd;" horiz-adv-x="712" 
d="M356 993l45 240q7 30 35 33h148q12 -2 21 -11t9 -22l-84 -240q-11 -32 -32 -35h-109q-14 2 -23.5 12t-9.5 23zM98 993l45 240q7 30 35 33h148q12 -2 21 -11t9 -22l-84 -240q-11 -32 -32 -35h-109q-14 2 -23.5 12t-9.5 23z" />
    <glyph glyph-name="uni03A9" unicode="&#x3a9;" horiz-adv-x="1155" 
d="M578 1280q161 0 264.5 -98t103.5 -246v-604q0 -97 -33 -160h117q10 0 18.5 -8t8.5 -19v-118q0 -11 -8.5 -19t-18.5 -8h-366q-10 0 -18.5 8t-8.5 19v118q0 11 8.5 19t18.5 8q69 7 69 147v625q0 83 -45 123.5t-110 40.5t-110.5 -40.5t-45.5 -123.5v-625q0 -140 70 -147
q10 0 18 -8t8 -19v-118q0 -11 -8 -19t-18 -8h-367q-11 0 -19 8t-8 19v118q0 11 8 19t19 8h117q-33 63 -33 160v604q0 148 104 246t265 98z" />
    <glyph glyph-name="pi" unicode="&#x3c0;" horiz-adv-x="1345" 
d="M817 35v737h-289v-737q0 -14 -10.5 -24.5t-23.5 -10.5h-144q-14 0 -24.5 11t-10.5 24v737h-186q-12 0 -21.5 9.5t-9.5 21.5v108q0 12 9.5 21.5t21.5 9.5h1088q12 0 21 -9.5t9 -21.5v-108q0 -12 -9 -21.5t-21 -9.5h-187v-737q0 -13 -11 -24t-24 -11h-143q-14 0 -24.5 11
t-10.5 24z" />
    <glyph glyph-name="ZWSP" unicode="&#x200b;" horiz-adv-x="0" 
 />
    <glyph glyph-name="endash" unicode="&#x2013;" horiz-adv-x="755" 
d="M125 584h506q10 0 18 -8t8 -19v-119q0 -10 -7.5 -18t-18.5 -8h-506q-11 0 -19 8t-8 18v119q0 11 8 19t19 8z" />
    <glyph glyph-name="emdash" unicode="&#x2014;" horiz-adv-x="890" 
d="M125 584h641q10 0 18.5 -8t8.5 -19v-119q0 -10 -8 -18t-19 -8h-641q-11 0 -19 8t-8 18v119q0 11 8 19t19 8z" />
    <glyph glyph-name="quoteleft" unicode="&#x2018;" horiz-adv-x="464" 
d="M367 1231l-56 -297q-7 -30 -35 -33h-147q-13 2 -22 11t-9 22l95 297q11 32 32 35h109q14 -2 23.5 -12t9.5 -23z" />
    <glyph glyph-name="quoteright" unicode="&#x2019;" horiz-adv-x="464" 
d="M98 936l56 297q7 30 34 33h148q13 -2 22 -11t9 -22l-95 -297q-11 -32 -32 -35h-109q-14 2 -23.5 12t-9.5 23z" />
    <glyph glyph-name="quotesinglbase" unicode="&#x201a;" horiz-adv-x="464" 
d="M98 -182l56 297q6 29 34 32h148q13 -2 22 -10.5t9 -21.5l-95 -297q-11 -32 -32 -35h-109q-14 2 -23.5 12t-9.5 23z" />
    <glyph glyph-name="quotedblleft" unicode="&#x201c;" horiz-adv-x="755" 
d="M367 1231l-56 -297q-7 -30 -35 -33h-147q-13 2 -22 11t-9 22l95 297q11 32 32 35h109q14 -2 23.5 -12t9.5 -23zM657 1231l-55 -297q-7 -30 -35 -33h-147q-13 2 -22 11t-9 22l94 297q11 32 33 35h109q14 -2 23 -12t9 -23z" />
    <glyph glyph-name="quotedblright" unicode="&#x201d;" horiz-adv-x="755" 
d="M389 936l55 297q7 30 35 33h148q12 -2 21 -11t9 -22l-94 -297q-11 -32 -33 -35h-108q-14 2 -23.5 12t-9.5 23zM98 936l56 297q7 30 34 33h148q13 -2 22 -11t9 -22l-95 -297q-11 -32 -32 -35h-109q-14 2 -23.5 12t-9.5 23z" />
    <glyph glyph-name="quotedblbase" unicode="&#x201e;" horiz-adv-x="755" 
d="M389 -182l55 297q6 29 35 32h148q13 -2 21.5 -10.5t8.5 -21.5l-94 -297q-11 -32 -33 -35h-108q-14 2 -23.5 12t-9.5 23zM98 -182l56 297q6 29 34 32h148q13 -2 22 -10.5t9 -21.5l-95 -297q-11 -32 -32 -35h-109q-14 2 -23.5 12t-9.5 23z" />
    <glyph glyph-name="dagger" unicode="&#x2020;" horiz-adv-x="768" 
d="M489 819v-784q0 -14 -10.5 -24.5t-23.5 -10.5h-144q-13 0 -24 11t-11 24v784h-147q-12 0 -21.5 9.5t-9.5 21.5v108q0 12 9.5 21.5t21.5 9.5h147v242q0 13 11 24t24 11h144q13 0 23.5 -10.5t10.5 -24.5v-242h150q12 0 21.5 -9.5t9.5 -21.5v-108q0 -12 -9.5 -21.5
t-21.5 -9.5h-150z" />
    <glyph glyph-name="daggerdbl" unicode="&#x2021;" horiz-adv-x="768" 
d="M276 256h-147q-12 0 -21.5 9.5t-9.5 21.5v108q0 12 9.5 21.5t21.5 9.5h147v393h-147q-12 0 -21.5 9.5t-9.5 21.5v108q0 12 9.5 21.5t21.5 9.5h147v242q0 13 11 24t24 11h144q13 0 23.5 -10.5t10.5 -24.5v-242h150q12 0 21.5 -9.5t9.5 -21.5v-108q0 -12 -9.5 -21.5
t-21.5 -9.5h-150v-393h150q12 0 21.5 -9.5t9.5 -21.5v-108q0 -12 -9.5 -21.5t-21.5 -9.5h-150v-221q0 -14 -10.5 -24.5t-23.5 -10.5h-144q-13 0 -24 11t-11 24v221z" />
    <glyph glyph-name="bullet" unicode="&#x2022;" horiz-adv-x="417" 
d="M98 434q0 43 33 75t78 32t77.5 -32t32.5 -75q0 -46 -32 -79t-78 -33t-78.5 33t-32.5 79z" />
    <glyph glyph-name="ellipsis" unicode="&#x2026;" horiz-adv-x="1306" 
d="M98 100q0 43 33 75t78 32t77.5 -32t32.5 -75q0 -46 -32 -79t-78 -33t-78.5 33t-32.5 79zM543 100q0 43 32.5 75t77.5 32t78 -32t33 -75q0 -46 -32.5 -79t-78.5 -33t-78 33t-32 79zM987 100q0 43 33 75t78 32t77.5 -32t32.5 -75q0 -46 -32 -79t-78 -33t-78.5 33t-32.5 79z
" />
    <glyph glyph-name="perthousand" unicode="&#x2030;" horiz-adv-x="1605" 
d="M905 1225l-426 -1182q-14 -40 -47 -43h-143q-12 2 -21.5 13t-9.5 24q0 4 424 1188q13 38 45 41h143q14 -2 25.5 -10.5t11.5 -20.5q0 -6 -2 -10zM285 846q-88 0 -137.5 53.5t-49.5 155.5q0 104 49.5 157.5t137.5 53.5t138 -53.5t50 -157.5q0 -102 -50 -155.5t-138 -53.5z
M285 971q21 0 36 22t15 62q0 42 -15 63t-36 21t-35 -20.5t-14 -63.5q0 -40 14.5 -62t34.5 -22zM872 0q-88 0 -137 53.5t-49 155.5q0 104 49 157.5t137 53.5t138.5 -54t50.5 -157q0 -102 -50.5 -155.5t-138.5 -53.5zM872 125q21 0 36.5 22t15.5 62q0 42 -15.5 63t-36.5 21
t-35 -20.5t-14 -63.5q0 -40 14.5 -62t34.5 -22zM1319 0q-88 0 -137 53.5t-49 155.5q0 104 49 157.5t137 53.5t138 -53.5t50 -157.5q0 -102 -50 -155.5t-138 -53.5zM1319 125q21 0 36 22t15 62q0 42 -15 63t-36 21t-35 -20.5t-14 -63.5q0 -40 14.5 -62t34.5 -22z" />
    <glyph glyph-name="guilsinglleft" unicode="&#x2039;" horiz-adv-x="694" 
d="M98 248v203q3 34 41 51l422 184q12 0 22.5 -11.5t12.5 -25.5v-149q-2 -21 -35 -37l-266 -115l266 -112q33 -16 35 -37v-150q-2 -14 -12.5 -25.5t-22.5 -11.5l-422 185q-38 17 -41 51z" />
    <glyph glyph-name="guilsinglright" unicode="&#x203a;" horiz-adv-x="694" 
d="M596 451v-203q-3 -34 -41 -51l-422 -185q-12 0 -22.5 11.5t-12.5 25.5v150q2 21 35 37l266 112l-266 115q-33 16 -35 37v149q2 14 12.5 25.5t22.5 11.5l422 -184q38 -17 41 -51z" />
    <glyph glyph-name="fraction" unicode="&#x2044;" horiz-adv-x="712" 
d="M98 -207l332 1684q8 34 37 34h113q14 0 24 -10.5t10 -23.5l-331 -1684q-8 -35 -37 -35h-113q-13 0 -24 11t-11 24z" />
    <glyph glyph-name="Euro" unicode="&#x20ac;" horiz-adv-x="1042" 
d="M422 852h125q10 0 18 -8t8 -19v-118q0 -11 -8 -19t-18 -8h-125v-125h125q10 0 18 -8t8 -19v-118q0 -11 -8 -19t-18 -8h-125v-59q0 -83 45 -123.5t108 -40.5q62 0 107.5 40t48.5 119q0 13 10.5 24t24.5 11h143q13 0 24 -11t11 -24q-9 -142 -113 -236.5t-256 -94.5
q-159 0 -262.5 97t-103.5 245v53h-84q-11 0 -19 8.5t-8 18.5v118q0 10 8 18.5t19 8.5h84v125h-84q-11 0 -19 8t-8 19v118q0 11 8 19t19 8h84v84q0 148 103.5 246t262.5 98q152 0 256.5 -95t112.5 -237q0 -14 -11 -24.5t-24 -10.5h-143q-14 0 -24.5 10.5t-10.5 24.5
q-1 81 -47 120.5t-109 39.5t-108 -40.5t-45 -123.5v-92z" />
    <glyph glyph-name="Numero" unicode="&#x2116;" horiz-adv-x="1748" 
d="M608 553v678q0 13 11 24t24 11h143q14 0 24.5 -11t10.5 -24v-1196q0 -13 -10.5 -24t-24.5 -11h-127q-11 0 -21 8t-13 17l-314 669v-659q0 -13 -10.5 -24t-24.5 -11h-143q-13 0 -24 11t-11 24v1196q0 13 11 24t24 11h127q11 0 21.5 -8t13.5 -17zM1311 1266
q147 0 243.5 -94t96.5 -234v-330q0 -135 -99 -222t-241 -87t-241 87t-99 222v330q0 140 96.5 234t243.5 94zM1311 471q56 0 91.5 37.5t35.5 95.5v359q0 56 -35.5 93.5t-91.5 37.5t-91.5 -37.5t-35.5 -93.5v-359q0 -58 35.5 -95.5t91.5 -37.5zM1051 172h505q10 0 18.5 -8
t8.5 -19v-118q0 -11 -8.5 -19t-18.5 -8h-505q-11 0 -19 8t-8 19v118q0 11 8 19t19 8z" />
    <glyph glyph-name="trademark" unicode="&#x2122;" horiz-adv-x="1128" 
d="M209 1122h-92q-7 0 -13 5.5t-6 11.5v110q0 6 6 11.5t13 5.5h336q6 0 12 -5.5t6 -11.5v-110q0 -6 -6 -11.5t-12 -5.5h-97v-448q0 -19 -18 -23h-109q-20 3 -20 23v448zM801 762h-49q-11 4 -15 10l-67 158v-256q0 -19 -19 -23h-108q-8 2 -14.5 8.5t-6.5 14.5v571q0 7 6.5 13
t14.5 8h129q14 0 22 -21l82 -225l82 225q8 21 23 21h129q8 -2 14 -8t6 -13v-571q0 -19 -20 -23h-109q-18 4 -18 23v256l-68 -158q-5 -7 -14 -10z" />
    <glyph glyph-name="Omega" unicode="&#x2126;" horiz-adv-x="1155" 
d="M578 1280q161 0 264.5 -98t103.5 -246v-604q0 -97 -33 -160h117q10 0 18.5 -8t8.5 -19v-118q0 -11 -8.5 -19t-18.5 -8h-366q-10 0 -18.5 8t-8.5 19v118q0 11 8.5 19t18.5 8q69 7 69 147v625q0 83 -45 123.5t-110 40.5t-110.5 -40.5t-45.5 -123.5v-625q0 -140 70 -147
q10 0 18 -8t8 -19v-118q0 -11 -8 -19t-18 -8h-367q-11 0 -19 8t-8 19v118q0 11 8 19t19 8h117q-33 63 -33 160v604q0 148 104 246t265 98z" />
    <glyph glyph-name="partialdiff" unicode="&#x2202;" horiz-adv-x="886" 
d="M575 758v219q0 56 -37 93.5t-94 37.5q-59 0 -94 -37t-35 -94v-8q0 -14 -10.5 -24.5t-23.5 -10.5h-144q-13 0 -24 11t-11 24q6 134 102 222.5t240 88.5q147 0 245.5 -94t98.5 -234v-917q0 -14 -10.5 -24.5t-23.5 -10.5h-144q-14 0 -24.5 11t-10.5 24v24
q-34 -32 -73.5 -48.5t-64.5 -19.5t-60 -3q-131 0 -205 76t-74 227v235q0 151 74 227t205 76q35 0 60 -3t64.5 -19.5t73.5 -48.5zM311 524v-231q0 -63 37.5 -98t91.5 -35q61 0 98 35t37 98v231q0 63 -37 98t-98 35q-54 0 -91.5 -35t-37.5 -98z" />
    <glyph glyph-name="Delta" unicode="&#x2206;" horiz-adv-x="1185" 
d="M1049 0h-912q-16 2 -27.5 14t-11.5 29l377 1182q4 11 6.5 16t10.5 12t22 13h156q15 -6 23.5 -13t11 -12t6.5 -16l376 -1182q0 -17 -11.5 -29t-26.5 -14zM594 963l-244 -793h488z" />
    <glyph glyph-name="product" unicode="&#x220f;" horiz-adv-x="1345" 
d="M817 35v1061h-289v-1061q0 -14 -10.5 -24.5t-23.5 -10.5h-144q-14 0 -24.5 11t-10.5 24v1061h-186q-12 0 -21.5 9t-9.5 21v109q0 12 9.5 21.5t21.5 9.5h1088q12 0 21 -9.5t9 -21.5v-109q0 -12 -9 -21t-21 -9h-187v-1061q0 -13 -11 -24t-24 -11h-143q-14 0 -24.5 11
t-10.5 24z" />
    <glyph glyph-name="summation" unicode="&#x2211;" horiz-adv-x="802" 
d="M262 633l-164 426v176q0 12 9.5 21.5t21.5 9.5h545q12 0 21.5 -9.5t9.5 -21.5v-109q0 -12 -9.5 -21t-21.5 -9h-369l176 -463l-176 -463h369q12 0 21.5 -9.5t9.5 -21.5v-108q0 -12 -9.5 -21.5t-21.5 -9.5h-545q-12 0 -21.5 9.5t-9.5 21.5v176z" />
    <glyph glyph-name="minus" unicode="&#x2212;" horiz-adv-x="755" 
d="M125 584h506q10 0 18 -8t8 -19v-119q0 -10 -7.5 -18t-18.5 -8h-506q-11 0 -19 8t-8 18v119q0 11 8 19t19 8z" />
    <glyph glyph-name="radical" unicode="&#x221a;" horiz-adv-x="1093" 
d="M778 1094l-231 -1059q-3 -14 -12.5 -24.5t-22.5 -10.5h-274q-13 0 -22.5 10.5t-12.5 24.5l-105 465q0 14 11 24.5t24 10.5h141q29 0 37 -35l64 -332l221 1063q8 35 37 35h336q10 0 18 -8t8 -19v-119q0 -10 -7.5 -18t-18.5 -8h-191z" />
    <glyph glyph-name="infinity" unicode="&#x221e;" horiz-adv-x="1605" 
d="M311 449q0 -71 38.5 -110.5t113.5 -39.5q49 0 107.5 39.5t101.5 112.5q-43 70 -102 108.5t-107 38.5q-75 0 -113.5 -39t-38.5 -110zM1294 449q0 71 -38 110t-113 39q-49 0 -110.5 -38.5t-104.5 -108.5q43 -73 104.5 -112.5t110.5 -39.5q75 0 113 39.5t38 110.5zM803 336
q-187 -207 -359 -207q-169 0 -257.5 89.5t-88.5 230.5t88 230t258 89q172 0 359 -207q187 207 358 207q170 0 258 -89t88 -230t-88.5 -230.5t-257.5 -89.5q-171 0 -358 207z" />
    <glyph glyph-name="integral" unicode="&#x222b;" horiz-adv-x="729" 
d="M600 1092h-20q-32 0 -53.5 -9t-32 -20.5t-16 -36t-6.5 -41t-1 -49.5v-936q0 -97 -19.5 -163t-58.5 -103t-89.5 -52.5t-121.5 -15.5h-53q-12 0 -21.5 9.5t-9.5 21.5v113q0 12 9.5 21t21.5 9h21q32 0 53 9t32 20.5t16.5 36.5t6 40.5t0.5 49.5v936q0 97 19.5 163t58.5 103
t89.5 52.5t121.5 15.5h53q12 0 21.5 -9.5t9.5 -21.5v-113q0 -12 -9.5 -21t-21.5 -9z" />
    <glyph glyph-name="approxequal" unicode="&#x2248;" horiz-adv-x="745" 
d="M496 184q-59 0 -134 35q-56 29 -81 29q-39 0 -76 -29q-10 -10 -21 -10q-15 0 -22 10l-58 72q-6 9 -6 18q0 10 11 25q31 35 70.5 59.5t70.5 24.5q10 0 21.5 -3t18.5 -6t23.5 -10t22.5 -10q72 -35 129 -35q39 0 76 29q10 10 20 10q16 0 23 -10l57 -72q6 -9 6 -18
q0 -12 -10 -25q-31 -35 -70.5 -59.5t-70.5 -24.5zM496 451q-61 0 -134 34q-56 29 -81 29q-39 0 -76 -29q-10 -10 -21 -10q-15 0 -22 10l-58 72q-6 9 -6 18q0 10 11 25q31 35 70.5 59.5t70.5 24.5q10 0 21.5 -3t18.5 -6t23.5 -10t22.5 -10q70 -34 129 -34q40 0 76 28
q10 10 20 10q16 0 23 -10l57 -71q6 -9 6 -19q0 -11 -10 -24q-31 -35 -70.5 -59.5t-70.5 -24.5z" />
    <glyph glyph-name="notequal" unicode="&#x2260;" horiz-adv-x="720" 
d="M434 365h162q10 0 18.5 -8.5t8.5 -18.5v-119q0 -10 -8 -18t-19 -8h-195l-32 -168q-4 -25 -27 -25h-102q-9 0 -18 8t-9 17l33 168h-121q-11 0 -19 8t-8 18v119q0 10 8 18.5t19 8.5h154l28 149h-182q-11 0 -19 8t-8 19v118q0 11 8 19t19 8h217l33 168q8 25 28 25h103
q10 0 18 -8t8 -17l-34 -168h98q10 0 18.5 -8t8.5 -19v-118q0 -11 -8.5 -19t-18.5 -8h-131z" />
    <glyph glyph-name="lessequal" unicode="&#x2264;" horiz-adv-x="694" 
d="M98 465v203q3 34 41 51l422 184q12 0 22.5 -11.5t12.5 -25.5v-149q-2 -21 -35 -37l-266 -115l266 -112q33 -16 35 -37v-150q-2 -14 -12.5 -25.5t-22.5 -11.5l-422 185q-38 17 -41 51zM569 172h-444q-11 0 -19 -8t-8 -19v-118q0 -11 8 -19t19 -8h444q11 0 19 8t8 19v118
q0 11 -8 19t-19 8z" />
    <glyph glyph-name="greaterequal" unicode="&#x2265;" horiz-adv-x="694" 
d="M596 668v-203q-3 -34 -41 -51l-422 -185q-12 0 -22.5 11.5t-12.5 25.5v150q2 21 35 37l266 112l-266 115q-33 16 -35 37v149q2 14 12.5 25.5t22.5 11.5l422 -184q38 -17 41 -51zM569 172h-444q-11 0 -19 -8t-8 -19v-118q0 -11 8 -19t19 -8h444q11 0 19 8t8 19v118
q0 11 -8 19t-19 8z" />
    <glyph glyph-name="lozenge" unicode="&#x25ca;" horiz-adv-x="872" 
d="M514 0h-156q-15 0 -24.5 8t-16.5 29l-219 596l219 596q7 21 16.5 29t24.5 8h156q15 0 24.5 -8t16.5 -29l219 -596l-219 -596q-7 -21 -16.5 -29t-24.5 -8zM293 633l143 -391l144 391l-144 389z" />
    <glyph glyph-name="uni25CC" unicode="&#x25cc;" horiz-adv-x="378" 
 />
    <glyph glyph-name="fi" unicode="&#xfb01;" horiz-adv-x="997" 
d="M516 1108q-78 0 -105.5 -31t-27.5 -84v-51h147q12 0 21.5 -9.5t9.5 -21.5v-110q0 -12 -9.5 -21.5t-21.5 -9.5h-147v-735q0 -13 -10.5 -24t-24.5 -11h-143q-13 0 -24 11t-11 24v735h-113q-12 0 -21 9.5t-9 21.5v110q0 12 9 21.5t21 9.5h113q0 99 19.5 165.5t59 103
t89.5 51t121 14.5h57q12 0 21.5 -9.5t9.5 -21.5v-106q0 -12 -9.5 -21.5t-21.5 -9.5zM899 907v-872q0 -13 -10.5 -24t-24.5 -11h-143q-13 0 -24 11t-11 24v872q0 13 11 24t24 11h143q14 0 24.5 -11t10.5 -24zM899 1231v-174q0 -13 -10.5 -24t-24.5 -11h-143q-13 0 -24 11
t-11 24v174q0 13 11 24t24 11h143q14 0 24.5 -11t10.5 -24z" />
    <glyph glyph-name="fl" unicode="&#xfb02;" horiz-adv-x="997" 
d="M516 1108q-78 0 -105.5 -31t-27.5 -84v-51h147q12 0 21.5 -9.5t9.5 -21.5v-110q0 -12 -9.5 -21.5t-21.5 -9.5h-147v-735q0 -13 -10.5 -24t-24.5 -11h-143q-13 0 -24 11t-11 24v735h-113q-12 0 -21 9.5t-9 21.5v110q0 12 9 21.5t21 9.5h113q0 99 19.5 165.5t59 103
t89.5 51t121 14.5h57q12 0 21.5 -9.5t9.5 -21.5v-106q0 -12 -9.5 -21.5t-21.5 -9.5zM899 1231v-1196q0 -13 -10.5 -24t-24.5 -11h-143q-13 0 -24 11t-11 24v1196q0 13 11 24t24 11h143q14 0 24.5 -11t10.5 -24z" />
    <glyph glyph-name="Superstore" horiz-adv-x="1230" 
d="M612 1034q142 0 262 -69t189.5 -189t69.5 -262q0 -139 -69.5 -257.5t-189.5 -187.5t-262 -69q-139 0 -257.5 69t-187.5 187.5t-69 257.5q0 142 69 262t187.5 189t257.5 69zM831 184q66 0 66 56q0 33 -11.5 47t-37.5 14v272q0 88 -66 146q12 4 39 4t39 -4h23v133
q-149 -18 -236 -66q-31 5 -76 5q-101 0 -180 -29v-129h12q105 33 156 33q28 0 46 -1.5t46.5 -9t44 -27t15.5 -50.5l-168 -17q-43 -4 -75 -12t-65 -27.5t-51 -57t-18 -91.5q0 -85 58.5 -137t150.5 -52q61 0 88 6v111l-13 8q-18 -8 -47 -8q-37 0 -64.5 21t-27.5 63
q0 33 37 45.5t195 38.5v-145q0 -77 21.5 -108.5t80.5 -31.5h18z" />
    </font>
</defs>
</svg>
