<svg xmlns="http://www.w3.org/2000/svg" xmlns:xlink="http://www.w3.org/1999/xlink" width="493.385" height="206.903" viewBox="0 0 493.385 206.903">
  <defs>
    <clipPath id="clip-path">
      <rect id="Прямоугольник_5" data-name="Прямоугольник 5" width="493.385" height="206.903" fill="#991b1e"/>
    </clipPath>
  </defs>
  <g id="Сгруппировать_6" data-name="Сгруппировать 6" style="isolation: isolate">
    <g id="Сгруппировать_5" data-name="Сгруппировать 5" clip-path="url(#clip-path)">
      <path id="Контур_17" data-name="Контур 17" d="M67.549,75.606C49.337,89.078,25.405,94.065,3.12,92.139a95.072,95.072,0,0,0,41.2,9.26,76.613,76.613,0,0,0,14.136-1.178C68.7,98.1,70.832,91.99,67.549,75.606" transform="translate(2.397 58.096)" fill="#991b1e"/>
      <path id="Контур_18" data-name="Контур 18" d="M78.881,76.818c12.258,11.137,35.144,9.6,50.308,9.361-6.127,5.024-13.311,7.65-20.882,9.854-3.738,1.085-24.183,6.515-26.958,4.412-3.766-2.853-2.72-20.124-2.467-23.628" transform="translate(60.362 59.027)" fill="#991b1e"/>
      <path id="Контур_19" data-name="Контур 19" d="M0,206.9c21.134-3.726,40.805-16.026,54.49-32.413,18.838-22.558,14.254-38.346-.051-62.74C32.753,74.769,25.909,28.6,70.507,6.785c38.3-18.73,94.548,2.575,96.548,48.4,1.253,28.71-19.528,52.748-18.659,80.474.8,25.625,29.363,51.586,50,62.155-40.864,11.16-76.2-33.638-93.755-63.636C104,185.1,40.053,203.069,0,206.9" transform="translate(0 0)" fill="#ef3b39"/>
      <path id="Контур_20" data-name="Контур 20" d="M27.314,36.362S94.78,16.377,172.219,19.315c0,0,8.649,43.5-4.182,44.674a167.3,167.3,0,0,1-42.78,4.116s-9.247,2.791-9.508-36.639l-12.169.782s10.046,35.341-2.387,38.208c0,0-30.466,7.641-57.451,7.641,0,0-10.194,1.615-16.428-41.735" transform="translate(20.988 14.615)" fill="#231f20"/>
    </g>
  </g>
</svg>
