<svg xmlns="http://www.w3.org/2000/svg" width="122.214" height="78.455" viewBox="0 0 122.214 78.455">
  <g id="_11" data-name="11" transform="translate(-2159.948 -2269.871)">
    <g id="Сгруппировать_223" data-name="Сгруппировать 223" transform="translate(2221.966 2323.169)">
      <g id="Сгруппировать_222" data-name="Сгруппировать 222" transform="translate(0 0)">
        <circle id="Эллипс_91" data-name="Эллипс 91" cx="2.307" cy="2.307" r="2.307" transform="matrix(0.23, -0.973, 0.973, 0.23, 0, 4.49)" fill="#fc3"/>
      </g>
    </g>
    <g id="Сгруппировать_225" data-name="Сгруппировать 225" transform="translate(2199.582 2332.394)">
      <g id="Сгруппировать_224" data-name="Сгруппировать 224" transform="translate(0 0)">
        <path id="Контур_110" data-name="Контур 110" d="M2415.2,2586.867h-54.7a1.493,1.493,0,0,1,0-2.987h54.7a1.493,1.493,0,0,1,0,2.987Z" transform="translate(-2359 -2583.88)" fill="#fc3"/>
      </g>
    </g>
    <g id="Сгруппировать_227" data-name="Сгруппировать 227" transform="translate(2179.715 2269.87)">
      <g id="Сгруппировать_226" data-name="Сгруппировать 226" transform="translate(0 0)">
        <path id="Контур_111" data-name="Контур 111" d="M2347.781,2304.022a1.493,1.493,0,0,1-1.493-1.493v-25.9a3.78,3.78,0,0,0-3.775-3.775h-76.53a3.78,3.78,0,0,0-3.775,3.775v16.823a1.493,1.493,0,1,1-2.987,0v-16.823a6.77,6.77,0,0,1,6.762-6.762h76.53a6.77,6.77,0,0,1,6.762,6.762v25.9A1.493,1.493,0,0,1,2347.781,2304.022Z" transform="translate(-2259.22 -2269.87)" fill="#fc3"/>
      </g>
    </g>
    <g id="Сгруппировать_229" data-name="Сгруппировать 229" transform="translate(2212.164 2332.659)">
      <g id="Сгруппировать_228" data-name="Сгруппировать 228" transform="translate(0 0)">
        <path id="Контур_112" data-name="Контур 112" d="M2445.954,2600.879h-22.371a1.395,1.395,0,0,1-1.371-1.647l2.383-12.879a1.393,1.393,0,0,1,1.37-1.14h17.6a1.394,1.394,0,0,1,1.37,1.14l2.363,12.773a1.4,1.4,0,0,1-1.347,1.754Zm-20.7-2.788h19.016L2442.407,2588h-15.283Z" transform="translate(-2422.189 -2585.212)" fill="#fc3"/>
      </g>
    </g>
    <g id="Сгруппировать_231" data-name="Сгруппировать 231" transform="translate(2208.339 2345.539)">
      <g id="Сгруппировать_230" data-name="Сгруппировать 230" transform="translate(0)">
        <path id="Контур_113" data-name="Контур 113" d="M2434.388,2652.682H2404.37a1.394,1.394,0,0,1,0-2.788h30.018a1.394,1.394,0,0,1,0,2.788Z" transform="translate(-2402.976 -2649.894)" fill="#fc3"/>
      </g>
    </g>
    <g id="Сгруппировать_233" data-name="Сгруппировать 233" transform="translate(2199.682 2317.17)">
      <g id="Сгруппировать_232" data-name="Сгруппировать 232" transform="translate(0 0)">
        <path id="Контур_114" data-name="Контур 114" d="M2415.6,2510.208h-54.7a1.394,1.394,0,0,1,0-2.788h54.7a1.394,1.394,0,0,1,0,2.788Z" transform="translate(-2359.5 -2507.42)" fill="#fc3"/>
      </g>
    </g>
    <g id="Сгруппировать_235" data-name="Сгруппировать 235" transform="translate(2159.948 2292.062)">
      <g id="Сгруппировать_234" data-name="Сгруппировать 234" transform="translate(0 0)">
        <path id="Контур_115" data-name="Контур 115" d="M2197.36,2437.585h-32.3a5.115,5.115,0,0,1-5.109-5.109v-46.046a5.115,5.115,0,0,1,5.109-5.109h32.3a5.115,5.115,0,0,1,5.109,5.109v46.046A5.115,5.115,0,0,1,2197.36,2437.585Zm-32.3-53.477a2.324,2.324,0,0,0-2.322,2.322v46.046a2.324,2.324,0,0,0,2.322,2.322h32.3a2.324,2.324,0,0,0,2.322-2.322v-46.046a2.324,2.324,0,0,0-2.322-2.322Z" transform="translate(-2159.948 -2381.32)" fill="#fc3"/>
      </g>
    </g>
    <g id="Сгруппировать_237" data-name="Сгруппировать 237" transform="translate(2254.387 2301.136)">
      <g id="Сгруппировать_236" data-name="Сгруппировать 236" transform="translate(0 0)">
        <path id="Контур_116" data-name="Контур 116" d="M2656.917,2474.084h-17.579a5.1,5.1,0,0,1-5.1-5.1v-36.994a5.1,5.1,0,0,1,5.1-5.1h17.579a5.1,5.1,0,0,1,5.1,5.1v36.994A5.1,5.1,0,0,1,2656.917,2474.084Zm-17.579-44.4a2.313,2.313,0,0,0-2.311,2.31v36.994a2.313,2.313,0,0,0,2.311,2.311h17.579a2.313,2.313,0,0,0,2.31-2.311v-36.994a2.313,2.313,0,0,0-2.31-2.31Z" transform="translate(-2634.24 -2426.894)" fill="#fc3"/>
      </g>
    </g>
    <g id="Сгруппировать_239" data-name="Сгруппировать 239" transform="translate(2266.868 2341.544)">
      <g id="Сгруппировать_238" data-name="Сгруппировать 238" transform="translate(0)">
        <path id="Контур_117" data-name="Контур 117" d="M2698.331,2632.645a1.406,1.406,0,1,1,1.406-1.406A1.408,1.408,0,0,1,2698.331,2632.645Z" transform="translate(-2696.925 -2629.832)" fill="#fc3"/>
      </g>
    </g>
    <g id="Сгруппировать_241" data-name="Сгруппировать 241" transform="translate(2178.956 2339.837)">
      <g id="Сгруппировать_240" data-name="Сгруппировать 240" transform="translate(0 0)">
        <circle id="Эллипс_92" data-name="Эллипс 92" cx="1.593" cy="1.593" r="1.593" transform="translate(0 2.253) rotate(-45)" fill="#fc3"/>
      </g>
    </g>
    <g id="Сгруппировать_243" data-name="Сгруппировать 243" transform="translate(2263.989 2306.329)">
      <g id="Сгруппировать_242" data-name="Сгруппировать 242" transform="translate(0 0)">
        <path id="Контур_118" data-name="Контур 118" d="M2689.283,2455.762h-5.427a1.394,1.394,0,1,1,0-2.788h5.427a1.394,1.394,0,0,1,0,2.788Z" transform="translate(-2682.462 -2452.974)" fill="#fc3"/>
      </g>
    </g>
    <g id="Сгруппировать_245" data-name="Сгруппировать 245" transform="translate(2254.645 2337.694)">
      <g id="Сгруппировать_244" data-name="Сгруппировать 244" transform="translate(0 0)">
        <path id="Контур_119" data-name="Контур 119" d="M2661.4,2613.286h-24.471a1.394,1.394,0,1,1,0-2.788H2661.4a1.394,1.394,0,1,1,0,2.788Z" transform="translate(-2635.537 -2610.498)" fill="#fc3"/>
      </g>
    </g>
    <g id="Сгруппировать_247" data-name="Сгруппировать 247" transform="translate(2160.358 2336.091)">
      <g id="Сгруппировать_246" data-name="Сгруппировать 246" transform="translate(0)">
        <path id="Контур_120" data-name="Контур 120" d="M2202.316,2605.235H2163.4a1.394,1.394,0,0,1,0-2.788h38.913a1.394,1.394,0,0,1,0,2.788Z" transform="translate(-2162.009 -2602.447)" fill="#fc3"/>
      </g>
    </g>
  </g>
</svg>
