<svg xmlns="http://www.w3.org/2000/svg" xmlns:xlink="http://www.w3.org/1999/xlink" width="78.514" height="78.514" viewBox="0 0 78.514 78.514">
  <defs>
    <clipPath id="clip-path">
      <path id="Контур_127" data-name="Контур 127" d="M0,23.27H78.514V-55.244H0Z" transform="translate(0 55.244)" fill="none"/>
    </clipPath>
  </defs>
  <g id="Сгруппировать_456" data-name="Сгруппировать 456" transform="translate(0 55.244)">
    <g id="Сгруппировать_252" data-name="Сгруппировать 252" transform="translate(0 -55.244)" clip-path="url(#clip-path)">
      <g id="Сгруппировать_249" data-name="Сгруппировать 249" transform="translate(1.308 1.309)">
        <path id="Контур_124" data-name="Контур 124" d="M3.1,10.083V-22.63a1.308,1.308,0,0,1,1.309-1.309H56.753a1.308,1.308,0,0,1,1.309,1.309V10.083M-7.366,8.774,53.876,44.106M68.531,8.774,31.969,31.468" transform="translate(7.366 23.939)" fill="none" stroke="#fc3" stroke-linecap="round" stroke-linejoin="round" stroke-width="3"/>
      </g>
      <g id="Сгруппировать_250" data-name="Сгруппировать 250" transform="translate(1.308 24.05)">
        <path id="Контур_125" data-name="Контур 125" d="M19.391,0l9.519,7.879a2.614,2.614,0,0,1,.949,2.015V49.229a3.926,3.926,0,0,1-3.925,3.925H-42.112a3.926,3.926,0,0,1-3.925-3.925V9.894a2.614,2.614,0,0,1,.949-2.015L-35.568,0m-3.925,44h10.469m-10.469-6.543h15.7" transform="translate(46.037)" fill="none" stroke="#fc3" stroke-linejoin="round" stroke-width="3"/>
      </g>
      <g id="Сгруппировать_251" data-name="Сгруппировать 251" transform="translate(23.554 10.468)">
        <path id="Контур_126" data-name="Контур 126" d="M6.5.523a12.7,12.7,0,0,1,5.061,4.92,14.086,14.086,0,0,1,1.811,7.126,11.443,11.443,0,0,1-1.551,6.417A4.893,4.893,0,0,1,7.527,21.3a4.143,4.143,0,0,1-2.459-.711,3.676,3.676,0,0,1-1.4-2.032A6.128,6.128,0,0,1-1.8,21.3a7.015,7.015,0,0,1-3.738-1.025,7.057,7.057,0,0,1-2.615-2.854A8.953,8.953,0,0,1-9.1,13.263a8.794,8.794,0,0,1,.942-4.114A7.078,7.078,0,0,1-5.541,6.31,7.015,7.015,0,0,1-1.8,5.286a7.156,7.156,0,0,1,2.9.567A5.671,5.671,0,0,1,3.272,7.524V5.475H6.649v10.72a2.474,2.474,0,0,0,.441,1.642,1.443,1.443,0,0,0,1.14.5,2.076,2.076,0,0,0,1.9-1.467,10.846,10.846,0,0,0,.651-4.242,11.592,11.592,0,0,0-1.472-5.9A10.235,10.235,0,0,0,5.187,2.763,12.635,12.635,0,0,0-.891,1.343a12.365,12.365,0,0,0-6.141,1.5A10.416,10.416,0,0,0-11.166,7.02a12.531,12.531,0,0,0-1.458,6.086,12.764,12.764,0,0,0,1.444,6.15,10.333,10.333,0,0,0,4.089,4.178,12.111,12.111,0,0,0,6.079,1.5,13.634,13.634,0,0,0,3.023-.348,11.974,11.974,0,0,0,2.874-1.042l.821,2.524a11.523,11.523,0,0,1-3.147,1.1,17.45,17.45,0,0,1-3.572.378,14.952,14.952,0,0,1-7.524-1.86,13.071,13.071,0,0,1-5.075-5.139,15.143,15.143,0,0,1-1.809-7.443A14.835,14.835,0,0,1-13.6,5.742,13.15,13.15,0,0,1-8.474.618,15.179,15.179,0,0,1-.891-1.242,15.23,15.23,0,0,1,6.5.523M2.071,16.905a5.1,5.1,0,0,0,1.262-3.643,5.008,5.008,0,0,0-1.262-3.6A4.274,4.274,0,0,0-1.165,8.344,4.228,4.228,0,0,0-4.417,9.686a5.04,5.04,0,0,0-1.246,3.577A5.146,5.146,0,0,0-4.417,16.89a4.209,4.209,0,0,0,3.252,1.356,4.242,4.242,0,0,0,3.236-1.34" transform="translate(15.421 1.242)" fill="#fc3"/>
      </g>
    </g>
  </g>
</svg>
