<svg xmlns="http://www.w3.org/2000/svg" xmlns:xlink="http://www.w3.org/1999/xlink" width="93" height="69.75" viewBox="0 0 93 69.75">
  <defs>
    <clipPath id="clip-path">
      <path id="Контур_136" data-name="Контур 136" d="M0,21.141H93v-69.75H0Z" transform="translate(0 48.609)" fill="#fc3"/>
    </clipPath>
    <clipPath id="clip-path-2">
      <path id="Контур_138" data-name="Контур 138" d="M0,12.879H55.417V-21.858H0Z" transform="translate(0 21.858)" fill="#fc3"/>
    </clipPath>
  </defs>
  <g id="Сгруппировать_460" data-name="Сгруппировать 460" transform="translate(-667 -2641.467)">
    <g id="Сгруппировать_260" data-name="Сгруппировать 260" transform="translate(667 2690.076)">
      <g id="Сгруппировать_259" data-name="Сгруппировать 259" transform="translate(0 -48.609)" clip-path="url(#clip-path)">
        <g id="Сгруппировать_255" data-name="Сгруппировать 255" transform="translate(0 0)">
          <path id="Контур_132" data-name="Контур 132" d="M27.836,0H-62.838A1.164,1.164,0,0,0-64,1.161V68.588a1.165,1.165,0,0,0,1.164,1.162H27.836A1.164,1.164,0,0,0,29,68.588V1.161A1.163,1.163,0,0,0,27.836,0M25.9,12.937H-60.905V3.1H25.9Zm0-9.842M-60.905,16.032H25.9V66.655H-60.905Zm0,50.623" transform="translate(64.002)" fill="#fc3"/>
        </g>
        <g id="Сгруппировать_256" data-name="Сгруппировать 256" transform="translate(6.699 5.477)">
          <path id="Контур_133" data-name="Контур 133" d="M.741,1.488A2.452,2.452,0,0,0,3.184-.967,2.452,2.452,0,0,0,.741-3.422,2.452,2.452,0,0,0-1.7-.967,2.452,2.452,0,0,0,.741,1.488m0-3.607A1.148,1.148,0,0,1,1.881-.967,1.148,1.148,0,0,1,.741.185,1.148,1.148,0,0,1-.4-.967,1.148,1.148,0,0,1,.741-2.119" transform="translate(1.703 3.422)" fill="#fc3"/>
        </g>
        <g id="Сгруппировать_257" data-name="Сгруппировать 257" transform="translate(12.541 5.477)">
          <path id="Контур_134" data-name="Контур 134" d="M.741,1.488A2.452,2.452,0,0,0,3.184-.967,2.452,2.452,0,0,0,.741-3.422,2.452,2.452,0,0,0-1.7-.967,2.452,2.452,0,0,0,.741,1.488m0-3.607A1.148,1.148,0,0,1,1.881-.967,1.148,1.148,0,0,1,.741.185,1.148,1.148,0,0,1-.4-.967,1.148,1.148,0,0,1,.741-2.119" transform="translate(1.703 3.422)" fill="#fc3"/>
        </g>
        <g id="Сгруппировать_258" data-name="Сгруппировать 258" transform="translate(18.382 5.477)">
          <path id="Контур_135" data-name="Контур 135" d="M.741,1.488A2.452,2.452,0,0,0,3.184-.967,2.452,2.452,0,0,0,.741-3.422,2.452,2.452,0,0,0-1.7-.967,2.452,2.452,0,0,0,.741,1.488m0-3.607A1.148,1.148,0,0,1,1.881-.967,1.148,1.148,0,0,1,.741.185,1.148,1.148,0,0,1-.4-.967,1.148,1.148,0,0,1,.741-2.119" transform="translate(1.703 3.422)" fill="#fc3"/>
        </g>
      </g>
    </g>
    <g id="Сгруппировать_263" data-name="Сгруппировать 263" transform="translate(686 2686.836)">
      <g id="Сгруппировать_262" data-name="Сгруппировать 262" transform="translate(0 -21.858)" clip-path="url(#clip-path-2)">
        <g id="Сгруппировать_261" data-name="Сгруппировать 261" transform="translate(0 0)">
          <path id="Контур_137" data-name="Контур 137" d="M20.47,8.255,9.4-2.994a.72.72,0,0,0-1.2.3L8.168,2.2a.422.422,0,0,1-.421.421h-1v0h-29.97a.422.422,0,0,0-.423.421V7.5l-9.392-9.54,9.392-9.54v4.458a.423.423,0,0,0,.423.423H.4A.709.709,0,0,0,1.1-7.41.71.71,0,0,0,.4-8.121h-22.2a.422.422,0,0,1-.421-.421v-4.747a.72.72,0,0,0-1.232-.505L-34.533-2.546a.718.718,0,0,0,0,1.009L-23.461,9.711a.719.719,0,0,0,1.232-.5l0-4.685A.425.425,0,0,1-21.8,4.1H9.163a.422.422,0,0,0,.421-.423V-.781l9.392,9.54L9.584,18.3V13.841a.422.422,0,0,0-.421-.421H-14.426a.708.708,0,0,0-.709.709.709.709,0,0,0,.709.709H7.744a.423.423,0,0,1,.423.423v4.747a.719.719,0,0,0,1.232.5L20.47,9.264a.72.72,0,0,0,0-1.009" transform="translate(34.741 14.01)" fill="#fc3"/>
        </g>
      </g>
    </g>
  </g>
</svg>
