<svg xmlns="http://www.w3.org/2000/svg" width="102.171" height="97.893" viewBox="0 0 102.171 97.893">
  <g id="Сгруппировать_457" data-name="Сгруппировать 457" transform="translate(-208.829 -289.27)">
    <path id="Контур_128" data-name="Контур 128" d="M228.007,316.573s.532-10.655,5.6-15.413c3.469-3.256,7.48-2.6,10.053.435a7.331,7.331,0,0,1-.732,10.56C237.86,316.915,228.007,316.573,228.007,316.573Z" transform="translate(21.552 11.969)" fill="none" stroke="#fc3" stroke-miterlimit="10" stroke-width="3"/>
    <path id="Контур_129" data-name="Контур 129" d="M236.393,315.378s-1.072-9.323-5.336-13.489c-2.917-2.849-6.292-2.276-8.456.382a6.6,6.6,0,0,0,.615,9.24C227.483,315.677,236.393,315.378,236.393,315.378Z" transform="translate(13.166 13.165)" fill="none" stroke="#fc3" stroke-miterlimit="10" stroke-width="3"/>
    <path id="Контур_130" data-name="Контур 130" d="M214,314v41.74h65.906V314" transform="translate(4.787 29.921)" fill="none" stroke="#fc3" stroke-miterlimit="10" stroke-width="3"/>
    <path id="Контур_131" data-name="Контур 131" d="M255.937,322.378h30.756V307H212v15.378h30.756" transform="translate(2.394 21.543)" fill="none" stroke="#fc3" stroke-miterlimit="10" stroke-width="3"/>
    <line id="Линия_105" data-name="Линия 105" y2="57" transform="translate(259 328.27)" fill="none" stroke="#fc3" stroke-miterlimit="10" stroke-width="3"/>
    <line id="Линия_106" data-name="Линия 106" y1="57" transform="translate(245 328.27)" fill="none" stroke="#fc3" stroke-miterlimit="10" stroke-width="3"/>
    <line id="Линия_107" data-name="Линия 107" y2="6" transform="translate(289 296.27)" fill="none" stroke="#fc3" stroke-linejoin="round" stroke-width="3"/>
    <line id="Линия_108" data-name="Линия 108" y2="8" transform="translate(289 310.27)" fill="none" stroke="#fc3" stroke-linejoin="round" stroke-width="3"/>
    <line id="Линия_109" data-name="Линия 109" x1="6" transform="translate(279 307.27)" fill="none" stroke="#fc3" stroke-linejoin="round" stroke-width="3"/>
    <line id="Линия_110" data-name="Линия 110" x1="7" transform="translate(293 307.27)" fill="none" stroke="#fc3" stroke-linejoin="round" stroke-width="3"/>
    <line id="Линия_111" data-name="Линия 111" x1="4" y2="5" transform="translate(210 313.27)" fill="none" stroke="#fc3" stroke-linejoin="round" stroke-width="3"/>
    <line id="Линия_112" data-name="Линия 112" x1="3" y2="5" transform="translate(221 302.27)" fill="none" stroke="#fc3" stroke-linejoin="round" stroke-width="3"/>
    <line id="Линия_113" data-name="Линия 113" x2="3" y2="5" transform="translate(221 313.27)" fill="none" stroke="#fc3" stroke-linejoin="round" stroke-width="3"/>
    <line id="Линия_114" data-name="Линия 114" x2="4" y2="5" transform="translate(210 302.27)" fill="none" stroke="#fc3" stroke-linejoin="round" stroke-width="3"/>
    <line id="Линия_115" data-name="Линия 115" y2="4" transform="translate(304 328.27)" fill="none" stroke="#fc3" stroke-linejoin="round" stroke-width="3"/>
    <line id="Линия_116" data-name="Линия 116" y2="5" transform="translate(304 337.27)" fill="none" stroke="#fc3" stroke-linejoin="round" stroke-width="3"/>
    <line id="Линия_117" data-name="Линия 117" x1="4" transform="translate(299 334.27)" fill="none" stroke="#fc3" stroke-linejoin="round" stroke-width="3"/>
    <line id="Линия_118" data-name="Линия 118" x1="5" transform="translate(306 334.27)" fill="none" stroke="#fc3" stroke-linejoin="round" stroke-width="3"/>
    <line id="Линия_119" data-name="Линия 119" y2="3" transform="translate(250 289.27)" fill="none" stroke="#fc3" stroke-linejoin="round" stroke-width="3"/>
    <line id="Линия_120" data-name="Линия 120" y2="5" transform="translate(250 297.27)" fill="none" stroke="#fc3" stroke-linejoin="round" stroke-width="3"/>
    <line id="Линия_121" data-name="Линия 121" x1="5" transform="translate(242 296.27)" fill="none" stroke="#fc3" stroke-linejoin="round" stroke-width="3"/>
    <line id="Линия_122" data-name="Линия 122" x1="4" transform="translate(252 296.27)" fill="none" stroke="#fc3" stroke-linejoin="round" stroke-width="3"/>
  </g>
</svg>
