<svg xmlns="http://www.w3.org/2000/svg" width="117" height="63.678" viewBox="0 0 117 63.678">
  <g id="g2254" transform="translate(-383.5 -45.5)">
    <g id="g2227" transform="translate(421.774 47)">
      <path id="rect2092" d="M434.419,61a11.008,11.008,0,0,1,11.032,11.032v23.9m-40.452,0v-23.9A11.008,11.008,0,0,1,416.032,61" transform="translate(-405 -35.258)" fill="none" stroke="#fc3" stroke-linecap="round" stroke-linejoin="round" stroke-width="3"/>
      <path id="path2113" d="M432.064,58.032A11.032,11.032,0,1,1,421.032,47,11.032,11.032,0,0,1,432.064,58.032Z" transform="translate(-400.807 -47)" fill="none" stroke="#fc3" stroke-linecap="round" stroke-linejoin="round" stroke-width="3"/>
      <path id="path2115" d="M410,89.226V69" transform="translate(-400.806 -28.548)" fill="none" stroke="#fc3" stroke-linecap="round" stroke-linejoin="round" stroke-width="3"/>
      <path id="path2117" d="M422,89.226V69" transform="translate(-390.742 -28.548)" fill="none" stroke="#fc3" stroke-linecap="round" stroke-linejoin="round" stroke-width="3"/>
    </g>
    <g id="g2221" transform="translate(462.226 54.355)">
      <path id="path2119" d="M454.581,63a9.173,9.173,0,0,1,9.194,9.194V94.258m-36.774,0V72.194A9.173,9.173,0,0,1,436.194,63" transform="translate(-427 -40.935)" fill="none" stroke="#fc3" stroke-linecap="round" stroke-linejoin="round" stroke-width="3"/>
      <path id="path2121" d="M450.387,60.194A9.194,9.194,0,1,1,441.194,51,9.195,9.195,0,0,1,450.387,60.194Z" transform="translate(-422.806 -51)" fill="none" stroke="#fc3" stroke-linecap="round" stroke-linejoin="round" stroke-width="3"/>
      <path id="path2123" d="M432,87.548V71" transform="translate(-422.806 -34.226)" fill="none" stroke="#fc3" stroke-linecap="round" stroke-linejoin="round" stroke-width="3"/>
      <path id="path2125" d="M442,87.548V71" transform="translate(-414.419 -34.226)" fill="none" stroke="#fc3" stroke-linecap="round" stroke-linejoin="round" stroke-width="3"/>
    </g>
    <g id="g2237" transform="translate(385 54.355)">
      <path id="path2229" d="M412.581,63a9.173,9.173,0,0,1,9.194,9.194V94.258m-36.774,0V72.194A9.174,9.174,0,0,1,394.194,63" transform="translate(-385 -40.935)" fill="none" stroke="#fc3" stroke-linecap="round" stroke-linejoin="round" stroke-width="3"/>
      <path id="path2231" d="M408.387,60.194A9.194,9.194,0,1,1,399.194,51,9.195,9.195,0,0,1,408.387,60.194Z" transform="translate(-380.806 -51)" fill="none" stroke="#fc3" stroke-linecap="round" stroke-linejoin="round" stroke-width="3"/>
      <path id="path2233" d="M390,87.548V71" transform="translate(-380.806 -34.226)" fill="none" stroke="#fc3" stroke-linecap="round" stroke-linejoin="round" stroke-width="3"/>
      <path id="path2235" d="M400,87.548V71" transform="translate(-372.419 -34.226)" fill="none" stroke="#fc3" stroke-linecap="round" stroke-linejoin="round" stroke-width="3"/>
    </g>
  </g>
</svg>
