<svg xmlns="http://www.w3.org/2000/svg" width="92" height="69.203" viewBox="0 0 92 69.203">
  <g id="Сгруппировать_459" data-name="Сгруппировать 459" transform="translate(-416 -2284)">
    <path id="Контур_139" data-name="Контур 139" d="M431.6,705.644V650.1s0-.008,0-.012,0-.023,0-.034a1.22,1.22,0,0,0-.055-.313c0-.013,0-.027-.007-.04s-.01-.016-.013-.025a1.222,1.222,0,0,0-.156-.3c-.013-.018-.027-.033-.041-.05a1.233,1.233,0,0,0-.215-.21c-.012-.009-.023-.02-.035-.029a1.226,1.226,0,0,0-.294-.148c-.023-.008-.046-.015-.07-.022a1.218,1.218,0,0,0-.341-.054H352.345a1.215,1.215,0,0,0-.341.054c-.024.007-.047.013-.07.022a1.224,1.224,0,0,0-.294.148c-.013.009-.023.02-.035.029a1.228,1.228,0,0,0-.215.21c-.014.017-.028.032-.041.05a1.227,1.227,0,0,0-.156.3c0,.009-.01.016-.013.025s0,.027-.007.04a1.22,1.22,0,0,0-.055.313c0,.011,0,.023,0,.034s0,.008,0,.012v55.643c0,.015,0,.03,0,.045s.005.049.008.075a1.215,1.215,0,0,0,.061.283c0,.012,0,.025.008.036s.006.009.008.014a1.224,1.224,0,0,0,.161.284c.015.02.031.038.047.057a1.227,1.227,0,0,0,.223.209l.017.014a1.233,1.233,0,0,0,.291.142l.072.022a1.218,1.218,0,0,0,.332.051h78.036a1.232,1.232,0,0,0,1.232-1.232C431.613,705.71,431.6,705.678,431.6,705.644ZM429.137,703l-30.22-26.92,30.22-23.46Zm-2.364-51.664-35.416,27.494-35.416-27.494ZM383.8,676.077,353.577,703v-50.38ZM355.58,704.512l30.2-26.9,4.825,3.746a1.232,1.232,0,0,0,1.511,0l4.825-3.746,30.2,26.9Z" transform="translate(64.887 1646.228)" fill="#fc3"/>
    <g id="Эллипс_93" data-name="Эллипс 93" transform="translate(483 2284)" fill="#fff" stroke="#fc3" stroke-width="2">
      <circle cx="12" cy="12" r="12" stroke="none"/>
      <circle cx="12" cy="12" r="11" fill="none"/>
    </g>
    <text id="_1" data-name="1" transform="translate(492 2289)" fill="#fc3" font-size="15" font-family="Calps-Black, Calps" font-weight="800"><tspan x="0" y="11">1</tspan></text>
  </g>
</svg>
