<svg xmlns="http://www.w3.org/2000/svg" width="87.413" height="91.633" viewBox="0 0 87.413 91.633">
  <g id="Сгруппировать_455" data-name="Сгруппировать 455" transform="translate(-49.245 -207.5)">
    <path id="Контур_121" data-name="Контур 121" d="M85.662,239.084c5.855-5.855,13.662-7.807,13.662-15.614,0-5.855-7.1-10.469-13.662-3.9C79.095,213,72,217.614,72,223.47,72,231.277,79.807,233.228,85.662,239.084Z" transform="translate(20.22 6.999)" fill="none" stroke="#fc3" stroke-miterlimit="10" stroke-width="3"/>
    <path id="Контур_122" data-name="Контур 122" d="M99.135,254.827l5.188,24.4a3.9,3.9,0,0,1-3.006,4.63l-32.455,6.9a3.9,3.9,0,0,1-4.63-3.006l-13.391-63a3.9,3.9,0,0,1,3.006-4.63l18.819-4" transform="translate(0 6.778)" fill="none" stroke="#fc3" stroke-miterlimit="10" stroke-width="3"/>
    <line id="Линия_103" data-name="Линия 103" y1="8.521" x2="40.091" transform="translate(62.609 278.372)" fill="none" stroke="#fc3" stroke-miterlimit="10" stroke-width="3"/>
    <line id="Линия_104" data-name="Линия 104" y1="1.217" x2="5.727" transform="translate(81.008 287.751)" fill="none" stroke="#fc3" stroke-miterlimit="10" stroke-width="3"/>
    <path id="Контур_123" data-name="Контур 123" d="M93.276,209C77.108,209,64,219.487,64,232.421c0,6.1,2.943,11.644,7.725,15.813a81.533,81.533,0,0,1-2.379,14.814c-.556,1.85.847,3.17,2.428,2.256a129.654,129.654,0,0,0,14-10.268,36.055,36.055,0,0,0,7.5.806c16.168,0,29.276-10.487,29.276-23.421S109.444,209,93.276,209Z" transform="translate(12.606)" fill="none" stroke="#fc3" stroke-miterlimit="10" stroke-width="3"/>
  </g>
</svg>
