<svg xmlns="http://www.w3.org/2000/svg" width="104.013" height="127.719" viewBox="0 0 104.013 127.719">
  <g id="Сгруппировать_417" data-name="Сгруппировать 417" transform="translate(-294 -288.164)">
    <g id="Сгруппировать_385" data-name="Сгруппировать 385" transform="translate(294 307.869)">
      <path id="Контур_76284" data-name="Контур 76284" d="M310.192,336.857,294,302.448V298h4v3.553l15.812,33.6Z" transform="translate(-294 -298)" fill="#2d2d2e"/>
    </g>
    <g id="Сгруппировать_386" data-name="Сгруппировать 386" transform="translate(378.201 307.869)">
      <path id="Контур_76285" data-name="Контур 76285" d="M339.715,336.857l-3.62-1.7,15.812-33.6V298h4v4.448Z" transform="translate(-336.095 -298)" fill="#2d2d2e"/>
    </g>
    <g id="Сгруппировать_387" data-name="Сгруппировать 387" transform="translate(316.106 344.362)">
      <ellipse id="Эллипс_108" data-name="Эллипс 108" cx="30" cy="8" rx="30" ry="8" transform="translate(-0.093 -0.197)" fill="#fc3"/>
    </g>
    <g id="Сгруппировать_388" data-name="Сгруппировать 388" transform="translate(296.601 300.148)">
      <ellipse id="Эллипс_109" data-name="Эллипс 109" cx="49" cy="8" rx="49" ry="8" transform="translate(0.412 0.015)" fill="#fc3"/>
    </g>
    <g id="Сгруппировать_389" data-name="Сгруппировать 389" transform="translate(314.003 351.874)">
      <path id="Контур_76286" data-name="Контур 76286" d="M326.2,368.869,304,322.454V320h4v1.546l21.807,45.6Z" transform="translate(-304 -320)" fill="#2d2d2e"/>
    </g>
    <g id="Сгруппировать_390" data-name="Сгруппировать 390" transform="translate(352.203 351.874)">
      <path id="Контур_76287" data-name="Контур 76287" d="M326.707,368.869l-3.61-1.727,21.807-45.6V320h4v2.455Z" transform="translate(-323.098 -320)" fill="#2d2d2e"/>
    </g>
    <g id="Сгруппировать_391" data-name="Сгруппировать 391" transform="translate(314.003 341.873)">
      <path id="Контур_76288" data-name="Контур 76288" d="M336,335c-12.374,0-32-2.714-32-10s19.63-10,32-10,32,2.714,32,10S348.378,335,336,335Zm0-16c-17.136,0-28,4.219-28,6s10.867,6,28,6,28-4.219,28-6S353.14,319,336,319Z" transform="translate(-304 -315)" fill="#2d2d2e"/>
    </g>
    <g id="Сгруппировать_392" data-name="Сгруппировать 392" transform="translate(294 297.867)">
      <path id="Контур_76289" data-name="Контур 76289" d="M346.007,313c-5.323,0-52.007-.28-52.007-10s46.684-10,52.007-10,52.007.28,52.007,10S351.329,313,346.007,313Zm-47.858-10c2.514,2.54,20.249,6,47.858,6s45.344-3.46,47.858-6c-2.514-2.54-20.249-6-47.858-6S300.663,300.461,298.148,303Z" transform="translate(-294 -293)" fill="#2d2d2e"/>
    </g>
    <g id="Сгруппировать_394" data-name="Сгруппировать 394" transform="translate(343.415 322.255)">
      <g id="Сгруппировать_393" data-name="Сгруппировать 393" transform="translate(0 0)">
        <rect id="Прямоугольник_1275" data-name="Прямоугольник 1275" width="6" height="31" transform="translate(-0.401 -0.091)" fill="#ef3b39"/>
      </g>
    </g>
    <g id="Сгруппировать_396" data-name="Сгруппировать 396" transform="translate(335.612 322.255)">
      <g id="Сгруппировать_395" data-name="Сгруппировать 395" transform="translate(0 0)">
        <rect id="Прямоугольник_1276" data-name="Прямоугольник 1276" width="4" height="31" transform="translate(0.401 -0.091)" fill="#ef3b39"/>
      </g>
    </g>
    <g id="Сгруппировать_398" data-name="Сгруппировать 398" transform="translate(352.517 322.255)">
      <g id="Сгруппировать_397" data-name="Сгруппировать 397" transform="translate(0 0)">
        <rect id="Прямоугольник_1277" data-name="Прямоугольник 1277" width="3" height="31" transform="translate(0.496 -0.091)" fill="#ef3b39"/>
      </g>
    </g>
    <g id="Сгруппировать_400" data-name="Сгруппировать 400" transform="translate(343.415 288.445)">
      <g id="Сгруппировать_399" data-name="Сгруппировать 399" transform="translate(0 0)">
        <rect id="Прямоугольник_1278" data-name="Прямоугольник 1278" width="6" height="21" transform="translate(-0.401 -0.281)" fill="#ef3b39"/>
      </g>
    </g>
    <g id="Сгруппировать_402" data-name="Сгруппировать 402" transform="translate(335.612 288.445)">
      <g id="Сгруппировать_401" data-name="Сгруппировать 401" transform="translate(0 0)">
        <rect id="Прямоугольник_1279" data-name="Прямоугольник 1279" width="4" height="21" transform="translate(0.401 -0.281)" fill="#ef3b39"/>
      </g>
    </g>
    <g id="Сгруппировать_404" data-name="Сгруппировать 404" transform="translate(327.81 288.445)">
      <g id="Сгруппировать_403" data-name="Сгруппировать 403" transform="translate(0 0)">
        <rect id="Прямоугольник_1280" data-name="Прямоугольник 1280" width="4" height="21" transform="translate(0.203 -0.281)" fill="#ef3b39"/>
      </g>
    </g>
    <g id="Сгруппировать_406" data-name="Сгруппировать 406" transform="translate(352.517 288.445)">
      <g id="Сгруппировать_405" data-name="Сгруппировать 405" transform="translate(0 0)">
        <rect id="Прямоугольник_1281" data-name="Прямоугольник 1281" width="3" height="21" transform="translate(0.496 -0.281)" fill="#ef3b39"/>
      </g>
    </g>
    <g id="Сгруппировать_408" data-name="Сгруппировать 408" transform="translate(360.319 288.445)">
      <g id="Сгруппировать_407" data-name="Сгруппировать 407" transform="translate(0 0)">
        <rect id="Прямоугольник_1282" data-name="Прямоугольник 1282" width="4" height="21" transform="translate(-0.306 -0.281)" fill="#ef3b39"/>
      </g>
    </g>
    <g id="Сгруппировать_410" data-name="Сгруппировать 410" transform="translate(343.415 382.072)">
      <g id="Сгруппировать_409" data-name="Сгруппировать 409" transform="translate(0 0)">
        <rect id="Прямоугольник_1283" data-name="Прямоугольник 1283" width="6" height="31" transform="translate(-0.401 0.092)" fill="#ef3b39"/>
      </g>
    </g>
    <g id="Сгруппировать_412" data-name="Сгруппировать 412" transform="translate(338.292 402.851)">
      <g id="Сгруппировать_411" data-name="Сгруппировать 411">
        <path id="Контур_76290" data-name="Контур 76290" d="M323.858,358.517a2,2,0,0,1-1.714-.97l-6-10,3.428-2.06,4.287,7.143,4.287-7.143,3.428,2.06-6,10A2,2,0,0,1,323.858,358.517Z" transform="translate(-316.143 -345.485)" fill="#ef3b39"/>
      </g>
    </g>
    <g id="Сгруппировать_414" data-name="Сгруппировать 414" transform="translate(343.415 366.468)">
      <g id="Сгруппировать_413" data-name="Сгруппировать 413" transform="translate(0 0)">
        <rect id="Прямоугольник_1284" data-name="Прямоугольник 1284" width="6" height="4" transform="translate(-0.401 -0.304)" fill="#ef3b39"/>
      </g>
    </g>
    <g id="Сгруппировать_416" data-name="Сгруппировать 416" transform="translate(343.415 374.27)">
      <g id="Сгруппировать_415" data-name="Сгруппировать 415" transform="translate(0 0)">
        <rect id="Прямоугольник_1285" data-name="Прямоугольник 1285" width="6" height="4" transform="translate(-0.401 -0.106)" fill="#ef3b39"/>
      </g>
    </g>
  </g>
</svg>
