<svg xmlns="http://www.w3.org/2000/svg" width="111" height="111" viewBox="0 0 111 111">
  <g id="Сгруппировать_384" data-name="Сгруппировать 384" transform="translate(-32.063 -32)">
    <circle id="Эллипс_102" data-name="Эллипс 102" cx="15.5" cy="15.5" r="15.5" transform="translate(112.063 72)" fill="#ef3b39"/>
    <circle id="Эллипс_103" data-name="Эллипс 103" cx="15.5" cy="15.5" r="15.5" transform="translate(72.063 93)" fill="#fc3"/>
    <circle id="Эллипс_104" data-name="Эллипс 104" cx="15.5" cy="15.5" r="15.5" transform="translate(32.063 112)" fill="#ef3b39"/>
    <circle id="Эллипс_105" data-name="Эллипс 105" cx="15.5" cy="15.5" r="15.5" transform="translate(32.063 72)" fill="#fc3"/>
    <circle id="Эллипс_106" data-name="Эллипс 106" cx="15.5" cy="15.5" r="15.5" transform="translate(72.063 51)" fill="#fc3"/>
    <circle id="Эллипс_107" data-name="Эллипс 107" cx="15.5" cy="15.5" r="15.5" transform="translate(32.063 32)" fill="#ef3b39"/>
    <g id="Сгруппировать_376" data-name="Сгруппировать 376" transform="translate(45.877 65.17)">
      <path id="Контур_76276" data-name="Контур 76276" d="M80.849,95.843,40.934,75.017a1.736,1.736,0,0,1,0-3.079L80.849,51.113l1.6,3.079L45.488,73.478,82.453,92.764Z" transform="translate(-40 -51.113)" fill="#2d2d2e"/>
    </g>
    <g id="Сгруппировать_377" data-name="Сгруппировать 377" transform="translate(45.877 45.883)">
      <path id="Контур_76277" data-name="Контур 76277" d="M41.737,123.3a1.736,1.736,0,0,1-1.453-2.688l25.6-38.963-25.6-38.963a1.736,1.736,0,0,1,2.2-2.518L82.4,59.26l39.968,20.852a1.736,1.736,0,0,1,0,3.079L82.453,104.016,42.485,123.132A1.742,1.742,0,0,1,41.737,123.3ZM67.965,84.811l-21.358,32.5,32.5-15.545Zm2.077-3.16,12.2,18.562,35.575-18.562L82.239,63.09ZM46.607,45.989l21.358,32.5L79.11,61.534Z" transform="translate(-40 -40)" fill="#2d2d2e"/>
    </g>
    <g id="Сгруппировать_378" data-name="Сгруппировать 378" transform="translate(122.237 82.328)">
      <path id="Контур_76278" data-name="Контур 76278" d="M89.206,71.413a5.206,5.206,0,1,1,5.206-5.206A5.213,5.213,0,0,1,89.206,71.413Zm0-6.942a1.735,1.735,0,1,0,1.735,1.735A1.738,1.738,0,0,0,89.206,64.471Z" transform="translate(-84 -61)" fill="#2d2d2e"/>
    </g>
    <g id="Сгруппировать_379" data-name="Сгруппировать 379" transform="translate(82.321 61.503)">
      <path id="Контур_76279" data-name="Контур 76279" d="M66.206,59.413a5.206,5.206,0,1,1,5.206-5.206A5.213,5.213,0,0,1,66.206,59.413Zm0-6.942a1.735,1.735,0,1,0,1.735,1.735A1.738,1.738,0,0,0,66.206,52.471Z" transform="translate(-61 -49)" fill="#2d2d2e"/>
    </g>
    <g id="Сгруппировать_380" data-name="Сгруппировать 380" transform="translate(82.321 103.154)">
      <path id="Контур_76280" data-name="Контур 76280" d="M66.206,83.413a5.206,5.206,0,1,1,5.206-5.206A5.213,5.213,0,0,1,66.206,83.413Zm0-6.942a1.735,1.735,0,1,0,1.735,1.735A1.738,1.738,0,0,0,66.206,76.471Z" transform="translate(-61 -73)" fill="#2d2d2e"/>
    </g>
    <g id="Сгруппировать_381" data-name="Сгруппировать 381" transform="translate(42.406 42.413)">
      <path id="Контур_76281" data-name="Контур 76281" d="M43.206,48.413a5.206,5.206,0,1,1,5.206-5.206A5.213,5.213,0,0,1,43.206,48.413Zm0-6.942a1.735,1.735,0,1,0,1.735,1.735A1.738,1.738,0,0,0,43.206,41.471Z" transform="translate(-38 -38)" fill="#2d2d2e"/>
    </g>
    <g id="Сгруппировать_382" data-name="Сгруппировать 382" transform="translate(42.406 82.328)">
      <path id="Контур_76282" data-name="Контур 76282" d="M43.206,71.413a5.206,5.206,0,1,1,5.206-5.206A5.213,5.213,0,0,1,43.206,71.413Zm0-6.942a1.735,1.735,0,1,0,1.735,1.735A1.738,1.738,0,0,0,43.206,64.471Z" transform="translate(-38 -61)" fill="#2d2d2e"/>
    </g>
    <g id="Сгруппировать_383" data-name="Сгруппировать 383" transform="translate(42.406 122.244)">
      <path id="Контур_76283" data-name="Контур 76283" d="M43.206,94.413a5.206,5.206,0,1,1,5.206-5.206A5.213,5.213,0,0,1,43.206,94.413Zm0-6.942a1.735,1.735,0,1,0,1.735,1.735A1.738,1.738,0,0,0,43.206,87.471Z" transform="translate(-38 -84)" fill="#2d2d2e"/>
    </g>
  </g>
</svg>
