<svg id="Snappy_logo" data-name="Snappy logo" xmlns="http://www.w3.org/2000/svg" xmlns:xlink="http://www.w3.org/1999/xlink" width="213.218" height="89.414" viewBox="0 0 213.218 89.414">
  <defs>
    <clipPath id="clip-path">
      <rect id="Прямоугольник_5" data-name="Прямоугольник 5" width="213.218" height="89.414" fill="none"/>
    </clipPath>
  </defs>
  <g id="Сгруппировать_6" data-name="Сгруппировать 6">
    <g id="Сгруппировать_5" data-name="Сгруппировать 5" clip-path="url(#clip-path)">
      <path id="Контур_17" data-name="Контур 17" d="M30.963,75.606c-7.87,5.822-18.212,7.977-27.843,7.145a41.086,41.086,0,0,0,17.8,4c9.64-.139,11.941-1.655,10.039-11.147" transform="translate(-0.736 -17.826)" fill="#991b1e"/>
      <path id="Контур_18" data-name="Контур 18" d="M78.7,76.818c5.3,4.813,15.187,4.148,21.741,4.046a24.514,24.514,0,0,1-9.024,4.259c-1.615.469-10.451,2.816-11.65,1.907-1.628-1.233-1.176-8.7-1.066-10.211" transform="translate(-18.522 -18.112)" fill="#991b1e"/>
      <path id="Контур_19" data-name="Контур 19" d="M0,89.414A40.607,40.607,0,0,0,23.548,75.407c8.141-9.749,6.16-16.572-.022-27.114C14.154,32.312,11.2,12.359,30.47,2.932c16.55-8.094,40.859,1.113,41.724,20.915.542,12.407-8.439,22.8-8.064,34.777C64.477,69.7,76.819,80.917,85.739,85.485c-17.659,4.823-32.929-14.537-40.517-27.5C44.943,79.99,17.309,87.757,0,89.414" transform="translate(0 0)" fill="#ef3b39"/>
      <path id="Контур_20" data-name="Контур 20" d="M27.314,26.515a217.9,217.9,0,0,1,62.621-7.367s3.738,18.8-1.807,19.306A72.3,72.3,0,0,1,69.64,40.233s-4,1.206-4.109-15.834l-5.259.338s4.341,15.273-1.032,16.512c0,0-13.166,3.3-24.827,3.3,0,0-4.405.7-7.1-18.036" transform="translate(-6.44 -4.485)" fill="#231f20"/>
    </g>
  </g>
  <rect id="Прямоугольник_6" data-name="Прямоугольник 6" width="15.511" height="2.376" transform="translate(69.561 31.394) rotate(-46.477)" fill="#fff"/>
  <rect id="Прямоугольник_7" data-name="Прямоугольник 7" width="10.613" height="2.376" transform="translate(67.874 26.605) rotate(-46.477)" fill="#fff"/>
  <g id="Сгруппировать_8" data-name="Сгруппировать 8">
    <g id="Сгруппировать_7" data-name="Сгруппировать 7" clip-path="url(#clip-path)">
      <path id="Контур_21" data-name="Контур 21" d="M130.328,67.616h3.028a1.156,1.156,0,0,1,1.06.81,1.1,1.1,0,0,1,.038.264q0,4.388-.008,8.776c.038-.039.839-1.8,2.414-5.138,1.257-2.67,1.947-4.053,2.05-4.213a1.083,1.083,0,0,1,.849-.5h3.511a1.136,1.136,0,0,1,.982.613.973.973,0,0,1,.115.433v.108a5.607,5.607,0,0,1-.678,1.558Q140.8,76.2,138.042,82.137c2.151,4.315,4.374,8.595,6.521,12.911,0,.025.026.124.038.266a1.279,1.279,0,0,1-.85,1.161,1.756,1.756,0,0,1-.442.107c-1.209.144-1.813.218-3.021.372a1.067,1.067,0,0,1-1.248-.54c-1.561-3.029-3.081-6.079-4.583-9.138l-.019,0q0,4.464-.008,8.927c0,.125.012.281.018.449a1.343,1.343,0,0,1-.538.963,1.434,1.434,0,0,1-.748.317c-.975.143-1.462.217-2.437.368a1.286,1.286,0,0,1-1.189-.239,1,1,0,0,1-.288-.651V69.181c0-.128-.013-.289-.019-.463a1.165,1.165,0,0,1,.54-.909.948.948,0,0,1,.559-.193" transform="translate(-30.469 -15.942)" fill="#1a1818"/>
      <path id="Контур_22" data-name="Контур 22" d="M162.03,72.329q-.011,4.661-.023,9.322c0,.024.012.034.038.034l.887-.038q1.293-.054,1.293-.156a1.787,1.787,0,0,0,.908-.687,2.279,2.279,0,0,0,.216-1.175c0-2.094.008-3.14.012-5.234,0-.766-.036-1.149-.113-1.147a1.535,1.535,0,0,0-.731-.8,3.045,3.045,0,0,0-1.311-.172l-1.138.016c-.026,0-.038.012-.038.035m-4.116-4.713h6.1a7.29,7.29,0,0,1,3.373.922,6.32,6.32,0,0,1,2.733,2.927,5.18,5.18,0,0,1,.477,2.1c-.007.254-.02.452-.021.576,0,2.107-.006,3.16-.011,5.267,0,.158.012.367.018.609a5.568,5.568,0,0,1-.894,2.893,9.265,9.265,0,0,1-.6.8,4.974,4.974,0,0,1,.9,1.356,5.414,5.414,0,0,1,.574,2.771c-.005,2.3-.008,3.445-.013,5.741a1.187,1.187,0,0,1-.987,1.179c-.129.02-.232.032-.309.037-1.066.07-1.6.107-2.665.184a1.093,1.093,0,0,1-1.272-.781,2.674,2.674,0,0,1-.018-.274c.006-2.526.009-3.789.015-6.315a1.319,1.319,0,0,0-.943-1.22,3.254,3.254,0,0,0-1.446-.076l-.888.051c-.026,0-.038.014-.038.037-.008,3.008-.011,4.512-.019,7.52,0,.115.013.26.019.414a1.15,1.15,0,0,1-.543.861,1.448,1.448,0,0,1-.753.257c-.98.087-1.47.132-2.449.225a1.43,1.43,0,0,1-1.195-.271.915.915,0,0,1-.288-.606c0-1.946.007-2.919.011-4.866.006-2.479-.008-4.318-.006-5.481,0-1.491.028-3.444.034-5.818,0-1.185,0-1.777.007-2.962,0-1.763,0-4.113,0-7.034,0-.41.272-.741.813-.987a1.731,1.731,0,0,1,.289-.035" transform="translate(-36.962 -15.942)" fill="#1a1818"/>
      <path id="Контур_23" data-name="Контур 23" d="M189.624,79.45c0,.034-.543,2.212-1.63,6.561,1.306-.026,1.96-.038,3.266-.055q-1.618-6.449-1.617-6.506h-.019m-1.569-11.834h3.182a1.149,1.149,0,0,1,1.021.7q1.529,6.151,3.063,12.3c1.034,4.1,2.121,8.187,3.071,12.305V93.1q0,.545-.774.859a1.833,1.833,0,0,1-.561.068c-1.068,0-1.6.009-2.67.021a1.189,1.189,0,0,1-1.3-.793q0-.066-.714-2.866c-2.2.032-3.306.056-5.51.116q-.718,2.9-.777,3.118a1.359,1.359,0,0,1-1.239.66c-1.068.041-1.6.063-2.668.111a1.218,1.218,0,0,1-1.275-.612,1.4,1.4,0,0,1-.076-.382c1.323-5.584,2.737-11.149,4.123-16.719.684-2.809,1.392-5.614,2.095-8.418a1.147,1.147,0,0,1,1.005-.648" transform="translate(-42.636 -15.942)" fill="#1a1818"/>
      <path id="Контур_24" data-name="Контур 24" d="M211.613,67.616h3.028a1.15,1.15,0,0,1,1.062.713.844.844,0,0,1,.039.232c0,3.093.005,4.639.008,7.732q.059-.048,2.407-4.468c1.253-2.355,1.937-3.615,2.04-3.76a1.109,1.109,0,0,1,.847-.451h3.511a1.152,1.152,0,0,1,.984.573.874.874,0,0,1,.117.4v.1a4.94,4.94,0,0,1-.672,1.446q-2.792,5.28-5.617,10.543c2.223,4.187,4.482,8.362,6.59,12.61,0,.022.028.119.039.254.037.419-.281.777-.848.949a1.76,1.76,0,0,1-.444.027c-1.213-.064-1.82-.093-3.035-.146a1.322,1.322,0,0,1-1.257-.687q-2.314-4.375-4.631-8.75h-.02l.009,7.866c0,.11.014.25.02.4.011.265-.18.532-.541.766a1.376,1.376,0,0,1-.754.163c-.983-.024-1.474-.034-2.457-.051a1.638,1.638,0,0,1-1.2-.383.941.941,0,0,1-.291-.6q-.007-12.072-.014-24.145c0-.11-.014-.248-.02-.4-.011-.264.18-.534.54-.776a1.055,1.055,0,0,1,.559-.166" transform="translate(-49.634 -15.942)" fill="#1a1818"/>
      <path id="Контур_25" data-name="Контур 25" d="M238.02,67.616h8.737a1.118,1.118,0,0,1,1.044.758.584.584,0,0,1,.039.229c0,1.107,0,1.66.006,2.767q0,.635-.827.956a1.282,1.282,0,0,1-.27.031c-1.82-.03-2.731-.044-4.552-.069-.026,0-.039.011-.039.034.007,2.705.01,4.058.017,6.763,0,.023.013.035.039.036,1.065.037,1.6.056,2.662.1.129,0,.288,0,.463,0a1.26,1.26,0,0,1,.908.508,1.128,1.128,0,0,1,.213.71c0,.891,0,1.337.005,2.227a1.186,1.186,0,0,1-.4,1.048,1.166,1.166,0,0,1-.713.224c-1.25-.067-1.875-.1-3.124-.16q-.039.016-.039.032c.007,2.706.01,4.058.017,6.763,0,.024.013.036.038.038,1.637.113,2.454.175,4.09.3.129.01.288.011.463.019a1.308,1.308,0,0,1,.907.566.9.9,0,0,1,.194.527c0,1.107,0,1.66.007,2.767q0,.652-.827.888a1.276,1.276,0,0,1-.27.009l-.984-.093c-1.813-.169-4.378-.386-7.681-.619a1.327,1.327,0,0,1-1.005-.617.979.979,0,0,1-.155-.454c-.181-2.609.008-5.05,0-6.7q-.014-5.9-.028-11.8c0-1.659-.022-3.938-.035-6.819a1.021,1.021,0,0,1,.538-.8,1.035,1.035,0,0,1,.559-.171" transform="translate(-55.856 -15.942)" fill="#1a1818"/>
      <path id="Контур_26" data-name="Контур 26" d="M260.149,67.616h3.3a1.165,1.165,0,0,1,1.042.756q2.315,6.4,4.544,12.84h.02l-.011-12.072c0-.126-.014-.283-.02-.452a1.131,1.131,0,0,1,.539-.885.969.969,0,0,1,.559-.189h3.028a1.157,1.157,0,0,1,1.061.831,1.128,1.128,0,0,1,.039.271V96.949c0,.129.013.29.019.467a.966.966,0,0,1-.537.824,1.12,1.12,0,0,1-.748.1c-1.035-.16-1.553-.239-2.589-.392a1.487,1.487,0,0,1-1.248-.9q-2.37-6.935-4.825-13.839H264.3q.009,6.19.019,12.382c0,.123.014.277.02.445a.94.94,0,0,1-.537.8,1.185,1.185,0,0,1-.75.106c-.977-.124-1.465-.184-2.443-.3a1.709,1.709,0,0,1-1.194-.538,1.183,1.183,0,0,1-.29-.682l-.055-26.336c0-.12-.014-.27-.021-.432a1.074,1.074,0,0,1,.538-.847.993.993,0,0,1,.559-.181" transform="translate(-61.078 -15.942)" fill="#1a1818"/>
      <path id="Контур_27" data-name="Контур 27" d="M133.987,22.715l.6.083a8.166,8.166,0,0,1,6.2,5.181,5.935,5.935,0,0,1,.369,1.851c0,1.218,0,1.827.005,3.045,0,.46-.294.768-.883.927a1.957,1.957,0,0,1-.385.005c-1.063-.085-1.594-.129-2.657-.218a1.332,1.332,0,0,1-1.271-1.055c-.013-.124-.02-.224-.02-.3l0-2.726a1.791,1.791,0,0,0-1.041-1.527,2.034,2.034,0,0,0-.538-.156l-.153-.018a1.393,1.393,0,0,0-1.46.845,1.621,1.621,0,0,0-.1.5c0,.633,0,.949,0,1.582,0,1.118.8,2.334,2.33,3.61,1.141.95,2.08,1.755,2.814,2.383,2.249,2.058,3.378,4.2,3.382,6.519,0,1.284,0,1.926.007,3.209a6.063,6.063,0,0,1-1.15,3.322,8.7,8.7,0,0,1-1.136,1.212,7.171,7.171,0,0,1-4.588,1.666,6.85,6.85,0,0,1-5.209-2.376A7.254,7.254,0,0,1,127.541,47a9.989,9.989,0,0,1-.116-1.743V42.992a1.133,1.133,0,0,1,.981-1.222c.128-.005.232-.006.307,0,1.062.058,1.594.087,2.657.143a1.281,1.281,0,0,1,1.271,1.025c.013.126.02.228.02.3,0,1.107,0,1.661,0,2.768a1.62,1.62,0,0,0,1.042,1.457,1.855,1.855,0,0,0,.52.106l.155,0a1.6,1.6,0,0,0,1.482-.967,1.627,1.627,0,0,0,.1-.5l0-3.023c0-1.261-.915-2.553-2.738-3.934-.88-.71-1.319-1.068-2.2-1.795a12.408,12.408,0,0,1-1.885-2.058,9.5,9.5,0,0,1-1.27-2.484,11.173,11.173,0,0,1-.441-3.349v-.348a6.743,6.743,0,0,1,.728-3.475,4.71,4.71,0,0,1,1.055-1.389,5.737,5.737,0,0,1,1.5-1.045,6.349,6.349,0,0,1,3.282-.494" transform="translate(-30.044 -5.344)" fill="#1a1818"/>
      <path id="Контур_28" data-name="Контур 28" d="M155.025,25.048c1.319.131,1.978.194,3.3.313a1.31,1.31,0,0,1,1.043.8q2.26,6.017,4.564,12.018h.019q-.014-5.487-.027-10.973c0-.113-.014-.257-.02-.412a.927.927,0,0,1,.538-.765.978.978,0,0,1,.56-.13c1.212.087,1.819.129,3.032.206a1.25,1.25,0,0,1,1.064.792.934.934,0,0,1,.04.239q.026,12.344.054,24.687c0,.113.014.254.02.406a1,1,0,0,1-.538.794,1.37,1.37,0,0,1-.751.185h-2.6a1.273,1.273,0,0,1-1.256-.65q-2.457-6.207-4.853-12.44h-.019q.015,5.834.029,11.667c0,.116.014.261.021.417a1.031,1.031,0,0,1-.538.815,1.333,1.333,0,0,1-.752.192H155.5a1.54,1.54,0,0,1-1.2-.389,1.025,1.025,0,0,1-.291-.636q-.031-12.91-.061-25.819c0-.118-.014-.266-.021-.426a1.036,1.036,0,0,1,1.1-.9" transform="translate(-36.293 -5.905)" fill="#1a1818"/>
      <path id="Контур_29" data-name="Контур 29" d="M188.589,39.073c0,.033-.539,2.195-1.615,6.5,1.306.012,1.958.017,3.263.025-1.085-4.312-1.628-6.5-1.628-6.529h-.019m-1.6-11.853c1.277.037,1.915.053,3.192.079a1.186,1.186,0,0,1,1.026.713q1.538,6.159,3.081,12.318c1.036,4.094,2.123,8.18,3.072,12.3V52.8q0,.544-.772.857a1.8,1.8,0,0,1-.559.066h-2.662a1.2,1.2,0,0,1-1.293-.808q0-.066-.716-2.872c-2.2-.005-3.3-.009-5.5-.019q-.71,2.867-.767,3.085a1.294,1.294,0,0,1-1.234.614H181.2a1.282,1.282,0,0,1-1.274-.669,1.452,1.452,0,0,1-.078-.385c1.3-5.515,2.7-11.009,4.064-16.509.677-2.78,1.378-5.554,2.076-8.329a1.105,1.105,0,0,1,1.005-.616" transform="translate(-42.403 -6.418)" fill="#1a1818"/>
      <path id="Контур_30" data-name="Контур 30" d="M214.719,31.729q0,4.453-.01,8.907c0,.022.013.033.039.033l.888-.012q1.294-.02,1.294-.12a1.719,1.719,0,0,0,.909-.647,2.122,2.122,0,0,0,.214-1.134l.008-5.069q0-1.114-.115-1.11a1.474,1.474,0,0,0-.733-.76,3.17,3.17,0,0,0-1.315-.147l-1.14.027q-.039,0-.039.034m-4.134-4.414c2.445-.039,3.667-.069,6.112-.148a7.341,7.341,0,0,1,3.383.775,5.875,5.875,0,0,1,2.74,2.777,4.973,4.973,0,0,1,.479,2.058c-.007.251-.02.448-.021.571,0,2.085-.006,3.127-.01,5.213,0,.156.012.363.018.6a5.422,5.422,0,0,1-.913,2.886,6.661,6.661,0,0,1-1.3,1.446,7.334,7.334,0,0,1-3.284,1.5,8.658,8.658,0,0,1-1.351.147c-.239,0-.457-.011-.637-.01l-1.062.01c-.026,0-.038.011-.038.033,0,2.875-.005,4.312-.008,7.185,0,.11.013.249.018.4.011.264-.181.536-.541.778a1.39,1.39,0,0,1-.753.182h-2.449a1.6,1.6,0,0,1-1.2-.363.923.923,0,0,1-.289-.593c0-1.821,0-2.731,0-4.551,0-2.32-.015-4.04-.016-5.128,0-1.392.021-3.221.022-5.442,0-1.108,0-1.662,0-2.77,0-1.649-.011-3.849-.015-6.579q0-.576.812-.935a1.91,1.91,0,0,1,.291-.038" transform="translate(-49.389 -6.404)" fill="#1a1818"/>
      <path id="Контур_31" data-name="Контур 31" d="M240.311,30.493q-.011,4.631-.023,9.261,0,.034.039.032l.887-.035c.861-.035,1.293-.089,1.293-.158a1.792,1.792,0,0,0,.908-.7,2.347,2.347,0,0,0,.216-1.192c.005-2.122.008-3.183.013-5.3q0-1.166-.112-1.157a1.422,1.422,0,0,0-.731-.764,2.985,2.985,0,0,0-1.312-.1l-1.138.077q-.039,0-.039.037m-4.12-4.373c2.441-.169,3.661-.263,6.1-.472a6.786,6.786,0,0,1,3.374.64,5.612,5.612,0,0,1,2.73,2.8,5.353,5.353,0,0,1,.477,2.153c-.007.267-.02.474-.021.6,0,2.2-.008,3.3-.013,5.506,0,.166.012.384.018.636a6.061,6.061,0,0,1-.913,3.068,7.073,7.073,0,0,1-1.3,1.55,7.278,7.278,0,0,1-3.282,1.628,8.32,8.32,0,0,1-1.351.177c-.239,0-.457-.005-.636,0l-1.061.028c-.026,0-.039.012-.039.035-.007,2.988-.011,4.482-.018,7.47,0,.115.012.258.018.413a1.026,1.026,0,0,1-.542.809,1.35,1.35,0,0,1-.753.189h-2.449a1.578,1.578,0,0,1-1.2-.373.958.958,0,0,1-.288-.611c0-1.874.006-2.811.011-4.685.005-2.388-.008-4.159-.008-5.279,0-1.434.028-3.316.032-5.6,0-1.14,0-1.711.007-2.852,0-1.7,0-3.961,0-6.771q0-.593.813-1a1.942,1.942,0,0,1,.29-.054" transform="translate(-55.419 -6.042)" fill="#1a1818"/>
      <path id="Контур_32" data-name="Контур 32" d="M260.353,23.44c1.208-.145,1.813-.22,3.02-.374a.967.967,0,0,1,1.094.668c.757,2.494,1.517,4.989,2.258,7.489.756-2.755,1.547-5.5,2.315-8.251a1.452,1.452,0,0,1,1.056-.831c1.236-.182,1.854-.275,3.088-.467a.98.98,0,0,1,1.131.963v.1a17.5,17.5,0,0,1-.5,1.887c-1.481,5.036-3.01,10.058-4.5,15.09q0,5.8-.01,11.593a1.113,1.113,0,0,1-.734,1.018,1.336,1.336,0,0,1-.54.094h-2.662a1.175,1.175,0,0,1-1.271-1.049q.009-5.669.018-11.338c-1.564-4.944-3.2-9.865-4.843-14.785a1.329,1.329,0,0,1-.134-.49c0-.05,0-.075,0-.126,0-.457.29-.825.868-1.111a2.028,2.028,0,0,1,.346-.077" transform="translate(-61.099 -5.107)" fill="#1a1818"/>
    </g>
  </g>
</svg>
